<svg width="160" height="160" viewBox="0 0 160 160" fill="none" xmlns="http://www.w3.org/2000/svg">
<path d="M92.9333 66.216C91.8027 66.94 90.524 66.8827 89.2667 66.8747C88.8973 66.8747 88.8213 66.956 88.8267 67.2747C88.8373 68.0747 88.8267 68.868 88.8267 69.6653C88.8267 71.132 88.8267 71.096 90.2933 71.112C92.4493 71.1347 94.6067 71.0227 96.7627 71.1747C96.7627 73.1227 96.7627 75.0707 96.7493 77.0187C96.7493 77.356 96.8 77.5227 97.2013 77.5107C98.164 77.48 99.128 77.4933 100.092 77.5107C100.377 77.5107 100.504 77.456 100.5 77.1253C100.475 75.1547 100.473 73.1853 100.464 71.2147C101.764 70.9893 103.076 71.2 104.38 71.1027C104.833 71.068 104.979 71.1893 104.971 71.664C104.94 73.3973 104.952 75.1307 104.971 76.864C104.971 77.0653 104.812 77.3267 105.096 77.4813C106.192 77.4893 107.289 77.4813 108.385 77.5147C108.743 77.5253 108.804 77.4027 108.801 77.0773C108.78 75.1173 108.783 73.1587 108.777 71.1987L109.329 71.0827C109.394 71.0759 109.457 71.0625 109.519 71.0427C110.571 71.0882 111.626 71.0301 112.667 70.8693C115.152 70.5107 117.393 69.6173 119.251 67.876C121.784 65.5027 122.44 61.1613 121.288 58.344C120.973 57.3562 120.397 56.472 119.62 55.7853C119.367 55.3097 118.969 54.9278 118.483 54.696C117.663 53.9573 116.647 53.568 115.603 53.1813C116.003 52.732 116.551 52.624 116.803 52.1653C116.938 52.1512 117.064 52.0926 117.163 51.9987C120.257 49.4013 120.689 44.1213 118.057 41.0173C117.621 40.3793 117.045 39.849 116.373 39.4667C115.38 38.7251 114.216 38.2463 112.988 38.0747C112.959 38.1012 112.923 38.1176 112.884 38.1213L112.988 38.0747C112.388 38.0627 111.811 37.8373 111.204 37.8933C110.545 37.744 109.871 37.8093 109.212 37.8133C108.839 37.8133 108.72 37.68 108.741 37.3493C108.749 35.5747 108.741 33.8 108.776 32.0267C108.784 31.5893 108.605 31.5347 108.243 31.544C107.309 31.5653 106.376 31.544 105.443 31.56C105.292 31.56 105.053 31.4267 104.993 31.7213C104.993 33.564 104.984 35.4053 104.965 37.2493C104.965 37.46 105.133 37.808 104.672 37.7947C103.275 37.7547 101.872 37.8747 100.48 37.7293C100.489 35.784 100.48 33.84 100.52 31.896C100.52 31.516 100.352 31.544 100.113 31.5453C99.18 31.5453 98.236 31.5773 97.2987 31.5453C96.8787 31.5307 96.7413 31.6147 96.7507 32.0693C96.7813 33.756 96.7347 35.444 96.7787 37.1293C96.7933 37.6973 96.6253 37.824 96.084 37.816C93.856 37.788 91.628 37.8093 89.4 37.8067C89.108 37.8067 88.836 37.7613 88.848 38.2067C88.8827 39.516 88.8893 40.8267 88.908 42.136C89.54 42.412 90.2067 42.2107 90.8547 42.2787C92.428 42.4467 93.364 42.536 93.8107 44.5667L93.8467 46.2173V48.48C93.8467 48.528 93.8467 48.576 93.8467 48.624V50.7333V56.508C93.8387 58.8907 93.8253 61.2733 93.8267 63.656C93.8267 64.4653 93.684 65.2293 93.2493 65.9227L92.9493 66.216H92.9333ZM100.667 65.7333C100.673 62.9911 100.673 60.2493 100.667 57.508C100.667 57.2413 100.681 56.956 100.512 56.7227C100.527 56.724 100.542 56.724 100.557 56.7227C103.829 56.7227 107.099 56.744 110.369 56.7067C110.406 56.6959 110.444 56.6874 110.481 56.6813C110.576 56.7656 110.697 56.8154 110.824 56.8227C111.456 56.9521 112.062 57.1831 112.62 57.5067C112.764 57.588 112.912 57.6973 113.092 57.628C113.092 57.6503 113.096 57.6724 113.104 57.6933C113.223 57.9232 113.37 58.1377 113.541 58.332C115.253 60.504 114.62 64.1467 112.173 65.444C111.981 65.5453 111.731 65.6173 111.715 65.9C111.67 65.8782 111.622 65.8664 111.572 65.8653C110.175 66.2767 108.723 66.4714 107.267 66.4427C105.365 66.384 103.461 66.4267 101.557 66.4307C101.229 66.4307 100.897 66.404 100.579 66.5107C100.554 66.5201 100.53 66.5327 100.508 66.548C100.688 66.3133 100.667 66.02 100.667 65.7333ZM113.272 45.5387C113.785 47.4947 113.329 49.172 111.853 50.564C110.489 51.652 108.836 51.7253 107.208 51.8787H100.727C100.384 51.7787 100.593 51.444 100.46 51.2573C100.471 48.3169 100.48 45.3769 100.489 42.4373C103.081 42.4373 105.679 42.4013 108.271 42.4493C109.737 42.476 111.133 42.828 112.28 43.8387L112.4 43.972C112.752 44.4693 113.113 44.9467 113.272 45.544V45.5387ZM105.097 71.3013C105.088 71.298 105.078 71.298 105.069 71.3013C105.011 71.3253 105.052 71.276 105.097 71.2707V71.308V71.3013Z" fill="#F7931B"/>
<path d="M139.473 52C139.473 51.9533 139.473 51.9053 139.473 51.8573C139.489 51.5587 139.547 51.2533 139.373 50.9747C139.256 49.8733 139.151 48.7693 138.936 47.6787C138.368 44.7853 137.524 41.9827 136.231 39.324C135.804 38.2946 135.29 37.3043 134.692 36.364C134.011 35.1119 133.216 33.9255 132.316 32.82C131.185 31.204 129.82 29.7987 128.371 28.472C128.002 28.0419 127.57 27.6709 127.089 27.372C125.606 25.9867 123.947 24.8015 122.156 23.8467C122.065 23.7719 121.971 23.7025 121.872 23.6387C117.744 21.2211 113.149 19.7082 108.392 19.2C104.61 18.7693 100.785 18.9095 97.0453 19.616C94.168 20.172 91.3813 21.0107 88.7427 22.308C88.2757 22.4645 87.8345 22.6892 87.4333 22.9747C86.548 23.3573 85.7333 23.8747 84.9333 24.4C84.184 24.7467 83.56 25.2707 82.9333 25.7947L81.8173 26.6253L81.1187 27.2093C80.4907 27.7427 79.8107 28.2253 79.32 28.9053C78.9707 29.1282 78.6722 29.4222 78.444 29.768C77.9623 30.1738 77.5348 30.6398 77.172 31.1547C76.4871 31.8873 75.8716 32.6818 75.3333 33.528C74.6907 34.3225 74.1305 35.1803 73.6613 36.088C73.3178 36.5672 73.0361 37.0877 72.8226 37.6373C71.9053 39.2811 71.189 41.0292 70.6893 42.844C69.8346 45.244 69.2373 47.688 69.1253 50.24C68.9827 50.484 69.0026 50.7493 69.0213 51.0147L68.9853 51.7933C68.8 53.1993 68.8 54.6234 68.9853 56.0293C68.9093 56.3813 68.9853 56.728 69.016 57.076C68.9933 57.3427 68.976 57.6093 69.1213 57.856L69.148 58.2L69.1546 58.4827C69.132 58.7373 69.1053 58.992 69.2613 59.22C69.288 59.5107 69.2107 59.8173 69.4013 60.0813C69.3933 60.9707 69.648 61.8147 69.8626 62.6653C70.548 65.3787 71.412 68.0307 72.788 70.488C72.8553 70.7917 72.9881 71.0771 73.1773 71.324C73.736 70.804 74.3773 70.408 74.7933 69.7573C74.838 69.7603 74.8824 69.7476 74.9187 69.7213C75.428 69.5147 75.504 69.244 75.2373 68.7187C74.2958 66.829 73.5407 64.8521 72.9826 62.816C72.716 61.8907 72.6946 60.904 72.2546 60.0267C72.2413 59.584 72.2626 59.1373 72.208 58.7C71.6226 54.0253 71.888 49.4133 73.1413 44.8627C73.796 42.4933 74.8067 40.2733 75.912 38.0907L78.0453 34.6973C78.5427 34.38 78.8187 33.8707 79.1533 33.4133L80.2507 32.1453L80.5813 31.732L83.248 29.332L83.9546 28.7693C84.1293 28.6707 84.3453 28.6133 84.3667 28.36C85.0453 28.0853 85.5907 27.6 86.1907 27.2L87.3187 26.4947L88.7667 25.68C89.0664 25.6009 89.3465 25.4607 89.5893 25.268C89.8123 25.2372 90.0204 25.1385 90.1853 24.9853C93.5947 23.5053 97.1187 22.5053 100.852 22.232C106.104 21.852 111.2 22.392 116.133 24.2667C117.773 24.8893 119.301 25.74 120.86 26.5333L123.148 28.0627L126.243 30.6067L127.919 32.3027C128.297 32.7338 128.676 33.1649 129.053 33.596C130.671 35.6639 132.088 37.882 133.283 40.22C135.299 44.688 136.476 49.3507 136.561 54.268C136.496 56.7252 136.207 59.1713 135.697 61.576C135.265 63.5573 134.575 65.452 133.851 67.3387C133.512 67.7653 133.435 68.3133 133.184 68.7773C132.608 69.7987 132.032 70.8209 131.457 71.844L128.924 75.2507L127.216 77.0667L126.516 77.772L125.26 78.9093C125.192 78.9285 125.128 78.9622 125.074 79.0082C125.02 79.0543 124.976 79.1115 124.947 79.176L124.413 79.616L124.1 79.8827C123.52 80.1707 123.067 80.6307 122.557 81.016L120.745 82.16C117.84 83.84 114.759 85.08 111.465 85.76C110.176 86.0267 108.871 86.2187 107.572 86.4347C107.481 86.4298 107.39 86.4443 107.305 86.4773L107.121 86.5093L106.36 86.5427C105.864 86.5107 105.365 86.5371 104.875 86.6213C104.827 86.6307 104.779 86.6413 104.731 86.6547C104.355 86.5627 103.977 86.6147 103.6 86.6387C102.933 86.5053 102.249 86.5173 101.569 86.5387C98.248 86.2253 95.024 85.5173 91.932 84.236C91.248 83.9533 90.624 83.52 89.8733 83.4C89.032 82.6773 87.9693 82.3333 87.048 81.7413C87.006 81.7233 86.9596 81.7182 86.9146 81.7267C86.14 80.8 85.0666 80.2667 84.1053 79.592C84.013 79.4012 83.8711 79.2386 83.6945 79.1214C83.5179 79.0041 83.313 78.9364 83.1013 78.9253C82.6467 79.1587 82.3213 79.54 81.9733 79.896C81.9067 79.9161 81.8459 79.9521 81.7962 80.0009C81.7465 80.0497 81.7094 80.1097 81.688 80.176C81.4026 80.3333 81.2 80.576 80.9653 80.8427L82.116 81.716L82.66 82.152L84.6533 83.6787C85.424 84.18 86.144 84.764 87.0027 85.1213C87.4451 85.462 87.9364 85.734 88.46 85.928L89.588 86.4987C90.4533 86.956 91.376 87.276 92.2933 87.6013C94.6187 88.4253 96.992 89.068 99.456 89.3147C100.789 89.62 102.149 89.612 103.505 89.6427C106.179 89.7 108.829 89.5093 111.437 88.8893C114.441 88.3589 117.343 87.3601 120.037 85.9293C120.68 85.6688 121.294 85.3403 121.867 84.9493C122.579 84.6111 123.25 84.1924 123.867 83.7013C124.317 83.4663 124.737 83.1771 125.117 82.84C125.185 82.8219 125.248 82.7898 125.303 82.7457C125.357 82.7016 125.402 82.6465 125.433 82.584L126.387 81.8587C126.396 81.8587 126.405 81.8507 126.413 81.8387C126.771 81.6098 127.098 81.3356 127.385 81.0227C128.899 79.7748 130.271 78.3651 131.477 76.8187C132.067 76.2198 132.578 75.5476 132.997 74.8187C133.596 74.2013 134.02 73.468 134.405 72.708C134.709 72.2107 135.123 71.7747 135.288 71.1947C135.655 70.632 136.032 70.0733 136.143 69.3893C136.321 69.1233 136.482 68.8463 136.625 68.56C138.889 63.2693 139.875 57.756 139.473 52ZM101.427 21.796L101.476 21.8107L101.425 21.82C101.437 21.788 101.361 21.7693 101.427 21.792V21.796Z" fill="#F7931B"/>
<path d="M97.3786 123.961C96.4267 123.201 95.3373 123.317 94.2413 123.475C93.112 123.637 92.0093 123.973 90.8573 123.972C90.6026 123.715 90.484 123.384 90.368 123.053C89.2124 119.755 88.0569 116.456 86.9013 113.159C85.5493 109.313 84.2146 105.463 82.828 101.629C82.4506 100.585 81.9386 99.58 80.868 99.028C80.6653 98.6946 80.3507 98.508 80.0027 98.3613C79.1568 97.805 78.1859 97.4678 77.1773 97.38C76.5993 97.2875 76.0147 97.2429 75.4293 97.2466C71.4915 97.26 67.5542 97.2649 63.6173 97.2613C63.204 97.2613 62.7706 97.336 62.396 97.0666C62.16 96.8 61.9226 96.5453 61.5466 96.488C61.1466 95.92 60.5493 95.604 59.9813 95.2493C58.9839 94.51 57.9032 93.8902 56.7613 93.4026C56.3992 93.1164 55.9822 92.9076 55.536 92.7893C54.9786 92.62 54.8693 92.3 54.8946 91.7693C54.9373 91.052 54.8946 90.3306 54.8853 89.6106C54.8933 88.9346 54.904 88.256 54.904 87.5773C54.904 87.3573 54.9173 87.1946 55.1946 87.3546L56.3173 88.3413L57.1546 89.0506L57.9973 89.7573L58.8373 90.4613C59.6493 91.1626 60.4373 91.9 61.3933 92.4106C63.0493 93.4293 64.8946 93.3866 66.3493 92.2946L66.7493 91.9986C68.1757 90.7125 69.5331 89.3519 70.816 87.9226L70.984 87.756C72.0026 86.9093 72.9066 85.9493 73.8053 84.9813C74.5226 84.2346 75.384 83.6253 75.9386 82.724C76.3242 82.5214 76.6542 82.2275 76.9 81.868C77.0804 81.773 77.2289 81.6269 77.3266 81.448C78.136 80.6386 78.98 79.86 79.7466 79.0106C80.7133 77.944 81.9186 77.0826 82.668 75.8106C82.9242 75.5085 83.0856 75.1374 83.132 74.744C83.2981 74.2052 83.3317 73.6343 83.23 73.0798C83.1284 72.5253 82.8944 72.0034 82.548 71.5586C82.488 71.4013 82.436 71.2386 82.2693 71.1586C81.6893 70.3226 80.8493 69.88 79.9053 69.5933C79.5186 69.4473 79.092 69.4473 78.7053 69.5933C78.3863 69.6137 78.0744 69.697 77.7877 69.8384C77.5009 69.9798 77.245 70.1766 77.0346 70.4173C75.232 72.0933 73.5026 73.8426 71.8173 75.6333C71.8106 75.6333 71.804 75.6413 71.7973 75.6533C70.6746 76.7804 69.5524 77.908 68.4306 79.036L67.1613 80.3026L66.176 81.2893C66.0533 81.3506 65.9226 81.408 65.9306 81.58C65.34 81.98 64.8706 82.5133 64.3973 83.0306C64.052 83.408 63.7533 83.4453 63.3733 83.1453C63.1066 83.012 63.0187 82.7213 62.8253 82.524L61.1093 80.4533C60.8314 80.033 60.5062 79.646 60.14 79.3C59.7733 78.7386 59.3 78.268 58.8493 77.7773C58.5506 77.4186 58.3746 76.9413 57.8853 76.7613C57.4853 76.0146 56.8987 75.4133 56.3307 74.7986L55.756 74.1133L54.9213 73.124C54.5933 72.7053 54.3213 72.2346 53.8173 71.988C52.792 70.2666 51.384 69.024 49.4173 68.488C49.3019 68.4922 49.1865 68.4828 49.0733 68.46C46.712 67.6773 44.5506 68.18 42.512 69.476C42.0067 69.7471 41.566 70.1241 41.22 70.5813C40.1613 71.6378 39.5217 73.0424 39.42 74.5346C39.2506 74.9613 39.2733 75.4106 39.2733 75.8546C39.2733 80.7293 39.2667 85.6053 39.2933 90.48C39.2933 91.072 39.252 91.5133 38.5613 91.5933C38.412 91.5733 38.3106 91.5226 38.2946 91.3426C38.1098 89.7631 37.9195 88.184 37.724 86.6053C37.5675 85.3386 37.4084 84.0733 37.2467 82.8093C37.251 82.6877 37.2357 82.5661 37.2013 82.4493L37.1733 82.2266C36.9146 79.6466 36.6747 77.0653 36.388 74.4933C36.268 73.4053 36.068 72.32 35.3213 71.4426C34.955 70.9019 34.4763 70.4467 33.9177 70.1082C33.3592 69.7697 32.7342 69.5558 32.0853 69.4813C32.0191 69.4584 31.9508 69.4423 31.8813 69.4333C28.548 69.336 25.2147 69.368 21.8813 69.416C21.656 69.416 21.404 69.416 21.2307 69.6226C20.1507 70.4426 20.2173 71.732 21.3747 72.4L21.4267 72.436H21.4667C21.7533 72.676 22.0947 72.5693 22.4067 72.5693C25.3542 72.5782 28.3018 72.5755 31.2493 72.5613C31.888 72.5613 32.4493 72.6946 32.9067 73.144C33.1364 73.5206 33.2866 73.9404 33.348 74.3773C33.4333 75.1653 33.5587 75.9493 33.6573 76.7346C34.068 80.0453 34.4573 83.3573 34.8906 86.6653C35.1266 88.4946 35.2387 90.34 35.6 92.152C35.6533 92.536 35.5267 92.776 35.1307 92.916C34.7947 93.036 34.4946 93.2586 34.1786 93.4346C33.5343 93.7449 32.9182 94.1107 32.3373 94.528L30.7747 95.6653C30.2672 95.9869 29.7991 96.3669 29.38 96.7973C28.7988 97.1945 28.274 97.6686 27.82 98.2066C27.728 98.4826 27.344 98.4733 27.272 98.7746L26.416 99.7333C25.797 100.448 25.2285 101.206 24.7147 102C24.2407 102.669 23.8288 103.379 23.484 104.123C23.3507 104.364 23.188 104.597 23.0707 104.849C21.4707 108.301 20.5987 111.916 20.6053 115.732C20.6053 117.173 20.6053 118.619 20.9453 120.033C21.4843 123.578 22.8319 126.952 24.884 129.892L25.1693 130.315L25.4187 130.635C25.8813 131.504 26.596 132.164 27.2653 132.863C28.0203 133.75 28.8728 134.551 29.8067 135.248C30.3699 135.776 30.984 136.246 31.64 136.653L32.4866 137.219C33.0049 137.616 33.5745 137.943 34.18 138.188C34.4638 138.392 34.7791 138.548 35.1133 138.649C35.7012 139 36.3341 139.269 36.9946 139.449C37.2106 139.536 37.424 139.635 37.644 139.708C41.7226 141.053 45.8666 141.455 50.1013 140.58C52.872 140.16 55.4093 139.113 57.8066 137.699C58.1733 137.484 58.632 137.379 58.8573 136.959C59.9693 136.425 60.9186 135.665 61.812 134.825C62.7422 134.071 63.5913 133.222 64.3453 132.292C64.6493 132.009 64.9773 131.747 65.0733 131.312C65.9645 130.389 66.7128 129.339 67.2933 128.195C68.8073 125.693 69.8106 122.917 70.2453 120.025C70.2225 119.999 70.2081 119.966 70.204 119.931C70.2173 119.963 70.2307 119.993 70.2453 120.025C70.3293 119.576 70.356 119.117 70.4146 118.665C70.6718 116.699 70.6575 114.707 70.372 112.745C70.336 112.492 70.3933 112.177 70.1333 111.981C70.112 111.636 70.1333 111.28 70.0626 110.947C69.796 109.791 69.788 109.795 70.968 109.725C71.2701 109.72 71.5723 109.73 71.8733 109.756C72.4626 109.831 73.0733 109.576 73.644 109.901L79.188 123.965C79.2613 124.252 79.04 124.232 78.8707 124.276C77.22 124.267 75.6866 124.637 74.356 125.665C73.485 126.239 72.7619 127.011 72.2453 127.917C70.5893 130.269 70.528 134.109 72.112 136.505C72.191 136.734 72.3289 136.938 72.512 137.096C72.5988 137.318 72.7479 137.509 72.9413 137.648C73.169 137.973 73.4514 138.257 73.776 138.485C75.0773 139.635 76.556 140.397 78.3093 140.571C80.064 140.795 81.7186 140.525 83.2426 139.592C83.2469 139.592 83.251 139.591 83.2547 139.588C83.2584 139.586 83.2616 139.583 83.264 139.58C84.1948 139.121 85.0073 138.453 85.6386 137.629C85.7417 137.569 85.8311 137.488 85.9011 137.391C85.9712 137.295 86.0203 137.185 86.0453 137.068C86.7541 136.268 87.2122 135.277 87.3626 134.219C87.46 133.584 87.72 133.301 88.316 133.248C88.384 133.264 88.454 133.271 88.524 133.268C90.7791 132.873 93.0329 132.476 95.2853 132.076C96.3027 131.895 97.3013 131.663 98.056 130.876C100.201 129.105 99.8267 125.277 97.3786 123.961ZM73.912 106.895C72.4627 106.903 71.0133 106.868 69.5653 106.919C69.008 106.939 68.7653 106.772 68.5453 106.252C68.1173 105.263 67.7973 104.203 67.0453 103.376C66.5466 102.253 65.8453 101.259 65.1133 100.283L65.344 100.149C68.2684 100.168 71.1933 100.187 74.1186 100.207C75.4893 100.22 76.8613 100.229 78.172 100.719C78.9399 101.1 79.5751 101.704 79.9946 102.452C81.7724 107.4 83.5502 112.348 85.328 117.296C86.1431 119.569 86.9582 121.844 87.7733 124.12C87.876 124.445 87.9626 124.779 88.0853 125.097C88.6813 126.64 89.6 127.16 91.2853 126.921C92.5026 126.713 93.7213 126.507 94.9373 126.293C95.5067 126.195 95.9413 126.359 96.2493 126.865C96.832 127.821 96.4413 128.813 95.2906 129.039C92.7226 129.541 90.14 129.972 87.568 130.453C87.168 130.529 87.1466 130.245 87.076 130.028C86.824 129.247 86.5333 128.481 86.068 127.804C85.5346 127.024 85.0213 126.204 84.1013 125.787C83.7093 125.243 83.1093 124.987 82.544 124.683C82.4426 124.448 82.336 124.217 82.2413 123.98C81.6546 122.522 81.0702 121.063 80.488 119.603C80.4745 119.556 80.4557 119.511 80.432 119.469C79.4986 117.041 78.576 114.608 77.632 112.183C77.0786 110.757 76.64 109.284 75.8986 107.932C75.7386 107.629 75.6026 107.305 75.2013 107.245C74.8038 107.027 74.3599 106.908 73.9066 106.896L73.912 106.895ZM74.024 131.08C74.6106 128.536 76.468 127.104 79.3013 126.923C80.2346 126.976 81.096 127.279 81.9373 127.657L82.6786 128.217C82.7662 128.399 82.9149 128.545 83.0986 128.628C84.9893 130.717 85.28 133.944 82.9653 136.228C81.0413 137.74 78.9653 138.109 76.708 137.045C76.2333 136.821 75.8066 136.493 75.3586 136.212C75.3622 136.188 75.3607 136.164 75.3542 136.141C75.3478 136.118 75.3366 136.097 75.3213 136.079C74.0946 134.623 73.5867 132.955 74.0187 131.081L74.024 131.08ZM65.3333 89.3146L65.0333 89.6C64.5093 90.0333 63.944 90.3573 63.228 90.2946L60.6946 88.3346C60.4101 88.0058 60.0704 87.7292 59.6906 87.5173C59.324 87.1866 58.956 86.8586 58.588 86.528L58.564 86.508C57.9471 85.9072 57.2871 85.3524 56.5893 84.848C55.956 84.2546 55.336 83.648 54.616 83.1546C54.3493 82.888 54.12 82.6 53.7893 82.4173C53.1493 81.832 52.54 81.2173 51.7893 80.756C51.3973 80.3453 51.0093 79.932 50.5226 79.6293C50.408 79.52 50.3013 79.4013 50.1786 79.304C49.512 78.7706 48.8227 78.7706 48.2187 79.292C47.6587 79.7786 47.5653 80.56 48.004 81.252C48.247 81.6209 48.5713 81.9292 48.952 82.1533C49.2862 82.4324 49.6226 82.7106 49.9613 82.988C50.4706 83.4146 50.98 83.8409 51.4893 84.2666L51.756 84.5866C51.756 86.6733 51.748 88.7626 51.7706 90.8533C51.7706 91.3466 51.7106 91.4986 51.1507 91.356C48.7419 90.7288 46.2448 90.5119 43.764 90.7146C43.2533 90.7573 42.736 90.728 42.2213 90.732C42.2213 86.0946 42.2333 81.456 42.2213 76.82C42.2146 75.544 42.3253 74.3066 42.916 73.152C42.924 73.152 42.9347 73.14 42.9426 73.1186C43.532 72.3693 44.2093 71.748 45.1493 71.4333C46.6986 70.9146 48.1813 71.076 49.6386 71.7413L50.3693 72.2946L50.796 72.7133L52.492 74.6933L53.068 75.384L54.16 76.6546L54.1786 76.676C54.6506 77.236 55.1226 77.7951 55.5946 78.3533C56.0666 78.9115 56.5302 79.4764 56.9853 80.048L57.7146 80.88L58.6733 82.0173C58.9146 82.3013 59.1573 82.5853 59.3973 82.8693L59.9693 83.556C60.0586 83.6586 60.1493 83.76 60.236 83.8626C60.4906 84.216 60.724 84.588 61.0813 84.8533C61.2739 85.1633 61.5173 85.4387 61.8013 85.668C61.9833 85.9529 62.2166 86.2016 62.4893 86.4013C63.5387 87.24 64.7906 87.108 65.3426 86.1C65.3647 86.1022 65.3869 86.0999 65.408 86.0933C65.4291 86.0866 65.4486 86.0758 65.4653 86.0613C68.428 83.2613 71.216 80.284 74.068 77.3706C74.0773 77.3706 74.0867 77.3626 74.0947 77.3453C75.3106 76.232 76.4586 75.048 77.596 73.8546C77.7753 73.7556 77.9204 73.6045 78.012 73.4213C78.1893 73.272 78.3653 73.1213 78.5453 72.9746C79.168 72.468 79.6773 72.4666 80.1546 72.9746C80.5706 73.4106 80.54 73.972 80.044 74.5386C79.7066 74.9226 79.3426 75.284 78.992 75.656C76.6506 77.9795 74.3098 80.3035 71.9693 82.628C71.8671 82.7234 71.8048 82.8539 71.7947 82.9933C71.688 83.0026 71.5546 82.9586 71.5213 83.1266C69.4293 85.1453 67.352 87.2 65.3333 89.3146ZM28.6933 101.581C29.5356 100.643 30.4257 99.7491 31.36 98.9026C31.3693 98.9026 31.3773 98.896 31.388 98.88L32.7853 97.7786C33.2333 97.4946 33.7253 97.2626 34.044 96.8093C34.8093 96.576 35.452 96.0973 36.16 95.7426C39.8387 93.944 43.7093 93.372 47.7666 93.7733C49.0266 93.8986 50.2413 94.2253 51.488 94.3973L51.596 94.4346C53.3 95.0134 54.9599 95.7148 56.5626 96.5333L58.536 97.8013C58.7415 98.0355 58.9894 98.2286 59.2666 98.3706L60.5307 99.48L62.6507 101.747C63.2604 102.641 63.8693 103.535 64.4773 104.429C64.5746 104.637 64.664 104.851 64.768 105.055C67.372 110.135 68.3546 115.447 67.0213 121.071C66.2066 124.512 64.6146 127.577 62.3706 130.308C62.3613 130.308 62.352 130.317 62.3413 130.337L60.3906 132.287L59.4013 133.131L58.2773 133.957L55.8493 135.515C54.4546 136.206 53.0144 136.802 51.5387 137.299C51.4792 137.309 51.422 137.329 51.3693 137.359C51.2299 137.368 51.0914 137.387 50.9546 137.416C47.9893 138.216 45 138.268 41.9733 137.803C39.684 137.449 37.5733 136.592 35.492 135.652L32.6453 133.833C31.4613 132.848 30.224 131.923 29.2147 130.745L27.2947 128.339C27.2611 128.207 27.2133 128.079 27.152 127.957C25.747 125.823 24.7287 123.458 24.144 120.971C24.108 120.816 24.0773 120.647 23.8933 120.583C23.7227 118.477 23.4773 116.379 23.588 114.26C23.5987 114.127 23.6067 113.993 23.616 113.867C23.6232 113.856 23.6295 113.844 23.6347 113.832C23.7324 113.614 23.763 113.372 23.7227 113.137C24.063 110.718 24.7398 108.358 25.7333 106.125C26.1467 105.325 26.7133 104.599 27 103.725C27.4206 103.289 27.7963 102.812 28.1213 102.301C28.312 102.064 28.5 101.825 28.6893 101.588L28.6933 101.581ZM21.2107 69.7506C21.2107 69.7506 21.2107 69.7426 21.2107 69.7386C21.2107 69.7346 21.208 69.7466 21.2107 69.7506Z" fill="#3A3A3A"/>
<path d="M42.7747 63.4146C44.1307 64.568 45.708 65.268 47.4347 65.6426C49.9431 66.2757 52.5959 65.9777 54.9014 64.804C55.5082 64.5573 56.0773 64.2265 56.592 63.8213C56.9685 63.6064 57.305 63.3281 57.5867 62.9986C57.916 62.7695 58.203 62.4848 58.4347 62.1573C58.7387 61.9293 58.9267 61.608 59.128 61.2973C61.0867 58.6173 61.6427 55.6506 60.9467 52.428C60.6278 50.5915 59.7984 48.8818 58.5534 47.4946C58.3774 47.0813 58.0614 46.7866 57.7227 46.5106L56.344 45.364C56.1899 45.1745 55.9829 45.0353 55.7494 44.964C51.9587 42.4306 46.456 42.848 42.7787 45.94C42.7694 45.94 42.76 45.9493 42.752 45.9626C42.0067 46.5693 41.324 47.2333 40.8147 48.0586C37.8667 51.8386 38.0614 58.2226 41.2294 61.8666C41.6593 62.4611 42.1809 62.9836 42.7747 63.4146ZM56.8614 50.0613C58.8387 53.468 58.7974 56.7906 56.448 60.0173C55.248 61.3506 53.8334 62.304 52.06 62.728C49.7934 63.272 47.6694 62.9066 45.6307 61.8493L43.772 60.4346C43.7753 60.4128 43.7741 60.3905 43.7683 60.3691C43.7626 60.3478 43.7525 60.3279 43.7387 60.3106C43.2054 59.544 42.696 58.7786 42.3254 57.9106C41.6227 56.2666 41.8134 54.5533 41.8134 52.852C42.2134 52.248 42.3107 51.5186 42.6134 50.8706C42.6854 50.752 42.7614 50.6333 42.8294 50.512C45.2547 46.3373 50.212 45.1066 54.3267 47.66C55.3467 48.2813 56.124 49.1506 56.8614 50.0613Z" fill="#3A3A3A"/>
<path d="M42.0733 120.863C43.8067 122.107 45.6893 122.381 47.7133 121.712H47.7213C48.092 121.611 48.4853 121.552 48.716 121.179C50.2227 120.479 51.2307 119.328 51.796 117.777C51.9813 117.404 52.0267 116.995 52.096 116.592C52.2847 115.956 52.2847 115.28 52.096 114.644C51.9931 113.692 51.6449 112.783 51.0853 112.005C51.0029 111.781 50.8564 111.585 50.664 111.443C50.3014 110.918 49.8211 110.485 49.2613 110.179C46.496 108.233 42.728 108.839 40.6533 111.561C40.436 111.695 40.3453 111.924 40.2533 112.145C38.9707 114.204 38.8769 116.316 39.972 118.48C40.434 119.456 41.1624 120.282 42.0733 120.863ZM48.6547 117.632C47.7987 118.809 46.0653 119.797 43.7827 118.617C41.392 116.923 41.7027 113.669 43.9453 112.431C45.412 111.616 46.812 111.897 48.1333 112.824C48.344 113.003 48.412 113.315 48.688 113.437C49.5 114.841 49.6533 116.256 48.6547 117.632Z" fill="#3A3A3A"/>
</svg>
