<svg width="160" height="160" viewBox="0 0 160 160" fill="none" xmlns="http://www.w3.org/2000/svg">
<path d="M98.7439 51.3333V47.076L72.8213 68.464L98.6973 92.18V83.7467L98.8413 83.708C99.6293 85.0107 100.345 86.3667 101.229 87.6014C102.016 88.7027 102.333 89.8467 102.196 91.1654C102.079 92.284 102.149 93.4454 101.865 94.516C101.333 96.5334 99.3773 98 97.3026 98.1574C96.7506 98.2 96.1959 98.212 95.6413 98.212C72.0973 98.212 48.5533 98.212 25.0093 98.212C23.8226 98.212 22.6479 98.1654 21.5839 97.556C19.6773 96.4654 18.7679 94.8 18.7679 92.6227C18.7679 81.6351 18.7679 70.6462 18.7679 59.656C18.7679 55.4862 18.7679 51.3173 18.7679 47.1493C18.7679 44.0987 20.9226 41.8973 23.9879 41.896C48.4475 41.888 72.9075 41.888 97.368 41.896C99.6346 41.896 101.635 43.824 102.076 46.224C102.305 47.4587 102.123 48.376 101.099 49.192C100.285 49.84 99.6319 50.6827 98.8986 51.4387L98.7439 51.3333ZM96.4906 94.8534L70.1693 70.7374C69.2026 71.496 68.2799 72.224 67.3519 72.9467C66.4239 73.6693 65.4599 74.4333 64.4986 75.156C62.0466 76.9933 59.2559 76.94 56.8746 75.0227C56.2559 74.524 55.652 74.0067 55.0386 73.5027C53.8559 72.5294 52.6719 71.56 51.4586 70.5694L25.1146 94.8534H96.4906ZM26.3399 45.3333C29.5919 47.992 32.7399 50.5613 35.8853 53.1373C43.5173 59.388 51.152 65.6431 58.7893 71.9027C60.1399 73.0094 61.2573 73.0827 62.6213 72C64.4333 70.5653 66.2133 69.0907 67.9906 67.6133C76.2706 60.736 84.5475 53.8547 92.8213 46.9693L94.7866 45.3333H26.3399ZM48.7026 68.4093L22.2546 46.9093V92.776L48.7026 68.4093Z" fill="#3A3A3A"/>
<path d="M124.287 102.472C125.344 102.724 126.376 102.919 127.376 103.219C129.509 103.863 131.52 104.76 133.043 106.485C134.964 108.664 134.927 111.371 132.903 113.485C131.169 115.291 128.995 116.343 126.62 116.987C120.861 118.548 115.117 118.573 109.483 116.48C108.027 115.925 106.666 115.15 105.447 114.181C102.271 111.676 102.38 107.915 105.589 105.439C107.657 103.847 110.06 103.065 112.596 102.625C112.712 102.605 112.827 102.58 113.04 102.537C112.617 101.825 112.219 101.159 111.825 100.491C108.111 94.1761 104.359 87.8854 100.701 81.5347C98.968 78.5214 97.36 75.4187 96.556 71.9974C94.9413 65.1334 96.2493 58.8214 100.423 53.1641C104.009 48.3054 108.823 45.2974 114.816 44.3881C121.765 43.3347 128.073 44.9854 133.44 49.5761C137.625 53.1547 140.089 57.7841 140.951 63.2387C141.732 68.1721 140.869 72.8201 138.637 77.2841C135.529 83.5014 131.956 89.4494 128.431 95.4294C127.113 97.664 125.783 99.8907 124.46 102.121C124.4 102.221 124.359 102.328 124.287 102.472ZM118.597 105.416C118.775 105.137 118.921 104.92 119.056 104.695C121.133 101.208 123.255 97.7454 125.276 94.2254C128.849 88.0001 132.428 81.7747 135.873 75.4774C137.961 71.6614 138.428 67.4987 137.627 63.2347C135.669 52.8081 126.141 45.8427 115.029 47.7334C110.424 48.5161 106.588 50.7334 103.66 54.3921C99.8667 59.1321 98.3627 64.4867 99.536 70.5134C100.104 73.4294 101.383 76.0667 102.844 78.6027C106.607 85.1361 110.444 91.6294 114.259 98.132C115.68 100.553 117.131 102.956 118.597 105.416ZM119.407 114.819C120.303 114.715 121.94 114.609 123.54 114.317C125.841 113.899 128.063 113.209 129.955 111.74C131.469 110.561 131.507 109.293 130.069 108.023C129.923 107.898 129.768 107.783 129.607 107.679C127.631 106.345 125.388 105.761 123.073 105.4C122.853 105.365 122.491 105.576 122.356 105.779C121.665 106.82 121.04 107.903 120.369 108.957C119.341 110.573 117.836 110.548 116.877 108.908C116.281 107.893 115.665 106.888 115.117 105.848C114.884 105.404 114.613 105.247 114.157 105.383C112.579 105.856 110.957 106.225 109.441 106.849C108.5 107.241 107.636 107.943 106.901 108.671C106.167 109.399 106.224 110.299 106.955 111.055C107.509 111.653 108.152 112.163 108.861 112.567C111.919 114.213 115.245 114.729 119.407 114.819Z" fill="#3A3A3A"/>
<path d="M108.293 60V57.128H113.752V53.2134H116.311V57.1694H119.101V53.2227H121.836V56.968C122.791 57.1107 123.683 57.1587 124.528 57.384C128.661 58.492 129.069 63.036 127.316 65.1827C126.803 65.812 126.084 66.2734 125.449 66.8134C125.669 66.8947 125.983 67 126.284 67.1267C128.357 67.9934 129.383 69.584 129.391 71.9334C129.399 74.2827 128.324 76.0934 126.233 76.8667C125.149 77.2667 123.967 77.3894 122.812 77.6054C122.495 77.6654 122.155 77.6147 121.745 77.6147V81.68H119.12V77.68H116.273V81.68H113.788V77.6494H108.321V74.7027C109.059 74.7027 109.773 74.7107 110.488 74.7027C111.541 74.688 111.763 74.464 111.763 73.4387C111.763 69.3409 111.763 65.244 111.763 61.148C111.763 60.272 111.541 60.0334 110.668 60.004C109.896 59.9774 109.128 60 108.293 60ZM116.076 74.5707C118.096 74.5707 120.017 74.6614 121.927 74.544C123.668 74.436 124.691 73.2974 124.727 71.744C124.764 70.144 123.837 68.944 122.096 68.8107C120.125 68.6534 118.132 68.7747 116.096 68.7747C116.096 68.8627 116.075 69.0014 116.075 69.1387C116.075 70.9574 116.076 72.7814 116.076 74.568V74.5707ZM116.116 65.6C117.789 65.6 119.427 65.68 121.049 65.5774C122.593 65.4787 123.539 64.5027 123.596 63.2147C123.673 61.456 123.097 60.6534 121.489 60.3107C121.229 60.2631 120.964 60.2421 120.699 60.248C119.171 60.248 117.641 60.248 116.113 60.248L116.116 65.6Z" fill="#F7931B"/>
</svg>
