<svg width="160" height="160" viewBox="0 0 160 160" fill="none" xmlns="http://www.w3.org/2000/svg">
<path d="M140.133 78.4307C139.512 74.8573 138.057 71.6827 135.665 68.9453C134.423 67.375 132.927 66.0231 131.24 64.9453C130.538 64.3857 129.757 63.9324 128.923 63.6C127.718 62.954 126.426 62.4873 125.087 62.2147C124.305 61.9613 123.487 61.976 122.687 61.868C121.527 61.6593 120.34 61.6593 119.18 61.868C119.08 61.856 118.98 61.856 118.88 61.868C118.225 62.0133 117.975 61.8453 118.028 61.0973C118.124 59.7293 117.775 58.4653 116.775 57.4493C116.181 56.5973 115.339 56.1427 114.344 55.932C113.916 55.8645 113.485 55.82 113.052 55.7987C105.203 55.7907 97.3529 55.7884 89.5014 55.792C83.5947 55.792 77.688 55.792 71.7827 55.8133C71.1947 55.8133 70.964 55.7427 70.9827 55.0573C71.0414 53.1427 71.02 51.2253 70.9827 49.3107C70.9454 47.4227 71.116 45.5307 70.8973 43.6453C70.584 42.6267 69.9347 42.1187 68.9147 42.1147C67.048 42.108 65.1894 42.1147 63.3267 42.1147C61.7574 42.1147 61.096 42.7707 61.096 44.3293C61.096 47.9293 61.0787 51.5187 61.1134 55.1133C61.1134 55.708 60.9454 55.8253 60.3974 55.8053C59.2507 55.764 58.1013 55.7973 56.9534 55.8053C56.6587 55.652 57.1 55.4627 56.928 55.304C56.928 51.6267 56.928 47.9498 56.928 44.2733C56.976 42.9547 56.236 42.14 54.9507 42.1267C53.0427 42.112 51.1334 42.1267 49.2253 42.12C48.6453 42.12 48.1307 42.2693 47.7453 42.7347C47.1867 43.2173 47.1387 43.8693 47.1387 44.54C47.1387 48.0067 47.124 51.4733 47.1573 54.9467C47.164 55.6133 47.0373 55.824 46.3147 55.8213C39.1667 55.7893 32.0187 55.8 24.8707 55.8067C24.604 55.8067 24.3107 55.7147 24.0547 55.892C23.056 55.92 22.24 56.36 21.5094 57C21.2475 57.1339 21.0333 57.3453 20.896 57.6053C19.9973 58.5934 19.5049 59.8844 19.5174 61.22C19.5094 75.412 19.5094 89.6036 19.5174 103.795C19.4998 104.898 19.882 105.97 20.5934 106.813C21.2347 107.769 22.06 108.476 23.196 108.789C23.516 108.98 23.872 108.98 24.228 108.983C24.4254 109.159 24.6654 109.084 24.8867 109.084C27.3418 109.084 29.7965 109.084 32.2507 109.084C59.2729 109.084 86.3 109.084 113.332 109.084C113.599 109.084 113.835 109.1 114.028 109.299C115.649 111.965 117.428 114.537 119.185 117.119C119.924 118.204 121.585 118.121 122.181 117.119C122.588 116.641 122.94 116.119 123.231 115.563C123.732 114.817 124.313 114.123 124.649 113.276C125.02 113.065 125.183 112.692 125.371 112.343C127.018 109.882 128.662 107.422 130.304 104.963C131.164 103.667 132.107 102.423 132.779 101.008C133.343 100.56 133.592 99.8907 133.979 99.3133L134.459 98.5693C135.363 97.2966 136.184 95.9667 136.916 94.588C137.393 93.9076 137.795 93.1781 138.116 92.412C138.177 92.3013 138.249 92.196 138.301 92.0813C140.359 87.7173 140.964 83.1733 140.133 78.4307ZM22.9547 102.647C22.9547 92.6715 22.9547 82.6978 22.9547 72.7253C22.9547 69.0787 22.924 65.432 22.908 61.784C22.9787 61.0387 23.08 60.3053 23.6654 59.7507C24.5214 59.092 25.5174 59.324 26.4654 59.3227C49.4431 59.3227 72.4209 59.3191 95.3987 59.312C96.132 59.312 96.8187 59.3827 97.4454 59.78C98.0027 60.4093 98.112 61.16 98.112 61.9747C98.1067 69.9364 98.1093 77.8987 98.12 85.8613C98.12 91.704 98.0947 97.5467 98.0933 103.391C98.1091 103.759 98.0319 104.126 97.8688 104.457C97.7057 104.788 97.4619 105.072 97.16 105.284C96.73 105.497 96.2529 105.598 95.7733 105.577C72.3067 105.568 48.836 105.568 25.3614 105.577C24.5494 105.577 23.8814 105.415 23.3614 104.788C22.9774 104.124 22.9547 103.384 22.9547 102.647ZM53.5173 47.8987C53.5467 50.4667 53.44 53.036 53.5773 55.604C53.5531 55.6483 53.5456 55.6999 53.556 55.7493C52.7414 55.76 51.9254 55.7493 51.1133 55.7933C50.664 55.8213 50.644 55.628 50.6453 55.268C50.6627 52.06 50.6587 48.852 50.66 45.6453C51.6227 45.636 52.5867 45.5333 53.548 45.6867C53.536 46.424 53.508 47.1613 53.5173 47.8987ZM67.2 45.6133C67.6107 45.588 67.528 45.88 67.572 46.1V55.1453C67.5974 55.5773 67.504 55.8373 66.9587 55.796C66.148 55.7347 65.3307 55.7587 64.516 55.7467C64.5267 55.2387 64.5494 54.732 64.5453 54.224C64.5347 51.3795 64.5205 48.5351 64.5027 45.6907C65.392 45.552 66.2947 45.668 67.2 45.6133ZM114.648 61.9867C114.709 62.4507 114.508 62.6707 114.08 62.8C112.986 63.1307 111.941 63.6046 110.972 64.2093C110.716 64.2838 110.485 64.4278 110.305 64.6253C109.624 64.924 109.056 65.3853 108.512 65.8813C108.505 65.882 108.499 65.8845 108.493 65.8885C108.487 65.8924 108.483 65.8978 108.48 65.904C107.992 66.2573 107.507 66.616 107.12 67.084L106.816 67.4067C106.071 68.0951 105.408 68.8683 104.843 69.7107C104.603 69.9907 104.331 70.244 104.203 70.604C103.759 71.1603 103.397 71.7772 103.128 72.436C102.471 73.448 102.093 74.584 101.648 75.7093C101.606 75.575 101.588 75.434 101.596 75.2933C101.596 70.6711 101.596 66.0538 101.596 61.4413C101.596 60.908 101.64 60.3747 101.471 59.848C101.454 59.7959 101.441 59.743 101.431 59.6893C101.437 59.5773 101.474 59.4692 101.539 59.3773C101.649 59.326 101.771 59.3035 101.892 59.312C105.517 59.328 109.144 59.312 112.769 59.3213C113.258 59.3212 113.726 59.5124 114.075 59.8538C114.424 60.1953 114.626 60.6599 114.636 61.148C114.659 61.4253 114.611 61.7107 114.648 61.9867ZM110.82 105.568C107.703 105.568 104.586 105.568 101.469 105.568H101.307C101.573 104.876 101.617 104.157 101.616 103.419C101.601 98.9867 101.616 94.552 101.616 90.1187C101.616 89.8707 101.64 89.624 101.653 89.3773C101.703 89.652 101.768 89.9236 101.849 90.1907C101.847 90.0055 101.821 89.8213 101.772 89.6427C102.714 91.8263 103.832 93.9301 105.113 95.9333L105.121 95.9933H105.149L105.983 97.2453C105.974 97.2611 105.966 97.2776 105.96 97.2947C105.987 97.3093 106.015 97.324 106.044 97.3373C106.701 98.4973 107.42 99.6216 108.196 100.705L110.373 104.052C110.373 104.065 110.373 104.079 110.373 104.092C110.38 104.093 110.387 104.093 110.393 104.092C110.675 104.517 110.953 104.943 111.235 105.368C111.209 105.368 111.184 105.361 111.156 105.36C111.196 105.388 111.237 105.412 111.28 105.439C111.187 105.657 110.983 105.568 110.82 105.568ZM119.541 111.568C119.164 110.901 118.761 110.252 118.208 109.715C118.019 108.989 117.472 108.485 117.075 107.889C116.311 106.673 115.541 105.463 114.675 104.319C113.904 103.013 113.052 101.763 112.173 100.529C112.169 100.522 112.163 100.515 112.157 100.508L111.745 99.9053C110.875 98.58 110.005 97.2533 109.135 95.9253C108.268 94.5213 107.352 93.1467 106.549 91.708C104.259 87.6053 103.483 83.2507 104.507 78.62C105.44 74.416 107.565 70.9747 110.971 68.3293C110.978 68.3285 110.984 68.326 110.99 68.322C110.996 68.3181 111.001 68.3128 111.004 68.3067C112.08 67.5653 113.233 66.9627 114.388 66.3573C114.557 66.3107 114.729 66.2733 114.893 66.2133C117.496 65.244 120.175 65.0293 122.917 65.3973C125 65.676 126.917 66.4333 128.743 67.4307L129.392 67.856C129.948 68.2738 130.506 68.6902 131.064 69.1053C131.973 69.8907 132.756 70.7973 133.537 71.704L134.747 73.42C136.254 76.1335 137.059 79.1812 137.087 82.2853C137.076 83.6759 136.936 85.0624 136.667 86.4267C136.22 88.6013 135.296 90.5787 134.291 92.5307C134.279 92.5307 134.267 92.5493 134.253 92.5893L132.333 95.6227C131.102 97.5133 129.87 99.4031 128.637 101.292L128.149 102.032C127.349 103.187 126.509 104.313 125.849 105.557C125.836 105.557 125.828 105.571 125.819 105.595C125.422 106.062 125.08 106.573 124.8 107.119C123.629 108.824 122.461 110.531 121.403 112.308C121.196 112.613 120.992 112.919 120.788 113.224L120.512 113.055C120.273 112.5 119.877 112.051 119.541 111.564V111.568Z" fill="#3A3A3A"/>
<path d="M67.412 91.6453C68.256 91.6011 69.1017 91.6038 69.9453 91.6533C70.5574 91.7 70.636 91.468 70.632 90.9293C70.6067 87.7133 70.6227 84.4973 70.6213 81.2827C70.6213 78.6036 70.6182 75.924 70.612 73.244C70.612 72.9467 70.7013 72.532 70.1693 72.888C69.2013 72.5973 68.216 72.784 67.236 72.7853C66.736 72.6347 66.7733 72.96 66.7733 73.284C66.7733 79.2053 66.7853 85.1253 66.7627 91.0453C66.7573 91.5907 66.952 91.6627 67.412 91.6453Z" fill="#F7931B"/>
<path d="M34.108 91.652C34.5547 91.6667 34.7307 91.5 34.856 91.1187C35.2494 89.9027 35.668 88.6947 36.0774 87.484H42.8294C43.072 87.4667 43.1627 87.6667 43.2907 87.8107C43.6738 88.9858 44.0565 90.1596 44.4387 91.332C44.456 91.4305 44.5105 91.5186 44.5909 91.5781C44.6713 91.6377 44.7714 91.6641 44.8707 91.652C46.0934 91.6374 47.3134 91.652 48.6267 91.652C48.1094 90.1707 47.6254 88.764 47.124 87.364C46.1765 84.7 45.224 82.0414 44.2667 79.388C44.2643 79.36 44.2552 79.333 44.24 79.3094C43.5254 77.228 42.8 75.152 42.1147 73.0667C41.9814 72.6667 41.7267 72.7427 41.4587 72.7427C40.208 72.7427 38.956 72.7774 37.7067 72.7294C37.164 72.7094 36.9907 72.9147 36.828 73.396C35.4947 77.3187 34.1134 81.228 32.756 85.144C32.0147 87.2867 31.2894 89.436 30.5374 91.644C31.768 91.6374 32.94 91.6107 34.108 91.652ZM40.3054 78.9854C40.8694 80.7187 41.4694 82.4294 42.088 84.2454C42.0588 84.2678 42.0258 84.285 41.9907 84.296H37.1547C37.0107 84.216 37.0414 84.1134 37.088 83.9774C37.8818 81.6129 38.6702 79.2458 39.4534 76.876L39.748 77.1067C39.7867 77.7694 40.1027 78.3587 40.3054 78.9787V78.9854Z" fill="#F7931B"/>
<path d="M76.156 89.1746C76.2917 89.4337 76.4931 89.6525 76.74 89.8093C77.464 90.4413 78.172 91.0986 79.14 91.356C80.0213 91.8386 80.98 92.012 81.9693 92.064H83.1893C83.608 92.1893 83.9893 91.9853 84.3893 91.9306C87.1893 91.5306 89.868 89.08 90.5333 86.3493C90.6146 86.0173 90.5786 85.8546 90.1786 85.7786C89.3066 85.6243 88.4453 85.4145 87.6 85.1506C87.0666 84.9746 86.8986 85.1426 86.8613 85.6253C86.5066 86.1973 86.24 86.8253 85.7946 87.3373C84.2693 88.7893 82.52 88.9586 80.6173 88.2413L79.9626 87.832C76.8813 85.4413 76.9106 79.152 79.9626 76.6053C79.9676 76.6053 79.9725 76.604 79.9767 76.6014C79.981 76.5988 79.9844 76.5951 79.9866 76.5906C81.7693 75.516 83.552 75.476 85.3373 76.6013C86.0277 77.1674 86.544 77.9171 86.8266 78.764C86.9373 79.0693 87.0333 79.164 87.36 79.0893C88.2933 78.872 89.24 78.6893 90.184 78.496C90.4506 78.444 90.564 78.4053 90.4666 78.0613C90.1413 76.9026 89.6986 75.816 88.8666 74.92C88.6248 74.5541 88.3103 74.2419 87.9426 74.0026C85.4653 71.9226 81.3533 71.6026 78.428 73.252C77.3146 73.7733 76.488 74.6386 75.78 75.6C73.94 78.0973 73.5426 80.9626 73.888 83.9466C74.1186 85.8893 74.8 87.6906 76.156 89.1746Z" fill="#F7931B"/>
<path d="M51.2653 89.812C51.3197 89.8961 51.3798 89.9763 51.4453 90.052C53.712 92.3014 57.9346 92.7587 60.98 91.0867C63.268 89.832 64.3973 87.4934 63.8466 84.9934C63.6013 83.872 63.1573 82.8187 62.024 82.2574C61.1133 81.1907 59.8386 80.808 58.5653 80.4534C57.292 80.0987 56 79.8347 54.832 79.2014C54.2253 78.8707 53.744 78.3907 53.7533 77.652C53.7626 76.868 54.2306 76.3494 54.9226 76.0067C56.4853 75.236 58.7293 75.7894 59.8493 77.228C60.116 77.9587 60.5786 78.08 61.2333 77.7147C61.3666 77.6427 61.5306 77.6427 61.6653 77.5814C62.324 77.2507 63.492 77.5214 63.6146 76.7107C63.7213 76.0014 63.0186 75.244 62.4973 74.6107C62.4462 74.5564 62.3894 74.5076 62.328 74.4654C62.26 74.332 62.1946 74.1907 62.012 74.1854C59.7453 71.652 54.5453 71.7854 52.6293 73.3854C52.1388 73.6269 51.7217 73.9952 51.4213 74.452C49.6986 76.3014 49.688 79.5574 51.3973 81.2094C51.4037 81.2176 51.4109 81.2251 51.4186 81.232C52.572 82.5654 54.1866 83.024 55.7826 83.508C57.2 83.936 58.7106 84.1334 59.8666 85.2C60.6 86.6547 60.1426 87.844 58.5986 88.4C57.1733 88.912 55.808 88.676 54.5053 87.9574C54.4916 87.9488 54.4791 87.9385 54.468 87.9267C54.0555 87.5848 53.696 87.1835 53.4013 86.736C53.3162 86.5835 53.2503 86.4209 53.2053 86.252C53.1186 85.632 52.776 85.6667 52.3 85.8187C51.5533 86.056 50.792 86.2507 50.0333 86.4347C49.5906 86.544 49.4453 86.7707 49.612 87.1934C50.0333 88.1414 50.436 89.1107 51.2653 89.812Z" fill="#F7931B"/>
<path d="M125.683 96.9027C126.997 96.4694 128.285 95.9494 129.241 94.872C129.623 94.8147 129.859 94.5787 130.017 94.2454C130.299 94.0827 130.616 93.9614 130.772 93.6427C131.257 93.2562 131.664 92.7812 131.972 92.2427C132.68 91.3614 133.339 90.4494 133.697 89.36C134.064 88.784 134.249 88.1387 134.425 87.4934C135.237 85.0772 135.438 82.498 135.011 79.9854C134.655 77.8694 133.965 75.8734 132.611 74.164C132.365 73.7517 132.056 73.3812 131.693 73.0667C131.438 72.7126 131.122 72.4065 130.76 72.1627C126.996 68.696 120.96 68.4294 117.105 71.5614C116.765 71.7814 116.411 71.98 116.164 72.3134C115.764 72.6215 115.406 72.98 115.097 73.38C114.28 73.8987 114.509 74.7507 114.463 75.5374C114.052 75.436 113.688 75.3187 113.317 75.2627C112.938 75.2095 112.556 75.1863 112.173 75.1934C111.229 75.2027 110.727 75.7267 110.751 76.684C110.767 77.2294 110.905 77.7374 111.292 78.1507C111.512 78.4534 111.332 78.7334 111.225 79.004C110.731 80.2534 110.26 81.508 110.179 82.8707C110.008 83.1174 110.029 83.392 110.061 83.6707C110.061 83.7227 110.061 83.7747 110.061 83.8267C109.747 87.4267 110.551 90.6947 112.947 93.4894C113.049 93.5947 113.155 93.7 113.259 93.8054C113.67 94.3571 114.185 94.8236 114.775 95.1787C115.952 96.1217 117.329 96.7847 118.8 97.1174C121.065 97.7285 123.46 97.6538 125.683 96.9027ZM122.667 72.7907C124.471 72.6667 126.161 73.008 127.699 73.9907C128.507 74.5561 129.229 75.2366 129.841 76.0107C130.329 76.8334 130.845 77.6427 131.092 78.584C130.68 78.94 130.104 78.5467 129.687 78.884C127.78 79.0101 125.885 79.2816 124.02 79.696C123.479 79.388 123.041 78.872 122.348 78.8707C122.284 76.9934 122.22 75.1169 122.155 73.2414C122.104 72.84 122.504 72.952 122.667 72.7907ZM128.747 91.0107C128.597 91.1614 128.449 91.3094 128.301 91.46C128.195 91.5654 128.091 91.672 127.985 91.7787L126.777 92.7294C126.111 93.0894 125.444 93.48 124.716 93.6934C123.525 94.0414 122.324 94.3334 121.083 93.9307L121.115 87.228C122.101 86.9614 123.103 86.7294 123.864 85.9707C124.264 85.848 124.356 85.1587 124.839 85.3294C125.22 85.4627 125.521 85.8334 125.859 86.0974L126.909 87.0414C127.025 87.2286 127.193 87.3772 127.393 87.468L128.46 88.416C128.792 88.72 129.103 89.052 129.46 89.3214C129.817 89.5907 129.719 89.812 129.536 90.0867C129.271 90.3934 129.008 90.7014 128.747 91.0107ZM120.591 84.324C119.381 83.8134 119.2 82.536 120.191 81.3907C120.789 81.1787 121.391 81.0774 121.987 81.3907C123.071 82.5294 122.977 83.524 121.705 84.416C121.333 84.416 120.964 84.4827 120.591 84.324ZM113.424 86.8787C113.024 84.5654 113.424 82.3454 114.203 80.1654H114.213C114.295 80.1354 114.382 80.1233 114.469 80.1297C114.556 80.1361 114.641 80.161 114.717 80.2027C115.555 80.548 116.396 80.888 117.236 81.2307C117.088 82.1507 116.859 83.072 117.155 84.0014C117.269 84.364 116.945 84.412 116.8 84.5907C116.396 84.7801 116.026 85.0346 115.705 85.344C115.039 85.724 114.461 86.22 113.873 86.7067C113.721 86.756 113.64 86.9867 113.424 86.8787Z" fill="#F7931B"/>
</svg>
