<svg width="160" height="160" viewBox="0 0 160 160" fill="none" xmlns="http://www.w3.org/2000/svg">
<path d="M141.192 59.0947C141.176 58.9614 141.16 58.828 141.143 58.6947C140.971 58.1414 140.853 57.5614 140.399 57.1427C139.516 55.908 138.276 55.3267 136.799 55.3147C133.332 55.288 129.865 55.3147 126.399 55.3147C108.459 55.3147 90.5196 55.3147 72.58 55.3147C71.1053 55.3147 69.82 55.7627 68.8987 56.9894C68.6959 57.1543 68.5465 57.3756 68.4693 57.6254C67.9547 58.4934 67.8747 59.4574 67.8733 60.4254C67.864 66.08 67.8507 71.7334 67.8733 77.3867C67.8733 79.096 67.7493 80.808 67.9613 82.5134C67.3067 82.548 67.116 81.8467 66.5933 81.66C66.1824 81.2757 65.7181 80.9528 65.2147 80.7014L64.7467 80.4C63.5301 79.5752 62.1922 78.9453 60.7813 78.5334C60.213 78.2125 59.5668 78.0556 58.9147 78.08C58.8133 77.8654 58.5853 77.8334 58.4067 77.8054C56.78 77.548 55.1547 77.272 53.4973 77.3414C49.8547 77.2614 46.2107 77.2734 42.564 77.3414C41.3573 77.3027 40.164 77.4747 38.9747 77.6254C35.964 78.0254 33.1227 78.924 30.5453 80.5707C28.8493 81.48 27.4213 82.728 26.0667 84.072L25.7813 84.4L24.992 85.2987C24.9246 85.3306 24.8648 85.3765 24.8166 85.4332C24.7683 85.49 24.7326 85.5564 24.712 85.628L23.7787 86.856C22.7005 88.2298 21.8551 89.7712 21.276 91.4187C21.2245 91.4717 21.1797 91.5308 21.1427 91.5947C19.8 94.9974 19.4093 98.5801 19.1427 102.187C18.9947 104.224 18.876 106.264 18.6933 108.297C18.4267 111.161 19.9333 113.455 22.5373 114.072C23.1147 114.216 23.704 114.216 24.2947 114.216C40.0458 114.216 55.796 114.216 71.5453 114.216C72.0051 114.215 72.4639 114.176 72.9173 114.1C74.8813 113.775 76.5667 112.083 76.7667 110.261C77.0453 109.655 76.9267 109.015 76.888 108.395C76.788 106.812 76.7307 105.224 76.4627 103.656C76.5653 103.656 76.6667 103.641 76.7693 103.641C92.2778 103.641 107.785 103.641 123.292 103.641C127.913 103.641 132.533 103.62 137.159 103.608C138.999 103.383 140.292 102.439 140.981 100.703C141.218 100.109 141.336 99.475 141.328 98.836C141.32 85.884 141.315 72.9316 141.313 59.9787C141.312 59.6867 141.408 59.3654 141.192 59.0947ZM71.356 84.7374C71.3773 84.4054 71.356 84.0707 71.356 83.7387C71.356 75.8027 71.3525 67.8667 71.3453 59.9307C71.52 59.2814 71.8947 58.864 72.6053 58.8254C72.784 58.8347 72.9627 58.852 73.1387 58.852C89.248 58.852 105.357 58.852 121.467 58.852C126.595 58.852 131.724 58.8436 136.855 58.8267L137.459 59.0294C137.859 59.4747 137.936 60.0054 137.936 60.5854C137.93 73.1249 137.93 85.6649 137.936 98.2054C137.936 99.7547 137.58 100.105 136.055 100.105C116.442 100.105 96.8307 100.111 77.22 100.123C76.4773 100.123 76.036 100.025 76.1293 99.18C76.1573 98.9014 76.192 98.6201 76.0147 98.3707C75.948 97.8187 75.8813 97.2694 75.8173 96.7174C75.5427 95.0227 75.1507 93.3614 74.4333 91.784C73.8533 90.2587 73.16 88.796 72.1507 87.5C72.0933 87.388 72.0347 87.2774 71.976 87.164C71.3827 86.4467 71.2987 85.6107 71.3587 84.7307L71.356 84.7374ZM128.533 103.239C128.533 103.221 128.533 103.204 128.533 103.188H128.553C128.571 103.208 128.591 103.226 128.613 103.241H128.537L128.533 103.239ZM67.2107 86.712C67.6107 87.1667 68.0173 87.62 68.42 88.0734C68.428 88.0814 68.4333 88.0907 68.4413 88.0987C69.2187 89.196 69.9187 90.3387 70.5907 91.5027C71.1707 92.9574 71.7907 94.4 72.148 95.9307C72.892 99.072 73.0013 102.283 73.252 105.479C73.22 105.804 73.1973 106.129 73.3653 106.431C73.376 106.781 73.388 107.131 73.4 107.481C73.368 107.869 73.356 108.255 73.5067 108.625C73.5467 109.384 73.452 110.092 72.7613 110.571L72.7427 110.58C72.444 110.725 72.1253 110.713 71.8093 110.713C69.9738 110.72 68.1373 110.728 66.3 110.739C66.1413 110.669 65.908 110.797 65.816 110.555V103.333C65.756 102.557 65.3013 102.087 64.5973 101.867C63.8933 101.647 63.256 101.835 62.76 102.4C62.1973 102.916 62.276 103.585 62.3213 104.247C62.3071 106.399 62.2929 108.551 62.2787 110.704L34.9453 110.713C33.384 110.713 33.384 110.713 33.3067 109.176V109.015C33.3147 107.17 33.3231 105.328 33.332 103.487C33.3403 103.294 33.3068 103.101 33.2339 102.923C33.1609 102.744 33.0502 102.583 32.9093 102.451C32.8985 102.434 32.8838 102.42 32.8667 102.411C32.3453 101.812 31.716 101.611 30.964 101.911C30.164 102.229 29.7907 102.791 29.7893 103.676C29.7893 105.747 29.7613 107.82 29.8013 109.891C29.8147 110.523 29.7173 110.759 29.0013 110.736C27.1613 110.677 25.3173 110.736 23.4733 110.736C23.2548 110.714 23.0434 110.646 22.8534 110.536C22.6635 110.426 22.4993 110.276 22.372 110.097C22.2213 109.789 22.2227 109.459 22.2387 109.128C22.2933 107.851 22.316 106.571 22.4133 105.296C22.5827 103.056 22.7107 100.812 22.9707 98.5774C23.1773 96.7974 23.6867 95.1 24.1213 93.3774C24.3098 92.9463 24.4982 92.5152 24.6867 92.084C25.0947 91.3134 25.5022 90.5432 25.9093 89.7734C26.3404 89.1129 26.7689 88.4534 27.1947 87.7947C27.652 87.5374 27.916 87.084 28.2613 86.716C28.6067 86.348 28.9867 85.9894 29.3507 85.628C29.644 85.3827 29.9347 85.136 30.228 84.8894H30.236L30.2693 84.86C30.8867 84.4 31.5693 84.024 32.1267 83.4814C32.1228 83.4853 32.1197 83.4898 32.1173 83.4947C32.8827 83.068 33.772 82.8667 34.4347 82.2494L34.4 82.2667C35.245 82.0883 36.0726 81.8357 36.8733 81.512L36.912 81.496L40.2453 80.9414C40.3433 80.9484 40.4416 80.9319 40.532 80.8934L40.6333 80.8774L42.5627 80.832H53.0347C54.3764 80.8354 55.716 80.9379 57.0427 81.1387C59.3573 81.5534 61.4827 82.448 63.4947 83.6387C63.7093 83.78 63.9227 83.924 64.1347 84.0654C64.5471 84.3747 64.9573 84.6858 65.3653 84.9987L66.2733 85.7987C66.5867 86.0934 66.8973 86.4 67.2107 86.712Z" fill="#3A3A3A"/>
<path d="M36.7227 70.3814C37.1972 71.0262 37.7621 71.5992 38.4001 72.0827C39.0402 72.6954 39.7699 73.207 40.5641 73.6001C44.9787 76.0494 49.4974 76.2947 54.1147 74.2147C54.7814 73.8854 55.5534 73.7147 55.9814 73.0147C56.0271 73.016 56.0726 73.0073 56.1147 72.9894C56.9827 72.6107 57.628 71.9534 58.2654 71.2841C58.48 71.0627 58.6947 70.8414 58.9067 70.6174L59.3587 70.1001C59.6062 69.8768 59.809 69.6085 59.9561 69.3094C63.3974 64.8374 63.5867 57.7467 60.3961 52.8507C60.2114 52.447 59.9649 52.0745 59.6654 51.7467C59.4841 51.4734 59.3187 51.1854 59.0454 50.9867C58.649 50.4688 58.1889 50.0029 57.6761 49.6001C57.2601 49.1814 56.8534 48.7481 56.2721 48.5507C55.4949 47.8916 54.6081 47.374 53.6521 47.0214C51.8694 46.1707 49.9654 45.8627 48.0161 45.7921C46.7921 45.7481 45.5734 45.8307 44.3947 46.2134C41.9574 46.6307 39.9241 47.8374 38.0854 49.4294C37.6827 49.7446 37.3239 50.1123 37.0187 50.5227C36.544 50.9799 36.1352 51.5009 35.8041 52.0707C35.164 52.9136 34.6526 53.8469 34.2867 54.8401C33.2123 57.4157 32.8865 60.2422 33.3467 62.9947C33.7681 65.7787 34.8507 68.2667 36.7227 70.3814ZM40.5787 51.7707C41.6241 50.8974 42.8361 50.3187 44.0854 49.8121L44.1547 49.7841C44.2572 49.7834 44.3595 49.7731 44.4601 49.7534C47.7494 48.8307 50.8601 49.2414 53.8067 50.9627L54.2374 51.2841C57.4294 53.6281 59.1041 56.7667 59.2014 60.7307C59.2627 63.2641 58.4347 65.5307 57.0361 67.6027C57.0227 67.6027 57.0094 67.6161 56.9987 67.6467C56.1311 68.7116 55.108 69.6398 53.9641 70.4001C52.0699 71.5714 49.8757 72.1658 47.6494 72.1107C46.6707 72.0947 45.728 71.8734 44.7694 71.7481L44.7374 71.7361C43.8329 71.4052 42.951 71.0154 42.0974 70.5694C41.6974 70.3027 41.2974 70.0281 40.8881 69.7587C40.8515 69.6698 40.7886 69.5943 40.7078 69.5423C40.6269 69.4903 40.5321 69.4644 40.4361 69.4681C40.2107 69.0161 39.7387 68.7894 39.4574 68.3894C39.4372 68.3178 39.4019 68.2513 39.3538 68.1945C39.3057 68.1376 39.246 68.0918 39.1787 68.0601C38.8098 67.5009 38.4392 66.9418 38.0667 66.3827C36.6121 63.5374 36.3081 60.5547 37.0001 57.4494C37.3761 56.4814 37.7525 55.5129 38.1294 54.5441C38.4374 54.3721 38.5574 54.0521 38.7201 53.7694C38.9254 53.5121 39.1321 53.2561 39.3374 53.0001L40.5787 51.7707Z" fill="#3A3A3A"/>
<path d="M76.2907 81.8946C76.2907 82.4386 76.424 82.5986 76.964 82.5613C77.6295 82.5057 78.2985 82.5057 78.964 82.5613C79.6054 82.6186 79.7854 82.368 79.676 81.7933C79.788 81.652 79.62 81.408 79.8534 81.312C80.076 81.6026 80.276 81.9133 80.6267 82.0746C82.2094 83.3413 84.3974 83.2853 86.172 81.9306C86.2584 81.8805 86.3409 81.8239 86.4187 81.7613C88.8587 79.4466 89.2694 74.6226 87.2787 71.8946C85.7027 69.7386 82.728 69.072 80.768 70.5106L80.7507 70.5226C80.3879 70.7556 80.0758 71.0594 79.8334 71.416C79.8173 71.4124 79.8006 71.413 79.7849 71.418C79.7692 71.4229 79.7551 71.4319 79.744 71.444C79.6814 71.3386 79.552 71.2253 79.568 71.1333C79.8867 69.2466 79.6894 67.3506 79.6707 65.4573C78.5941 65.3013 77.5011 65.2946 76.4227 65.4373C76.176 66.1253 76.3214 66.8386 76.3174 67.5386C76.296 72.328 76.3147 77.112 76.2907 81.8946ZM80.4747 79.4506C79.7134 78.2 79.4555 76.7068 79.7534 75.2733C80.0987 73.4813 80.9294 72.168 83.5214 72.8586L83.6174 72.9186C85.3614 74.0933 85.4614 77.2386 84.5027 79.0066C84.4999 79.0108 84.4962 79.0145 84.492 79.0173C83.3414 80.2946 82.268 80.412 80.4774 79.456C80.476 79.4533 80.476 79.452 80.4747 79.4506Z" fill="#F7931B"/>
<path d="M93.8346 82.5587C93.8573 82.5766 93.8845 82.5877 93.9133 82.5907C95.5679 83.2574 97.1946 83.1241 98.7946 82.3667C99.2413 82.2334 99.5426 81.8974 99.8706 81.6001C100.006 81.5462 100.129 81.4655 100.232 81.3628C100.336 81.2602 100.417 81.1377 100.472 81.0027L100.805 80.5614C101.101 80.3067 101.193 79.9214 101.404 79.6147C101.692 79.2001 101.557 78.9974 101.115 78.8747C100.461 78.6947 99.8039 78.5134 99.1626 78.2921C98.8226 78.1734 98.6519 78.2627 98.5079 78.5681C98.2319 79.1547 97.7719 79.5747 97.2346 79.9187C97.107 79.9145 96.9793 79.9226 96.8533 79.9427C95.3866 80.3267 94.2386 79.7881 93.7453 78.3987C93.3913 77.3587 93.3204 76.2432 93.5399 75.1667C93.9213 73.1267 95.2559 72.2667 97.2306 72.8587C97.2392 72.8636 97.2473 72.8694 97.2546 72.8761C97.6658 73.1744 98.026 73.5373 98.3213 73.9507C98.5199 74.2254 98.3599 74.9841 99.0986 74.5241C99.7413 74.3254 100.38 74.1094 101.028 73.9307C101.467 73.8107 101.672 73.6641 101.428 73.1627C100.943 72.1814 100.412 71.2561 99.4093 70.7054C97.4839 69.4227 94.6586 69.4254 92.7893 70.7054C92.298 70.9462 91.8722 71.302 91.5479 71.7427C89.9253 73.7614 89.6453 76.0894 90.2333 78.4934C90.7039 80.4174 91.7866 81.9561 93.8346 82.5587Z" fill="#F7931B"/>
<path d="M115.151 93.4667C116.191 93.48 117.081 92.556 117.111 91.4293C117.137 90.432 116.169 89.4533 115.167 89.4653C114.1 89.476 113.247 90.3813 113.247 91.5107C113.239 91.7651 113.283 92.0185 113.376 92.2557C113.468 92.4929 113.607 92.7091 113.785 92.8915C113.962 93.074 114.175 93.2189 114.409 93.3177C114.644 93.4164 114.896 93.4671 115.151 93.4667Z" fill="#F7931B"/>
<path d="M130.533 93.296C130.723 93.2655 130.894 93.1669 131.016 93.0187C131.085 92.9944 131.148 92.9546 131.2 92.9024C131.252 92.8502 131.291 92.7869 131.315 92.7174C131.509 92.5734 131.565 92.356 131.64 92.1427C131.801 91.7099 131.807 91.2345 131.656 90.798C131.504 90.3616 131.206 89.9913 130.812 89.7507C130.452 89.5245 130.025 89.4291 129.603 89.4803C129.181 89.5315 128.79 89.7263 128.495 90.032C127.84 90.6747 127.703 91.8107 128.188 92.5654C128.673 93.32 129.608 93.632 130.533 93.296Z" fill="#F7931B"/>
<path d="M108.74 89.704C107.807 89.204 106.725 89.5227 106.175 90.472C105.575 91.5054 105.876 92.6054 106.916 93.1867L106.945 93.2014C107.976 93.7067 108.709 93.5094 109.407 92.548C110.133 91.62 109.675 90.2067 108.74 89.704Z" fill="#F7931B"/>
<path d="M91.7947 90.06C91.4369 90.4289 91.2325 90.9199 91.2229 91.4337C91.2132 91.9476 91.399 92.4459 91.7427 92.828C92.5427 93.6773 93.5614 93.6893 94.4867 92.8626C95.2867 91.9106 95.2867 91.0147 94.4867 90.0787C93.6187 89.2693 92.5854 89.264 91.7947 90.06Z" fill="#F7931B"/>
<path d="M123.776 92.9333C123.969 92.7486 124.124 92.5276 124.232 92.2828C124.34 92.0381 124.398 91.7745 124.404 91.5071C124.409 91.2398 124.362 90.9739 124.265 90.7249C124.167 90.4759 124.022 90.2486 123.836 90.056C122.981 89.2 121.88 89.272 120.981 90.236C120.365 91.1613 120.364 91.8 120.973 92.7226C121.807 93.6426 122.94 93.7333 123.776 92.9333Z" fill="#F7931B"/>
<path d="M102.649 72.0707C103.708 71.5107 104.783 70.9761 105.731 70.2281C106.036 70.4321 105.876 70.7414 105.876 70.9947C105.889 74.6498 105.889 78.3049 105.876 81.9601C105.876 82.4161 105.957 82.5907 106.453 82.5601C107.219 82.5134 107.988 82.5334 108.756 82.5601C109.129 82.5707 109.289 82.5027 109.289 82.0667C109.256 80.2281 109.26 78.3881 109.253 76.5481C109.253 76.4961 109.253 76.4441 109.253 76.3921C109.253 72.9547 109.253 69.5187 109.253 66.0841C108.336 65.7294 107.42 65.6507 106.507 66.1014L102.34 68.6854C102.179 69.8583 102.181 71.0478 102.347 72.2201C102.5 72.2854 102.555 72.1334 102.649 72.0707Z" fill="#F7931B"/>
<path d="M99.0973 90.0654C98.8747 90.18 98.8133 90.4174 98.7213 90.6147C98.344 91.4147 98.5533 92.4747 99.1693 92.98C99.9027 93.5814 100.86 93.6334 101.569 93.1134C102.349 92.5387 102.575 91.6627 102.197 90.688C101.455 89.296 100.343 89.0667 99.0973 90.0654Z" fill="#F7931B"/>
<path d="M87.2493 90.2253C86.4919 89.3626 85.6146 89.2333 84.6933 89.8466C83.8106 90.4333 83.6106 91.3666 84.1426 92.416C84.6226 93.3746 85.3906 93.6639 86.4719 93.2973C86.5658 93.285 86.6563 93.2539 86.7379 93.2058C86.8194 93.1576 86.8904 93.0935 86.9466 93.0173C87.016 92.9935 87.079 92.9542 87.131 92.9025C87.183 92.8508 87.2225 92.7879 87.2466 92.7186C87.8906 91.8226 87.904 91.148 87.2866 90.2773L87.2493 90.2253Z" fill="#F7931B"/>
</svg>
