<svg width="160" height="160" viewBox="0 0 160 160" fill="none" xmlns="http://www.w3.org/2000/svg">
<path d="M98.836 80.8987C95.1667 78.6773 91.5347 76.46 87.884 74.276C85.4067 72.8 82.9067 71.3507 80.4 69.9187C80.1747 69.7853 79.7507 69.76 79.5387 69.8867C73.4534 73.524 67.3778 77.1773 61.312 80.8467C61.292 80.8587 61.2854 80.892 61.4747 80.8893L62.5334 88.4413C62.892 91.016 61.1787 92.9947 58.588 92.9947C49.788 92.9947 40.988 92.9267 32.1947 93.0387C29.808 93.0693 27.452 91.46 27.8333 88.4293C28.08 86.468 28.16 84.452 28.6907 82.5627C30.0987 77.5613 33.3854 74.296 38.5467 73.392C41.016 72.96 43.6027 73.1627 46.136 73.1613C48.0347 73.1613 49.964 73.104 51.8227 73.4133C55.128 73.9627 56.9293 75.176 59.5773 78.092C63.892 75.4778 68.212 72.8609 72.5374 70.2413C74.3 69.1747 76.072 68.1227 77.824 67.0413C78.036 66.908 78.276 66.6107 78.2787 66.3867C78.312 63.908 78.3 61.428 78.3 58.876C78 58.8613 77.7374 58.8373 77.4747 58.8373C73.8627 58.8373 70.2494 58.848 66.636 58.8373C64.492 58.8293 62.9827 57.7107 62.6534 55.748C62.5107 54.9013 62.6427 53.9907 62.7574 53.124C62.9893 51.3587 63.1107 49.5493 63.604 47.8533C65.14 42.5707 69.968 39.0533 75.444 39.0533C78.4511 39.0533 81.4573 39.0533 84.4627 39.0533C87.5308 39.0385 90.4955 40.1617 92.7836 42.2058C95.0717 44.2498 96.5208 47.0696 96.8507 50.12C97.0187 51.5947 97.1173 53.0813 97.364 54.5413C97.7373 56.728 95.8974 58.8853 93.4094 58.8573C89.7694 58.8173 86.128 58.844 82.488 58.8427H81.6C81.6 61.428 81.6 63.9587 81.6147 66.4907C81.6147 66.656 81.792 66.88 81.9494 66.9733C88.12 70.6773 94.3093 74.3822 100.517 78.088C102.267 75.8667 104.436 74.232 107.227 73.6C108.351 73.3408 109.499 73.1956 110.652 73.1667C113.519 73.1053 116.385 73.132 119.256 73.148C125.804 73.1827 131.321 78.4027 131.76 84.9307C131.841 86.1307 132.008 87.3387 132.168 88.5387C132.501 91.0213 130.804 92.9973 128.301 92.9973C119.42 92.9973 110.54 92.9973 101.659 92.9973C98.8667 92.9973 97.296 91.4547 97.5254 88.676C97.7107 86.44 98.1467 84.2227 98.4933 82.0013C98.5507 81.628 98.716 81.2747 98.836 80.8987ZM69.8573 55.7333C69.8573 54.6093 69.8573 53.5933 69.8573 52.5773C69.8573 51.5107 70.3987 50.8547 71.324 50.8693C72.2494 50.884 72.9493 51.4573 72.8814 52.5827C72.8187 53.6147 72.868 54.652 72.868 55.668H87.1734C87.1734 54.6013 87.1454 53.616 87.1867 52.628C87.2027 52.228 87.2814 51.7827 87.4947 51.468C87.888 50.8893 88.5094 50.7493 89.1827 50.9573C89.856 51.1653 90.2094 51.6547 90.2107 52.3707C90.2107 53.4853 90.2107 54.6 90.2107 55.7333C91.292 55.7333 92.228 55.744 93.164 55.7333C94.0667 55.7213 94.2947 55.4933 94.2027 54.5693C94.0587 53.1213 93.8773 51.676 93.688 50.2333C93.096 45.728 89.0814 42.2 84.544 42.1933C81.568 42.1933 78.5902 42.1933 75.6107 42.1933C72.4787 42.1933 70.0027 43.5267 68.0707 45.9453C65.9507 48.6013 66.0707 51.8413 65.7307 54.9587C65.6734 55.492 66.116 55.7213 66.608 55.7293C67.656 55.74 68.6987 55.7333 69.8573 55.7333ZM52.332 89.8787C52.332 88.848 52.332 87.8613 52.332 86.8747C52.3387 85.7907 52.9213 85.1013 53.848 85.0693C54.808 85.0373 55.436 85.7427 55.4414 86.8693C55.4414 87.8547 55.4414 88.84 55.4414 89.908C56.5507 89.908 57.5907 89.9267 58.628 89.9C59.256 89.8853 59.4934 89.4813 59.428 88.8947C59.2374 87.2853 59.1413 85.656 58.8147 84.0747C57.844 79.3773 54.104 76.3507 49.3 76.3013C46.4609 76.2729 43.6218 76.2729 40.7827 76.3013C37.596 76.3347 35.08 77.6987 33.1827 80.2453C31.1827 82.9307 31.2827 86.1293 31.008 89.2267C30.9893 89.4307 31.4867 89.8587 31.7654 89.8787C32.8534 89.956 33.9507 89.9093 35.108 89.9093C35.108 88.7867 35.108 87.744 35.108 86.7027C35.116 85.7307 35.712 85.1027 36.612 85.1107C37.512 85.1187 38.0787 85.7413 38.0854 86.7213C38.0854 87.7613 38.0854 88.8013 38.0854 89.876L52.332 89.8787ZM124.965 89.9227C126.032 89.9227 126.999 89.9307 127.96 89.9227C128.867 89.9107 129.109 89.6027 129.001 88.6773C128.86 87.4773 128.717 86.2773 128.601 85.0693C128.124 80.0653 124.141 76.3627 119.117 76.3053C116.251 76.2733 113.383 76.2733 110.513 76.3053C107.4 76.344 104.905 77.6387 102.984 80.0987C100.892 82.78 100.973 86.004 100.672 89.128C100.649 89.3613 101.095 89.8453 101.348 89.864C102.463 89.9453 103.585 89.8987 104.776 89.8987C104.776 88.792 104.776 87.7773 104.776 86.7627C104.776 85.748 105.404 85.0573 106.292 85.0853C107.18 85.1133 107.745 85.752 107.751 86.732C107.751 87.772 107.751 88.8107 107.751 89.8533H121.987C121.987 88.776 121.987 87.7573 121.987 86.74C121.987 85.7227 122.555 85.14 123.468 85.1467C124.401 85.156 124.952 85.732 124.961 86.74C124.971 87.748 124.965 88.772 124.965 89.9227Z" fill="#3A3A3A"/>
<path d="M96.1853 91.7333C96.1853 93.9893 96.328 96.2573 96.1533 98.5C95.844 102.481 94.1373 105.937 91.6533 109.012C88.7333 112.627 84.9227 115.063 80.7667 116.992C80.234 117.199 79.6418 117.191 79.1147 116.971C74.5533 114.837 70.4253 112.123 67.4467 107.925C64.9533 104.412 63.6947 100.492 63.596 96.2133C63.5213 93.0133 63.5693 89.8133 63.5827 86.6133C63.5907 84.812 63.9053 84.3933 65.6307 83.9973C69.6893 83.064 73.6 81.756 77.1827 79.5853C77.7933 79.2147 78.3827 78.812 78.98 78.4173C79.62 77.9933 80.268 77.9613 80.9013 78.4027C85.1413 81.3573 89.9107 83.0027 94.9013 84.0973C95.8853 84.312 96.3187 84.8973 96.324 85.9373C96.336 87.8667 96.324 89.7973 96.324 91.7267L96.1853 91.7333ZM93.3853 92.3693L93.1907 92.352C93.1907 90.808 93.172 89.2627 93.2013 87.7187C93.2107 87.1987 93.0747 86.9693 92.524 86.8253C88.2573 85.7147 84.124 84.2747 80.3653 81.9107C80.2394 81.8525 80.1018 81.8239 79.9632 81.8271C79.8245 81.8304 79.6884 81.8653 79.5653 81.9293C75.7947 84.3373 71.632 85.768 67.3347 86.8627C66.8667 86.9813 66.7227 87.1693 66.7253 87.6413C66.748 90.4547 66.704 93.268 66.7533 96.08C66.7762 98.6164 67.3685 101.115 68.4867 103.392C70.8867 108.236 74.9373 111.308 79.604 113.704C79.8147 113.813 80.2027 113.759 80.4267 113.633C81.7213 112.912 83.028 112.2 84.264 111.385C88.508 108.585 91.6293 104.889 92.6813 99.828C93.192 97.3933 93.1707 94.856 93.3867 92.368L93.3853 92.3693Z" fill="#F7931B"/>
<path d="M60.3613 119.841C59.8413 119.508 59.34 119.283 58.964 118.924C58.4907 118.471 58.0787 118.627 57.5693 118.799C57.0067 118.989 57.116 119.399 57.1133 119.795C57.1053 121.137 56.62 121.623 55.2787 121.624C54.2307 121.624 53.1827 121.624 52.1347 121.624C51.0867 121.624 50.5333 121.067 50.4947 120C50.48 119.547 50.6813 119.059 49.992 118.8C49.376 118.564 48.988 118.601 48.5 119.067C47.5333 119.989 46.7947 119.908 45.892 118.912C45.2253 118.177 44.5427 117.457 43.88 116.719C43.032 115.775 43.072 115.009 43.9987 114.152C44.312 113.861 44.6813 113.679 44.4507 113.073C44.22 112.468 43.9267 112.305 43.3253 112.291C41.8453 112.252 41.396 111.743 41.3947 110.252C41.3947 109.343 41.3947 108.433 41.3947 107.523C41.3947 106.323 41.9507 105.733 43.1547 105.761C43.7373 105.775 44.132 105.692 44.3547 105.067C44.5093 104.625 44.5187 104.357 44.1627 103.989C42.944 102.733 42.9707 102.213 44.144 100.931C44.7027 100.321 45.2387 99.692 45.776 99.064C46.7347 97.9453 47.5093 97.864 48.5333 98.9227C49.052 99.456 49.512 99.5813 50.0493 99.1027C50.2896 98.8916 50.4442 98.5999 50.484 98.2827C50.54 96.6827 50.9653 96.2453 52.58 96.2453C53.5453 96.2453 54.5107 96.2333 55.4747 96.2453C56.6267 96.264 57.1507 96.7707 57.1027 97.928C57.0747 98.5947 57.2733 98.964 57.9027 99.2347C58.3267 99.416 58.5493 99.4253 58.8893 99.1013C60.236 97.8107 60.8227 97.864 62.0533 99.2933C62.5867 99.92 63.1373 100.541 63.696 101.151C64.6413 102.185 64.6653 102.884 63.612 103.817C63.1 104.271 63.032 104.631 63.3267 105.217C63.532 105.625 63.7547 105.76 64.204 105.76C65.7907 105.76 66.2507 106.249 66.252 107.84V110.075C66.252 111.855 65.956 112.189 64.184 112.283C63.6893 112.308 63.4107 112.439 63.2227 112.939C63.0147 113.491 63.2027 113.772 63.604 114.109C64.6373 114.976 64.6547 115.784 63.728 116.776C62.992 117.559 62.28 118.367 61.5147 119.12C61.224 119.391 60.8133 119.559 60.3613 119.841ZM61.428 115.621C60.264 114.021 60.264 114.021 60.9387 112.097C60.9493 112.072 60.9582 112.045 60.9653 112.019C61.2507 110.589 61.9867 109.681 63.5747 109.744C63.6147 109.744 63.656 109.684 63.6907 109.656V108.189C62.0907 108.408 61.2907 107.612 61.024 106.153C60.9944 105.99 60.9328 105.835 60.8427 105.696C60.0173 104.472 60.26 103.441 61.384 102.556C61.4173 102.529 61.4133 102.456 61.4333 102.373L60.2893 101.124C59.3733 102.577 58.2493 102.441 57.0347 101.613C56.8776 101.499 56.6995 101.418 56.5107 101.373C55.0893 101.107 54.6 100.155 54.6213 98.82C54.6213 98.7787 54.5653 98.7373 54.544 98.7053H53.004C52.9933 98.9013 52.9773 99.0387 52.9787 99.176C52.9787 100.18 52.6547 100.909 51.576 101.207C51.0013 101.363 50.4653 101.675 49.9267 101.945C48.9293 102.443 48.6093 102.405 47.8 101.651C47.644 101.505 47.48 101.368 47.2893 101.201L46.1333 102.424C46.3187 102.62 46.448 102.759 46.58 102.896C47.524 103.881 47.5507 104.069 46.9867 105.28C46.7667 105.751 46.5027 106.223 46.4 106.724C46.1827 107.781 45.496 108.155 44.5213 108.211L43.9227 108.244V109.751C44.1468 109.808 44.3758 109.843 44.6067 109.857C45.5787 109.821 46.136 110.269 46.3893 111.211C46.541 111.796 46.7687 112.358 47.0667 112.884C47.52 113.656 47.3707 114.292 46.8187 114.909C46.6187 115.133 46.4187 115.355 46.3147 115.468L47.3653 116.755C47.56 116.577 47.6813 116.465 47.804 116.355C48.772 115.501 48.9347 115.488 50.0707 116.027C50.6053 116.306 51.164 116.536 51.74 116.715C52.6147 116.949 52.9013 117.557 52.968 118.356C52.9867 118.593 52.968 118.833 52.968 119.096H54.6667C54.484 117.643 55.168 116.829 56.5067 116.512C56.587 116.492 56.6636 116.459 56.7333 116.415C58.016 115.585 59.2547 115.248 60.2867 116.847L61.428 115.621Z" fill="#3A3A3A"/>
<path d="M115.408 113.6C117.127 115.485 117.127 115.485 115.408 117.395C114.947 117.907 114.495 118.427 114.024 118.932C113.104 119.921 112.365 119.991 111.425 119.049C110.932 118.557 110.54 118.504 109.945 118.813C109.545 119.023 109.412 119.235 109.412 119.685C109.423 121.257 109.031 121.627 107.479 121.628C106.513 121.628 105.548 121.628 104.583 121.628C103.403 121.628 102.829 121.125 102.857 119.936C102.875 119.244 102.62 118.923 102.036 118.631C101.452 118.339 101.247 118.805 100.947 119.053C99.8906 119.929 99.2906 119.915 98.3266 118.907C97.66 118.209 97.02 117.487 96.36 116.784C95.3506 115.708 95.352 115.001 96.452 113.984C96.8226 113.641 96.92 113.38 96.7426 112.868C96.5746 112.381 96.3133 112.317 95.9013 112.295C94.18 112.203 93.852 111.855 93.8506 110.152C93.8506 109.219 93.8506 108.277 93.8506 107.339C93.8506 106.4 94.42 105.689 95.3506 105.773C96.3906 105.867 96.78 105.389 96.9253 104.473C96.9087 104.434 96.8857 104.397 96.8573 104.365C95.544 103.116 95.0373 102.329 96.7066 100.755C97.24 100.247 97.676 99.628 98.1573 99.06C99.1026 97.9453 99.8906 97.8867 100.947 98.8693C101.122 99.0515 101.283 99.2467 101.428 99.4533C102.472 99.2213 102.997 98.816 102.908 97.7107C102.832 96.756 103.441 96.2547 104.409 96.2333C105.593 96.2093 106.781 96.2147 107.965 96.2573C108.948 96.2933 109.391 96.7907 109.413 97.7787C109.427 98.344 109.343 98.8613 110.061 99.1973C110.629 99.464 110.909 99.384 111.317 98.9853C112.487 97.8427 113.268 97.928 114.319 99.2213C114.823 99.84 115.339 100.452 115.877 101.041C116.985 102.252 116.977 102.88 115.792 104.04C115.674 104.146 115.547 104.241 115.413 104.325C115.576 105.38 115.961 105.895 117.051 105.775C117.909 105.68 118.5 106.413 118.508 107.305C118.519 108.381 118.516 109.456 118.508 110.532C118.508 111.649 118.085 112.113 116.964 112.265C115.804 112.427 115.804 112.427 115.408 113.6ZM96.3333 109.733C96.648 109.785 96.892 109.867 97.1333 109.857C98.0573 109.836 98.5293 110.319 98.7626 111.171C98.9253 111.808 99.1486 112.428 99.4293 113.023C99.808 113.784 99.648 114.392 99.0986 114.967C98.9146 115.16 98.7373 115.367 98.5106 115.609L99.752 116.831C100.649 115.581 101.684 115.389 102.892 116.275C103.076 116.396 103.282 116.48 103.499 116.521C104.825 116.823 105.481 117.604 105.321 118.996C105.321 119.032 105.388 119.076 105.4 119.089H107.048C107.065 118.934 107.074 118.778 107.075 118.621C107.017 117.604 107.444 116.969 108.453 116.676C109.03 116.495 109.583 116.244 110.099 115.928C110.815 115.508 111.404 115.661 111.965 116.176L112.548 116.709L113.76 115.593C112.527 113.993 112.527 113.993 113.289 112.084C113.334 111.984 113.37 111.881 113.397 111.775C113.703 110.453 114.443 109.696 115.887 109.839C115.927 109.839 115.975 109.779 116.047 109.727V108.173C114.475 108.449 113.735 107.604 113.399 106.24C113.384 106.159 113.357 106.08 113.319 106.007C112.519 104.711 112.269 103.495 113.888 102.573L112.461 101.333C111.261 102.415 111.141 102.633 109.445 101.681C109.282 101.58 109.107 101.499 108.924 101.441C107.572 101.087 106.855 100.288 107.048 98.828C107.048 98.7893 106.989 98.7427 106.953 98.6947H105.321C105.297 98.8714 105.284 99.0496 105.284 99.228C105.364 100.244 104.984 100.892 103.951 101.188C103.327 101.365 102.74 101.705 102.169 102.028C101.564 102.368 101.029 102.344 100.499 101.904C100.247 101.695 99.9826 101.504 99.6893 101.265L98.544 102.499C98.7106 102.684 98.8106 102.813 98.932 102.927C99.648 103.611 99.8973 104.339 99.332 105.272C99.0395 105.768 98.8304 106.308 98.7133 106.872C98.5226 107.753 97.9493 108.091 97.1466 108.193C96.88 108.228 96.6133 108.241 96.3466 108.265L96.3333 109.733Z" fill="#3A3A3A"/>
<path d="M79.9587 38.5547C75.0387 38.6547 70.368 34.5267 70.3707 28.9547C70.3707 23.6747 75.1093 19.2627 80.444 19.476C85.352 19.672 89.588 24.112 89.5507 29.3427C89.5147 34.4 85.156 38.5867 79.9587 38.5547ZM86.2587 29.116C86.2587 25.6133 83.4733 22.7693 80.036 22.7773C76.4747 22.7853 73.6453 25.5613 73.6467 29.044C73.6467 32.504 76.476 35.3787 79.896 35.4C80.7284 35.4127 81.5551 35.2595 82.3277 34.9492C83.1002 34.6389 83.8032 34.1778 84.3956 33.5927C84.9879 33.0077 85.4578 32.3105 85.7777 31.5419C86.0975 30.7732 86.2611 29.9485 86.2587 29.116Z" fill="#3A3A3A"/>
<path d="M114.872 53.708C120.111 53.708 124.423 57.9933 124.417 63.188C124.413 68.5733 120.117 72.8 114.667 72.8C109.48 72.8 105.271 68.4933 105.273 63.2C105.272 57.9507 109.568 53.7053 114.872 53.708ZM121.169 63.308C121.176 62.468 121.015 61.635 120.697 60.8575C120.379 60.0801 119.909 59.3736 119.316 58.7792C118.722 58.1849 118.016 57.7144 117.239 57.3952C116.462 57.076 115.629 56.9145 114.789 56.92C111.356 56.9293 108.421 59.864 108.417 63.292C108.417 66.7693 111.376 69.6773 114.884 69.6427C118.341 69.6 121.173 66.7507 121.169 63.3053V63.308Z" fill="#3A3A3A"/>
<path d="M45.2134 53.7067C50.4467 53.696 54.7694 57.9893 54.7507 63.1733C54.732 68.4587 50.4094 72.7933 45.1507 72.7987C39.9227 72.7987 35.5934 68.4213 35.604 63.136C35.616 58.0133 40 53.716 45.2134 53.7067ZM51.5067 63.2493C51.5063 62.417 51.342 61.593 51.0231 60.8242C50.7042 60.0555 50.237 59.3571 49.6481 58.7689C49.0592 58.1808 48.3602 57.7144 47.5911 57.3965C46.8219 57.0786 45.9976 56.9153 45.1654 56.916C41.7174 56.9227 38.8614 59.8173 38.8547 63.316C38.848 66.7827 41.6934 69.6507 45.1214 69.6427C45.9622 69.6483 46.7957 69.4868 47.5735 69.1674C48.3513 68.848 49.0578 68.3772 49.652 67.7823C50.2462 67.1874 50.7161 66.4802 51.0345 65.702C51.3529 64.9238 51.5134 64.0901 51.5067 63.2493Z" fill="#3A3A3A"/>
<path d="M62.6293 126.069C65.04 126.069 67.4067 125.967 69.76 126.107C71.256 126.196 72.404 127.095 72.7907 128.621C73.1907 130.173 72.8707 131.577 71.5227 132.621C71.4531 132.692 71.3906 132.768 71.336 132.851C72.544 133.365 73.4693 134.127 73.672 135.504C74.0827 138.224 72.5093 140.304 69.7013 140.463C67.3693 140.596 65.0227 140.491 62.6347 140.491L62.6293 126.069ZM65.5813 138.244C66.82 138.159 67.9947 138.149 69.144 137.977C70.0493 137.844 70.5333 137.071 70.5387 136.111C70.5387 135.069 70.1827 134.409 69.248 134.309C68.048 134.176 66.816 134.277 65.5813 134.277V138.244ZM65.5733 131.888C66.692 131.888 67.628 131.947 68.5533 131.872C69.4493 131.799 69.9493 131.217 70.02 130.373C70.0973 129.431 69.6827 128.709 68.7533 128.549C67.8453 128.393 66.9013 128.437 65.972 128.431C65.8387 128.431 65.596 128.635 65.592 128.749C65.5613 129.807 65.5733 130.864 65.5733 131.888Z" fill="#3A3A3A"/>
<path d="M85.0213 125.949V128.517H79.168V132.032H84.5693V134.689H79.136V140.463H76.008V125.949H85.0213Z" fill="#3A3A3A"/>
<path d="M97.6 125.953V128.543H93.716V140.428H90.5813V128.592H86.5133V125.953H97.6Z" fill="#3A3A3A"/>
<path d="M78.576 100.189C77.2294 98.7693 75.9654 97.424 74.684 96.0947C74.0174 95.4067 73.0427 95.3667 72.3894 95.9613C71.6934 96.5973 71.6187 97.6107 72.3054 98.316C74.0174 100.073 75.7507 101.809 77.5054 103.523C78.1827 104.189 79.2027 104.103 79.852 103.404C80.1894 103.04 80.508 102.66 80.8334 102.287C83.2645 99.5071 85.6916 96.7249 88.1147 93.94C88.3814 93.64 88.628 93.2613 88.696 92.884C88.8374 92.108 88.5387 91.484 87.7627 91.1507C87.0254 90.8387 86.396 91.028 85.8 91.728C83.424 94.5213 81.0427 97.304 78.576 100.189Z" fill="#3A3A3A"/>
<path d="M78.576 100.189C81.0426 97.304 83.424 94.5213 85.8013 91.736C86.3973 91.036 87.0266 90.8467 87.764 91.1587C88.5413 91.488 88.84 92.112 88.6973 92.892C88.6293 93.2693 88.376 93.648 88.116 93.948C85.7009 96.7382 83.2742 99.5191 80.836 102.291C80.5106 102.664 80.192 103.044 79.8546 103.408C79.2053 104.107 78.1853 104.189 77.508 103.527C75.7551 101.81 74.0218 100.075 72.308 98.32C71.6213 97.6147 71.696 96.6013 72.392 95.9653C73.0453 95.3667 74.0226 95.4067 74.6866 96.0987C75.9653 97.424 77.2293 98.7693 78.576 100.189Z" fill="#F7931B"/>
<path d="M53.9427 114.228C51.088 114.309 48.588 111.897 48.5494 109.028C48.5107 106.221 50.9107 103.683 53.6813 103.597C56.5213 103.511 59.0147 105.905 59.096 108.797C59.1245 110.199 58.5994 111.554 57.6347 112.571C56.67 113.588 55.3434 114.183 53.9427 114.228ZM53.7867 111.536C54.4806 111.542 55.1489 111.275 55.6477 110.792C56.1466 110.31 56.4359 109.651 56.4534 108.957C56.4707 107.56 55.2533 106.272 53.8813 106.245C52.5093 106.219 51.1947 107.56 51.2147 108.969C51.2192 109.65 51.4919 110.301 51.9734 110.781C52.4549 111.262 53.1064 111.533 53.7867 111.536Z" fill="#3A3A3A"/>
<path d="M111.415 108.923C111.415 111.873 109.06 114.265 106.173 114.241C104.785 114.235 103.456 113.678 102.478 112.693C101.5 111.708 100.952 110.375 100.956 108.987C100.956 106.063 103.328 103.608 106.156 103.595C109.037 103.581 111.412 105.988 111.415 108.923ZM108.759 109.003C108.784 107.536 107.652 106.297 106.249 106.251C104.847 106.204 103.633 107.425 103.617 108.877C103.601 110.329 104.684 111.507 106.087 111.536C107.581 111.567 108.733 110.475 108.759 109.003Z" fill="#3A3A3A"/>
</svg>
