<svg width="160" height="160" viewBox="0 0 160 160" fill="none" xmlns="http://www.w3.org/2000/svg">
<path d="M126.659 115.148C126.763 103.868 126.563 92.5893 126.559 81.3107C126.559 80.552 126.328 79.888 125.625 79.4747C124.439 78.6747 123.092 78.2027 121.808 77.6147C120.131 76.8 118.461 75.9667 116.717 75.2987C115.125 74.4384 113.482 73.6748 111.797 73.012C110.934 72.5088 110.028 72.081 109.091 71.7333L101.939 68.4533C101.653 68.1867 101.28 68.084 100.928 67.9427C99.1107 67.072 97.2894 66.2093 95.4774 65.3253C95.1168 65.1381 94.7164 65.0403 94.3101 65.0403C93.9037 65.0403 93.5034 65.1381 93.1427 65.3253C92.6427 65.568 92.1387 65.8027 91.6361 66.0413C91.0894 66.22 90.5507 66.4147 90.0801 66.76C88.4521 67.3387 86.9401 68.176 85.3721 68.8933L81.1934 70.788L78.7347 71.936C78.0401 72.2427 77.3214 72.5107 76.6574 72.8693C76.2107 73.112 75.9374 73.056 75.6947 72.644C74.9654 71.5573 73.9294 70.9107 72.6907 70.5533C69.9161 69.108 67.0147 67.956 64.1094 66.812L63.5027 66.22C63.1374 65.6449 62.7721 65.0671 62.4067 64.4867L61.9934 63.748C61.8232 63.3183 61.5805 62.921 61.2761 62.5733L60.6561 61.476C60.3069 60.722 59.8792 60.0069 59.3801 59.3427L58.2081 57.2987C57.1414 55.416 56.0921 53.5293 54.8187 51.7773C54.6747 51.5973 54.5307 51.4187 54.3881 51.244C54.2791 51.0086 54.0901 50.8196 53.8547 50.7107L53.1227 50.092C52.6969 49.6607 52.1655 49.3485 51.5814 49.1867C50.6558 48.7867 49.6564 48.5859 48.6481 48.5973C42.5494 48.5773 36.4507 48.564 30.3521 48.5973C28.9374 48.6053 27.5521 48.9013 26.3521 49.764C25.9627 49.816 25.9601 50.212 25.7561 50.4307C25.3361 50.4093 25.0614 50.6507 24.8227 50.9533C23.9521 52.0613 23.2334 53.2467 22.9561 54.6547C22.7534 55.4093 22.5214 56.1573 22.3507 56.9213C21.1894 62.0667 21.0667 67.3333 20.6534 72.576C20.3427 76.576 20.1467 80.576 19.9214 84.576C19.8441 85.924 19.7134 87.288 20.3001 88.576C20.6285 89.5791 21.2714 90.4496 22.1334 91.0587C23.9787 92.62 26.0241 92.6227 28.2067 91.7693C28.2281 92.1373 28.2454 92.4453 28.2627 92.7533C28.2374 93.9533 28.2387 95.1533 28.1827 96.3533C27.957 101.268 27.7214 106.183 27.4761 111.099C27.2347 116.108 26.9827 121.116 26.7601 126.125C26.6934 127.62 26.9494 129.059 27.8601 130.307C28.1917 130.996 28.7195 131.572 29.3774 131.963C29.8227 132.475 30.4534 132.669 31.0587 132.869C33.0014 133.513 35.1601 133.148 36.5921 131.657C37.0627 131.592 37.2921 131.233 37.5321 130.887C37.7987 130.691 37.9321 130.4 38.0747 130.113C38.3532 129.737 38.5573 129.311 38.6761 128.859C39.1147 127.46 39.1054 126.001 39.2267 124.565C39.4667 121.797 39.6001 119.023 39.8881 116.267C39.9801 115.389 39.7787 114.468 40.1867 113.627C40.2414 113.831 40.2947 114.039 40.3494 114.243C40.4827 118.516 41.0494 122.755 41.3747 127.013C41.4574 128.092 41.6307 129.189 42.3161 130.108C42.4644 130.489 42.7076 130.826 43.0227 131.087C43.212 131.39 43.4695 131.645 43.7747 131.831C44.2028 132.258 44.7322 132.569 45.3134 132.736C47.4467 133.511 49.4254 133.304 51.2081 131.828C51.5886 131.587 51.9081 131.261 52.1414 130.876C52.5586 130.446 52.8695 129.924 53.0494 129.352C53.4654 128.511 53.5574 127.604 53.5201 126.685C53.2667 120.571 52.9627 114.46 52.7507 108.345C52.4614 100.052 52.0974 91.76 52.1467 83.4573C52.1774 78.0933 52.1707 72.728 52.1801 67.3627L54.7547 71.1187C54.7635 71.1362 54.7748 71.1523 54.7881 71.1667C55.7401 72.656 56.6267 74.1907 57.8361 75.5C58.3294 75.9253 58.9574 76.0333 59.5481 76.232C60.7961 76.632 62.0081 77.1493 63.3001 77.412C63.8534 77.668 64.3987 77.9453 65.0334 77.9733C65.0491 77.999 65.0574 78.0286 65.0574 78.0587C65.0574 78.0888 65.0491 78.1183 65.0334 78.144C64.4187 78.372 63.8014 78.5893 63.1934 78.8293C61.8494 79.3627 61.4467 79.956 61.4467 81.3947C61.4467 93.6898 61.4467 105.984 61.4467 118.277C61.4467 118.789 61.4467 119.285 61.8467 119.677C61.8636 119.768 61.9078 119.85 61.9734 119.915C62.0391 119.979 62.1228 120.021 62.2134 120.036C62.9001 120.556 63.7241 120.804 64.4881 121.172L70.9027 124.239C71.0467 124.455 71.3027 124.473 71.5107 124.563L73.4041 125.524L79.4414 128.412C79.5894 128.623 79.8307 128.663 80.0494 128.74L88.2081 132.732C89.9761 133.591 91.7387 134.465 93.5161 135.303C94.0961 135.577 94.6827 135.625 95.3121 135.303C97.0454 134.412 98.7934 133.569 100.536 132.716C102.403 131.839 104.284 130.961 106.08 129.927C106.815 129.705 107.463 129.305 108.125 128.933C108.6 128.733 109.092 128.564 109.493 128.221C111.479 127.263 113.476 126.328 115.448 125.341C118.963 123.583 122.461 121.793 125.967 120.016C126.056 120.003 126.139 119.962 126.203 119.9C126.268 119.837 126.312 119.756 126.329 119.668C126.708 119.196 126.752 118.639 126.729 118.068C126.717 117.104 126.651 116.125 126.659 115.148ZM111.764 88.9933C113.231 88.6507 114.464 87.7933 115.764 87.0827L115.753 87.096C117.169 86.6715 118.512 86.0321 119.733 85.2C121.015 84.9787 122.024 84.0947 123.304 83.7133C123.313 83.8733 123.325 83.9907 123.325 84.1067C123.331 95.0693 123.34 106.032 123.353 116.993C123.353 117.475 123.16 117.637 122.785 117.821C120.895 118.755 119.019 119.705 117.136 120.648C113.573 122.432 110.009 124.216 106.444 126C103.785 127.319 101.127 128.64 98.4694 129.961C98.2547 130.049 98.0081 130.083 97.8627 130.296C97.2703 130.484 96.7077 130.756 96.1921 131.103C95.7601 130.883 95.9921 130.485 95.9827 130.184C95.9054 127.297 96.0307 124.408 95.8401 121.517C95.8561 121.329 95.8854 121.141 95.8841 120.956C95.8654 113.183 95.845 105.409 95.8227 97.636C95.8227 97.2653 95.7507 96.88 96.0201 96.5573C96.1385 96.5361 96.2546 96.5035 96.3667 96.46C98.3294 95.5311 100.292 94.6022 102.253 93.6733L102.871 93.344C104.171 92.864 105.38 92.1893 106.623 91.5827C106.844 91.508 107.081 91.4667 107.232 91.256C108.801 90.608 110.349 89.9227 111.775 88.98L111.764 88.9933ZM70.7467 120.475L64.8387 117.6C64.8387 106.516 64.8387 95.4324 64.8387 84.348C64.8387 84.096 64.6774 83.7627 65.0654 83.6173C66.9934 84.5507 68.8694 85.5813 70.8774 86.3307L70.9307 86.3573H70.9387C71.3841 86.5853 71.8307 86.8093 72.2721 87.0373C73.5134 87.6387 74.7227 88.312 76.0254 88.7867L76.6427 89.112C77.4427 89.512 78.2334 89.936 79.0561 90.2853C80.2041 90.7747 81.2294 91.5307 82.4614 91.8307C82.7441 92.1093 83.1281 92.2013 83.4734 92.3413C84.5656 92.9318 85.6936 93.4537 86.8507 93.904L87.4627 94.228L90.6867 95.74C90.9374 95.8733 91.1721 96.0587 91.4387 96.1213C92.3974 96.348 92.6121 96.9133 92.6081 97.876C92.5654 108.543 92.5827 119.209 92.5827 129.885V131.004C92.1347 130.923 91.8481 130.604 91.4521 130.653C89.3854 129.428 87.2174 128.407 85.0267 127.435C84.7494 127.161 84.3774 127.068 84.0361 126.92C82.0761 125.97 80.1161 125.019 78.1561 124.068C75.8961 122.964 73.6787 121.773 71.3561 120.799L70.7467 120.475ZM76.0934 77.7573C76.2947 77.024 76.7867 76.5853 77.4387 76.2813C79.7667 75.1907 82.1721 74.264 84.4387 73.0453C86.8245 72.056 89.1707 70.9831 91.4774 69.8267C92.5027 69.6427 93.2454 68.792 94.2774 68.6453C94.395 68.6778 94.5107 68.7165 94.6241 68.7613C96.9636 69.8147 99.2979 70.8702 101.627 71.928C101.796 72.1059 102.022 72.2195 102.265 72.2493C103.828 72.96 105.312 73.8493 106.951 74.3827C106.959 74.389 106.969 74.3943 106.979 74.3987C108.092 75.0151 109.242 75.5628 110.423 76.0387C111.405 76.5413 112.379 77.06 113.428 77.4093C114.397 78.0147 115.465 78.4133 116.495 78.8907L120.095 80.5973C120.239 80.7853 120.644 80.7307 120.628 81.0093C120.609 81.2613 120.256 81.264 120.049 81.368C118.923 81.9453 117.789 82.5067 116.657 83.0747C115.348 83.54 114.139 84.22 112.893 84.8253C111.721 85.3253 110.555 85.8387 109.456 86.492C107.636 87.2107 105.916 88.14 104.156 88.9867C102.575 89.7467 100.993 90.5049 99.4107 91.2613L94.8267 93.504C94.3854 93.724 93.9907 93.66 93.5561 93.42C93.1214 93.18 92.7281 92.8867 92.2067 92.9213C91.2107 92.2427 90.1747 91.656 88.9801 91.4027C87.8454 90.7053 86.7134 89.9973 85.3907 89.712L85.3641 89.6933C84.3334 88.9373 83.1614 88.4613 81.9827 88C80.8734 87.404 79.7814 86.772 78.5427 86.472L78.5521 86.4827C77.5641 85.74 76.4187 85.3013 75.3014 84.816C73.7787 84.14 72.3561 83.252 70.7787 82.692C69.7121 82.1587 68.6254 81.6507 67.5641 81.1027C67.4187 81.0267 66.9641 81.0827 67.2094 80.6587C68.4187 80.444 69.5427 79.432 70.8641 80.2667C71.0911 80.3882 71.3446 80.4517 71.6021 80.4517C71.8596 80.4517 72.113 80.3882 72.3401 80.2667C72.5481 80.2524 72.7548 80.2234 72.9587 80.18C73.0187 80.1667 73.0787 80.1533 73.1374 80.136L73.1787 80.124C73.1912 80.122 73.2033 80.1185 73.2147 80.1133C73.2894 80.092 73.3614 80.0693 73.4334 80.0413C73.5054 80.0133 73.5494 79.9973 73.6081 79.9707L73.6347 79.96C73.6934 79.9333 73.7507 79.904 73.8094 79.8733C73.8414 79.8573 73.8734 79.84 73.9081 79.8187C73.9427 79.7973 73.9721 79.7813 74.0041 79.76C74.0376 79.7408 74.0701 79.7199 74.1014 79.6973C74.1641 79.656 74.2267 79.608 74.2881 79.564C74.3161 79.5427 74.3427 79.52 74.3694 79.496C74.3765 79.4918 74.3828 79.4864 74.3881 79.48C74.4147 79.456 74.4414 79.4333 74.4654 79.408C74.4963 79.3813 74.5257 79.3528 74.5534 79.3227C74.5881 79.3173 74.6224 79.3097 74.6561 79.3L74.7507 79.2707C74.8103 79.2475 74.8679 79.2194 74.9227 79.1867C74.9759 79.1559 75.0268 79.1211 75.0747 79.0827C75.1266 79.0417 75.1757 78.9971 75.2214 78.9493C75.2547 78.9147 75.2881 78.8773 75.3201 78.8387C75.4454 78.6893 75.5574 78.5227 75.6747 78.3613C75.8281 78.152 76.0347 77.9733 76.0934 77.7573ZM39.0161 86.1053C38.4081 86.4787 38.2814 87.068 38.2867 87.7187C38.3041 89.3893 38.2334 91.052 38.1281 92.7253C37.9761 95.076 37.8747 97.428 37.7521 99.7787C37.4681 103.583 37.1947 107.388 36.8987 111.191C36.6147 114.836 36.3521 118.483 35.9934 122.124C35.7867 124.212 35.8601 126.34 35.2374 128.38C34.9144 128.822 34.5259 129.211 34.0854 129.536C33.6643 129.696 33.2133 129.762 32.7639 129.73C32.3146 129.697 31.8777 129.567 31.4841 129.348L30.7041 128.584C30.3507 127.875 30.1267 127.14 30.1707 126.327C30.4707 120.369 30.8014 114.413 31.0414 108.46C31.3254 101.332 31.6321 94.1933 31.7401 87.0653C31.8667 78.7293 31.7921 70.388 31.8041 62.0493C31.8041 61.5773 31.7734 61.104 31.4361 60.716C30.5467 59.6773 29.5841 59.6787 28.6681 60.716C28.3201 61.0573 28.3067 61.5013 28.2987 61.94C28.2867 62.9187 28.2867 63.896 28.2827 64.8733C28.2578 72.3187 28.233 79.7631 28.2081 87.2067L27.8774 87.8293C26.5334 89.2933 25.4454 89.3333 23.6961 88C23.2254 87.1027 23.2521 86.1333 23.3054 85.1627C23.4267 82.9293 23.5294 80.6933 23.7054 78.464C24.1561 72.7853 24.3094 67.08 25.0174 61.424C25.3401 58.848 25.8454 56.3 26.9094 53.9L28.0534 52.752C28.7662 52.349 29.5706 52.136 30.3894 52.1333C36.3921 52.1511 42.3947 52.1511 48.3974 52.1333C49.3307 52.1333 50.2041 52.2667 51.0147 52.7373C51.4561 53.1813 51.8961 53.628 52.3361 54.0707C52.8498 54.9533 53.3641 55.8356 53.8787 56.7173C53.9961 56.9107 54.1161 57.1053 54.2334 57.296C54.3667 57.5453 54.5067 57.7933 54.6454 58.0427C54.8769 58.5937 55.1848 59.1094 55.5601 59.5747C55.6934 59.9267 55.8427 60.2733 56.1241 60.5413C56.2574 61.052 56.6067 61.4413 56.8841 61.8747L57.8667 63.5507L58.2241 64.1333C58.3583 64.3813 58.4943 64.6284 58.6321 64.8747C58.8711 65.4198 59.1784 65.9324 59.5467 66.4C59.6894 66.6493 59.8321 66.896 59.9761 67.1427C60.4694 67.9427 60.7921 68.864 61.6427 69.4C62.9608 70.1006 64.3354 70.6894 65.7521 71.16C66.3494 71.58 67.0427 71.796 67.7174 72.0547C69.2001 72.7507 70.6627 73.4933 72.1747 74.1173C72.5926 74.2942 72.9486 74.5912 73.1974 74.9707C73.4747 76.4987 72.5214 77.216 70.9801 76.672C70.8606 76.6398 70.739 76.6166 70.6161 76.6027C70.2547 76.3427 69.8374 76.2173 69.4161 76.096C68.5334 75.7613 67.6467 75.4387 66.7681 75.092C64.5187 74.2053 62.1601 73.6187 59.9414 72.6467L59.5654 72.236C58.7298 70.9853 57.8956 69.7338 57.0627 68.4813L55.0041 65.4147C54.1387 63.98 53.2467 62.56 52.1721 61.2627C52.0801 60.672 51.6294 60.4533 51.1347 60.3173C49.8014 59.9467 48.7467 60.8733 48.7454 62.428C48.7454 67.5733 48.7601 72.7187 48.7454 77.864C48.7254 84.7133 48.7854 91.5613 49.0254 98.408C49.2307 104.18 49.4498 109.951 49.6827 115.719C49.8267 119.284 49.993 122.844 50.1814 126.4C50.2441 127.617 49.8907 128.615 48.9214 129.372L48.8987 129.383H48.8921C48.4596 129.618 47.9751 129.741 47.4827 129.741C46.9904 129.741 46.5059 129.618 46.0734 129.383C44.9894 128.627 44.8641 127.449 44.7587 126.293C44.4094 122.5 44.0921 118.703 43.7667 114.908C43.4014 110.701 42.9761 106.508 42.6827 102.293C42.3441 97.4827 41.9534 92.6707 41.8601 87.8467C41.8494 87.2 41.7961 86.52 41.1467 86.1133C40.4401 85.552 39.7334 85.5373 39.0161 86.1053Z" fill="#3A3A3A"/>
<path d="M138.481 40.8C138.194 39.998 137.811 39.2337 137.34 38.524C136.744 37.3373 135.927 36.3066 135.064 35.308L134.539 34.7146C134.288 34.3486 133.971 34.0322 133.605 33.7813C133.473 33.5432 133.266 33.3557 133.016 33.248L132.267 32.636C131.634 32.0506 130.925 31.5541 130.159 31.16C129.749 30.8933 129.377 30.544 128.844 30.5306C127.884 29.7773 126.745 29.4213 125.603 29.0733C123.012 28.1813 120.335 27.9426 117.623 28.0986C114.449 28.2826 111.461 29.132 108.724 30.78C108.3 30.9493 107.91 31.1937 107.572 31.5013C107.152 31.6993 106.771 31.9702 106.447 32.3013C106.359 32.3233 106.277 32.364 106.207 32.4206C106.136 32.4773 106.079 32.5484 106.039 32.6293L105.309 33.2466C104.317 33.96 103.556 34.8893 102.844 35.8666C102.595 36.1866 102.331 36.4973 102.097 36.8306C99.6973 40.264 98.4653 44.1013 98.3226 48.2626C98.2079 51.6213 98.7893 54.8706 100.351 57.8946C100.425 58.384 100.708 58.7746 100.961 59.18C101.468 60.3186 102.26 61.2666 103.016 62.236C103.221 62.4786 103.425 62.7226 103.631 62.9666C104.144 63.6842 104.775 64.3099 105.497 64.8173L106.031 65.2613C106.727 65.768 107.343 66.392 108.144 66.7533C108.896 67.3186 109.744 67.7106 110.608 68.06C113.864 69.5866 117.296 70.06 120.855 69.772C124.081 69.5915 127.211 68.6075 129.96 66.9093C130.668 66.4226 131.452 66.0506 132.08 65.4506L132.613 65.0133C132.7 64.9909 132.78 64.9501 132.849 64.8937C132.918 64.8373 132.974 64.7667 133.013 64.6866C133.644 64.1885 134.216 63.6189 134.716 62.9893C134.832 62.856 134.948 62.7226 135.065 62.5893C135.287 62.2986 135.669 62.1146 135.669 61.6773C136.559 60.8458 137.222 59.8014 137.596 58.6426C138.033 58.448 137.977 57.976 138.14 57.6333C140.757 52.076 140.755 46.4573 138.481 40.8ZM134.556 57.488C134.289 57.9213 134.029 58.356 133.765 58.788L133.048 59.7666C132.843 60.0111 132.641 60.2573 132.44 60.5053L130.915 62.0306C130.605 62.2973 130.295 62.5573 129.981 62.8186C129.464 63.1857 128.947 63.5528 128.431 63.92C128.312 63.9401 128.196 63.9755 128.087 64.0253C124.375 66.1813 120.405 66.896 116.16 66.2333C114.983 66.048 113.893 65.5666 112.712 65.4226L109.311 63.5426C108.984 63.3013 108.657 63.0626 108.332 62.8213C108.088 62.62 107.843 62.4213 107.6 62.2146L106.253 60.8813C105.987 60.5693 105.72 60.2582 105.453 59.948C105.176 59.492 104.907 59.0266 104.387 58.7893C104.192 57.7813 103.552 56.996 103.068 56.132C102.956 55.744 102.861 55.352 102.732 54.9693C101.825 52.2906 101.467 49.568 101.823 46.736C102.067 44.792 102.727 42.996 103.407 41.192C103.612 41.0453 103.673 40.8146 103.744 40.596L105.301 38.1546L105.625 37.744C105.959 37.3751 106.294 37.0048 106.628 36.6333C106.824 36.4413 107.017 36.248 107.211 36.0546L108.133 35.2533L109.888 33.9853L113.516 32.288C114.945 31.98 116.351 31.5706 117.829 31.4946C120.176 31.3732 122.526 31.6408 124.785 32.2866C124.805 32.2932 124.824 32.3013 124.843 32.3106C126.559 33.0293 128.241 33.82 129.755 34.924C129.795 35.005 129.852 35.0761 129.923 35.132C129.994 35.1878 130.077 35.227 130.165 35.2466L130.903 35.868C131.353 36.4313 131.865 36.9433 132.428 37.3946C132.773 37.7533 132.927 38.268 133.373 38.5453C133.803 39.2217 134.231 39.8968 134.66 40.5706C134.669 40.5948 134.682 40.617 134.7 40.636C135.125 41.6315 135.551 42.628 135.98 43.6253C135.986 43.6533 135.996 43.68 136.012 43.704C136.014 43.8302 136.027 43.956 136.051 44.08C136.643 46.2813 136.921 48.492 136.648 50.7893C136.428 52.6453 135.848 54.3773 135.264 56.1226C135.035 56.5786 134.8 57.032 134.553 57.488H134.556Z" fill="#F7931B"/>
<path d="M29.6 41.9227C29.8668 42.4997 30.2369 43.023 30.692 43.4667C31.0646 43.9688 31.5078 44.4143 32.008 44.7894C32.4433 45.2573 32.9666 45.6347 33.548 45.9C37.1907 48.3334 42.8667 48.1827 46.6347 45.12C46.7237 45.1004 46.8069 45.0601 46.8776 45.0024C46.9482 44.9448 47.0043 44.8713 47.0414 44.788C47.5455 44.4171 47.9901 43.9715 48.36 43.4667C48.8205 43.0283 49.1957 42.5084 49.4667 41.9334C51.0547 39.2574 51.5614 36.3974 50.8 33.3747C50.4 31.7654 49.7734 30.2307 48.556 29.0227C48.244 28.1614 47.5 27.6894 46.8494 27.1334C46.296 26.8267 45.924 26.26 45.3027 26.0454C41.6094 24.0009 37.8805 23.9347 34.116 25.8467C33.3667 26.1134 32.8254 26.6907 32.1947 27.136C31.6189 27.5587 31.1101 28.0657 30.6854 28.64C30.2336 29.0847 29.8659 29.6073 29.6 30.1827C27.4667 34.096 27.392 38.0094 29.6 41.9227ZM33.3334 30.7414C33.9138 30.1831 34.4916 29.624 35.0667 29.064C35.1848 29.0427 35.3005 29.0096 35.412 28.9654C38.5774 27.3747 41.6227 27.5587 44.548 29.5694L46.0827 31.12L46.6267 31.9027C48.0267 34.5094 48.0667 37.148 46.8134 39.8174L46.056 40.964C45.9467 41.0974 45.8374 41.2387 45.7267 41.3734L45.1254 41.98L43.0014 43.4387C42.2654 43.572 41.592 43.9054 40.8454 44.0334C38.7894 44.388 36.9134 43.8387 35.068 43.0454L33.1147 41.1787C32.8152 40.7254 32.5156 40.2725 32.216 39.82C30.9254 36.7934 31.1267 33.8974 32.976 31.1467C33.0609 31.1082 33.1366 31.0522 33.1982 30.9824C33.2598 30.9125 33.3059 30.8303 33.3334 30.7414Z" fill="#3A3A3A"/>
<path d="M127.119 41.724L126.728 42.1147L125.6 43.4294C125.364 43.5685 125.177 43.7784 125.067 44.0294C124.739 44.3974 124.411 44.7662 124.084 45.136C123.848 45.272 123.664 45.482 123.56 45.7334L122.379 47.032L121.045 48.5534C120.809 48.6863 120.625 48.8961 120.524 49.148L119.527 50.2667C119.291 50.4021 119.107 50.611 119.003 50.8614C118.672 51.2334 118.336 51.6027 118.008 51.976C117.778 52.1153 117.596 52.322 117.488 52.568C117.251 52.82 117.02 53.076 116.776 53.3214C116.597 53.5 116.445 53.8267 116.117 53.5094C115.991 53.2637 115.796 53.0596 115.557 52.9214C114.948 52.2627 114.408 51.5347 113.66 51.0134C113.349 50.3934 112.849 49.9467 112.327 49.5107L110.773 47.8267C110.755 47.7406 110.711 47.662 110.647 47.6013C110.584 47.5406 110.503 47.5007 110.416 47.4867C109.676 46.792 108.912 46.884 108.132 47.4134C107.332 48.492 107.332 49.0894 108.14 50.1094C108.639 50.6427 109.139 51.176 109.64 51.7094C110.085 52.3097 110.599 52.8549 111.173 53.3334L112.933 55.2C113.232 55.6467 113.601 56.0417 114.027 56.3694C114.293 56.664 114.552 56.972 114.837 57.252C115.771 58.1774 116.252 58.2494 117.459 57.676C117.947 57.4094 118.272 56.9854 118.601 56.5574C118.901 56.3615 119.142 56.0889 119.3 55.768C119.567 55.4627 119.848 55.156 120.119 54.8507C120.415 54.651 120.655 54.3794 120.817 54.0614L121.637 53.1427C121.873 53.0065 122.056 52.7966 122.16 52.5454C122.492 52.1765 122.824 51.8054 123.155 51.432C123.239 51.3943 123.315 51.3392 123.377 51.2703C123.438 51.2013 123.485 51.1202 123.513 51.032C123.899 50.5965 124.286 50.1614 124.673 49.7267C124.933 49.565 125.137 49.3283 125.259 49.048C125.57 48.704 125.881 48.3609 126.192 48.0187C126.426 47.8824 126.61 47.6737 126.715 47.424C127.045 47.052 127.375 46.6774 127.708 46.304C127.825 46.1707 127.943 46.0374 128.06 45.904C128.387 45.536 128.713 45.1654 129.04 44.796C129.277 44.6555 129.466 44.4481 129.585 44.2C130.585 43.1667 130.823 42.4374 130.401 41.676C129.68 40.384 128.251 40.4 127.119 41.724Z" fill="#F7931B"/>
</svg>
