<svg width="160" height="160" viewBox="0 0 160 160" fill="none" xmlns="http://www.w3.org/2000/svg">
<path d="M131.907 73.1C131.665 72.6147 131.199 72.68 130.787 72.676C129.381 72.6654 127.976 72.676 126.572 72.6867L126.387 72.5334C126.387 71.712 126.423 70.8907 126.387 70.0707C126.365 69.4827 126.579 68.856 126.164 68.3147C126.176 68.0733 126.02 67.9867 125.819 67.944C124.792 67.6013 124.183 67.98 124.161 69.0107C124.143 69.992 124.143 70.9734 124.172 71.9534C124.183 72.328 124.132 72.604 123.727 72.704C122.369 72.704 121.011 72.6867 119.653 72.6934C119.223 72.6934 118.804 72.7707 118.608 73.2414C118.193 73.712 118.172 74.188 118.593 74.6667C118.713 75.0574 119.003 75.1507 119.369 75.1027H123.784C124.28 75.1027 124.161 75.464 124.163 75.7494C124.163 77.1547 124.177 78.5614 124.163 79.968C124.151 80.7854 124.595 81.168 125.333 81.1813C126.097 81.1987 126.4 80.6987 126.4 79.9813C126.4 78.636 126.389 77.2907 126.408 75.9454C126.408 75.6667 126.239 75.3307 126.565 75.104C126.578 75.0862 126.594 75.0712 126.613 75.06C126.632 75.0488 126.653 75.0415 126.675 75.0387L126.565 75.104H131.164C132.328 74.9147 132.609 74.1627 131.908 73.112L131.907 73.1ZM125.825 68.4934L125.795 68.508C125.795 68.4974 125.804 68.488 125.809 68.4787L125.825 68.4934Z" fill="#3A3A3A"/>
<path d="M121.02 86.4253C121.02 85.968 121.053 85.5027 120.835 85.0747C120.753 83.9333 119.983 83.4853 119 83.248C117.941 82.78 116.887 82.3014 115.823 81.8454C110.184 79.4267 104.544 77.0107 98.9027 74.5973C97.3374 73.9187 95.7814 73.2187 94.204 72.5693C93.404 72.24 92.604 72.332 91.8133 72.732C90.0987 73.6053 88.3707 74.4507 86.644 75.2973C83.1134 77.0298 79.5814 78.7587 76.048 80.484L75.7 80.46C75.9894 79.648 76.144 78.8347 75.9414 77.9627C75.3387 75.356 73.416 74.1213 71.1187 73.2613C69.26 72.3067 67.2427 71.7013 65.4147 70.6787C65.092 70.3454 64.6694 70.1693 64.2707 69.956L62.9547 68.8973C62.8387 68.8107 62.7227 68.7213 62.6094 68.6307L61.276 66.4653C60.9258 65.7818 60.5756 65.0969 60.2254 64.4107C59.224 62.0227 58.264 59.6107 57.208 57.252C56.632 55.9653 55.8214 54.808 54.6747 53.9333C54.4566 53.5924 54.1221 53.3422 53.7334 53.2293C52.7227 52.552 51.6587 52.0067 50.416 51.9107C49.7227 51.636 48.9867 51.5853 48.26 51.5827C42.66 51.5693 37.0534 51.5613 31.4494 51.5907C30.0997 51.5838 28.7669 51.8906 27.556 52.4867C26.668 52.8307 25.8227 53.2493 25.1454 53.936C24.1134 54.728 23.364 55.7467 22.7707 56.8893C22.4174 57.3227 22.2147 57.8373 22.0347 58.356C20.5774 62.504 20.3454 66.8333 20.1547 71.168C19.9267 71.7387 20.004 72.332 20.0214 72.92C20.0054 73.3787 19.9907 73.8373 19.9747 74.296C19.7454 74.928 19.828 75.5827 19.8414 76.2307C19.828 76.7507 19.8142 77.2702 19.8 77.7893C19.576 78.6107 19.6347 79.448 19.6574 80.284L19.7107 80.1587C19.7041 80.2044 19.6857 80.2476 19.6574 80.284C19.3907 83.552 19.2454 86.8307 19.2947 90.1053C19.3574 94.2587 23.576 96.928 27.1854 95.1867L27.492 95.0534C27.5094 95.4534 27.5374 95.8453 27.544 96.2427C27.5867 98.7253 27.288 101.201 27.4 103.687C27.1667 108.38 26.9907 113.075 26.9907 117.776C26.9256 117.977 26.8989 118.188 26.912 118.399C26.752 119.936 26.8507 121.48 26.8494 123.023C26.8494 123.823 26.8494 124.623 26.8494 125.423C26.7747 126.615 27.2214 127.631 27.916 128.564C28.2347 128.988 28.5694 129.396 29.0414 129.664C30.7854 131.011 32.7067 131.131 34.7187 130.436C36.3414 129.872 37.4387 128.78 37.8707 127.081C38.364 125.587 38.3707 124.015 38.5374 122.479C38.8427 119.564 39.112 116.645 39.396 113.728C39.5827 113.393 39.5027 113.016 39.568 112.661C39.8134 111.348 39.6534 109.98 40.1014 108.692C40.1614 109.073 40.0747 109.476 40.268 109.837C40.3439 111.351 40.5028 112.86 40.744 114.356V114.383L40.816 114.845C41.036 118.053 41.504 121.233 41.8827 124.424C42.072 126.024 42.244 127.655 43.4294 128.924C43.7752 129.459 44.2923 129.86 44.896 130.063C46.7814 131.129 48.692 131.099 50.6294 130.196C51.1294 130.012 51.5725 129.7 51.9147 129.292C52.424 128.836 52.8547 128.328 53.02 127.641C53.1534 127.184 53.2867 126.727 53.42 126.269C53.656 125.647 53.5734 125.024 53.412 124.403C53.3947 122.425 53.452 120.447 53.2787 118.475C53.2667 118.316 53.2534 118.159 53.2347 118.001C53.2353 117.995 53.2353 117.988 53.2347 117.981C53.2467 117.829 53.272 117.679 53.2707 117.528C53.2209 112.323 53.1702 107.117 53.1187 101.912C53.0778 97.2898 53.0391 92.6676 53.0027 88.0453V74.4454C52.876 74.2267 52.9667 73.9747 52.9387 73.74C52.9809 73.685 53.0377 73.643 53.1027 73.6187C53.116 73.636 53.1267 73.6467 53.1414 73.6627C53.1482 73.6793 53.1572 73.695 53.168 73.7093C53.6791 74.7997 54.3767 75.7924 55.2294 76.6427C55.4698 77.0058 55.7848 77.3135 56.1534 77.5454C56.7401 78.1456 57.4303 78.6352 58.1907 78.9907C58.7889 79.4077 59.4423 79.7393 60.132 79.976C60.9128 80.4252 61.7481 80.772 62.6174 81.008C64.8467 81.96 67.1854 82.5627 69.7854 83.2107C68.6494 83.7574 67.724 84.2667 66.7507 84.6547C65.46 85.172 64.9547 86.1 64.9747 87.44C65.004 89.4613 64.9827 91.484 64.9867 93.5067C65 99.848 65.0138 106.189 65.028 112.531C65.0174 113.597 64.9747 114.672 65.0054 115.741C65.024 116.329 64.8094 116.955 65.1907 117.508C65.156 117.947 65.3827 118.228 65.744 118.428H65.752C67.7974 119.745 69.96 120.849 72.124 121.951C72.7233 122.376 73.3677 122.733 74.0454 123.017C74.9 123.488 75.7494 123.971 76.6107 124.428C81.448 126.987 86.2938 129.546 91.148 132.104C92.036 132.571 92.9867 132.805 93.9574 132.305C95.2587 131.639 96.5707 130.983 97.7987 130.18C97.8096 130.179 97.8197 130.174 97.8267 130.165C98.9547 129.54 100.199 129.108 101.148 128.184C102.115 127.965 102.909 127.403 103.732 126.897C104.152 126.745 104.576 126.6 104.819 126.18C106.071 125.703 107.219 125.02 108.353 124.325C108.767 124.165 109.203 124.037 109.42 123.597C111.195 122.947 112.753 121.9 114.385 120.972L116.291 119.905C117.297 119.397 118.308 118.897 119.232 118.244C119.833 118.033 120.365 117.737 120.632 117.113C121.053 116.524 121.019 115.843 121.019 115.172C121.024 105.591 121.024 96.0085 121.02 86.4253ZM88.4 127.091C85.6467 125.497 82.8 124.083 79.972 122.627C78.18 121.545 76.3214 120.588 74.436 119.683C74.4257 119.677 74.4158 119.671 74.4067 119.664C72.6867 118.672 70.9987 117.612 69.1107 116.944L68.9627 116.864C68.0747 116.281 68.1094 115.387 68.1187 114.428C68.1614 110.625 68.1387 106.828 68.1334 103.02C68.1245 98.3285 68.1116 93.6369 68.0947 88.9454C68.2107 88.6973 67.9614 88.256 68.472 88.2107C68.5467 88.452 68.7827 88.4773 68.9667 88.5733C70.6796 89.4391 72.3947 90.3022 74.112 91.1627C79.72 93.9627 85.28 96.848 90.9667 99.4854L90.9827 128.171C90.6294 128.341 90.3787 128.016 90.0667 127.985C89.5587 127.587 88.976 127.333 88.4 127.091ZM117.388 87.4907L117.897 87.2987L117.915 114.18C117.915 114.548 117.923 114.916 117.929 115.284C116.661 116.247 115.161 116.817 113.848 117.704C112.188 118.62 110.529 119.536 108.871 120.452C107.759 121.051 106.648 121.65 105.537 122.248L104.933 122.623C101.373 124.424 97.9334 126.459 94.3374 128.416C94.3193 128.407 94.3027 128.395 94.288 128.381V127.489C94.2782 122.438 94.2698 117.386 94.2627 112.335C94.224 109.851 94.396 107.371 94.1667 104.88C94.0867 104.027 93.9707 103.083 94.2627 102.199C94.2742 101.341 94.2871 100.483 94.3014 99.6253L94.4987 99.4493C95.7151 98.9484 96.8864 98.3444 98 97.644C99.5067 96.9014 101.08 96.2813 102.415 95.2293C102.593 95.2057 102.768 95.1609 102.936 95.096C106.141 93.4071 109.344 91.7182 112.545 90.0293C113.956 89.2853 115.368 88.5431 116.78 87.8027L117.388 87.4907ZM114.547 84.9093C114.581 85.0493 114.821 85.06 114.768 85.256L113.063 86.1573L110.529 87.4907C108.775 88.3613 106.993 89.184 105.32 90.2133C103.813 90.8733 102.387 91.68 100.944 92.472L98.176 93.9213C96.5974 94.7213 95.016 95.5 93.444 96.3053C93.2207 96.4329 92.9679 96.5 92.7107 96.5C92.4535 96.5 92.2007 96.4329 91.9774 96.3053C87.556 94.1 83.12 91.9213 78.6934 89.7267C76.2694 88.5267 73.8507 87.316 71.3814 86.0867C71.3727 86.0509 71.3695 86.0141 71.372 85.9773C71.676 85.6587 72.0574 85.5973 72.364 85.4147L78.6307 82.66C79.2827 82.4147 79.9414 82.1853 80.5187 81.78C81.7038 81.3516 82.8447 80.8095 83.9254 80.1614C83.9562 80.1542 83.9844 80.1385 84.0067 80.116C86.7067 79.0493 89.2467 77.6573 91.7867 76.2667C92.744 75.7227 93.6694 75.6094 94.6934 76.2027C95.532 76.6894 96.4734 77.0027 97.368 77.3867C97.845 77.6916 98.3669 77.9197 98.9147 78.0627C104.121 80.3427 109.329 82.6245 114.54 84.908L114.547 84.9093ZM63.4907 73.5013C64.876 74.376 66.424 74.8734 67.9334 75.4707L71.0187 76.812C71.592 77.2374 72.1614 77.668 72.4987 78.324C72.62 79.812 72.0254 80.312 70.544 79.9747C70.0707 79.868 69.592 79.7867 69.1174 79.6947C66.46 78.816 63.7614 78.0587 61.1894 76.9374L58.912 75.644C57.788 74.5516 56.8073 73.3209 55.9934 71.9813C55.984 71.9693 55.9774 71.9573 55.9694 71.9454C55.3471 70.732 54.7271 69.5178 54.1094 68.3027C53.4654 67.1747 53.2094 65.8627 52.456 64.7867C51.6694 64.036 50.9467 64.0373 50.044 64.7933C49.6854 65.06 49.644 65.4467 49.644 65.844C49.6378 66.8867 49.6351 67.9293 49.636 68.972L49.708 91.3333V95.7547C49.7 97.4067 49.6734 99.06 49.688 100.713C49.7534 108.027 49.7627 115.344 50.0774 122.653V125.781C49.9899 125.873 49.9235 125.982 49.8828 126.102C49.842 126.222 49.8279 126.349 49.8414 126.475L49.3174 127.067C48.568 127.513 47.784 127.733 46.9174 127.427L45.984 126.88C45.2414 125.947 45.224 124.793 45.0627 123.691C44.7814 121.796 44.7307 119.873 44.3454 117.991C44.3267 117.699 44.3094 117.408 44.2907 117.116C44.332 116.783 44.3627 116.449 44.164 116.147C44.144 114.8 43.9414 113.48 43.744 112.147C43.756 111.689 43.7987 111.229 43.6107 110.796C43.5934 110.569 43.5774 110.343 43.5587 110.116C43.6091 109.742 43.5712 109.361 43.448 109.004L43.4267 108.948C43.412 108.787 43.396 108.621 43.3814 108.457C43.396 108.071 43.4387 107.677 43.236 107.316C43.2214 107.085 43.2054 106.853 43.1907 106.623C43.1067 105.573 43.0574 104.521 42.828 103.489C42.904 102.861 42.744 102.256 42.6467 101.645C42.6547 101.245 42.7 100.845 42.504 100.48C42.488 100.253 42.4734 100.027 42.456 99.8C42.48 99.424 42.4974 99.0453 42.34 98.688C42.34 98.6707 42.3267 98.6547 42.32 98.6387C42.3054 98.4107 42.288 98.1867 42.2734 97.96C42.3303 97.5845 42.2899 97.2007 42.156 96.8454C42.1494 96.8298 42.1419 96.8146 42.1334 96.8C41.9814 95.0373 41.8667 93.268 41.664 91.5133C41.512 90.2293 40.8814 89.852 39.5307 90.072C39.0067 90.2053 38.6694 90.5453 38.6134 91.0653C38.3467 93.5987 37.9174 96.1067 37.852 98.6547C37.6454 98.9533 37.6974 99.288 37.7187 99.6173C37.7027 99.852 37.688 100.085 37.6734 100.32C37.6642 100.334 37.6566 100.349 37.6507 100.364C37.5014 100.652 37.5334 100.965 37.536 101.276C37.5174 101.505 37.5014 101.735 37.4854 101.965C37.4734 102.024 37.4627 102.081 37.4534 102.14C37.452 102.152 37.452 102.165 37.4534 102.177C37.4534 102.203 37.444 102.231 37.44 102.257C37.436 102.284 37.428 102.331 37.4214 102.368C37.4214 102.379 37.4214 102.389 37.4214 102.4C37.4207 102.409 37.4207 102.419 37.4214 102.428C37.4214 102.437 37.4214 102.447 37.4214 102.456L37.4134 102.503V102.525C37.4134 102.539 37.4134 102.549 37.4134 102.563C37.388 102.723 37.3614 102.884 37.34 103.044C37.3214 103.164 37.3054 103.285 37.2894 103.405C37.2894 103.447 37.2814 103.487 37.2734 103.525C37.2748 103.531 37.2748 103.538 37.2734 103.544C37.26 103.652 37.2467 103.76 37.2347 103.868C37.2107 104.08 37.188 104.295 37.1654 104.508C37.156 104.604 37.148 104.699 37.1387 104.792C37.124 104.935 37.1107 105.075 37.0974 105.215C37.084 105.355 37.0694 105.523 37.0547 105.677C37.0553 105.69 37.0553 105.703 37.0547 105.716C37.0294 105.983 37.0054 106.259 36.98 106.531L36.972 106.609C36.9307 107.044 36.8854 107.479 36.8387 107.912C36.668 109.393 36.4947 110.876 36.3334 112.359C36.0667 114.804 35.8049 117.248 35.548 119.692C35.312 121.692 35.252 123.715 34.776 125.679C34.4094 127.2 33.464 127.751 31.9187 127.459C31.7094 127.417 31.4974 127.408 31.288 127.384C30.8438 126.915 30.483 126.374 30.2214 125.784C30.2094 125.764 30.2014 125.741 30.1894 125.72C30.1747 125.548 30.1587 125.377 30.144 125.205C30.144 124.349 30.144 123.492 30.144 122.635C30.16 121.681 30.1756 120.728 30.1907 119.776C30.2 119.728 30.2067 119.68 30.212 119.632C30.3947 118.491 30.3454 117.339 30.3307 116.188C30.3307 116.123 30.3307 116.055 30.3307 115.995C30.4747 113.147 30.6347 110.301 30.5507 107.448C30.5667 107.36 30.584 107.269 30.596 107.181C30.608 107.115 30.616 107.048 30.624 106.984C30.7574 106.005 30.716 105.016 30.7014 104.029L30.7574 100.98C30.9707 100.039 30.9067 99.0854 30.884 98.136L30.928 94.36C31.0019 94.0915 31.0272 93.812 31.0027 93.5347C31.1547 91.5107 31.0707 89.4813 31.0654 87.4534C31.0707 80.2605 31.0747 73.0662 31.0774 65.8707C31.0774 65.4293 30.944 65.0333 30.544 64.784C30.0227 64.14 29.356 64.1173 28.6507 64.376C27.9934 64.62 27.74 65.1453 27.7334 65.8227C27.7334 66.2507 27.6974 66.6773 27.6947 67.108C27.6645 74.3382 27.6356 81.5693 27.608 88.8013C27.608 89.716 27.62 90.6227 27.208 91.468L26.852 91.868C25.652 92.688 24.504 92.616 23.3947 91.7347C23.3787 91.724 23.3627 91.708 23.3454 91.696C22.9259 91.0915 22.7174 90.3656 22.752 89.6307C22.776 88.288 22.768 86.944 22.7734 85.5987C22.7867 85.1987 22.8014 84.808 22.816 84.4133C22.8254 84.385 22.833 84.356 22.8387 84.3267C23.016 83.66 22.972 82.9733 22.952 82.2933C22.9734 81.7022 22.9947 81.1125 23.016 80.524C23.2094 80.0813 23.1494 79.6187 23.1334 79.1573C23.1334 78.852 23.1334 78.5453 23.1334 78.24C23.6107 72.54 23.744 66.804 24.8414 61.164C25.496 58.988 26.4787 57.0173 28.3414 55.6013C29.9827 54.9733 31.6827 54.7613 33.4374 54.7747C38.1854 54.8067 42.936 54.8027 47.684 54.8133C48.824 54.92 49.9427 55.1107 51.004 55.5587C51.8125 56.0045 52.5467 56.5735 53.18 57.2453C53.3707 57.5 53.5614 57.7533 53.7507 58.008C53.9276 58.4768 54.1754 58.9157 54.4854 59.3093C55.332 61.7499 56.3185 64.1396 57.44 66.4667C58.0436 68.1121 58.9754 69.6177 60.1787 70.892C60.3472 71.2047 60.6047 71.4604 60.9187 71.6267C61.6763 72.378 62.5435 73.0101 63.4907 73.5013ZM19.8067 85.804C19.8073 85.8075 19.8073 85.8112 19.8067 85.8147H19.8C19.8028 85.8115 19.805 85.8079 19.8067 85.804Z" fill="#3A3A3A"/>
<path d="M139.743 56.892C138.676 56.9027 137.599 56.892 136.525 56.892C135.423 56.892 134.32 56.892 133.217 56.892C132.749 56.892 132.307 56.9747 132.295 57.532C132.283 58.0893 132.632 58.3547 133.184 58.3547H139.803C140.336 58.3547 140.717 58.1013 140.721 57.5547C140.727 56.9333 140.24 56.888 139.743 56.892Z" fill="#3A3A3A"/>
<path d="M124.335 60.8147C124.335 61.3027 124.384 61.7787 125.087 61.6533C125.487 61.5413 125.649 61.2947 125.639 60.868C125.612 59.7867 125.621 58.7053 125.616 57.6253V55.9707C125.457 55.5973 125.239 55.2053 124.781 55.3253C124.324 55.4453 124.319 55.904 124.32 56.316C124.332 57.816 124.327 59.3147 124.335 60.8147Z" fill="#3A3A3A"/>
<path d="M119.765 64.2053C120.257 64.5546 120.796 64.832 121.365 65.0293C121.661 65.128 121.952 65.268 122.181 64.936C122.383 64.6453 122.481 64.3413 122.149 64.0627C121.892 63.7853 121.544 63.6747 121.207 63.544C120.959 63.3706 120.702 63.21 120.437 63.0627C120.075 62.8827 119.752 62.8933 119.504 63.2987C119.256 63.704 119.425 63.972 119.765 64.2053Z" fill="#3A3A3A"/>
<path d="M130.239 63.84C129.865 64.0933 129.511 64.3733 129.148 64.64C128.899 64.7496 128.688 64.9305 128.541 65.16C128.475 65.9293 128.675 66.104 129.301 65.8707C129.928 65.6373 130.355 65.156 130.901 64.82C130.975 64.779 131.04 64.723 131.092 64.6556C131.143 64.5881 131.18 64.5108 131.2 64.4284C131.219 64.346 131.222 64.2604 131.207 64.177C131.192 64.0936 131.159 64.0142 131.112 63.944C130.884 63.5787 130.544 63.6347 130.239 63.84Z" fill="#3A3A3A"/>
<path d="M126.18 50.4746C127.151 51.0506 127.743 50.9813 127.988 50.1826C129.069 46.6573 130.121 43.116 131.176 39.588C131.491 39.1186 131.523 38.552 131.687 38.032C131.82 37.6226 131.855 37.1133 131.356 36.9106C130.913 36.7306 130.397 36.628 130.067 37.1773C129.249 39.092 128.664 41.0853 128.059 43.072C127.344 44.9226 126.717 46.8053 126.164 48.708C125.939 49.3013 125.531 49.8933 126.18 50.4746Z" fill="#3A3A3A"/>
<path d="M28.4533 40.7467C28.464 41.8587 28.868 42.856 29.364 43.8253C29.7333 44.5387 30.0773 45.268 30.6507 45.852C31.184 46.688 31.9 47.3253 32.7147 47.868C34.336 49.116 36.1293 49.9413 38.196 50.092C38.9373 50.3667 39.7027 50.2573 40.4627 50.2347C40.8747 50.272 41.2867 50.3027 41.6707 50.0933C42.984 50.0747 44.136 49.5307 45.288 48.9813C45.4293 48.8067 45.7613 48.9187 45.8307 48.632C46.3947 48.6093 46.7573 48.24 47.124 47.876C47.8733 47.356 48.612 46.824 49.0973 46.0227C50.9467 43.912 51.7573 41.4373 51.6813 38.652C51.7027 38.188 51.7827 37.7187 51.548 37.28L51.3187 35.8933C51.2133 35.3147 51.0773 34.7453 50.7653 34.2347C50.4893 33.4107 50.0187 32.7 49.4813 32.0293C49.0053 31.2947 48.4467 30.6373 47.696 30.1627C47.3195 29.6975 46.7955 29.3748 46.2107 29.248C46.1093 28.9013 45.7827 28.836 45.5187 28.7013C42.78 27.3093 39.9187 27.1013 36.96 27.812C35.4707 28.1053 34.132 28.7453 32.8893 29.5973C32.52 29.8947 32.0893 30.1187 31.8387 30.552C31.692 30.7947 31.2827 30.7453 31.2333 31.0973C30.8653 31.4813 30.412 31.8053 30.3267 32.388C30.3097 32.4414 30.3061 32.4982 30.316 32.5533C30 32.512 29.916 32.764 29.7987 32.9667C29.3027 33.8293 28.8653 34.7187 28.6907 35.7093C28.4573 36.092 28.4507 36.5187 28.46 36.9467C28.268 37.248 28.292 37.58 28.3267 37.9133L28.3147 39.388C28.3 39.848 28.2107 40.3147 28.4533 40.7467ZM34.0093 32.9067C34.4315 32.6785 34.8156 32.3861 35.148 32.04C38.2347 30.3987 41.3533 30.1573 44.5133 31.8307C44.64 31.92 44.86 31.8147 44.9267 32.0293L45.98 32.9627C45.9786 32.9857 45.9822 33.0088 45.9904 33.0304C45.9987 33.052 46.0114 33.0716 46.0278 33.0878C46.0442 33.1041 46.0639 33.1167 46.0855 33.1248C46.1072 33.1329 46.1303 33.1362 46.1533 33.1347C46.4627 33.5124 46.7711 33.8902 47.0787 34.268C47.94 35.816 48.476 37.452 48.3747 39.2413C48.288 40.824 47.6987 42.244 46.896 43.5867C46.3415 44.2649 45.7295 44.8939 45.0667 45.4667C43.7 46.3267 42.28 47.0173 40.624 47.1413C38.256 47.3187 36.2147 46.5373 34.3653 45.1293C33.536 44.196 32.7253 43.2507 32.196 42.104C31.4587 39.8373 31.3813 37.588 32.3533 35.36L32.9333 34.28C33.2889 33.8213 33.6476 33.3636 34.0093 32.9067Z" fill="#3A3A3A"/>
<path d="M131.348 50.2493C130.99 50.4293 130.67 50.6769 130.405 50.9786C129.872 51.2533 129.413 51.6453 129.784 52.2666C130.155 52.888 130.792 52.7386 131.332 52.4386C131.673 52.2493 131.963 51.9653 132.275 51.724C132.288 51.724 132.3 51.7133 132.312 51.696L133.016 51.1813C133.446 50.9459 133.834 50.6404 134.164 50.2773C134.629 49.964 135.171 49.736 135.427 49.184C135.852 49.184 136.117 48.9093 136.36 48.6146C136.952 48.3167 137.457 47.8712 137.827 47.3213C137.882 47.3229 137.936 47.3105 137.985 47.2853C138.569 46.9973 138.944 46.5773 138.519 45.9453C138.119 45.348 137.529 45.524 137.007 45.812C136.752 45.9453 136.544 46.1733 136.315 46.3586L134.669 47.692C134.656 47.692 134.644 47.704 134.632 47.7213L133.743 48.4253L132.801 49.148L132.268 49.556L131.335 50.2573L131.348 50.2493Z" fill="#3A3A3A"/>
<path d="M79.94 56.3347C81.1866 59.332 83.0213 61.892 85.5906 63.9067C85.9213 64.4067 86.4173 64.7067 86.924 64.9907C87.5186 65.3907 88.08 65.848 88.7693 66.0933C92.8053 68.3253 97.1 69.1493 101.672 68.4613C104.508 68.1227 107.224 67.1205 109.6 65.536C109.901 65.4213 110.187 65.2867 110.383 65.0173C110.837 64.8377 111.221 64.5147 111.476 64.0973C112.696 63.4307 113.551 62.38 114.401 61.324C114.913 60.8378 115.346 60.274 115.683 59.6533C115.732 59.6177 115.777 59.5761 115.816 59.5293C118.463 55.504 119.572 51.0827 119.223 46.2853C118.915 42.0507 117.448 38.2733 114.763 34.9733C114.437 34.5107 114.116 34.04 113.651 33.7053C113.117 32.94 112.388 32.372 111.651 31.8307C111.402 31.52 111.082 31.2744 110.717 31.1147C108.369 29.4064 105.653 28.2742 102.787 27.8093C99.8253 27.208 96.8773 27.336 93.9426 27.996C91.2687 28.5248 88.7449 29.6385 86.552 31.2573L85.8133 31.8053C85.2293 32.2733 84.632 32.7267 84.1466 33.304C84.0853 33.3667 84.0266 33.4293 83.968 33.4907C82.9706 34.476 82.0133 35.4907 81.3853 36.7693C81.0493 37.0907 80.8586 37.5 80.6906 37.924C79 40.8747 78.2 44.08 78.1413 47.4507C78.0946 50.1853 78.4386 52.8813 79.58 55.4173C79.6318 55.7457 79.7547 56.0587 79.94 56.3347ZM107.715 62.944L106.4 63.676C105.333 64.0467 104.316 64.536 103.216 64.8187C100.651 65.4733 98.0666 65.4853 95.4626 65.1573C95.4352 65.1548 95.4079 65.1499 95.3813 65.1427C95.3779 65.1439 95.3741 65.1439 95.3706 65.1427C95.2667 65.1016 95.1557 65.0813 95.044 65.0827C94.0616 64.8662 93.096 64.5797 92.1546 64.2253L88.9546 62.608L88.604 62.5933C88.604 62.1653 88.2706 61.9613 87.9866 61.7467C87.1053 61.08 86.3506 60.28 85.6093 59.4693C85.1178 58.7947 84.6249 58.12 84.1306 57.4453C83.6089 56.3787 83.0871 55.3089 82.5653 54.236C82.5531 54.1907 82.5323 54.1481 82.504 54.1107C82.4437 54.0452 82.395 53.9699 82.36 53.888C81.8 51.488 81.4146 49.0613 81.5453 46.5813C81.7775 43.811 82.6155 41.1255 84 38.7147C84.92 37.5298 85.8395 36.3436 86.7586 35.156C86.8172 35.16 86.8755 35.1456 86.9253 35.1147L88.2386 34.048C88.464 33.9147 88.7213 33.816 88.772 33.5147C89.2066 33.4547 89.5386 33.18 89.904 32.9813C92.3453 31.6186 95.073 30.8495 97.8666 30.736C101.881 30.5493 105.556 31.5547 108.857 33.8653C110.135 34.8514 111.307 35.9686 112.352 37.1987C112.772 37.8133 113.192 38.424 113.613 39.036C113.62 39.0453 113.625 39.056 113.633 39.0653C114.775 41.3227 115.667 43.6587 115.9 46.2053C115.856 46.5871 115.894 46.9738 116.011 47.34L116.039 47.4133C115.944 47.7662 115.944 48.1378 116.039 48.4907C115.843 48.9387 115.905 49.412 115.905 49.8813L115.301 53.1667L113.668 56.8867C113.167 57.6111 112.666 58.3356 112.165 59.06L109.968 61.3067C109.219 61.856 108.465 62.4 107.715 62.944ZM110.624 31.1333L110.701 31.116C110.677 31.1258 110.65 31.1316 110.624 31.1333Z" fill="#F7931B"/>
<path d="M106.292 49.1227C105.875 48.4347 105.32 47.9227 104.479 47.7893C104.691 47.4213 105.18 47.3973 105.199 46.9573C105.315 46.8773 105.428 46.796 105.543 46.7147C107.175 44.8907 107.093 41.8853 105.364 40.1307C105.179 39.8124 104.899 39.5595 104.564 39.4067C103.931 39.0733 102.98 38.924 102.711 38.4093C102.403 37.8227 102.696 36.9227 102.725 36.1573C102.756 35.312 102.359 34.7413 101.555 34.5067C100.711 34.26 100.068 34.5627 99.6613 35.3453C99.324 35.776 99.4653 36.2787 99.46 36.7533C99.4413 38.4107 99.452 38.4107 97.852 38.444C97.828 38.0867 97.804 37.7307 97.78 37.3773C97.788 36.8893 97.828 36.4 97.7947 35.9107C97.7333 34.9773 97.144 34.4213 96.2747 34.424C95.376 34.424 94.7067 35.0347 94.656 35.9413C94.6227 36.5813 94.6413 37.2227 94.656 37.8653C94.656 38.1467 94.6987 38.4293 94.3027 38.468C93.4613 38.3657 92.6107 38.3657 91.7693 38.468C90.9533 38.5653 90.416 39.0893 90.296 39.856C90.1733 40.6453 90.4507 41.3467 91.3267 41.6307C91.9827 41.9347 92.684 41.728 93.3587 41.804C93.3747 41.864 93.392 41.924 93.408 41.984C93.408 42.5956 93.408 43.2071 93.408 43.8187V51.1867C93.396 51.952 93.324 52.72 93.3907 53.4787C93.468 54.3787 93.2573 54.856 92.2347 54.688C91.8 54.616 91.3213 54.64 90.9747 55.024C90.308 55.5173 90.0787 56.1413 90.392 56.9347C90.7053 57.728 91.2973 57.984 92.116 58.0173C92.9747 58.0493 93.8587 57.7747 94.6907 58.1907C94.6747 58.7373 94.6187 59.2853 94.6507 59.8293C94.7053 60.7627 95.3587 61.344 96.264 61.3173C96.6646 61.3179 97.0497 61.163 97.3382 60.8852C97.6268 60.6073 97.7962 60.2283 97.8107 59.828C97.84 59.2813 97.796 58.7347 97.7853 58.1867C97.944 57.772 98.2947 58 98.564 57.9533C99.2773 57.832 99.6053 58.0573 99.4973 58.8507C99.4413 59.2413 99.3533 59.6907 99.6427 60.064C99.7067 60.6373 100.096 60.9187 100.576 61.1133L100.648 61.1573L100.731 61.148C101.057 61.364 101.384 61.384 101.712 61.148C102.203 60.9667 102.559 60.6653 102.627 60.1093C102.893 59.328 102.805 58.544 102.627 57.7627C102.684 57.3747 102.993 57.3627 103.293 57.268C104.403 56.916 105.427 56.416 106.129 55.4333C107.196 54.2333 107.493 52.8067 107.289 51.2747C107.168 50.4733 107.111 49.6093 106.292 49.1227ZM99.0227 41.64H99.0733C99.6067 41.6853 100.127 41.7333 100.655 41.7733C102.559 41.9227 103.337 43.0613 102.761 44.8733C102.761 44.8733 102.755 44.8813 102.751 44.888C102.068 45.8773 101.075 46.2 99.924 46.1933C99.068 46.1933 98.212 46.1733 97.3587 46.208C96.844 46.2293 96.6787 46.0747 96.692 45.5413C96.728 44.292 96.692 43.04 96.692 41.7907C96.732 41.776 96.772 41.7627 96.8133 41.752C97.5413 41.548 98.2973 41.82 99.0227 41.64ZM101.971 54.216C100.504 54.7493 98.9613 54.6773 97.4373 54.6907C96.8893 54.6907 96.6867 54.5573 96.704 53.9707C96.744 52.44 96.7187 50.904 96.7187 49.3733L98.7187 49.3107C100.164 49.4 101.652 49.208 102.969 50.0613C104.053 51.432 104.047 52.42 102.94 53.748C102.761 53.8587 102.511 53.8733 102.431 54.12C102.419 54.1273 102.408 54.137 102.4 54.1485C102.392 54.1599 102.386 54.1729 102.384 54.1867C102.381 54.2004 102.381 54.2146 102.383 54.2284C102.386 54.2421 102.392 54.2552 102.4 54.2667C102.257 54.2427 102.148 54.1533 101.971 54.216Z" fill="#F7931B"/>
</svg>
