<svg width="160" height="160" viewBox="0 0 160 160" fill="none" xmlns="http://www.w3.org/2000/svg">
<path d="M140.943 95.1707C140.931 95.1535 140.915 95.1389 140.897 95.1281C140.54 94.7983 140.111 94.5559 139.644 94.4201C139.456 94.3045 139.268 94.1898 139.079 94.076L137.965 93.4841L137.395 93.1547C136.799 92.7894 136.211 92.4081 135.547 92.1721L134.968 91.8347L133.143 90.8574C132.436 90.3374 131.643 89.9721 130.857 89.5947C129.704 88.9201 128.569 88.2107 127.332 87.6907C126.632 87.1654 125.843 86.8001 125.065 86.4134C124.434 85.9931 123.747 85.6633 123.024 85.4334C122.773 84.9987 122.305 84.9001 121.897 84.7094L120.949 84.1841L120.083 83.7334C120.049 83.4337 120.034 83.1323 120.037 82.8307C120.239 79.5987 120.099 76.3627 120.131 73.1294C120.131 72.7147 120.12 72.3294 119.795 72.0147C119.676 71.6254 119.341 71.4587 119.023 71.2841C116.941 70.1409 114.859 69.0018 112.776 67.8667C112.311 67.4814 111.767 67.2374 111.223 66.9907C110.823 66.7321 110.429 66.4334 109.928 66.3761C108.772 65.6841 107.624 64.9801 106.461 64.3067C105.967 64.0214 105.52 63.6121 104.901 63.5907C104.309 63.0094 103.484 62.7907 102.845 62.2841C102.851 54.6396 102.854 46.9952 102.856 39.3507C102.856 38.8974 102.96 38.4174 102.589 38.0294C102.456 37.6174 102.128 37.3827 101.789 37.1734C100.64 36.4601 99.4799 35.7627 98.3225 35.0614C96.6185 33.9787 94.6972 33.3334 92.9239 32.4001C92.2089 31.9083 91.4501 31.4833 90.6572 31.1307L89.5425 30.5414L86.9172 29.0827C86.1385 28.6374 85.3812 28.1494 84.5039 27.9001C84.508 27.9048 84.5124 27.9093 84.5172 27.9134C83.8279 27.2467 82.9585 26.9187 82.0839 26.5987C80.8225 25.4294 79.9626 25.2907 78.5359 26.0467C77.8359 26.4174 77.1506 26.8147 76.4585 27.1987C75.4492 27.7321 74.3959 28.1961 73.4572 28.8601L71.2279 30.0094C70.4786 30.4441 69.6585 30.7587 68.9879 31.3241L68.4119 31.6614L65.6159 33.1867C65.3999 33.2654 65.1679 33.3134 65.0266 33.5214L62.8159 34.6774C62.3412 34.8587 61.8732 35.0534 61.4825 35.3841C60.4052 35.7241 59.4906 36.3734 58.5212 36.9201C58.3323 36.9762 58.1563 37.0693 58.0034 37.1937C57.8506 37.3182 57.7238 37.4717 57.6306 37.6454C57.4972 37.8014 57.3266 37.9374 57.3852 38.1787C57.0879 38.4614 57.2172 38.8254 57.2172 39.1507C57.2092 46.3654 57.1866 53.5801 57.2412 60.7934C57.2492 61.9534 57.1079 62.8334 55.8946 63.2227L54.7839 63.8121C54.4318 63.9182 54.1073 64.1003 53.8332 64.3454L52.3532 65.1267C51.2919 65.6858 50.2301 66.2441 49.1679 66.8014L47.8706 67.5521C46.9559 67.9841 46.0439 68.4201 45.2132 69.0014L42.6132 70.3507C42.6074 70.3514 42.6018 70.3533 42.5967 70.3563C42.5917 70.3593 42.5873 70.3633 42.5839 70.3681L40.7386 71.4441C40.0026 71.8441 39.7986 72.5307 39.8052 73.3041C39.8572 76.2974 39.9279 79.2907 39.9666 82.2854C39.9732 82.7894 40.1665 83.3294 39.8105 83.8041C38.2772 84.6601 36.5919 85.2187 35.1226 86.2041L34.0132 86.7961L31.7546 88.0694L29.9052 89.0321C29.6775 89.0779 29.4707 89.1962 29.3159 89.3694C28.7732 89.5294 28.3199 89.8574 27.8492 90.1454L25.2386 91.6481L22.9879 92.9334L22.2452 93.3334C21.4497 93.6742 20.6936 94.1007 19.9906 94.6054C19.0492 94.9787 18.6652 95.6441 18.6692 96.68C18.6999 104.475 18.6892 112.268 18.6986 120.063C18.6986 120.359 18.5919 120.691 18.8759 120.935C19.0732 122.337 20.3546 122.469 21.2986 122.999C22.3616 123.707 23.4757 124.336 24.6319 124.88C25.1036 125.239 25.6188 125.537 26.1652 125.767L27.8452 126.7L28.5826 127.109C28.7732 127.221 28.9639 127.336 29.1546 127.449C30.0746 127.968 30.9346 128.595 31.9239 128.987C32.8212 129.619 33.7906 130.116 34.7639 130.623L35.8572 131.223L37.3772 132.115L38.4732 132.717L39.6186 133.424C40.0319 133.691 40.4292 133.973 40.8599 134.203C41.6719 134.633 42.3852 134.435 42.9932 133.653C43.0507 133.655 43.1079 133.643 43.1599 133.619C44.8479 132.804 46.4412 131.825 48.0145 130.819C48.3972 130.763 48.6812 130.525 48.9639 130.285L49.7012 129.885C50.5172 129.425 51.3532 128.996 52.1439 128.495C52.7652 128.101 53.5439 127.952 54.0172 127.324C54.7705 127.149 55.4052 126.733 56.0506 126.336C56.7079 126.017 57.3839 125.723 57.9532 125.259C58.4758 125.072 58.9678 124.808 59.4132 124.477C59.6185 124.383 59.8666 124.36 59.9999 124.137L61.4665 123.353L62.4079 122.82C62.6599 122.788 62.8639 122.553 63.1439 122.64C63.7225 123.092 64.3772 123.412 65.0292 123.735L68.7399 125.817C69.0065 126.092 69.3532 126.217 69.7039 126.337L71.1879 127.117L72.8799 128.019C73.7212 128.509 74.5586 129.007 75.4706 129.363C75.6186 129.556 75.8372 129.629 76.0572 129.695L77.3586 130.447C77.7839 130.673 78.2132 130.892 78.6305 131.129C79.6052 131.684 80.5505 131.691 81.4679 131.008L82.7879 130.289L84.2665 129.512C84.4959 129.449 84.7239 129.388 84.8732 129.18C85.5772 128.683 86.5359 128.621 87.0959 127.881C88.5625 127.393 89.8386 126.513 91.1786 125.771C91.8452 125.46 92.4972 125.147 93.0745 124.693L94.1692 124.103L94.7452 123.759L95.8479 123.161C96.7812 122.361 97.6332 122.849 98.4772 123.352C99.0692 123.713 99.6479 124.1 100.312 124.327C101.573 125.16 102.928 125.832 104.268 126.529C105.036 127.04 105.845 127.486 106.687 127.863C107.787 128.513 108.863 129.208 110.032 129.736C110.225 129.869 110.416 129.993 110.608 130.121L112.648 131.231L113.803 131.923L114.933 132.533C115.275 132.83 115.667 133.065 116.089 133.228L117.577 134.176C118.556 134.615 119.617 134.232 120.595 133.087C121.198 132.867 121.763 132.552 122.267 132.153L122.993 131.745C123.217 131.701 123.417 131.579 123.56 131.401L124.301 131.001C124.847 130.769 125.362 130.469 125.833 130.109C126.429 129.789 127.059 129.517 127.613 129.137C128.667 128.416 129.901 127.992 130.867 127.137C132.433 126.636 133.717 125.605 135.152 124.856L136.092 124.312L136.829 123.912C137.378 123.687 137.894 123.387 138.361 123.021L140.569 122.043C140.928 121.773 141.18 121.385 141.28 120.947C141.3 120.856 141.314 120.765 141.32 120.672C141.32 112.572 141.323 104.472 141.328 96.372C141.333 95.9174 141.256 95.5067 140.943 95.1707ZM121.144 88.2147L122.992 89.2001L123.573 89.5281L125.789 90.6961L125.84 90.7321C126.47 91.1579 127.14 91.5218 127.84 91.8187C129.237 92.6961 130.699 93.4534 132.169 94.2014C133.119 94.7907 134.073 95.3747 135.019 95.972C135.312 96.1547 135.752 96.3427 135.161 96.7081L133.641 97.5894C133.228 97.7014 132.884 97.9414 132.541 98.1854C131.747 98.5403 130.985 98.9642 130.265 99.4521L128.052 100.611C127.492 100.925 126.933 101.241 126.376 101.557C126.187 101.669 126 101.781 125.811 101.896C125.563 102.029 125.312 102.163 125.064 102.296C124.02 102.834 123.017 103.448 122.064 104.133L121.333 104.533L119.467 105.672C119.165 105.787 118.872 105.909 118.653 106.159C117.907 106.025 117.447 105.291 116.669 105.225L116.679 105.239C115.945 104.495 115.02 104.081 114.055 103.737C113.453 103.045 112.629 102.737 111.807 102.425C110.919 101.675 109.88 101.195 108.82 100.748C108.687 100.412 108.372 100.32 108.069 100.215L107.484 99.8667L106.388 99.2654C105.935 98.8774 105.4 98.6227 104.868 98.3667C103.979 97.7827 103.079 97.216 102.084 96.8214C102.042 96.725 101.98 96.6392 101.901 96.57C101.822 96.5008 101.729 96.45 101.628 96.4214C100.811 96.112 101.351 95.9107 101.688 95.696L103.955 94.424C104.888 94.024 105.791 93.5867 106.58 92.9374L106.569 92.9481C107.552 92.7187 108.319 92.0734 109.171 91.5854C109.715 91.3565 110.226 91.056 110.691 90.6921L112.723 89.5414L113.292 89.1881L114.029 88.7881L114.605 88.4494L117.209 86.9254C117.707 86.6201 118.153 86.5854 118.697 86.9254C119.467 87.4201 120.323 87.7881 121.144 88.2107V88.2147ZM99.0786 41.5747C99.1184 41.5865 99.1573 41.6016 99.1945 41.6201C99.3279 41.7081 99.2626 41.8867 99.2665 42.0201C99.2759 42.7641 99.2759 43.5094 99.2759 44.2561V60.1401C98.3426 59.8734 97.6545 59.2574 96.8292 58.9334C96.8199 58.9185 96.8074 58.9059 96.7927 58.8965C96.7779 58.887 96.7613 58.881 96.7439 58.8787C95.6572 58.2121 94.8199 58.1761 94.2639 58.7841C93.7079 59.3921 93.7305 60.2281 94.3892 61.1841C94.5012 61.3174 94.5666 61.5081 94.7785 61.5374C95.2105 61.9397 95.7096 62.2633 96.2532 62.4934L97.5212 63.3494C97.4919 63.6267 97.1212 63.5614 97.0065 63.7894L95.8959 64.3747C95.3372 64.6854 94.7759 64.9934 94.2159 65.3081C93.2825 65.8103 92.3492 66.3147 91.4159 66.8214L88.3999 68.4507L86.9332 69.2307C86.0372 69.6934 85.1012 70.0801 84.2839 70.6854C83.6852 70.9921 83.0745 71.2747 82.4919 71.6094C82.0585 71.8601 81.8786 71.8547 81.8439 71.2787C81.7532 69.8814 81.8719 68.4907 81.8759 67.0974C81.8919 62.3454 81.8972 57.5947 81.8666 52.8427C81.8666 52.1361 81.9879 51.5881 82.6199 51.2254L83.7545 50.5294L85.2412 49.7441C85.5772 49.5974 85.9479 49.5147 86.2119 49.232C87.0332 48.9214 87.6866 48.3361 88.4199 47.8854C89.9177 46.9645 91.4221 46.0427 92.9332 45.1201C93.6559 44.7494 94.4292 44.4694 94.9812 43.8294C95.8399 43.6561 96.4812 43.0747 97.2105 42.6561C97.8799 42.3831 98.5085 42.0193 99.0786 41.5747ZM90.1065 34.8094C90.4732 35.0081 90.8385 35.2094 91.2052 35.4054L92.7265 36.2827C93.2186 36.5494 93.7119 36.8161 94.2039 37.0827C94.6021 37.3944 95.0496 37.6374 95.5279 37.8014C96.0612 38.1001 96.5626 38.4747 97.1852 38.5827C97.1119 39.2494 96.3172 39.0467 96.0652 39.4987C95.8212 39.6321 95.5786 39.7587 95.3359 39.8907L93.6585 40.8481C93.4343 40.8892 93.232 41.0087 93.0879 41.1854L91.9786 41.7921L90.4505 42.6667C89.7505 43.0081 89.0399 43.3334 88.4185 43.8147L85.7985 45.3174L84.8745 45.8867C84.6865 46.0001 84.4959 46.1134 84.3052 46.2254L80.9465 47.9454L80.3572 48.2747H79.6652L78.6932 47.7534L76.0852 46.4201C76.0719 46.4067 76.0559 46.3961 76.0412 46.3827C75.6641 46.079 75.2404 45.8381 74.7866 45.6694C74.4052 45.4347 74.0248 45.1992 73.6452 44.9627C72.5173 44.19 71.3421 43.4886 70.1266 42.8627C69.6719 42.4721 69.1332 42.2241 68.5985 41.9707C67.7465 41.4854 66.9586 40.8774 65.9932 40.6081C65.0252 39.8454 63.9346 39.2854 62.8266 38.7561C62.8266 38.6414 62.8332 38.5254 62.8399 38.4067C63.0652 38.4494 63.1999 38.2814 63.3625 38.1774C63.7066 38.0441 64.0586 37.9307 64.3226 37.6534C65.5466 36.9387 66.9546 36.5654 68.0559 35.6147C69.0559 35.3134 69.9359 34.7601 70.8385 34.2587C71.192 34.1548 71.5174 33.9725 71.7906 33.7254C73.2879 33.1027 74.6252 32.1734 76.0746 31.4587C76.3017 31.4121 76.5055 31.2876 76.6506 31.1067L77.7559 30.5201L79.4706 29.6227C80.2706 29.3441 80.8332 29.9534 81.5012 30.1681L82.0639 30.5161L82.9972 31.0774L86.5506 32.9334C87.2892 33.3334 87.9826 33.8254 88.7866 34.0987C89.1861 34.404 89.6317 34.6439 90.1065 34.8094ZM74.3905 69.8014C73.9772 69.5587 73.6025 69.2347 73.0985 69.1787C72.1759 68.4987 71.1559 67.9947 70.1225 67.5134C69.2985 66.9241 68.3892 66.4867 67.4759 66.0614C66.5812 65.5347 65.7012 64.9814 64.6879 64.6961C64.1545 63.9974 63.2026 63.9734 62.5759 63.4214C62.7572 62.9721 63.3012 63.0067 63.5705 62.6747C63.9585 62.6214 64.2945 62.4827 64.5039 62.1307C66.4185 61.4641 66.8132 60.5827 65.9266 58.9414C65.1266 58.1307 64.3265 58.3801 63.5105 58.9134C62.7679 59.0961 62.1599 59.5521 61.4999 59.9054C61.2239 59.8627 61.0519 60.3974 60.7172 60.0481C60.7279 58.0267 60.7412 56.0027 60.7466 53.9814C60.7572 49.8436 60.7652 45.7063 60.7705 41.5694C60.8213 41.5674 60.872 41.5751 60.9199 41.5921C62.3412 42.4121 63.7199 43.316 65.2119 43.9987C65.6766 44.3638 66.1888 44.6639 66.7346 44.8907L69.5345 46.5627C70.1506 46.9534 70.7679 47.3414 71.3825 47.732C72.4145 48.5667 73.5892 49.1587 74.7706 49.7414L76.2665 50.5334C76.7679 50.8374 77.2705 51.1374 77.7719 51.4414C78.2772 51.6641 78.3425 52.0694 78.3412 52.5761C78.3243 58.2214 78.3203 63.8681 78.3292 69.5161C78.3292 70.2467 78.3385 70.9827 78.0399 71.7107L76.2972 70.8787C75.7119 70.4187 75.0425 70.1334 74.3905 69.8014ZM82.0772 26.6014C81.8532 26.4963 81.6355 26.3783 81.4252 26.2481C81.6543 26.3478 81.8743 26.4673 82.0826 26.6054L82.0772 26.6014ZM25.9719 95.1467C26.1906 95.0694 26.4226 95.0134 26.5639 94.8067C27.3546 94.4587 28.1559 94.1307 28.7906 93.5121C29.6652 93.2627 30.4412 92.8107 31.1999 92.3281C31.3932 92.2174 31.5852 92.1067 31.7786 91.9987L33.2599 91.2187L33.8466 90.8827C34.6746 90.6001 35.3479 90.0467 36.0759 89.5907C36.5746 89.5267 36.9652 89.2387 37.3692 88.9747C37.7247 88.879 38.0518 88.6988 38.3226 88.4494C39.0009 88.1871 39.6316 87.815 40.1892 87.3481C40.6879 87.2787 41.0905 87.0134 41.4812 86.7241C42.2719 86.5681 42.6906 87.3387 43.3639 87.4827C43.7066 87.7241 44.0466 87.9667 44.4572 88.0814C44.9201 88.4492 45.4345 88.747 45.9839 88.9654L47.0826 89.5721L47.6652 89.9081C47.9092 90.0414 48.1532 90.1747 48.3972 90.3161L50.6546 91.5854L54.1892 93.4934C54.3812 93.6067 54.5746 93.7187 54.7666 93.8334L58.2879 95.7334C58.5546 96.0001 58.8332 96.2187 58.2479 96.4761C57.8079 96.6694 57.4226 96.9787 57.0132 97.2374L55.8666 97.9534C55.1499 98.2614 54.4687 98.6459 53.8346 99.1001C53.7178 99.1153 53.6052 99.1535 53.5034 99.2126C53.4015 99.2716 53.3124 99.3503 53.2412 99.4441C52.5026 99.8307 51.7648 100.217 51.0279 100.603C51.0191 100.609 51.0098 100.614 50.9999 100.619L48.9706 101.74C47.2706 102.596 45.6799 103.632 44.1092 104.705C44.1026 104.706 44.0962 104.708 44.0906 104.712C44.085 104.716 44.0804 104.721 44.0772 104.727L42.6186 105.641L42.0479 106C41.8706 106.027 41.7279 106.237 41.5145 106.105C40.7572 105.536 39.9145 105.108 39.0772 104.688C37.9359 103.973 36.8106 103.233 35.5186 102.801L35.5292 102.812C34.6986 102.083 33.6879 101.655 32.7292 101.133L31.1999 100.248L27.4666 98.1721C26.6319 97.7827 25.9346 97.1467 25.0572 96.8387C24.8066 96.5201 24.3279 96.4947 24.1239 96.1121L25.9719 95.1467ZM38.3065 128.647C37.9306 128.341 37.4902 128.125 37.0186 128.015C35.9389 127.163 34.7427 126.47 33.4666 125.957C33.3867 125.817 33.2766 125.696 33.1442 125.604C33.0118 125.512 32.8604 125.45 32.7012 125.424L32.1412 125.08C31.4266 124.752 30.8546 124.175 30.0946 123.925C29.6506 123.525 29.1212 123.279 28.5879 123.032C27.7519 122.52 26.9586 121.927 25.9919 121.661C25.8586 121.321 25.5439 121.225 25.2346 121.128L22.7866 119.689C22.3052 119.453 22.2252 119.059 22.2252 118.552C22.2252 114.741 22.2066 110.931 22.1932 107.12C22.1252 105.779 22.2519 104.435 22.0959 103.097C22.0959 103.041 22.0852 102.985 22.0772 102.929V99.2734L22.1052 99.2587L22.7959 99.6254C23.0466 99.7481 23.2959 99.8721 23.5492 99.9947C24.1639 100.319 24.7812 100.643 25.3959 100.964L25.9799 101.3L28.0306 102.429L29.4879 103.217L30.6532 103.919L31.3839 104.319C31.7147 104.626 32.1024 104.866 32.5252 105.025L33.2426 105.444C33.4386 105.711 33.7359 105.825 34.0199 105.96L34.7479 106.373C35.0679 106.707 35.4785 106.892 35.8906 107.075C36.5074 107.4 37.1243 107.727 37.7412 108.055L39.6306 109.132C40.0959 109.375 39.9666 109.816 39.9666 110.199C39.9719 115.193 39.975 120.187 39.9759 125.18C39.6879 125.429 39.8226 125.761 39.8172 126.057C39.7972 126.991 39.8079 127.924 39.8065 128.857C39.8065 129.095 39.8786 129.391 39.4639 129.328C39.1346 129.009 38.7212 128.825 38.3065 128.647ZM58.5025 116.307C58.3199 116.195 58.1439 116.071 57.9546 115.973C56.9506 115.471 56.1306 115.592 55.5546 116.32C54.9266 117.112 55.0026 117.653 55.8932 118.687C56.6559 119.369 57.5532 119.819 58.4879 120.205L59.0679 120.577C58.9279 120.911 58.5439 120.936 58.3252 121.171L57.0186 121.893L54.0226 123.575C54.0138 123.581 54.0044 123.586 53.9945 123.589C53.1314 124.078 52.2701 124.567 51.4105 125.056L49.1439 126.345C48.4479 126.695 47.7225 126.993 47.1066 127.488L44.8399 128.772C44.5972 128.905 44.3545 129.047 44.1105 129.184C43.8359 129.171 43.6599 129.636 43.3292 129.343C43.3408 125.172 43.3514 121.003 43.3612 116.835C43.3706 114.223 43.3919 111.611 43.4065 108.997C44.1985 108.547 44.9914 108.097 45.7852 107.648C46.0169 107.61 46.2278 107.491 46.3812 107.313C46.9092 107.067 47.5119 106.933 47.8666 106.4C49.2519 105.953 50.3372 104.979 51.5866 104.293C52.2785 104.04 52.8799 103.627 53.4732 103.207L55.8866 101.873C56.2012 101.696 56.5145 101.519 56.8292 101.34L57.9399 100.741L58.5199 100.409L60.9332 99.0881C60.9926 99.0882 61.0517 99.0958 61.1092 99.1107C61.1092 105.264 61.1092 111.417 61.1092 117.569C60.1332 117.376 59.3959 116.683 58.5012 116.307H58.5025ZM93.6239 120.552C93.048 120.788 92.5028 121.092 91.9999 121.459C91.9826 121.471 91.9639 121.483 91.9479 121.496C90.9559 122.004 89.9648 122.512 88.9745 123.02C88.969 123.02 88.9636 123.021 88.9587 123.024C88.9538 123.026 88.9496 123.03 88.9465 123.035L86.1772 124.523C85.9559 124.591 85.7372 124.656 85.5932 124.857C84.9754 125.175 84.3594 125.498 83.7452 125.827L79.9532 127.827C79.0546 127.376 78.2199 126.791 77.2252 126.537C76.3439 125.761 75.2492 125.369 74.2145 124.864L73.6439 124.528C72.9772 124.175 72.3746 123.675 71.6026 123.535C70.9341 122.986 70.1807 122.549 69.3719 122.243C68.7809 121.814 68.1441 121.452 67.4732 121.164C67.0999 120.967 66.7239 120.764 66.3492 120.575C66.1625 120.465 65.9763 120.353 65.7906 120.241L64.6905 119.631C64.5266 113.553 64.6439 107.476 64.5919 101.4C64.5785 99.9494 64.6532 98.4947 64.5785 97.0454V96.7534C64.5916 96.5672 64.5708 96.3802 64.5172 96.2014C64.5879 95.3321 64.2012 94.7707 63.4079 94.4094C62.6399 94.0587 61.9025 93.6374 61.1546 93.2387C59.6052 92.4147 58.1092 91.4867 56.4639 90.8481C56.2119 90.4201 55.7532 90.3054 55.3372 90.1254L54.3905 89.5987L52.1799 88.4361L49.9039 87.1734C48.787 86.4815 47.6049 85.901 46.3745 85.4401C46.0319 84.8881 45.3759 84.8374 44.8892 84.5174L43.3746 83.5841C43.3746 80.8334 43.4172 78.0827 43.3386 75.3361C43.3106 74.3441 43.4612 73.6174 44.4799 73.2841L48.0799 71.3214L48.1132 71.3027L53.8319 68.2481C54.0305 68.1454 54.2852 68.1414 54.4212 67.9227L57.3852 66.3827C58.6879 65.3054 59.9092 65.6734 61.1039 66.5867C61.1479 66.6201 61.2225 66.6107 61.2839 66.6201L62.8159 67.5001L64.2826 68.3001C64.4265 68.5001 64.6505 68.5667 64.8692 68.6387C65.2372 68.8347 65.6039 69.0387 65.9732 69.2294L68.2399 70.4934C69.5185 71.2267 70.7732 72.0121 72.1266 72.6014C72.5866 72.9841 73.1279 73.2267 73.6625 73.4814C74.2732 73.8112 74.8852 74.1392 75.4985 74.4654C76.217 74.9569 76.9788 75.3818 77.7745 75.7347C78.0185 75.8681 78.2639 76.0014 78.5092 76.1347C78.6492 76.3374 78.8732 76.3854 79.0852 76.4627C80.3692 77.2054 81.2559 76.2347 82.2505 75.7281C82.5948 75.6158 82.9124 75.4343 83.1839 75.1947C83.5572 74.9956 83.9319 74.7974 84.3079 74.6001C85.0697 74.1823 85.8306 73.7636 86.5905 73.3441C87.3862 73.0145 88.1303 72.5722 88.7999 72.0307C89.5612 71.8641 90.1719 71.3907 90.8385 71.0321L92.7412 69.9654C93.2825 69.8014 93.7385 69.4827 94.2079 69.1854L95.1612 68.6521L96.6279 67.8601L97.2079 67.5294L100.743 65.6161C101.421 65.4574 101.816 66.1601 102.436 66.1774L105.981 68.0641L107.467 68.8361C107.733 69.1027 108.075 69.2361 108.416 69.3694C109.787 70.1143 111.157 70.8609 112.527 71.6094C113.265 71.9943 114.003 72.3801 114.74 72.7667C115.191 73.1667 115.744 73.3774 116.276 73.6307C116.709 73.8307 116.64 74.2187 116.64 74.5854C116.64 77.4601 116.64 80.3338 116.64 83.2067L114.957 84.3294L113.284 85.3041L111.765 86.1921L110.667 86.7881C110.337 86.9454 109.973 87.0347 109.713 87.3214C109.222 87.5881 108.729 87.8494 108.236 88.1054C107.703 88.3574 107.161 88.6027 106.708 88.9961L104.496 90.1507C104.287 90.2387 104.049 90.2841 103.911 90.4934L97.2052 94.0707C96.8745 94.2041 96.5305 94.312 96.3105 94.6227C95.7279 95.1907 95.5106 95.8801 95.5106 96.6934C95.5266 103.923 95.5288 111.152 95.5172 118.381C95.5172 118.74 95.6119 119.125 95.3172 119.431L93.6239 120.552ZM114.957 128.632L113.851 128.032C113.276 127.58 112.62 127.265 111.972 126.939C111.6 126.64 111.16 126.436 110.691 126.347C110.548 126.007 110.227 125.912 109.925 125.789C109.735 125.677 109.543 125.564 109.352 125.449C109.103 125.316 108.856 125.183 108.609 125.049L107.669 124.516L106.933 124.116C105.747 123.442 104.558 122.77 103.368 122.099L101.889 121.313C101.639 120.971 101.089 121.011 100.92 120.567L102.435 119.609C102.653 119.539 102.871 119.468 103.015 119.269C103.369 119.089 103.712 118.887 104.043 118.665C104.929 117.999 105.055 117.271 104.493 116.276C104.425 116.13 104.319 116.004 104.188 115.91C104.056 115.817 103.902 115.759 103.741 115.743C103.041 115.467 102.444 115.717 101.875 116.115L99.2532 117.424C98.9745 117.304 99.0772 117.056 99.0759 116.857C99.0492 114.475 99.0546 112.093 98.9745 109.707C98.8665 106.517 98.9012 103.323 98.8959 100.129C98.8959 99.7894 98.7132 99.396 99.0532 99.0974C99.0737 99.1192 99.1001 99.1345 99.1292 99.1414C99.7319 99.4894 100.329 99.8401 100.94 100.187L102.785 101.156L103.375 101.492L104.113 101.892L105.057 102.419L106.524 103.207C106.864 103.509 107.252 103.753 107.672 103.928L109.167 104.839C109.409 104.979 109.651 105.12 109.893 105.26C110.088 105.379 110.282 105.499 110.475 105.619L114.376 107.877L116.612 109.369C116.612 116.089 116.612 122.807 116.612 129.524L114.957 128.632ZM137.2 119.812L136.1 120.397L132.172 122.631L132.144 122.645C131.218 123.143 130.291 123.642 129.365 124.143L128.432 124.709C126.711 125.651 124.979 126.576 123.329 127.643C122.849 127.909 122.369 128.18 121.888 128.453C121.346 128.678 120.838 128.978 120.38 129.345L120.315 129.327C120.173 129.267 120.196 129.121 120.196 128.991C120.196 122.556 120.191 116.121 120.183 109.687C120.183 109.277 120.391 109.133 120.697 108.923C122.076 107.98 123.631 107.376 125.056 106.523L125.835 106.013L127.487 105.027C127.871 104.797 128.253 104.565 128.635 104.332L129.357 103.915C129.768 103.724 130.181 103.539 130.509 103.213C131.314 102.9 132.066 102.464 132.737 101.92C133.492 101.741 134.124 101.313 134.775 100.925C135.566 100.572 136.325 100.149 137.041 99.6614C137.291 99.5427 137.541 99.4254 137.875 99.2694C137.883 99.2726 137.891 99.2766 137.899 99.2814L137.929 99.2974V115.839C137.637 116.697 137.805 117.58 137.804 118.449C137.807 119.027 137.759 119.517 137.2 119.812Z" fill="#3A3A3A"/>
</svg>
