<svg width="160" height="160" viewBox="0 0 160 160" fill="none" xmlns="http://www.w3.org/2000/svg">
<path d="M140.652 54.2934C140.652 54.2854 140.652 54.276 140.652 54.2667C140.652 54.2174 140.652 54.1693 140.64 54.12C140.64 54.104 140.64 54.088 140.64 54.072C140.631 54.0147 140.62 53.9587 140.605 53.9027C140.605 53.9027 140.605 53.8947 140.605 53.8907C140.589 53.8319 140.569 53.774 140.547 53.7174C140.547 53.7014 140.533 53.6853 140.525 53.6693C140.508 53.628 140.489 53.5893 140.468 53.5494C140.46 53.5333 140.451 53.516 140.44 53.4987C140.417 53.4587 140.391 53.4187 140.364 53.38L140.341 53.3467C140.304 53.2956 140.264 53.247 140.22 53.2014V53.1947C140.178 53.1518 140.134 53.1117 140.087 53.0747L140.048 53.044C140.012 53.0145 139.974 52.9869 139.935 52.9613L139.908 52.9414C139.901 52.9379 139.893 52.9339 139.887 52.9293C139.847 52.9053 139.805 52.884 139.764 52.8627L139.717 52.8387L139.704 52.832L98.3079 34.2027C98.0982 34.1087 97.871 34.0602 97.6413 34.0602C97.4115 34.0602 97.1843 34.1087 96.9746 34.2027L55.3999 52.8307L55.3772 52.8427L55.3212 52.8707C55.2812 52.892 55.2439 52.912 55.2066 52.936L55.1786 52.9507L55.1559 52.968C55.1159 52.996 55.0759 53.0254 55.0372 53.056L55.0066 53.08C54.9599 53.1222 54.9154 53.1667 54.8732 53.2134C54.8325 53.2583 54.7942 53.3055 54.7586 53.3547L54.7306 53.3947C54.7048 53.432 54.6808 53.4707 54.6586 53.5107L54.6306 53.5587C54.6079 53.6027 54.5879 53.648 54.5692 53.692C54.5636 53.7028 54.5587 53.7139 54.5546 53.7254C54.5319 53.7818 54.5132 53.8397 54.4986 53.8987C54.4986 53.9133 54.4919 53.928 54.4879 53.9414C54.4772 53.988 54.4679 54.0347 54.4612 54.0827C54.4612 54.1 54.4612 54.1173 54.4546 54.136C54.4546 54.1853 54.4466 54.236 54.4452 54.2867C54.4452 54.296 54.4452 54.304 54.4452 54.3134V66.9987C54.439 67.2163 54.4765 67.433 54.5555 67.6359C54.6345 67.8387 54.7533 68.0237 54.9051 68.1799C55.0568 68.336 55.2383 68.4601 55.4388 68.5448C55.6394 68.6296 55.8549 68.6733 56.0726 68.6733C56.2903 68.6733 56.5058 68.6296 56.7063 68.5448C56.9069 68.4601 57.0884 68.336 57.2401 68.1799C57.3918 68.0237 57.5107 67.8387 57.5897 67.6359C57.6687 67.433 57.7061 67.2163 57.6999 66.9987V56.82L96.3666 74.02V121.815L72.4986 111.261C72.3032 111.175 72.0927 111.128 71.8791 111.123C71.6655 111.118 71.453 111.155 71.2537 111.232C71.0544 111.309 70.8723 111.425 70.7177 111.572C70.563 111.719 70.439 111.896 70.3526 112.091C70.2662 112.287 70.2191 112.497 70.214 112.711C70.209 112.924 70.2461 113.137 70.3231 113.336C70.4002 113.536 70.5158 113.718 70.6632 113.872C70.8107 114.027 70.9872 114.151 71.1826 114.237L97.3239 125.801C97.5313 125.891 97.7552 125.937 97.9812 125.935C98.0707 125.934 98.1599 125.926 98.2479 125.911C98.5669 125.967 98.8953 125.924 99.1892 125.788L140.389 106.948C140.676 106.817 140.919 106.605 141.088 106.339C141.257 106.072 141.344 105.762 141.34 105.447L140.652 54.2934ZM60.0572 54.3107L97.6386 37.4667L135.076 54.3187L97.9746 71.1787L60.0572 54.3107ZM99.6093 122.021V74.0107L137.431 56.8267L138.065 104.435L99.6093 122.021Z" fill="#3A3A3A"/>
<path d="M24.9186 87.4253C23.6191 87.4253 22.5013 87.1053 21.5653 86.4653C20.6293 85.8253 19.9115 84.9058 19.412 83.7066C18.9088 82.5031 18.6604 81.0542 18.6666 79.36C18.6728 77.6658 18.9235 76.2271 19.4186 75.044C19.92 73.8546 20.6382 72.9489 21.5733 72.3266C22.5084 71.7044 23.6235 71.3933 24.9186 71.3933C26.2128 71.3933 27.3275 71.7044 28.2626 72.3266C29.1977 72.9489 29.9173 73.8546 30.4213 75.044C30.9253 76.2306 31.1746 77.668 31.1693 79.356C31.164 81.044 30.9133 82.4955 30.4173 83.7106C29.916 84.9142 29.1991 85.8338 28.2666 86.4693C27.3342 87.1049 26.2182 87.4235 24.9186 87.4253ZM24.9186 84.712C25.8075 84.712 26.5155 84.2675 27.0426 83.3786C27.5697 82.4898 27.8315 81.1515 27.828 79.364C27.828 78.1906 27.7084 77.2129 27.4693 76.4306C27.2302 75.6484 26.8924 75.0604 26.456 74.6666C26.0378 74.2806 25.4876 74.0697 24.9186 74.0773C24.036 74.0773 23.3302 74.5182 22.8013 75.4C22.2724 76.2818 22.0057 77.6022 22.0013 79.3613C22.0013 80.5506 22.1213 81.5422 22.3613 82.336C22.6013 83.1298 22.94 83.7244 23.3773 84.12C23.7962 84.5075 24.348 84.7195 24.9186 84.712Z" fill="#F7931B"/>
<path d="M40.2333 71.6V87.0853H36.96V74.7106H36.8693L33.324 76.9333V74.0306L37.156 71.6H40.2333Z" fill="#F7931B"/>
<path d="M49.9839 87.4253C48.6844 87.4253 47.567 87.1053 46.6319 86.4653C45.6968 85.8253 44.9786 84.9058 44.4772 83.7066C43.9759 82.5031 43.7279 81.0542 43.7332 79.36C43.7386 77.6658 43.9892 76.2271 44.4852 75.044C44.9866 73.8546 45.7044 72.9489 46.6386 72.3266C47.5728 71.7044 48.6879 71.3933 49.9839 71.3933C51.2781 71.3933 52.3932 71.7044 53.3292 72.3266C54.2652 72.9489 54.9843 73.8546 55.4866 75.044C55.9906 76.2306 56.2403 77.668 56.2359 79.356C56.2315 81.044 55.9808 82.4955 55.4839 83.7106C54.9817 84.9142 54.2648 85.8338 53.3332 86.4693C52.4017 87.1049 51.2852 87.4235 49.9839 87.4253ZM49.9839 84.712C50.8728 84.712 51.5808 84.2675 52.1079 83.3786C52.635 82.4898 52.8972 81.1515 52.8946 79.364C52.8946 78.1906 52.775 77.2129 52.5359 76.4306C52.2968 75.6484 51.959 75.0604 51.5226 74.6666C51.1038 74.2809 50.5532 74.0701 49.9839 74.0773C49.1021 74.0773 48.3968 74.5182 47.8679 75.4C47.339 76.2818 47.0724 77.6022 47.0679 79.3613C47.0679 80.5506 47.1875 81.5422 47.4266 82.336C47.6657 83.1298 48.0048 83.7244 48.4439 84.12C48.8623 84.5076 49.4136 84.7195 49.9839 84.712Z" fill="#F7931B"/>
<path d="M65.2987 71.6V87.0853H62.0254V74.7106H61.9347L58.3894 76.9333V74.0306L62.2227 71.6H65.2987Z" fill="#F7931B"/>
<path d="M25.5839 93.7227V109.2H22.3106V96.8293H22.2199L18.6746 99.052V96.1493L22.5066 93.7227H25.5839Z" fill="#F7931B"/>
<path d="M35.3334 109.544C34.0338 109.539 32.9165 109.219 31.9814 108.584C31.0462 107.949 30.328 107.03 29.8267 105.825C29.3254 104.62 29.0769 103.171 29.0814 101.479C29.0858 99.7862 29.3365 98.3475 29.8334 97.1626C30.3347 95.9733 31.0529 95.0671 31.988 94.444C32.9231 93.8208 34.0382 93.5097 35.3334 93.5106C36.6285 93.5106 37.7436 93.8217 38.6787 94.444C39.6138 95.0662 40.3329 95.972 40.836 97.1613C41.34 98.3497 41.5894 99.7875 41.584 101.475C41.5787 103.162 41.328 104.613 40.832 105.828C40.3307 107.033 39.6142 107.953 38.6827 108.588C37.7511 109.223 36.6347 109.541 35.3334 109.544ZM35.3334 106.831C36.2222 106.831 36.9302 106.386 37.4574 105.497C37.9845 104.608 38.2467 103.271 38.244 101.484C38.244 100.309 38.124 99.3311 37.884 98.5506C37.644 97.7702 37.3067 97.1831 36.872 96.7893C36.4544 96.401 35.9035 96.1881 35.3334 96.1946C34.4507 96.1946 33.7449 96.6355 33.216 97.5173C32.6871 98.3991 32.4205 99.7195 32.416 101.479C32.416 102.668 32.5356 103.66 32.7747 104.453C33.0138 105.247 33.3525 105.842 33.7907 106.237C34.2099 106.625 34.7621 106.838 35.3334 106.831Z" fill="#F7931B"/>
<path d="M50.6493 93.7227V109.2H47.376V96.8293H47.2853L43.74 99.052V96.1493L47.5733 93.7227H50.6493Z" fill="#F7931B"/>
<path d="M60.3999 109.544C59.1004 109.539 57.983 109.219 57.0479 108.584C56.1128 107.949 55.3946 107.03 54.8933 105.825C54.3919 104.62 54.1439 103.171 54.1493 101.479C54.1546 99.7862 54.4053 98.3475 54.9013 97.1626C55.4026 95.9733 56.1208 95.0671 57.0559 94.444C57.991 93.8208 59.1057 93.5097 60.3999 93.5106C61.6959 93.5106 62.811 93.8217 63.7453 94.444C64.6795 95.0662 65.399 95.972 65.9039 97.1613C66.4079 98.3497 66.6573 99.7875 66.6519 101.475C66.6466 103.162 66.3959 104.613 65.8999 105.828C65.3986 107.033 64.6817 107.953 63.7493 108.588C62.8168 109.223 61.7004 109.541 60.3999 109.544ZM60.3999 106.831C61.2888 106.831 61.9968 106.386 62.5239 105.497C63.051 104.608 63.3133 103.271 63.3106 101.484C63.3106 100.309 63.191 99.3311 62.9519 98.5506C62.7128 97.7702 62.375 97.1831 61.9386 96.7893C61.5211 96.4008 60.9702 96.1879 60.3999 96.1946C59.5181 96.1946 58.8128 96.6355 58.2839 97.5173C57.755 98.3991 57.4884 99.7195 57.4839 101.479C57.4839 102.668 57.6035 103.66 57.8426 104.453C58.0817 105.247 58.4208 105.842 58.8599 106.237C59.2782 106.625 59.8295 106.838 60.3999 106.831Z" fill="#F7931B"/>
</svg>
