<svg width="160" height="160" viewBox="0 0 160 160" fill="none" xmlns="http://www.w3.org/2000/svg">
<path d="M110.163 86.228C110.129 86.101 110.063 85.985 109.971 85.8914C109.879 85.7979 109.764 85.73 109.637 85.6946C108.825 85.244 108.037 85.456 107.284 85.828C101.779 88.5506 96.2751 91.2773 90.772 94.008L88.9187 94.9333C87.796 95.4893 86.652 96 85.5627 96.62C84.9147 96.9933 84.4187 97.0306 83.744 96.66C82.9867 96.2426 82.244 95.7266 81.344 95.6226C81.0614 95.4193 80.7657 95.2349 80.4587 95.0706C79.2174 94.504 78.0747 93.7146 76.7254 93.4026L76.7387 93.4146C74.8454 92.2838 72.8712 91.2944 70.832 90.4546C70.6867 90.2493 70.456 90.2013 70.2374 90.132C70.104 90.076 69.9614 90.028 69.8307 89.9626C68.204 89.152 66.6494 88.1853 64.884 87.672C63.9827 87.1506 63.1 86.5946 62.1267 86.2053C62.1129 86.1799 62.1057 86.1515 62.1057 86.1226C62.1057 86.0938 62.1129 86.0653 62.1267 86.04L66.3534 83.9653C66.5627 83.8773 66.8054 83.8533 66.9494 83.644C67.8827 83.4266 68.6094 82.7853 69.496 82.484C69.8707 82.3053 70.26 82.32 70.656 82.3813C71.2705 82.481 71.8992 82.4469 72.4993 82.2815C73.0994 82.1161 73.6568 81.8231 74.1334 81.4226C74.7747 81.004 75.2947 80.48 75.6 79.7653L75.9294 79.192C78.0689 78.1066 80.2094 77.0213 82.3507 75.936C82.68 75.768 82.9987 75.6013 83.348 75.8773C83.9875 76.3642 84.6772 76.7812 85.4054 77.1213C85.9814 77.4986 86.5587 77.876 87.2174 78.104C87.996 78.6826 88.7947 78.98 89.6654 78.2786C90.5453 77.2693 90.424 76.412 89.2987 75.6786C88.3107 74.9586 87.2174 74.4213 86.132 73.8693L83.7627 72.536C82.9894 71.752 82.3347 72.2826 81.672 72.7253C80.9507 72.9373 80.3174 73.3333 79.6614 73.684C78.6774 74.156 77.6734 74.592 76.7147 75.112C76.048 75.4773 75.536 75.62 75.18 74.7413C75.0455 74.4283 74.8033 74.1738 74.4974 74.024C74.3014 73.624 73.88 73.7853 73.5747 73.6546C73.4107 73.0266 72.8134 72.944 72.3507 72.7586C69.8067 71.7413 67.2467 70.7586 64.692 69.7733L64.1334 69.0066C63.4667 67.46 62.476 66.088 61.7054 64.5973C61.6267 64.38 61.5627 64.1586 61.3587 64.0173L60.376 62.2013C60.088 61.6973 59.7974 61.196 59.5067 60.6933C59.04 59.7186 58.5414 58.7626 57.8587 57.9173C57.6352 57.2004 57.3034 56.5219 56.8747 55.9053C56.7614 55.7173 56.6467 55.5266 56.5347 55.3373C56.4387 54.9666 56.196 54.6933 55.9347 54.432C55.6275 53.9104 55.196 53.4729 54.6787 53.1586L53.7787 52.564C53.632 52.3888 53.4261 52.2735 53.2 52.24C52.1859 51.732 51.0663 51.4702 49.932 51.476C43.752 51.4626 37.5734 51.4466 31.3987 51.4853C29.6654 51.496 28.0147 51.9413 26.576 52.9826C25.5846 53.5452 24.7637 54.3652 24.2 55.356C23.5334 56.2173 23.1667 57.2226 22.8667 58.2466C22.0187 61.168 21.6494 64.168 21.336 67.18C20.936 71.0653 20.6694 74.9573 20.4547 78.856C20.2934 81.7426 20.1054 84.628 19.952 87.516C19.8467 89.5053 19.6667 91.516 21.044 93.228C21.5335 94.0096 22.235 94.6361 23.0667 95.0346C24.8667 96.0226 26.6947 95.968 28.5534 95.144C28.42 100.063 28.2867 104.947 28.1534 109.829C28.1 111.737 28.0307 113.644 27.976 115.552C27.8747 118.996 27.6174 122.439 27.6987 125.887C27.7087 126.994 28.1042 128.064 28.8174 128.912C29.2611 129.619 29.8964 130.185 30.6494 130.545C32.6494 131.661 34.6214 131.569 36.5547 130.365C37.2554 129.997 37.8291 129.427 38.2014 128.728C38.8134 127.887 39.052 126.925 39.1534 125.908C39.4129 123.317 39.6822 120.727 39.9614 118.137C40.2854 115.155 40.6654 112.177 40.8307 109.179C41.0387 108.816 40.996 108.423 40.972 108.032C40.972 107.971 40.972 107.908 40.9787 107.847L41.172 107.688C41.156 109.9 41.4534 112.088 41.6214 114.291C41.8547 117.373 42.1547 120.452 42.4907 123.525C42.6774 125.233 42.5507 127.028 43.6294 128.54C44.0317 129.319 44.665 129.955 45.4427 130.36C47.5854 131.756 50.1094 131.617 52.0827 129.996C52.4673 129.796 52.7824 129.484 52.9867 129.101C53.576 128.472 53.8947 127.709 54.0867 126.883C54.2798 126.266 54.3562 125.618 54.312 124.973C54.1254 120.707 53.9014 116.431 53.7667 112.156C53.4787 103.016 53.5774 93.872 53.568 84.728C53.568 80.296 53.5414 75.864 53.528 71.432C53.564 71.328 53.6067 71.236 53.7454 71.2706C53.9204 71.7403 54.1884 72.1697 54.5334 72.5333L55.7867 74.4093C56.6227 75.6293 57.1667 77.056 58.3507 78.028C58.3616 78.039 58.3737 78.0489 58.3867 78.0573L65.3894 80.724L61.532 82.724C61.5211 82.725 61.511 82.7302 61.504 82.7386L58.024 84.572C57.6534 84.7306 57.2707 84.8706 57.104 85.2893C56.7787 85.6586 56.7214 86.0973 56.7227 86.5706C56.728 96.8818 56.728 107.193 56.7227 117.504C56.7227 117.961 56.74 118.411 57.084 118.769C58.1894 119.987 59.776 120.388 61.1467 121.153L61.7227 121.484L64.4894 122.968L66.6907 124.111C66.832 124.312 67.0534 124.377 67.268 124.447L70.04 125.933L73.556 127.78L76.7014 129.443L80.216 131.291L83.7334 133.145C83.9903 133.305 84.2856 133.393 84.5882 133.4C84.8909 133.407 85.1897 133.331 85.4534 133.183C86.2427 132.751 87.016 132.289 87.796 131.84L89.6734 130.773L90.7574 130.183C91.4174 129.892 92.046 129.535 92.6334 129.116L93.7174 128.523L94.2894 128.188L95.38 127.593C96.8907 126.793 98.408 125.993 99.8467 125.049C100.242 124.922 100.611 124.723 100.933 124.461L101.497 124.121C101.742 123.989 101.985 123.856 102.227 123.721C102.881 123.416 103.529 123.097 104.093 122.647L106.844 121.144L107.42 120.801C108.091 120.544 108.714 120.174 109.26 119.707C110.135 119.44 110.384 118.784 110.383 117.947C110.375 107.696 110.369 97.4449 110.367 87.1933C110.384 86.8493 110.436 86.5 110.163 86.228ZM53.216 64.2066C53.1861 64.1238 53.1382 64.0487 53.0757 63.9867C53.0132 63.9247 52.9377 63.8773 52.8547 63.848C51.8387 63.284 51.3507 63.3666 50.6507 64.2293C50.244 64.7866 50.2574 65.4293 50.2574 66.08C50.2574 72.488 50.2667 78.8946 50.2574 85.3026C50.236 93.1266 50.2507 100.951 50.4694 108.769C50.4574 109.909 50.3747 111.052 50.6107 112.181C50.61 112.186 50.61 112.191 50.6107 112.196C50.6254 113.211 50.6387 114.223 50.6534 115.237C50.6307 115.859 50.6014 116.479 50.768 117.085C50.7742 117.113 50.7817 117.14 50.7907 117.167C50.8067 117.939 50.8214 118.712 50.8387 119.484C50.8627 120.065 50.9147 120.647 50.9054 121.225C50.8774 123.041 51.4494 124.869 50.8 126.672C50.788 126.672 50.7774 126.683 50.768 126.707C50.472 127.025 50.1774 127.341 49.8854 127.66C48.436 128.419 47.2694 127.889 46.2107 126.86C46.1787 126.532 46.0067 126.248 45.9787 125.905C45.8107 123.916 45.596 121.932 45.396 119.947C45.104 117.045 44.8014 114.145 44.5214 111.241C44.2467 108.399 43.988 105.553 43.7214 102.708C43.4334 99.6506 43.188 96.588 42.8187 93.54C42.6947 92.5053 42.952 91.3866 42.3 90.4373C42.0694 89.6453 41.4414 89.6373 40.7934 89.684C39.9654 89.736 39.5787 90.344 39.5467 91.0106C39.4654 92.708 39.064 94.3746 39.1307 96.0773C39.1174 96.1533 39.1067 96.2266 39.0934 96.3026C39.042 96.4242 39.0218 96.5566 39.0347 96.688C38.744 98.6066 38.5827 100.539 38.436 102.475C38.364 102.991 38.2774 103.505 38.224 104.023C37.8974 107.161 37.5867 110.303 37.256 113.44C36.836 117.399 36.3827 121.355 35.9827 125.317C35.86 126.544 35.468 127.551 34.2187 127.955C32.9694 128.359 31.952 127.893 31.1654 126.869C30.8886 126.288 30.7682 125.645 30.816 125.003C30.9627 121.315 31.12 117.625 31.2254 113.936C31.464 105.724 31.7587 97.5106 31.872 89.2946C31.9854 81.632 31.9027 73.9613 31.9094 66.3C31.9232 65.9004 31.8732 65.5012 31.7614 65.1173C31.512 64.3493 31.004 63.9733 30.1734 64.0133C29.3814 64.0493 28.9227 64.4493 28.7734 65.2026C28.6951 65.5939 28.6545 65.9917 28.652 66.3906C28.644 73.9026 28.644 81.4137 28.652 88.924C28.652 89.8026 28.5334 90.6226 28.0414 91.3653C27.8534 91.5533 27.6654 91.7426 27.476 91.9293C26.388 92.6266 25.2947 92.7226 24.1934 91.9826C24.1803 91.9756 24.1678 91.9676 24.156 91.9586C23.4894 91.2986 23.152 90.5226 23.2334 89.5586C23.3147 88.5946 23.3574 87.5973 23.4 86.6146C23.7267 78.9786 24.036 71.34 25.1027 63.7626C25.4334 61.416 25.8054 59.056 27.1214 56.9906C27.556 56.564 27.9934 56.136 28.428 55.7066C29.6547 55.0106 30.9707 54.728 32.38 54.7333C37.96 54.7506 43.5374 54.7333 49.116 54.744C49.7574 54.744 50.3974 54.744 51.04 54.8986C52.4587 55.2333 53.1614 56.3466 53.9414 57.3946C54.504 58.5346 55.0547 59.6813 55.788 60.728C55.952 61.2613 56.28 61.7013 56.5667 62.168C56.68 62.356 56.7947 62.5466 56.908 62.7373C57.1054 63.1013 57.308 63.464 57.5014 63.8293C57.7225 64.3706 58.0192 64.8779 58.3827 65.336C58.7827 66.3093 59.3707 67.18 59.9014 68.0813C60.5214 69.2813 61.1214 70.4973 61.9014 71.6066C62.34 72.4266 63.132 72.7493 63.9387 73.0506C66.2427 73.976 68.5374 74.9173 70.8547 75.8133C71.7587 76.1626 72.468 76.624 72.6174 77.6586C72.4613 78.09 72.2113 78.4812 71.8854 78.804C71.2 79.1386 70.5214 79.0186 69.844 78.772L65.276 77.124C64.756 76.7706 64.144 76.6466 63.5654 76.4386C62.0894 75.728 60.252 75.6386 59.3294 73.98L59.34 73.9893C59.2587 73.396 58.836 72.9946 58.528 72.5293C58.144 71.8813 57.7947 71.2106 57.292 70.6426C56.588 69.5173 56.0107 68.3093 55.0854 67.3346C54.952 66.52 54.2627 66.0226 53.9387 65.3146C53.7607 64.9079 53.5165 64.5335 53.216 64.2066ZM60.6054 117.303C60.048 117.125 60.048 116.688 60.0507 116.209C60.0614 112.025 60.0614 107.842 60.0507 103.66C60.0427 98.7711 60.0316 93.8822 60.0174 88.9933C60.0907 88.9293 60.1627 88.86 60.2374 88.796C61.4822 89.5024 62.7716 90.1273 64.0974 90.6666C64.8547 91.1906 65.7067 91.5253 66.536 91.9053C68.2347 92.7573 69.9147 93.6386 71.6747 94.3666C71.9414 94.6333 72.3027 94.736 72.6414 94.872L73.3774 95.2493C75.2129 96.1258 77.0494 97.0035 78.8867 97.8826C80.028 98.5653 81.2467 99.1 82.4507 99.6586C82.9507 99.816 83.0147 100.173 83.012 100.652C82.9894 103.7 82.9987 106.749 83.0027 109.797C83.0098 116.047 83.0182 122.296 83.028 128.545C82.9334 128.716 83.1614 129.224 82.628 128.932C82.18 128.696 81.7414 128.432 81.2787 128.225C79.4774 127.419 77.8974 126.175 75.9934 125.579C75.3334 124.868 74.4 124.667 73.5734 124.273C72.9534 123.644 72.1267 123.373 71.3587 122.997C71.092 122.731 70.7507 122.608 70.4147 122.475C69.412 121.888 68.396 121.327 67.2907 120.948C67.2014 120.739 67.024 120.663 66.8214 120.567C65.7454 120.033 64.6814 119.473 63.6107 118.921C62.6667 118.281 61.6307 117.796 60.6054 117.303ZM105.569 118.196C105.325 118.329 105.079 118.463 104.833 118.587L101.875 120.267L101.312 120.605L100.579 121.005C99.9547 121.361 99.332 121.721 98.712 122.072C98.3467 122.265 97.9827 122.457 97.6187 122.652L95.956 123.585C95.4227 123.837 94.8894 124.083 94.4467 124.473C93.9 124.607 93.4694 124.969 92.9934 125.241L91.328 126.175C90.2178 126.792 89.1089 127.409 88.0014 128.028C87.3454 128.243 86.8387 128.763 86.152 128.911C86.152 119.488 86.1454 110.063 86.132 100.635C86.132 100.081 86.324 99.8226 86.7894 99.596C89.0454 98.4973 91.288 97.3706 93.536 96.2533C98.0836 93.9893 102.631 91.7253 107.177 89.4613C107.192 89.5043 107.201 89.5492 107.204 89.5946C107.204 98.5724 107.204 107.552 107.204 116.535C107.204 116.801 107.312 117.093 107.071 117.32L105.569 118.196Z" fill="#3A3A3A"/>
<path d="M29.696 42.82C29.8066 43.4333 30.1453 43.936 30.4893 44.436C30.5942 44.7274 30.7713 44.9875 31.004 45.192L31.404 45.7253C31.426 45.8114 31.4675 45.8913 31.5253 45.9588C31.5831 46.0263 31.6556 46.0796 31.7373 46.1146C31.9819 46.475 32.2917 46.7866 32.6506 47.0333C33.1331 47.5507 33.7038 47.9783 34.336 48.296C37.908 50.4426 41.6053 50.664 45.4266 49.0213C46.172 48.7013 46.8933 48.3546 47.488 47.772L48.0213 47.3586C48.3933 47.1333 48.7413 46.884 48.924 46.4666C49.2026 46.0666 49.696 45.856 49.888 45.38C50.1243 45.1727 50.3073 44.9116 50.4213 44.6186C50.616 44.2506 50.8146 43.8853 51.0026 43.5146C52.904 39.7426 52.664 36.048 50.5773 32.432C50.3093 31.8775 49.9521 31.3707 49.52 30.932C49.099 30.3772 48.6058 29.8813 48.0533 29.4573C47.4559 28.8626 46.7575 28.3791 45.9906 28.0293C41.8866 25.996 37.8773 26.0826 33.9733 28.5626C33.6213 28.7533 33.2693 28.944 33.028 29.2786C32.4003 29.7493 31.8423 30.3064 31.3706 30.9333C31.0735 31.1972 30.8339 31.5194 30.6666 31.88C30.4853 32.0906 30.296 32.2973 30.2533 32.588C30.0821 32.7404 29.9663 32.9453 29.924 33.1706C28.3906 36.3546 28.328 39.5706 29.696 42.82ZM34.3626 32.5293L34.8853 32.024L35.2786 31.7C38.3613 29.5306 41.5653 29.4333 44.8786 31.1413C45.1306 31.3213 45.3826 31.5 45.632 31.6746L47.116 33.1613C47.2973 33.4106 47.4786 33.6613 47.6573 33.9106C48.1573 34.9213 48.5906 35.944 48.7813 37.0733C49.1106 39.0253 48.648 40.82 47.836 42.568L47.3173 43.336C47.06 43.6346 46.8026 43.9373 46.544 44.2386L45.2333 45.3546C42.1026 47.1506 38.9666 47.1733 35.84 45.3546L34.1613 43.868C33.4453 42.952 32.848 41.9746 32.4866 40.856C31.732 38.5146 32.1653 36.288 33.072 34.096L34.3626 32.5293Z" fill="#3A3A3A"/>
<path d="M140.039 96.7999C139.793 95.4173 138.851 94.4986 138.104 93.4386C137.755 92.8262 137.334 92.2585 136.848 91.7479L135.885 90.4839C135.775 90.1947 135.595 89.937 135.361 89.7333L134.961 89.1999L133.696 87.528L133.287 86.9853C132.869 86.4271 132.452 85.8684 132.035 85.3093L131.635 84.7653L129.821 82.3413C129.113 81.1479 128.043 80.6346 126.68 80.6679C126.28 79.7066 125.571 78.9426 124.971 78.1119C124.908 77.9439 124.837 77.7813 124.636 77.7386C124.363 77.4399 124.675 77.3266 124.827 77.1786C125.543 76.4799 126.257 75.7786 126.864 74.9786C127.169 74.7231 127.41 74.4004 127.568 74.0359C128.063 73.3293 128.708 72.7146 128.919 71.8333L128.905 71.8453C129.572 71.2413 129.797 70.3853 130.148 69.6026C131.592 66.4026 132.015 63.0359 131.847 59.5733C131.707 56.208 130.746 52.9281 129.047 50.0199C128.884 49.602 128.645 49.2177 128.343 48.8866C128.232 48.5293 127.977 48.2666 127.743 47.9906C127.508 47.6786 127.276 47.3666 127.04 47.0573C126.784 46.7515 126.529 46.4466 126.273 46.1426C125.709 45.3769 125.028 44.7043 124.255 44.1493L123.539 43.5453C122.753 42.8292 121.876 42.2211 120.929 41.7373L120.197 41.3373C119.225 40.6799 118.147 40.2626 117.045 39.8946C113.091 38.5079 109.065 38.1613 104.949 39.0453C102.683 39.5333 100.52 40.2879 98.5494 41.5439C97.6718 41.9771 96.8579 42.5289 96.1308 43.1839L95.4014 43.7333C95.315 43.7557 95.2348 43.7976 95.167 43.8559C95.0993 43.9141 95.0459 43.9871 95.0108 44.0693C94.2713 44.6772 93.5918 45.3545 92.9814 46.0919C92.9006 46.1285 92.8292 46.1829 92.7724 46.251C92.7156 46.3191 92.6749 46.3992 92.6534 46.4853L92.0588 47.2106C91.4205 47.9482 90.8709 48.7582 90.4214 49.6239C90.3454 49.7193 90.275 49.819 90.2108 49.9226C87.4441 54.8559 86.7441 60.1186 87.8788 65.6173C88.3454 67.8706 89.1201 70.0399 90.4201 71.9799C90.5902 72.3948 90.8311 72.777 91.1321 73.1093L92.0401 74.3999C92.4148 74.8333 92.6894 75.3533 93.1668 75.6973C93.5954 76.2429 94.0878 76.7353 94.6334 77.1639C94.7608 77.3973 94.9661 77.5785 95.2134 77.6759L95.9348 78.2706C96.5532 78.8379 97.243 79.322 97.9868 79.7106C98.7294 80.2399 99.5357 80.6736 100.387 81.0013C102.968 82.2759 105.72 82.9053 108.573 83.0653C112.064 83.2791 115.554 82.6446 118.745 81.2159C119.097 81.0586 119.3 81.0826 119.487 81.3973C119.835 82.0077 120.251 82.577 120.727 83.0946C121.357 83.7613 121.359 84.5786 121.301 85.4319C121.263 85.9986 121.18 86.5973 121.521 87.1266C121.715 87.6306 122.045 88.0386 122.4 88.4333L122.789 88.9813C123.155 89.4737 123.519 89.9666 123.881 90.4599L124.295 91.0079C124.711 91.5662 125.127 92.1262 125.543 92.6879L125.951 93.2213L126.649 94.1679L127.049 94.7013C127.965 95.9351 128.882 97.1697 129.8 98.4053L130.2 98.9466C130.436 99.2599 130.671 99.5719 130.904 99.8799C131.037 100.057 131.181 100.236 131.321 100.413C131.34 100.5 131.378 100.581 131.433 100.65C131.488 100.72 131.559 100.775 131.639 100.813C131.814 101.117 132.073 101.363 132.385 101.523C134.315 102.947 136.837 102.779 138.483 101.123C138.917 100.881 139.175 100.488 139.389 100.056C140.008 99.0912 140.24 97.9283 140.039 96.7999ZM123.751 73.4746L122.045 75.1719C121.912 75.2786 121.779 75.3866 121.656 75.4946L121.123 75.9173C120.015 76.7639 118.741 77.3426 117.56 78.0679C117.47 78.0713 117.38 78.0861 117.293 78.1119C112.312 80.3306 107.307 80.1733 102.284 78.2453C100.789 77.5042 99.3522 76.6501 97.9868 75.6906C97.7508 75.4973 97.5121 75.3053 97.2748 75.1133L95.4081 73.2586C95.2054 73.0204 95.005 72.7817 94.8068 72.5426C94.7308 72.1333 94.2201 72.1426 94.0841 71.7933C93.9348 71.1013 93.4494 70.5826 93.1241 69.9853C91.1454 66.3506 90.4228 62.5026 90.9214 58.3853C91.2214 55.9159 92.0894 53.6666 93.1881 51.4746L95.0041 48.8679C95.3241 48.5053 95.6445 48.1435 95.9654 47.7826C96.2161 47.5319 96.4641 47.2813 96.7134 47.0306C97.0761 46.7124 97.4397 46.3933 97.8041 46.0733C98.3668 45.6533 98.9281 45.2333 99.4934 44.8146C102.743 42.8306 106.253 41.7479 110.08 41.8639C112.127 41.9266 114.115 42.3906 116.068 42.9866L119.644 44.7706L121.491 46.0973C122.484 46.9488 123.407 47.879 124.251 48.8786L125.001 49.8119C125.318 50.2999 125.634 50.7888 125.951 51.2786L126.295 51.8493C126.256 52.0506 126.395 52.1839 126.473 52.3453C128.363 56.2119 128.972 60.2439 128.175 64.4986C127.841 66.2733 127.145 67.9039 126.472 69.5533C125.871 70.4866 125.27 71.4199 124.668 72.3533C124.535 72.5306 124.393 72.7079 124.259 72.8866C124.033 73.0254 123.855 73.2308 123.751 73.4746ZM128.891 91.7479C128.757 91.5706 128.624 91.3933 128.491 91.2146C128.128 90.7213 127.766 90.2266 127.404 89.7306L126.993 89.1853C126.577 88.6199 126.161 88.0559 125.745 87.4933L124.656 85.9666C124.869 85.0933 125.787 85.0613 126.324 84.5733C126.827 84.1159 127.264 84.1306 127.633 84.7346C127.863 85.0493 128.093 85.3631 128.324 85.6759L128.724 86.2093L132.023 90.6666C132.156 90.8466 132.289 91.0266 132.423 91.1999C132.657 91.5173 132.893 91.8328 133.128 92.1466L133.528 92.6799C134.261 93.6675 134.995 94.6555 135.728 95.6439C135.865 95.8217 136.001 96.0031 136.136 96.1879C137.104 97.6373 137.1 97.8706 136.089 98.9639C134.957 99.3559 134.473 99.2066 133.747 98.2546C133.547 97.9879 133.325 97.7466 133.112 97.4933C132.845 96.9239 132.445 96.4586 132.039 95.9879C131.228 94.8866 130.417 93.7862 129.605 92.6866C129.365 92.3773 129.127 92.0626 128.891 91.7479Z" fill="#F7931B"/>
<path d="M117.777 63.3333H114.304C114.491 61.928 114.672 60.6307 114.837 59.3333C114.909 58.7507 115.005 58.316 115.796 58.4C116.677 58.4907 117.575 58.448 118.463 58.4253C119.197 58.4093 119.816 58.0867 119.983 57.3427C120.149 56.5987 120.131 55.8067 119.259 55.3907C118.572 54.972 117.813 55.1947 117.089 55.1813C115.356 55.148 115.431 55.1813 115.663 53.428C115.796 52.428 116.281 51.3973 115.715 50.3733C114.975 49.3973 114.115 49.3333 113.168 50.1853C112.893 50.4613 112.832 50.8107 112.78 51.1813C112.613 52.3613 112.408 53.5387 112.247 54.7213C112.209 54.988 112.223 55.1813 111.857 55.1773C110.295 55.1613 108.731 55.1707 107.136 55.1707C107.299 54.08 107.504 53.0867 107.58 52.0827C107.635 51.356 107.864 50.5307 107.071 49.9907C107.048 49.9686 107.021 49.9526 106.991 49.944C105.869 49.3173 104.744 49.704 104.513 50.8973C104.247 52.3 104.099 53.7293 103.899 55.148C102.639 55.148 101.379 55.148 100.119 55.172C99.0813 55.1907 98.2067 56.0013 98.2147 56.8947C98.2227 57.856 98.9307 58.428 100.101 58.428C101.085 58.428 102.071 58.4373 103.053 58.4147C103.423 58.4067 103.527 58.464 103.445 58.8773C103.253 59.836 103.127 60.8067 102.993 61.7773C102.788 63.2587 102.796 63.2613 101.321 63.3347C100.503 63.344 99.6507 63.0893 98.9133 63.676C98.1773 64.16 98.1053 64.8467 98.3587 65.6053C98.5947 66.316 99.1747 66.568 99.8667 66.588C100.481 66.6053 101.097 66.588 101.712 66.5573C102.161 66.5307 102.449 66.452 102.284 67.1507C102.06 68.1982 101.927 69.263 101.884 70.3333C101.825 71.3293 102.347 71.9267 103.187 71.9973C104.188 72.084 104.851 71.6107 105.027 70.624C105.231 69.4787 105.437 68.332 105.551 67.1773C105.603 66.644 105.761 66.5107 106.267 66.5307C107.495 66.5693 108.729 66.588 109.959 66.54C110.548 66.5187 110.613 66.72 110.524 67.2253C110.341 68.2467 110.169 69.2733 110.071 70.3067C110.016 70.8867 110.159 71.4613 110.763 71.7733C112.184 72.4 113.145 71.7307 113.36 70.052C113.511 68.852 113.493 67.624 113.963 66.48C115.671 66.532 117.379 66.6693 119.081 66.4067C120.148 65.7773 120.375 64.7987 119.669 63.948C119.16 63.3333 118.515 63.2 117.777 63.3333ZM106.915 58.3387C106.926 58.3707 106.94 58.4016 106.957 58.4307C106.952 58.3992 106.943 58.3687 106.929 58.34C108.489 58.4513 110.054 58.4513 111.613 58.34C111.596 58.3535 111.581 58.3703 111.569 58.3893C111.547 58.4242 111.528 58.4608 111.512 58.4987C111.558 58.4527 111.596 58.399 111.624 58.34C111.704 59.94 111.199 61.4613 111.091 63.0347C111.077 63.2253 110.989 63.3013 110.875 63.32C110.726 63.3244 110.578 63.3173 110.431 63.2987C108.995 63.3133 107.556 63.308 106.12 63.3107C106.321 61.64 106.351 59.9453 106.915 58.3373V58.3387Z" fill="#F7931B"/>
</svg>
