<svg width="160" height="160" viewBox="0 0 160 160" fill="none" xmlns="http://www.w3.org/2000/svg">
<path d="M101.701 96.9107C98.8227 100.057 94.7334 100.363 91.0867 101.669C89.2027 102.345 87.2507 102.828 85.3534 103.469C84.488 103.783 83.6507 104.17 82.8507 104.625C80.0414 106.151 77.2507 106.475 74.4587 104.6C74.3254 104.513 74.1774 104.4 74.036 104.401C70.5614 104.412 67.3974 102.972 64.076 102.268C62.4907 101.932 60.8947 101.576 59.3707 101.039C58.0774 100.583 56.8787 99.8533 55.5614 99.2067V100.064C55.5614 111.525 55.5614 122.986 55.5614 134.445C55.5614 137.169 53.6014 140.02 51.064 140.579C46.3067 141.631 42.6787 139.027 42.5507 134.277C42.4174 129.255 42.5067 124.225 42.5 119.2V118C41.1134 118 39.8414 118 38.5707 118C34.884 117.989 32.8854 116.032 32.8534 112.327C32.7867 104.806 32.7392 97.2836 32.7107 89.76C32.6987 83.832 38.0707 77.9587 43.9427 77.312C49.2934 76.7214 53.4334 78.7907 56.7667 82.8573C58.4494 84.9093 60.2334 86.8773 61.9974 88.8573C62.2449 89.1344 62.5607 89.3417 62.9134 89.4587C67.5094 90.8494 72.1134 92.228 76.72 93.5627C77.1774 93.696 77.7267 93.4653 78.2267 93.4987C82.876 93.8053 86.9107 91.468 91.2627 90.504C93.0467 90.104 94.3827 89.144 95.6787 87.8827C98.5174 85.116 101.307 82.2373 104.471 79.8827C112.281 74.06 124.432 77.3227 126.96 88.3534C127.132 89.1669 127.215 89.9966 127.209 90.828C127.255 95.9494 127.315 101.072 127.277 106.193C127.255 109.527 125.888 112.164 122.877 113.825C122.518 114.015 122.225 114.31 122.037 114.671C120.133 119.004 118.267 123.364 116.371 127.709C115.072 130.684 113.735 133.644 112.417 136.612C111.277 139.176 109.617 139.869 107.019 138.753C103.011 137.033 99.0294 135.255 95.0374 133.497C93.812 132.964 92.5774 132.44 91.372 131.86C89.3334 130.879 88.684 129.145 89.6 127.099C92.7885 119.976 95.9845 112.858 99.188 105.744C99.6294 104.759 100.141 103.877 101.303 103.575C101.472 103.532 101.681 103.213 101.684 103.02C101.712 101.041 101.701 99.0667 101.701 96.9107ZM73.5854 96.0307C73.4079 95.9349 73.2244 95.8507 73.036 95.7787C69.824 94.8654 66.62 93.924 63.3947 93.0627C61.5547 92.5707 60.0614 91.7294 58.8307 90.1827C56.9067 87.7547 54.8907 85.372 52.68 83.2067C49.7854 80.3733 46.2107 79.6507 42.4134 81.0733C38.5867 82.5093 36.4227 85.4307 35.9827 89.4934C35.7974 91.2014 35.9187 92.944 35.9214 94.672C35.9303 100.499 35.9449 106.325 35.9654 112.151C35.9654 114.037 36.6947 114.777 38.54 114.776H43.5347C45.208 114.776 45.6227 115.188 45.6347 116.865C45.6792 122.724 45.7236 128.582 45.768 134.44C45.7827 136.424 47.7454 137.997 49.6987 137.58C51.272 137.245 52.4094 136.075 52.4014 134.064C52.3498 122.443 52.3525 110.822 52.4094 99.2014C52.4187 97.5574 52.26 96.1854 50.7667 95.2587C50.6363 95.1655 50.5208 95.0531 50.424 94.9254C49.8427 94.2414 49.7574 93.0413 50.252 92.54C50.8214 91.9613 51.6787 91.972 52.5187 92.6C53.3587 93.228 54.1574 93.9334 55.0267 94.5267C57.2134 96.0214 59.1427 97.86 61.9454 98.416C65.4547 99.1067 68.8894 100.172 72.4654 101.104C71.916 99.1734 72.572 97.5853 73.5854 96.0307ZM115.353 108.191C114.708 107.257 114.153 106.324 113.487 105.497C112.501 104.297 111.097 103.912 109.677 104.297C107.443 104.903 105.257 105.7 103.081 106.501C102.571 106.712 102.154 107.099 101.905 107.592C99.2387 113.439 96.6214 119.308 93.9894 125.172C93.456 126.352 92.9227 127.529 92.348 128.801L109.067 136.116C109.151 136.011 109.228 135.9 109.296 135.784C112.42 128.744 115.538 121.702 118.652 114.657C118.755 114.425 118.8 114.06 118.688 113.857C118.155 112.924 117.561 112.02 117.003 111.129C115.495 111.548 114.117 111.712 113.116 113.217C112.065 114.799 109.743 114.676 108.367 113.379C106.991 112.081 106.871 110.029 108.1 108.531C109.213 107.171 111.341 106.84 112.633 108.012C113.536 108.847 114.316 108.627 115.353 108.191ZM120.953 111.365C123.275 109.983 124.277 108.124 124.185 105.499C124.016 100.699 124.052 95.8987 123.971 91.0987C123.969 90.206 123.86 89.3169 123.644 88.4507C121.523 80.472 111.623 77.584 105.359 83.1587C102.181 85.9854 99.1627 88.988 96.0254 91.8653C95.4426 92.3938 94.7553 92.794 94.008 93.04C90.8987 94.0387 87.7614 94.948 84.7854 95.84C85.1454 97.2227 85.496 98.5733 85.852 99.932C89.3187 98.8547 92.848 97.7733 96.3614 96.6574C96.9403 96.4863 97.4849 96.2156 97.9707 95.8573C99.0113 95.0651 100.001 94.2078 100.933 93.2907C101.419 92.8027 101.733 92.1254 102.052 91.4947C102.371 90.864 102.719 90.3454 103.532 90.3614C104.345 90.3774 104.832 90.808 105.019 91.5813C105.08 91.8291 105.111 92.0835 105.109 92.3387C105.079 94.5773 105.032 96.816 105.003 99.056C104.988 100.123 105.003 101.2 105.003 102.372C105.869 102.131 106.668 101.931 107.448 101.673C107.608 101.62 107.753 101.372 107.812 101.185C108.78 98.1187 110.725 96.1067 114.007 95.708C120.085 94.9707 124.313 99.2747 122.652 105.308C122.173 107.041 121.16 108.451 119.852 109.695C120.235 110.279 120.58 110.8 120.949 111.365H120.953ZM79.0254 96.6667C78.7695 96.6723 78.514 96.691 78.26 96.7227C76.2947 97.0227 74.892 99.16 75.532 100.867C75.932 101.933 76.9547 102.743 78.084 102.656C79.048 102.581 80.0534 102.421 80.9334 102.048C82.16 101.529 82.7214 100.039 82.4 98.736C82.0867 97.4667 80.984 96.7574 79.0254 96.6667ZM111.359 101.067C113.068 101.265 114.537 101.767 115.567 102.959C116.565 104.116 117.36 105.449 118.304 106.788C119.413 104.981 120.547 103.223 119.511 101.073C118.667 99.3 117.013 98.8827 115.2 98.8174C113.485 98.756 112.277 99.4587 111.359 101.059V101.067Z" fill="#3A3A3A"/>
<path d="M77.0894 46.956C74.3507 47.0573 71.7627 47.1426 69.176 47.2533C67.4507 47.328 65.7267 47.4293 64.004 47.54C63.2934 47.5853 62.7427 47.3853 62.4427 46.704C62.1427 46.0226 62.2414 45.4226 62.7467 44.8546C66.72 40.384 70.7107 35.9213 74.644 31.4226C77.8667 27.7333 81.016 24 84.1814 20.2666C85.0774 19.2106 85.6374 18.952 86.4094 19.3826C87.2734 19.864 87.468 20.736 86.976 21.9866C85.1476 26.6346 83.3174 31.2822 81.4854 35.9293C81.396 36.16 81.324 36.3973 81.2187 36.7093C84.3387 36.576 87.3654 36.4426 90.3907 36.3093C91.668 36.2506 92.9454 36.1666 94.2227 36.108C94.8894 36.0773 95.6507 36.192 95.8227 36.876C95.956 37.4093 95.8227 38.2093 95.4787 38.6226C92.7667 41.9386 89.9814 45.1946 87.212 48.464C82.604 53.904 77.9947 59.3431 73.384 64.7813C72.7587 65.5213 72.0507 65.744 71.384 65.3466C70.6854 64.9306 70.4427 64.1333 70.7787 63.264C72.7778 58.1031 74.78 52.9431 76.7854 47.784C76.868 47.5466 76.9547 47.312 77.0894 46.956ZM77.6 54.572L77.7254 54.6386L90.392 39.6333C90.068 39.6333 89.8587 39.6266 89.648 39.6333C86.132 39.7666 82.6174 39.9293 79.1014 40.0333C77.4694 40.0813 76.852 39.1186 77.4507 37.5893C77.7987 36.7013 78.1667 35.8186 78.5174 34.9306C79.1947 33.2053 79.864 31.476 80.6374 29.492L67.764 44.06C71.3334 43.9133 74.6974 43.8653 78.0414 43.608C80.8254 43.3946 81.5974 44.252 80.604 46.8733C79.6294 49.4493 78.604 52.0066 77.6 54.572Z" fill="#F7931B"/>
<path d="M100.3 63.6987C100.071 57.0693 105.933 51.42 112.713 51.496C118.504 51.56 124.873 56.364 124.88 63.864C124.88 70.8667 119.221 76.2427 112.419 76.1907C106.281 76.1427 100.068 70.8 100.3 63.6987ZM112.54 54.8253C107.649 54.7947 103.607 58.8187 103.568 63.7507C103.532 68.712 107.621 72.8933 112.535 72.9173C117.448 72.9413 121.601 68.9173 121.665 64.1253C121.733 58.7893 117.275 54.6667 112.54 54.8253Z" fill="#3A3A3A"/>
<path d="M58.8707 63.8187C58.9307 70.3387 53.544 75.952 47.344 76.1987C40.3494 76.476 34.3334 70.9413 34.3 63.812C34.2707 57.376 39.6907 51.8253 45.8454 51.5107C53.0667 51.1427 59.0814 57.0947 58.8707 63.8187ZM46.652 72.9213C51.5254 72.9213 55.8054 68.6707 55.74 63.8027C55.668 58.4093 50.9147 54.7787 46.6454 54.7707C42.408 54.7707 37.6014 58.2587 37.5787 63.9947C37.56 68.8067 41.82 72.924 46.652 72.9213Z" fill="#3A3A3A"/>
</svg>
