<svg width="160" height="160" viewBox="0 0 160 160" fill="none" xmlns="http://www.w3.org/2000/svg">
<path d="M126.348 37.7694C126.356 37.7454 126.363 37.7214 126.368 37.6987C126.479 37.2454 126.195 36.9227 125.96 36.5814L125.775 36.3947L125.36 35.984C125.112 35.8497 124.909 35.647 124.773 35.4C124.035 34.6614 123.297 33.9267 122.56 33.188C122.365 32.9947 122.169 32.7987 121.976 32.6027C121.038 31.6676 120.1 30.7298 119.161 29.7894C118.846 29.5886 118.579 29.3215 118.377 29.0067C117.587 28.33 116.851 27.5922 116.176 26.8L115.001 25.7507L114.8 25.556C114.798 25.5331 114.794 25.5104 114.788 25.488C114.773 25.4904 114.758 25.4945 114.744 25.5L114.736 25.492L114.696 25.4574C114.387 25.1054 114.075 24.7534 113.763 24.4014L113.579 24.2174C113.239 23.88 112.901 23.5427 112.561 23.2067L111.98 22.624C111.727 22.4842 111.519 22.2757 111.38 22.0227C111.055 21.8109 110.777 21.534 110.564 21.2094C110.391 21.0667 110.216 20.9254 110.044 20.7827C110.008 20.7267 109.975 20.668 109.943 20.608C109.939 20.6025 109.936 20.5971 109.932 20.592C109.892 20.5206 109.835 20.4598 109.767 20.4147C109.633 20.3534 109.512 20.2894 109.387 20.2254C109.352 20.1698 109.328 20.109 109.313 20.0454C108.933 20.0094 108.609 19.6734 108.193 19.8387C107.729 19.8267 107.26 19.8094 106.804 19.8067C101.07 19.7934 95.3365 19.7822 89.604 19.7734H89.204L85.204 19.8387C84.804 19.8267 84.412 19.8067 84.0147 19.8067C79.348 19.7934 74.6813 19.7814 70.0147 19.7707C69.6147 19.7707 69.2147 19.7707 68.8147 19.7707H48.6253L40.4333 19.836H40.4093C39.6848 19.779 38.9579 19.9113 38.3 20.22H38.2933C38.1561 20.276 38.0225 20.3406 37.8933 20.4134C37.8923 20.4129 37.8912 20.4126 37.89 20.4126C37.8889 20.4126 37.8877 20.4129 37.8867 20.4134C37.6733 20.4747 37.4613 20.5387 37.2453 20.6027L37.1413 20.724C37.1133 20.76 37.0813 20.7947 37.0507 20.8307L36.4427 21.1507C36.3093 21.244 36.176 21.34 36.0427 21.436C35.9573 21.6427 35.8707 21.8507 35.6427 21.9107C35.6194 21.9159 35.5958 21.919 35.572 21.92C35.5873 21.9432 35.6091 21.9613 35.6347 21.972C35.448 22.1414 35.2613 22.3134 35.0747 22.484C34.7987 22.6494 34.8227 22.9694 34.6973 23.2134L34.6267 23.184C33.9147 24.5507 33.6293 26 33.6453 27.544C33.6733 30.5534 33.6333 33.564 33.6213 36.572V105.867C33.6213 109.333 33.6213 112.796 33.6213 116.255C33.6213 116.388 33.6213 116.521 33.6213 116.655V130.824C33.656 132.803 33.5733 134.804 34.5973 136.617C34.6209 136.638 34.6387 136.664 34.6492 136.694C34.6597 136.723 34.6625 136.755 34.6573 136.785C34.6793 136.863 34.7222 136.934 34.7813 136.989C34.8214 137.013 34.8691 137.021 34.9147 137.011C34.984 137.181 35.0347 137.367 35.2387 137.435C35.2707 137.491 35.3067 137.545 35.34 137.597C35.4698 137.795 35.6259 137.975 35.804 138.131C35.82 138.156 35.8333 138.184 35.848 138.212C35.9394 138.36 36.0511 138.495 36.18 138.612L36.8333 139.025C36.9013 139.097 36.9667 139.172 37.04 139.244L38.2253 139.813L38.6413 140.029C39.92 140.224 41.212 140.233 42.508 140.233H117.513C118.047 140.233 118.58 140.233 119.113 140.224C119.176 140.224 119.237 140.224 119.3 140.224C119.93 140.208 120.558 140.148 121.179 140.043L121.387 140.015L122.368 139.588L122.968 139.175L123.168 139.183C123.301 139.076 123.447 138.972 123.585 138.867C123.719 138.719 123.86 138.571 123.997 138.423L124.352 138.205C124.401 138.125 124.452 138.047 124.501 137.969L124.585 137.836C124.784 137.632 124.982 137.427 125.177 137.22C125.229 137.087 125.279 136.947 125.331 136.808C125.759 136.207 125.955 135.499 126.211 134.821C126.326 134.285 126.381 133.738 126.375 133.189C126.376 133.166 126.376 133.143 126.375 133.12C126.375 133.119 126.376 133.117 126.376 133.116C126.376 133.115 126.375 133.113 126.375 133.112C126.375 133.111 126.376 133.109 126.376 133.108C126.376 133.107 126.375 133.105 126.375 133.104C126.375 132.893 126.375 132.681 126.375 132.472C126.375 107.494 126.375 82.5165 126.375 57.5387C126.377 50.9431 126.368 44.3534 126.348 37.7694ZM39.6667 23.4107C40.4565 23.2993 41.2531 23.2432 42.0507 23.2427C63.344 23.248 84.6378 23.248 105.932 23.2427C105.952 26.8382 105.97 30.4342 105.988 34.0307C105.988 34.4934 106.008 34.944 106.221 35.364C106.58 36.9134 107.489 38.0627 108.797 38.9267C109.731 39.6157 110.865 39.9791 112.025 39.9614L122.959 39.968C122.959 40.3334 122.976 40.7 122.976 41.0654C122.976 71.4094 122.984 101.754 123 132.099C123 134.319 122.476 135.824 119.916 136.783C119.516 136.793 119.116 136.811 118.716 136.811C93.0084 136.811 67.3005 136.815 41.592 136.823C40.608 136.823 39.6907 136.669 38.8253 136.213C38.0907 135.689 37.6373 134.953 37.2547 134.16C37.2333 133.093 37.1933 132.027 37.1933 130.969C37.1933 96.6351 37.1933 62.3 37.1933 27.964C37.1933 27.1054 37.1453 26.2414 37.4373 25.4094C37.9684 24.539 38.7437 23.8439 39.6667 23.4107ZM109.576 25.22C110.648 26.4007 111.779 27.5257 112.965 28.5907L117.365 32.9827C118.5 34.1702 119.636 35.3578 120.773 36.5454C118.24 36.5454 115.707 36.5227 113.183 36.5614C112.259 36.5734 111.407 36.428 110.613 35.96L109.6 34.748C109.529 34.364 109.4 33.9827 109.397 33.5987C109.389 30.7987 109.408 27.9987 109.416 25.1987C109.47 25.1983 109.524 25.2054 109.576 25.22Z" fill="#3A3A3A"/>
<path d="M69.884 114.016C69.884 113.307 69.628 113.239 69.04 113.24C63.984 113.26 58.9293 113.26 53.876 113.24C53.184 113.24 52.9973 113.392 53.004 114.099C53.0373 119.016 53.0533 123.932 52.996 128.848C52.984 129.855 53.2213 130.237 54.22 129.999H69.6133C70.0613 129.928 69.84 129.579 69.84 129.371C69.8573 124.248 69.8413 119.132 69.884 114.016ZM67.0293 126.407C67.0293 127.065 66.8533 127.225 66.2013 127.217C62.752 127.181 59.304 127.197 55.8546 127.197C55.8453 123.743 55.8453 120.292 55.8146 116.84C55.8146 116.34 55.9773 116.237 56.4373 116.241C59.96 116.265 63.484 116.264 67.0066 116.272C66.9813 116.301 66.9546 116.332 66.9333 116.361C66.9623 116.344 66.9873 116.32 67.0066 116.292C67.0093 119.661 66.9933 123.035 67.0293 126.407Z" fill="#3A3A3A"/>
<path d="M53.008 93.456C53.008 94.0453 53.192 94.14 53.736 94.1373C58.8574 94.1133 63.9814 94.104 69.1054 94.1373C69.792 94.144 69.8254 93.9 69.824 93.3533C69.808 88.1693 69.824 82.9853 69.8014 77.8C69.8014 77.588 70.0134 77.2666 69.6134 77.1333H53.2254C52.856 77.2133 53.032 77.5093 53.032 77.6946C53.02 82.9533 53.032 88.204 53.008 93.456ZM66.8454 90.6786C66.8454 91.2866 66.5787 91.292 66.1387 91.2906C62.712 91.276 59.284 91.276 55.8547 91.272V91.1106C55.8547 87.748 55.8787 84.3853 55.8414 81.024C55.8334 80.3066 55.9667 80.0733 56.7427 80.0826C60.0934 80.1333 63.444 80.1066 66.7947 80.1066C66.7593 80.1246 66.7287 80.1506 66.7054 80.1826C66.7393 80.1593 66.7718 80.1339 66.8027 80.1066C66.8107 83.632 66.8 87.156 66.8454 90.6786Z" fill="#3A3A3A"/>
<path d="M58.2573 100.489C57.24 100.599 56.864 100.295 56.9827 99.2373C57.076 98.392 57.292 97.264 56.8667 96.732C56.4133 96.1667 55.2493 96.636 54.3973 96.5667C54.1307 96.544 53.864 96.5827 53.5973 96.548C53.1867 96.4947 53.0027 96.5907 53.0067 97.06C53.0293 99.252 53.0253 101.444 53.0067 103.636C53.0067 104.016 53.1053 104.137 53.5093 104.132C55.636 104.105 57.764 104.092 59.8907 104.132C60.4947 104.14 60.6107 103.912 60.5947 103.38C60.5667 102.429 60.5947 101.473 60.6107 100.52C59.8293 100.495 59.032 100.4 58.2573 100.489Z" fill="#3A3A3A"/>
<path d="M60.6453 100.485H60.6173V100.513H60.6453V100.485Z" fill="#3A3A3A"/>
<path d="M69.4667 107.656C68.6667 107.671 67.8667 107.631 67.076 107.672C66.5667 107.699 66.3707 107.559 66.4094 107.02C66.456 106.295 66.4094 105.561 66.4294 104.832C66.4414 104.432 66.376 104.233 65.896 104.248C64.14 104.296 62.3827 104.301 60.6254 104.325C60.4101 105.39 60.3993 106.486 60.5934 107.555L60.544 107.572V107.624C58.26 107.636 55.98 107.659 53.6987 107.652C53.228 107.652 52.9667 107.704 53.012 108.28C53.0747 109.069 53.0467 109.864 53.0587 110.657C53.1747 111.209 53.604 110.901 53.8587 110.903C58.408 110.923 62.9587 110.919 67.5094 110.917C70.2827 110.917 70.2667 110.917 70.0147 108.117C69.9774 107.679 69.8014 107.651 69.4667 107.656Z" fill="#3A3A3A"/>
<path d="M103.867 96.472C103.393 96.456 103.243 96.6054 103.251 97.0907C103.267 98.1454 103.215 99.2014 103.189 100.257C102.002 100.257 100.813 100.257 99.624 100.257C99.616 99.232 99.5987 98.2054 99.6027 97.1787C99.6027 96.824 99.624 96.5907 99.1067 96.596C95.628 96.6387 92.1453 96.6387 88.664 96.6507C88.644 94.9974 88.6427 93.344 88.596 91.692C88.5667 90.5427 89.092 88.9534 88.3907 88.3694C87.7093 87.8 86.1773 88.248 85.0173 88.2494C85.0075 85.7391 84.9964 83.228 84.984 80.716L81.6053 80.732C81.06 80.6187 81.2053 81.032 81.2053 81.2867C81.1933 82.3534 81.1987 83.42 81.1987 84.4787C80.2013 84.4894 79.1987 84.4693 78.204 84.5213C77.6707 84.5493 77.5373 84.388 77.5373 83.8547C77.5373 81.8253 77.4707 79.796 77.4627 77.7667C77.4627 77.2947 77.4227 77.0414 76.8427 77.0787C76.0133 77.1347 75.1773 77.1094 74.3453 77.0854C73.9453 77.0734 73.7547 77.1254 73.7627 77.6094C73.7947 79.7707 73.792 81.936 73.7747 84.096C73.7747 84.54 73.9147 84.672 74.344 84.656C75.076 84.628 75.8107 84.696 76.5413 84.6387C77.208 84.5867 77.4893 84.748 77.4333 85.484C77.3667 86.344 77.4333 87.2174 77.4413 88.0774C77.4293 88.1454 77.4173 88.2107 77.4067 88.2774C76.4133 88.2694 75.4173 88.2907 74.428 88.2387C73.8947 88.2093 73.7787 88.3867 73.784 88.8973C73.8147 91.1453 73.7667 93.3973 73.8227 95.6467C73.84 96.3933 73.664 96.7494 72.88 96.6334C70.388 96.548 67.8947 96.5534 65.4013 96.568C63.8564 96.5529 62.3115 96.54 60.7667 96.5293C60.7333 96.5293 60.6987 96.6254 60.6653 96.676C60.6582 97.9418 60.6515 99.208 60.6453 100.475C63.464 100.475 66.2853 100.475 69.104 100.444C69.6573 100.444 69.816 100.577 69.8333 101.147C69.8653 102.112 69.348 103.443 70.072 103.947C70.7467 104.413 72.0013 104.025 73.0053 104.059C73.4773 104.075 73.6453 103.943 73.6293 103.453C73.5933 102.456 73.6173 101.453 73.6173 100.46C74.684 100.452 75.7427 100.46 76.804 100.428C77.244 100.415 77.3373 100.54 77.3213 100.983C77.2693 102.341 77.292 103.705 77.2733 105.067C77.264 105.892 77.5493 107 77.1293 107.467C76.6373 108.019 75.5 107.673 74.6547 107.623C73.8093 107.572 73.5413 107.811 73.6467 108.647C73.7653 109.588 73.2467 110.893 73.8427 111.396C74.4187 111.876 75.68 111.612 76.6293 111.545C77.388 111.492 77.452 111.788 77.468 112.429C77.4893 113.417 77.2213 114.429 77.6173 115.399L81.0227 115.436C81.3373 116.369 81.048 117.345 81.168 118.291C81.248 118.925 81.004 119.059 80.4 119.052C78.2067 119.025 76.012 119.052 73.8173 119.068C73.684 119.068 73.5187 119.023 73.5173 119.212C73.5027 120.3 73.5173 121.388 73.4973 122.476C73.4893 122.923 73.8013 122.823 74.0413 122.825C75.0987 122.835 76.1533 122.825 77.212 122.825C77.212 124.023 77.212 125.22 77.212 126.416C76.88 126.416 76.5453 126.405 76.2133 126.416C75.324 126.456 74.0707 126.032 73.6427 126.572C73.1827 127.152 73.5293 128.341 73.4547 129.259C73.4053 129.883 73.6147 130.036 74.2227 130.024C76.252 129.987 78.2827 129.98 80.312 130.024C80.996 130.04 81.2453 129.877 81.196 129.16C81.1387 128.272 80.86 127.059 81.312 126.569C81.8373 126.001 83.0627 126.475 83.9787 126.385C84.7213 126.313 85.0707 126.489 84.964 127.329C84.876 128.016 84.988 128.727 84.9307 129.42C84.8867 129.936 85.0747 130.021 85.5347 130.017C87.564 129.996 89.5947 129.992 91.624 130.017C92.1173 130.017 92.2293 129.859 92.224 129.396C92.192 127.203 92.196 125.009 92.1853 122.813C92.3973 122.492 92.7187 122.657 92.9853 122.649C93.9893 122.616 94.9933 122.613 95.996 122.6C95.996 120.479 96.0347 118.357 95.9827 116.236C95.9667 115.515 96.1827 115.337 96.864 115.397C97.7453 115.475 98.64 115.452 99.5307 115.473L99.4933 115.499C99.4871 115.506 99.4817 115.513 99.4773 115.521L99.5587 115.473C99.5347 117.592 99.5133 119.711 99.4827 121.831C99.4827 122.032 99.4507 122.231 99.4267 122.436C99.4187 122.496 99.4133 122.553 99.4067 122.613C98.2769 122.619 97.1467 122.622 96.016 122.624C96.016 124.871 96.016 127.119 95.9947 129.365C95.9947 129.779 96.0027 130.032 96.556 130.019C99.9107 129.991 103.266 129.991 106.623 130.019C107.135 130.019 107.211 129.832 107.204 129.385C107.172 127.129 107.172 124.875 107.16 122.617C106.751 122.217 106.244 122.473 105.789 122.437C105.033 122.376 104.009 122.679 103.584 122.293C103.08 121.837 103.516 120.792 103.408 120.016C103.285 119.136 103.601 118.891 104.475 118.94C105.348 118.989 106.575 119.34 107.043 118.785C107.491 118.252 107.152 117.081 107.211 116.193C107.252 115.58 107.119 115.347 106.411 115.367C104.152 115.428 101.891 115.396 99.632 115.403C99.6213 114.144 99.612 112.889 99.6013 111.632C101.887 111.608 104.173 111.569 106.459 111.573C106.983 111.573 107.221 111.497 107.211 110.889C107.173 108.735 107.179 106.579 107.211 104.424C107.211 103.927 107.047 103.811 106.585 103.828C105.724 103.863 104.852 103.812 103.996 103.848C103.508 103.871 103.379 103.704 103.392 103.232C103.419 102.305 103.383 101.377 103.372 100.449C103.528 100.116 103.831 100.26 104.071 100.256C104.897 100.237 105.728 100.216 106.553 100.256C107.087 100.284 107.237 100.123 107.211 99.5893C107.165 98.732 107.177 97.8707 107.211 97.0107C107.224 96.5867 107.115 96.4254 106.663 96.4414C105.723 96.504 104.8 96.5027 103.867 96.472ZM102.563 122.631C103.057 122.615 103.259 122.724 103.229 123.271C103.173 124.271 103.189 125.271 103.181 126.275V126.427C102.184 126.427 101.181 126.403 100.192 126.441C99.7 126.461 99.5747 126.293 99.588 125.824C99.62 124.764 99.6 123.7 99.6 122.639H99.6747C100.637 122.641 101.6 122.667 102.563 122.631ZM88.576 117.241C88.576 115.453 88.576 115.453 90.3573 115.449C91.9973 115.449 91.9973 115.449 91.9973 117.087C91.9973 119.02 91.9973 119.02 90.016 119.015C89.917 119.007 89.8176 119.007 89.7187 119.015C88.7467 119.192 88.3947 118.783 88.572 117.836C88.5913 117.638 88.5927 117.439 88.576 117.241ZM102.677 107.684C101.68 107.66 100.677 107.659 99.688 107.647L99.664 107.611C99.6387 107.569 99.6181 107.524 99.6027 107.477C99.6027 106.568 99.6027 105.66 99.6027 104.751C99.6027 104.508 99.5453 104.243 99.6947 104.047C99.7497 103.978 99.8206 103.923 99.9013 103.888C100.903 104.031 101.901 103.943 102.909 103.908C102.909 103.933 102.909 103.961 102.909 103.988C103.004 103.961 103.096 103.932 103.188 103.9C103.209 104.989 103.208 106.079 103.268 107.167C103.289 107.672 103.051 107.695 102.677 107.684ZM99.6267 103.873L99.4933 103.86C99.5019 103.873 99.5117 103.886 99.5227 103.897C99.2473 103.963 98.9666 104.002 98.684 104.016C98.18 104.04 97.6733 104.004 97.168 103.993C96.7947 103.98 96.4209 103.998 96.0507 104.048C96.0507 103.84 96.0507 103.629 96.0427 103.421C96.0307 102.608 96.024 101.792 95.9907 100.977C95.9882 100.933 95.9882 100.888 95.9907 100.844V100.832C96.012 100.515 96.1707 100.412 96.5467 100.432C97.3733 100.461 98.204 100.469 99.0307 100.432C99.5067 100.409 99.564 100.624 99.5733 101.017C99.584 101.96 99.4507 102.92 99.6267 103.873ZM77.4333 88.312C78.46 88.3054 79.4907 88.324 80.516 88.284C81.028 88.264 81.2227 88.4054 81.1933 88.9507C81.1493 89.744 81.2213 90.544 81.1693 91.3347C81.1333 91.9187 81.2533 92.1667 81.9053 92.1107C82.6973 92.0454 83.5053 92.1267 84.292 92.0827C84.844 92.0534 85.0373 92.2067 85.016 92.784C84.9693 93.996 84.9973 95.212 84.996 96.4227L84.9613 96.3907H84.9493C84.964 96.4174 84.98 96.4414 84.996 96.4667C83.9293 96.4774 82.8773 96.5107 81.8173 96.4867C81.2933 96.4747 81.036 96.5494 81.096 97.1787C81.1693 97.9334 81.068 98.7027 81.12 99.46C81.1613 100.077 81.0413 100.352 80.3373 100.297C79.3827 100.225 78.416 100.269 77.4547 100.264C77.4616 100.258 77.4692 100.253 77.4773 100.249C77.4702 100.253 77.4625 100.255 77.4547 100.256C77.4493 96.2791 77.4422 92.3027 77.4333 88.3267V88.312ZM81.2 104.8C81.2 104.252 81.32 104.065 81.904 104.077C83.8293 104.116 85.7587 104.065 87.684 104.104C88.2493 104.116 88.5747 104.053 88.4533 103.393C88.432 103.228 88.432 103.061 88.4533 102.896C88.5133 102.044 88.12 100.679 88.6333 100.447C89.5467 100.035 90.7667 100.301 91.856 100.273C92.3053 100.261 92.1973 100.583 92.2 100.825C92.208 101.687 92.22 102.551 92.2 103.412C92.188 103.869 92.228 104.145 92.8213 104.108C93.8147 104.044 94.8133 104.072 95.808 104.061L95.82 104.081C95.9279 104.265 95.9823 104.476 95.9773 104.689C95.9358 104.965 95.9166 105.244 95.92 105.523C95.888 107.48 95.988 109.436 95.868 111.389C95.836 111.479 95.7861 111.562 95.7213 111.632C94.756 111.632 93.7867 111.62 92.8227 111.673H92.7253C92.5811 111.635 92.4399 111.587 92.3027 111.528C92.2993 111.525 92.2966 111.521 92.2947 111.517C92.2852 111.505 92.2767 111.491 92.2693 111.477C92.2054 111.321 92.182 111.152 92.2013 110.984C92.2267 110.06 92.1907 109.136 92.2147 108.213C92.2267 107.803 92.1373 107.621 91.6813 107.639C90.664 107.683 89.644 107.675 88.624 107.687H88.612C88.1653 108.672 88.448 109.712 88.448 110.717C88.448 111.316 88.3227 111.589 87.9213 111.651C87.7743 111.668 87.6257 111.668 87.4787 111.651C86.7293 111.589 85.9693 111.657 85.212 111.669C84.7787 111.559 84.812 111.857 84.812 112.127C84.812 113.023 84.788 113.921 84.8213 114.817C84.8413 115.292 84.704 115.447 84.216 115.429C83.224 115.396 82.2307 115.429 81.2373 115.429H81.2227C81.2107 111.895 81.2187 108.344 81.2 104.8ZM87.04 122.639C88.5427 122.639 88.5427 122.639 88.5173 124.46C88.4907 126.239 88.4907 126.239 86.672 126.239C85.064 126.239 85.064 126.239 85.072 124.649C85.0667 122.631 85.0667 122.631 87.0333 122.635L87.04 122.639Z" fill="#3A3A3A"/>
<path d="M64.2667 54.9467L75.3827 54.508C75.5827 54.6413 75.908 54.46 76.0413 54.768C75.96 55.232 75.5427 55.584 75.5947 56.0933L74.4547 59.1413C73.6369 61.1858 72.8191 63.2302 72.0013 65.2747C71.988 65.2747 71.9773 65.2907 71.968 65.3227C71.7584 65.6039 71.6322 65.9384 71.604 66.288C71.16 66.9773 70.916 67.7547 70.652 68.5173C70.556 68.7627 70.4667 69.0107 70.36 69.2507C70.0587 69.9427 70.0627 70.632 70.6013 71.1707C71.14 71.7093 71.788 71.564 72.4093 71.264C72.8253 71.1187 73.076 70.8107 73.2413 70.416C73.4373 70.188 73.6307 69.9587 73.8267 69.7293C73.9114 69.6876 73.9858 69.6277 74.0448 69.554C74.1038 69.4803 74.1459 69.3945 74.168 69.3027L74.8227 68.5227L75.1707 68.1027L75.8267 67.336C76.0661 67.1868 76.2527 66.9662 76.36 66.7053L77.0267 65.9347C77.2639 65.7841 77.4498 65.5651 77.56 65.3067L78.2267 64.532C78.3137 64.4928 78.391 64.435 78.4532 64.3627C78.5154 64.2903 78.561 64.2052 78.5867 64.1133C78.9227 63.7133 79.2533 63.3133 79.5933 62.9213L80.428 61.94C80.5133 61.8986 80.5887 61.8393 80.649 61.7662C80.7093 61.693 80.7531 61.6076 80.7773 61.516C80.996 61.26 81.2107 61.0013 81.4293 60.7467C81.6739 60.6029 81.8621 60.3799 81.9627 60.1147C82.1827 59.856 82.4027 59.596 82.6293 59.3387C82.714 59.2979 82.7888 59.2391 82.8482 59.1663C82.9077 59.0935 82.9504 59.0085 82.9733 58.9173L83.64 58.1493C83.8825 58.0037 84.07 57.782 84.1733 57.5187L84.84 56.7533C84.9291 56.7127 85.0087 56.6539 85.0737 56.5806C85.1387 56.5074 85.1876 56.4213 85.2173 56.328C85.556 55.928 85.896 55.54 86.2333 55.148C86.352 55.0067 86.4667 54.8667 86.5827 54.724C86.8667 54.4027 87.1533 54.0787 87.4373 53.7547C87.5248 53.7135 87.6025 53.6544 87.6655 53.5811C87.7285 53.5078 87.7752 53.422 87.8027 53.3293L88.6387 52.3627C88.9128 52.1883 89.1265 51.9336 89.2507 51.6333C89.5173 51.34 89.772 51.048 90.032 50.7533L90.4 50.332C90.7449 49.9436 91.0907 49.5551 91.4373 49.1667C91.7108 48.9868 91.924 48.729 92.0493 48.4267L92.6347 47.7667C94.04 46.388 94.204 45.888 93.6347 44.724C93.1627 44.14 92.5573 44.0147 91.8213 44.064C88.0307 44.312 84.2387 44.52 80.4453 44.7427C80.4933 44.5427 80.54 44.3427 80.588 44.144C80.7453 43.6996 80.9031 43.2551 81.0613 42.8107C81.2391 42.3911 81.4169 41.9711 81.5947 41.5507C82.1627 39.8973 82.7298 38.2431 83.296 36.588C84.124 34.9667 84.7147 33.2547 85.392 31.5667C85.584 31.188 85.792 30.8213 85.844 30.3867C85.9973 29.1133 84.92 28.2533 83.776 28.8093C83.2947 29.044 82.9147 29.4907 82.6227 29.9707L82.2853 30.3827L81.4293 31.36C81.1937 31.5101 81.0081 31.7268 80.896 31.9827L80.2293 32.748C79.9473 32.9135 79.7307 33.1711 79.616 33.4773L78.8 34.3587C78.5584 34.5051 78.369 34.7239 78.2587 34.984L77.2 36.16C76.9599 36.3043 76.7729 36.5222 76.6667 36.7813L75.8027 37.7507C75.5557 37.893 75.3626 38.1128 75.2533 38.376C74.9707 38.7 74.6893 39.0267 74.4053 39.352C74.1629 39.4946 73.9751 39.7143 73.872 39.976L73.0147 40.952C72.8947 41.092 72.776 41.232 72.656 41.3693L71.8107 42.3413C71.5681 42.4863 71.3805 42.7076 71.2773 42.9707C70.9893 43.2942 70.7022 43.6182 70.416 43.9427C70.1691 44.0828 69.9779 44.3036 69.8747 44.568L69.2 45.3333C68.932 45.5052 68.7191 45.7505 68.5867 46.04C68.124 46.536 67.6627 47.0307 67.2 47.5293C66.8175 47.8002 66.499 48.1516 66.2667 48.5587C65.848 49.0156 65.4293 49.4729 65.0107 49.9307C64.7667 50.0742 64.5755 50.2926 64.4653 50.5533L63.6093 51.524C63.476 51.6573 63.336 51.7973 63.2 51.936C62.5773 52.6627 62.2253 53.4347 62.8093 54.356C63.1307 54.96 63.6893 54.968 64.2667 54.9467ZM70.776 48.1467C71.0596 47.8222 71.3427 47.4982 71.6253 47.1747C71.8706 47.0318 72.0618 46.812 72.1693 46.5493L72.8293 45.784C73.0784 45.6416 73.2717 45.4188 73.3773 45.152L74.2227 44.1747C74.4216 44.0668 74.5711 43.8862 74.64 43.6707L75.424 42.7813C75.5255 42.727 75.6149 42.6525 75.6867 42.5624C75.7585 42.4723 75.8111 42.3685 75.8413 42.2573C76.036 42.0333 76.2293 41.8093 76.4253 41.5907L77.7867 39.968C77.9987 39.7107 78.2107 39.4507 78.4227 39.192C78.5089 39.151 78.5853 39.0919 78.6468 39.0187C78.7082 38.9455 78.7532 38.8601 78.7787 38.768L79.4213 37.988L79.6187 37.9747C79.0493 39.4147 78.4053 40.824 77.9907 42.3213C77.4453 43.3147 77.128 44.3987 76.748 45.46C76.5213 46.096 76.588 46.648 76.988 47.1747C77.0258 47.2657 77.0847 47.3464 77.1598 47.4101C77.2349 47.4739 77.3241 47.5188 77.42 47.5413C77.8813 47.9173 78.4253 47.9907 78.9973 47.9653C82.0658 47.8213 85.1351 47.6787 88.2053 47.5373C88.2262 47.5625 88.2525 47.5824 88.2824 47.5956C88.3122 47.6088 88.3447 47.6148 88.3773 47.6133C88.2507 47.7893 88.1253 47.9627 88.0013 48.1387C87.9163 48.1811 87.8417 48.2419 87.7829 48.3166C87.7241 48.3913 87.6826 48.478 87.6613 48.5707C87.508 48.76 87.3533 48.948 87.2013 49.1387C87.1159 49.1795 87.041 49.2395 86.9825 49.3139C86.924 49.3884 86.8834 49.4753 86.864 49.568C86.7093 49.76 86.5573 49.952 86.404 50.144C86.0867 50.544 85.7707 50.9573 85.452 51.364L85.004 51.9373C84.9191 51.9784 84.8444 52.0379 84.7853 52.1115C84.7263 52.185 84.6844 52.2709 84.6627 52.3627C84.5093 52.5533 84.3573 52.7427 84.2027 52.9307C84.1153 52.9711 84.0379 53.0304 83.9764 53.1045C83.9148 53.1785 83.8705 53.2654 83.8467 53.3587L83.0067 54.34C82.56 54.88 82.1093 55.4187 81.6613 55.9573C81.444 56.2173 81.228 56.4773 81.0107 56.74C80.56 57.2733 80.1098 57.8116 79.66 58.3547L79.0067 59.1267C78.9036 59.1729 78.8125 59.2421 78.7404 59.329C78.6683 59.4159 78.6171 59.5182 78.5907 59.628C78.3973 59.86 78.2013 60.0907 78.0053 60.32C77.916 60.358 77.8368 60.4164 77.7741 60.4905C77.7114 60.5646 77.6668 60.6523 77.644 60.7467L77.0053 61.516C76.872 61.5293 76.82 61.4533 76.8 61.3373C77.7173 59.1867 78.6827 57.0533 79.2733 54.7787C79.6427 54.4267 79.7093 53.9307 79.8573 53.4773C80.2493 52.2773 79.6187 51.2987 78.364 51.16C78.036 51.124 77.6973 51.152 77.3707 51.148C74.2573 51.1187 71.1547 51.5147 68.0373 51.324C68.076 51.0827 68.464 51.1547 68.452 50.868C68.7187 50.564 68.9693 50.2627 69.2293 49.9613C69.3427 49.828 69.4587 49.6853 69.5733 49.5467C69.7947 49.2907 70.0147 49.0333 70.24 48.7773C70.4815 48.6298 70.6676 48.4067 70.7693 48.1427L70.776 48.1467Z" fill="#F7931B"/>
<path d="M90.856 77.5653C90.856 82.9297 90.8613 88.2937 90.872 93.6573C90.872 93.8 90.7693 93.992 91.0053 94.0653C96.2053 94.084 101.392 94.096 106.584 94.1333C107.093 94.1333 107.001 93.8533 107.001 93.572C107.001 88.2804 107.001 82.9889 107.001 77.6973C107.001 77.316 106.975 77.096 106.485 77.0973C101.323 77.132 96.1627 77.1413 91.0013 77.16C90.78 77.2293 90.856 77.416 90.856 77.5653ZM93.804 91.28C93.804 87.504 93.8089 83.7262 93.8187 79.9466C93.877 79.9956 93.9422 80.036 94.012 80.0666C94.012 80.056 94.012 80.0466 94.012 80.036C94.0024 80.0059 93.9908 79.9765 93.9773 79.948C97.304 80.0066 100.627 80.0813 103.955 79.92C103.961 79.9259 103.967 79.9326 103.972 79.94C104.173 80.144 104.124 80.4053 104.124 80.66C104.124 83.9106 104.108 87.164 104.149 90.4146C104.157 91.1133 103.971 91.3 103.272 91.292C100.117 91.256 96.9626 91.28 93.8053 91.2813C93.8053 91.2813 93.812 91.2813 93.816 91.2733C93.8145 91.2752 93.8127 91.2767 93.8107 91.2779C93.8086 91.279 93.8063 91.2797 93.804 91.28Z" fill="#3A3A3A"/>
<path d="M85.0053 80.7026H84.984V80.7213H85.0053V80.7026Z" fill="#3A3A3A"/>
<path d="M88.604 80.276C88.604 79.4107 88.6107 78.5427 88.596 77.684C88.596 77.48 88.7227 77.1373 88.3747 77.128C87.308 77.096 86.168 76.8853 85.2093 77.204C84.664 77.388 85.076 78.5213 85.0133 79.2253C84.968 79.7133 85.0053 80.2093 85.0053 80.7027C86.06 80.728 87.1147 80.724 88.1653 80.796C88.6507 80.8307 88.6067 80.5787 88.604 80.276Z" fill="#3A3A3A"/>
<path d="M77.5094 100.217C77.4979 100.223 77.4872 100.23 77.4774 100.239L77.5014 100.231C77.5045 100.227 77.5072 100.222 77.5094 100.217Z" fill="#3A3A3A"/>
<path d="M96.02 122.611L96.0053 122.623H95.9893V122.647H96V122.627C96.0078 122.623 96.0147 122.617 96.02 122.611Z" fill="#3A3A3A"/>
<path d="M93.8147 91.276C93.8499 91.2616 93.8807 91.2381 93.904 91.208C93.8725 91.2283 93.8427 91.251 93.8147 91.276Z" fill="#3A3A3A"/>
<path d="M96.9333 88.904C98.196 88.872 99.4667 88.8333 100.725 88.916C101.533 88.9693 101.667 88.664 101.613 87.968C101.555 87.208 101.601 86.4387 101.599 85.6747C101.599 84.7747 101.575 83.8773 101.609 82.98C101.629 82.488 101.529 82.2733 100.967 82.292C99.5693 82.336 98.1667 82.3333 96.7733 82.292C96.24 82.2773 96.1893 82.4933 96.1933 82.932C96.2133 84.6947 96.2307 86.4587 96.1933 88.22C96.1653 88.84 96.408 88.916 96.9333 88.904Z" fill="#3A3A3A"/>
<path d="M103.793 90.6427L103.787 90.6547H103.793V90.6427Z" fill="#3A3A3A"/>
<path d="M63.8173 118.6C62.16 118.636 60.4987 118.643 58.8413 118.591C58.2747 118.572 58.192 118.772 58.212 119.257C58.244 120.057 58.22 120.849 58.22 121.645C58.22 122.507 58.244 123.368 58.2107 124.231C58.192 124.692 58.312 124.86 58.808 124.849C60.4969 124.82 62.1889 124.82 63.884 124.849C64.344 124.849 64.428 124.685 64.424 124.276C64.404 122.584 64.4 120.893 64.424 119.209C64.4333 118.723 64.312 118.591 63.8173 118.6Z" fill="#3A3A3A"/>
<path d="M63.8893 82.2894C62.2266 82.3174 60.5626 82.328 58.9 82.2894C58.3013 82.2734 58.1866 82.4854 58.208 83.024C58.248 83.9854 58.208 84.9507 58.2226 85.9147C58.2373 86.8787 57.884 88.1654 58.3693 88.7014C58.9293 89.3187 60.2426 88.864 61.2293 88.8854C62.288 88.9094 63.3506 88.8614 64.412 88.844V85.6H64.4733C64.4733 84.7027 64.4413 83.8027 64.4853 82.9067C64.5093 82.4214 64.3813 82.28 63.8893 82.2894Z" fill="#3A3A3A"/>
</svg>
