<svg width="160" height="160" viewBox="0 0 160 160" fill="none" xmlns="http://www.w3.org/2000/svg">
<path d="M103.784 96.2667C104.781 93.796 105.079 91.236 104.552 88.632C104.152 86.6707 103.485 84.7933 102.092 83.268C102.067 82.568 101.525 82.2013 101.117 81.7453C100.734 81.2361 100.281 80.7832 99.772 80.4C99.7362 80.3141 99.6797 80.2383 99.6076 80.1795C99.5355 80.1207 99.45 80.0805 99.3587 80.0627C98.9587 79.7253 98.5693 79.3627 98.0333 79.24C97.8227 78.8493 97.4693 78.692 97.052 78.64C96.3848 78.1836 95.6694 77.8022 94.9187 77.5027C94.9091 77.4439 94.9151 77.3837 94.936 77.328C95.2933 77.376 95.412 77.0107 95.6773 76.8987C96.3013 76.664 96.7027 76.1227 97.2427 75.772C97.7013 75.3827 98.2413 75.0653 98.4187 74.4307C99.0613 73.9813 99.4213 73.312 99.7307 72.6333C101.445 68.8733 101.452 65.0773 99.9013 61.2627C99.6667 60.6373 99.432 60.012 98.9813 59.4987C98.88 59.1133 98.608 58.8427 98.3493 58.5653C98.328 58.4756 98.2869 58.3918 98.229 58.32C98.1711 58.2483 98.0979 58.1904 98.0147 58.1507C97.5087 57.5053 96.9267 56.9233 96.2813 56.4173C96.2446 56.3316 96.1881 56.2557 96.1165 56.196C96.045 56.1362 95.9602 56.0942 95.8693 56.0733C95.6547 55.8613 95.4493 55.6333 95.1147 55.6267C94.7624 55.1959 94.3024 54.866 93.7813 54.6707C93.3813 54.3027 92.8947 54.1093 92.392 53.94C90.648 53.0427 88.7533 52.6533 86.836 52.3947C86.2093 52.3107 85.7493 52.1147 85.4253 51.5947C85.4253 49.54 85.404 47.484 85.4347 45.428C85.448 44.5587 85.092 44.2013 84.2267 44.2347C83.2933 44.272 82.36 44.2707 81.4267 44.2347C80.5213 44.2 80.1533 44.584 80.168 45.4907C80.1987 47.5773 80.1747 49.6653 80.168 51.7573C80.1032 51.7891 80.0499 51.8401 80.0153 51.9033C79.9807 51.9666 79.9665 52.039 79.9747 52.1107C79.74 52.204 79.5533 52.3773 79.2667 52.3773C77.8187 52.364 76.3707 52.3773 74.9213 52.3773C74.2693 52.3773 74.036 51.9667 73.9587 51.4013V49.6507L74 45.5067C74 45.1547 73.984 44.8093 73.6307 44.6027C73.5707 44.5413 73.5187 44.4493 73.4467 44.428C72.0747 44.028 70.6707 44.2853 69.2813 44.2773C69.0507 44.2773 68.7213 44.5813 68.756 44.976C68.512 45.2573 68.636 45.5933 68.6333 45.9027C68.62 47.5773 68.6333 49.252 68.6187 50.9267C68.6093 52.224 68.4573 52.3667 67.152 52.368C63.896 52.368 60.64 52.368 57.384 52.368C56.6267 52.368 55.9773 52.5813 55.968 53.4347C55.948 55.46 55.86 57.488 56.024 59.512C56.0827 59.8227 56.2907 59.9733 56.5787 60.0453L61.584 60.1467C62.332 60.4987 62.5987 61.0627 62.596 61.9067C62.5738 73.7555 62.5689 85.6049 62.5813 97.4547C62.5813 97.84 62.6013 98.2267 62.3667 98.564L62.176 98.7533C61.7613 99.084 61.2907 99.1853 60.7613 99.1747C59.6187 99.1507 58.4733 99.1747 57.3293 99.164C56.9147 99.164 56.4987 99.1387 56.2413 99.564C55.876 99.848 55.96 100.259 55.9573 100.631C55.9453 102.112 55.9493 103.593 55.9507 105.073C55.9507 106.624 56.184 106.849 57.728 106.857C61.208 106.876 64.6875 106.898 68.1667 106.923C68.628 107.323 68.612 107.856 68.628 108.404C68.6853 110.369 68.4573 112.344 68.748 114.305C68.8033 114.263 68.8493 114.211 68.883 114.15C68.9168 114.089 68.9375 114.022 68.944 113.953V113.929C68.9453 113.916 68.9453 113.904 68.944 113.891V113.813C68.944 113.385 68.944 112.956 68.9547 112.528C68.9547 112.828 68.9547 113.133 68.968 113.433V113.467C68.976 113.733 68.9893 114 69.008 114.267C69.008 114.344 69.0187 114.421 69.024 114.499C69.1093 114.676 69.2373 114.879 69.424 114.881C70.808 114.888 72.2053 115.148 73.572 114.72L73.592 114.691C73.5981 114.682 73.6035 114.672 73.608 114.663C73.608 114.672 73.608 114.68 73.608 114.689C73.608 114.724 73.608 114.76 73.608 114.796C74.0267 114.529 73.9987 114.119 73.9973 113.705C73.9973 111.633 73.9973 109.562 73.9973 107.491C74.0173 107.491 74.0347 107.472 74.052 107.435C74.0546 107.425 74.0546 107.416 74.052 107.407C74.3453 106.989 74.764 106.853 75.284 106.861C76.66 106.883 78.036 106.869 79.4173 106.871L80.0053 107.289C80.1827 107.644 80.1867 108.021 80.1853 108.409C80.1747 110.244 80.1853 112.077 80.1853 113.911C80.1853 114.659 80.496 115.056 81.2773 115.04C82.404 115.019 83.5307 115.016 84.656 115.004C85.3413 114.944 85.436 114.471 85.4347 113.916C85.4347 112.085 85.4347 110.253 85.4347 108.423C85.4347 108.036 85.4347 107.657 85.6347 107.311C85.9013 107.159 86.1147 106.921 86.476 106.911C89.5693 106.813 92.488 105.987 95.3067 104.753C95.8027 104.571 96.2907 104.373 96.6947 104.019C97.3733 103.695 98.028 103.339 98.5987 102.829L99.5747 102.076C100.229 101.579 100.817 100.999 101.323 100.352C101.408 100.314 101.484 100.257 101.544 100.185C101.604 100.113 101.646 100.028 101.668 99.9373C101.809 99.7489 101.95 99.56 102.091 99.3707L102.624 98.5827C102.807 98.3507 103 98.1227 103.053 97.8173C103.417 97.3547 103.617 96.816 103.792 96.264C103.752 96.1945 103.734 96.1146 103.74 96.0347C103.749 96.113 103.763 96.1906 103.784 96.2667ZM93.3947 94.1493C93.2507 94.3347 93.1093 94.5187 92.9667 94.7053C92.5747 95.096 92.1853 95.4853 91.7947 95.8773C91.608 96.0187 91.424 96.1613 91.2387 96.3053L90.448 96.8466C88.388 98.0013 86.1813 98.4547 83.8187 98.412C80.696 98.356 77.5747 98.3813 74.452 98.412C73.7453 98.412 73.208 98.228 72.8387 97.624C72.8387 92.928 72.8418 88.2315 72.848 83.5347C73.2 82.9667 73.6613 82.5467 74.372 82.572C79.0733 82.7373 83.8053 82.1213 88.4707 83.1413L90.46 84.06L91.2093 84.4853C91.2813 84.6813 91.4613 84.736 91.6293 84.8067C91.88 85.02 92.128 85.2333 92.3773 85.448C92.5733 85.6453 92.7693 85.848 92.9667 86.0427C93.3658 86.68 93.7658 87.316 94.1667 87.9507C94.9453 90.1493 94.68 92.2147 93.3947 94.1533V94.1493ZM89.68 63.592C89.8267 63.78 89.976 63.9653 90.1227 64.1533L91.024 65.74C91.5307 67.444 91.424 69.1013 90.6386 70.7053C90.624 70.7053 90.6147 70.7187 90.6053 70.748C90.36 71.06 90.1155 71.3733 89.872 71.688L89.472 72.088C89.0275 72.4187 88.5831 72.7511 88.1387 73.0853C86.737 73.8548 85.1846 74.3097 83.5893 74.4187C80.5933 74.6587 77.5893 74.4747 74.592 74.532C73.8347 74.5453 73.2173 74.3147 72.8507 73.5987C72.8507 69.6875 72.8507 65.7724 72.8507 61.8533C72.864 61.8533 72.8773 61.8373 72.8893 61.808C73.0867 61.5813 73.2893 61.3533 73.4787 61.1293C73.7893 61.0493 74.0987 60.8907 74.412 60.9027C78.3893 61.036 82.3893 60.5027 86.3467 61.2813C87.6072 61.8099 88.7427 62.5971 89.68 63.592ZM103.848 87.4587C103.835 87.4555 103.822 87.4514 103.809 87.4467C103.809 87.4253 103.819 87.4067 103.823 87.3813L103.848 87.4587ZM56.2013 100.159C56.2013 100.159 56.1907 100.168 56.188 100.173V100.148L56.2013 100.159ZM68.9627 109.711V109.644C68.9533 109.151 68.932 108.655 68.8933 108.161C68.9332 108.281 68.957 108.405 68.964 108.531V108.549C68.9727 108.704 68.9727 108.86 68.964 109.015C68.964 109.052 68.964 109.088 68.964 109.125C68.964 109.201 68.964 109.275 68.964 109.348V109.455C68.964 109.693 68.9733 109.931 68.9733 110.171C68.9707 110.019 68.968 109.867 68.9627 109.711ZM80 133.743C65.6453 133.743 52.1493 128.152 42 118.001C31.8507 107.851 26.2573 94.3547 26.2573 80C26.2573 65.6453 31.848 52.1493 42 42C52.152 31.8507 65.6453 26.2573 80 26.2573C94.3547 26.2573 107.851 31.848 118 42C128.149 52.152 133.741 65.6467 133.741 80C133.741 94.3533 128.152 107.851 118 118C107.848 128.149 94.3547 133.743 80 133.743ZM80 31.1C53.036 31.1 31.1 53.036 31.1 80C31.1 106.964 53.036 128.9 80 128.9C106.964 128.9 128.9 106.964 128.9 80C128.9 53.036 106.964 31.1 80 31.1Z" fill="#F7931B"/>
</svg>
