<svg width="160" height="160" viewBox="0 0 160 160" fill="none" xmlns="http://www.w3.org/2000/svg">
<path d="M115.565 76.5333C115.032 76.6267 114.44 76.3 113.987 76.8093C113.487 77.2093 113.453 77.6893 113.729 78.2293C113.764 78.2813 113.8 78.332 113.836 78.3827C114.017 78.756 114.351 78.796 114.716 78.8226C115.192 78.856 115.683 78.7013 116.143 78.9333C116.187 79.5907 115.947 80.2667 116.305 80.9027C116.353 81.0477 116.441 81.1761 116.559 81.2727C116.677 81.3693 116.82 81.4301 116.972 81.448C118.013 81.5213 118.373 81.2027 118.401 80.1667C118.413 79.724 118.401 79.28 118.401 78.8333L118.668 78.7747C119.039 78.784 119.411 78.7746 119.781 78.8053C120.385 78.8426 120.769 78.532 120.927 77.9987C121.084 77.4653 120.979 76.94 120.383 76.6653C120.153 76.4187 119.849 76.5387 119.592 76.532C118.465 76.5173 118.472 76.5253 118.443 75.4187C118.429 74.8667 118.471 74.28 117.817 74.0067C116.849 73.6067 116.144 74.0413 116.127 75.0733C116.127 75.4733 116.141 75.86 116.149 76.2533C116.108 76.68 115.785 76.4987 115.565 76.5333Z" fill="#3A3A3A"/>
<path d="M137.272 34.9334C136.989 33.3334 136.113 32.1933 134.605 31.5533C131.769 30.556 128.811 30.064 125.891 29.412C125.767 29.2627 125.6 29.2894 125.437 29.2987C125.297 29.3042 125.157 29.2961 125.019 29.2747C122.188 28.5867 119.365 27.8547 116.524 27.212C114.572 26.7694 112.645 26.1814 110.635 26.0227C110.567 25.8427 110.387 25.824 110.244 25.792C108.303 25.36 106.359 24.9387 104.415 24.5134C104.229 24.5191 104.043 24.508 103.859 24.48C101.592 23.9387 99.3254 23.36 97.0587 22.8493C95.008 22.3893 92.976 21.832 90.8934 21.516C90.8358 21.4602 90.7649 21.4199 90.6875 21.3992C90.61 21.3784 90.5285 21.3778 90.4507 21.3973C90.3696 21.3506 90.2838 21.3126 90.1947 21.284C87.9574 20.8014 85.724 20.3053 83.4827 19.8493C81.4147 19.428 79.3494 19.3254 77.332 20.128C76.48 20.352 75.7027 20.7613 74.896 21.0973C71.9458 22.3213 68.9969 23.5556 66.0494 24.8L58.5094 27.9894C58.4157 27.9882 58.3223 28.0003 58.232 28.0254C55.4703 29.1862 52.7103 30.3507 49.952 31.5187L41.7827 34.956C40.3694 35.5267 38.896 35.9894 37.8214 37.1667C36.8107 38.18 36.5174 39.448 36.524 40.8214C36.548 45.4249 36.5743 50.0289 36.6027 54.6334C36.6027 55.2867 36.548 55.9454 36.6907 56.5934L36.7227 71.1894C36.7227 74.5854 36.7227 77.9894 36.7307 81.3787C36.7307 81.9854 36.7054 82.5947 36.7654 83.2C36.7562 83.3642 36.7793 83.5287 36.8334 83.684C36.7894 83.7307 36.7 83.784 36.708 83.8174C36.9107 85.196 36.6734 86.5907 36.852 87.9694C37.104 88.9174 37.7547 89.2174 38.672 88.8094C38.7716 88.7822 38.8621 88.7291 38.9345 88.6556C39.0069 88.582 39.0585 88.4906 39.084 88.3907C39.4147 87.94 39.3774 87.416 39.3747 86.9027C39.3027 75.3587 39.2298 63.8134 39.156 52.2667C39.1347 49.0667 39.1147 45.8702 39.096 42.6773C39.0774 42.708 39.0574 42.7387 39.0374 42.7694C39.0401 42.7507 39.0468 42.7329 39.0569 42.7171C39.067 42.7012 39.0803 42.6877 39.096 42.6773C39.108 41.936 39.1427 41.1934 39.124 40.452C39.1 39.456 39.5534 39.008 40.5107 39.136C41.552 39.5733 42.6734 39.6933 43.76 39.948C45.3947 40.3307 47.0467 40.6347 48.6934 40.972C48.848 41.02 49.0014 41.0814 49.16 41.116C52.436 41.828 55.7174 42.5227 58.988 43.2587C59.5987 43.392 60.1467 43.4294 60.6814 43.0854C61.308 42.7854 61.312 42.2174 61.2414 41.6627C61.1707 41.108 60.8267 40.7987 60.284 40.6947C59.852 40.6133 59.4214 40.5253 58.9907 40.44C57.416 40.0533 55.8374 39.6933 54.2147 39.5667C54.1587 39.4053 54.024 39.4014 53.8814 39.3747C52.236 39.064 50.5654 38.8413 48.948 38.4027C47.5147 38.0107 46.0614 37.7627 44.616 37.4494C44.2414 37.1827 43.7414 37.4027 43.3294 37.088L46.0547 35.9293L52.7747 33.2094C53.7949 32.8561 54.7924 32.4402 55.7614 31.964C56.236 31.7867 56.716 31.6267 57.1827 31.4307C59.3374 30.5267 61.4898 29.6178 63.64 28.704L65.0547 28.1334C65.3714 28.0632 65.6707 27.9299 65.9347 27.7414C66.5814 27.492 67.24 27.268 67.872 26.9867C69.5214 26.252 71.24 25.6787 72.8387 24.8307C74.0289 24.4494 75.1902 23.9828 76.3134 23.4347C78.6454 22.3373 81.008 21.8773 83.564 22.62C85.076 23.06 86.648 23.2867 88.1934 23.6174L90.1694 24.048C91.848 24.4827 93.536 24.8827 95.248 25.172C97.3307 25.6493 99.4107 26.132 101.496 26.6C102.985 26.9334 104.48 27.2453 105.972 27.568C107.83 27.9982 109.688 28.4285 111.545 28.8587C114.577 29.5574 117.609 30.2542 120.641 30.9493C122.833 31.44 125.029 31.912 127.215 32.428C128.883 32.828 130.576 33.112 132.204 33.6694C132.137 33.8427 131.975 33.864 131.829 33.936C131.188 34.2387 130.508 34.4694 129.945 34.9267C129.9 34.9774 129.856 35.028 129.812 35.0773C129.652 35.092 129.472 35.064 129.335 35.128C126.668 36.3725 124.006 37.6253 121.349 38.8867L115.283 41.716L112.883 42.844L103.432 47.352C102.816 47.628 102.161 47.8374 101.596 48.1947C100.997 48.5734 100.672 48.3667 100.248 47.928C99.1122 46.7148 97.8077 45.6712 96.3747 44.8294C96.0947 44.6547 95.82 44.4707 95.5334 44.3094C94.6987 43.844 93.9654 43.18 92.988 42.988C91.8947 42.3387 90.6934 41.984 89.4614 41.7174C88.1814 41.3599 86.8608 41.169 85.532 41.1493C83.9814 41.1027 82.424 41.0427 80.8787 41.2694C80.2374 41.0027 79.596 41.136 78.9547 41.2613L77.7547 41.2974C77.3014 41.2787 76.8454 41.24 76.4067 41.4067C75.696 41.3973 74.9814 41.3547 74.3107 41.6493C74.2756 41.658 74.2426 41.6734 74.2134 41.6947C72.3467 41.6547 70.6067 42.2427 68.872 42.84C67.6371 43.2066 66.4521 43.7243 65.344 44.3813C63.4563 45.3561 61.7189 46.5977 60.1854 48.068C59.3574 48.8454 58.4734 49.5827 57.8547 50.5613C57.1998 51.2452 56.6397 52.0138 56.1894 52.8467C55.5147 53.748 55.02 54.7547 54.556 55.7693C53.7854 57.4574 53.096 59.18 52.8027 61.0294C52.7494 61.208 52.6827 61.3827 52.6454 61.5627C51.9427 64.9467 51.9094 68.3547 52.3787 71.7667C52.6814 73.988 53.1787 76.1667 54.084 78.2334C55.4347 81.7347 57.352 84.88 59.9707 87.5827C60.4857 88.1926 61.0542 88.7553 61.6694 89.264C62.5685 90.1144 63.5548 90.8674 64.612 91.5107C65.088 91.9187 65.636 92.212 66.1827 92.5094C67.4957 93.2928 68.8867 93.9372 70.3334 94.432C71.5147 94.8494 72.7 95.2654 73.952 95.4294C74.2027 95.484 74.452 95.5494 74.7054 95.5934C78.0774 96.1854 81.4814 96.2294 84.8854 96.1174C87.0987 96.044 89.3054 95.804 91.4414 95.1547C93.7734 94.648 95.8734 93.6094 97.864 92.328C99.2018 91.4633 100.425 90.4329 101.504 89.2614C101.541 89.6974 101.568 89.9907 101.593 90.284C101.468 90.5267 101.505 90.7907 101.505 91.0454C101.505 96.1414 101.505 101.236 101.505 106.331C101.485 106.686 101.493 107.043 101.529 107.397V107.411C101.534 107.496 101.554 107.58 101.588 107.659C101.531 108.242 101.537 108.829 101.604 109.411C101.604 109.881 101.611 110.352 101.613 110.823C101.613 111.585 102.037 112.156 102.653 112.233C103.372 112.319 103.928 111.885 104.072 111.092C104.117 110.791 104.133 110.486 104.121 110.181C104.095 106.172 104.066 102.162 104.036 98.1534C104.023 95.8587 104.025 93.5627 104.02 91.2667C104.048 89.6974 104.085 88.1267 104.103 86.556C104.105 86.2302 104.205 85.9124 104.389 85.644C104.789 85.024 105.305 84.464 105.528 83.7347C105.795 83.2814 106.091 82.8427 106.319 82.3707C107.89 79.1204 108.817 75.5963 109.048 71.9934C109.269 68.7747 109.095 65.564 108.349 62.4094C108.225 61.888 108.281 61.28 107.816 60.8694C107.732 60.1693 107.559 59.4828 107.301 58.8267C106.508 56.6798 105.488 54.6237 104.259 52.6934C104.017 52.324 103.788 51.9454 103.532 51.5854C102.755 50.5 102.764 50.5307 104.003 49.956C107.927 48.1347 111.857 46.332 115.716 44.3747C117.552 43.6894 119.271 42.744 121.056 41.948C121.763 41.7106 122.441 41.3935 123.076 41.0027C123.326 40.9814 123.562 40.8745 123.743 40.7C124.957 40.1374 126.179 39.5907 127.383 39.0094C129.177 38.1414 131.047 37.4254 132.744 36.3613C132.76 36.355 132.775 36.3455 132.788 36.3334C133.284 36.3334 133.652 36.0133 134.067 35.816C134.716 35.5054 134.795 35.532 134.784 36.2227C134.771 37.0227 134.728 37.8147 134.685 38.6094C134.467 42.6289 134.244 46.6485 134.019 50.668C133.864 51.0494 133.896 51.4467 133.917 51.8427L133.877 53.1827C133.673 53.616 133.771 54.0734 133.773 54.5227L133.741 55.2974C133.584 55.7347 133.617 56.1867 133.633 56.6387L133.597 57.7054C133.425 58.1867 133.475 58.6853 133.481 59.1814C133.473 59.3427 133.467 59.5054 133.46 59.668C133.445 59.7827 133.432 59.8987 133.419 60.0134C133.384 60.1546 133.368 60.2999 133.371 60.4454C133.237 61.7934 133.179 63.1467 133.173 64.5027C133.009 64.832 133.057 65.1814 133.071 65.528C133.059 66.02 133.048 66.5107 133.036 67.0027C132.868 67.3934 132.916 67.8027 132.931 68.2027L132.899 69.9587C132.737 71.5494 132.688 73.14 132.899 74.7307C132.909 74.9973 132.919 75.2734 132.929 75.544C132.915 75.9334 132.84 76.3293 133.043 76.6973C133.002 77.2121 133.06 77.73 133.215 78.2227C133.183 78.3199 133.179 78.4239 133.202 78.5234C133.226 78.6229 133.276 78.714 133.348 78.7867C133.348 78.8347 133.348 78.8813 133.359 78.9293C133.337 79.1787 133.316 79.4294 133.475 79.6507C133.521 80.0907 133.575 80.5307 133.608 80.972C133.913 84.5014 133.859 88.0387 133.856 91.576C133.856 93.3734 133.456 94.988 131.916 96.12C130.356 97.0151 128.796 97.9102 127.237 98.8054C125.6 99.6173 124.01 100.523 122.476 101.517L118.463 103.88L112.596 107.279C111.085 108.221 109.435 108.941 108.063 110.107C107.782 110.225 107.536 110.412 107.347 110.651C106.023 112.117 105.288 113.824 105.271 115.804C105.245 118.483 105.249 121.161 105.271 123.841C105.279 124.88 105.225 125.9 104.833 126.876C103.5 128.66 102.311 128.993 100.225 128.163L99.216 127.305C98.6934 126.555 98.5094 125.705 98.504 124.809C98.492 122.908 98.504 121.005 98.496 119.104C98.488 118.013 98.2854 116.971 97.6467 116.047C97.3955 115.529 97.0072 115.091 96.524 114.779C95.6526 114.078 94.5559 113.717 93.4384 113.765C92.321 113.813 91.259 114.266 90.4507 115.039C90.2695 115.14 90.1211 115.292 90.0227 115.475C89.2405 116.303 88.7979 117.394 88.7827 118.533C88.736 122.032 88.772 125.532 88.7747 129.032C88.7627 130.759 88.7467 132.485 88.7414 134.212C88.7414 135.501 88.416 136.647 87.3347 137.468L86.784 137.777C85.7267 138.115 84.772 137.753 83.8267 137.335C83.204 136.657 82.7414 135.901 82.676 134.953C82.676 128.738 82.6703 122.523 82.6587 116.307C82.6565 116.205 82.6445 116.104 82.6227 116.004C82.6172 115.897 82.5966 115.792 82.5614 115.691C82.416 113.957 81.5134 112.7 80.0694 111.793C79.8587 111.579 79.5774 111.507 79.304 111.421C78.4531 111.102 77.5255 111.047 76.6429 111.264C75.7604 111.482 74.9641 111.961 74.3587 112.639C73.5884 113.372 73.132 114.376 73.0854 115.439C73.0187 116.869 73.0454 118.304 73.0427 119.737C73.0427 120.788 72.844 121.78 72.2427 122.671C72.1014 122.816 71.9596 122.96 71.8174 123.105C70.8494 123.793 69.8174 123.808 68.7507 123.372L67.8787 122.663C67.4113 121.945 67.1651 121.105 67.1707 120.248C67.1591 117.816 67.1498 115.384 67.1427 112.952V112.8C67.1427 112.133 67.2494 111.467 67.0094 110.829C66.876 109.629 66.5094 108.521 65.7614 107.557C65.0787 106.373 63.9854 105.664 62.828 105.024C62.6996 104.898 62.5352 104.814 62.3574 104.785C61.236 104.243 60.0347 103.937 58.836 103.635C58.46 103.539 58.0494 103.473 57.7027 103.768C57.6329 103.783 57.568 103.816 57.5138 103.862C57.4596 103.909 57.4177 103.968 57.392 104.035C56.8374 104.869 56.9694 105.596 57.88 105.963C59.1494 106.476 60.468 106.865 61.7654 107.307L63.204 108.429C63.8618 109.19 64.3087 110.109 64.5 111.096C64.6454 111.713 64.616 112.34 64.616 112.963C64.616 115.496 64.608 118.02 64.6254 120.548C64.6334 121.717 64.892 122.828 65.5934 123.799C65.8827 124.212 66.1427 124.652 66.592 124.924C66.752 125.057 66.9027 125.2 67.0734 125.324C69.396 126.924 72.656 126.427 74.2187 124.241C74.4079 124.091 74.5474 123.887 74.6187 123.656C75.0131 123.108 75.2659 122.471 75.3547 121.801C75.6094 120.032 75.4227 118.255 75.4787 116.483C75.4934 116.005 75.4534 115.521 75.66 115.068C75.8775 114.892 76.0204 114.641 76.06 114.364C76.1812 114.312 76.2996 114.254 76.4147 114.189C78.0147 113.196 79.6454 113.896 80.0227 115.721C80.0884 116.115 80.1139 116.514 80.0987 116.912C80.1094 122.827 80.1191 128.742 80.128 134.657C80.128 135.545 80.2374 136.416 80.712 137.2C80.9107 137.759 81.1867 138.267 81.668 138.639C82.6107 139.705 83.7694 140.341 85.208 140.428C86.2747 140.591 87.26 140.295 88.1694 139.789C90.1694 138.669 91.236 136.929 91.2587 134.637C91.2947 129.661 91.2787 124.684 91.2734 119.704C91.2734 118.996 91.3094 118.301 91.58 117.639L91.8107 117.299C92.2107 116.937 92.5987 116.569 93.1574 116.459C94.6427 116.161 95.8987 117.259 95.92 118.927C95.944 120.927 95.9 122.915 95.94 124.908C95.972 126.559 96.3747 128.096 97.6147 129.3C97.976 129.813 98.48 130.144 99.032 130.416C100.68 131.327 102.365 131.437 104.108 130.683C104.927 130.34 105.689 129.917 106.197 129.151C107.205 127.989 107.756 126.648 107.763 125.103C107.773 122.241 107.773 119.379 107.781 116.516C107.795 115.377 108.1 114.26 108.667 113.272C109.113 112.765 109.539 112.24 110.072 111.819L110.472 111.519C110.78 111.364 111.101 111.232 111.345 110.976L115.704 108.4C116.463 108.073 117.124 107.581 117.82 107.151L119.383 106.301C119.398 106.416 119.393 106.532 119.369 106.645C118.569 108.597 118.583 110.645 118.581 112.707C118.581 113.991 118.44 115.271 117.532 116.307C116.797 117.036 115.932 117.403 114.88 117.312C114.156 117.251 113.559 116.883 112.924 116.596C112.267 116.299 111.591 116.488 111.252 117.033C110.891 117.608 111.027 118.209 111.628 118.696C112.605 119.487 113.823 119.921 115.081 119.927C116.338 119.932 117.56 119.509 118.544 118.727C120.609 117.185 121.253 115.059 121.077 112.593C121.228 111.629 121.161 110.659 121.191 109.691C121.263 109.462 121.263 109.216 121.191 108.987C121.278 108.855 121.346 108.711 121.393 108.56C121.724 107.185 122.338 105.894 123.197 104.771C123.397 104.6 123.616 104.443 123.719 104.185C123.948 103.927 124.204 103.693 124.481 103.487C126.427 102.153 128.571 101.171 130.604 99.9934C131.915 99.2347 133.311 98.604 134.345 97.4414C134.576 97.2953 134.766 97.093 134.897 96.8534C135.976 95.612 136.412 94.116 136.439 92.5267C136.491 89.46 136.473 86.3827 136.447 83.3107C136.426 81.5563 136.231 79.8082 135.867 78.092C135.677 76.684 135.523 75.2734 135.467 73.8534C135.349 70.7067 135.649 67.5707 135.753 64.4294C135.928 64.0094 135.887 63.5707 135.86 63.1334C136.063 60.0947 136.272 57.056 136.464 54.016C136.621 51.536 136.731 49.052 136.911 46.5733C137.16 43.1573 137.333 39.7378 137.429 36.3147C137.461 35.8485 137.408 35.3805 137.272 34.9334ZM66.832 120.284C66.832 120.284 66.832 120.284 66.8387 120.271V120.308C66.8387 120.308 66.8294 120.315 66.824 120.315C66.8274 120.305 66.8301 120.294 66.832 120.284ZM99.792 24.408C99.7797 24.3927 99.7648 24.3797 99.748 24.3694L99.824 24.3174L99.792 24.408ZM133.652 69.008L133.664 68.892C133.672 68.9308 133.669 68.9711 133.655 69.008H133.652ZM135.467 64.4454C135.509 64.4271 135.554 64.4149 135.6 64.4094C135.589 64.4454 135.576 64.48 135.564 64.516C135.533 64.4901 135.501 64.4665 135.467 64.4454ZM104.4 79.888C104.408 76.5547 104.423 73.212 104.416 69.8747C104.416 66.6027 104.471 63.3267 104.283 60.056C104.321 60.0378 104.353 60.0085 104.375 59.972C104.539 59.6107 104.44 59.2187 104.496 58.8427C105.255 60.9679 105.803 63.1624 106.133 65.3947C106.044 65.7453 106.288 66.0467 106.279 66.3854C106.267 66.6694 106.245 66.956 106.365 67.2254C106.37 67.2387 106.376 67.2517 106.383 67.264C106.393 67.6774 106.407 68.0894 106.417 68.5014C106.417 69.536 106.417 70.568 106.417 71.6027C106.151 73.9867 105.837 76.36 105 78.6307C104.84 79.064 104.725 79.516 104.593 79.964C104.545 79.9413 104.499 79.9107 104.448 79.892L104.4 79.888ZM101.067 85.6854C100.839 85.804 100.625 85.932 100.533 86.1973C100.527 86.264 100.514 86.3297 100.493 86.3934C99.7694 87.1667 99.0267 87.928 98.2414 88.6334C98.1523 88.68 98.0595 88.7192 97.964 88.7507C97.8305 88.7955 97.7063 88.8642 97.5974 88.9534C95.7291 90.3998 93.6297 91.5201 91.388 92.2667C91.3316 92.284 91.2797 92.3136 91.236 92.3534H91.216C91.1787 92.3094 91.2587 92.3427 91.2494 92.324C92.2934 91.696 93.4 91.1454 94.1827 90.1507C94.186 90.1022 94.1931 90.054 94.204 90.0067C95.0307 89.4094 95.7 88.6334 96.408 87.9174C97.4027 86.9107 98.3147 85.808 98.9414 84.5147C98.9974 84.4333 99.056 84.356 99.112 84.276C99.1493 84.2215 99.1835 84.1649 99.2147 84.1067C99.2454 84.04 99.2747 83.9734 99.304 83.908C99.9334 83.0627 100.344 82.1 100.728 81.1254C100.774 81.099 100.826 81.0844 100.879 81.0827C101.292 80.564 101.467 79.9494 101.568 79.3067C101.545 79.2335 101.534 79.1568 101.537 79.08C101.577 79.0107 101.624 78.932 101.683 78.8293L101.743 78.7254V78.8387C101.743 80.472 101.704 81.9734 101.759 83.4707C101.783 84.176 101.735 84.8294 101.384 85.3934C101.289 85.5014 101.182 85.5993 101.067 85.6854ZM99.372 50.9334C99.468 50.988 99.5627 51.0427 99.652 51.1014C99.8814 51.3614 100.108 51.6227 100.339 51.8827C100.364 51.9492 100.384 52.0174 100.4 52.0867C100.587 52.5759 100.921 52.9951 101.356 53.2867L101.409 53.332C101.652 53.76 102.029 54.116 102.023 54.6867C101.997 56.7494 102.012 58.812 102.012 60.8733C101.901 60.6754 101.816 60.4638 101.759 60.244C101.397 59.1384 100.971 58.0548 100.484 56.9987C100.361 56.7387 100.289 56.4107 99.9307 56.332L99.9214 56.34C99.9219 56.3338 99.9219 56.3276 99.9214 56.3214C99.788 55.76 99.4427 55.308 99.1747 54.8147C99.1457 54.7053 99.105 54.5994 99.0534 54.4987C97.7789 52.4275 96.2412 50.5303 94.4787 48.8547C92.9534 47.4294 91.368 46.076 89.488 45.1214C89.4924 45.0895 89.4924 45.0572 89.488 45.0254C89.244 44.6387 88.8214 44.5387 88.6134 44.4653C90.4334 44.8653 92.296 45.656 94.0707 46.672C94.2294 46.7614 94.3907 46.888 94.5867 46.816C94.5867 46.828 94.5987 46.8387 94.604 46.8507C94.6892 47.0172 94.8201 47.1559 94.9814 47.2507C96.3946 48.2057 97.6992 49.3122 98.872 50.5507C99.0048 50.7173 99.1765 50.8487 99.372 50.9334ZM106.027 48C106.007 48.042 105.971 48.0748 105.928 48.092L105.915 48.084C105.956 48.062 105.994 48.0336 106.027 48ZM66.1334 89.1734C66.054 89.0015 65.9243 88.8578 65.7614 88.7614C64.3827 87.8454 63.228 86.684 62.056 85.524C61.6267 85.0974 61.3134 84.556 60.7814 84.2307C60.7187 84.2054 60.648 84.1774 60.5894 84.148L58.5094 81.268C58.4894 81.228 58.4667 81.1894 58.4467 81.1494C58.412 80.8134 58.224 80.552 58.036 80.2893C58.0301 80.238 58.0301 80.1861 58.036 80.1347C58.0068 80.0397 57.948 79.9565 57.868 79.8974C57.7947 79.7854 57.7267 79.672 57.6587 79.5574C57.3387 78.832 57.0107 78.1094 56.7254 77.3707C54.8 72.4787 54.42 67.4307 55.356 62.2854C55.876 59.4214 57.0094 56.7787 58.5254 54.3027C58.5974 54.2267 58.672 54.152 58.7534 54.0813C58.8773 54.0244 58.9847 53.9367 59.0652 53.8265C59.1457 53.7164 59.1967 53.5874 59.2134 53.452C59.2433 53.3478 59.2794 53.2454 59.3214 53.1454L60.556 51.6427C60.676 51.5467 60.7974 51.4534 60.9214 51.36C61.117 51.2799 61.2904 51.1536 61.4267 50.992C62.3507 49.9907 63.412 49.152 64.504 48.344C64.6907 48.2107 64.888 48.0774 64.996 47.8547C65.0199 47.8031 65.0508 47.755 65.088 47.712C66.3827 46.956 67.7147 46.272 69.068 45.628L69.3627 45.5174C69.5479 45.5081 69.7307 45.4717 69.9054 45.4094C73.5374 44.2 77.2387 44.092 80.972 44.804C83.1407 45.2063 85.239 45.9237 87.2 46.9334L90.564 49.0387C92.1862 50.3267 93.6617 51.7893 94.964 53.4C95.852 54.528 96.564 55.7667 97.344 56.968C97.804 58.0347 98.3054 59.0774 98.7147 60.1587C100.212 64.108 100.589 68.1974 100.223 72.384C100.108 73.6854 99.7587 74.9427 99.6147 76.2347C99.5641 76.3112 99.522 76.393 99.4894 76.4787C98.7732 79.24 97.5527 81.8451 95.8894 84.1627C95.416 84.8214 94.892 85.4414 94.3854 86.076C94.3199 86.1159 94.2518 86.1511 94.1814 86.1814C93.9862 86.2655 93.8122 86.3922 93.672 86.552C92.4639 87.8033 91.1051 88.8997 89.6267 89.816C89.3959 89.9374 89.2048 90.1225 89.076 90.3494C89.0657 90.3665 89.0536 90.3826 89.04 90.3974C86.3751 91.8217 83.4463 92.6839 80.4347 92.9307C80.012 92.9414 79.5867 92.9027 79.1734 93.0187C79.144 93.0187 79.116 93.0347 79.0854 93.044C78.7692 92.9587 78.4362 92.9587 78.12 93.044C77.7294 92.8654 77.32 92.9107 76.912 92.928L75.3814 92.764C75.1574 92.6107 74.9067 92.6227 74.6547 92.644L73.9587 92.6134C73.9547 92.6026 73.9489 92.5927 73.9414 92.584C73.8894 92.5416 73.8296 92.5099 73.7654 92.4907C73.6067 92.4627 73.4507 92.432 73.2934 92.3987C71.9334 91.9787 70.5454 91.6534 69.2694 90.968C68.2534 90.424 67.1694 90.012 66.22 89.3467C66.1838 89.2929 66.1546 89.2346 66.1334 89.1734ZM103.017 91.1467C103.056 91.0464 103.086 90.9429 103.107 90.8374C103.168 91.016 103.115 91.104 103.017 91.148V91.1467ZM103.928 80.2133C103.936 80.2303 103.942 80.2476 103.948 80.2654C103.936 80.2499 103.929 80.2305 103.929 80.2107L103.928 80.2133ZM100.141 75.2293C100.103 75.2368 100.063 75.2317 100.028 75.2147C100.028 75.188 100.039 75.1614 100.044 75.1347C100.103 75.084 100.125 75.1467 100.143 75.2267L100.141 75.2293ZM72.5627 94.608C72.5623 94.6354 72.5673 94.6626 72.5774 94.688C72.54 94.6974 72.5014 94.704 72.4614 94.7107C72.496 94.6747 72.5334 94.64 72.5627 94.608ZM102.02 78.2347H102.076C102.057 78.248 102.04 78.2627 102.02 78.28V78.2347ZM74.5534 42.06C74.4754 42.0478 74.3984 42.0304 74.3227 42.008C74.3405 41.9944 74.3611 41.9849 74.383 41.9802C74.405 41.9754 74.4276 41.9755 74.4495 41.9805C74.4714 41.9854 74.4919 41.9951 74.5096 42.0089C74.5273 42.0226 74.5418 42.0401 74.552 42.06H74.5534ZM74.5107 41.696L74.5014 41.704V41.6947L74.5107 41.696ZM135.711 64.0467C135.72 64.0396 135.73 64.0337 135.741 64.0294C135.731 64.0414 135.721 64.0547 135.712 64.0667C135.703 64.0787 135.709 64.0534 135.709 64.0467H135.711ZM137.052 38.4187C137.083 38.4035 137.114 38.3902 137.147 38.3787V38.452C137.123 38.48 137.089 38.4574 137.051 38.4187H137.052Z" fill="#3A3A3A"/>
<path d="M53.5067 111.877C52.9734 110.891 52.6467 110.953 51.8801 111.156C50.4031 111.541 48.9601 112.046 47.5654 112.667C47.3534 112.695 47.1554 112.788 46.9987 112.933C46.8874 112.951 46.7735 112.943 46.6656 112.911C46.5576 112.878 46.4582 112.822 46.3747 112.747C45.6694 112.191 44.8747 111.788 44.0947 111.36L40.5334 109.333C40.3294 109.217 40.5027 109.107 40.5414 108.995C42.0081 108.22 43.4921 107.475 44.8867 106.571C45.4094 106.272 45.9441 105.992 46.4507 105.668C46.7787 105.457 47.0561 105.449 47.4241 105.592C48.3574 105.949 49.3081 106.245 50.2534 106.567C50.7707 106.888 51.3841 106.931 51.9441 107.135C52.4107 107.305 52.9001 107.283 53.2454 106.884C53.4127 106.693 53.5223 106.458 53.5615 106.207C53.6006 105.957 53.5678 105.7 53.4667 105.467C53.4561 105.495 53.4427 105.523 53.4307 105.551C53.4387 105.521 53.4508 105.493 53.4667 105.467C53.2614 104.972 52.7907 104.9 52.3561 104.773L49.4227 103.751L50.3801 103.181C50.9473 102.938 51.4778 102.617 51.9561 102.227C52.1921 102.093 52.4153 101.938 52.6227 101.763C53.1694 101.251 53.3681 100.696 53.0814 100.289C52.6627 99.6893 51.9747 99.528 51.3334 99.9267C50.5801 100.395 49.8507 100.9 49.1107 101.393C48.8601 101.436 48.7107 101.751 48.4054 101.652C48.6662 100.537 48.8537 99.4062 48.9667 98.2667C49.0241 97.5547 48.5827 97.0067 47.9934 96.9413C47.3641 96.872 46.8627 97.2347 46.7014 97.9613C46.5307 98.728 46.4347 99.512 46.2881 100.283C46.0921 101.297 46.0441 102.34 45.7214 103.331L41.4867 105.864L41.0521 106.159C40.4623 106.432 39.9013 106.763 39.3774 107.148C39.3616 107.139 39.3437 107.134 39.3254 107.134C39.3071 107.134 39.2892 107.139 39.2734 107.148C39.2654 105.015 39.2827 102.881 39.2347 100.741C39.2214 100.135 39.3254 99.6453 39.8054 99.264C40.0876 99.0773 40.3316 98.8383 40.5241 98.56C41.4179 97.7712 42.2639 96.9297 43.0574 96.04C43.3349 95.8674 43.5509 95.6117 43.6747 95.3093C43.7767 95.0702 43.7909 94.8027 43.7148 94.5541C43.6386 94.3055 43.4771 94.0918 43.2587 93.9507C42.7934 93.612 42.3001 93.664 41.8574 94.052C40.9507 94.852 40.2081 95.8147 39.2481 96.5547C39.2103 96.4287 39.1901 96.2981 39.1881 96.1667C39.3334 95.048 39.2481 93.928 39.2454 92.808C39.261 92.524 39.1759 92.2436 39.0052 92.0161C38.8345 91.7886 38.5891 91.6285 38.3121 91.564C37.7134 91.3947 37.2774 91.656 37.0081 92.2067C36.8896 92.3812 36.8302 92.5892 36.8387 92.8C36.8467 93.9173 36.8543 95.0347 36.8614 96.152C36.8894 96.6987 36.6187 96.4053 36.4174 96.3107C35.6841 95.5173 34.9921 94.6813 34.2027 93.9493C33.7747 93.5493 33.2014 93.62 32.7521 94.056C32.3027 94.492 32.1507 94.9347 32.6041 95.4533C33.1894 96.1893 33.8841 96.816 34.5774 97.444L36.8201 99.7333L36.8361 107.004C36.5907 107.087 36.4454 106.9 36.2761 106.789C34.4867 105.617 32.6347 104.547 30.7721 103.495C30.0947 103.095 30.3721 102.371 30.2267 101.797C29.9841 100.817 30.0747 99.7693 29.6561 98.82H29.6641C29.6454 98.1987 29.8094 97.516 29.0974 97.1267C29.0711 97.0731 29.0259 97.0312 28.9705 97.0091C28.915 96.9869 28.8534 96.986 28.7974 97.0067C27.7014 96.8733 27.2281 97.2867 27.3494 98.34C27.4827 99.4387 27.6507 100.532 27.8041 101.628C27.6121 101.775 27.5014 101.641 27.3441 101.532C26.4987 100.943 25.6561 100.344 24.7774 99.808C24.1854 99.448 23.6494 99.604 23.3107 100.123C23.1579 100.362 23.0994 100.65 23.1464 100.93C23.1935 101.21 23.3428 101.462 23.5654 101.639C23.8321 101.86 24.1321 102.039 24.4174 102.235L26.6667 103.636C26.7041 103.848 26.4587 103.788 26.4001 103.911C25.3667 104.24 24.3147 104.521 23.3054 104.912C22.5054 105.22 22.3721 105.968 22.8774 106.732C23.2294 107.265 23.7361 107.233 24.2454 107.068C25.7121 106.593 27.1667 106.111 28.6161 105.601C29.0241 105.457 29.3481 105.455 29.7347 105.685C31.0574 106.477 32.4014 107.228 33.7347 107.995L35.5734 109.131C35.5427 109.324 35.3734 109.352 35.2347 109.432C34.5334 109.832 33.8387 110.257 33.1427 110.673C31.9427 111.34 30.7494 112.007 29.5494 112.665C29.3161 112.799 29.0787 113.044 28.7907 112.843C28.2427 112.461 27.5747 112.38 26.9961 112.083C26.0027 111.727 25.0161 111.352 24.0147 111.016C23.5734 110.871 23.1454 110.959 22.8467 111.375C22.6534 111.528 22.6041 111.739 22.5801 111.977C22.4854 112.843 23.1134 113.085 23.7321 113.325C24.7467 113.717 25.7694 114.093 26.8374 114.496L26.2507 114.896C25.3387 115.412 24.4214 115.92 23.5161 116.448C22.8627 116.828 22.6867 117.443 23.0294 118.048C23.1054 118.193 23.2099 118.32 23.3367 118.423C23.4634 118.526 23.6097 118.602 23.7667 118.647C23.9238 118.692 24.0883 118.705 24.2503 118.684C24.4123 118.664 24.5685 118.611 24.7094 118.528C25.1094 118.301 25.5321 118.091 25.8561 117.747C26.2628 117.565 26.6363 117.318 26.9614 117.013C27.2281 117.023 27.3721 116.699 27.6561 116.756L27.3721 119.385C27.1961 119.829 27.1547 120.272 27.3827 120.719C27.5254 121.379 28.0307 121.463 28.5654 121.407C29.1774 121.344 29.5427 120.932 29.6254 120.352C29.8494 118.795 30.0254 117.231 30.2267 115.669C30.2516 115.452 30.3322 115.245 30.4607 115.068C30.5892 114.891 30.7612 114.751 30.9601 114.66L31.2534 114.497C33.0587 113.479 34.8614 112.457 36.5667 111.275H36.8014C36.8014 113.525 36.7921 115.776 36.8014 118.025C36.8094 118.283 36.7236 118.535 36.5601 118.735C35.5605 119.568 34.6129 120.462 33.7227 121.412C33.3361 121.784 32.9227 122.128 32.5721 122.535C32.0081 123.201 32.2814 124.091 33.0947 124.415C33.7921 124.691 34.1801 124.24 34.5867 123.817C35.2387 123.179 35.8961 122.545 36.5414 121.9C36.7227 121.719 36.8294 121.668 36.8654 121.983C36.8574 123.077 36.8467 124.172 36.8441 125.268C36.8343 125.395 36.8544 125.523 36.9028 125.64C36.9512 125.758 37.0265 125.863 37.1227 125.947C37.4694 126.44 37.9654 126.512 38.4774 126.335C38.7146 126.261 38.9202 126.11 39.0612 125.906C39.2021 125.702 39.2703 125.456 39.2547 125.208C39.2481 124.135 39.2347 123.061 39.2254 121.988C39.2507 121.773 39.3774 121.804 39.5174 121.868C40.2361 122.599 40.9361 123.349 41.6801 124.053C42.0054 124.361 42.3814 124.728 42.9107 124.379C43.0372 124.385 43.1616 124.345 43.2618 124.268C43.3619 124.19 43.4313 124.08 43.4574 123.956C43.4934 123.823 43.6814 123.773 43.6374 123.603C43.7231 123.489 43.7683 123.349 43.7656 123.207C43.7629 123.064 43.7127 122.927 43.6227 122.816C42.4227 121.2 40.8374 119.961 39.3867 118.592C39.2815 118.441 39.2286 118.259 39.2361 118.075C39.2494 115.814 39.2578 113.555 39.2614 111.296H39.3147L39.3681 111.305C40.0761 111.743 40.7774 112.191 41.4934 112.615C42.4201 113.164 43.2867 113.815 44.2854 114.241C44.5405 114.438 44.8077 114.618 45.0854 114.781C45.6187 115.048 45.9161 115.411 45.9641 116.055C46.0201 116.812 46.0814 117.583 46.3134 118.321C46.2867 118.577 46.2787 118.829 46.4281 119.057C46.3587 119.532 46.5014 119.991 46.5934 120.439C46.7881 121.372 47.7027 121.731 48.4294 121.203C48.5736 121.094 48.6949 120.958 48.7864 120.802C48.8779 120.647 48.9379 120.475 48.9627 120.296C48.9934 119.996 49.0161 119.696 48.8467 119.423C48.8574 118.615 48.6481 117.836 48.5214 117.047C48.5467 116.871 48.4401 116.567 48.8254 116.828C49.3774 117.201 49.9614 117.527 50.5321 117.873C50.9467 118.14 51.3414 118.436 51.7801 118.645C52.3787 118.932 52.8761 118.701 53.2401 118.185C53.6041 117.669 53.5641 117.1 53.0721 116.743C52.2081 116.117 51.2974 115.543 50.2654 115.211L49.2267 114.601L52.6201 113.305C52.6789 113.295 52.7351 113.273 52.7854 113.241C53.0681 113.123 53.3414 112.991 53.5041 112.708C53.7187 112.441 53.6614 112.175 53.5107 111.896L53.5067 111.877Z" fill="#F7931B"/>
<path d="M46.4347 52.0173C46.1773 52.008 45.92 51.9893 45.6627 51.9933C44.5627 52.0107 44.1133 52.7933 44.608 53.8267C44.7107 54.0773 44.8747 54.2453 45.1667 54.2413L45.224 54.272L45.2867 54.26C45.5893 54.4333 45.9253 54.3733 46.2347 54.3427C46.82 54.2853 47.0747 54.4333 47.008 55.0867C46.9653 55.5013 46.848 55.9667 47.1413 56.364C47.1309 56.4213 47.1407 56.4805 47.1692 56.5314C47.1977 56.5823 47.243 56.6216 47.2973 56.6427C47.7707 57.1573 48.2907 57.2173 48.8587 56.8027C49.0893 56.6947 49.2587 56.5427 49.2747 56.2693C49.4973 56.0293 49.3907 55.736 49.392 55.4693C49.392 54.3893 49.392 54.3907 50.428 54.3413C50.6387 54.3307 50.8493 54.316 51.056 54.2853C51.6773 54.192 52.052 53.7307 52.012 53.1227C51.964 52.404 51.612 52.016 50.9453 51.9947C50.432 51.976 49.9173 51.984 49.4027 51.98C49.4027 51.676 49.4027 51.3707 49.388 51.0667C49.3747 50.5867 49.4853 50.0693 48.9973 49.7333C48.9702 49.6701 48.9279 49.6145 48.8742 49.5714C48.8205 49.5284 48.757 49.4993 48.6893 49.4867C47.84 49.1373 47.0747 49.572 47.0013 50.4587C46.9658 50.7811 46.9622 51.1062 46.9907 51.4293C47.044 51.8667 46.8787 52.0613 46.4347 52.0173ZM49.2 54.584C49.2 54.6507 49.2 54.7173 49.2 54.7867C49.2 54.856 49.18 54.9493 49.1733 55.0307C49.1687 54.8813 49.1776 54.7318 49.2 54.584Z" fill="#3A3A3A"/>
<path d="M108.157 34.7107C107.733 34.7533 107.257 34.624 106.945 35.06C106.545 35.412 106.448 35.8373 106.679 36.3133C106.909 36.7893 107.269 37.08 107.845 37.0493C108.289 37.0253 108.736 37.0493 109.179 37.0493C109.181 37.0962 109.194 37.142 109.217 37.1827C109.201 37.5333 109.168 37.8853 109.171 38.236C109.179 39.036 109.685 39.6747 110.305 39.688C111.005 39.7013 111.456 39.1307 111.463 38.2213C111.472 37.0493 111.472 37.0493 112.608 37.0413C112.749 37.0467 112.89 37.044 113.031 37.0333C113.635 36.9547 114.119 36.4027 114.097 35.8333C114.071 35.16 113.623 34.7387 112.915 34.72C112.844 34.72 112.773 34.7107 112.703 34.7107C111.479 34.7107 111.477 34.7107 111.464 33.46C111.464 33.0827 111.485 32.6987 111.08 32.48C110.188 31.88 109.263 32.244 109.183 33.2387C109.175 33.5188 109.181 33.7992 109.203 34.0787C109.203 34.2627 109.193 34.448 109.189 34.6333C108.849 34.6587 108.503 34.676 108.157 34.7107Z" fill="#3A3A3A"/>
<path d="M70.6801 81.4374C71.1974 81.4254 71.2961 81.588 71.2854 82.064C71.2507 83.3747 71.2654 84.688 71.2747 86.0014C71.2747 86.2174 71.1614 86.4747 71.4081 86.6494C71.5379 86.7149 71.6884 86.7264 71.8267 86.6814H71.9734C72.5067 86.6907 73.0507 86.7267 73.5854 86.7014C73.9854 86.6814 74.4294 86.8747 74.7854 86.528C75.0521 85.5027 74.8427 84.464 74.8841 83.4307C74.9081 82.8027 74.6587 81.992 74.9641 81.5934C75.2934 81.1654 76.1441 81.5187 76.7641 81.46L76.8974 81.4454L77.1641 81.484C77.1734 82.9974 77.1787 84.512 77.2014 86.024C77.2014 86.236 77.0681 86.492 77.3254 86.6614C78.3734 86.6787 79.4228 86.6827 80.4708 86.716C80.8454 86.728 80.8801 86.544 80.8788 86.2454C80.8788 85.0774 80.8787 83.9107 80.8854 82.7414C80.8921 81.572 80.8854 81.5867 81.9814 81.46C82.3241 81.46 82.6721 81.516 82.9961 81.348C84.0361 81.348 84.9961 81.0254 85.9294 80.6147C86.0195 80.6148 86.1092 80.6027 86.1961 80.5787C88.8974 79.4 90.3694 77.3334 90.5708 74.4C90.6588 73.1054 90.5561 71.8254 89.7708 70.7107C88.9841 69.1 87.4654 68.412 85.8974 67.7427C86.4987 67.2854 87.1121 66.98 87.4654 66.376C88.5947 65.1894 88.9094 63.7414 88.8187 62.1654C88.7454 60.8854 88.3987 59.708 87.4694 58.7654C87.3361 58.4414 87.0694 58.2414 86.7894 58.0587C85.3467 56.7787 83.5974 56.272 81.7361 56.0787C81.2614 56.028 81.0561 55.924 81.0694 55.376C81.1134 54.0427 81.0588 52.7094 81.0694 51.3694C81.0694 50.9867 80.9747 50.836 80.5574 50.844C79.6441 50.8734 78.7281 50.8734 77.8147 50.844C77.3441 50.8267 77.2067 50.9934 77.2174 51.4507C77.2454 52.6507 77.2401 53.8427 77.2254 55.0387C77.2254 55.2974 77.3441 55.608 77.0507 55.808C76.3481 55.7934 75.6481 55.776 74.9467 55.76C74.9467 55.6027 74.9467 55.444 74.9574 55.284C75.0621 54.9753 75.0621 54.6407 74.9574 54.332V53.8854C75.0494 52.9094 75.1787 51.9307 74.9574 50.952C73.8094 50.6934 72.6467 50.8854 71.4907 50.8414C71.1654 50.828 71.2681 51.1454 71.2667 51.3307C71.2587 52.5747 71.2401 53.8187 71.2667 55.064C71.2801 55.5414 71.1761 55.704 70.6587 55.6907C69.0414 55.6534 67.4227 55.6907 65.8054 55.6707C65.2814 55.6627 65.0401 55.8507 64.9854 56.3787C64.8995 57.2421 64.8781 58.1108 64.9214 58.9774C64.9441 59.5107 65.1761 59.7774 65.7601 59.7534C66.6254 59.716 67.4934 59.7534 68.3627 59.7534C68.6294 59.7534 68.8787 59.7427 68.9974 60.044C68.9974 65.4796 68.9974 70.9151 68.9974 76.3507C68.9974 76.652 69.0534 76.9627 68.8521 77.2294C67.8694 77.24 66.8841 77.2587 65.9001 77.2574C65.3534 77.2574 65.0627 77.512 65.0534 78.0574C65.0401 78.9494 65.0414 79.8387 65.0427 80.7307C65.0427 81.2454 65.2721 81.472 65.8241 81.464C67.4467 81.4294 69.0667 81.4747 70.6801 81.4374ZM80.4814 70.456C81.1147 70.5494 81.6894 70.7947 82.2601 71.0627C83.1147 71.7054 83.6787 72.4854 83.6974 73.6214C83.7227 75.1174 82.9694 76.0614 81.7054 76.6987C81.4014 76.788 81.0987 76.8854 80.7934 76.9654C78.8187 77.4854 76.8054 77.1667 74.8094 77.232C74.8094 75.0987 74.8214 72.9654 74.7987 70.832C74.7987 70.3894 74.8827 70.2027 75.3654 70.228C77.0667 70.3334 78.7827 70.2067 80.4814 70.456ZM74.8001 60.6894C74.8001 60.26 74.8987 60.128 75.3334 60.136C76.9667 60.1667 78.6147 60.032 80.2174 60.4627C81.4547 60.7934 82.2507 61.6014 82.4534 62.88C82.6348 64.0347 82.1987 64.9707 81.2534 65.6654C80.5161 66.0552 79.7126 66.3044 78.8841 66.4C78.5827 66.3854 78.2801 66.3494 77.9961 66.5C77.0827 66.5 76.1694 66.476 75.2561 66.492C74.9481 66.492 74.7534 66.4494 74.7734 66.092C74.7841 64.2974 74.8107 62.4934 74.8001 60.6894Z" fill="#F7931B"/>
</svg>
