<svg width="160" height="160" viewBox="0 0 160 160" fill="none" xmlns="http://www.w3.org/2000/svg">
<path d="M106.8 45.4507C106.827 59.78 95.2174 70.4173 82.7788 71.0787C68.1534 71.8573 56.3308 59.9413 55.7281 46.7187C55.0734 32.3813 66.6614 19.712 80.7868 19.5253C95.6294 19.3333 106.872 31.4027 106.8 45.4507ZM103.804 45.404C103.804 44.5867 103.892 43.7573 103.791 42.9533C103.141 37.808 101.257 33.172 97.6068 29.4427C91.7588 23.464 84.6108 21.2373 76.4361 22.9787C71.5028 24.0307 67.3241 26.6173 64.0868 30.5787C59.5054 36.1787 57.7334 42.5787 59.0454 49.676C60.5854 57.992 65.7241 63.5613 73.3721 66.6947C78.9441 68.976 84.7521 68.828 90.2574 66.3307C99.1628 62.2667 103.467 55.0667 103.799 45.404H103.804Z" fill="#F7931B"/>
<path d="M41.0988 90.336C38.3201 88.6453 35.5828 86.8587 32.7281 85.2867C30.9121 84.2867 29.9548 82.7667 29.3948 80.9293C28.4494 77.844 27.5934 74.732 26.7108 71.6267C26.4161 70.5853 26.7374 69.9533 27.6348 69.7173C28.5081 69.4867 29.2201 69.916 29.4934 70.8493C30.3654 73.8253 31.2614 76.7947 32.0921 79.7827C32.5108 81.2867 33.2921 82.3813 34.6974 83.172C37.3641 84.672 39.9454 86.32 42.5534 87.9213C42.9441 88.1613 43.2574 88.244 43.7361 88.0667C44.3581 87.8447 45.013 87.7293 45.6734 87.7253C48.5134 87.692 51.3548 87.7093 54.1948 87.7253C56.1828 87.732 58.6401 90.004 58.9788 92.02C59.7028 96.336 60.4708 100.645 61.2454 104.953C61.7974 108.037 62.3894 111.113 62.9534 114.193C63.0748 114.86 62.5894 115.483 61.8761 115.639C61.1828 115.789 60.5681 115.428 60.3988 114.652C60.0481 113.036 59.7574 111.407 59.4441 109.783C59.3548 109.323 59.2774 108.86 59.0108 108.412V113.244C59.0108 119.436 59.0077 125.628 59.0014 131.82C59.002 132.429 58.929 133.036 58.7841 133.628C58.6414 134.193 58.1774 134.377 57.5841 134.349C56.9908 134.321 56.6801 134.025 56.5428 133.511C56.4384 133.144 56.3824 132.766 56.3761 132.385C56.3823 123.813 56.3965 115.241 56.4188 106.671C56.4285 102.168 56.4343 97.6662 56.4361 93.164C56.4361 91.5827 55.2481 90.4227 53.6668 90.42C51.0828 90.42 48.4983 90.42 45.9134 90.42C44.1988 90.42 43.3188 91.324 43.3174 93.1067C43.3103 100.168 43.3072 107.229 43.3081 114.291C43.3081 120.073 43.3045 125.856 43.2974 131.639C43.3019 132.2 43.2546 132.761 43.1561 133.313C43.0228 133.991 42.6228 134.365 41.8668 134.348C41.1108 134.331 40.8441 133.847 40.7241 133.239C40.661 132.834 40.6374 132.425 40.6534 132.016C40.6481 121.142 40.6481 110.268 40.6534 99.3947C40.6534 97.0427 40.6614 94.6893 40.7228 92.3373C40.7348 91.684 40.9574 91.044 41.0988 90.336Z" fill="#3A3A3A"/>
<path d="M119.672 92.9333C122.119 92.088 124.545 91.2547 126.968 90.4093C127.712 90.1507 127.953 89.4827 128.121 88.8093C128.887 85.7507 129.624 82.6853 130.388 79.6267C130.729 78.2573 131.199 77.912 132.319 78.136C133.119 78.2947 133.545 78.936 133.359 79.7067C132.577 82.9458 131.792 86.184 131.001 89.4213C130.54 91.3146 129.505 92.608 127.545 93.216C125.197 93.9453 122.909 94.872 120.576 95.7187C120.576 99.3444 120.576 102.974 120.576 106.608C120.581 115.052 120.584 123.497 120.585 131.941C120.585 132.543 120.54 133.199 120.295 133.727C120.133 134.072 119.569 134.433 119.196 134.421C118.823 134.409 118.284 134.021 118.137 133.66C117.916 133.12 117.919 132.46 117.919 131.86C117.919 120.37 117.923 108.881 117.931 97.392C117.948 96.7809 117.898 96.1698 117.784 95.5693C117.463 94.1227 116.465 93.344 114.995 93.336C112.589 93.3244 110.184 93.3244 107.779 93.336C106.172 93.336 105.165 94.3 105.041 95.912C105.032 96.0453 105.029 96.168 105.028 96.296C105.003 102.411 104.963 108.525 104.959 114.64C104.959 120.373 105.001 126.107 105.003 131.832C105.003 132.436 104.877 133.044 104.763 133.641C104.648 134.239 104.223 134.479 103.644 134.48C103.385 134.496 103.128 134.421 102.918 134.269C102.708 134.117 102.557 133.896 102.491 133.645C102.377 133.28 102.32 132.899 102.323 132.516C102.328 124.201 102.34 115.886 102.359 107.569C102.329 107.476 102.29 107.387 102.241 107.303C101.931 108.655 101.648 109.891 101.363 111.127C101.105 112.241 100.864 113.361 100.581 114.469C100.341 115.403 99.724 115.892 99.048 115.733C98.188 115.532 97.7974 114.835 98.0214 113.828C98.7902 110.375 99.5667 106.924 100.351 103.475C100.992 100.645 101.629 97.8173 102.287 94.992C102.588 93.7426 103.302 92.6313 104.313 91.8375C105.323 91.0437 106.572 90.6139 107.857 90.6173C110.516 90.6427 113.175 90.656 115.832 90.732C117.467 90.772 118.559 91.8507 119.672 92.9333Z" fill="#3A3A3A"/>
<path d="M90.2734 114.052C90.2734 122.121 90.2734 130.101 90.2734 138.08C90.2803 138.565 90.231 139.05 90.1267 139.524C89.9814 140.12 89.6027 140.5 88.9187 140.476C88.2681 140.453 87.8521 140.139 87.7027 139.52C87.6187 139.12 87.5798 138.712 87.5867 138.303C87.5867 131.472 87.5956 124.64 87.6134 117.809C87.6134 115.765 87.7014 113.723 87.6894 111.676C87.6681 108.507 87.6027 105.337 87.5414 102.168C87.5201 101.072 86.4374 99.8333 85.3227 99.7813C83.4654 99.6947 81.6027 99.728 79.7427 99.7133C79.1041 99.7133 78.4641 99.7307 77.8267 99.7133C75.4814 99.6373 74.5334 101.128 74.5334 103.067C74.5467 114.605 74.5419 126.144 74.5187 137.681C74.5187 138.168 74.5187 138.656 74.4787 139.139C74.4161 139.928 73.9201 140.445 73.2534 140.463C72.4974 140.483 71.9961 140.025 71.8921 139.197C71.8718 138.942 71.8669 138.686 71.8774 138.431C71.8774 126.507 71.8805 114.584 71.8867 102.661C71.8752 102.05 71.9492 101.44 72.1067 100.849C72.2401 100.377 72.0761 100.247 71.7214 100.037C69.6561 98.8187 67.6107 97.568 65.5574 96.3307C64.1654 95.492 63.6374 94.0947 63.3294 92.64C62.7961 90.1067 62.3667 87.5387 61.9147 84.984C61.7667 84.144 62.2441 83.576 63.1787 83.3947C63.8521 83.2613 64.6361 83.7667 64.7787 84.496C65.0667 85.9173 65.2814 87.3533 65.5787 88.7707C65.9027 90.284 66.2747 91.7867 66.6707 93.2813C66.7401 93.54 66.9974 93.8027 67.2361 93.948C69.3587 95.2698 71.4921 96.5716 73.6361 97.8533C73.7596 97.9084 73.894 97.9346 74.0292 97.93C74.1643 97.9254 74.2966 97.89 74.4161 97.8267C75.3222 97.2409 76.3889 96.9532 77.4667 97.004C79.8667 97.048 82.2667 97.024 84.6761 97.02C87.2587 97.02 89.5521 98.8013 90.1334 101.296C91.4001 106.743 92.6623 112.194 93.9201 117.648C94.011 118.019 94.0822 118.395 94.1334 118.773C94.2414 119.669 93.8841 120.177 93.0667 120.332C92.4081 120.457 91.8134 120.065 91.6107 119.285C91.2014 117.712 90.8361 116.127 90.4481 114.547C90.4161 114.4 90.3534 114.267 90.2734 114.052Z" fill="#3A3A3A"/>
<path d="M120.561 79.4973C120.64 83.916 117.228 88.4427 111.608 88.5374C106.508 88.6214 102.611 84.5373 102.637 79.2893C102.663 74.2853 107.063 70.424 111.971 70.5773C116.425 70.7173 120.657 74.3373 120.561 79.4973ZM111.591 85.4973C114.947 85.4973 117.629 82.8707 117.635 79.576C117.635 76.1387 115.011 73.5067 111.585 73.5213C108.396 73.536 105.593 76.296 105.616 79.4013C105.641 82.9573 108.133 85.5 111.591 85.5013V85.4973Z" fill="#3A3A3A"/>
<path d="M58.8227 75.6973C58.8012 78.0606 57.8452 80.3193 56.1636 81.98C54.482 83.6406 52.2114 84.5682 49.848 84.56C44.7814 84.5387 40.8187 80.54 40.9067 75.2746C40.9867 70.4746 44.9694 66.4027 50.312 66.58C53.7334 66.6933 58.84 69.7733 58.8227 75.6973ZM49.6334 81.5507C50.4257 81.5938 51.2185 81.477 51.9647 81.2073C52.7109 80.9375 53.3952 80.5204 53.9768 79.9807C54.5584 79.441 55.0255 78.7898 55.3502 78.0658C55.6749 77.3418 55.8505 76.5599 55.8667 75.7667C55.928 72.4333 53.7507 69.8787 50.172 69.5707C47.2947 69.324 44.0387 71.2827 43.8787 75.5427C43.776 78.4 45.6627 81.352 49.6334 81.5507Z" fill="#3A3A3A"/>
<path d="M80.4746 76.232C85.5412 76.232 89.5212 80.1893 89.4572 85.2773C89.4066 89.388 86.2106 94.12 80.4626 94.104C75.6092 94.0893 71.5839 90.0587 71.6266 85.1213C71.6732 79.6813 75.7959 76.2333 80.4746 76.232ZM74.6319 85.2147C74.6719 88.524 77.3639 91.1653 80.5746 91.14C84.3532 91.1093 86.5186 87.7733 86.4679 84.98C86.4092 81.6853 83.7532 79.172 80.3132 79.2067C77.1799 79.2373 74.5919 81.9733 74.6319 85.2147Z" fill="#3A3A3A"/>
<path d="M51.0294 122.892C51.0294 125.884 51.0388 128.877 51.0214 131.871C51.0214 132.427 51.0081 133.016 50.8201 133.524C50.6974 133.856 50.2868 134.183 49.9374 134.305C49.4214 134.484 48.9721 134.172 48.7668 133.684C48.6254 133.33 48.553 132.952 48.5534 132.571C48.5534 127.403 48.5721 122.236 48.5788 117.068C48.5788 115.816 48.5281 114.563 48.5494 113.309C48.5416 112.879 48.6357 112.453 48.8241 112.067C48.9988 111.755 49.3961 111.373 49.6934 111.375C50.0454 111.375 50.5134 111.68 50.7134 111.992C50.9428 112.347 51.0094 112.856 51.0121 113.299C51.0361 116.499 51.0254 119.699 51.0254 122.899L51.0294 122.892Z" fill="#3A3A3A"/>
<path d="M79.844 129.703V120.811C79.844 120.677 79.844 120.555 79.844 120.427C79.8693 119.535 80.2827 119.003 80.9733 118.975C81.664 118.947 82.2427 119.552 82.3147 120.364C82.3253 120.491 82.3147 120.62 82.3147 120.748C82.3147 126.65 82.312 132.553 82.3067 138.457C82.3047 138.864 82.2454 139.268 82.1307 139.657C81.98 140.163 81.62 140.499 81.056 140.457C80.492 140.416 80.0693 140.183 79.9627 139.576C79.9113 139.328 79.881 139.077 79.872 138.824C79.8667 135.782 79.8667 132.741 79.872 129.7L79.844 129.703Z" fill="#3A3A3A"/>
<path d="M110.175 124.191C110.175 121.405 110.161 118.619 110.188 115.833C110.192 115.353 110.294 114.878 110.488 114.439C110.562 114.261 110.686 114.108 110.845 113.999C111.004 113.89 111.192 113.83 111.384 113.825C111.577 113.82 111.767 113.871 111.931 113.971C112.096 114.072 112.228 114.218 112.311 114.392C112.543 114.813 112.674 115.283 112.693 115.764C112.717 121.284 112.717 126.804 112.693 132.324C112.7 132.831 112.592 133.332 112.376 133.791C112.22 134.093 111.764 134.429 111.453 134.417C111.101 134.405 110.664 134.091 110.447 133.78C110.229 133.469 110.18 133.013 110.18 132.619C110.16 129.808 110.169 126.996 110.169 124.185L110.175 124.191Z" fill="#3A3A3A"/>
<path d="M73.5546 53.7187V37.1347C72.4559 37.1347 71.3892 37.1133 70.3252 37.144C69.7679 37.1613 69.5252 36.9893 69.5626 36.404C69.6014 35.7379 69.6014 35.0701 69.5626 34.404C69.5292 33.804 69.7626 33.58 70.3626 33.592C71.9226 33.624 73.4826 33.616 75.0426 33.624H75.8906C75.8906 32.4013 75.8906 31.232 75.8906 30.0627C75.8906 29.076 75.9732 28.9827 76.9226 28.996C79.3226 29.0267 79.0706 28.612 79.0772 31.1533C79.0772 31.944 79.0772 32.7333 79.0772 33.6493H81.6972C81.6972 32.3667 81.7359 31.116 81.6812 29.8813C81.6492 29.1493 81.9226 28.9187 82.6146 28.984C83.0998 29.0173 83.5867 29.0173 84.0719 28.984C84.6052 28.9613 84.7906 29.1867 84.7799 29.7147C84.7532 30.9907 84.7706 32.268 84.7706 33.548C85.7119 33.724 86.6186 33.84 87.4972 34.068C90.6706 34.892 92.2799 37.0213 92.1292 40.2533C92.0439 42.0827 91.1492 43.5387 89.7172 44.752C90.9466 45.1053 91.9972 45.6853 92.7919 46.6507C95.6999 50.188 94.2186 55.3173 89.8146 56.7413C88.5972 57.132 87.2732 57.1987 85.9946 57.3853C85.6239 57.44 85.2399 57.3933 84.7732 57.3933C84.7732 58.8053 84.7346 60.1547 84.7892 61.4987C84.8186 62.2267 84.5372 62.432 83.8559 62.4253C81.1892 62.3973 81.7506 62.5907 81.6986 60.3493C81.6772 59.404 81.6986 58.4587 81.6986 57.4533H79.0919V61.396C79.0919 62.3293 79.0146 62.412 78.1052 62.4187C75.9626 62.4347 75.9626 62.4347 75.9719 60.276C75.9719 59.336 75.9719 58.396 75.9719 57.4173C74.0959 57.4173 72.3359 57.4173 70.5746 57.4173C69.6132 57.4173 69.5786 57.372 69.5759 56.42C69.5759 55.8307 69.6079 55.24 69.5666 54.656C69.5172 53.9613 69.7799 53.676 70.4879 53.7027C71.4772 53.7467 72.4732 53.7187 73.5546 53.7187ZM79.1426 46.8893V53.9773C80.9799 53.9773 82.7652 54.028 84.5452 53.9507C85.1812 53.9227 85.8426 53.6627 86.4226 53.3693C87.5999 52.7747 88.2386 51.2 87.9812 49.7333C87.7332 48.3493 86.7999 47.2667 85.4266 47.1493C83.3506 46.9707 81.2599 46.968 79.1426 46.8893ZM79.1426 37.072V43.8013C80.6012 43.7267 82.0052 43.7173 83.3946 43.568C85.0719 43.388 86.1399 42.0813 86.1546 40.3613C86.1692 38.4747 85.2612 37.2733 83.4506 37.0987C82.0439 36.9627 80.6106 37.0667 79.1466 37.0667L79.1426 37.072Z" fill="#F7931B"/>
</svg>
