<svg width="160" height="160" viewBox="0 0 160 160" fill="none" xmlns="http://www.w3.org/2000/svg">
<path d="M122.305 121.325C122.305 120.659 122.013 120.273 121.463 120.045C120.444 119.625 119.665 120.179 119.659 121.364C119.643 124.8 119.659 128.237 119.659 131.673C119.665 132.211 119.633 132.748 119.563 133.281C119.312 135.015 117.947 136.199 116.196 136.201C114.812 136.201 113.427 136.181 112.041 136.181C92.1152 136.188 72.1876 136.196 52.2587 136.207C49.5401 136.207 46.8227 136.223 44.1041 136.231C39.7707 136.223 35.437 136.213 31.1027 136.203C30.7962 136.22 30.4887 136.197 30.1881 136.135C28.6787 135.735 27.7881 134.464 27.7881 132.659C27.7827 115.318 27.7783 97.9782 27.7747 80.6387C27.7747 62.9658 27.7721 45.2929 27.7667 27.62C27.7667 27.1107 27.7187 26.596 27.8587 26.0933C28.2587 24.6827 29.3827 23.8667 31.0374 23.8573C34.1414 23.84 37.2441 23.8467 40.3481 23.8453L101.681 23.836C102.644 23.836 102.733 23.9333 102.748 24.8773C102.801 27.5693 102.847 30.2613 102.921 32.9533C102.959 34.336 102.883 35.72 103.048 37.1013C103.231 38.6293 104.105 39.6973 105.597 40.1813C106.206 40.3733 106.841 40.4674 107.479 40.46C111.171 40.46 114.864 40.46 118.556 40.3133C119.557 40.2733 119.657 40.3893 119.657 41.3947C119.657 45.6782 119.657 49.9618 119.657 54.2453C119.657 59.4791 119.657 64.712 119.657 69.944C119.657 70.4387 119.733 70.8387 120.228 71.088C121.244 71.6 122.272 70.9187 122.273 69.7C122.273 64.672 122.273 59.6453 122.281 54.6173C122.289 49.8991 122.302 45.1804 122.323 40.4613C122.531 39.811 122.531 39.1117 122.323 38.4613C122.257 38.104 121.973 37.9053 121.74 37.676C118.717 34.6987 115.673 31.7413 112.673 28.7427C110.54 26.6093 108.456 24.432 106.344 22.28C106.156 22.088 106.015 21.808 105.677 21.8147C105.256 21.0933 104.556 20.96 103.811 20.9373C103.023 20.912 102.233 21.0413 101.447 20.92C101.212 20.9951 100.964 21.0192 100.719 20.9907C100.961 20.972 101.204 20.9507 101.447 20.92L93.3334 20.9147C93.1334 20.9147 92.9201 20.8747 92.7547 21.0413C92.5494 21.0493 92.3454 21.0653 92.1414 21.0653C74.6098 21.0796 57.0783 21.0929 39.5467 21.1053C36.6267 21.1053 33.7067 21.0907 30.7881 21.0827C30.4054 21.1093 30.0054 20.9493 29.6441 21.1947C28.6894 21.3482 27.7896 21.7424 27.0294 22.34C25.9561 23.14 25.4227 24.26 25.1534 25.5333C24.9121 25.6667 24.5921 25.7733 25.0454 26.048C25.0294 27.4151 25.0139 28.7822 24.9987 30.1493C25.0081 30.328 25.0241 30.5067 25.0241 30.6827C25.0241 46.6933 25.0241 62.7036 25.0241 78.7133C25.0241 78.892 25.0081 79.0707 24.9987 79.2467C25.0081 79.528 25.0241 79.8093 25.0241 80.092C25.0241 85.8849 25.0241 91.6782 25.0241 97.472C25.0241 109.423 25.0272 121.374 25.0334 133.324C25.0194 133.495 25.0271 133.667 25.0561 133.836C25.6347 136.061 26.8467 137.772 29.0267 138.688C29.3827 139.055 29.3827 139.055 29.4974 138.785L29.9454 138.845C29.9161 138.955 29.8267 139.148 30.0547 139.063C30.4547 138.912 30.8681 138.976 31.2734 138.976C52.4867 138.971 73.7001 138.971 94.9134 138.976C101.453 138.976 107.993 138.972 114.535 138.964C115.017 138.952 115.501 138.956 115.984 138.927C117.112 138.856 118.251 138.849 119.232 138.127C120.66 137.083 121.713 135.779 122.176 134.045C122.895 134.037 122.259 133.719 122.291 133.553C122.291 129.481 122.281 125.403 122.305 121.325ZM106.692 26.8C106.707 26.7922 106.721 26.7833 106.735 26.7733L106.748 26.764V26.7853C106.711 27.2173 107.072 27.3973 107.308 27.644C110.229 30.6867 113.345 33.5293 116.328 36.5067C116.64 36.8187 116.888 37.1347 116.907 37.5733C116.884 37.5613 116.861 37.5506 116.837 37.5413C116.485 37.4347 116.125 37.4653 115.771 37.4653C113.156 37.4653 110.543 37.4813 107.927 37.456C106.48 37.4427 105.915 36.9227 105.927 35.52C105.955 32.8533 105.66 30.1987 105.751 27.532C105.785 26.476 105.759 26.4747 106.692 26.8ZM113.867 138.892C114.092 138.868 114.319 138.893 114.533 138.964C114.309 138.933 114.087 138.911 113.867 138.892Z" fill="#3A3A3A"/>
<path d="M80.6441 104.787C81.1961 104.763 81.7814 104.733 82.1494 104.199C82.3194 103.973 82.4185 103.701 82.4339 103.419C82.4493 103.137 82.3805 102.856 82.2361 102.613C81.8761 101.937 81.2427 101.888 80.5867 101.888H59.5201V102.008C52.4454 102.008 45.3707 102.02 38.2961 101.995C37.2227 101.995 36.8201 102.687 36.7787 103.436C36.7347 104.247 37.3787 104.799 38.2761 104.799H77.9574C78.8507 104.8 79.7494 104.827 80.6441 104.787Z" fill="#3A3A3A"/>
<path d="M38.4172 93.8747C47.8279 93.8693 57.2403 93.8591 66.6546 93.844C70.7319 93.8334 74.8092 93.768 78.8866 93.7293C79.3399 93.7293 79.7292 93.6374 80.0079 93.2187C80.3159 92.7534 80.4186 92.264 80.1706 91.776C79.8666 91.1814 79.3559 90.9333 78.6666 90.9333C71.9732 90.9333 65.2799 90.956 57.6746 91.0893H52.4266C47.7083 91.0893 42.9892 91.0893 38.2692 91.0893C37.6252 91.0893 37.1319 91.2867 36.8692 91.9053C36.4186 92.9773 37.1239 93.876 38.4172 93.8747Z" fill="#3A3A3A"/>
<path d="M70.8001 115.571C71.5708 115.467 72.0934 114.932 72.1255 114.237C72.1628 113.419 71.8428 113.037 70.9855 112.785C70.5893 112.682 70.18 112.637 69.7708 112.652C59.3121 112.693 48.8534 112.864 38.3948 112.807C37.3668 112.807 36.7375 113.34 36.7801 114.205C36.8335 115.255 37.5988 115.601 38.4241 115.596C43.7041 115.561 48.9854 115.579 54.2668 115.579H70.1828C70.3885 115.589 70.5947 115.587 70.8001 115.571Z" fill="#3A3A3A"/>
<path d="M48.0787 123.583H38.4C37.3814 123.583 36.86 124.06 36.8774 124.963C36.8934 125.799 37.504 126.352 38.428 126.352C44.8823 126.352 51.3374 126.352 57.7934 126.352C58.8254 126.352 59.3347 125.904 59.3507 124.995C59.3667 124.085 58.8267 123.583 57.7667 123.583C54.5365 123.581 51.3071 123.581 48.0787 123.583Z" fill="#3A3A3A"/>
<path d="M91.936 73.6667C94.1626 70.3907 95.6693 66.812 96.1093 62.8547C96.4975 59.5242 96.3928 56.1546 95.7986 52.8547C95.2266 49.768 94.1226 46.8853 92.2719 44.3213C91.5706 43.2063 90.7517 42.1697 89.8293 41.2293C89.304 40.672 88.8746 40.012 88.1413 39.6827C87.8866 39.4067 87.6586 39.0973 87.3706 38.8627C83.1706 35.4507 78.5706 32.996 73.056 32.4213C69.8106 32.0853 66.612 32.1133 63.456 32.8213C57.5226 34.1547 52.7413 37.4307 48.8666 42.012C43.6146 48.224 42.0666 55.5053 43.2346 63.404C43.9146 68.0213 45.9533 72.096 48.9 75.7107C49.5578 76.631 50.3257 77.4674 51.1866 78.2013C52.3108 79.2985 53.5535 80.2671 54.892 81.0893C58.928 83.8106 63.4253 85.1013 68.2439 85.4133C71.044 85.5947 73.7933 85.2627 76.5106 84.6427C80.9733 83.6253 84.836 81.5013 88.132 78.3347C89.644 76.976 90.8 75.3333 91.936 73.6667ZM85.0413 77.4C84.792 77.572 84.5333 77.736 84.292 77.9187C80.736 80.6427 76.7053 82.1853 72.2706 82.6107C68.0974 83.0106 63.8906 82.3512 60.04 80.6933C57.1 79.448 54.54 77.6413 52.2786 75.3987L51.812 74.9226C50.0893 73.104 48.8093 70.9893 47.6786 68.7773C47.7013 68.4827 47.5453 68.2373 47.4439 67.9867C45.4333 63.3373 45.2453 58.5333 46.2439 53.6347C46.9919 49.952 48.604 46.668 50.892 43.7013C52.7466 41.6067 54.7959 39.76 57.2773 38.4093C58.8586 37.548 60.5306 36.9053 62.164 36.1693C62.2908 36.1635 62.4167 36.1451 62.54 36.1147C66.2733 34.852 70.1026 34.7987 73.94 35.4333C77.84 36.0787 81.2893 37.8067 84.4453 40.1467C85.6973 41.044 86.6666 42.248 87.8266 43.2453C88.3346 43.852 88.8706 44.4373 89.3453 45.0693C91.656 48.148 92.876 51.648 93.392 55.4373C93.8089 58.3305 93.71 61.2746 93.1 64.1333C92.184 68.34 90.1666 72 87.3546 75.24L85.0413 77.4Z" fill="#F7931B"/>
<path d="M134.949 92.6453L134.917 92.2013C134.815 91.7867 135.503 91.2013 134.651 90.9507C134.651 90.848 134.651 90.7453 134.641 90.6427H135.193C135.012 90.3653 134.808 90.396 134.591 90.5013C133.619 86.7587 132.176 83.248 129.541 80.3293C129.517 80.2568 129.478 80.1902 129.427 80.1341C129.375 80.0779 129.312 80.0336 129.241 80.004L127.089 77.8667C127.06 77.7964 127.016 77.7333 126.96 77.6816C126.904 77.6298 126.838 77.5906 126.765 77.5667C126.057 76.8996 125.292 76.2964 124.477 75.764C119.064 72.04 113.024 71.196 106.712 72.2387C100.253 73.3053 95.2573 76.804 91.604 82.212C90.3093 84.128 89.2693 86.1787 88.7293 88.452C88.7173 88.452 88.708 88.4733 88.6986 88.5187C88.6966 88.5301 88.6966 88.5419 88.6986 88.5533C87.5066 92.232 87.4146 95.9867 88.032 99.7707C88.6986 103.851 90.3226 107.515 93.036 110.667C93.7026 111.483 94.3693 112.308 95.204 112.972C95.2107 112.997 95.222 113.02 95.2373 113.041C100.543 117.793 106.732 119.953 113.841 119.288C117.2 118.973 120.348 117.945 123.192 116.088C123.209 116.08 123.224 116.07 123.239 116.059C123.315 116.051 123.408 116.068 123.463 116.031C125.42 114.716 127.307 113.331 128.9 111.553C131.007 109.244 132.637 106.541 133.696 103.6C134.871 100.309 135.244 96.9147 135.067 93.444C135.051 93.1747 135.167 92.8853 134.949 92.6453ZM92.8066 105.095C90.5786 100.808 90.1733 96.2333 90.912 91.5667C91.72 86.444 94.3199 82.3093 98.4053 79.108C98.8053 78.796 99.2559 78.5333 99.5386 78.088C99.5459 78.0583 99.5495 78.0279 99.5493 77.9973C99.8546 78.1213 100.059 77.888 100.281 77.7573C101.002 77.3185 101.745 76.918 102.508 76.5573C105.364 75.268 108.351 74.764 111.477 74.8347C116.271 74.944 120.577 76.3627 124.339 79.368C124.637 79.6053 124.913 79.884 125.316 79.9493H125.348C125.341 79.9892 125.342 80.0302 125.353 80.0693C125.363 80.1085 125.382 80.1449 125.408 80.176C126.273 81.1093 127.133 82.0427 128.001 82.964C128.016 82.9775 128.036 82.9847 128.056 82.984C128.053 83.0204 128.053 83.0569 128.056 83.0933C128.128 83.4307 128.339 83.696 128.527 83.9693C129.213 84.9932 129.789 86.0863 130.247 87.2307C131.552 90.356 132.025 93.6107 131.821 96.9987C131.688 99.12 131.351 101.185 130.58 103.153C128.345 108.86 124.347 112.856 118.637 115.068C112.615 117.399 106.78 116.837 101.149 113.735C100.113 113.165 99.232 112.368 98.1853 111.824L98.1306 111.833C98.1653 111.587 97.9253 111.5 97.7893 111.367C96.3119 109.928 94.8559 108.472 93.7213 106.732C93.6146 106.568 93.5213 106.355 93.284 106.344L93.2946 106.305C93.2626 105.841 93.0053 105.476 92.8066 105.095Z" fill="#3A3A3A"/>
<path d="M82.0867 59.7333C81.3733 58.92 80.388 58.544 79.496 58.0133L79.672 57.7106C81.0813 56.2613 81.5067 54.4866 81.3533 52.54C81.212 50.7533 80.564 49.196 79.1693 48.0066C77.688 46.7346 75.852 46.444 74.02 46.1853C73.4867 46.1093 73.3226 45.8973 73.3293 45.4053C73.3426 44.4853 73.352 43.564 73.3187 42.644C73.2973 42.0213 73.4746 41.384 73.2 40.7773C73.092 40.4693 72.8333 40.4707 72.572 40.472C72.06 40.472 71.5467 40.472 71.0347 40.472C69.9907 40.472 69.8573 40.6053 69.852 41.672C69.852 42.6973 69.852 43.7227 69.8413 44.7493C69.8253 46.224 69.7987 46.2453 68.336 46.1467L68.0293 46.12C67.5493 46.0733 67.324 45.8533 67.3387 45.32C67.3747 44.0133 67.3187 42.704 67.364 41.3973C67.3867 40.7307 67.1346 40.4547 66.4866 40.464C65.8386 40.4733 65.2027 40.4907 64.564 40.464C64.0507 40.4387 63.8973 40.66 63.8973 41.1467C63.8907 42.5307 63.8093 43.9146 63.8293 45.2986C63.84 45.9493 63.6026 46.1467 62.988 46.1413C61.296 46.1227 59.6027 46.1547 57.9093 46.1413C57.5093 46.1413 57.3093 46.192 57.3293 46.6747C57.368 47.6213 57.3626 48.5733 57.3293 49.52C57.3133 49.9413 57.4626 50.0387 57.848 50.02C58.488 49.9907 59.1307 50.0133 59.772 50.0133C60.972 50.0133 61.0733 50.108 61.072 51.3267C61.0627 56.5573 61.0387 61.788 61.0427 67.0173C61.0427 67.6733 60.7667 67.884 60.172 67.872C59.48 67.856 58.7853 67.9 58.0946 67.8573C57.5373 67.824 57.2613 68.0707 57.244 68.5853C57.2173 69.456 57.2293 70.328 57.2347 71.1987C57.2347 71.5667 57.412 71.732 57.8133 71.7253C59.58 71.712 61.348 71.7253 63.1146 71.732C63.144 71.732 63.1733 71.74 63.1986 71.744C63.2733 71.7627 63.3506 71.7933 63.4213 71.804C63.7346 71.9293 63.84 72.204 63.828 72.6453C63.7906 74.004 63.8347 75.364 63.8387 76.724C63.8387 77.3213 64.0786 77.6187 64.724 77.576C65.3373 77.5347 65.9546 77.56 66.5693 77.568C67.1026 77.568 67.3613 77.3493 67.3507 76.7853C67.3293 75.6573 67.3427 74.528 67.3427 73.4C67.3427 71.86 67.3426 71.86 68.908 71.8707C69.804 71.8707 69.956 72.0293 69.9573 72.96C69.9573 74.268 69.976 75.5773 69.9493 76.884C69.94 77.392 70.148 77.576 70.624 77.568C71.2386 77.5587 71.8573 77.5387 72.4707 77.568C73.148 77.6053 73.3653 77.3013 73.356 76.6533C73.3346 75.0627 73.356 73.4733 73.364 71.8827C74.3826 71.8267 75.4027 71.9027 76.42 71.724C78.5533 71.3493 80.4373 70.548 81.8027 68.7827C81.8437 68.7532 81.8817 68.7197 81.916 68.6827C83.24 66.9653 83.4253 64.9693 83.3613 62.9C83.332 61.7253 82.8793 60.6007 82.0867 59.7333ZM67.356 50.1707C67.4122 50.1523 67.4704 50.1407 67.5293 50.136C67.816 50.1106 68.1013 50.0853 68.388 50.0667C68.944 50.0922 69.5011 50.0757 70.0546 50.0173C70.8463 50.0231 71.6358 50.1012 72.4133 50.2507C74.028 50.5733 74.8666 51.68 74.8906 53.184C74.92 55.1587 74.208 56.2507 72.4533 56.7187C70.8533 57.1493 69.2 56.8773 67.5707 56.904C67.1866 56.904 67.0266 56.6093 67.0373 56.2093C67.056 55.2893 67.0373 54.368 67.0373 53.448C67.0373 52.5506 67.0373 51.6547 67.0373 50.76C67.0327 50.6467 67.0476 50.5335 67.0813 50.4253C67.1451 50.3147 67.2408 50.2259 67.356 50.1707ZM68.268 67.6373C67.376 67.6293 67.2693 67.5173 67.2653 66.5933C67.2573 65.0307 67.2733 63.468 67.2573 61.9067C67.2294 61.4157 67.3209 60.9252 67.524 60.4773C67.7733 60.744 68.1107 60.6907 68.4253 60.6947C69.6013 60.7066 70.776 60.6707 71.9507 60.7066C73.0827 60.7426 74.2027 60.8587 75.104 61.6747C75.1639 61.7429 75.2387 61.7963 75.3227 61.8308C75.4066 61.8652 75.4974 61.8798 75.588 61.8733C75.5806 61.9016 75.5779 61.9309 75.58 61.96C75.8746 62.744 76.2973 63.4893 76.1653 64.3867C75.8693 66.4027 74.54 67.5613 72.3347 67.6307C70.984 67.672 69.624 67.648 68.2667 67.6373H68.268Z" fill="#F7931B"/>
<path d="M98.5786 97.2707L98.8985 97.584C100.746 99.5298 102.592 101.476 104.439 103.423C104.543 103.529 104.644 103.637 104.747 103.745C105.189 104.239 105.611 104.755 106.08 105.22C106.82 105.956 107.973 105.976 108.613 105.285C108.837 105.045 109.023 104.769 109.225 104.508C111.004 102.533 112.8 100.575 114.472 98.508C115.475 97.7507 116.212 96.7347 117.048 95.82C119.477 93.1533 121.889 90.4747 124.283 87.784C124.949 87.0293 124.975 86.044 124.416 85.4347C123.857 84.8253 122.824 84.7427 121.997 85.256C121.925 85.2803 121.859 85.3203 121.803 85.373C121.748 85.4258 121.705 85.4901 121.677 85.5613L119.991 87.3933C118.503 89.036 117.015 90.6804 115.527 92.3267C115.522 92.3275 115.518 92.3292 115.514 92.3317C115.51 92.3342 115.506 92.3375 115.504 92.3413C114.931 92.7507 114.62 93.3933 114.129 93.8747C113.89 94.0597 113.676 94.2743 113.491 94.5133C111.585 96.6467 109.715 98.8 107.723 100.848C107.364 101.216 107.045 101.265 106.728 100.817C106.725 100.744 106.694 100.675 106.643 100.623C106.591 100.571 106.522 100.54 106.449 100.536C104.661 98.5707 102.959 96.528 100.929 94.8027C100.827 94.5874 100.682 94.3958 100.501 94.2401C100.321 94.0844 100.11 93.968 99.8826 93.8983C99.6549 93.8287 99.4151 93.8073 99.1786 93.8356C98.9421 93.8639 98.7141 93.9412 98.5092 94.0627C97.4546 94.6987 97.2372 96.1787 98.5786 97.2707Z" fill="#3A3A3A"/>
</svg>
