<svg width="160" height="160" viewBox="0 0 160 160" fill="none" xmlns="http://www.w3.org/2000/svg">
<path d="M138.667 72.0493C138.667 71.264 138.421 70.5467 137.704 70.0867C137.504 69.823 137.208 69.6494 136.88 69.604C134.973 69.2947 133.071 68.9373 131.127 68.9373C131.092 68.9185 131.054 68.9071 131.015 68.904C129.931 68.5627 128.804 68.512 127.681 68.4387C127.257 68.268 127.267 67.8467 127.172 67.5053C126.731 65.8987 126.251 64.3053 125.539 62.796C124.819 60.728 123.827 58.8 122.688 56.9333L122.211 56.1107C122.137 55.7293 121.48 55.4947 121.921 54.984C122.092 54.9102 122.241 54.793 122.352 54.644C122.464 54.495 122.535 54.3194 122.557 54.1347L122.709 53.9613C123.08 53.5973 123.424 53.2173 123.544 52.6893C124.744 51.3213 125.677 49.756 126.671 48.24C126.907 47.964 127.236 47.736 127.164 47.2973C128.033 46.5467 128.031 45.4107 127.164 44.4133C126.737 43.9573 126.335 43.48 125.876 43.052C125.417 42.624 125.193 41.996 124.528 41.828C124.16 41.6533 124.044 41.2707 123.825 40.9747C123.089 40.2093 122.453 39.34 121.524 38.776C121.051 37.976 120.253 37.4947 119.613 36.8573C119.333 36.478 118.989 36.1505 118.596 35.8893C118.021 35.2123 117.36 34.6131 116.631 34.1067L116.424 33.9093C115.292 32.5133 113.891 32.34 112.515 33.428C112.157 33.672 111.767 33.8747 111.493 34.228L110.855 34.7293L108.557 36.5387L107.716 37.2L106.901 37.8667C106.19 38.416 105.479 38.9649 104.768 39.5133L104.101 39.3693C103.803 39.1627 103.517 38.936 103.156 38.836C102.747 38.505 102.29 38.2375 101.801 38.0427C98.8146 36.2293 95.5546 35.1027 92.1759 34.3093C91.5479 34.1613 91.3492 33.9093 91.2532 33.3067C90.9159 31.1853 90.5159 29.076 90.1386 26.9613C90.2226 26.62 89.9492 26.3453 89.9626 26.0173C89.9706 25.9987 89.9879 25.9787 89.9852 25.9627C89.9754 25.9271 89.9629 25.8924 89.9479 25.8587C89.7852 25.092 89.9026 24.2587 89.4372 23.5613C89.1386 22.8213 88.5452 22.4493 87.8066 22.2587C87.4279 22.2213 87.0492 22.1507 86.6706 22.1507C82.6839 22.1507 78.6968 22.1551 74.7092 22.164C73.8119 22.164 72.9066 22.068 72.0159 22.2667C71.7521 22.2876 71.4971 22.3711 71.2719 22.5103C71.0468 22.6494 70.858 22.8401 70.7212 23.0667C70.4562 23.3061 70.2795 23.6278 70.2199 23.98C69.9252 25.588 69.6679 27.204 69.3986 28.8173L68.5026 34.0573C68.2959 34.1213 68.0932 34.1907 67.8839 34.2467C65.5186 34.8267 63.1852 35.504 60.9812 36.564C59.2252 37.2693 57.6346 38.2813 56.0119 39.2307C55.6559 39.4387 55.3172 39.7107 54.9146 39.3253C54.7559 39.0813 54.5066 38.9587 54.2599 38.832C53.9812 38.4867 53.6106 38.2533 53.2479 38.0093C53.0186 37.742 52.7349 37.5266 52.4159 37.3773C52.2089 37.0911 51.9264 36.8682 51.5999 36.7333C51.3466 36.4813 51.1252 36.1933 50.7839 36.0507L49.7839 35.2507L49.3092 34.8933C48.7993 34.4056 48.2428 33.9688 47.6479 33.5893C45.9812 32.2173 44.0026 32.636 43.0266 34.5667C42.8932 34.5747 42.7439 34.5267 42.7079 34.7227C42.3079 35.0867 41.8839 35.4187 41.5972 35.8853C41.5839 35.9387 41.5706 35.9907 41.5599 36.0413C40.8572 36.2933 40.4652 36.9147 39.9759 37.4067C37.7026 39.6907 35.3399 41.8853 33.1692 44.2693C32.1906 45.2587 32.2492 46.5133 33.3266 47.7067C33.3772 47.7667 33.4279 47.824 33.4799 47.8813C33.8372 48.6653 34.2799 49.388 34.9626 49.9373L34.9306 49.976L34.9559 50.0173C35.1186 50.6333 35.5599 51.0667 35.9452 51.5373C36.0439 51.9453 36.3652 52.204 36.6119 52.5067L37.7599 54.1707C37.9572 54.7373 38.7226 55.1413 38.2519 55.8973C37.8052 56.5227 37.3732 57.156 37.1012 57.884C36.5807 58.6658 36.1512 59.5046 35.8212 60.384C35.5746 60.928 35.3132 61.464 35.0866 62.016C34.2519 64.048 33.4252 66.0827 32.9892 68.2507C32.2199 68.3653 31.4519 68.4893 30.6812 68.596C29.1252 68.8107 27.5692 69.0173 26.0146 69.2267L23.9466 69.4667C23.3852 69.4213 22.9266 69.6907 22.4679 69.9573C21.4759 70.5627 21.2599 71.504 21.3399 72.572V87.684C21.3319 88.7213 21.7746 89.5267 22.6732 90.0173C23.4186 90.4173 24.2732 90.4173 25.0972 90.4627C26.7612 90.7373 28.4146 91.0907 30.1079 91.16C30.8276 91.344 31.5644 91.4535 32.3066 91.4867C32.5252 91.6053 32.7466 91.724 32.9652 91.844C33.593 94.8327 34.6506 97.7147 36.1052 100.4C36.1626 100.685 36.2957 100.95 36.4906 101.167C36.646 101.582 36.8641 101.972 37.1372 102.321C37.3321 102.808 37.5981 103.262 37.9266 103.671C38.1866 104.176 38.6652 104.636 38.2706 105.283C38.2545 105.329 38.2545 105.379 38.2706 105.425C37.7786 105.496 37.7039 105.968 37.4492 106.268L37.1132 106.736L36.4759 107.585C36.0759 108.119 35.6039 108.604 35.3039 109.211C34.9346 109.688 34.4786 110.108 34.3052 110.715L34.2879 110.751L34.3199 110.777C33.8719 110.993 33.7252 111.444 33.4919 111.831C33.0092 112.419 32.4639 112.977 32.5292 113.831C32.5292 113.944 32.5359 114.056 32.5386 114.169C32.4559 114.555 32.6506 114.851 32.8479 115.148C32.9718 115.488 33.1953 115.782 33.4892 115.993C34.9399 117.549 36.3626 119.132 37.9466 120.559V120.567C38.3986 121.056 38.7652 121.633 39.4132 121.912C39.5359 122.068 39.6612 122.225 39.7866 122.381C41.0533 123.786 42.4118 125.105 43.8532 126.329C45.2652 127.687 46.4092 127.643 48.0026 126.171L49.0132 125.359L51.7639 123.2C51.7746 123.2 51.7852 123.191 51.7959 123.176L53.4292 121.895L54.0666 121.387L54.8972 120.747C55.1426 120.663 55.3426 120.807 55.5572 120.88C58.1866 122.545 60.9399 123.947 63.9332 124.852C63.9837 124.878 64.0369 124.899 64.0919 124.913C65.4812 125.467 66.9372 125.796 68.3799 126.167C68.6248 127.139 68.803 128.127 68.9132 129.124C68.9666 129.287 69.0199 129.449 69.0719 129.613C69.0212 130.405 69.3892 131.136 69.4106 131.917C69.2839 132.184 69.5932 132.335 69.5719 132.572C69.6725 133.755 69.8736 134.928 70.1732 136.077C70.4506 137.075 71.1066 137.709 72.1812 137.817C74.2266 137.831 76.2719 137.857 78.3146 137.855C81.4239 137.855 84.5346 137.827 87.6479 137.811C88.3319 137.723 88.9199 137.473 89.2879 136.848C89.8866 136.093 89.9212 135.185 89.9839 134.284C90.5252 132.107 90.6852 129.865 91.1172 127.669C91.3932 127.145 91.2132 126.489 91.6012 125.999C93.4332 125.767 95.1426 125.104 96.8652 124.489C97.9631 124.172 99.0263 123.745 100.039 123.215L100.109 123.224L100.167 123.179C100.924 122.869 101.671 122.539 102.341 122.061L102.409 122.072L102.468 122.031C103.062 121.78 103.625 121.46 104.145 121.08L104.765 120.724C105.024 120.704 105.292 120.647 105.485 120.899C105.686 121.174 105.951 121.396 106.257 121.545L107.057 122.223L107.889 122.88L110.177 124.716L111.175 125.545C112.041 126.087 112.696 126.963 113.767 127.184C113.928 127.289 114.117 127.345 114.31 127.345C114.503 127.345 114.692 127.289 114.853 127.184C115.881 126.911 116.587 126.241 117.127 125.356C117.235 125.291 117.341 125.223 117.448 125.157C120.016 122.869 122.407 120.399 124.823 117.957H124.836C125.423 117.387 126.111 116.911 126.513 116.168C128.113 114.812 128.225 113.516 126.848 112.193C126.669 111.737 126.456 111.308 126.027 111.031C125.802 110.505 125.502 110.016 125.136 109.577C124.953 109.289 124.835 108.951 124.511 108.777C124.322 108.328 124.046 107.92 123.7 107.577C123.567 107.349 123.461 107.088 123.193 106.967C123.144 106.907 123.093 106.848 123.044 106.789C122.926 106.392 122.694 106.038 122.377 105.771L122.032 105.308C121.749 105.019 121.777 104.676 121.863 104.323C121.923 104.256 121.98 104.189 122.037 104.121C122.445 103.721 122.757 103.26 122.848 102.679C122.911 102.58 122.973 102.48 123.037 102.381C123.655 101.928 123.784 101.201 124.063 100.559L124.045 100.572C124.853 99.4013 125.351 98.088 125.8 96.7533C126.392 95.3492 126.849 93.8914 127.163 92.4C127.316 91.636 127.664 91.2387 128.461 91.2987L130.595 90.976L132.079 90.8093L134.383 90.484C135.449 90.2893 136.611 90.456 137.537 89.6933C137.749 89.5932 137.918 89.4199 138.012 89.2053C138.435 88.7381 138.666 88.1278 138.657 87.4973C138.673 82.34 138.676 77.1907 138.667 72.0493ZM116.429 122.208L114.696 123.859L114.469 124.067C114.125 124.295 113.921 123.995 113.669 123.859C113.371 123.541 113.081 123.217 112.645 123.088C112.453 122.761 112.143 122.576 111.836 122.383L111.196 121.884L109.556 120.565C109.316 120.299 109.029 120.08 108.708 119.92L107.888 119.26C107.674 119.094 107.459 118.928 107.243 118.761L106.411 118.133C106.187 117.951 105.975 117.744 105.653 117.752C104.649 117.383 103.857 117.807 103.12 118.419H103.107C102.682 118.565 102.29 118.791 101.951 119.085C100.699 119.693 99.4452 120.301 98.1892 120.909H98.1799C97.8266 121.051 97.4719 121.195 97.1132 121.335C97.0745 121.346 97.037 121.361 97.0012 121.38L92.7532 122.728H92.7412C92.2839 122.829 91.8292 122.931 91.3732 123.036C90.4532 123.249 89.4959 123.4 88.9812 124.349C88.6546 124.671 88.5452 125.089 88.4559 125.517C87.8172 128.615 87.4959 131.771 86.7946 134.86L73.6639 134.901L73.1692 134.863C72.5146 133.036 72.4346 131.089 72.0172 129.215C71.6946 127.765 71.6986 126.253 71.1639 124.845C70.7199 123.668 69.7586 123.277 68.6106 123.172L63.7799 121.741L59.9999 120.109L59.3332 119.765L57.0332 118.461C55.4559 117.325 54.5426 117.319 53.2332 118.435C53.0181 118.602 52.803 118.768 52.5879 118.933C52.3119 119.151 52.0359 119.368 51.7572 119.585L49.4666 121.409C49.4546 121.409 49.4399 121.42 49.4266 121.441L47.8146 122.709C47.2319 123.109 46.6479 123.509 46.1599 124.025C45.8492 124.233 45.6346 124.048 45.4159 123.845C45.0719 123.525 44.7146 123.223 44.3639 122.912L43.9852 122.543L40.4239 119.091C38.9839 117.624 37.5812 116.131 36.0852 114.725C35.4866 114.164 35.4492 113.74 35.9519 113.173H35.9586C36.4412 112.611 36.9119 112.039 37.2532 111.372C37.6386 110.775 38.2786 110.348 38.4532 109.607C39.0706 109.095 39.4546 108.407 39.8959 107.756C40.0599 107.536 40.2266 107.316 40.3932 107.097C40.8426 106.496 41.5066 106.005 41.4292 105.127L41.4106 105.147C41.7679 104.747 41.5932 104.361 41.3786 103.977C41.1962 103.486 40.9276 103.032 40.5852 102.636C40.5492 102.369 40.3719 102.197 40.2212 102.005C40.1066 101.747 40.0039 101.481 39.7746 101.296C38.9519 99.8213 38.2746 98.2787 37.5866 96.7413C37.3866 96.2195 37.1861 95.6978 36.9852 95.176C36.7826 94.468 36.6439 93.74 36.3186 93.0733C36.1412 92.3413 35.9932 91.5987 35.7759 90.8773C35.5786 90.2107 35.3759 89.524 34.6559 89.1947C34.3477 88.8916 33.9468 88.7005 33.5172 88.652C32.4132 88.508 31.3106 88.3587 30.2092 88.212C28.5706 87.9733 26.9359 87.708 25.2932 87.504C24.5826 87.4147 24.1092 87.212 24.2559 86.3813C24.2666 82.0573 24.2972 77.7347 24.2679 73.4133C24.2679 72.6373 24.5519 72.376 25.2532 72.3973C25.3866 72.3973 25.5306 72.4307 25.6239 72.292L26.7519 72.2027L27.5772 72.0493C29.3466 71.9547 31.0932 71.6693 32.8452 71.4253C33.6012 71.3227 34.4452 71.3413 34.9559 70.596L35.1519 70.3867C35.4599 70.2533 35.5626 69.964 35.6492 69.6907C35.9306 68.7893 36.1826 67.8773 36.4492 66.9707C36.9426 65.6018 37.4363 64.2316 37.9306 62.86C38.4808 61.6644 39.0372 60.4675 39.5999 59.2693C39.9319 58.664 40.3999 58.136 40.5519 57.4347C40.5625 57.4288 40.5719 57.4209 40.5794 57.4115C40.587 57.402 40.5926 57.3911 40.5959 57.3795C40.5993 57.3678 40.6003 57.3556 40.5989 57.3436C40.5975 57.3316 40.5938 57.3199 40.5879 57.3093C41.4652 56.5347 41.8172 55.6133 41.3666 54.4733C40.9677 53.6974 40.4867 52.9666 39.9319 52.2933C39.8199 52.124 39.7132 51.9507 39.6066 51.776L39.4666 51.5453C39.4466 51.512 39.4252 51.48 39.4039 51.4467C39.3826 51.4133 39.3372 51.3413 39.3026 51.2893C39.2852 51.264 39.2679 51.2373 39.2492 51.212C39.2119 51.1547 39.1719 51.0987 39.1319 51.0427L39.0799 50.972C39.0572 50.944 39.0372 50.9133 39.0146 50.8853C38.9919 50.8573 38.9772 50.8413 38.9586 50.82C38.9399 50.7987 38.9066 50.7573 38.8799 50.7267C38.8532 50.696 38.8412 50.6787 38.8199 50.6573C38.7986 50.636 38.7666 50.6013 38.7386 50.5733L38.6932 50.5267C38.6266 50.4613 38.5599 50.3933 38.4826 50.3373C38.2466 49.6267 37.7666 49.0747 37.3026 48.5093C36.8066 47.812 36.4306 47.0293 35.8012 46.4293C35.6466 46.148 35.4559 45.868 35.8159 45.596L43.3759 38.1893C43.8479 37.988 43.9092 37.3893 44.3692 37.1693C44.8252 36.9213 45.1346 36.5027 45.4919 36.1507C45.7066 35.9347 45.8999 35.816 46.1746 36.0173C46.6492 36.4413 47.1079 36.8893 47.6772 37.1907C47.8941 37.4666 48.1667 37.6938 48.4772 37.8573L50.9332 39.836C51.1466 40.132 51.4559 40.308 51.7612 40.4907L52.5959 41.1427C54.5412 42.956 55.4932 43.0453 57.5292 41.6093L61.3519 39.5147C63.37 38.6408 65.4477 37.9114 67.5692 37.332C68.5172 37.0653 69.5612 37.0867 70.3692 36.3987L70.3946 36.3787C70.9492 36.0987 71.2399 35.6107 71.3479 35.0347C71.6946 33.168 71.9892 31.2827 72.3466 29.4133C72.6132 28.0067 72.6759 26.556 73.1866 25.1947C75.2386 25.1947 77.2919 25.1813 79.3439 25.1947C81.8319 25.204 84.3212 25.2267 86.8106 25.2453C86.8719 25.56 86.9306 25.876 86.9959 26.1907C87.4066 28.2253 87.6012 30.3 88.1266 32.3133C88.2599 33.536 88.2346 34.8013 88.9799 35.8787C89.1089 36.1657 89.3426 36.3927 89.6332 36.5133C90.0332 36.8213 90.5039 36.94 90.9866 37.0387C93.5711 37.5542 96.0824 38.3858 98.4639 39.5147C99.4626 39.9933 100.448 40.504 101.439 40.9987L101.468 41.02C101.989 41.3693 102.457 41.804 103.077 41.992C103.861 42.632 104.699 42.8347 105.629 42.3093C106.163 42.1907 106.529 41.808 106.929 41.4787C107.144 41.312 107.357 41.144 107.573 40.9773C107.909 40.7107 108.246 40.4396 108.583 40.164C108.795 40 109.007 39.8333 109.221 39.6693C109.587 39.4333 109.957 39.2053 110.225 38.8507L111.692 37.6907C112.065 37.4718 112.401 37.1961 112.689 36.8733H112.667C112.884 36.6987 113.103 36.524 113.321 36.352C113.925 35.6987 114.481 35.7587 114.995 36.4653C115.024 36.5053 115.084 36.5227 115.128 36.5507C115.233 36.766 115.412 36.9367 115.632 37.032L119.561 40.82C120.361 41.62 121.007 42.572 122.035 43.12C122.317 43.8627 122.989 44.2547 123.521 44.7747C123.8 45.308 124.528 45.448 124.699 46.0813L123.837 47.3613C123.593 47.5307 123.485 47.7973 123.351 48.044L122.2 49.6707C122.188 49.6707 122.176 49.6867 122.165 49.7187C122.015 49.9293 121.865 50.1413 121.716 50.352L120.383 52.2853C119.983 52.5893 119.867 53.0933 119.575 53.476C119.34 53.6893 119.165 53.9606 119.068 54.2627C118.595 54.9027 118.579 55.5733 118.948 56.2627C119.012 56.5293 119.107 56.7613 119.396 56.8547V56.9333C119.88 58.0613 120.577 59.0667 121.205 60.116C121.21 60.2342 121.24 60.35 121.292 60.456C121.345 60.5621 121.419 60.6561 121.509 60.732C122.056 61.9764 122.602 63.2209 123.148 64.4653C123.152 64.4931 123.163 64.5193 123.18 64.5413C123.655 66.1787 124.113 67.82 124.607 69.4493C124.727 69.9 124.975 70.3063 125.321 70.6198C125.666 70.9333 126.094 71.1408 126.555 71.2173C127.54 71.4107 128.536 71.588 129.549 71.5947C129.772 71.7547 130.023 71.744 130.277 71.7187C131.592 71.896 132.895 72.168 134.225 72.2053L134.681 72.2547C135.711 72.3147 135.748 72.976 135.748 73.8093C135.717 78.108 135.748 82.404 135.748 86.7027C135.748 86.8667 135.715 87.0293 135.699 87.192L133.067 87.68C132.4 87.6053 131.768 87.8693 131.111 87.88C130.844 87.9347 130.565 87.9893 130.292 88.0413C129.849 88.0893 129.4 88.1013 128.959 88.188C127.916 88.3947 126.804 88.268 125.84 88.844C125.2 89.0973 124.877 89.644 124.701 90.2413C124.392 91.2987 124.152 92.3747 123.881 93.4413C123.427 94.7329 122.973 96.0244 122.52 97.316C121.931 98.5427 121.251 99.7267 120.768 101.005C120.313 101.419 120.043 101.956 119.765 102.488C119.532 102.852 119.281 103.205 119.069 103.579C118.503 104.58 118.633 105.625 119.408 106.461C119.709 107.064 120.177 107.545 120.579 108.073C120.887 108.524 121.127 109.024 121.557 109.381C121.604 109.439 121.653 109.495 121.701 109.552C121.895 110.148 122.319 110.591 122.701 111.061C122.808 111.32 122.975 111.548 123.189 111.728C123.516 112.213 123.841 112.701 124.167 113.187L124.657 113.831L124.676 113.855C124.527 114.521 123.824 114.748 123.529 115.299C121.567 117.222 119.606 119.145 117.644 121.067C117.176 121.374 116.765 121.761 116.429 122.208Z" fill="#3A3A3A"/>
<path d="M115.92 75.36C115.387 73.9546 114.912 72.5186 113.852 71.388H113.859C113.544 70.6478 113.087 69.9772 112.512 69.4146C111.751 68.4402 110.865 67.5708 109.876 66.8293L109.72 66.772C109.264 66.2356 108.696 65.8052 108.056 65.5106C105.568 63.7737 102.632 62.7917 99.6001 62.6826C98.8893 62.5006 98.1442 62.5006 97.4334 62.6826C96.6828 62.5733 95.9601 62.78 95.2268 62.8746C93.1263 63.1723 91.1095 63.8984 89.3014 65.008L89.2748 65.0226L88.4748 65.492L88.1774 65.4306C87.8788 64.2506 87.8094 62.9946 87.0148 61.9813C86.8561 61.3032 86.5095 60.6835 86.0148 60.1933C85.7948 59.908 85.5934 59.596 85.1908 59.54C84.5468 58.74 83.6934 58.312 82.7108 58.1053C82.2788 58.0666 81.8761 57.8386 81.4281 57.9053C81.1454 57.752 80.8374 57.8133 80.5414 57.8133C73.1974 57.808 65.853 57.808 58.5081 57.8133C57.2388 57.8133 55.9668 57.7173 54.6988 57.8333C54.5186 57.815 54.3367 57.8359 54.1654 57.8946C52.3628 57.904 50.7814 58.4906 49.4521 59.72C49.182 59.879 48.9589 60.1067 48.8054 60.38C47.4721 61.8733 46.8388 63.6453 46.8334 65.6173C46.8148 72.7666 46.8334 79.9133 46.8228 87.0613C46.8245 87.3851 46.8897 87.7053 47.0148 88.004C47.1481 89.0706 47.6134 89.9946 48.2881 90.8186C48.5174 91.1367 48.8009 91.412 49.1254 91.632C49.1961 91.8213 49.3641 91.8853 49.5254 91.992C51.0828 93.0586 52.8508 93.3573 54.6801 93.4586C54.9334 93.6666 55.2494 93.5506 55.5294 93.6213C55.5494 93.8346 55.5708 94.0493 55.5908 94.2626C55.5845 96.6626 55.5756 99.0626 55.5641 101.463C55.5554 101.557 55.5661 101.651 55.5954 101.741C55.6248 101.831 55.6722 101.913 55.7348 101.984C55.7348 102.493 56.0014 102.852 56.3801 103.149C57.3134 103.996 58.2828 104.073 59.1908 103.191C62.2054 100.268 65.1908 97.316 68.0814 94.2746C68.0948 94.2746 68.1054 94.2613 68.1174 94.2346C68.6334 93.6533 69.2868 93.568 70.0534 93.568C74.2188 93.608 78.3854 93.5933 82.5508 93.5853C83.0108 93.5853 83.4841 93.6506 83.9294 93.46C84.0014 93.5373 84.0721 93.624 84.1961 93.572L84.3988 93.764C84.8396 94.3954 85.3804 94.9507 86.0001 95.408H86.0068C86.1679 95.6289 86.3839 95.804 86.6334 95.916C87.0833 96.3546 87.589 96.7321 88.1374 97.0386C88.7308 97.3946 89.2294 97.9186 89.9454 98.0546C90.6374 98.5626 91.4601 98.7506 92.2574 99.0026C94.7961 99.8544 97.5025 100.083 100.148 99.6693L100.465 99.6906C100.821 100.028 101.185 100.357 101.532 100.704C103.132 102.304 104.704 103.944 106.345 105.504C107.432 106.54 108.923 106.184 109.555 104.824C109.848 104.424 109.863 103.96 109.856 103.491C109.833 101.547 109.803 99.6 109.775 97.656C109.765 96.948 109.757 96.2413 110.041 95.5733L110.52 95.1986C111.044 94.732 111.587 94.276 111.853 93.5986C111.881 93.6027 111.908 93.5995 111.934 93.5895C111.959 93.5794 111.982 93.5628 111.999 93.5413C112.331 93.2906 112.606 92.9726 112.807 92.608C113.179 92.1493 113.585 91.716 113.827 91.1653C114.128 90.8813 114.291 90.5133 114.452 90.144C114.813 89.643 115.089 89.0863 115.269 88.496C116.799 85.1253 117.152 81.6093 116.583 77.9773C116.429 77.096 116.304 76.1946 115.92 75.36ZM108.219 93.584C107.419 94.084 106.872 94.7386 106.927 95.7506C106.852 96.8423 106.852 97.9377 106.927 99.0293C106.927 99.3066 106.927 99.5813 106.927 99.8573C106.78 100.511 107.12 101.211 106.733 101.84L106.253 101.333C105.871 100.942 105.49 100.55 105.111 100.156C104.388 99.4022 103.665 98.6466 102.94 97.8893C102.489 97.2786 101.984 96.752 101.145 96.7466C99.1788 96.872 97.2134 96.9573 95.2414 96.888L95.1774 96.8613C94.2427 96.4775 93.2663 96.2045 92.2681 96.048L90.7748 95.2786L89.1374 94.2666L88.3081 93.612L86.1508 91.4786C85.8325 91.0298 85.5125 90.5804 85.1908 90.1306C85.0943 89.8205 84.9257 89.5377 84.6988 89.3053C84.5241 88.9053 84.3534 88.5133 84.1774 88.1186C83.1188 85.7266 82.8268 83.2013 82.8548 80.6173C82.8681 80.4133 82.8814 80.2093 82.8961 80.0066C83.1657 77.7664 83.8331 75.5923 84.8668 73.5866C85.0681 73.32 85.3428 73.1013 85.3428 72.7266C85.6522 72.537 85.8875 72.2472 86.0094 71.9053C86.1734 71.6853 86.3374 71.4626 86.5001 71.2386L87.6614 69.9453L88.9868 68.7826C89.2001 68.6173 89.4148 68.4506 89.6281 68.2826L90.3228 67.812L90.9468 67.4466L92.4841 66.6666C93.2308 66.432 93.9765 66.1955 94.7214 65.9573L97.6094 65.5133C98.6414 65.592 99.6801 65.62 100.704 65.7586C102.609 66.0173 104.356 66.756 106.044 67.6453L106.073 67.6653C106.297 67.8106 106.52 67.96 106.74 68.1053L107.257 68.44L108.057 69.0986C108.93 69.8753 109.756 70.7015 110.533 71.5733C110.741 71.848 110.949 72.1253 111.159 72.4C111.165 72.4093 111.172 72.42 111.18 72.4293C111.838 73.4882 112.433 74.5852 112.961 75.7146L112.979 75.7506C114.617 80.3266 114.161 84.72 111.824 88.9506C111.424 89.2626 111.319 89.7733 111.009 90.1506C110.458 90.8502 109.91 91.5555 109.364 92.2666C108.987 92.712 108.391 92.9626 108.219 93.584ZM85.6614 67.904C85.1281 68.2613 84.7401 68.756 84.3521 69.2533C83.9509 69.6319 83.6153 70.0743 83.3588 70.5626C83.143 70.7431 82.9822 70.9806 82.8948 71.248C82.6758 71.4848 82.5083 71.7645 82.4028 72.0693C81.3488 73.8424 80.6259 75.7923 80.2694 77.824C80.1281 78.6626 79.9907 79.504 80.0721 80.3573C79.9014 81.1765 79.9014 82.0221 80.0721 82.8413C80.0542 83.4919 80.0836 84.143 80.1601 84.7893C80.4601 86.8133 81.1987 88.696 81.9548 90.5746C81.4334 90.5973 80.9148 90.6333 80.3921 90.6333C76.4872 90.6386 72.5823 90.6386 68.6774 90.6333C67.9854 90.6333 67.4001 90.812 66.9161 91.3C66.8035 91.3397 66.7007 91.4029 66.6145 91.4854C66.5283 91.568 66.4606 91.6679 66.4161 91.7786C65.3664 92.7062 64.3811 93.7041 63.4668 94.7653C61.9414 96.1453 60.5761 97.684 59.1601 99.1733C58.9454 99.2867 58.7704 99.463 58.6588 99.6786C58.3534 99.484 58.5148 99.1853 58.5148 98.9413C58.5041 97.084 58.5081 95.2266 58.5148 93.3693C58.5148 92.8706 58.4561 92.392 58.1694 91.9666C57.9588 91.532 57.6774 91.1666 57.1988 91C56.634 90.7287 56.007 90.6136 55.3828 90.6666C54.7508 90.5933 54.1241 90.5026 53.4961 90.3733C51.0188 89.868 49.9881 88.8266 49.7628 86.3733C49.7694 86.1066 49.7841 85.8266 49.7841 85.5533C49.7841 79.2093 49.7841 72.8644 49.7841 66.5186C49.7841 65.1506 50.0508 63.872 50.7801 62.7026L51.7894 61.716C51.9428 61.616 52.0948 61.512 52.2481 61.412L52.2828 61.3893C52.8654 61.1693 53.4468 60.948 54.0694 60.864C63.177 60.864 72.2845 60.864 81.3921 60.864C81.9748 61.004 82.5054 61.2733 83.0374 61.54L84.2041 62.688C84.6646 63.6065 84.9996 64.5828 85.2001 65.5906C85.3628 66.3226 85.3828 67.0866 85.6814 67.788C85.6708 67.7927 85.6614 67.7999 85.6543 67.8091C85.6471 67.8183 85.6423 67.8291 85.6403 67.8406C85.6383 67.8521 85.6392 67.8639 85.6429 67.8749C85.6466 67.886 85.653 67.896 85.6614 67.904Z" fill="#F7931B"/>
<path d="M104.767 75.3533C104.745 75.3515 104.722 75.3547 104.702 75.3626C104.681 75.3706 104.662 75.3831 104.647 75.3992C104.632 75.4153 104.62 75.4347 104.614 75.4558C104.607 75.477 104.605 75.4994 104.608 75.5213L103.785 76.5213C103.12 77.1718 102.511 77.8769 101.964 78.6293L100.82 79.9627C100.442 80.3002 100.109 80.6862 99.832 81.1107L99.0106 82.108C98.4773 82.6667 97.896 83.1747 97.5013 83.8413L96.864 84.552C96.5973 84.8893 96.3213 85.2267 96.052 85.5667L95.5693 86.032C95.2946 85.7027 95.1146 85.292 94.7333 85.0533L94.056 84.2373L93.7533 83.8733C93.3013 83.3027 92.8693 82.7133 92.3906 82.1667C92.0573 81.7853 91.836 81.2693 91.2746 81.1307C91.2581 81.1089 91.2344 81.0938 91.2077 81.0882C91.181 81.0826 91.1531 81.0868 91.1293 81.1C91.0493 80.9507 90.916 80.9467 90.772 80.9667C89.964 80.8333 89.4026 81.1147 89.16 81.9293C89.0766 82.1886 89.0636 82.4654 89.1224 82.7313C89.1812 82.9972 89.3097 83.2427 89.4946 83.4427C89.8946 83.9307 90.328 84.404 90.744 84.8827C90.752 84.8907 90.7586 84.9013 90.7666 84.9093L93.2413 87.8667C93.6306 88.352 93.9826 88.876 94.5533 89.1747C95.436 89.708 96.0573 89.664 96.8813 89.0133C97.1019 88.9176 97.2754 88.7382 97.364 88.5147C97.9666 87.8036 98.5711 87.0924 99.1773 86.3813L101.151 84.0813L102.133 82.92C102.147 82.92 102.16 82.908 102.173 82.8867C102.559 82.5747 102.84 82.164 103.132 81.772C103.508 81.4369 103.839 81.0536 104.115 80.632C104.447 80.2453 104.78 79.8596 105.112 79.4747C105.544 79.0796 105.925 78.6317 106.245 78.1413C106.676 77.8467 106.961 77.4253 107.237 76.9973C107.74 76.36 107.688 75.7373 107.143 75.172C106.501 74.5093 105.571 74.5907 104.767 75.3533Z" fill="#F7931B"/>
</svg>
