<svg width="160" height="160" viewBox="0 0 160 160" fill="none" xmlns="http://www.w3.org/2000/svg">
<path d="M64.9893 86.2666H49.6453C49.7106 87.4346 49.7653 88.576 49.8413 89.7173C49.9746 91.6146 50.108 93.512 50.2413 95.4106C50.4351 98.1546 50.6262 100.899 50.8146 103.643C50.9813 106.001 51.1333 108.363 51.3306 110.719C51.54 113.228 51.8026 115.732 52.0266 118.24C52.168 119.825 52.2773 121.413 52.408 123C52.628 125.643 50.368 127.859 48.148 128.431C44.6066 129.341 41.28 126.883 40.948 123.231C40.656 119.959 40.248 116.697 39.9053 113.429C39.6813 111.296 39.484 109.148 39.156 107.007C38.5746 110.479 37.9929 113.95 37.4106 117.421C37.036 119.668 36.7253 121.928 36.2866 124.163C35.7973 126.659 33.4746 128.529 30.9533 128.591C28.6213 128.648 26.2573 126.9 25.8 124.441C25.5493 123.092 25.768 121.641 25.9013 120.237C26.132 117.812 26.4653 115.397 26.7466 112.977C27.0426 110.428 27.332 107.878 27.6146 105.328C27.8946 102.829 28.172 100.33 28.4466 97.8306C28.6666 95.7893 28.884 93.748 29.0666 91.6973C29.0696 91.5608 29.0439 91.4251 28.9913 91.299C28.9387 91.173 28.8604 91.0593 28.7613 90.9653C25.804 88.556 24.396 85.3946 24.304 81.644C24.2826 80.7853 24.0946 80.232 23.3453 79.7773C22.4253 79.2213 21.624 78.468 20.7013 77.9106C18.5466 76.6293 18.2146 74.2933 19.1586 72.2706C20.0013 70.4626 20.9693 68.7146 21.888 66.9373C23.16 64.4813 24.436 62.028 25.716 59.5773C26.864 57.3906 28.54 55.8 30.968 55.1413C31.5913 54.9924 32.2312 54.9239 32.872 54.9373C35.8853 54.92 38.9 55.004 41.9106 54.9186C44.676 54.84 46.7613 55.9613 48.1773 58.252C49.9666 61.1493 51.6346 64.1186 53.3533 67.0626C53.7413 67.7293 54.2133 68.3613 54.4826 69.072C54.9013 70.1746 55.7306 70.5386 56.7826 70.7613C59.78 71.4 62.7626 72.1066 65.7586 72.7613C65.984 72.8106 66.3973 72.6973 66.4986 72.5253C68 69.9826 70.1786 68.4413 73.0933 67.9413C73.2147 67.9044 73.3325 67.8566 73.4453 67.7986V66.3693C73.4453 61.1666 73.4426 55.964 73.4373 50.7613C73.4373 48.0773 75.0373 46.4306 77.74 46.4253C83.4582 46.4164 89.176 46.4164 94.8933 46.4253C106.277 46.4253 117.661 46.4253 129.044 46.4253C131.853 46.4253 133.387 47.9573 133.389 50.7466C133.389 52.1866 133.389 53.628 133.389 55.0573C134.887 55.6013 135.232 56.1066 135.231 57.684C135.231 60.3631 135.231 63.0418 135.231 65.72C135.231 67.3666 134.948 67.7813 133.416 68.3773V84.7293C134.855 85.2413 135.173 85.688 135.175 87.2173C135.175 89.9986 135.175 92.78 135.165 95.5613C135.157 97.1146 134.849 97.54 133.391 98.0946C133.391 99.3653 133.391 100.652 133.391 101.939C133.38 104.437 131.78 106.007 129.273 106.005C112.017 106.005 94.7613 106.005 77.5053 106.005C75.04 106.005 73.4493 104.449 73.4426 101.984C73.4346 99.616 73.4426 97.248 73.4426 94.7973C68.764 93.8453 66.2933 90.6666 64.9893 86.2666ZM76.3653 67.784C76.6066 67.8546 76.7946 67.9266 76.9906 67.9626C80.4226 68.6013 82.7413 70.6826 84.2333 73.716C85.928 77.1586 86.3666 80.8106 85.636 84.576C84.6146 89.8226 81.9413 93.6226 76.3653 94.8666V101.565C76.3653 102.823 76.632 103.083 77.9026 103.083H128.587C128.898 103.101 129.209 103.099 129.52 103.076C130.091 103.003 130.468 102.717 130.465 102.077C130.465 100.744 130.465 99.4026 130.465 98.0773C128.988 97.588 128.611 97.0613 128.611 95.532V87.3413C128.611 85.572 128.809 85.2853 130.432 84.7106V68.3733C128.996 67.9 128.615 67.368 128.615 65.8826C128.615 63.1786 128.615 60.4746 128.615 57.7706C128.615 56.1453 128.972 55.608 130.464 55.0573V50.7466C130.464 49.5253 130.248 49.308 129.041 49.308H91.8666C87.1555 49.308 82.4444 49.308 77.7333 49.308C76.8106 49.308 76.3706 49.6733 76.3706 50.4813C76.3613 56.2253 76.3653 61.968 76.3653 67.78V67.784ZM54.844 83.3586C58.3995 83.3586 61.9529 83.3586 65.504 83.3586C65.812 83.3588 66.1192 83.3892 66.4213 83.4493C67.1866 83.608 67.572 84.092 67.7253 84.868C67.8755 85.7208 68.1118 86.5562 68.4306 87.3613C69.656 90.2773 71.8466 92.0013 75.0426 92.028C78.032 92.0506 80.1733 90.464 81.5613 87.8626C82.7506 85.6346 83.144 83.2213 83.0533 80.724C82.9733 78.516 82.4613 76.4133 81.3373 74.492C79.5706 71.4733 76.5453 70.084 73.3373 70.788C70.496 71.412 68.1133 74.1906 67.7493 77.5093C67.604 78.8426 66.7106 79.5653 65.444 79.528C63.772 79.4773 62.0973 79.5186 60.424 79.5173C54.9911 79.5173 49.5582 79.5173 44.1253 79.5173C43.4746 79.5173 43.1013 79.344 42.9106 78.648C42.6983 77.9387 42.3953 77.2598 42.0093 76.628C39.3493 72.076 33.5386 71.3333 29.8133 75.0666C26.684 78.1973 26.2653 83.3973 28.8346 87.0013C30.4346 89.244 32.6493 90.352 35.3466 90.3346C38.9466 90.312 42.0973 87.708 42.9666 84.1653C43.1226 83.5306 43.4146 83.348 44.0333 83.3506C47.6346 83.372 51.24 83.3613 54.844 83.3586ZM31.8666 92.632C31.7506 93.656 31.6466 94.5706 31.5426 95.4866C31.2653 97.9329 30.988 100.38 30.7106 102.827C30.4253 105.299 30.1306 107.769 29.844 110.24C29.6013 112.329 29.3546 114.417 29.124 116.507C28.8826 118.673 28.6066 120.837 28.444 123.011C28.3253 124.587 29.2133 125.544 30.744 125.724C31.9893 125.868 33.3013 124.839 33.5346 123.481C33.8693 121.541 34.164 119.593 34.48 117.649C35.0613 114.088 35.6546 110.528 36.224 106.965C36.7893 103.427 37.3413 99.8862 37.88 96.344C38.0133 95.4413 38.4693 94.9506 39.2973 94.9226C39.6984 94.905 40.0917 95.0372 40.4007 95.2935C40.7098 95.5498 40.9124 95.9119 40.9693 96.3093C41.0533 96.9453 41.0906 97.588 41.16 98.2266C41.4026 100.471 41.6613 102.715 41.8946 104.96C42.176 107.667 42.428 110.376 42.7133 113.083C43.0506 116.349 43.428 119.616 43.7386 122.883C43.904 124.628 45.2533 125.949 46.8573 125.8C48.6586 125.64 49.7906 124.14 49.564 122.295C49.388 120.843 49.288 119.381 49.164 117.924C48.992 115.924 48.8306 113.924 48.6613 111.933C48.4706 109.707 48.2613 107.481 48.0853 105.253C47.9 102.923 47.7453 100.587 47.5706 98.256C47.384 95.7458 47.1933 93.2346 46.9986 90.7226C46.884 89.244 46.7586 87.7653 46.6413 86.3226C45.7653 86.048 45.3 86.3053 44.8893 87.1373C43.7542 89.504 41.7661 91.3539 39.324 92.316C36.908 93.3026 34.46 93.4666 31.8666 92.632ZM24.9466 77.4066C25.7698 75.3048 27.1065 73.4428 28.8346 71.9906C29.0613 71.7986 29.2053 71.3853 29.2093 71.0733C29.2346 68.7813 29.2093 66.4893 29.2093 64.1973C29.2093 63.452 29.6733 63.076 30.5426 63.064C31.4946 63.0493 31.9866 63.388 32.016 64.1146C32.0746 65.5546 32.1186 66.996 32.1573 68.436C32.1733 69.012 32.1573 69.588 32.1573 70.2026C32.3453 70.1611 32.5353 70.1295 32.7266 70.108C34.208 70.048 35.7213 69.768 37.1613 69.9853C40.8946 70.5466 43.428 72.8493 45.1013 76.1386C45.36 76.648 45.6226 76.832 46.1933 76.8293C52.168 76.808 58.144 76.816 64.1186 76.8173H64.8866C64.96 76.388 65.02 76.0173 65.0866 75.644C61.8866 74.9213 58.7813 74.1773 55.6573 73.5293C54.0573 73.1973 52.9333 72.4306 52.2 70.936C51.5333 69.5773 50.672 68.3133 49.8 66.8546C49.8 69.0053 49.8186 70.956 49.8 72.9066C49.7746 75.0906 50.184 74.796 47.8826 74.808C46.9093 74.808 46.852 74.728 46.8386 73.7413C46.792 69.9306 46.7546 66.12 46.6773 62.3093C46.6412 61.1328 46.1516 60.0159 45.3109 59.1921C44.4703 58.3683 43.3436 57.9015 42.1666 57.8893C39.128 57.8893 36.088 57.9186 33.0493 57.872C31.028 57.84 29.5693 58.784 28.6306 60.4453C27.0306 63.276 25.556 66.1786 24.036 69.0506C23.2813 70.4773 22.5173 71.9 21.8146 73.352C21.4906 74.0186 21.3933 74.7893 22.0693 75.328C22.976 76.0386 23.9373 76.6786 24.9493 77.4066H24.9466ZM131.113 87.6733V95.2266H132.681V87.668L131.113 87.6733ZM132.701 65.5186V58H131.141V65.508L132.701 65.5186Z" fill="#3A3A3A"/>
<path d="M65.5466 93C66.5746 93.8733 67.4466 94.5813 68.2706 95.3426C68.4346 95.496 68.4626 95.8533 68.464 96.1173C68.4746 99.5173 68.5546 102.917 68.4413 106.316C68.352 108.975 70.26 111.237 73.2693 111.24C77.4684 111.24 81.6666 111.244 85.864 111.253C101.498 111.253 117.131 111.251 132.764 111.245C133.456 111.261 134.148 111.192 134.824 111.039C137.077 110.463 138.385 108.801 138.4 106.459C138.435 101 138.433 95.5386 138.435 90.08C138.435 75.656 138.432 61.2329 138.425 46.8106C138.446 46.0163 138.356 45.223 138.159 44.4533C137.592 42.4786 135.625 41.2426 133.851 41.2453C113.53 41.2773 93.2088 41.2738 72.888 41.2346C70.6106 41.228 68.436 43.3946 68.4546 45.708C68.5106 52.6093 68.4693 59.512 68.488 66.4146C68.488 66.9866 68.3426 67.356 67.8586 67.696C67.1133 68.22 66.4386 68.8453 65.6106 69.5293C65.584 69.1226 65.5546 68.8813 65.5546 68.64C65.5546 60.9386 65.5546 53.2378 65.5546 45.5373C65.5613 41.812 68.88 38.3613 72.604 38.3373C82.52 38.284 92.436 38.3026 102.351 38.2986C112.653 38.2986 122.956 38.3453 133.257 38.2693C137.316 38.2386 140.241 40.896 141.028 43.744C141.22 44.4614 141.316 45.2012 141.313 45.944C141.324 66.0853 141.287 86.2253 141.336 106.367C141.347 110.652 138.003 113.675 134.852 114.092C134.651 114.119 134.391 114.509 134.343 114.759C134.008 116.569 133.745 118.395 133.409 120.205C133.132 121.709 132.076 122.545 130.543 122.552C129.049 122.552 127.555 122.552 126.061 122.552C124.476 122.552 123.433 121.839 122.891 120.357C122.215 118.508 121.564 116.651 120.903 114.797C120.817 114.561 120.728 114.327 120.636 114.068H108.944C101.629 114.068 94.3146 114.068 87.0013 114.052C86.3866 114.052 86.108 114.208 85.916 114.816C85.356 116.593 84.716 118.347 84.0973 120.105C83.4693 121.892 82.5333 122.552 80.652 122.552C79.4666 122.552 78.28 122.504 77.0973 122.563C74.4413 122.696 73.476 121.303 73.2693 118.988C73.136 117.557 72.9426 116.135 72.7853 114.707C72.7346 114.255 72.5413 114.081 72.0506 114.04C68.5306 113.719 65.5506 110.427 65.548 106.899C65.548 102.597 65.548 98.296 65.548 93.9946L65.5466 93ZM123.705 114.112C124.339 115.915 124.939 117.649 125.572 119.369C125.629 119.527 125.912 119.696 126.093 119.7C127.581 119.727 129.069 119.715 130.627 119.715C130.909 117.831 131.185 115.996 131.469 114.115L123.705 114.112ZM75.716 114.112C75.896 115.979 76.072 117.803 76.2493 119.712C77.8226 119.712 79.3586 119.724 80.8946 119.692C81.028 119.692 81.228 119.425 81.2946 119.241C81.5773 118.504 81.828 117.753 82.0786 117.007L83.0773 114.113L75.716 114.112Z" fill="#3A3A3A"/>
<path d="M48.2747 41.8573C48.3827 47.4427 43.6961 52.1453 37.9587 52.2067C32.5401 52.264 27.8694 47.632 27.6374 42.2133C27.3907 36.4413 31.6467 31.5973 37.7307 31.3893C43.3254 31.2 48.3841 35.7693 48.2747 41.8573ZM37.9227 49.1907C42.3227 49.1987 45.3521 45.932 45.4094 41.944C45.4721 37.6307 42.1214 34.3147 37.8467 34.32C33.8467 34.32 30.4654 37.7067 30.4894 41.6653C30.5161 45.8493 33.8227 49.2 37.9227 49.188V49.1907Z" fill="#3A3A3A"/>
<path d="M99.3827 62.2227V57.6C100.408 57.6 101.383 57.564 102.336 57.6347C102.505 57.6467 102.763 58.0973 102.772 58.3547C102.817 59.612 102.793 60.8707 102.793 62.1693H105.689C105.689 60.9547 105.732 59.7813 105.675 58.6133C105.637 57.8453 105.857 57.528 106.664 57.6267C107.254 57.6802 107.848 57.6851 108.439 57.6413C108.948 57.6187 109.112 57.828 109.105 58.3253C109.08 59.6093 109.097 60.8947 109.097 62.1747C110.131 62.4693 111.231 62.6907 112.268 63.1C114.255 63.888 115.788 65.1987 116.057 67.452C116.344 69.8387 115.753 71.9493 113.544 73.3947C114.192 73.8227 114.813 74.1947 115.396 74.624C117.46 76.144 118.205 78.2573 117.897 80.7187C117.56 83.4093 116.26 85.464 113.519 86.2747C112.079 86.7013 110.595 86.9773 109.092 87.3307C109.092 88.5453 109.077 89.8493 109.099 91.152C109.109 91.74 108.893 92.008 108.285 91.9773C107.694 91.9433 107.102 91.9433 106.511 91.9773C105.908 92.0173 105.68 91.796 105.695 91.184C105.727 89.8773 105.704 88.5693 105.704 87.22H102.8C102.8 88.52 102.769 89.824 102.813 91.124C102.835 91.768 102.615 92.012 101.976 91.9773C101.333 91.942 100.688 91.942 100.045 91.9773C99.5254 92.0053 99.3787 91.7867 99.392 91.296C99.416 89.9627 99.4 88.6293 99.4 87.1787H96.0694C95.4027 87.1787 94.7281 87.144 94.0614 87.1867C93.3734 87.2307 93.1401 86.9507 93.2041 86.2853C93.2801 85.4933 93.3201 84.696 93.3374 83.9C93.3507 83.428 93.5787 83.2653 94.0134 83.272C94.6054 83.28 95.2 83.3107 95.7894 83.272C96.732 83.2 97.0681 82.836 97.0694 81.896C97.0774 77.0302 97.0774 72.164 97.0694 67.2973C97.0694 66.328 96.6427 65.8987 95.656 65.8613C95.0134 65.8373 94.3681 65.8347 93.7254 65.8613C93.2387 65.8827 93.012 65.728 93.0214 65.208C93.0347 64.4627 93.0214 63.7147 92.988 62.9693C92.9667 62.416 93.1747 62.2093 93.7574 62.22C95.612 62.2453 97.4667 62.2227 99.3827 62.2227ZM102.829 82.9987C104.963 82.9987 107.027 83.1187 109.067 82.9627C110.873 82.8293 111.741 81.7373 111.867 79.9653C111.985 78.348 111.159 77.1333 109.501 76.6493C107.317 76.0107 105.079 76.3827 102.824 76.2893L102.829 82.9987ZM102.82 72.5867C104.441 72.496 105.985 72.488 107.507 72.304C109.137 72.108 110.291 70.9467 110.365 69.6453C110.467 67.8973 109.699 66.5627 108.111 66.2733C106.389 65.96 104.615 65.9373 102.82 65.7853V72.5867Z" fill="#F7931B"/>
<path d="M39.584 81.6C39.6307 84.32 37.3294 86.192 35.1507 86.108C32.6334 86.012 30.7507 84.1427 30.7774 81.528C30.7987 79.1707 32.4854 77.06 35.1707 77.012C37.776 76.9694 39.5867 78.924 39.584 81.6ZM35.1987 79.7334C34.9619 79.7224 34.7254 79.7605 34.5041 79.8454C34.2827 79.9302 34.0813 80.0599 33.9125 80.2263C33.7437 80.3927 33.6112 80.5923 33.5232 80.8124C33.4353 81.0325 33.3938 81.2684 33.4014 81.5054C33.3971 81.7429 33.4406 81.979 33.5294 82.1994C33.6182 82.4198 33.7505 82.62 33.9183 82.7882C34.0861 82.9565 34.2861 83.0892 34.5063 83.1785C34.7265 83.2678 34.9625 83.3118 35.2 83.308C35.4298 83.3114 35.6579 83.269 35.8711 83.1834C36.0844 83.0978 36.2785 82.9707 36.4421 82.8094C36.6058 82.6481 36.7357 82.4559 36.8244 82.2439C36.9131 82.032 36.9587 81.8045 36.9587 81.5747C36.9705 81.3372 36.9337 81.0998 36.8504 80.877C36.7672 80.6542 36.6393 80.4508 36.4746 80.2793C36.3099 80.1077 36.1119 79.9716 35.8927 79.8794C35.6736 79.7871 35.4378 79.7406 35.2 79.7427L35.1987 79.7334Z" fill="#3A3A3A"/>
<path d="M74.9694 81.052C74.9241 79.432 75.1734 77.8813 76.1694 76.5453C76.9254 75.528 78.3027 75.424 78.8974 76.3693C79.0894 76.672 79.1107 77.344 78.8974 77.5907C77.7614 78.9533 77.6294 80.5133 77.8307 82.1533C77.9547 83.2027 78.2494 84.184 79.0014 85.0053C79.4227 85.468 79.3841 86.0453 78.9361 86.5307C78.4201 87.0893 77.7454 87.2293 77.1254 86.8693C76.6275 86.5728 76.2142 86.1531 75.9254 85.6507C75.1254 84.232 74.9174 82.6667 74.9694 81.052Z" fill="#3A3A3A"/>
</svg>
