<svg width="160" height="160" viewBox="0 0 160 160" fill="none" xmlns="http://www.w3.org/2000/svg">
<path d="M90.6894 73.6386L90.7054 71.668V71.5573C90.7054 71.3466 90.7054 71.136 90.7054 70.9253C90.7054 70.8253 90.7054 70.7253 90.7054 70.6226L90.7134 69.7026C92.2147 69.6884 93.7174 69.6729 95.2214 69.656L97.5227 69.632L99.7747 69.608L100.632 69.5973C101.044 69.5973 101.453 69.5973 101.865 69.5866H102.244C103.227 69.5819 104.199 69.3731 105.097 68.9733L105.457 68.8133H105.503L105.561 68.764L105.592 68.7506C105.784 68.6626 105.973 68.5813 106.16 68.4973L106.413 68.384C106.483 68.364 106.564 68.336 106.669 68.2986L107.183 68.0573C107.335 67.9866 107.483 67.9146 107.625 67.8413H107.637C108.12 67.624 108.604 67.408 109.085 67.1893L109.421 67.0373L110.024 66.7706C110.093 66.7502 110.165 66.7275 110.24 66.7026L110.741 66.468L111.309 66.2013L111.911 65.916C113.183 65.3173 114.444 64.716 115.707 64.0826L116.041 63.916L116.156 63.8573L116.533 63.6666L116.916 63.4746L117.013 63.4253C117.131 63.364 117.247 63.3026 117.361 63.2386L117.388 63.2253C117.587 63.1154 117.78 62.9948 117.967 62.864L118.089 62.7733L118.159 62.716L118.247 62.6453C118.308 62.592 118.369 62.5386 118.429 62.4813C118.523 62.3944 118.612 62.3027 118.696 62.2066C118.729 62.1573 118.761 62.1093 118.792 62.0613C118.8 62.0493 118.809 62.0386 118.816 62.0266V62.0186C118.893 61.8986 118.965 61.78 119.031 61.66C119.056 61.6146 119.081 61.5693 119.105 61.5266L119.123 61.496C119.183 61.376 119.239 61.2546 119.287 61.136L119.295 61.112C119.335 61.0146 119.371 60.9173 119.403 60.8186C119.409 60.8013 119.413 60.784 119.419 60.7653C119.445 60.6853 119.468 60.604 119.489 60.5226C119.497 60.4906 119.505 60.46 119.512 60.428C119.532 60.3453 119.549 60.2626 119.565 60.1786C119.565 60.16 119.572 60.1426 119.575 60.1253C119.592 60.028 119.604 59.9293 119.615 59.8293C119.615 59.796 119.621 59.7626 119.624 59.728C119.624 59.652 119.636 59.576 119.64 59.4986V59.4066C119.64 59.304 119.64 59.2 119.64 59.0946C119.64 59.0666 119.64 59.04 119.64 59.012C119.64 58.9266 119.632 58.84 119.627 58.7533L119.619 58.6533C119.609 58.5413 119.597 58.4266 119.583 58.3106C119.277 57.2133 118.555 56.444 117.677 55.82C117.411 55.6346 117.144 55.46 116.865 55.2866C116.745 55.2533 116.627 55.2226 116.509 55.196L116.445 55.1813L116.24 55.1413C116.143 55.124 116.047 55.1093 115.952 55.096C114.968 54.9557 113.964 55.0833 113.047 55.4653C112.749 55.5862 112.449 55.7026 112.148 55.8146C111.789 55.948 111.429 56.0813 111.072 56.2146C110.779 56.2812 110.493 56.3768 110.219 56.5L109.819 56.6626C108.904 57.0266 108 57.4146 107.103 57.8173L106.969 57.8746C106.96 57.8806 106.95 57.8855 106.94 57.8893C106.592 58.04 106.244 58.1946 105.9 58.356L105.007 58.7786C104.697 58.912 104.391 59.052 104.085 59.192C102.589 59.7173 101.863 59.9733 101.085 60.096H101.077C100.581 60.156 100.079 60.184 99.5627 60.1986H99.3774C99.004 60.1986 98.5774 60.1986 98.0587 60.1986H96.7867C95.7485 60.204 94.7094 60.2066 93.6694 60.2066C92.3174 60.2066 90.9658 60.2066 89.6147 60.2066C87.4209 60.2129 85.2276 60.2164 83.0347 60.2173C80.9014 60.2173 78.768 60.2195 76.6347 60.224H76.2347H74.244C69.5205 60.2346 64.7969 60.2409 60.0734 60.2426C58.9438 60.1819 57.8252 59.99 56.74 59.6706L56.4374 59.5373L55.3894 59.092L54.8 58.8586C54.2 58.6035 53.6009 58.3462 53.0027 58.0866C52.7787 57.9853 52.5534 57.884 52.3254 57.7866L51.672 57.5053L51.3334 57.36L50.6987 57.084C49.2547 56.4466 47.592 55.6253 45.988 55.2706L45.924 55.24L45.8534 55.2053C45.8009 55.1789 45.747 55.1553 45.692 55.1346C45.513 55.083 45.3277 55.0565 45.1414 55.056L44.5614 55.048C44.2052 55.0253 43.8476 55.0405 43.4947 55.0933C43.4747 55.1253 43.4534 55.1546 43.4334 55.1866C42.4694 55.4266 41.7227 56.004 41.12 56.8786C41.116 56.8832 41.1125 56.8881 41.1094 56.8933C41.0787 56.9373 41.0467 56.9853 41.016 57.0266C40.972 57.0946 40.9294 57.16 40.8827 57.2373C40.8654 57.2666 40.8467 57.2933 40.8307 57.3226C40.7907 57.4066 40.756 57.492 40.7214 57.5773C40.7214 57.5773 40.7214 57.5773 40.7214 57.5853C40.712 57.608 40.7054 57.632 40.696 57.6546C40.6747 57.7133 40.6534 57.772 40.6334 57.832C40.6301 57.8393 40.6274 57.8469 40.6254 57.8546C40.6187 57.8733 40.6134 57.8933 40.608 57.9133C40.5894 57.972 40.5707 58.0306 40.5547 58.0893L40.5427 58.128C40.5307 58.1746 40.52 58.2213 40.5067 58.268C40.4867 58.352 40.4694 58.4386 40.452 58.5253C40.4525 58.5302 40.4525 58.5351 40.452 58.54C40.452 58.5746 40.4387 58.6106 40.4334 58.6453L40.4214 58.7306C40.4214 58.7613 40.412 58.792 40.408 58.8226C40.404 58.8533 40.408 58.8453 40.408 58.8573C40.408 58.8946 40.4 58.932 40.396 58.9693C40.3966 58.9719 40.3966 58.9747 40.396 58.9773C40.3135 59.7609 40.4008 60.5531 40.652 61.3C40.7467 61.448 40.8494 61.5866 40.9534 61.7213C41.28 62.296 41.652 62.6546 42.7574 63.2506C43.2987 63.5773 43.8787 63.86 44.4747 64.144L45.2747 64.5213C45.5134 64.644 45.7534 64.7626 45.9974 64.8746H46.0054L46.3547 65.0413L46.712 65.212C47.0494 65.3746 47.3787 65.524 47.7147 65.6493L48.7267 66.1253C48.8454 66.1826 48.9614 66.236 49.0774 66.2906C49.1494 66.3386 49.24 66.3946 49.3774 66.48L49.4614 66.4706L50.1494 66.796L50.5894 67.0266L51.172 67.3333C51.2774 67.3773 51.3614 67.4106 51.432 67.4373L51.6627 67.556L52.196 67.8226C52.7114 68.1052 53.241 68.3611 53.7827 68.5893C55.5574 69.3973 57.4427 69.532 59.3827 69.54H59.536C59.7747 69.54 60.0147 69.54 60.2587 69.54H60.8827H62.076L64.584 69.5293H64.7627H65.5814H66.3814H67.0027H67.8987H68.52H69.2054H69.5107C69.4929 71.7817 69.4747 74.0333 69.456 76.284C69.4462 77.4395 69.4369 78.5906 69.428 79.7373C69.4182 80.8644 69.4094 81.9897 69.4014 83.1133C69.4014 83.544 69.3934 83.976 69.3907 84.4066C69.3854 85.02 69.3805 85.6342 69.376 86.2493C69.376 86.444 69.376 86.6346 69.376 86.8226C69.3667 88.2813 69.3014 89.732 69.2107 91.1853C69.1689 91.8306 69.1294 92.4769 69.092 93.124C69.0787 93.3826 69.064 93.6422 69.048 93.9026C69.032 94.1693 69.0174 94.4466 69.0014 94.7173C68.9894 94.9333 68.9894 94.9333 68.976 95.144C68.9254 96.0373 68.8738 96.9315 68.8214 97.8266V97.8346C68.7974 97.9906 68.7774 98.148 68.7627 98.308C68.748 98.468 68.744 98.628 68.7347 98.7853C68.724 98.972 68.7134 99.152 68.7027 99.3333C68.692 99.5146 68.68 99.7333 68.6694 99.9226C68.6454 100.344 68.6214 100.767 68.5987 101.188C68.5631 101.846 68.5262 102.503 68.488 103.16C68.4347 104.068 68.3902 104.975 68.3547 105.88C68.3547 105.897 68.3547 105.916 68.3547 105.933C68.2916 107.056 68.2276 108.177 68.1627 109.297C68.0685 110.925 67.9747 112.552 67.8814 114.179C67.8814 114.179 67.8814 114.188 67.8814 114.193C67.8814 114.199 67.8814 114.213 67.8814 114.223C67.8814 114.232 67.8814 114.263 67.8747 114.284V114.331C67.8285 115.142 67.784 115.953 67.7414 116.764C67.668 118 67.5934 119.236 67.528 120.471C67.3947 121.256 67.3587 122.056 67.3627 124.223C67.3467 124.704 67.3347 125.184 67.3254 125.665C67.3254 125.877 67.3254 126.087 67.3187 126.293C67.2951 126.816 67.3174 127.34 67.3854 127.859C67.3854 127.899 67.3854 127.936 67.3854 127.977H67.4014C67.4434 128.224 67.5063 128.467 67.5894 128.704C67.5747 128.899 67.6067 128.971 67.7414 129.285C67.8427 129.419 67.9454 129.552 68.052 129.685C68.0654 129.712 68.0814 129.739 68.0974 129.767C68.7429 130.646 69.6245 131.325 70.64 131.724L70.7734 131.777C70.816 131.793 70.86 131.807 70.9067 131.821H70.924L70.952 131.831L71.0627 131.865H71.0787L71.212 131.9L71.2454 131.909C71.2571 131.913 71.2691 131.917 71.2814 131.919C71.3574 131.939 71.4347 131.956 71.5134 131.972C71.9142 131.992 72.3161 131.973 72.7134 131.916C73.2868 131.836 73.848 131.685 74.384 131.467C74.7511 131.319 75.1026 131.136 75.4334 130.919L75.5107 130.847C75.6267 130.74 75.7347 130.64 75.836 130.544C75.8402 130.539 75.8452 130.534 75.8507 130.531L75.8614 130.519C76.2062 130.213 76.51 129.864 76.7654 129.48L76.792 129.436C76.824 129.384 76.8547 129.329 76.884 129.275C76.9067 129.233 76.928 129.191 76.9494 129.141C76.9707 129.092 76.9813 129.073 76.996 129.039L77.0147 128.999C77.0227 128.979 77.032 128.959 77.0414 128.937C77.06 128.891 77.0787 128.844 77.096 128.795C77.1786 128.577 77.2471 128.354 77.3014 128.128C77.3008 128.123 77.3008 128.117 77.3014 128.112C77.3014 128.093 77.3094 128.073 77.3147 128.056C77.3267 128.005 77.3374 127.955 77.3494 127.903C77.3694 127.815 77.3894 127.723 77.408 127.627L77.416 127.583C77.424 127.545 77.432 127.511 77.4387 127.472C77.4374 127.464 77.4374 127.456 77.4387 127.448C77.4387 127.437 77.4387 127.424 77.4387 127.412C77.448 127.365 77.456 127.319 77.464 127.271C77.472 127.223 77.476 127.205 77.4827 127.171C77.482 127.164 77.482 127.158 77.4827 127.152C77.492 127.093 77.5027 127.033 77.512 126.972C77.564 126.656 77.6134 126.305 77.664 125.915C77.672 125.859 77.6787 125.801 77.6867 125.743C77.6867 125.723 77.6867 125.703 77.6934 125.683C77.708 125.569 77.7227 125.451 77.7374 125.331C77.7454 125.268 77.7534 125.204 77.76 125.14C77.8547 124.34 77.9574 123.407 78.0787 122.28C78.096 122.125 78.1134 121.968 78.1307 121.807C78.148 121.645 78.168 121.463 78.1867 121.289L78.2627 120.583C78.2627 120.523 78.2747 120.463 78.2814 120.403C78.288 120.343 78.296 120.269 78.3027 120.203C78.836 115.373 78.8774 114.939 79.9027 104.284C79.9227 104.071 79.944 103.853 79.9654 103.631C79.9867 103.408 79.9867 103.42 80.0067 103.215H80.184C80.1947 103.332 80.204 103.448 80.2134 103.564C80.2254 103.78 80.2387 103.996 80.2574 104.213C80.268 104.347 80.2787 104.461 80.2894 104.584L80.3574 105.384C80.3929 105.798 80.4285 106.213 80.464 106.628L80.548 107.619C80.548 107.639 80.548 107.66 80.548 107.681C80.5627 107.84 80.576 107.999 80.5907 108.157L80.6027 108.291C80.6027 108.34 80.612 108.388 80.616 108.436C80.628 108.569 80.64 108.703 80.6534 108.836C80.696 109.279 80.744 109.723 80.8 110.169C80.8 110.227 80.8147 110.283 80.8214 110.34C80.8734 110.74 80.9214 111.147 80.968 111.549L81.004 111.865C81.0534 112.316 81.1014 112.768 81.1454 113.219V113.261C81.2467 114.288 81.336 115.315 81.4227 116.343C81.4974 117.225 81.572 118.107 81.6574 118.985C81.6574 119.008 81.6574 119.031 81.6574 119.052C81.6974 119.465 81.736 119.88 81.776 120.293C81.776 120.305 81.776 120.317 81.776 120.329C81.8774 121.372 81.9867 122.415 82.104 123.459C82.12 123.592 82.1347 123.725 82.1494 123.859C82.2374 124.659 82.32 125.451 82.4534 126.22C82.4534 126.236 82.4534 126.251 82.4627 126.267C82.6454 127.496 83.016 128.675 83.7374 129.756C83.7374 129.763 83.7374 129.768 83.7467 129.773C83.8294 129.895 83.9147 130.015 84.004 130.133C84.2407 130.391 84.4956 130.631 84.7667 130.852C85.4809 131.46 86.3555 131.849 87.2854 131.972C88.7254 131.991 90.0507 131.731 91.1627 130.753C91.228 130.683 91.296 130.609 91.3534 130.537C91.38 130.507 91.4054 130.475 91.4307 130.443C91.8024 130.003 92.103 129.508 92.3214 128.976C92.5891 128.347 92.7253 127.67 92.7214 126.987C92.7214 126.84 92.712 126.696 92.7067 126.553C92.7067 126.521 92.7067 126.488 92.7067 126.457C92.7067 126.427 92.7067 126.395 92.7067 126.363C92.7067 126.331 92.7067 126.333 92.7067 126.319C92.6734 124.304 92.6627 124.135 92.372 119.447C92.3311 118.772 92.2902 118.097 92.2494 117.421C92.24 117.28 92.2334 117.141 92.224 117.004C92.208 116.725 92.192 116.449 92.1747 116.172L92.1667 116.059C92.132 115.348 92.0916 114.634 92.0454 113.917C91.9751 112.813 91.9102 111.709 91.8507 110.604V110.543C91.8507 110.524 91.8507 110.508 91.8507 110.489C91.8414 110.317 91.832 110.148 91.8227 109.98C91.7694 108.974 91.716 107.968 91.6627 106.961L91.6267 106.281C91.6267 106.235 91.6267 106.189 91.6267 106.148L91.6107 105.861C91.5907 105.481 91.5694 105.1 91.548 104.72C91.5054 103.92 91.4569 103.116 91.4027 102.309L91.3667 101.761C91.3534 101.585 91.344 101.409 91.3307 101.228C91.3307 101.176 91.3307 101.127 91.32 101.075C90.6534 87.1253 90.58 85.5946 90.6627 74.356L90.6894 73.6386ZM79.5787 89.932C79.4798 89.9748 79.3848 90.0261 79.2947 90.0853C79.055 90.4196 78.8491 90.7769 78.68 91.152C78.4035 91.7817 78.2341 92.4531 78.1787 93.1386C78.1627 93.3186 78.1534 93.504 78.1507 93.6906C78.1507 94.6106 78.1054 95.5146 78.0174 96.416C78.0187 96.4337 78.0187 96.4516 78.0174 96.4693C77.9667 97.016 77.8987 97.5635 77.8134 98.112C77.7174 98.7293 77.6267 99.344 77.5467 99.96C77.5111 100.244 77.4791 100.528 77.4507 100.813C77.44 100.947 77.428 101.072 77.416 101.203C77.016 105.887 77.016 105.887 76.552 110.565C76.4818 111.296 76.4111 112.027 76.34 112.759C76.168 114.567 75.9987 116.377 75.8067 118.187H75.7974L75.5627 118.344C75.4949 118.696 75.4949 119.058 75.5627 119.411C75.341 120.725 75.218 122.055 75.1947 123.388L75.028 123.332C74.973 124.149 74.8522 124.96 74.6667 125.757C74.6094 125.965 74.5547 126.169 74.5 126.371L74.6827 126.461C74.3267 127.6 73.9827 128.439 72.964 129.077C72.8854 129.127 72.8027 129.175 72.7174 129.221C72.5783 129.254 72.437 129.276 72.2947 129.288C71.8965 129.328 71.4946 129.27 71.124 129.119C71.0415 129.087 70.9609 129.05 70.8827 129.009C70.8347 128.957 70.788 128.907 70.7494 128.856C70.7494 128.808 70.7587 128.755 70.764 128.693C70.5936 128.422 70.3967 128.168 70.176 127.936C70.1059 127.748 70.0584 127.552 70.0347 127.353C70.0065 127.126 69.9949 126.896 70 126.667C70 126.523 70 126.381 70.0107 126.241C70.0174 126.02 70.0254 125.809 70.032 125.609C70.0467 125.185 70.06 124.809 70.0707 124.468L70.2334 124.415C70.2054 123.789 70.176 123.172 70.1494 122.561C70.1494 122.529 70.1494 122.497 70.1494 122.463C70.1907 121.604 70.2427 120.831 70.3334 119.587C70.3334 119.512 70.344 119.433 70.3494 119.356C70.372 119.052 70.396 118.723 70.4227 118.36H70.584V116.569L70.5454 116.557C70.5996 115.732 70.6542 114.907 70.7094 114.081C70.7716 113.133 70.8338 112.186 70.896 111.241C70.9427 111.148 70.948 111.016 70.9587 110.66C70.9587 110.555 70.9587 110.452 70.9587 110.348L71.0067 109.631C71.036 109.207 71.064 108.78 71.0907 108.356L71.1227 108.372C71.176 108.127 71.2134 107.884 71.2427 107.641C71.312 107.147 71.364 106.649 71.4027 106.147C71.4134 105.995 71.424 105.849 71.4347 105.703C71.472 105.211 71.5085 104.719 71.544 104.227C71.556 104.049 71.568 103.877 71.5787 103.705C71.7747 100.947 71.8627 98.2026 71.8587 95.4453C71.8734 95.068 71.8854 94.692 71.8987 94.3133C71.9254 93.5133 71.9471 92.7178 71.964 91.9266C71.964 91.9133 71.9787 91.9013 71.984 91.888C72.1273 91.6072 72.2138 91.3009 72.2387 90.9866C72.2387 90.8093 72.2387 90.636 72.2387 90.4626C72.2387 90.256 72.2387 90.0626 72.2387 89.8586V89.192C72.2387 88.4595 72.2409 87.7271 72.2454 86.9946C72.2454 86.5946 72.2454 86.2093 72.2454 85.816C72.2454 84.4506 72.2454 83.0862 72.2454 81.7226C72.2454 80.4417 72.2476 79.1604 72.252 77.8786C72.2574 76.7675 72.2605 75.6564 72.2614 74.5453C72.2614 73.8853 72.2614 73.224 72.2614 72.5653C72.2614 71.9342 72.2614 71.3031 72.2614 70.672C72.2614 70.436 72.2614 70.2053 72.2614 69.976C72.2614 69.7466 72.2614 69.5333 72.2614 69.3093C72.2614 69.0853 72.2614 68.9093 72.2614 68.7053C72.2614 68.1586 72.252 67.8973 71.9947 67.5133V67.3866C71.9494 67.372 71.9054 67.3573 71.8614 67.3453C71.8633 67.3414 71.8651 67.3374 71.8667 67.3333C71.4107 66.9813 71.0894 66.9533 70.5214 66.9546L70.14 66.968C69.8614 66.968 69.584 66.968 69.3054 66.976C68.8494 66.9853 68.3934 66.9946 67.9374 66.9973C66.62 66.9973 65.304 67.008 63.9867 67.032C61.0787 67.0853 58.4147 67.2133 55.796 66.3653V66.328L55.4027 66.2293C54.7969 66.0079 54.2105 65.7367 53.6494 65.4186C52.9709 65.0162 52.2682 64.6559 51.5454 64.34C51.2947 64.232 51.0467 64.1226 50.7987 64.0106L49.7334 63.5213C49.3734 63.3586 49.0134 63.1986 48.656 63.036C48.4734 62.9546 48.4734 62.9546 48.2974 62.8733C47.6934 62.6 47.0974 62.3253 46.5014 62.0253L46.1147 61.8266L45.3574 61.436C44.894 61.1708 44.4019 60.9592 43.8907 60.8053C43.7463 60.6916 43.6084 60.5701 43.4774 60.4413H43.496C43.376 60.3306 43.2707 60.2293 43.1747 60.1226L43.14 60.0853C43.1957 59.59 43.3002 59.1014 43.452 58.6266C43.7747 58.16 44.0387 57.9866 44.5654 57.7693C45.648 57.8053 46.432 58.1106 47.396 58.588C48.4174 59.112 49.396 59.7146 50.5334 59.8773L50.5974 59.8866L51.0507 60.0853C51.1054 60.108 51.1587 60.1333 51.2147 60.156C51.2097 60.1629 51.2056 60.1706 51.2027 60.1786L51.1587 60.264C51.7091 60.5801 52.3092 60.8005 52.9334 60.916C52.9611 60.9219 52.9891 60.9264 53.0174 60.9293L53.0654 60.9506C53.2627 61.0346 53.4654 61.1173 53.6574 61.2026V61.3333L53.8534 61.4306L54.2427 61.6213L54.436 61.712L54.4947 61.7386C54.6667 61.82 54.8414 61.8973 55.016 61.9666C55.835 62.3197 56.6944 62.5705 57.5747 62.7133V62.76H57.9467C58.5718 62.8333 59.2017 62.8583 59.8307 62.8346C60.1227 62.824 60.4174 62.816 60.7094 62.8106L61.2334 62.8L61.916 62.8093L64.1414 62.8373L66.308 62.864L67.1454 62.8746C68.5734 62.892 69.9987 62.9133 71.424 62.9986C73.0067 63.096 74.5814 63.132 76.1667 63.132C76.4454 63.132 76.7254 63.132 77.0054 63.132C77.5991 63.132 78.1934 63.132 78.788 63.132H81.0667C81.6676 63.132 82.2676 63.132 82.8667 63.132C83.156 63.132 83.4427 63.132 83.7307 63.132C85.1974 63.132 86.664 63.132 88.1307 63.0213C89.4867 62.9226 90.8374 62.888 92.1974 62.8786L93.0507 62.868L95.308 62.8413C96.0854 62.8333 96.8627 62.8226 97.6387 62.8133C99.1498 62.7929 100.661 62.7746 102.172 62.7586H102.655V62.7266C103.232 62.6804 103.799 62.5455 104.336 62.3266C104.544 62.2266 104.747 62.128 104.951 62.032L106.041 61.508V61.4426C106.353 61.4004 106.655 61.3019 106.932 61.152C106.905 61.096 106.877 61.0426 106.852 60.9893C106.851 60.9876 106.851 60.9858 106.851 60.984C106.851 60.9821 106.851 60.9803 106.852 60.9786L106.975 60.924H106.995C107.255 60.9706 107.465 60.9093 107.832 60.78L108.456 60.4826C108.797 60.3213 109.139 60.16 109.479 59.996L110.191 59.6546C110.376 59.568 110.561 59.4786 110.745 59.388L110.804 59.3666L111.337 59.1106C111.652 58.9613 111.968 58.8093 112.284 58.6546V58.5213C112.508 58.42 112.732 58.3173 112.959 58.22C113.209 58.288 113.315 58.2613 113.733 58.1573C113.948 58.088 114.159 58.024 114.367 57.9506C114.663 57.8546 114.959 57.76 115.253 57.6626L115.295 57.648C115.517 57.6917 115.73 57.7719 115.925 57.8853C115.945 57.9146 115.965 57.9453 115.984 57.976L116.031 58.0493C116.491 58.5826 116.735 58.8573 116.749 59.5773C115.971 60.7773 115.971 60.7773 114.636 61.4066C114.335 61.54 114.032 61.6853 113.731 61.8266L113.68 61.848L113.567 61.8973L113.525 61.9213L113.029 62.1533C112.363 62.4653 111.696 62.7786 111.029 63.0986C110.511 63.348 109.989 63.5946 109.471 63.8453L108.685 64.2186C108.685 64.2186 108.685 64.2186 108.676 64.2186C108.578 64.2494 108.484 64.2944 108.399 64.352C107.753 64.6626 107.108 64.9666 106.455 65.2573C106.188 65.3733 105.931 65.4906 105.673 65.616L105.657 65.6226C105.56 65.6653 105.461 65.7106 105.364 65.756C102.564 66.6226 101.552 66.9346 99.972 67.0213H99.8627C99.832 67.0213 99.8 67.0213 99.768 67.0213H99.7547C98.8867 67.0533 97.8334 67.0213 96.236 66.9653C94.9702 66.9529 93.7054 66.9471 92.4414 66.948C91.9947 66.948 91.552 66.948 91.108 66.948C90.8307 66.948 90.5507 66.9413 90.2734 66.9413H89.8667C89.4363 66.917 89.0046 66.9425 88.58 67.0173C88.5 67.08 88.4267 67.1386 88.3614 67.1946H88.228C88.204 67.264 88.1854 67.328 88.1667 67.3786C88.1137 67.4348 88.0651 67.495 88.0214 67.5586L87.8667 67.7426L87.8827 67.8213C87.838 67.9381 87.8036 68.0585 87.78 68.1813V68.6773C87.78 68.8733 87.78 69.064 87.78 69.2533C87.78 69.468 87.78 69.6746 87.788 69.8826C87.788 70.5813 87.788 71.2791 87.788 71.976C87.788 72.6066 87.788 73.2386 87.788 73.8666C87.788 74.9333 87.788 75.9893 87.7974 77.0493C87.8045 78.4093 87.8094 79.7697 87.812 81.1306C87.812 82.3173 87.8142 83.5035 87.8187 84.6893C87.8187 84.9426 87.8187 85.196 87.8187 85.448C87.8294 89.3506 87.86 93.2533 88.1827 97.1453C88.1987 97.3266 88.2147 97.504 88.2294 97.6786C88.284 98.3333 88.34 98.9853 88.396 99.6386H88.4787C88.4965 100.172 88.5174 100.705 88.5414 101.239C88.5414 101.312 88.5414 101.384 88.5414 101.459C88.5414 101.577 88.5414 101.696 88.5414 101.817C88.5414 102.003 88.5414 102.181 88.5414 102.359C88.5346 103.654 88.6054 104.948 88.7534 106.235C88.772 106.208 88.792 106.181 88.812 106.156L88.8187 106.148V106.173V106.195C88.7626 106.379 88.7273 106.569 88.7134 106.761C88.724 106.957 88.7347 107.145 88.7454 107.336C88.7547 107.548 88.7654 107.753 88.7747 107.96C88.784 108.167 88.8014 108.393 88.8134 108.607C88.8534 109.361 88.8907 110.115 88.936 110.873C88.9934 110.853 89.0507 110.836 89.1054 110.819C89.12 113.04 89.2747 115.245 89.4707 117.467L89.5534 117.385L89.6 117.333C89.632 117.85 89.6654 118.366 89.7 118.881L89.8334 120.84V122.804L89.8494 122.795C89.8494 122.883 89.8494 122.971 89.8494 123.061C89.8494 123.411 89.8494 123.76 89.8494 124.109C89.8494 124.625 89.86 125.141 89.8614 125.656C89.8614 125.823 89.8614 125.984 89.8614 126.145C89.8614 126.307 89.8614 126.465 89.8614 126.621V127.067C89.8694 127.245 89.8587 127.424 89.8293 127.6C89.7472 127.844 89.6227 128.072 89.4614 128.273C89.4107 128.332 89.3614 128.389 89.3107 128.444C88.828 128.82 88.4747 129.031 87.816 129.093C87.2827 129.035 87.076 128.988 86.7374 128.581C86.3987 128.175 86.144 127.853 85.7947 127.631C85.7307 127.512 85.6747 127.393 85.6227 127.273C85.6086 127.245 85.5961 127.215 85.5854 127.185C85.506 126.995 85.4392 126.799 85.3854 126.6C85.3788 126.581 85.3734 126.561 85.3694 126.541C85.3514 125.791 85.2877 125.042 85.1787 124.299C85.1187 123.573 85.0454 122.849 84.9654 122.124C84.9107 121.645 84.86 121.168 84.808 120.691C84.8174 120.557 84.824 120.436 84.8307 120.308H84.7694C84.6698 119.381 84.5751 118.453 84.4854 117.525C84.4654 117.316 84.4467 117.111 84.4267 116.908C84.344 116.073 84.264 115.239 84.1867 114.405C84.1262 113.792 84.0671 113.179 84.0094 112.567C83.992 112.375 83.9734 112.185 83.956 111.999C83.9387 111.812 83.92 111.629 83.904 111.449C83.888 111.269 83.872 111.112 83.8547 110.945C83.8394 110.572 83.7381 110.207 83.5587 109.879C83.5542 109.869 83.5488 109.86 83.5427 109.851C83.5014 109.463 83.4587 109.073 83.416 108.685C83.416 108.676 83.416 108.669 83.416 108.66C83.416 108.587 83.416 108.515 83.416 108.441C83.416 107.155 83.3534 105.883 83.2254 104.593C83.188 104.223 83.1507 103.855 83.1147 103.485C83.032 102.631 83.0787 101.648 82.6947 100.879H82.6374C82.6174 100.659 82.5974 100.439 82.58 100.219C82.5707 100.119 82.564 100.02 82.5547 99.92C82.5547 99.8826 82.5547 99.8426 82.5547 99.7986C82.5547 99.6213 82.5374 99.3586 82.5174 98.9226L82.4707 98.9066C82.3894 97.94 82.3054 96.976 82.204 96.0133C82.2934 95.02 82.26 93.9253 81.8293 93.0413C81.8293 92.9986 81.8134 92.9493 81.804 92.8853C81.7707 92.6533 81.7334 92.432 81.6907 92.2186C81.5679 91.5348 81.3347 90.8755 81 90.2666C80.9214 90.1253 80.836 89.9853 80.7414 89.84C80.2734 89.796 79.9467 89.772 79.5787 89.932Z" fill="#3A3A3A"/>
<path d="M64.6493 91.6867C64.6493 91.664 64.66 91.6427 64.664 91.6187C64.676 91.5534 64.6853 91.4853 64.692 91.4133C64.692 91.3973 64.692 91.3827 64.692 91.3667C64.692 91.2773 64.7013 91.1854 64.692 91.0867C64.3466 90.4654 64.1213 90.244 63.444 90.02C62.9293 90.02 62.9106 90.02 62.6026 90.2227L62.5533 90.1987C62.199 90.4452 61.8785 90.737 61.6 91.0667L61.4666 91.1774C61.2271 91.3704 61.0004 91.5788 60.788 91.8014C60.7266 91.9827 60.668 92.1587 60.6093 92.3347C60.2533 92.3347 60.2533 92.3347 59.9066 92.6454L59.5173 93.0454C59.2862 93.2827 59.056 93.5205 58.8266 93.7587L58.9186 93.788C58.7338 93.9978 58.5458 94.2036 58.3546 94.4053C57.6942 95.0587 57.0355 95.7125 56.3786 96.3667L55.3786 97.3614C54.8871 97.8494 54.3951 98.3382 53.9026 98.828L53.436 99.292L52.9813 99.7427L52.56 100.164C52.4266 100.297 52.312 100.416 52.2026 100.54C51.976 100.751 51.7466 100.959 51.5106 101.163C50.9133 101.677 50.3533 102.217 49.8 102.78C49.6453 102.937 49.4906 103.093 49.3373 103.251L49.0786 103.517L48.592 104.012L47.916 104.697C47.5266 105.097 47.1386 105.491 46.7466 105.887L46.388 106.249L46.3573 106.233L46.0973 106.481L45.756 106.813C45.5859 106.974 45.426 107.146 45.2773 107.327L45.196 107.384L45.1733 107.399L45.092 107.448C45.0573 107.468 45.02 107.485 44.984 107.503L44.9293 107.525C44.8946 107.54 44.8586 107.553 44.8213 107.565C44.81 107.57 44.7984 107.574 44.7866 107.577C44.736 107.593 44.684 107.607 44.6293 107.619L44.5853 107.627C44.5245 107.64 44.4631 107.649 44.4013 107.656C44.22 107.567 44.0413 107.483 43.868 107.403C43.7733 107.361 43.6786 107.324 43.5853 107.285C43.492 107.247 43.4186 107.215 43.3373 107.183V107.123C43.2533 107.111 43.172 107.103 43.088 107.092H43.0746C43.0013 107.065 42.928 107.043 42.8546 107.019L42.7333 106.979C42.576 106.929 42.4173 106.885 42.2586 106.845L42.1413 106.817C42.0089 106.785 41.8755 106.756 41.7413 106.729L41.6213 106.705C41.4546 106.675 41.2866 106.648 41.1146 106.627L41.0373 106.617C40.8893 106.6 40.74 106.585 40.588 106.575L40.4413 106.564C40.2773 106.553 40.1106 106.545 39.94 106.543H39.9H39.4506C39.0306 106.543 38.6133 106.543 38.1933 106.563C38.1466 106.563 38.1 106.575 38.052 106.58H37.9933H37.9826C37.9266 106.58 37.8693 106.588 37.8133 106.593L37.6413 106.633L37.6106 106.641C35.5546 107.02 33.592 108.341 32.268 109.883C32.212 109.953 32.1626 110.025 32.1093 110.096L32.0813 110.128C32.016 110.207 31.948 110.287 31.888 110.369C30.6346 112.189 30.3013 114.173 30.456 116.284C30.4693 116.496 30.4853 116.711 30.5066 116.928L30.5226 117.008C30.5226 117.015 30.5226 117.021 30.5226 117.028C30.5386 117.155 30.5573 117.283 30.5746 117.412C30.592 117.541 30.644 117.664 30.684 117.788V117.82L30.7 117.836C30.7293 117.937 30.7613 118.037 30.7973 118.135V118.153C30.88 118.42 30.9738 118.681 31.0786 118.937C31.228 119.647 31.7346 120.355 32.26 120.955C32.4415 121.178 32.6375 121.39 32.8466 121.588L32.9933 121.739H33.0093C33.1146 121.832 33.2226 121.923 33.3346 122.005L33.7066 122.272L33.984 122.475C34.6098 122.957 35.2678 123.397 35.9533 123.791C37.5533 124.515 39.7093 124.515 41.536 124.147H41.556C41.9165 124.089 42.2712 124 42.616 123.88C44.1448 123.263 45.5045 122.29 46.5826 121.043L46.6013 121.02C46.636 120.98 46.6693 120.939 46.7026 120.899C46.7586 120.829 46.8146 120.765 46.868 120.692L46.9773 120.548C47.0013 120.513 47.028 120.481 47.052 120.448C47.076 120.415 47.0946 120.384 47.116 120.353C47.1373 120.323 47.18 120.261 47.2106 120.22C47.2813 120.113 47.3506 120.007 47.4173 119.897C47.5694 119.641 47.7056 119.377 47.8253 119.104C47.872 118.971 47.916 118.837 47.9586 118.704C47.9693 118.672 47.98 118.64 47.9893 118.607C48.02 118.513 48.048 118.42 48.076 118.327C48.0893 118.279 48.104 118.232 48.1173 118.185C48.144 118.091 48.1693 117.997 48.1933 117.904C48.2173 117.811 48.2386 117.72 48.2613 117.629C48.2733 117.577 48.2853 117.527 48.296 117.476C48.3146 117.393 48.332 117.311 48.348 117.229C48.348 117.199 48.36 117.168 48.3653 117.139C48.4026 116.943 48.436 116.748 48.4626 116.552L48.4973 116.575V116.267C48.4973 116.239 48.4973 116.211 48.4973 116.181C48.5066 116.083 48.5146 115.983 48.5213 115.884C48.5213 115.828 48.5293 115.771 48.532 115.715C48.532 115.608 48.54 115.501 48.5413 115.396C48.5413 115.348 48.5413 115.301 48.5413 115.253C48.5413 115.129 48.5413 115.005 48.532 114.881V114.791C48.5226 114.635 48.5106 114.479 48.4933 114.323V113.895H48.432C48.412 113.773 48.3866 113.652 48.3613 113.531C48.3546 113.503 48.3506 113.473 48.344 113.444C48.3253 113.367 48.304 113.291 48.284 113.213C48.264 113.136 48.248 113.069 48.228 112.997C48.22 112.971 48.2093 112.943 48.2013 112.915C48.148 112.74 48.0866 112.565 48.02 112.391C47.9866 112.305 47.956 112.219 47.9186 112.133C47.8986 112.089 47.8773 112.044 47.856 112C47.4728 111.232 47.1496 110.435 46.8893 109.617C47.1706 109.327 47.4573 109.053 47.7626 108.788C48.2866 108.371 48.7681 107.904 49.2 107.392L49.312 107.243L49.4226 107.101L49.8226 106.712L49.8373 106.699C50.3718 106.268 50.8832 105.809 51.3693 105.324C51.7026 104.997 52.1466 104.552 52.8186 103.877L53.1266 103.568C53.3818 103.311 53.6369 103.055 53.892 102.799C54.7933 101.895 55.6942 100.99 56.5946 100.085C57.3706 99.3058 58.1471 98.5267 58.924 97.748L59.116 97.5547C59.4173 97.2525 59.7191 96.9494 60.0213 96.6454C60.4466 96.2174 60.872 95.788 61.3013 95.3627C61.6626 95.0053 62.028 94.652 62.4026 94.3067C62.6146 94.1107 62.828 93.9147 63.0466 93.724C63.1893 93.6053 63.3293 93.4853 63.468 93.3627C63.6066 93.24 63.7653 93.096 63.9093 92.9547L64.004 92.8467C64.0253 92.8227 64.044 92.8 64.064 92.7747L64.12 92.708L64.1746 92.64C64.204 92.604 64.2306 92.5667 64.2586 92.5293C64.304 92.4653 64.348 92.396 64.392 92.3387C64.4334 92.2687 64.4712 92.1966 64.5053 92.1227L64.5226 92.0854L64.5506 92.024C64.5626 91.9933 64.572 91.9613 64.5826 91.9307C64.5933 91.9 64.6013 91.8813 64.608 91.856C64.6247 91.8003 64.6385 91.7438 64.6493 91.6867ZM35.5466 120.123C35.2764 119.861 34.9761 119.632 34.652 119.441C34.4824 119.24 34.3248 119.029 34.18 118.809C34.1973 118.776 34.2133 118.741 34.232 118.708C34.0653 118.347 33.888 117.988 33.6986 117.641H33.5786C33.486 117.408 33.4068 117.17 33.3413 116.928C33.248 115.82 33.2373 114.84 33.4293 113.917C33.5518 113.815 33.6441 113.682 33.696 113.531L33.8293 113.087C34.472 111.363 35.624 110.429 37.2386 109.62L37.616 109.441L37.6066 109.432L37.6746 109.413C37.8853 109.475 38.14 109.472 38.696 109.464C39.528 109.441 40.3466 109.384 41.164 109.541C41.4666 109.605 41.524 109.616 41.7253 109.523C41.7323 109.525 41.739 109.527 41.7453 109.531L41.7146 109.62C42.4257 109.937 43.0861 110.357 43.6746 110.867C44.1811 111.392 44.5929 112.001 44.892 112.667C44.892 112.667 44.892 112.667 44.892 112.675C45.18 113.364 45.3802 114.087 45.488 114.827C45.4946 114.871 45.5 114.913 45.5053 114.96C45.5226 115.081 45.5373 115.205 45.5493 115.329C45.5493 115.392 45.5626 115.455 45.568 115.516L45.584 115.696C45.5906 115.783 45.596 115.868 45.6013 115.955C45.6013 115.997 45.6013 116.043 45.6093 116.088C45.6173 116.133 45.6093 116.151 45.6093 116.183C45.5781 116.432 45.5336 116.679 45.476 116.924L45.448 116.932C45.3866 117.065 45.3266 117.199 45.268 117.332C45.1747 117.664 45.0356 117.981 44.8546 118.275C44.7626 118.427 44.6773 118.576 44.588 118.724C44.4546 118.952 44.4546 118.952 44.328 119.176C43.8292 119.843 43.1645 120.369 42.4 120.7C42.2939 120.709 42.1895 120.732 42.0893 120.768L41.7026 120.924C41.4813 121.012 41.26 121.099 41.036 121.191C40.4946 121.344 39.944 121.457 39.4093 121.567H39.2666L38.8466 121.604C38.2854 121.586 37.7301 121.483 37.2 121.297L37.264 121.201C36.6365 120.938 36.0564 120.574 35.5466 120.123Z" fill="#F7931B"/>
<path d="M71.2187 50.8347C71.9053 52.988 73.4146 55.8653 75.4213 57.064L75.752 57.228C77.5467 58.18 79.8667 58.2547 81.832 57.788C82.4195 57.6265 82.998 57.4342 83.5653 57.212C83.832 57.212 84.0293 57.1187 84.756 56.768C87.004 55.4627 88.3387 53.1 89.0307 50.652C89.0573 50.5307 89.0773 50.4093 89.096 50.2867L89.1107 50.2787V50.2227C89.3667 48.432 88.8947 46.4707 88.0787 44.8267C87.9303 44.4522 87.7355 44.0978 87.4987 43.772C87.3653 43.5973 87.2227 43.4227 87.0773 43.2507C86.3133 42.3173 85.3947 41.4573 84.3173 40.936L84.292 40.9213C84.2707 40.9107 84.248 40.8987 84.2267 40.8853L83.768 40.656C83.3066 40.4185 82.8194 40.2351 82.316 40.1093C82.3102 40.1087 82.3044 40.1087 82.2987 40.1093C81.8775 39.9606 81.4333 39.8875 80.9867 39.8933C79.9831 39.8272 78.9752 39.8759 77.9827 40.0387C77.6787 40.1067 77.392 40.1827 77.12 40.2693C76.2493 40.4944 75.4238 40.8679 74.68 41.3733C72.9466 42.952 71.316 45.2067 71.08 47.6027C71.068 47.8 71.0627 47.9933 71.06 48.1867C70.9917 49.0724 71.0451 49.9634 71.2187 50.8347ZM81.136 55.0827L80.7107 55.06H80.612H80.532L80.2973 55.0453H80.2093C80.132 55.0453 80.0533 55.0373 79.976 55.0293C79.772 55.0147 79.5667 54.9987 79.3613 54.9773H79.328C78.6267 54.9058 77.9468 54.695 77.328 54.3573C76.8667 54.0382 76.3887 53.744 75.896 53.476C75.8013 53.432 75.7107 53.3893 75.62 53.3427C75.6055 53.3314 75.5929 53.3179 75.5827 53.3027V52.9693C75.2383 52.5009 74.8581 52.06 74.4453 51.6507C74.3228 51.4094 74.215 51.161 74.1227 50.9067C74.0266 50.0853 73.932 49.284 73.8386 48.4827C73.8586 48.3187 73.8827 48.1573 73.912 47.9987L73.9787 47.98C74.0347 47.832 74.0907 47.6893 74.1453 47.5453C74.3073 47.0138 74.5198 46.499 74.78 46.008C74.9773 45.624 75.172 45.2347 75.3587 44.8453C75.539 44.6307 75.7328 44.4276 75.9386 44.2373C76.0862 44.1058 76.236 43.9818 76.388 43.8653L76.4733 43.8813C76.5387 43.836 76.6067 43.7933 76.6747 43.748C76.7427 43.7027 76.808 43.6667 76.8827 43.6253C77.6969 43.1768 78.5902 42.8897 79.5133 42.78C80.2587 42.7091 81.0105 42.7495 81.744 42.9C82.6689 43.1653 83.5121 43.6592 84.196 44.336C85.364 45.6333 85.8693 46.8693 86.1173 48.4773C86.1545 49.2907 86.0429 50.104 85.788 50.8773C85.2693 52.2947 84.6333 53.2173 83.4373 53.932C82.7867 53.984 82.1187 54.456 81.6227 54.9773C81.4587 55.012 81.2973 55.0493 81.136 55.0827Z" fill="#3A3A3A"/>
<path d="M141.041 76.7694C140.793 75.0427 139.827 73.5453 138.604 72.3227C138.175 71.8917 137.716 71.4908 137.232 71.1227C137.156 71.0747 137.081 71.028 137.005 70.9827L136.872 70.904L136.804 70.8653H136.796C136.701 70.812 136.603 70.76 136.505 70.708L136.456 70.684L136.287 70.6014C136.02 70.468 135.739 70.344 135.452 70.236L135.42 70.2254C135.236 70.1547 135.049 70.092 134.86 70.0347L134.685 69.9813L134.581 69.952L134.472 69.9213L134.339 69.8827C134.308 69.8747 134.276 69.8693 134.245 69.8627C132.752 69.4853 131.155 69.4174 129.785 69.8187C129.719 69.836 129.652 69.856 129.577 69.88C129.476 69.9173 129.376 69.9573 129.277 69.9973H129.267C129.099 70.0547 128.932 70.1187 128.769 70.1907L128.329 70.412C128.028 70.5454 127.732 70.7013 127.439 70.8573C125.581 72.0333 123.943 74 123.42 76.1614C123.373 76.38 123.373 76.38 123.327 76.5934C123.28 76.8067 123.279 76.8147 123.233 77.0293C123.224 77.0707 123.216 77.1107 123.207 77.1507C123.12 77.224 123.036 77.2214 122.761 77.208H122.22H121.601L120.563 77.2147L118.655 77.2267L116.625 77.24L112.793 77.264L108.393 77.2934H108.147C107.411 77.2934 106.672 77.2934 105.936 77.2854C105.261 77.2854 104.584 77.2854 103.907 77.2854C103.26 77.2854 102.613 77.276 101.964 77.276C101.725 77.276 101.487 77.276 101.248 77.276L100.571 77.2667C100.36 77.2667 100.156 77.2667 99.9493 77.2667C99.677 77.2573 99.4046 77.2855 99.14 77.3507H98.9226V77.42C98.8532 77.4469 98.7859 77.479 98.7213 77.516C98.5522 77.5682 98.3947 77.6524 98.2573 77.764C98.1786 77.8707 98.1173 77.9533 98.072 78.0307C98.0624 78.0411 98.0522 78.0509 98.0413 78.06L98.0333 78.1027C97.9718 78.2345 97.9496 78.3812 97.9693 78.5254C97.9694 78.7279 97.9936 78.9298 98.0413 79.1267C98.1106 79.236 98.1747 79.336 98.2347 79.4254C98.2711 79.5531 98.3364 79.6707 98.4253 79.7694C98.6746 79.9574 98.7346 80.0027 98.9413 80.0427H98.96C98.988 80.0534 99.0173 80.064 99.048 80.0733L99.0867 80.0854L99.1626 80.1067L99.2187 80.1227H99.6453H100.379H100.707C100.941 80.1227 101.176 80.1227 101.411 80.1227C102.046 80.1227 102.681 80.1227 103.316 80.1227C103.825 80.1227 104.336 80.1227 104.847 80.1133H105.333H105.857C106.958 80.1133 108.057 80.1085 109.156 80.0987C110.617 80.088 112.078 80.0809 113.539 80.0774H113.648C116.692 80.0694 119.737 80.0547 122.781 80.0334H123.16C123.16 80.5623 123.24 81.0882 123.397 81.5934C123.397 81.5934 123.397 81.5934 123.397 81.6014V81.6307C123.634 82.3841 124.004 83.089 124.489 83.712L124.507 83.736C124.64 83.9307 124.793 84.1214 124.947 84.3094C126.625 86.1227 128.68 87.464 131.188 87.576C131.891 87.5947 132.594 87.5751 133.295 87.5174H133.311C133.62 87.488 133.921 87.448 134.219 87.396H134.269C135.785 87.388 137.225 86.3947 138.311 85.396C140.056 83.4813 140.984 81.3147 141.056 78.7293V78.2094C141.067 77.7334 141.067 77.256 141.041 76.7694ZM136.519 74.336C137.37 75.2676 137.922 76.4338 138.103 77.683C138.283 78.9322 138.084 80.2068 137.531 81.3414L137.096 82.1C136.786 82.565 136.423 82.9931 136.016 83.376C134.468 84.6414 132.765 84.8093 130.816 84.672C129.483 84.4347 128.116 83.7213 127.252 82.672C126 80.844 125.867 79.124 126.093 76.9747L126.117 76.7973C126.325 76.1551 126.634 75.5499 127.031 75.004C127.467 74.6267 127.919 74.2907 128.389 73.9587C128.523 73.8614 128.616 73.8014 128.683 73.7494C129.969 72.96 131.317 72.5493 132.967 72.424C133.39 72.4807 133.807 72.5817 134.209 72.7254H134.203C135.031 73.1755 135.808 73.7157 136.519 74.336Z" fill="#F7931B"/>
<path d="M30.42 37.6107C30.42 37.6413 30.42 37.6707 30.42 37.7C30.4294 37.8707 30.4427 38.0413 30.4627 38.212C30.4627 38.252 30.4734 38.2907 30.4774 38.3307C30.4947 38.464 30.5134 38.5974 30.536 38.7307C30.5454 38.784 30.556 38.836 30.5654 38.8894C30.5894 39.0147 30.6174 39.14 30.6467 39.2653C30.6587 39.312 30.6694 39.36 30.6814 39.4067C30.7254 39.5773 30.772 39.7467 30.8267 39.9173C30.8267 39.9307 30.8387 39.9427 30.844 39.9573C30.9014 40.0973 30.96 40.2347 31.0187 40.3693C31.0387 40.412 31.0574 40.4547 31.0774 40.496C31.1307 40.6142 31.1854 40.7302 31.2414 40.844C31.2574 40.8747 31.272 40.9067 31.2867 40.936C31.3587 41.0773 31.4307 41.216 31.5067 41.3507C31.5214 41.3773 31.536 41.404 31.552 41.4293C31.6134 41.5387 31.676 41.6467 31.7414 41.7507L31.8094 41.8627C31.88 41.9733 31.9507 42.0827 32.024 42.1894L32.0587 42.2413C32.128 42.3387 32.192 42.436 32.2694 42.5307V42.6213L32.38 42.6773C32.408 42.7133 32.4387 42.7467 32.468 42.7827C32.548 42.8827 32.6307 42.9813 32.7147 43.0787C32.76 43.1307 32.808 43.1827 32.856 43.2347C32.9347 43.32 33.0147 43.4053 33.0974 43.488L33.2467 43.6373C33.3356 43.7262 33.4276 43.8116 33.5227 43.8934C33.568 43.9334 33.6107 43.9733 33.656 44.012C33.7894 44.1307 33.936 44.2467 34.0827 44.36L34.1814 44.432C34.3 44.5213 34.42 44.608 34.544 44.6987C34.6 44.7373 34.6587 44.7747 34.7174 44.8133C34.8227 44.8827 34.9294 44.9467 35.0387 45.0173L35.228 45.1307C35.344 45.1987 35.4614 45.264 35.5814 45.3307L35.7574 45.4267C35.9334 45.5187 36.112 45.6094 36.2974 45.6933H36.3094L36.3294 45.7013C36.444 45.7453 36.5587 45.7867 36.676 45.8267L36.7907 45.864C36.8814 45.8934 36.9734 45.9213 37.0654 45.948L37.096 45.9573L37.1414 45.968C37.8733 46.1701 38.6275 46.2808 39.3867 46.2973H39.428H39.6454C40.8016 46.3078 41.9481 46.0847 43.016 45.6413L43.3374 45.464L43.6934 45.28C44.176 45.0307 44.556 44.832 45.0974 44.7467C45.5987 45.0533 45.5987 45.0533 45.8907 45.3507C45.9267 45.3867 45.96 45.424 45.996 45.46H46C46.124 45.5867 46.252 45.7107 46.3774 45.8373C46.6254 46.088 46.8747 46.3387 47.1267 46.5867C47.5507 47 47.9791 47.4098 48.412 47.816L48.7614 48.144L49.1947 48.544L49.4347 48.7693L49.4547 48.7867L49.7014 49.0133C49.948 49.2387 50.1947 49.464 50.4454 49.68C50.62 49.832 50.7894 49.9867 50.9627 50.1387C51.5347 50.6453 52.1 51.1587 52.656 51.6854C53.4 52.3965 54.1476 53.0996 54.8987 53.7947L54.9454 53.8373L55.0974 53.9707L55.324 54.176L55.508 54.3413C55.6566 54.4767 55.8139 54.6023 55.9787 54.7173C56.616 54.8413 56.884 54.7973 57.46 54.5187C57.9027 54.024 57.964 53.7827 57.9387 53.1133C57.8854 53.004 57.828 52.8974 57.7707 52.7934C57.7659 52.7829 57.7605 52.7726 57.7547 52.7627H57.7614C57.744 52.7387 57.728 52.7187 57.7147 52.6987C57.676 52.632 57.636 52.5653 57.596 52.5L57.556 52.436C57.5254 52.388 57.4947 52.3387 57.4627 52.292C57.4134 52.2173 57.3627 52.1453 57.3094 52.0747L57.3014 52.064C57.248 51.992 57.1907 51.92 57.1334 51.8507L57.096 51.808C57.0462 51.7493 56.9956 51.692 56.944 51.636L56.8947 51.5854C56.844 51.532 56.792 51.48 56.7374 51.4293L56.684 51.3773C56.6254 51.324 56.5654 51.272 56.504 51.22L56.4654 51.1867C56.26 51.0253 56.0654 50.8613 55.8694 50.692C55.6027 50.4627 55.348 50.228 55.088 49.9853L54.5334 49.4667C54.3396 49.2889 54.1458 49.1089 53.952 48.9267C53.5387 48.5453 53.12 48.168 52.692 47.8C52.5987 47.72 52.508 47.6374 52.416 47.556C52.276 47.432 52.1387 47.3053 52.004 47.1773C51.924 47.1013 51.8427 47.0267 51.764 46.948C51.6507 46.8307 51.5374 46.7147 51.4227 46.6013L51.4014 46.58C51.2947 46.4747 51.188 46.3693 51.08 46.2667L50.98 46.1733C50.896 46.0947 50.8107 46.0147 50.724 45.9373L50.6574 45.8787C50.564 45.7973 50.472 45.7147 50.376 45.6347L50.3667 45.6267C50.2973 45.5459 50.2137 45.4786 50.12 45.428C49.9867 45.3253 49.86 45.2213 49.732 45.1173L49.7454 45.1094L49.42 44.8107L48.988 44.4187C48.7193 44.1708 48.4337 43.9418 48.1334 43.7333C47.92 43.524 47.7134 43.304 47.5174 43.0747C47.403 42.9264 47.2962 42.7724 47.1974 42.6133C47.1294 42.5085 47.0849 42.3903 47.0667 42.2667C47.0654 42.2547 47.0654 42.2426 47.0667 42.2307C47.0685 42.2153 47.0716 42.2002 47.076 42.1854C47.076 42.1747 47.076 42.1627 47.0854 42.1507C47.1356 42.0361 47.1954 41.926 47.264 41.8213C47.3769 41.608 47.4836 41.3942 47.584 41.18L47.5907 41.1667V41.156V41.1453C47.5939 41.1398 47.5966 41.134 47.5987 41.128C48.4707 39.3053 48.6454 37.528 48.44 35.4533C48.2774 34.6226 47.9873 33.8221 47.58 33.08C47.58 33.08 47.5734 33.068 47.5694 33.0613C47.1504 32.1569 46.5489 31.3488 45.8027 30.688L45.7907 30.6747C45.5476 30.4306 45.2916 30.1996 45.024 29.9827C44.3963 29.5436 43.7231 29.1735 43.016 28.8787H43C41.236 28.0787 38.8267 27.688 37.1227 28.4213C36.6932 28.5659 36.2717 28.7333 35.86 28.9227L35.8334 28.9094C35.315 29.1658 34.8167 29.4608 34.3427 29.792L34.3107 29.8133L34.2654 29.8453L34.072 29.988L34.056 30C34.0414 30.0107 34.0267 30.024 34.0107 30.0347C33.9254 30.1013 33.84 30.168 33.7574 30.236L33.66 30.3173C33.4987 30.4507 33.344 30.5947 33.1934 30.7413L33.1827 30.752L33.1747 30.7613C32.6857 31.2426 32.2499 31.775 31.8747 32.3493L31.8547 32.3773L31.8227 32.4253L31.6894 32.6307L31.6627 32.6747C31.644 32.7067 31.624 32.7373 31.6054 32.768L31.592 32.792C31.536 32.8827 31.4827 32.976 31.4294 33.0707C31.4214 33.0859 31.4143 33.1014 31.408 33.1173C31.344 33.2507 31.2827 33.376 31.2254 33.5067C31.208 33.544 31.1934 33.5813 31.1774 33.6187C31.1307 33.728 31.0854 33.8373 31.044 33.948C31.0254 33.996 31.008 34.0453 30.9894 34.0933C30.9534 34.1933 30.9174 34.292 30.884 34.392C30.8654 34.4467 30.8494 34.5014 30.832 34.556C30.8014 34.652 30.772 34.748 30.7454 34.844L30.7214 34.9253C30.6654 35.0173 30.632 35.1547 30.588 35.488V35.5107C30.5534 35.6827 30.5227 35.8534 30.4974 36.0267C30.4974 36.044 30.4974 36.0613 30.4974 36.08C30.476 36.228 30.46 36.3773 30.4467 36.5267C30.4467 36.5787 30.44 36.6307 30.436 36.6813C30.428 36.8027 30.4227 36.924 30.4187 37.0453C30.4187 37.0987 30.4187 37.1507 30.4187 37.204C30.412 37.3333 30.4147 37.4667 30.42 37.6107ZM44.5667 40.656L43.5854 41.8013L43.5787 41.8094C43.5054 41.88 43.4307 41.9493 43.3534 42.0213C43.074 42.2514 42.774 42.4554 42.4574 42.6307L42.4294 42.616V42.6467C41.1867 43.324 39.84 43.4467 38.3307 43.3293C36.6667 43.0027 35.2067 41.9067 34.2667 40.512C33.5309 39.2562 33.2239 37.7951 33.392 36.3493C33.4228 36.1303 33.4673 35.9134 33.5254 35.7C33.6494 35.2813 33.6814 35.1667 33.6174 34.9267C33.8041 34.485 34.0304 34.061 34.2934 33.66C34.4894 33.4533 34.6934 33.248 34.8867 33.0467C34.8945 33.0384 34.9029 33.0308 34.912 33.024C35.1809 32.7604 35.4659 32.5137 35.7654 32.2853C35.808 32.2533 35.8494 32.2253 35.8987 32.1947C37.0827 31.3827 38.264 31.188 39.716 31.176H39.7254C40.8234 31.2327 41.8901 31.5617 42.8294 32.1333C42.904 32.1973 42.9907 32.2667 43.132 32.3747L43.52 32.6613C43.584 32.7067 43.6454 32.7533 43.708 32.8013C43.8147 32.8973 43.9187 33 44.0214 33.1067C45.2747 34.632 45.5867 36.1027 45.5254 38.0587C45.44 38.9964 45.1109 39.8955 44.5707 40.6667C44.5713 40.6647 44.5712 40.6626 44.5705 40.6607C44.5698 40.6587 44.5684 40.6571 44.5667 40.656Z" fill="#F7931B"/>
<path d="M102.252 54.1973C102.268 54.252 102.284 54.3067 102.304 54.3666C102.66 54.7333 102.66 54.7333 103.251 54.8227L103.408 54.7973C103.431 54.7946 103.454 54.7906 103.477 54.7853L103.585 54.7626C103.609 54.7626 103.636 54.7533 103.66 54.7467C104.31 54.6046 104.909 54.2884 105.393 53.832C105.448 53.7733 105.504 53.7147 105.561 53.656L105.601 53.6133C105.655 53.5613 105.708 53.5107 105.761 53.4547C105.905 53.3027 106.052 53.152 106.197 53L106.256 52.9413C106.272 52.9213 106.292 52.904 106.309 52.884C106.738 52.4511 107.175 52.0262 107.621 51.6093C107.629 51.605 107.635 51.5991 107.64 51.592L107.649 51.584C108.094 51.1973 108.529 50.8004 108.956 50.3933C109.255 50.1267 109.556 49.8622 109.859 49.6C110.203 49.3026 110.535 48.9933 110.859 48.6746L110.933 48.612C111.012 48.5727 111.087 48.5281 111.16 48.4786C111.188 48.4386 111.212 48.4 111.235 48.3626C111.391 48.2285 111.541 48.0856 111.681 47.9347L111.973 47.6213L112.12 47.4653H112.127C112.233 47.3706 112.341 47.2747 112.452 47.18C112.768 46.9133 113.067 46.632 113.359 46.3426L113.376 46.3347C113.482 46.2384 113.582 46.1346 113.673 46.024C113.757 45.9413 113.836 45.856 113.917 45.772C113.96 45.724 113.995 45.6813 114.027 45.6387L114.061 45.656C114.242 45.4195 114.469 45.2222 114.728 45.076C114.928 45.0035 115.139 44.9665 115.352 44.9667C115.627 44.996 115.808 45.0813 116.139 45.2547C116.301 45.3426 116.46 45.42 116.62 45.4933L116.689 45.5267H116.703L116.812 45.5733C117.414 45.8482 118.051 46.0398 118.705 46.1427C118.874 46.1976 119.051 46.2238 119.228 46.22H119.361H119.377C119.525 46.2306 119.677 46.236 119.831 46.2387H120.231C121.214 46.2471 122.193 46.1087 123.136 45.828L123.159 45.8213H123.179H123.188C123.43 45.7542 123.669 45.6745 123.903 45.5826L123.933 45.572L124.007 45.5453C124.044 45.5293 124.08 45.516 124.117 45.4973C124.155 45.4787 124.208 45.46 124.251 45.4387L124.268 45.4307C124.903 45.1413 125.512 44.7964 126.087 44.4C126.553 44.0395 126.986 43.6379 127.38 43.2L127.431 43.16H127.42C127.717 42.8218 127.985 42.4587 128.22 42.0746L128.243 42.0413L128.267 42C128.506 41.6295 128.716 41.2408 128.895 40.8373C128.945 40.7133 128.992 40.5946 129.04 40.4746C129.273 39.9198 129.434 39.3373 129.519 38.7413C129.519 38.7333 129.519 38.7253 129.519 38.7187C129.565 38.4494 129.591 38.1771 129.597 37.904C129.598 37.8942 129.598 37.8844 129.597 37.8746C129.628 37.1396 129.618 36.4034 129.569 35.6693C129.471 35.0278 129.294 34.4009 129.043 33.8026C129.043 33.7987 129.043 33.7946 129.043 33.7906C128.679 32.684 127.884 31.684 127.103 30.8653C126.947 30.7173 126.793 30.5786 126.64 30.444L126.621 30.4253C126.313 30.1382 125.99 29.8672 125.653 29.6133C124.507 28.8829 123.216 28.4083 121.87 28.2219C120.523 28.0355 119.152 28.1417 117.851 28.5333C117.686 28.5757 117.526 28.6301 117.369 28.696L117.349 28.7026C117.118 28.7915 116.892 28.8875 116.669 28.9906L116.655 28.9973L116.544 29.0453L116.469 29.0906C115.613 29.5265 114.844 30.1168 114.203 30.832L113.893 31.2133C113.788 31.34 113.687 31.4666 113.589 31.596C113.316 31.9336 113.073 32.2935 112.86 32.672L112.832 32.7173C112.563 33.1744 112.326 33.6503 112.125 34.1413C111.643 35.5914 111.517 37.1363 111.759 38.6453V38.8733L111.792 38.84C111.817 38.9733 111.845 39.1066 111.876 39.2293C111.999 39.8175 112.199 40.3868 112.471 40.9227C112.525 41.0347 112.576 41.1426 112.627 41.2506C112.635 41.268 112.641 41.2853 112.649 41.3013C112.7 41.4093 112.747 41.5173 112.792 41.624C112.888 41.8526 112.971 42.0868 113.04 42.3253C113.069 42.5422 113.116 42.7563 113.181 42.9653C113.105 42.9653 113.048 42.9653 112.995 42.9653C112.953 42.9666 112.911 42.9729 112.871 42.984L112.824 42.96C112.785 43 112.755 43.0307 112.731 43.06C112.675 43.1027 112.607 43.1666 112.511 43.2573C112.232 43.548 111.947 43.8289 111.653 44.1L111.607 44.1427C111.533 44.2066 111.46 44.2693 111.384 44.332C111.094 44.5545 110.826 44.8046 110.584 45.0786V45.0853L110.573 45.096C110.44 45.2186 110.307 45.34 110.173 45.464V45.4533C110.159 45.4706 110.145 45.4893 110.132 45.508C109.999 45.632 109.853 45.76 109.715 45.888C108.444 47.0546 107.181 48.2267 105.879 49.364L105.869 49.372L105.417 49.7626L104.649 50.4426C104.343 50.7093 104.036 50.964 103.733 51.2293L103.415 51.5093C103.014 51.8208 102.651 52.1788 102.335 52.576C102.274 52.8019 102.229 53.0318 102.201 53.264C102.151 53.5751 102.169 53.8934 102.252 54.1973ZM123.576 31.616L123.509 31.7493C124.305 32.1732 124.996 32.7701 125.531 33.496L126.005 34.2453H126.208C126.273 34.36 126.341 34.48 126.389 34.6013H126.361C126.703 35.74 126.797 36.8413 126.869 38.0267C126.869 38.064 126.869 38.1013 126.869 38.136C126.837 38.332 126.797 38.5253 126.749 38.712C126.737 38.7072 126.725 38.7032 126.712 38.7C126.621 38.912 126.536 39.1146 126.461 39.3146C125.969 40.4573 125.383 41.3653 124.285 42.1307C124.014 42.3073 123.754 42.501 123.507 42.7106C123.383 42.781 123.276 42.878 123.195 42.9946L122.995 43.08L122.792 42.976L122.259 43.1546C122.247 43.216 122.233 43.276 122.223 43.336H121.572H121.145H120.724H120.133C120.06 43.336 119.985 43.336 119.911 43.336C119.689 43.3263 119.469 43.2969 119.253 43.248L119.165 43.2253L119.084 43.2026C117.961 42.8893 116.839 42.3 116.113 41.4106C115.937 41.1353 115.704 40.9004 115.431 40.7213C115.384 40.6493 115.34 40.576 115.297 40.504C115.297 40.4946 115.307 40.484 115.312 40.4746L114.599 38.3413H114.495C114.495 38.3226 114.488 38.3067 114.487 38.2893C114.487 38.2267 114.487 38.164 114.499 38.04C114.509 37.792 114.509 37.792 114.52 37.548C114.528 37.3853 114.535 37.2267 114.541 37.068C114.564 36.476 114.643 35.8876 114.777 35.3106C114.964 34.9 115.144 34.484 115.311 34.064C115.297 33.9733 115.289 33.9 115.281 33.8413C115.291 33.8573 115.297 33.8746 115.307 33.8906L115.84 33.3573L115.748 33.176C115.805 33.1013 115.868 33.028 115.932 32.9546C116.137 32.7893 116.344 32.6266 116.552 32.4666C117.689 31.788 118.952 31.1226 120.271 30.932C121.413 30.8754 122.55 31.1108 123.576 31.616Z" fill="#F7931B"/>
<path d="M30.7013 87.2213C30.7747 87.1867 30.8427 87.1533 30.904 87.1187C31.436 86.9364 31.952 86.7103 32.4467 86.4427L32.5027 86.4093C32.6344 86.351 32.7626 86.2851 32.8867 86.212C33.6144 85.7057 34.2803 85.1159 34.8707 84.4547L34.9573 84.3587C35.4875 83.7618 35.9232 83.0873 36.2493 82.3587V82.3493C36.2747 82.292 36.3013 82.2333 36.3253 82.1747C36.3493 82.116 36.368 82.0693 36.388 82.016C36.4879 81.7602 36.5716 81.4983 36.6387 81.232C36.6493 81.1827 36.6587 81.1347 36.6693 81.0853C36.6893 80.9907 36.7107 80.896 36.7307 80.8027C36.7547 80.6813 36.7813 80.5627 36.8067 80.444L36.8227 80.368C36.8467 80.256 36.8693 80.1467 36.892 80.0387C39.9142 80.0502 42.94 80.0591 45.9693 80.0653H46.7987C47.9933 80.0653 49.1871 80.0689 50.38 80.076C51.6556 80.0813 52.9307 80.0849 54.2053 80.0867H54.2667H56.3133C56.9667 80.0867 57.6196 80.0867 58.272 80.0867H58.9933H59.6773H60.3027H60.8467L60.98 80.0653H60.9907C61.0747 80.056 61.1747 80.0413 61.3173 80.0227C61.4107 79.9667 61.4933 79.9187 61.564 79.8707L61.604 79.848L61.6253 79.832C61.7704 79.7317 61.9045 79.6164 62.0253 79.488C62.0253 79.4467 62.0253 79.4107 62.0347 79.376C62.1052 79.2165 62.1653 79.0526 62.2147 78.8853C62.204 78.24 62.204 78.24 61.904 77.7613C61.3453 77.248 61.3453 77.248 59.652 77.2387C59.3067 77.2387 58.96 77.248 58.6147 77.248C57.9747 77.248 57.3373 77.248 56.6973 77.248C56.0191 77.2551 55.34 77.2587 54.66 77.2587C53.3782 77.2587 52.0964 77.264 50.8147 77.2747C49.3453 77.2853 47.8747 77.2924 46.4027 77.296C43.3618 77.3058 40.3204 77.3209 37.2787 77.3413H36.8987C36.8907 77.2827 36.8827 77.2253 36.8747 77.1707C36.8267 76.8107 36.7747 76.452 36.7213 76.0933C36.3245 74.8211 35.6402 73.6573 34.7213 72.692L34.6947 72.664C34.2289 72.1461 33.7055 71.6831 33.1347 71.284L33.0987 71.256C33.0916 71.2517 33.0849 71.2468 33.0787 71.2413C32.9453 71.144 32.812 71.0467 32.6787 70.9507C31.0333 69.9547 28.6467 69.2027 26.7267 69.5693C26.608 69.608 26.4933 69.6427 26.3787 69.6787C25.6483 69.8627 24.9282 70.0852 24.2213 70.3453C24.1707 70.3613 24.1213 70.376 24.064 70.396C24.036 70.4093 24.008 70.4267 23.98 70.4413C23.872 70.488 23.7627 70.536 23.6547 70.5853C22.5575 71.2515 21.5892 72.1096 20.796 73.1187C20.7533 73.172 20.7107 73.2253 20.6707 73.2787C20.6307 73.332 20.5787 73.4 20.5373 73.4627C20.1327 74.0049 19.7876 74.5892 19.508 75.2053C19.4787 75.2693 19.4507 75.3387 19.424 75.3987C19.408 75.4333 19.3947 75.4693 19.3813 75.5053C19.3147 75.668 19.248 75.8333 19.2 75.9987C19.0354 76.8914 18.9462 77.7963 18.9333 78.704C18.9267 80.0067 19.1253 81.308 19.7 82.4213L19.9773 82.8667C20.5027 83.7373 21.0587 84.5413 21.8147 85.228C22.1573 85.4947 22.5027 85.7413 22.8533 85.9653L22.872 85.98L22.888 85.9907L22.9827 86.0493L22.9987 86.06C23.726 86.5451 24.5101 86.9391 25.3333 87.2333C26.6394 87.6135 28.0125 87.7045 29.3573 87.5L29.5973 87.5213V87.4573C29.8507 87.4102 30.1022 87.3524 30.352 87.284H30.364C30.476 87.2653 30.5867 87.2467 30.7013 87.2213ZM31.024 73.2667C31.116 73.352 31.208 73.4347 31.2987 73.5173C31.9892 74.0348 32.5828 74.6704 33.052 75.3947C33.19 75.6409 33.3428 75.8787 33.5093 76.1067C33.8002 76.7752 33.9582 77.4938 33.9747 78.2227C33.9747 80.1213 33.764 81.524 32.416 82.9413C31.0973 84.1907 29.5213 84.7147 27.7267 84.7267C26.0027 84.6907 24.5813 84.024 23.3827 82.7787C22.0493 81.1787 21.7613 79.5787 21.936 77.544C22.1948 76.0823 22.9693 74.762 24.1187 73.8227C25.1448 73.0667 26.3667 72.6219 27.6387 72.5413C28.3486 72.5208 29.059 72.5538 29.764 72.64C30.1999 72.7776 30.6217 72.9562 31.024 73.1733V73.2667Z" fill="#F7931B"/>
<path d="M129.569 113.719H129.488C129.453 113.521 129.412 113.328 129.364 113.135C129.361 113.125 129.359 113.115 129.357 113.105V113.089C129.355 113.077 129.352 113.064 129.348 113.052L129.328 112.976C129.261 112.709 129.183 112.457 129.092 112.205L129.073 112.153C129.063 112.121 129.051 112.089 129.039 112.057C129.027 112.025 129.024 112.023 129.019 112.007L128.995 111.945C128.963 111.863 128.932 111.779 128.897 111.696C128.831 111.548 128.764 111.405 128.684 111.264L128.667 111.228C128.659 111.212 128.651 111.197 128.644 111.181C128.616 111.128 128.587 111.077 128.556 111.023C128.556 111.013 128.544 111.004 128.539 110.993C128.172 110.345 127.729 109.743 127.219 109.2C126.526 108.513 125.735 107.933 124.871 107.48H124.863C124.482 107.278 124.09 107.1 123.688 106.947C122.9 106.709 122.093 106.542 121.276 106.445H121.256C119.864 106.229 118.44 106.43 117.161 107.021L117.105 107.045L117.021 107.085L116.949 107.12C116.855 107.165 116.763 107.212 116.671 107.261C116.423 107.443 116.144 107.579 115.848 107.661C115.512 107.561 115.206 107.381 114.955 107.136C114.895 107.084 114.833 107.028 114.769 106.968L114.779 106.949L114.556 106.72L114.244 106.4C114.044 106.195 113.844 106 113.632 105.803C113.613 105.785 113.593 105.769 113.576 105.752C113.532 105.711 113.489 105.668 113.443 105.628L113.428 105.615C113.363 105.553 113.295 105.493 113.227 105.435L113.148 105.365C112.997 105.232 112.849 105.099 112.703 104.965L112.388 104.679C111.787 104.124 111.207 103.552 110.632 102.963L110.257 102.576L109.895 102.207C109.781 102.091 109.672 101.985 109.561 101.888C109.424 101.747 109.286 101.608 109.148 101.471L109.119 101.44C108.985 101.307 108.844 101.167 108.704 101.031L108.632 100.961L108.388 100.728L108.297 100.641C108.281 100.623 108.263 100.607 108.244 100.591C108.143 100.496 108.04 100.403 107.936 100.309C107.897 100.275 107.861 100.237 107.823 100.204C106.833 99.36 105.919 98.4507 105.004 97.528L104.905 97.428L104.772 97.2947C103.787 96.2934 102.816 95.2734 101.747 94.3614C101.715 94.3347 101.685 94.3067 101.655 94.28C101.407 94.0654 101.167 93.844 100.932 93.6134C100.832 93.5174 100.731 93.424 100.632 93.324L100.18 92.8547L99.9067 92.5707C99.692 92.348 99.476 92.124 99.2627 91.904C98.616 91.216 97.976 90.332 97.0533 90.0374C96.9658 90.0096 96.8768 89.9869 96.7867 89.9694C96.6373 89.9814 96.5307 89.9894 96.4413 90.0027C96.2027 90.0387 96.0987 90.1107 95.7173 90.3774C95.3507 90.9014 95.3507 90.9014 95.2827 91.4707C95.2827 91.504 95.292 91.536 95.2973 91.5667C95.2966 91.5707 95.2966 91.5747 95.2973 91.5787C95.2973 91.6147 95.308 91.648 95.3133 91.68C95.3187 91.712 95.324 91.7427 95.3307 91.772C95.3312 91.7756 95.3312 91.7792 95.3307 91.7827C95.3427 91.8347 95.3547 91.884 95.368 91.9294C95.368 91.9294 95.368 91.9294 95.368 91.9374C95.368 91.9614 95.3827 91.9854 95.3907 92.008C95.3936 92.018 95.3972 92.0278 95.4013 92.0374C95.4008 92.0427 95.4008 92.048 95.4013 92.0534C95.4886 92.2621 95.6164 92.4515 95.7773 92.6107L96.112 92.9467L96.2827 93.1174L96.4827 93.3187L96.8733 93.7067L97.204 94.0387L97.6627 94.496C97.8373 94.6734 98.0133 94.848 98.188 95.0294L98.4453 95.284C98.8453 95.684 99.2453 96.076 99.6613 96.448C99.7389 96.5784 99.8311 96.6997 99.936 96.8094C100.173 97.0134 100.267 97.092 100.425 97.1227C100.58 97.264 100.732 97.4027 100.884 97.5454C100.985 97.6454 101.083 97.744 101.18 97.8414L101.513 98.176L101.88 98.5414L102.643 99.3054C103.045 99.7062 103.445 100.106 103.843 100.505L104.625 101.289L105.004 101.667C105.247 101.911 105.492 102.149 105.739 102.387C105.748 102.397 105.758 102.407 105.768 102.416C105.844 102.491 105.919 102.567 105.993 102.643L106.468 103.117C106.891 103.545 107.312 103.972 107.744 104.387C107.795 104.451 107.864 104.528 107.965 104.639C108.119 104.788 108.267 104.933 108.416 105.077C108.683 105.339 108.949 105.599 109.216 105.857L109.251 105.757C109.345 105.841 109.44 105.925 109.532 106.012C109.573 106.064 109.624 106.124 109.693 106.203L110.109 106.62L110.563 107.075L111.041 107.551L111.513 108.025L111.969 108.48C112.204 108.724 112.455 108.952 112.72 109.163C112.791 109.217 112.864 109.268 112.94 109.319L112.967 109.339L112.987 109.349L113.092 109.413L113.18 109.465L113.485 109.599C113.453 109.645 113.425 109.689 113.399 109.732L113.364 109.785C113.333 109.832 113.305 109.876 113.281 109.919L113.253 109.964L113.233 109.995C113.227 110.008 113.219 110.02 113.211 110.032C113.069 110.253 112.944 110.473 112.819 110.699L112.773 110.677C112.59 111.035 112.429 111.403 112.291 111.78L112.283 111.8C112.278 111.808 112.275 111.816 112.273 111.824C111.87 112.798 111.649 113.837 111.621 114.891C111.621 115.068 111.621 115.245 111.621 115.424C111.621 115.572 111.621 115.723 111.621 115.876C111.629 116.127 111.647 116.367 111.668 116.601V116.611C111.676 116.704 111.684 116.799 111.693 116.891C111.693 117.015 111.701 117.137 111.707 117.264H111.74C111.916 118.573 112.343 119.815 113.309 120.828C113.417 120.937 113.527 121.045 113.635 121.149L113.736 121.273C113.807 121.345 113.885 121.41 113.968 121.467C114.055 121.555 114.143 121.643 114.235 121.733C114.567 122.028 114.915 122.305 115.276 122.564L115.331 122.604C115.353 122.623 115.379 122.639 115.401 122.655L115.489 122.715H115.499C116.856 123.703 118.487 124.244 120.165 124.264H120.645C121.446 124.291 122.246 124.215 123.027 124.036H123.101C124.949 123.513 126.499 122.421 127.732 120.961C128.107 120.468 128.434 119.938 128.707 119.381V119.371C128.821 119.157 128.928 118.933 129.031 118.704C129.548 117.265 129.712 115.723 129.509 114.207L129.569 113.719ZM118.047 109.985C118.72 109.682 119.433 109.476 120.164 109.375C121.595 109.331 122.852 109.557 124.005 110.287C124.099 110.367 124.187 110.447 124.279 110.525C124.533 110.752 124.679 110.889 124.861 110.965C126.021 112.159 126.747 113.624 126.807 115.315C126.763 116.984 126.097 118.577 124.94 119.781C123.74 120.917 122.247 121.597 120.584 121.619C118.908 121.567 117.273 120.779 116.119 119.569C114.847 117.977 114.576 116.257 114.785 114.257C114.963 113.724 115.113 113.457 115.052 113.035C115.052 113.024 115.063 113.013 115.068 113C115.244 112.69 115.446 112.395 115.672 112.119L115.931 111.823L116.217 111.495C116.479 111.208 116.708 110.891 116.897 110.552C117.043 110.437 117.192 110.329 117.345 110.229C117.584 110.16 117.818 110.077 118.047 109.981V109.985Z" fill="#F7931B"/>
</svg>
