<svg width="160" height="160" viewBox="0 0 160 160" fill="none" xmlns="http://www.w3.org/2000/svg">
<path d="M133.309 100.851C133.067 98.5986 132.267 96.5333 130.744 94.8C128.845 92.6413 126.407 91.484 123.587 90.9986C123.576 90.792 123.561 90.6186 123.561 90.448C123.575 83.688 123.586 76.9284 123.596 70.1693C123.596 69.5026 123.559 68.7906 123.312 68.192C123.149 67.8 122.589 67.3466 122.189 67.328C121.557 67.2986 121.188 67.8613 121.137 68.516C121.079 69.276 121.017 70.036 121.013 70.7973C121.003 73.444 121.013 76.088 121.023 78.732C121.023 82.8413 121.023 86.9493 121.023 90.9733C114.795 92.656 110.976 96.1493 110.64 102.707H81.796C81.8126 102.587 81.8407 102.47 81.88 102.356C83.1707 99.9466 85.2747 99.0013 87.9107 99.0226C89.7267 99.0386 91.5453 99.0693 93.3627 99.072C97.7129 99.0809 102.062 99.0809 106.409 99.072C107.025 99.072 107.647 99.104 108.259 99.0426C109.436 98.9226 109.907 98.3586 109.891 97.1866C109.883 96.688 109.859 96.188 109.861 95.688C109.891 84.9324 109.922 74.1795 109.955 63.4293C109.955 61.9426 109.356 61.32 107.884 61.3186C101.243 61.3106 94.6 61.2733 87.9587 61.3386C85.692 61.36 83.5587 62.0186 81.78 63.5213C81.1413 64.0613 80.5173 64.6213 79.8733 65.184C77.6933 62.5573 74.8573 61.3706 71.5747 61.3373C65.1387 61.272 58.7027 61.3133 52.2667 61.3213C51.4667 61.3213 50.876 61.74 50.8 62.548C50.716 63.4693 50.808 64.4053 50.8 65.3333C50.7573 68.7426 50.6787 72.1493 50.6667 75.556C50.6347 82.696 50.6333 89.8386 50.624 96.9813C50.624 98.448 51.3587 99.1693 52.848 99.152C53.288 99.152 53.7267 99.088 54.1667 99.0906C60.4547 99.116 66.7427 99.1186 73.028 99.216C74.1067 99.2333 75.208 99.5866 76.2453 99.936C77.524 100.364 77.9787 101.536 78.512 102.803H48.4893C48.4893 102.456 48.4893 102.136 48.4893 101.827C48.448 98.9773 48.3907 96.128 48.3667 93.2786C48.3 86.0262 48.2427 78.772 48.1947 71.516C48.1947 70.9306 48.2253 70.3293 48.112 69.7613C47.9853 69.116 47.5947 68.616 46.8333 68.6813C46.0973 68.7453 45.8107 69.276 45.6973 69.924C45.6729 70.1579 45.6698 70.3935 45.688 70.628C45.7236 76.86 45.7596 83.0902 45.796 89.3186C45.8209 94.0511 45.8445 98.7822 45.8667 103.512C45.8667 104.687 46.3347 105.167 47.5 105.239C47.704 105.251 47.9107 105.249 48.116 105.249C62.1027 105.289 76.0907 105.328 90.08 105.365C96.8387 105.381 103.597 105.365 110.359 105.385C110.665 105.385 111.128 105.469 111.253 105.675C111.653 106.341 111.933 107.084 112.283 107.844C112.032 108.028 111.812 108.215 111.568 108.368C107.268 111.112 102.968 113.851 98.6667 116.585C95.8213 118.392 92.9627 120.176 90.1253 121.992C89.5453 122.367 89.2107 122.289 88.7587 121.745C85.5587 117.892 77.912 115.449 72.648 120.727C72.0987 121.276 71.5267 122.12 70.9 122.185C70.2493 122.252 69.4987 121.569 68.8227 121.163C65.356 119.081 61.8787 117.029 58.4533 114.88C55.4 112.965 52.4133 110.94 49.3947 108.968C48.88 108.633 48.3587 108.301 47.8173 108.012C46.996 107.577 46.06 107.809 45.7373 108.487C45.372 109.255 45.672 109.908 46.5053 110.416C47.8307 111.227 49.1053 112.12 50.4333 112.927C56.6422 116.7 62.8596 120.46 69.0853 124.208C69.564 124.496 69.7307 124.7 69.5213 125.288C68.5333 128.073 68.6667 130.807 69.7333 133.6C71.1907 137.421 74.2307 139.2 77.8813 140.081C79.2147 140.403 80.7307 140.096 82.148 139.916C87.088 139.288 91.2147 134.609 91.168 129.633C91.1533 128.015 90.8373 126.4 90.6627 124.816L113.863 110.024C117.671 113.692 122.529 114.615 127.011 112.361C131.183 110.251 133.947 106.563 133.309 100.851ZM78.8907 98.28C77.1853 97.7173 75.544 97.1573 73.8893 96.6373C73.564 96.5346 73.192 96.556 72.8427 96.556C66.6142 96.58 60.3858 96.6075 54.1573 96.6386H53.1587V63.9626C53.496 63.9466 53.7813 63.9226 54.0667 63.9226C59.5013 63.9226 64.9373 63.8973 70.3733 63.9386C71.6324 63.9646 72.8873 64.0935 74.1253 64.324C76.5773 64.748 78.8653 67.02 78.8467 70.0493C78.7973 77.364 78.8693 84.6786 78.888 91.9946C78.896 94.1546 78.8907 96.316 78.8907 98.28ZM81.308 81.2613C81.308 77.6471 81.308 74.0329 81.308 70.4186C81.308 66.6853 83.4493 64.2306 87.1747 64.1373C93.7787 63.9693 100.385 63.9893 106.993 63.9346C107.087 63.9551 107.179 63.9846 107.267 64.0226V96.64C106.744 96.64 106.163 96.64 105.583 96.64C99.8813 96.612 94.1813 96.596 88.48 96.548C86.7867 96.5346 85.136 96.7186 83.5933 97.428C82.864 97.7626 82.2027 98.2453 81.316 98.776V92.012C81.3133 88.428 81.3107 84.8444 81.308 81.2613ZM79.8413 137.56C75.5213 137.812 71.3187 133.572 71.5173 129.195C71.7467 124.136 74.8333 120.444 80.0187 120.492C84.6733 120.515 88.4654 123.551 88.4693 128.777C88.472 134.333 84.5827 137.283 79.8387 137.56H79.8413ZM122 111.008C117.052 110.893 113.493 107.141 113.592 101.987C113.704 96.0986 118.328 93.7386 122.404 93.684C126.733 93.5666 130.723 96.8506 130.731 102.496C130.744 106.912 126.747 111.117 122 111.008Z" fill="#3A3A3A"/>
<path d="M48.4947 55.2693C48.308 54.616 48.4267 54.2987 48.9933 53.936C53.312 51.1227 57.6067 48.272 61.9093 45.4333C64.9187 43.44 67.9333 41.4667 70.9333 39.4667C71.3333 39.2 71.5827 39.228 72 39.496C73.4053 40.3893 74.82 41.288 76.3213 42.0027C78.672 43.1227 81.112 43.0627 83.4626 41.9693C85.2266 41.1493 86.9213 40.1853 88.808 39.2C90.3946 40.2787 92.1707 41.5253 93.9853 42.7107C99.3542 46.2244 104.732 49.7249 110.119 53.212C111.199 53.9147 112.239 54.6987 113.379 55.2827C113.791 55.4947 114.607 55.416 114.952 55.1347C115.459 54.7147 115.473 53.984 114.968 53.4013C114.787 53.1726 114.58 52.9655 114.352 52.784C113.732 52.3387 113.099 51.9147 112.457 51.5027C105.241 46.8565 98.0222 42.2116 90.8 37.568C90.516 37.3853 90.256 37.168 90 36.9773C92.2827 32.3013 91.2586 26.3 87.6626 22.9093C84.12 19.576 78.7213 18.8 74.6267 21.1213C72.5293 22.3093 70.6267 23.8147 69.6667 26.0813C68.1467 29.6933 68.1853 33.368 69.9413 36.9987L47.0667 52.2067C43.532 47.7787 38.4 46.3773 33.552 48.4347C29.052 50.344 26.1733 55.264 26.652 59.8573C27.176 64.904 31.656 69.5373 36.7187 70.0053C36.76 70.6267 36.836 71.2053 36.832 71.792C36.776 79.7236 36.7142 87.6556 36.6467 95.588C36.6467 96.3213 36.6267 97.0547 36.6867 97.7893C36.7467 98.5467 37.412 99.2147 38.0107 99.212C38.64 99.212 39.1827 98.556 39.188 97.708C39.2324 91.3631 39.2684 85.0173 39.296 78.6707C39.3067 76.116 39.3347 73.56 39.268 71.008C39.2427 70.0813 39.612 69.7427 40.4493 69.552C42.42 69.1053 44.2933 68.3347 45.6627 66.816C48.652 63.4987 49.752 59.6453 48.4947 55.2693ZM79.8733 22.432C83.7547 22.4507 88.9293 25.928 88.7386 31.0667C88.556 35.9307 84.6266 40.0173 79.9813 39.9347C75.0973 39.8467 71.3333 35.8853 71.3987 30.9027C71.4667 26.116 75.208 22.412 79.8733 22.432ZM38.1053 67.2427C33.104 67.376 29.4613 63.7587 29.432 58.892C29.2987 54.8173 32.6147 50.0827 38.0067 49.996C42.1973 49.9293 46.8573 54.3853 46.6733 58.4973C46.4773 63.0667 43.3427 67.108 38.1053 67.2427Z" fill="#F7931B"/>
<path d="M114.439 69.4147C114.316 68.748 113.86 68.3747 113.216 68.3587C112.572 68.3427 112.196 68.74 112.12 69.3893C112.07 69.7377 112.039 70.0884 112.027 70.44C112.012 72.6107 112.027 74.7827 112 76.9534C111.96 79.764 111.853 82.5747 111.836 85.3854C111.825 87.1094 111.935 88.8333 111.976 90.5587C111.992 91.2253 112.309 91.648 112.955 91.6827C113.6 91.7173 114.084 91.3134 114.248 90.6933C114.384 90.1546 114.453 89.601 114.452 89.0454C114.471 85.9347 114.46 82.824 114.46 79.712C114.46 76.5431 114.46 73.3738 114.46 70.204C114.477 69.9408 114.47 69.6766 114.439 69.4147Z" fill="#F7931B"/>
<path d="M86.9853 73.1813C87.1866 73.348 87.6066 73.276 87.9266 73.276C90.0689 73.2822 92.2111 73.2822 94.3533 73.276C96.5853 73.276 98.8146 73.2866 101.044 73.2653C101.475 73.2653 101.959 73.2293 102.315 73.028C102.619 72.8547 102.943 72.4253 102.952 72.1027C102.961 71.78 102.657 71.3293 102.36 71.1586C101.981 70.9413 101.472 70.872 101.019 70.8693C96.5306 70.832 92.0426 70.8213 87.552 70.804C87.4057 70.7926 87.2587 70.7966 87.1133 70.816C86.4973 70.9413 85.8613 71.24 85.98 71.908C86.064 72.384 86.572 72.8346 86.9853 73.1813Z" fill="#F7931B"/>
<path d="M101.508 85.592C99.1906 85.5826 96.8746 85.592 94.5586 85.592V85.7933C92.1586 85.7933 89.752 85.7933 87.348 85.8026C87.0946 85.8026 86.7626 85.84 86.608 85.9986C86.3413 86.2653 86.0293 86.6533 86.0426 86.9786C86.056 87.304 86.396 87.7106 86.7027 87.8693C87.0667 88.06 87.548 88.0746 87.9813 88.076C92.2613 88.0875 96.5426 88.0875 100.825 88.076C101.089 88.0829 101.353 88.0731 101.616 88.0466C102.505 87.9306 103.012 87.4373 102.987 86.7293C102.961 86.0213 102.445 85.6 101.508 85.592Z" fill="#F7931B"/>
<path d="M86.9333 80.392C87.08 80.5387 87.4333 80.512 87.6907 80.512C89.8933 80.52 92.0987 80.512 94.3013 80.512V80.556C96.416 80.556 98.532 80.5733 100.648 80.544C101.203 80.5485 101.755 80.4583 102.28 80.2773C103.18 79.9347 103.292 79.0507 102.481 78.5213C102.016 78.232 101.481 78.0744 100.933 78.0653C97.264 78.0347 93.592 78.0653 89.9227 78.0653C89.012 78.0653 88.1013 78.0373 87.192 78.08C86.5653 78.1107 85.8973 78.396 85.9787 79.0733C86.0293 79.552 86.5493 80 86.9333 80.392Z" fill="#F7931B"/>
<path d="M59.2 73.2694C61.4013 73.2814 63.6 73.2694 65.804 73.2694V73.2787C67.9173 73.2787 70.032 73.288 72.144 73.272C72.544 73.272 73.032 73.2893 73.332 73.084C73.716 72.8173 74.2293 72.2987 74.176 71.9667C74.1107 71.5387 73.58 71.136 73.1707 70.8267C72.9773 70.6827 72.6013 70.7734 72.308 70.7707C68.1693 70.7351 64.0311 70.7027 59.8933 70.6733C59.6009 70.6729 59.309 70.6952 59.02 70.74C58.076 70.8907 57.4867 71.4187 57.5227 72.0627C57.5667 72.7747 58.2173 73.264 59.2 73.2694Z" fill="#F7931B"/>
<path d="M71.704 80.5333C72.3093 80.524 72.9786 80.5333 73.4973 80.2773C73.884 80.088 74.244 79.5107 74.2853 79.0773C74.3093 78.8107 73.752 78.396 73.372 78.2133C73.0266 78.0467 72.572 78.0667 72.172 78.0667C68.7053 78.0667 65.2506 78.0933 61.7906 78.1067C60.94 78.1067 60.0867 78.0813 59.2387 78.1067C58.2813 78.1347 57.6933 78.6067 57.6706 79.3067C57.648 79.9867 58.264 80.476 59.2093 80.5253C59.4147 80.536 59.6213 80.5333 59.8253 80.5333H65.988V80.5427C67.8893 80.5453 69.7973 80.5627 71.704 80.5333Z" fill="#F7931B"/>
<path d="M73.6213 85.952C73.0493 85.7394 72.446 85.6231 71.836 85.608C68.4027 85.528 64.9693 85.484 61.5347 85.4506C60.6271 85.431 59.7191 85.4675 58.816 85.56C57.8573 85.672 57.436 86.1533 57.5333 86.8933C57.644 87.7386 58.184 87.936 58.9747 87.9226C61.1187 87.8813 63.2613 87.908 65.404 87.908V88C67.5173 88 69.632 88.036 71.7427 87.9813C72.4382 87.9782 73.1247 87.824 73.7547 87.5293C74.5413 87.1253 74.4467 86.2586 73.6213 85.952Z" fill="#F7931B"/>
</svg>
