<svg width="160" height="160" viewBox="0 0 160 160" fill="none" xmlns="http://www.w3.org/2000/svg">
<path d="M139.621 80.5227C130.568 80.5227 121.514 80.52 112.46 80.5147C111.66 80.5147 111.048 80.7733 110.671 81.4653C110.521 81.732 110.347 82.1787 110.467 82.3733C110.644 82.664 111.048 82.8587 111.4 82.9853C111.667 83.08 111.988 83.008 112.287 83.008H137.811H138.611C138.619 83.1096 138.619 83.2117 138.611 83.3133C137.501 87.98 136.372 92.6467 135.299 97.332C135.152 97.968 134.884 98.072 134.307 98.0707C126.592 98.052 118.877 98.048 111.163 98.0587H110.429C109.163 92.7427 107.919 87.4667 106.667 82.2053C106.569 81.796 106.673 81.568 107.049 81.3013C108.339 80.3893 109.701 79.528 110.811 78.4213C115.947 73.304 118.011 67.108 117.061 59.9067C116.445 55.2 114.4 51.2 111.099 47.844C107.663 44.3427 103.473 42.3173 98.612 41.6267C94.6286 41.0377 90.5599 41.6311 86.9107 43.3333C84.432 44.4653 82.2027 45.952 80.408 48.032C70.9694 38.4547 56.892 39.9253 49.2587 48.0893C41.648 56.2307 41.0254 69.4133 49.5467 78.108C57.1654 85.8787 71.1894 87.388 80.3134 77.708C87.2 84.6027 95.24 86.024 104.339 82.848C104.412 83.1373 104.48 83.396 104.541 83.6587C105.732 88.6622 106.918 93.6671 108.099 98.6733C108.165 99.0024 108.144 99.3431 108.037 99.6613C107.388 101.624 106.661 103.56 106.052 105.528C105.64 106.861 106.248 107.579 107.628 107.579C111.224 107.579 114.82 107.579 118.417 107.579H135.013C135.881 107.579 136.319 107.259 136.405 106.572C136.528 105.573 136.059 105.083 134.984 105.083H108.637C109.072 103.835 109.557 102.699 109.851 101.516C110.072 100.629 110.517 100.416 111.357 100.419C119.32 100.445 127.283 100.436 135.245 100.436C136.627 100.436 137.112 100.056 137.423 98.7267C138.695 93.3347 139.968 87.9422 141.243 82.5493C141.564 81.2 141.032 80.5227 139.621 80.5227ZM82.6667 56.0533C81.8774 56.9867 81.1134 57.8747 80.32 58.8013C79.584 57.932 78.8774 57.112 78.1947 56.268C78.084 56.1347 77.992 55.8373 78.0614 55.712C78.764 54.4733 79.5014 53.2547 80.328 51.8547C81.1854 53.3813 81.924 54.7093 82.6667 56.0533ZM53.0147 77.8187C43.8427 70.4373 43.6347 57.724 51.0867 49.8387C58.896 41.572 71.4267 42.208 78.5867 49.868L76.0667 53.7053C75.4494 52.9947 74.8547 52.2773 74.2267 51.5893C73.5987 50.9013 73.0747 50.8573 72.4934 51.3373C72.2201 51.5569 72.0435 51.8746 72.0012 52.2226C71.9588 52.5705 72.0541 52.9213 72.2667 53.2C73.0667 54.208 73.9254 55.1693 74.7574 56.152C76.0534 57.6813 77.3507 59.2107 78.676 60.7773C77.3814 62.3093 76.1133 63.8253 74.8293 65.328C73.5093 66.872 72.1627 68.3947 70.8467 69.94C70.2654 70.6187 70.272 71.396 70.82 71.856C71.4334 72.368 72.2867 72.2653 72.848 71.608C73.6294 70.6907 74.4107 69.7707 75.2174 68.8253C75.792 70.056 76.284 71.2107 76.864 72.3227C77.444 73.4347 78.1014 74.508 78.7307 75.6053C73.0747 82.3053 61.7334 84.836 53.0147 77.8187ZM77.3854 66.7827C77.3347 66.5947 77.3373 66.308 77.4467 66.176C78.3907 65.0347 79.364 63.9213 80.3374 62.7867C81.2507 63.8533 82.1467 64.876 83.004 65.9293C83.1557 66.1356 83.2199 66.3934 83.1827 66.6467C82.6775 69.0468 81.7357 71.3336 80.404 73.3933C79.0427 71.292 78.0174 69.1267 77.3854 66.7827ZM98.0174 81.8493C92.8414 82.4267 88.2494 81.008 84.164 77.8347C84.1454 77.82 84.1227 77.808 84.104 77.792C83.468 77.1667 82.6014 76.648 82.256 75.8907C81.856 75.0267 82.9147 74.3893 83.2334 73.6027C83.9 71.9653 84.636 70.3573 85.3667 68.68C85.9947 69.428 86.6574 70.224 87.3267 71.0147C87.5595 71.3034 87.8098 71.5777 88.076 71.836C88.5374 72.2667 89.056 72.2827 89.5587 71.9187C90.0614 71.5547 90.3387 71.0453 89.9987 70.5067C89.4639 69.6792 88.8737 68.889 88.232 68.1413C86.1854 65.6933 84.112 63.2653 82.0094 60.7827C82.9027 59.716 83.7694 58.6733 84.6454 57.64C85.8614 56.2053 87.0867 54.776 88.3067 53.3427C88.8214 52.7373 88.82 51.876 88.3067 51.3907C87.724 50.848 87.0494 50.904 86.4307 51.5907C85.764 52.3253 85.136 53.0853 84.46 53.8707L82.0814 49.9307C83.5027 48.232 85.3187 46.9787 87.308 45.9547C98.264 40.3133 111.929 46.908 114.375 59.012C115.62 65.172 114.249 70.7093 110.175 75.4693C107.007 79.1787 102.905 81.308 98.0174 81.8507V81.8493Z" fill="#3A3A3A"/>
<path d="M27.928 83.0093L31.3334 98.036H52.1334C52.5333 96.436 52.9334 94.8146 53.3334 93.1946C53.896 90.8746 54.4427 88.5506 55.004 86.2293C55.2027 85.408 55.7014 85.1066 56.5534 85.2626C57.1973 85.3813 57.5187 85.7813 57.3534 86.596C57.0134 88.284 56.5787 89.9533 56.1747 91.6293C55.5854 94.0693 54.9911 96.508 54.392 98.9453C54.116 100.064 53.6013 100.444 52.4413 100.445C45.472 100.445 38.5027 100.456 31.5334 100.427C30.924 100.427 30.656 100.637 30.4494 101.152C29.9267 102.449 29.3694 103.732 28.796 105.093H33.7547C40.0036 105.093 46.2538 105.093 52.5054 105.093C53.768 105.093 54.332 105.796 53.9467 106.849C53.7174 107.477 53.228 107.591 52.644 107.589C47.7827 107.584 42.9214 107.584 38.06 107.589C34.5391 107.589 31.0174 107.589 27.4947 107.589C26.0467 107.589 25.4187 106.707 25.9854 105.323C26.8294 103.272 27.7774 101.264 28.6347 99.2186C28.8052 98.8016 28.8515 98.3441 28.768 97.9013C27.092 90.3093 25.384 82.724 23.6707 75.0773C22.4707 75.0773 21.312 75.0866 20.1507 75.0773C19.152 75.068 18.6507 74.6373 18.6627 73.8306C18.6747 73.024 19.1614 72.6186 20.1827 72.6173C21.4227 72.6173 22.6627 72.6173 23.9027 72.6173C25.2294 72.6173 25.656 72.9666 25.944 74.26C26.4089 76.3498 26.8756 78.4386 27.344 80.5266C34.2569 80.5266 41.1525 80.5289 48.0307 80.5333C48.3947 80.5333 48.812 80.5413 49.1094 80.712C49.6227 81.0053 49.956 81.4813 49.7854 82.1386C49.6147 82.796 49.1507 83.0186 48.5067 83.0173C45.232 83.0075 41.9578 83.0053 38.684 83.0106H28.64L27.928 83.0093Z" fill="#3A3A3A"/>
<path d="M66.884 105.504H67.78C76.8093 105.504 85.8382 105.506 94.8667 105.511C95.2053 105.511 95.6347 105.493 95.86 105.68C96.16 105.928 96.456 106.365 96.4627 106.728C96.4627 107.053 96.1533 107.505 95.8507 107.685C95.5213 107.881 95.0427 107.877 94.6293 107.879C85.7493 107.888 76.8693 107.89 67.9893 107.887H67.056C67.2187 108.089 67.3227 108.236 67.44 108.361C68.5227 109.487 69.6293 110.591 70.688 111.737C71.2213 112.316 71.1893 112.905 70.704 113.38C70.2187 113.855 69.504 113.851 68.9787 113.327C67.0587 111.423 65.1475 109.512 63.2453 107.593C62.612 106.955 62.6867 106.233 63.4613 105.451C65.2755 103.618 67.0978 101.796 68.928 99.984C69.1132 99.7922 69.3468 99.654 69.604 99.584C70.1213 99.4747 70.592 99.6053 70.8893 100.099C71.1867 100.592 71.0907 101.065 70.7267 101.461C69.7933 102.484 68.828 103.487 67.8733 104.495C67.5813 104.8 67.2747 105.103 66.884 105.504Z" fill="#F7931B"/>
<path d="M92.2306 96.7254H91.372C82.8146 96.7254 74.2573 96.7254 65.7 96.7254C64.7666 96.7254 64.3346 96.34 64.348 95.5414C64.36 94.7694 64.8306 94.36 65.7226 94.3414C65.8213 94.3414 65.92 94.3414 66.02 94.3414H92.4L92.4826 94.176C91.3564 93.0809 90.2293 91.9805 89.1013 90.8747C88.919 90.7084 88.748 90.5303 88.5893 90.3414C88.18 89.8174 88.2053 89.052 88.628 88.644C88.8528 88.4441 89.1438 88.3346 89.4447 88.3366C89.7456 88.3385 90.035 88.4519 90.2573 88.6547C90.8893 89.2094 91.468 89.8267 92.064 90.4214C93.4173 91.7707 94.772 93.116 96.116 94.472C96.84 95.2014 96.8933 95.7107 96.1786 96.452C94.3022 98.3987 92.4004 100.32 90.4733 102.215C89.836 102.844 89.14 102.833 88.6293 102.316C88.156 101.833 88.1773 101.164 88.7626 100.533C89.752 99.4574 90.772 98.4094 91.7853 97.356C91.9583 97.1923 92.1399 97.0378 92.3293 96.8934L92.2306 96.7254Z" fill="#F7931B"/>
<path d="M30.8653 108.483C28.164 108.483 25.8506 110.777 25.824 113.493C25.796 116.239 28.156 118.595 30.94 118.6C33.6626 118.608 35.9306 116.325 35.9306 113.581C35.937 112.913 35.8106 112.25 35.5587 111.63C35.3068 111.011 34.9344 110.448 34.4633 109.974C33.9921 109.499 33.4314 109.123 32.8138 108.867C32.1962 108.611 31.5339 108.481 30.8653 108.483ZM30.9013 116.216C29.4573 116.205 28.1746 114.919 28.2013 113.505C28.2167 112.794 28.5123 112.117 29.0239 111.622C29.5355 111.127 30.2216 110.854 30.9333 110.863C32.412 110.876 33.5533 112.063 33.5466 113.597C33.5465 113.944 33.4778 114.287 33.3445 114.606C33.2113 114.926 33.0161 115.216 32.7702 115.46C32.5243 115.704 32.2326 115.897 31.9118 116.027C31.5911 116.158 31.2476 116.224 30.9013 116.221V116.216Z" fill="#3A3A3A"/>
<path d="M48.8453 108.485C47.5182 108.504 46.2514 109.043 45.3183 109.986C44.3851 110.93 43.8603 112.203 43.8572 113.53C43.854 114.857 44.3728 116.133 45.3014 117.081C46.2301 118.029 47.4943 118.574 48.8213 118.599C51.6626 118.599 53.8799 116.36 53.8693 113.492C53.8666 110.781 51.5586 108.489 48.8453 108.485ZM48.8866 116.219C48.5339 116.224 48.1836 116.159 47.8564 116.027C47.5292 115.895 47.2316 115.699 46.9811 115.451C46.7305 115.202 46.532 114.906 46.3972 114.58C46.2624 114.254 46.194 113.905 46.1959 113.552C46.1893 112.025 47.3399 110.851 48.8413 110.853C50.2759 110.853 51.5346 112.123 51.5373 113.564C51.5386 114.979 50.3119 116.208 48.8866 116.22V116.219Z" fill="#3A3A3A"/>
<path d="M130.608 108.497C127.903 108.497 125.569 110.808 125.56 113.491C125.551 116.291 127.864 118.611 130.64 118.599C131.979 118.594 133.262 118.058 134.207 117.108C135.151 116.158 135.679 114.872 135.675 113.532C135.67 112.192 135.134 110.91 134.184 109.965C133.234 109.021 131.947 108.493 130.608 108.497ZM130.597 116.22C129.159 116.22 127.94 115.031 127.916 113.613C127.913 112.891 128.196 112.197 128.702 111.682C129.209 111.168 129.898 110.873 130.62 110.864C131.32 110.882 131.985 111.174 132.473 111.677C132.96 112.179 133.232 112.853 133.229 113.553C133.226 114.253 132.949 114.925 132.457 115.423C131.965 115.922 131.297 116.208 130.597 116.22Z" fill="#3A3A3A"/>
<path d="M111.807 108.5C109.103 108.512 106.763 110.844 106.78 113.507C106.8 116.291 109.071 118.595 111.8 118.596C113.135 118.585 114.412 118.05 115.355 117.106C116.299 116.161 116.833 114.884 116.843 113.549C116.852 110.783 114.56 108.487 111.807 108.5ZM111.807 116.22C111.455 116.219 111.107 116.148 110.784 116.012C110.46 115.876 110.166 115.676 109.92 115.426C109.673 115.175 109.479 114.878 109.348 114.552C109.217 114.226 109.152 113.877 109.157 113.525C109.157 112.068 110.328 110.859 111.751 110.859C112.475 110.862 113.168 111.152 113.679 111.666C114.189 112.18 114.474 112.876 114.472 113.6C114.454 114.296 114.166 114.959 113.669 115.447C113.173 115.936 112.506 116.213 111.809 116.22H111.807Z" fill="#3A3A3A"/>
<path d="M71.9387 64.2467C71.7173 63.9484 71.4516 63.6858 71.1507 63.468C70.6987 63.1547 70.2013 62.908 69.6667 62.5973C71.572 61.568 72.2613 59.9053 72.0427 57.9227C71.724 55.0267 69.8 53.7 67.0293 53.332C67.0293 52.4867 67.044 51.696 67.0293 50.9067C67.0133 50.288 66.6173 49.9507 65.94 49.992C65.3747 50.028 64.8387 50.14 64.8533 50.9053C64.868 51.6707 64.8533 52.428 64.8533 53.2253H62.7573C62.7573 52.4787 62.7693 51.7413 62.7573 51.0053C62.7413 50.2373 62.388 49.928 61.592 49.9387C60.876 49.952 60.6013 50.2413 60.5987 51.0053C60.596 51.7693 60.5987 52.5173 60.5987 53.3347C59.356 53.3347 58.216 53.3093 57.08 53.344C56.268 53.3693 56.1667 53.604 56.1667 54.7653C56.1667 55.4493 56.4707 55.6827 57.124 55.652C57.8547 55.616 58.5907 55.644 59.328 55.644V70.676C58.528 70.676 57.7667 70.6627 57.0027 70.676C56.304 70.6907 56.0693 71.02 56.0693 71.892C56.0693 72.764 56.2973 73.0467 57.0307 73.0507C58.1627 73.0587 59.2973 73.0507 60.4653 73.0507C60.5067 73.8827 60.548 74.6507 60.5813 75.4067C60.612 76.1427 61.1547 76.2787 61.712 76.3093C62.364 76.3467 62.7187 75.976 62.7253 75.336C62.7253 74.628 62.7253 73.92 62.7253 73.2333H64.8067C64.8067 73.9587 64.7973 74.6467 64.8067 75.3374C64.8161 75.4771 64.8533 75.6135 64.9161 75.7387C64.9789 75.8639 65.0661 75.9752 65.1725 76.0663C65.2789 76.1573 65.4025 76.2262 65.5359 76.2688C65.6693 76.3115 65.8098 76.3271 65.9493 76.3147C66.4947 76.2453 66.9333 76.0333 66.8973 75.3333C66.86 74.596 66.8893 73.8573 66.8893 73.112L68.6227 72.852C68.436 72.072 68.2613 71.344 68.0893 70.6253H62.18V64.1333C63.8187 64.1333 65.4053 64.0893 66.988 64.1453C68.6907 64.2067 69.8293 65.0933 70.2413 66.572C70.3131 66.9147 70.363 67.2616 70.3907 67.6107C70.8933 67.144 71.324 66.744 71.7587 66.3453C72.712 65.4667 72.7373 65.2947 71.9387 64.2467ZM69.272 58.7653C69.2253 60.2053 68.192 61.3547 66.708 61.5787C66.1936 61.6485 65.6751 61.6837 65.156 61.684C64.172 61.7 63.188 61.684 62.1653 61.684V55.5507C63.8333 55.644 65.488 55.6293 67.1093 55.8613C68.5893 56.0853 69.32 57.2173 69.2693 58.7653H69.272Z" fill="#F7931B"/>
<path d="M103.964 64.9933C103.421 63.812 102.425 63.1386 101.229 62.6613C103.835 60.8573 104.429 57.9533 102.737 55.4773C101.863 54.196 100.515 53.708 99.0893 53.4333C98.556 53.3306 98.4667 53.1107 98.4787 52.656C98.4933 52.0373 98.4787 51.416 98.44 50.7973C98.4053 50.1427 97.8933 49.9813 97.396 50.0093C96.8987 50.0373 96.3293 50.1093 96.3507 50.864C96.3733 51.6467 96.3507 52.4306 96.3507 53.204H94.1333C94.1333 52.404 94.1333 51.66 94.1333 50.9173C94.1333 50.2733 93.6907 49.8506 93.02 49.8373C92.372 49.8226 91.9933 50.2106 91.9907 50.904C91.9907 51.692 91.9907 52.48 91.9907 53.2906C91.5707 53.3266 90.9333 53.236 90.844 53.416C90.5067 54.1 89.808 54.6866 90.0053 55.616C90.2853 55.6333 90.528 55.648 90.8693 55.6666V56.388C90.8693 59.9093 90.892 63.4293 90.8453 66.9493C90.836 67.7786 91.0173 68.4253 91.6213 68.9986C92.3453 69.6866 92.66 70.6373 92.272 71.5093C91.9147 72.3093 91.7107 73.012 91.9387 73.8746C92.06 74.34 91.9587 74.8613 91.9853 75.356C92.0187 75.9786 92.4787 76.384 93.128 76.3186C93.7 76.26 94.18 76.0706 94.1387 75.3226C94.1 74.6386 94.1307 73.9493 94.1307 73.24H96.2387C96.2387 73.9906 96.2187 74.7066 96.2453 75.4173C96.2693 76.084 96.8133 76.2946 97.3213 76.2986C97.8293 76.3026 98.3507 76.1066 98.332 75.392C98.3147 74.6293 98.332 73.8653 98.332 73.112C102.248 72.5027 103.799 71.3573 104.371 68.6053C104.634 67.3893 104.491 66.1203 103.964 64.9933ZM93.72 55.568C95.3667 55.6546 97.0027 55.6346 98.6053 55.8546C100.135 56.0653 100.924 57.1386 100.909 58.5826C100.896 60.1266 99.9067 61.4053 98.3467 61.552C96.8307 61.6946 95.292 61.5826 93.72 61.5826V55.568ZM101.7 67.6826C101.612 69.3813 100.359 70.5773 98.692 70.6666C98.2733 70.6906 97.852 70.6826 97.4293 70.6853H93.7173V64.2733C95.5747 64.2733 97.4107 64.1146 99.208 64.3173C101.043 64.524 101.789 65.9613 101.7 67.6826Z" fill="#F7931B"/>
</svg>
