<svg width="160" height="160" viewBox="0 0 160 160" fill="none" xmlns="http://www.w3.org/2000/svg">
<path d="M139.445 75.176C137.491 71.2254 134.583 68.1707 130.716 66.064C126.156 63.5787 121.328 63.2227 116.235 64.4507C116.263 64.3456 116.301 64.243 116.347 64.144C119.161 60.1307 120.299 55.676 119.947 50.7947C119.644 46.5974 118.205 42.824 115.571 39.6027C111.048 34.0747 105.147 31.684 98.0174 32.4134C93.3214 32.896 89.276 34.832 85.9867 38.168C81.0907 43.136 79.2 49.112 80.584 56C82.0854 63.4667 86.472 68.5334 93.6027 71.2C96.2934 72.204 99.096 72.4827 101.953 72.2667C102.955 72.192 103.953 72.152 105.116 72.088C102.277 76.2787 101.133 80.7547 101.723 85.8454C97.772 82.6214 93.2987 81.6547 88.5534 81.948C83.7614 82.2467 79.5827 84.176 76.1387 87.5254C70.112 93.392 68.4054 103.311 72.5214 110.859C76.6667 118.445 85.0907 122.757 93.4374 121.237C97.612 120.476 101.257 118.587 104.155 115.492C108.304 111.059 110.135 105.759 109.421 99.4494C113.577 102.587 118.052 103.739 122.988 103.384C127.973 103.025 132.168 101.057 135.765 97.6294C141.579 92.0854 142.9 82.164 139.445 75.176ZM103.632 70.0974C102.687 70.204 101.729 70.2094 100.965 70.252C92.1 70.292 84.9534 64.9254 82.8734 56.5774C80.1907 45.808 87.2307 36.7334 96.5534 34.7747C106.22 32.7427 115.189 38.8814 117.353 47.9654C119.055 55.1027 116.911 62.0734 110.524 66.972C108.451 68.5614 106.259 69.796 103.632 70.0974ZM107.467 103.005C107 111.96 99.112 119.901 88.9254 119.345C80.1494 118.867 72.2587 111.079 72.452 101.479C72.6534 91.6427 80.4667 83.912 90.1854 84.0534C99.688 83.816 107.983 92.9947 107.467 103.005ZM124.933 100.996C118.925 102.112 113.62 100.596 109.176 96.3294C108.843 96.0094 108.635 95.5454 108.405 95.1294C107.456 93.4054 106.656 91.58 105.541 89.972C104.672 88.724 104.116 87.448 103.929 85.972C103.816 85.0774 103.753 84.176 103.663 83.2774C103.689 74.2347 110.516 67.5214 118.216 66.18C127.245 64.6107 136.288 70.164 138.573 79.0107C141.436 90.0694 134.4 99.2387 124.933 100.996Z" fill="#F7931B"/>
<path d="M76.8213 67.3333C75.8133 67.6813 74.8653 68.2 73.888 68.6454C72.5253 69.268 71.1653 69.8934 69.8187 70.512C67.664 67.3454 65.5933 64.2373 63.456 61.1787C61.8013 58.8093 59.448 57.5013 56.5853 57.424C52.428 57.3093 48.2684 57.3093 44.1067 57.424C41.2547 57.5067 38.8053 58.6493 37.0813 61.0427C36.3667 62.0333 35.6973 63.0547 35.008 64.0627C33.5507 66.196 32.092 68.3293 30.608 70.5053C28.7413 69.5787 26.9133 68.6547 25.072 67.776C23.6853 67.1093 22.256 66.7747 20.812 67.624C19.416 68.4453 18.6787 69.68 18.6707 71.304C18.6573 73.0894 19.6253 74.2947 21.112 75.1C24.028 76.6773 26.964 78.2174 29.9027 79.7507C31.0467 80.3467 32.2373 80.6734 33.5627 80.36C35.0667 80 35.9747 78.96 36.7693 77.756C37.64 76.4307 38.5027 75.096 39.368 73.7694C39.5733 73.4573 39.8067 73.1613 40.152 72.688C40.176 73.1467 40.1973 73.3787 40.1973 73.6107C40.1973 77.6996 40.1973 81.7862 40.1973 85.8707C40.1973 86.164 40.1853 86.4587 40.1613 86.7507C39.932 89.6467 39.692 92.5427 39.4707 95.4387C39.1942 99.0431 38.9276 102.648 38.6707 106.253C38.444 109.323 38.2218 112.392 38.004 115.463C37.84 117.729 37.7373 119.996 37.4867 122.263C37.334 123.457 37.6233 124.666 38.3 125.661C39.2707 127.119 41.1973 127.988 42.724 127.641C44.9467 127.131 46.4 125.704 46.6667 123.763C46.9187 121.952 47.1613 120.137 47.4133 118.325C48.324 111.815 49.2347 105.301 50.164 98.6653C50.2733 99.4027 50.376 100.041 50.4653 100.68C51.0404 104.737 51.6129 108.793 52.1827 112.849C52.6507 116.183 53.1707 119.516 53.5493 122.849C53.7867 124.964 54.5733 126.5 56.6627 127.355C59.5 128.519 62.9773 126.364 62.9387 123.292C62.9173 121.585 62.7587 119.88 62.6293 118.175C62.3627 114.575 62.0573 110.965 61.7827 107.359C61.56 104.435 61.3653 101.508 61.148 98.5854C60.8813 94.9293 60.4587 91.28 60.348 87.62C60.1987 82.8774 60.2853 78.128 60.272 73.3813C60.2841 73.2275 60.3046 73.0743 60.3333 72.9227C60.4947 73.1253 60.5853 73.2267 60.6613 73.3387C61.784 74.9653 62.9053 76.5929 64.0253 78.2213C65.5707 80.4627 67.8667 81.32 70.5027 79.8667C73.292 78.324 76.1507 76.9053 78.976 75.4267C79.3213 75.2453 79.6533 75.036 79.98 74.8213C81.18 74.036 81.8333 72.9347 81.98 71.4987C82.2547 68.7427 79.4373 66.4267 76.8213 67.3333ZM78.4427 73.396C75.3849 74.9587 72.3249 76.5142 69.2627 78.0627C68.1267 78.6373 66.956 78.4627 66.172 77.4307C64.996 75.876 63.9293 74.2387 62.824 72.6307C61.8987 71.284 61.0107 69.908 60.0427 68.592C59.82 68.2867 59.3587 68.076 58.976 68.008C58.78 67.972 58.4427 68.3147 58.3 68.56C58.176 68.768 58.2213 69.084 58.2213 69.3507C58.2213 72.6049 58.2213 75.8591 58.2213 79.1133H58.332C58.332 82.6107 58.2067 86.1134 58.364 89.604C58.5573 93.9187 58.98 98.2254 59.3093 102.537C59.6453 106.945 59.9867 111.352 60.3333 115.759C60.5027 117.875 60.708 119.989 60.8933 122.104C60.992 123.229 60.824 124.261 59.8 124.951C58.8853 125.565 57.9333 125.564 56.964 125.077C56.1307 124.661 55.9267 123.857 55.804 123.077C55.46 120.884 55.1933 118.677 54.884 116.484C54.4396 113.344 53.9893 110.207 53.5333 107.071C53.1067 104.103 52.6773 101.136 52.2453 98.1693C51.9582 96.1907 51.6707 94.2125 51.3827 92.2347C51.288 91.5773 50.916 91.1053 50.2787 91.0547C49.6413 91.004 49.372 91.568 49.2627 92.112C48.9173 93.8267 48.5587 95.5427 48.2933 97.2707C47.8373 100.212 47.44 103.16 47.0333 106.107C46.6093 109.173 46.2107 112.24 45.78 115.315C45.404 117.993 45.0347 120.675 44.5933 123.344C44.5441 123.666 44.4311 123.974 44.2611 124.252C44.091 124.529 43.8674 124.77 43.6032 124.96C43.3389 125.15 43.0395 125.285 42.7223 125.358C42.4051 125.431 42.0766 125.44 41.756 125.384C40.324 125.141 39.4347 123.865 39.5667 122.416C39.8147 119.717 39.9947 117.013 40.2093 114.312C40.4347 111.463 40.6693 108.616 40.896 105.768C41.1093 103.09 41.3182 100.411 41.5227 97.732C41.7893 94.2267 42.0733 90.7213 42.3227 87.2133C42.3667 86.5867 42.2867 85.952 42.2867 85.3213C42.2813 80.1827 42.2813 75.0445 42.2867 69.9067C42.2867 69.7107 42.272 69.5067 42.2867 69.32C42.3347 68.7174 42.1213 68.2213 41.5547 68.02C40.9453 67.8027 40.6093 68.2947 40.3133 68.7093C39.3773 70.0142 38.4556 71.3333 37.548 72.6667C36.5573 74.1173 35.592 75.5867 34.6053 77.04C33.7453 78.304 32.448 78.6747 31.0933 77.984C28.1413 76.4773 25.196 74.9573 22.2787 73.3893C21.7545 73.0834 21.3143 72.6523 20.9973 72.1347C20.5613 71.4413 20.6413 70.668 21.1907 70.024C21.724 69.4067 22.38 68.9374 23.244 69.2867C24.2573 69.6974 25.2533 70.1547 26.2333 70.64C27.4333 71.2347 28.6147 71.872 29.7987 72.5067C31.0627 73.1733 31.5787 73.0853 32.3707 71.8973C34.3613 68.916 36.3573 65.936 38.2853 62.9133C39.752 60.6133 41.8147 59.4733 44.5093 59.46C48.0307 59.4427 51.552 59.4373 55.0733 59.4707C56.484 59.484 57.9013 59.5253 59.2147 60.192C60.4267 60.8093 61.3547 61.7173 62.096 62.8347C64.1609 65.9458 66.2222 69.0569 68.28 72.168C68.8307 73 69.2693 73.1307 70.192 72.7013C72.3773 71.6813 74.5533 70.6413 76.748 69.6413C78.032 69.056 79.1187 69.3867 79.608 70.4413C80.0973 71.496 79.6 72.8 78.4427 73.392V73.396Z" fill="#3A3A3A"/>
<path d="M50.2399 36.8213C45.3199 36.6413 40.1493 40.5387 40.2399 46.8987C40.3186 52.3227 44.3106 56.6507 50.3013 56.5893C55.7799 56.5333 60.0346 52.42 60.1079 46.8053C60.1959 40.876 55.3413 36.6813 50.2399 36.8213ZM50.2519 54.524C45.6466 54.4627 42.4373 51.0747 42.4093 46.6653C42.3826 42.3987 45.9333 38.884 50.1986 38.8853C54.1253 38.8653 57.8813 42.0253 57.9533 46.7053C58.0159 50.876 54.3999 54.58 50.2519 54.524Z" fill="#3A3A3A"/>
<path d="M106.1 55.0733C105.888 54.444 105.424 53.74 104.872 53.4133C103.824 52.7947 102.625 52.4347 101.499 51.9467C101.267 51.8453 100.911 51.6307 100.908 51.464C100.869 49.0987 100.881 46.732 100.881 44.3627C102.365 44.4 103.536 45.3707 103.779 46.6293C103.833 46.908 103.892 47.2667 104.084 47.4213C104.359 47.64 104.769 47.828 105.1 47.796C105.34 47.7747 105.66 47.4067 105.74 47.1293C105.864 46.7189 105.895 46.2862 105.832 45.8621C105.769 45.4381 105.612 45.0335 105.373 44.6773C104.605 43.488 103.459 42.8333 102.155 42.4107C101.771 42.2867 101.38 42.1907 100.961 42.072C100.961 41.4507 101.011 40.8853 100.949 40.3307C100.864 39.5867 100.416 39.172 99.8479 39.1987C99.2799 39.2253 98.8546 39.6907 98.7893 40.3987C98.7346 40.9813 98.7146 41.568 98.692 41.9813C97.6653 42.4987 96.7386 42.8653 95.92 43.3987C93.0093 45.2933 93.1759 50.0733 95.4466 51.7587C96.1131 52.2451 96.8334 52.6531 97.5933 52.9747C98.6853 53.4413 98.7093 53.396 98.7133 54.608C98.7133 56.2453 98.7133 57.884 98.7133 59.5227C98.7133 59.9293 98.7133 60.3373 98.7133 60.776C98.44 60.8107 98.1625 60.7667 97.9133 60.6493C96.6439 60.1507 95.8053 59.2787 95.5559 57.9C95.4399 57.2653 95.0693 56.996 94.4093 57.0667C93.8013 57.1307 93.6653 57.508 93.6319 58.0213C93.5896 58.5584 93.6611 59.0983 93.8417 59.6058C94.0223 60.1133 94.3079 60.5771 94.6799 60.9667C95.5586 61.9293 96.6319 62.5827 97.9226 62.8173C98.4213 62.9093 98.7013 63.056 98.6639 63.6453C98.6432 64.2275 98.6798 64.8103 98.7733 65.3853C98.8493 65.9573 99.2453 66.212 99.8066 66.2013C100.368 66.1907 100.64 65.84 100.7 65.324C100.783 64.6053 100.833 63.884 100.897 63.1693C105.531 62.6667 107.333 58.76 106.1 55.0733ZM98.6786 50.8947C96.8746 50.4293 96.0013 49.368 96.0239 47.7013C96.0384 46.9461 96.3089 46.2181 96.7912 45.6367C97.2735 45.0553 97.939 44.655 98.6786 44.5013V50.8947ZM104.221 57.6147C104.191 59.3947 102.993 60.624 100.945 60.892V54.072C103.551 54.508 104.267 55.2773 104.221 57.6147Z" fill="#F7931B"/>
<path d="M96.6666 110.511C93.1666 113.311 89.38 113.609 85.6453 110.948C83.752 109.599 82.592 107.757 82.0453 105.524C81.912 104.991 81.6866 104.736 81.112 104.809C80.7967 104.842 80.4782 104.805 80.1786 104.701C79.9397 104.633 79.7354 104.477 79.6074 104.264C79.4794 104.051 79.4372 103.798 79.4893 103.555C79.576 103.021 79.8813 102.609 80.5373 102.661C80.8266 102.685 81.1186 102.661 81.4453 102.661V100.395L80.7946 100.347C80.1373 100.301 79.5773 99.7293 79.5946 99.1133C79.612 98.4973 80.092 98.0013 80.816 98.068C81.616 98.1427 81.9226 97.868 82.2586 97.1053C83.7333 93.7453 86.1466 91.3413 89.9093 90.6667C92.0853 90.2787 94.1973 90.5827 96.084 91.84C96.6986 92.248 97.3346 92.7267 97.1506 93.5907C97.0826 93.9213 96.8053 94.3373 96.516 94.4573C96.2266 94.5773 95.632 94.5267 95.4493 94.3133C93.6133 92.1613 89.7626 92.3867 87.5826 93.9787C86.1626 95.0107 84.764 96.7787 84.452 98.06C87.1493 98.06 89.8333 98.06 92.5186 98.0693C92.792 98.0693 93.196 98.1067 93.3093 98.2787C93.5413 98.632 93.7906 99.1227 93.7093 99.4933C93.604 100.027 93.1586 100.355 92.5093 100.352C89.8666 100.335 87.2253 100.352 84.5826 100.363H83.7586C83.7586 101.051 83.712 101.681 83.792 102.296C83.812 102.451 84.2413 102.655 84.484 102.657C86.7586 102.68 89.0346 102.657 91.3093 102.657C92.1866 102.657 92.76 103.405 92.4546 104.164C92.2786 104.607 91.9693 104.831 91.4413 104.831C89.0413 104.808 86.652 104.821 84.0893 104.821C85.0493 107.543 86.68 109.417 89.3586 110.239C91.56 110.915 93.4306 110.139 95.0826 108.724C95.8133 108.1 96.316 107.977 96.844 108.509C97.372 109.041 97.3333 109.972 96.6666 110.511Z" fill="#F7931B"/>
<path d="M132.521 85.6987C132.353 86.1667 132.015 86.3374 131.528 86.3254C130.715 86.3054 129.9 86.3254 129.087 86.3254H128.841V86.564C128.841 87.8187 128.841 89.0747 128.841 90.3294C128.841 90.6254 128.814 90.9209 128.76 91.212C128.609 92 128.119 92.3387 127.316 92.3067C127.008 92.2969 126.707 92.216 126.436 92.0703C126.165 91.9245 125.931 91.7179 125.753 91.4667C125.447 91.0667 125.153 90.6587 124.877 90.2387C124.058 88.9942 123.245 87.7471 122.439 86.4974C122.407 86.4385 122.359 86.3903 122.3 86.359C122.241 86.3277 122.174 86.3146 122.108 86.3214C120.619 86.3214 119.129 86.3214 117.64 86.3214H117.397V86.5667C117.397 88.0427 117.397 89.5187 117.377 90.9934C117.377 91.4414 117.236 91.856 116.833 92.12C116.677 92.2266 116.496 92.2926 116.307 92.312C116.119 92.3315 115.929 92.3038 115.753 92.2315C115.578 92.1592 115.424 92.0445 115.304 91.8978C115.184 91.751 115.103 91.5768 115.067 91.3907C115.013 91.1275 114.986 90.8594 114.987 90.5907C114.979 89.2574 114.987 87.924 114.987 86.5974V86.32H114.759C113.889 86.32 113.025 86.32 112.152 86.32C112.024 86.3245 111.897 86.2975 111.781 86.2413C111.666 86.185 111.566 86.1014 111.491 85.9976C111.416 85.8938 111.367 85.7732 111.349 85.6462C111.332 85.5192 111.345 85.3898 111.389 85.2694C111.448 85.1094 111.556 84.9725 111.699 84.8791C111.841 84.7856 112.01 84.7406 112.18 84.7507C113.035 84.7507 113.891 84.7507 114.745 84.7507H114.977V81.9694H114.759C113.917 81.9694 113.076 81.9787 112.235 81.9694C112.037 81.9641 111.844 81.9105 111.672 81.8134C111.534 81.7247 111.431 81.5923 111.377 81.4375C111.324 81.2827 111.325 81.1145 111.379 80.96C111.423 80.799 111.52 80.6574 111.654 80.557C111.787 80.4567 111.95 80.4034 112.117 80.4054C112.98 80.4054 113.841 80.4054 114.704 80.4054H114.987V80.1587C114.987 79.1654 114.987 78.172 114.987 77.1787C114.988 76.8622 115.013 76.5462 115.061 76.2334C115.18 75.4867 115.908 74.94 116.661 74.968C117.268 74.9894 117.683 75.2987 117.995 75.768C118.795 76.98 119.595 78.1974 120.395 79.412C120.584 79.7 120.771 79.9907 120.969 80.2707C120.994 80.3044 121.025 80.3326 121.061 80.3537C121.097 80.3748 121.137 80.3883 121.179 80.3934C122.912 80.4 124.645 80.3934 126.371 80.3934C126.397 80.3934 126.424 80.3934 126.481 80.3814V80.1387C126.481 78.98 126.481 77.8214 126.481 76.6627C126.479 76.3534 126.517 76.0451 126.593 75.7454C126.745 75.1987 127.127 74.9454 127.66 74.9587C128.24 74.9747 128.613 75.2574 128.74 75.8214C128.796 76.0911 128.823 76.3659 128.823 76.6414C128.831 77.82 128.823 79 128.823 80.1787V80.4H129.067C129.887 80.4 130.708 80.4147 131.528 80.4C132.017 80.3867 132.355 80.5587 132.516 81.032V81.3627C132.341 81.8414 131.983 81.9947 131.496 81.984C130.696 81.9654 129.883 81.984 129.077 81.984H128.853V84.7467H129.089C129.903 84.7467 130.716 84.7614 131.529 84.7467C132.016 84.7334 132.353 84.9067 132.521 85.3734V85.6987ZM122.121 81.98C122.132 82.0091 122.145 82.0372 122.16 82.064C122.728 82.9267 123.296 83.7894 123.872 84.648C123.897 84.6766 123.928 84.6997 123.962 84.716C123.997 84.7322 124.034 84.7413 124.072 84.7427C124.823 84.7427 125.575 84.7427 126.325 84.7427C126.377 84.7406 126.428 84.7357 126.479 84.728V81.98H122.121ZM121.252 84.736C121.252 84.7107 121.252 84.6947 121.252 84.6854C120.681 83.808 120.109 82.9307 119.535 82.0534C119.519 82.0312 119.5 82.0126 119.477 81.9988C119.454 81.985 119.428 81.9763 119.401 81.9734C118.735 81.9734 118.079 81.9734 117.401 81.9734V84.74L121.252 84.736ZM124.973 86.3254L126.473 88.592V86.3254H124.973ZM117.408 80.3814H118.444L117.408 78.8V80.3814Z" fill="#F7931B"/>
</svg>
