<svg width="160" height="160" viewBox="0 0 160 160" fill="none" xmlns="http://www.w3.org/2000/svg">
<path d="M141.32 37.6853C141.334 37.0485 141.258 36.413 141.095 35.7973C140.453 33.6253 138.561 32.3307 136.117 32.3307C114.795 32.3324 93.4667 32.328 72.1333 32.3173C69.2533 32.3173 66.736 34.392 66.7787 37.6707C66.876 44.8333 66.8107 51.996 66.808 59.1587C66.808 60.1213 67.1333 61.3107 66.688 61.9787C66.2427 62.6467 65.0067 62.844 64.1187 63.2413C64.0667 63.2505 64.0141 63.255 63.9613 63.2547C62.02 60.9053 60.0173 58.548 58.0853 56.1333C55.9253 53.4347 53.296 51.9067 49.704 52.0267C45.5933 52.16 41.4733 52.0547 37.3573 52.0627C36.5573 52.0627 35.7427 52.0067 34.972 52.164C31.568 52.8587 29.1613 54.924 27.72 58C26.2 61.24 24.8267 64.5547 23.5107 67.884C21.4453 73.1013 20.4187 78.628 18.892 84.0053C18.576 85.12 18.5573 86.272 19.0253 87.3693C19.796 89.2 21.4253 90.192 23.4773 90.0973C24.4294 90.0556 25.3451 89.7197 26.0983 89.1359C26.8514 88.552 27.405 87.749 27.6827 86.8373C28.8747 82.8173 30.028 78.7867 31.212 74.7653C31.5667 73.5653 31.9693 72.3653 32.352 71.1733C32.4733 76.4093 32.4853 81.6133 32.4653 86.8187C32.4653 87.6187 32.34 88.4187 32.2747 89.2187C32.028 92.14 31.776 95.0627 31.536 97.9867C31.296 100.911 31.0827 103.837 30.8413 106.763C30.6 109.688 30.3373 112.607 30.0947 115.531C29.828 118.692 29.632 121.861 29.3173 125.017C29.0507 127.652 31.032 130.351 33.6547 130.785C36.1293 131.185 38.884 129.301 39.388 126.767C39.7347 124.995 39.944 123.195 40.1987 121.407C40.7044 117.879 41.2031 114.349 41.6947 110.819C42.1187 107.764 42.52 104.705 42.932 101.648C43.0911 100.466 43.2529 99.2831 43.4173 98.1C43.5587 98.352 43.5507 98.5933 43.584 98.8293C44.1173 102.728 44.6529 106.627 45.1907 110.525C45.9293 115.82 46.6427 121.121 47.4373 126.409C47.7467 128.467 49.004 129.92 50.9653 130.584C52.8813 131.233 54.5733 130.651 56.0027 129.237C57.4973 127.759 57.6507 125.941 57.4693 123.985C57.2293 121.383 57.0693 118.773 56.8773 116.165C56.6987 113.717 56.5373 111.268 56.36 108.82C56.1627 106.08 55.9609 103.34 55.7547 100.601C55.5769 98.1782 55.3991 95.7569 55.2213 93.3373C55.0293 90.7307 54.7013 88.1267 54.6613 85.516C54.576 79.8787 54.6347 74.24 54.6373 68.6C54.6373 68.38 54.6693 68.1613 54.6947 67.8187C56.264 69.4733 57.744 71.0187 59.2 72.576C60.632 74.1147 62.484 74.5907 64.42 73.8307C65.2 73.524 65.9467 73.128 66.7827 72.7387V73.4187C66.7827 78.1227 66.7827 82.824 66.8 87.528C66.8133 90.4827 69.128 92.512 72.0973 92.4933C78.7533 92.448 85.4067 92.4787 92.0627 92.4787H93.016C92.2907 95.1827 91.5987 97.7973 90.868 100.397C90.8147 100.587 90.4813 100.809 90.2667 100.821C89.4413 100.864 88.6107 100.812 87.7827 100.821C85.7733 100.855 84.316 102.336 84.304 104.332C84.304 105.025 84.304 105.721 84.304 106.416C84.304 107.547 84.7813 108.031 85.8853 108.031H122.757C123.776 108.031 124.327 107.508 124.367 106.477C124.393 105.836 124.38 105.195 124.377 104.552C124.363 102.439 122.812 100.86 120.713 100.819C119.812 100.801 118.66 101.104 118.081 100.661C117.503 100.219 117.477 99.032 117.241 98.164C116.732 96.288 116.244 94.4107 115.732 92.4747H116.799C123.24 92.4747 129.681 92.4747 136.121 92.4747C139.223 92.4747 141.329 90.3413 141.329 87.236C141.332 70.7187 141.329 54.2018 141.32 37.6853ZM64.2667 71.3067C62.568 72.1293 61.908 71.9213 60.632 70.5627C58.5218 68.3253 56.3778 66.1235 54.2 63.9573C53.9333 63.6907 53.2907 63.588 52.9027 63.6973C52.6453 63.768 52.3787 64.3507 52.376 64.7053C52.3373 68.34 52.352 71.976 52.352 75.6107H52.3787C52.3787 79.0587 52.3067 82.508 52.4027 85.9507C52.4773 88.5613 52.7707 91.1653 52.9613 93.772C53.1467 96.3053 53.32 98.828 53.504 101.357C53.6987 104.024 53.904 106.675 54.0973 109.335C54.2747 111.757 54.4467 114.179 54.6307 116.6C54.8227 119.208 55.0067 121.816 55.228 124.421C55.3493 125.859 55.1667 127.189 53.8627 128.021C52.1827 129.1 49.956 127.949 49.6707 125.888C49.012 121.147 48.3853 116.4 47.724 111.657C47.112 107.257 46.468 102.867 45.8387 98.472C45.4547 95.7875 45.0716 93.1022 44.6893 90.416C44.5667 89.5587 44.2493 89.2373 43.4813 89.2373C42.7133 89.2373 42.4053 89.556 42.2813 90.42C41.8213 93.5773 41.3333 96.732 40.8813 99.8867C40.4213 103.097 40.004 106.315 39.548 109.527C39.0507 113.032 38.532 116.533 38.024 120.037C37.7413 121.987 37.4907 123.937 37.1747 125.881C36.9187 127.481 35.5067 128.688 34.1787 128.511C32.6013 128.299 31.4987 126.86 31.6293 125.177C31.976 120.656 32.308 116.135 32.676 111.615C33.076 106.776 33.5067 101.941 33.9093 97.104C34.1507 94.2067 34.344 91.3053 34.592 88.4093C35.2333 80.9947 34.7573 73.5653 34.904 66.1427C34.9133 65.6613 34.904 65.18 34.904 64.7C34.904 64.1667 34.7413 63.732 34.176 63.612C33.56 63.4787 33.1093 63.6867 32.8347 64.3173C30.5613 69.6093 28.4173 74.9453 27.0373 80.56C26.6147 82.2813 26.08 83.9787 25.5893 85.6867C25.132 87.2773 23.888 88.0867 22.5827 87.6653C21.4653 87.3 20.816 86.1173 21.1467 84.812C23.32 76.2573 25.4667 67.6787 29.4747 59.7213C30.7493 57.188 32.4653 55.172 35.3773 54.5533C36.2432 54.392 37.1233 54.3191 38.004 54.336C41.6907 54.3147 45.3813 54.392 49.0707 54.312C52.264 54.244 54.6947 55.464 56.628 58.0053C58.532 60.5093 60.6107 62.8813 62.6213 65.304C63.1693 65.9707 63.732 66.056 64.6213 65.664C67.5867 64.3587 70.548 63.044 73.52 61.752C73.9504 61.5513 74.4107 61.422 74.8827 61.3693C76.0627 61.2733 76.8467 61.84 77.1653 62.9253C77.432 63.8253 77.0213 64.8467 76.076 65.348C74.2493 66.316 72.3947 67.2293 70.5507 68.16C68.4547 69.2147 66.3693 70.284 64.2667 71.3067ZM69.236 71.888C69.236 71.6453 69.5747 71.3173 69.8347 71.184C72.1933 69.976 74.572 68.8027 76.944 67.6147C79.5893 66.288 80.42 63.3013 78.8227 60.872C77.764 59.2627 75.552 58.5547 73.584 59.228C72.856 59.476 72.1533 59.7933 71.4507 60.0907C70.748 60.388 70.0467 60.7013 69.2213 61.0613V60.128C69.2213 52.7271 69.2213 45.3249 69.2213 37.9213C69.2213 35.596 70.0813 34.7427 72.3973 34.7427H135.971C138.021 34.7427 138.991 35.716 138.991 37.7813V81.4467H69.2C69.2 78.2413 69.1907 75.0667 69.2307 71.888H69.236ZM119.867 103.235C121.8 103.235 122.133 103.595 121.927 105.619H86.6667C86.6667 105.257 86.6547 104.888 86.6667 104.521C86.7067 103.648 87.1587 103.227 88.0453 103.227C93.4676 103.232 98.8898 103.237 104.312 103.241C109.495 103.243 114.68 103.241 119.867 103.235ZM93.252 100.8C93.9773 98 94.684 95.2587 95.3973 92.504H113.264C114.004 95.2547 114.745 98.0093 115.497 100.8H93.252ZM138.909 87.8667C138.752 89.2933 137.695 90.0667 136.228 90.068C130.377 90.0733 124.527 90.0733 118.676 90.068C103.127 90.068 87.5778 90.068 72.0293 90.068C70.1493 90.068 69.2293 89.1627 69.2107 87.2947C69.2013 86.1773 69.2107 85.0587 69.2107 83.8707H138.944C138.94 85.2213 139.053 86.556 138.909 87.8667Z" fill="#3A3A3A"/>
<path d="M43.4987 29.1587C37.384 29.1893 32.6253 34.1747 32.6547 40.1707C32.6893 46.7827 38.3747 51.1933 43.6707 50.956C49.1987 51.196 54.5147 46.304 54.5013 40.2013C54.4907 34.2987 49.7067 29.1267 43.4987 29.1587ZM44.1253 48.6893C39.0587 48.956 35.3013 44.944 35.0587 40.7987C34.7133 35.0027 39.1747 31.7 43.112 31.5213C48.1067 31.2973 52.2547 35.296 52.0907 40.1293C52.2067 44.768 48.4267 48.4613 44.1253 48.6893Z" fill="#3A3A3A"/>
<path d="M135.929 70.1333C135.712 67.956 133.651 66.3747 131.509 66.8307C130.843 66.9747 130.431 66.8213 129.993 66.3587C129.327 65.6626 128.601 65.032 127.937 64.336C127.705 64.0798 127.416 63.8802 127.095 63.7526C126.773 63.625 126.426 63.5728 126.081 63.6C125.105 63.644 124.127 63.6106 123.099 63.6106C123.852 60.5191 123.873 57.294 123.157 54.1933C124.516 54.4693 125.308 53.7426 126.075 52.908C126.992 51.9106 127.955 50.9573 128.875 50.012C130.733 51.0706 131.88 51.164 133.184 50.3426C134.432 49.5573 135.029 48.4226 134.984 46.9186C134.92 44.744 133.127 43.1733 130.851 43.3613C128.76 43.532 127.161 45.5666 127.485 47.6146C127.501 47.7222 127.495 47.8317 127.467 47.9368C127.44 48.042 127.392 48.1405 127.325 48.2266C126.154 49.4346 124.966 50.6271 123.761 51.804C123.228 52.324 122.615 52.1386 122.257 51.5013C121.427 50.02 120.709 48.4346 119.651 47.128C115.325 41.812 109.66 39.5066 102.851 40.208C97.8 40.728 93.6253 43.044 90.396 46.9466C89.7107 47.7773 89.092 48.1626 88.0253 48.0773C86.7 47.9693 85.2107 48.3866 84.0707 47.908C82.9307 47.4293 82.1387 46.1213 81.1787 45.196C80.8667 44.892 80.752 44.6213 80.852 44.152C81.0017 43.5253 80.9834 42.8702 80.799 42.2528C80.6145 41.6355 80.2704 41.0778 79.8013 40.636C79.1561 40.0067 78.3049 39.6322 77.405 39.5814C76.5051 39.5307 75.6173 39.8072 74.9053 40.36C73.3547 41.604 72.9453 43.6773 73.9293 45.2933C74.952 46.9786 76.8947 47.5973 78.7053 46.76C79.1133 46.5706 79.32 46.6506 79.5933 46.932C80.4333 47.7933 81.308 48.6186 82.1347 49.492C82.4255 49.8213 82.7877 50.0798 83.1938 50.2476C83.5998 50.4153 84.0389 50.488 84.4773 50.46C85.6573 50.412 86.8413 50.4493 88.1053 50.4493C85.8067 55.4426 85.7427 60.424 87.452 65.5307C86.908 65.5307 86.4787 65.5693 86.056 65.5227C85.096 65.4173 84.3667 65.7573 83.7267 66.4773C83 67.2946 82.1627 68.0133 81.4227 68.8213C81.032 69.2493 80.6893 69.3267 80.1213 69.1613C79.5822 69.0198 79.0163 69.0148 78.4747 69.1466C76.3573 69.6573 75.1613 71.8346 75.7853 73.9293C75.9312 74.4111 76.1727 74.8586 76.4955 75.245C76.8182 75.6313 77.2155 75.9487 77.6636 76.178C78.1117 76.4074 78.6015 76.544 79.1036 76.5798C79.6058 76.6156 80.11 76.5498 80.5861 76.3863C81.0623 76.2229 81.5006 75.9651 81.8748 75.6284C82.2491 75.2918 82.5516 74.8831 82.7644 74.4268C82.9771 73.9706 83.0957 73.4761 83.1131 72.973C83.1304 72.4699 83.0462 71.9685 82.8653 71.4986C82.688 71.036 82.7787 70.788 83.104 70.4773C83.8387 69.7773 84.5387 69.0413 85.26 68.3267C85.5827 68.0053 88.292 67.82 88.64 68.0973C88.7256 68.1966 88.7982 68.3064 88.856 68.424C89.3747 69.164 89.848 69.9427 90.4253 70.6347C95.2547 76.408 101.468 78.5773 108.769 77.148C114.769 75.972 119.169 72.4373 121.855 66.9013C122.197 66.1987 122.617 66.0733 123.353 65.968C125.496 65.672 127.103 66.412 128.435 68.032C128.756 68.4213 128.899 68.664 128.701 69.1813C128.479 69.7527 128.4 70.3699 128.472 70.9788C128.544 71.5876 128.765 72.1695 129.114 72.6731C129.464 73.1768 129.932 73.5869 130.477 73.8673C131.023 74.1477 131.628 74.2899 132.241 74.2813C134.4 74.2546 136.145 72.2853 135.929 70.1333ZM131.263 45.704C131.625 45.7223 131.965 45.8813 132.212 46.147C132.458 46.4127 132.591 46.7642 132.583 47.1266C132.567 47.8266 131.867 48.5333 131.2 48.5146C130.533 48.496 129.828 47.7253 129.847 47.06C129.873 46.34 130.552 45.6853 131.267 45.6973L131.263 45.704ZM77.1293 44.72C76.3973 44.6946 75.7573 44.02 75.784 43.3053C75.8107 42.5906 76.512 41.9466 77.2147 41.972C77.5765 41.9906 77.9167 42.1497 78.163 42.4154C78.4093 42.6811 78.5422 43.0325 78.5333 43.3946C78.5348 43.5746 78.4992 43.753 78.4287 43.9186C78.3582 44.0842 78.2544 44.2335 78.1236 44.3572C77.9929 44.4809 77.8381 44.5764 77.6689 44.6376C77.4997 44.6989 77.3196 44.7247 77.14 44.7133L77.1293 44.72ZM79.3867 74.188C78.624 74.1973 78.0533 73.6213 78.0413 72.8333C78.0365 72.6552 78.0675 72.478 78.1323 72.312C78.1972 72.1461 78.2946 71.9948 78.4189 71.8671C78.5432 71.7395 78.6918 71.6381 78.856 71.5688C79.0201 71.4996 79.1965 71.4639 79.3747 71.464C79.7326 71.4743 80.0737 71.6183 80.3309 71.8675C80.588 72.1168 80.7425 72.4532 80.764 72.8107C80.768 73.4893 80.0773 74.18 79.3867 74.188ZM113.745 63.676C113.333 65.712 112 67.0493 109.977 67.6C109.111 67.836 108.213 67.9533 107.227 68.1453C107.227 68.8933 107.236 69.7106 107.227 70.5293C107.217 71.176 106.928 71.596 106.225 71.62C105.62 71.6387 105.253 71.3946 105.256 70.7386C105.256 69.884 105.256 69.0307 105.256 68.1053H103.389C103.389 68.968 103.372 69.8387 103.389 70.7187C103.405 71.328 103.137 71.6133 102.54 71.62C101.943 71.6267 101.497 71.4533 101.456 70.748C101.403 69.8746 101.323 69.0026 101.251 68.048C100.184 68.048 99.1173 68.0413 98.0613 68.048C97.4667 68.048 97.0067 67.9453 96.9627 67.2106C96.9013 66.1546 97.0147 65.9986 97.908 65.8253C99.8827 65.4453 99.6947 65.9706 99.6947 63.7626C99.6947 60.1026 99.668 56.4426 99.716 52.7826C99.7253 52.0133 99.3987 51.7973 98.7587 51.7346C98.492 51.708 98.2347 51.6573 97.972 51.6093C97.0387 51.4373 96.656 50.856 97.0187 50.0026C97.1253 49.7533 97.58 49.528 97.884 49.512C98.976 49.4533 100.072 49.488 101.244 49.488C101.32 48.5053 101.403 47.6066 101.456 46.7066C101.493 46.0613 101.76 45.7426 102.453 45.764C103.147 45.7853 103.411 46.0693 103.387 46.7453C103.357 47.6213 103.387 48.5013 103.387 49.4333H105.253V46.7586C105.253 46.248 105.281 45.7933 105.996 45.7826C106.62 45.772 107.151 45.832 107.171 46.608C107.195 47.5413 107.171 48.468 107.171 49.408C107.939 49.5613 108.629 49.6293 109.276 49.8373C111.247 50.4666 112.391 51.8466 112.591 53.8973C112.761 55.6227 112.132 57.0227 110.544 57.8973C110.508 57.9187 110.499 57.9853 110.488 58.0026C111.073 58.3613 111.688 58.6693 112.221 59.0786C113.767 60.252 114.101 61.9213 113.745 63.676ZM132.163 71.8893C131.496 71.8893 130.829 71.2453 130.805 70.5626C130.8 70.383 130.832 70.2041 130.897 70.0369C130.963 69.8696 131.062 69.7174 131.188 69.5893C131.315 69.4613 131.465 69.3601 131.632 69.2918C131.798 69.2235 131.976 69.1896 132.156 69.192C132.964 69.1853 133.528 69.7253 133.528 70.5107C133.524 70.8726 133.379 71.2187 133.124 71.476C132.869 71.7332 132.525 71.8814 132.163 71.8893Z" fill="#F7931B"/>
<path d="M103.067 64.52C103.036 63.8653 103.067 63.208 103.067 62.5533C103.067 62.348 103.067 62.144 103.067 61.9387C103.067 62.1413 103.067 62.348 103.067 62.5533C103.057 63.208 103.032 63.8667 103.067 64.52Z" fill="#3A3A3A"/>
<path d="M110.435 62.652C110.415 64.0227 109.619 64.9987 108.072 65.1853C106.575 65.3667 105.048 65.332 103.539 65.34C103.381 65.34 103.099 64.9933 103.083 64.7907C103.076 64.7018 103.07 64.6129 103.067 64.524C103.036 63.8693 103.067 63.212 103.06 62.5573C103.06 62.352 103.06 62.1453 103.06 61.9427C103.06 61.4 103.049 60.8573 103.081 60.316C103.092 60.1253 103.328 59.7827 103.46 59.7893C105.027 59.8053 106.609 59.752 108.157 59.9573C109.705 60.1627 110.456 61.216 110.435 62.652Z" fill="#F7931B"/>
<path d="M109.159 54.708C109.133 55.8987 108.427 56.7974 107.12 56.984C105.813 57.1707 104.488 57.1614 103.08 57.2427V52.2667C104.521 52.2667 105.96 52.1334 107.36 52.3067C108.675 52.4707 109.191 53.34 109.159 54.708Z" fill="#F7931B"/>
</svg>
