<svg width="160" height="160" viewBox="0 0 160 160" fill="none" xmlns="http://www.w3.org/2000/svg">
<path d="M141.181 85.5627C139.66 79.4227 138.121 73.288 136.657 67.1333C136.105 64.808 135.405 62.5893 133.772 60.768C132.283 59.1013 130.5 57.892 128.221 57.828C124.815 57.732 121.401 57.7787 117.991 57.8067C115.832 57.8267 113.879 58.4907 112.457 60.1787C110.919 62.008 109.488 63.928 108.027 65.82C107.209 66.8773 106.427 67.9533 105.564 69.1053C104.271 66.6133 103.031 64.244 101.819 61.8573C101.621 61.4596 101.515 61.0227 101.508 60.5787C101.48 57.4867 101.487 54.396 101.492 51.3053C101.492 50.412 101.092 49.7827 100.292 49.412C99.536 49.0627 98.7774 49.2173 98.2614 49.7733C97.7918 50.3055 97.4405 50.9313 97.2307 51.6093C96.976 52.3973 96.7814 53.076 95.736 52.852C95.6454 52.832 95.536 52.9107 95.4334 52.9347C92.648 53.6013 91.0014 56.0587 91.4427 59.116C91.736 61.136 93.4627 63.076 96.152 62.7907C97.3854 62.6573 98.6174 62.512 99.8667 62.3707C99.9774 62.5733 100.093 62.7827 100.204 62.9947C102.195 66.7973 104.244 70.5733 106.155 74.4173C107.288 76.6987 109.528 76.684 110.843 74.9107C111.776 73.6547 112.784 72.456 113.892 71.0627C113.919 71.3493 113.935 71.4427 113.933 71.5347C113.888 74.6227 113.863 77.7107 113.787 80.7973C113.741 82.576 113.669 84.3573 113.52 86.1307C113.279 88.8547 112.957 91.5733 112.673 94.2933C112.448 96.4267 112.24 98.572 112.007 100.711C111.709 103.377 111.392 106.035 111.081 108.696C110.785 111.251 110.48 113.807 110.188 116.363C110 117.995 109.711 119.625 109.673 121.261C109.628 123.347 111.465 125.187 113.609 125.339C115.813 125.497 117.573 123.976 117.929 121.932C118.24 120.159 118.484 118.375 118.748 116.599C119.355 112.51 119.958 108.418 120.556 104.323C121.035 101.019 121.489 97.712 121.965 94.4067C122.06 93.74 122.165 93.0893 122.265 92.4293C122.52 94.4293 122.665 96.4147 122.828 98.3947C123.015 100.777 123.211 103.157 123.395 105.537C123.567 107.785 123.717 110.036 123.9 112.284C124.147 115.327 124.54 118.363 124.632 121.407C124.708 123.997 127.443 125.987 130.064 125.184C132.173 124.54 133.184 122.651 132.964 120.045C132.723 117.161 132.547 114.271 132.383 111.379C132.236 108.784 132.164 106.179 132.023 103.588C131.733 98.284 131.367 92.9827 131.133 87.6747C130.972 84.032 130.977 80.38 130.912 76.732C130.912 76.556 130.928 76.3773 130.936 76.1987C131.077 76.4325 131.175 76.6893 131.227 76.9573C132.079 80.644 132.885 84.3427 133.801 88.0133C134.365 90.2707 136.511 91.3467 138.735 90.624C140.709 89.9827 141.743 87.8213 141.181 85.5627ZM99.5107 60.4067C98.3614 60.548 97.1947 60.7653 96.0174 60.8173C94.84 60.8693 93.9454 60.1627 93.6174 59.1147C93.2 57.752 93.5987 56.148 94.684 55.4747C95.2609 55.1247 95.9201 54.9333 96.5947 54.92C97.7667 54.9013 98.16 54.7307 98.5574 53.6187C98.8174 52.8893 99.0734 52.1613 99.5067 51.4853L99.5107 60.4067ZM138.568 88.5507C138.296 88.7956 137.946 88.9368 137.581 88.9495C137.215 88.9622 136.856 88.8455 136.568 88.62C136.098 88.2533 135.756 87.7481 135.589 87.176C134.78 84.076 134.051 80.956 133.3 77.8427C132.529 74.6542 131.764 71.4649 131.004 68.2747C130.86 67.6747 130.54 67.208 129.867 67.3067C129.193 67.4053 129.132 67.9333 129.135 68.5227C129.16 73.9307 129.135 79.3413 129.193 84.748C129.224 87.6213 129.345 90.4947 129.492 93.3627C129.716 97.7627 130.004 102.163 130.247 106.563C130.428 109.828 130.569 113.096 130.747 116.359C130.823 117.763 130.949 119.159 131.043 120.567C131.112 121.588 130.835 122.463 129.892 123.005C129.033 123.499 128.011 123.385 127.225 122.739C126.559 122.193 126.504 121.405 126.439 120.645C126.156 117.391 125.905 114.133 125.639 110.875C125.464 108.651 125.313 106.423 125.135 104.196C124.905 101.337 124.655 98.48 124.417 95.6213C124.284 93.98 124.157 92.3387 124.017 90.6973C123.993 90.3806 123.948 90.0658 123.884 89.7547C123.691 88.84 123.187 88.3533 122.436 88.3347C121.731 88.3173 120.969 88.96 120.836 89.752C120.443 92.268 120.084 94.7893 119.705 97.3067C119.255 100.323 118.793 103.337 118.344 106.353C117.944 109.053 117.553 111.757 117.144 114.456C116.788 116.812 116.439 119.169 116.036 121.523C115.815 122.801 114.884 123.476 113.664 123.361C112.605 123.263 111.501 122.127 111.572 121.011C111.672 119.399 111.909 117.795 112.097 116.188C112.444 113.209 112.808 110.232 113.147 107.255C113.503 104.141 113.841 101.025 114.184 97.9093C114.483 95.1667 114.807 92.4267 115.064 89.68C115.301 87.172 115.552 84.66 115.639 82.144C115.752 78.8453 115.711 75.5413 115.735 72.24C115.744 70.988 115.752 69.736 115.768 68.484C115.776 67.928 115.612 67.3827 115.036 67.332C114.68 67.3013 114.175 67.58 113.931 67.8773C112.42 69.7333 110.968 71.636 109.488 73.5173C108.757 74.444 108.421 74.4093 107.852 73.3733C107.431 72.608 107.019 71.8373 106.583 71.036C108.773 68.0907 110.913 65.112 113.169 62.2213C114.456 60.5747 116.22 59.7253 118.369 59.7493C121.247 59.78 124.125 59.756 127.003 59.7493C129.88 59.7427 132.736 61.5253 133.725 64.264C134.463 66.2947 134.903 68.432 135.425 70.5307C136.725 75.772 137.985 81.0227 139.284 86.264C139.527 87.2 139.263 87.964 138.568 88.5507Z" fill="#3A3A3A"/>
<path d="M92.2667 80.1787C92.0001 68.4147 82.8321 57.3894 68.9921 57.408C53.5601 57.312 44.7854 69.8227 45.3601 81.7067C46.0081 95.1147 56.6281 104.907 69.7721 104.429C81.2814 104 92.5907 95.0574 92.2667 80.1787ZM69.0107 102.283C56.3641 102.332 47.5067 93.328 47.3787 80.452C47.2814 70.532 54.4454 59.5187 68.7507 59.4614C82.8841 59.4107 90.0494 70.7827 90.2961 80.436C90.0294 93.856 80.6934 102.237 69.0107 102.283Z" fill="#F7931B"/>
<path d="M33.0933 96.1707C26.2333 95.972 18.6933 101.844 18.6666 110.641C18.6399 119.012 24.8066 125.535 33.4413 125.583C41.2013 125.628 47.9533 119.344 48.0679 110.899C48.0929 108.937 47.7207 106.99 46.9738 105.176C46.227 103.361 45.1208 101.717 43.7219 100.341C42.323 98.9649 40.6603 97.8862 38.8337 97.1696C37.0072 96.4529 35.0545 96.1132 33.0933 96.1707ZM33.2973 123.616C25.7079 123.555 20.7239 118.175 20.6306 110.932C20.5359 103.125 26.6773 98.2427 33.2973 98.08C40.4973 98.3467 46.0253 103.208 46.0893 110.711C46.1533 118.329 40.5159 123.673 33.2973 123.616Z" fill="#F7931B"/>
<path d="M33.4321 35.0666C26.6521 34.4786 18.4494 40.9213 18.6907 49.8866C18.8987 57.6586 25.1134 64.844 34.3147 64.3493C41.9201 63.9373 48.0001 58.0106 48.1334 49.7333C48.2894 41.1253 40.7921 34.6786 33.4321 35.0666ZM33.3801 62.4653C26.3134 62.3466 20.3934 57.0506 20.7014 48.9626C20.9761 41.704 26.9134 37.0733 33.0361 36.9546C40.6361 36.808 46.2467 42.4346 46.1974 49.7026C46.1441 57.276 40.6174 62.2853 33.3801 62.4626V62.4653Z" fill="#F7931B"/>
<path d="M122.579 34.4173C116.02 34.372 111.715 39.624 111.529 44.876C111.293 51.5627 116.303 56.7427 122.827 56.7147C127.388 56.6947 133.752 52.4347 133.472 45.7293C133.971 39.5333 128.212 34.456 122.579 34.4173ZM122.4 54.8507C117.677 54.7573 113.552 51.152 113.467 45.528C113.393 40.3107 117.308 36.348 122.468 36.2853C127.308 36.228 131.704 40.508 131.583 45.6067C131.628 50.6667 127.48 54.952 122.4 54.8507Z" fill="#3A3A3A"/>
<path d="M53.9508 47.212C55.5281 47.2733 55.7628 47.3947 55.7681 48.1453C55.7734 48.896 55.5014 49.0453 53.8534 49.22C54.4361 49.816 55.0014 50.3307 55.4814 50.9147C55.7134 51.1973 55.9254 51.62 55.8974 51.96C55.8708 52.146 55.8038 52.3239 55.7011 52.4813C55.5983 52.6386 55.4624 52.7715 55.3028 52.8707C55.0588 52.9947 54.5281 52.888 54.3134 52.684C53.0601 51.4902 51.841 50.2613 50.6561 48.9973C50.0961 48.3973 50.1708 47.7973 50.7894 47.164C51.8881 46.0387 53.0108 44.9387 54.1228 43.8227C54.5828 43.36 55.1014 43.2133 55.5894 43.6893C56.0774 44.1653 56.0908 44.7813 55.6388 45.2693C55.0668 45.8867 54.4014 46.416 53.7721 46.9827L53.9508 47.212Z" fill="#3A3A3A"/>
<path d="M84.8867 113.716C84.3934 113.716 83.896 113.761 83.4094 113.705C82.6534 113.619 82.2094 113.119 82.3214 112.505C82.44 111.828 82.9081 111.633 83.5534 111.677C84.0707 111.713 84.5934 111.685 85.3201 111.685C84.6734 111.019 84.1614 110.508 83.664 109.981C83.144 109.431 83.068 108.696 83.468 108.276C83.8907 107.833 84.5147 107.924 85.1307 108.533C86.112 109.507 87.096 110.479 88.064 111.467C88.7587 112.177 88.7401 112.828 88.0361 113.537C86.9867 114.593 85.92 115.632 84.8854 116.703C84.4547 117.148 84.0134 117.319 83.5 116.912C83.1 116.589 83.1 115.757 83.5307 115.332C84.0107 114.855 84.54 114.427 85.0494 113.976L84.8867 113.716Z" fill="#3A3A3A"/>
<path d="M77.2279 111.681C77.7319 111.681 78.2359 111.681 78.7386 111.681C79.3412 111.681 79.6892 112.003 79.7759 112.561C79.8666 113.153 79.5559 113.597 78.9759 113.628C77.737 113.708 76.4939 113.701 75.2559 113.607C74.9612 113.58 74.5372 112.969 74.5026 112.596C74.4519 112.063 74.8826 111.697 75.4772 111.687C76.0719 111.676 76.6452 111.681 77.2279 111.681Z" fill="#3A3A3A"/>
<path d="M69.3988 111.681C69.9028 111.681 70.4081 111.667 70.9121 111.681C71.4921 111.704 71.8588 111.995 71.8948 112.603C71.9308 113.211 71.5988 113.599 71.0281 113.629C69.9183 113.699 68.8054 113.706 67.6948 113.652C67.1241 113.619 66.7161 113.224 66.7868 112.569C66.8508 111.979 67.2241 111.688 67.8094 111.679C68.3374 111.673 68.8681 111.681 69.3988 111.681Z" fill="#3A3A3A"/>
<path d="M61.552 113.651C61.0466 113.651 60.5413 113.665 60.0373 113.651C59.4386 113.629 59.104 113.308 59.0893 112.701C59.0746 112.095 59.4453 111.729 60.0013 111.703C61.116 111.651 62.236 111.651 63.3506 111.703C63.8733 111.727 64.2213 112.08 64.22 112.653C64.2186 113.227 63.9346 113.575 63.3826 113.635C62.776 113.701 62.1626 113.697 61.5533 113.725L61.552 113.651Z" fill="#3A3A3A"/>
<path d="M53.8493 113.628C53.3159 113.628 52.7826 113.637 52.2493 113.628C51.6026 113.615 51.2639 113.259 51.2759 112.627C51.2866 112.024 51.6506 111.693 52.2413 111.693C53.3319 111.673 54.4239 111.683 55.5146 111.693C56.1066 111.693 56.4879 112.008 56.5239 112.595C56.5613 113.208 56.2439 113.623 55.5999 113.661C55.0173 113.696 54.4306 113.669 53.8453 113.669L53.8493 113.628Z" fill="#3A3A3A"/>
<path d="M95.096 105.988C95.0426 106.683 95.0733 107.363 94.9066 107.988C94.8382 108.168 94.7288 108.329 94.5872 108.459C94.4455 108.588 94.2755 108.683 94.0906 108.736C93.8693 108.775 93.3413 108.324 93.3293 108.069C93.2633 106.704 93.2713 105.336 93.3533 103.972C93.3653 103.753 93.8626 103.379 94.1013 103.404C94.3973 103.436 94.8253 103.765 94.9013 104.044C95.0666 104.68 95.0426 105.357 95.096 105.988Z" fill="#3A3A3A"/>
<path d="M76.4 47.236C76.9333 47.236 77.4667 47.2467 78 47.236C78.5867 47.2227 78.8787 47.5293 78.9413 48.08C79.0093 48.6627 78.6827 49.064 78.16 49.092C76.9922 49.1498 75.8222 49.1476 74.6546 49.0853C74.084 49.0573 73.736 48.6853 73.8306 48.052C73.912 47.4987 74.2373 47.224 74.8067 47.2347C75.3333 47.2427 75.8667 47.2347 76.4 47.236Z" fill="#3A3A3A"/>
<path d="M68.776 47.232C69.28 47.232 69.7854 47.2453 70.2907 47.232C70.8947 47.2106 71.2507 47.5986 71.2094 48.084C71.18 48.428 70.764 49 70.4894 49.0173C69.2496 49.082 68.0072 49.0766 66.768 49.0013C66.2347 48.9773 66.0174 48.5186 66.172 48.0866C66.292 47.7546 66.6374 47.3466 66.9507 47.2773C67.5334 47.144 68.164 47.24 68.776 47.24V47.232Z" fill="#3A3A3A"/>
<path d="M93.1226 98.0374C93.1892 97.42 93.1839 96.7987 93.3466 96.2254C93.4252 95.9467 93.8159 95.5734 94.0652 95.5734C94.3439 95.5734 94.8532 95.9387 94.8652 96.1627C94.9257 97.5579 94.9154 98.9552 94.8346 100.349C94.8239 100.539 94.3186 100.849 94.0612 100.831C93.8039 100.812 93.4252 100.484 93.3706 100.233C93.2119 99.516 93.1999 98.7694 93.1226 98.0374Z" fill="#3A3A3A"/>
<path d="M61.0548 47.2374C61.5881 47.2374 62.1214 47.2374 62.6548 47.2374C63.2428 47.2374 63.5401 47.6067 63.5721 48.132C63.6081 48.692 63.2934 49.032 62.7041 49.0334C61.5388 49.0334 60.3734 49.0427 59.2094 49.0134C58.6401 49 58.4388 48.6134 58.4614 48.088C58.4841 47.5627 58.7468 47.2427 59.3041 47.2374C59.8841 47.232 60.4694 47.2374 61.0548 47.2374Z" fill="#3A3A3A"/>
<path d="M84.1734 49.0067C83.5867 49.0067 82.9734 49.1013 82.4227 48.9707C82.0747 48.888 81.6227 48.504 81.5494 48.184C81.4494 47.7067 81.7747 47.2507 82.3707 47.2427C83.5427 47.224 84.7161 47.2213 85.8881 47.2427C86.4681 47.2533 86.7507 47.6427 86.7547 48.176C86.7547 48.7387 86.4694 49.0493 85.8507 49.012C85.2934 48.98 84.7321 49.0067 84.1734 49.0067Z" fill="#3A3A3A"/>
<path d="M92.4133 113.699C92.3093 113.665 91.8987 113.649 91.6933 113.432C91.456 113.184 91.2187 112.697 91.3133 112.432C91.4253 112.117 91.8613 111.869 92.208 111.696C92.6226 111.494 93.0639 111.352 93.5187 111.275C93.852 111.215 94.3053 111.171 94.528 111.345C94.7507 111.52 94.8933 111.996 94.8467 112.305C94.7093 113.22 93.8667 113.716 92.4133 113.699Z" fill="#3A3A3A"/>
<path d="M75.8667 80.3213C77.6747 78.4973 78.5534 76.392 77.6694 73.8386C76.7641 71.2186 74.5574 70.428 72.0321 70.016V66.7746H69.4987V70.048H66.4321V66.772H63.8987V69.7853H59.9747V72.5333H62.8894V89.3333H59.9561V92.0426H64.4001V95.008H66.6667V91.8986H69.6094V94.9786H72.0654V91.8666C75.3894 91.7333 78.1321 90.7093 79.0587 87.2C79.8667 84.18 78.9694 82.4 75.8667 80.3213ZM65.9934 72.4826C68.1747 72.5893 70.3321 72.5546 72.4441 72.8466C74.1654 73.084 75.2441 74.6066 75.0841 76.0146C74.8681 77.9106 73.3507 79.376 71.5787 79.4106C70.6454 79.428 69.7121 79.448 68.7787 79.456C67.8734 79.464 66.9681 79.456 65.9867 79.456L65.9934 72.4826ZM76.2174 86.8826C75.7774 88.2546 74.6174 88.8666 73.3747 88.9866C70.9321 89.224 68.4681 89.224 65.9827 89.3226V81.9373C66.6827 81.9373 67.3641 81.9226 68.0454 81.9373C69.7414 81.9813 71.4467 81.9506 73.1321 82.116C75.5081 82.352 76.9334 84.632 76.2147 86.8853L76.2174 86.8826Z" fill="#F7931B"/>
<path d="M37.4921 110.533C37.6775 110.267 37.8348 110.057 37.9721 109.839C39.2268 107.827 38.6921 105.296 36.6295 104.513C35.4041 104.048 35.0815 103.421 35.2735 102.283C35.2746 102.176 35.2593 102.07 35.2281 101.968H33.5495V103.96H32.0001C31.9681 103.269 31.9375 102.616 31.9068 101.96H30.2668V103.867H27.9708C27.9708 104.545 27.7641 105.287 28.0401 105.712C28.2455 106.028 29.0788 105.935 29.6401 106.024V116.06H27.9761V118.105H30.2948V120.04C30.5842 120.019 30.8747 120.019 31.1641 120.04C31.8921 120.164 32.1201 119.841 32.0495 119.159C32.0108 118.777 32.0428 118.388 32.0428 117.977L33.5895 118.111V120.093H35.2961V117.972C37.4015 117.705 39.1628 116.976 39.6495 114.729C40.0575 112.839 39.2468 111.421 37.4921 110.533ZM31.7935 106.133C32.9268 106.133 34.0601 106.057 35.1775 106.157C36.0321 106.232 36.5361 106.981 36.5415 107.861C36.5415 108.624 35.9428 109.527 35.1975 109.617C34.1028 109.751 32.9921 109.751 31.7935 109.807V106.133ZM37.5188 114.175C37.4721 115.087 36.8588 115.707 35.6015 115.82C34.4188 115.927 33.2175 115.844 31.9441 115.844C31.8822 115.675 31.8402 115.5 31.8188 115.321C31.8081 114.207 31.8188 113.089 31.8188 111.78C33.2775 111.859 34.7521 111.867 36.2055 112.047C37.0135 112.14 37.5681 113.2 37.5188 114.169V114.175Z" fill="#F7931B"/>
<path d="M37.5908 49.4667C39.8814 46.62 38.4121 43.5534 35.4028 42.9974V40.9867H33.6788V42.912H32.0481V41H30.3148V42.9334H28.0668C28.0668 43.5787 27.8654 44.28 28.1281 44.6414C28.3521 44.9507 29.1121 44.868 29.6268 44.9587V55.0294H27.9454C27.9454 55.5027 27.9708 55.9254 27.9388 56.3454C27.9028 56.832 28.0828 57.0214 28.5774 56.9947C29.1561 56.9627 29.7388 56.9867 30.3694 56.9867V58.8707H32.1521C32.2001 58.204 32.2468 57.548 32.2974 56.8267L33.7334 56.9907V58.8574H35.4508V56.8934C37.4934 56.6094 39.2401 55.864 39.7081 53.724C40.1108 51.8667 39.4494 50.3094 37.5908 49.4667ZM31.9548 44.9454C33.1014 45.016 34.1894 45.0387 35.2668 45.1654C35.6686 45.1981 36.0412 45.3882 36.3034 45.6944C36.5656 46.0006 36.6962 46.398 36.6668 46.8C36.6121 47.7454 35.8668 48.6387 35.0241 48.6814C34.2534 48.7174 33.4814 48.6974 32.7094 48.7C32.4748 48.7 32.2388 48.7 31.9521 48.7L31.9548 44.9454ZM36.5548 54.468C35.0761 54.7814 33.5534 54.896 31.9321 55.1107V50.7334C33.3761 50.8014 34.7988 50.8187 36.2094 50.9494C36.9574 51.0187 37.5321 51.8827 37.6481 52.8387C37.7334 53.5547 37.3841 54.2894 36.5548 54.4654V54.468Z" fill="#F7931B"/>
</svg>
