<svg width="160" height="160" viewBox="0 0 160 160" fill="none" xmlns="http://www.w3.org/2000/svg">
<path d="M118.559 127.913H127.389C126.971 122.989 126.509 118.332 126.189 113.665C125.689 106.304 125.225 98.94 124.856 91.5707C124.533 84.8533 124.323 78.1333 124.121 71.4053C124.091 70.3773 123.531 68.7267 125.091 68.5787C126.932 68.404 126.449 70.2813 126.501 71.2747C126.843 77.8147 126.972 84.364 127.313 90.904C127.828 100.771 128.44 110.623 129.06 120.48C129.193 122.613 129.537 124.723 129.776 126.845C130.033 129.136 129.681 129.831 127.321 129.999C124.199 130.221 121.045 130.132 117.911 130.007C117.225 129.98 116.059 129.34 116.001 128.869C115.893 127.983 116.177 126.799 116.755 126.139C117.627 125.143 118.888 124.489 119.965 123.707C118.755 116.455 117.537 109.164 116.276 101.615C116.009 103.848 115.743 105.881 115.516 107.925C114.829 114.124 114.125 120.325 113.504 126.525C113.336 128.204 112.356 128.815 110.915 128.848C107.581 128.925 104.248 128.928 100.923 128.917C99.6373 128.917 98.3386 128.719 97.9959 127.184C97.64 125.584 98.5519 124.517 99.8626 123.9C101.351 123.195 102.937 122.7 104.481 122.112C104.919 121.945 105.361 121.792 105.645 121.688C105.888 112.121 105.833 102.643 106.445 93.2093C107.067 83.8667 108.356 74.5693 109.344 65.3C108.291 66.012 106.968 66.9 105.648 67.796C98.2106 72.8293 94.9333 72.5333 88.4813 66.3147C86.652 64.548 84.7746 62.8293 82.672 60.856C82.5386 61.9813 82.288 63.0373 82.2866 64.0933C82.2662 83.1573 82.2626 102.221 82.276 121.285C82.276 124.077 82.12 124.239 79.3706 124.24C60.3146 124.248 41.2591 124.253 22.204 124.256C19.3826 124.256 19.036 123.88 19.0226 121.075C18.9053 96.352 18.7866 71.6293 18.6666 46.9067C18.6533 43.9453 18.8346 43.7813 21.7986 43.78L78.2506 43.7493C78.8466 43.7493 79.4506 43.8013 80.036 43.7587C81.7693 43.6333 82.3973 44.512 82.3026 46.136C82.252 46.9667 82.328 47.808 82.2546 48.636C82.072 50.7413 81.932 52.6187 84.048 54.2013C84.916 54.8493 84.7533 56.88 85.0533 58.284C85.1533 58.7507 85.068 59.3907 85.348 59.6627C88.116 62.3507 90.8693 65.064 93.784 67.588C95.4653 69.0427 97.5906 69.256 99.6666 68.3787C103.868 66.604 107.484 63.9427 111.019 60.7413C106.485 58.64 103.497 55.3293 102.124 50.716C101.155 47.464 101.148 44.164 102.249 40.908C104.524 34.18 110.699 29.7587 117.668 29.8693C124.468 29.976 130.715 34.6253 132.632 41.0387C134.576 47.5387 132.704 55.36 124.492 60.372C132.4 66.688 136.348 75.1 137.607 84.9333C137.662 85.5263 137.681 86.122 137.665 86.7173C137.677 88.3733 137.48 89.8227 139.399 91.0227C141.481 92.3213 141.863 97.156 140.609 99.2747C139.229 101.608 136.629 101.881 134.808 99.884C132.889 97.78 132.408 93.916 134.275 91.632C135.533 90.0893 135.664 88.552 135.484 86.8733C134.551 78.1427 131.705 70.2533 125.179 64.0267C123.425 62.3547 121.659 61.2587 118.985 61.8933C117.195 62.3173 115.223 61.9733 112.899 61.9733C112.395 64.5 111.669 67.412 111.252 70.3733C110.349 76.7733 109.252 83.1827 108.879 89.6253C108.359 98.5267 108.42 107.463 108.259 116.384C108.227 118.229 108.315 120.076 108.341 121.923C108.359 123.092 107.839 123.715 106.645 124.039C104.521 124.616 102.451 125.395 100.359 126.089L100.48 126.563H111.173C111.559 123.261 111.941 120.156 112.281 117.045C112.971 110.729 113.633 104.412 114.315 98.096C114.456 96.7973 114.491 95.4613 114.848 94.2213C115.012 93.6493 115.837 93.2667 116.363 92.7987C116.797 93.3427 117.521 93.84 117.62 94.4387C119.107 103.443 120.496 112.461 121.941 121.472C122.515 125.04 122.552 125.033 119.389 126.991C119.095 127.173 118.807 127.367 118.515 127.556C118.533 127.672 118.547 127.793 118.559 127.913ZM21.3586 121.885H80.0306C80.0306 120.981 80.0306 120.275 80.0306 119.568C79.9666 101.219 79.912 82.8689 79.8666 64.5187C79.8666 62.7293 79.5453 61.652 77.7013 60.7387C73.74 58.7787 73.2813 54.6253 76.5613 52.312C77.4373 51.6947 78.6026 51.488 79.82 51.0227V46.0893H21.3546L21.3586 121.885ZM117.579 32.3053C109.993 32.2587 103.768 38.22 103.712 45.5773C103.657 53.5387 109.599 59.7307 117.277 59.7107C124.744 59.6947 130.877 53.4947 130.909 45.9253C130.945 38.1333 125.293 32.3533 117.579 32.3053ZM80.0373 59.2907C81.9186 59.3187 82.9106 58.38 82.8146 57.1827C82.7493 56.3693 81.6 55.5973 80.844 54.9067C80.5013 54.5947 79.952 54.4547 79.472 54.36C78.9106 54.2507 77.9293 54.068 77.8173 54.28C77.3866 55.1 76.8253 56.1853 77.056 56.9467C77.5106 58.452 78.8706 59.1907 80.0373 59.2907ZM139.303 96.2373C138.947 95.1933 138.663 94.176 138.255 93.212C137.729 91.9693 136.987 92.1533 136.313 93.092C135.345 94.4427 135.529 96.9453 136.627 98.256C137.275 99.0307 137.96 99.0733 138.503 98.2333C138.868 97.6653 139.021 96.9613 139.303 96.2373Z" fill="#3A3A3A"/>
<path d="M48.2866 98.0147L44.504 97.3853C44.096 99.7173 43.704 101.976 43.2733 104.409L39.3426 103.361C39.7426 101.215 40.1186 99.136 40.5426 96.852L33.564 95.132C33.9386 93.3787 34.2906 91.728 34.6413 90.084C34.8117 90.0974 34.981 90.1223 35.148 90.1587C38.6346 91.4507 38.7906 91.3867 39.4786 87.664C40.3826 82.7707 41.212 77.8653 42.108 72.9707C42.3346 71.724 41.708 71.0307 40.6786 70.64C39.6493 70.2493 38.5546 69.98 37.3666 69.62C37.5506 68.2973 37.7346 66.9693 37.9386 65.4987L45.632 66.3627C46.108 64.136 46.5653 62.024 47.0306 59.8173L50.7226 60.6587C50.312 62.744 49.9226 64.7373 49.508 66.8173L53.4266 67.6093C54.0093 65.6507 54.5893 63.6987 55.1906 61.6787L58.7186 62.3453C58.2893 64.3893 57.8893 66.2867 57.456 68.352C58.5426 68.9133 59.6733 69.5133 60.8186 70.0853C63.588 71.4747 65.0133 73.6853 64.9213 76.8093C64.832 79.8333 63.4 81.9787 60.892 83.0307C62.004 84.424 63.568 85.684 64.1373 87.2973C64.7066 88.9107 64.6613 90.964 64.2026 92.6307C62.92 97.312 60.1453 98.668 52.3013 98.884C51.9586 100.484 51.4413 102.128 51.2973 103.801C51.144 105.571 50.468 105.988 48.9066 105.319C48.38 105.093 47.8146 104.953 47.196 104.751C47.5573 102.501 47.908 100.344 48.2866 98.0147ZM45.3 92.548C48.3333 92.8773 51.18 93.3267 54.0413 93.4467C55.7933 93.5187 57.328 91.9307 57.5853 90.24C57.852 88.4747 57.0426 87.0507 55.4893 86.5067C52.7933 85.564 49.976 84.9667 47.0106 84.1707C46.4066 87.132 45.892 89.6493 45.3 92.5493V92.548ZM47.3146 80.2813C50.2666 80.14 52.844 80.1213 55.3946 79.8507C56.6306 79.7173 57.7586 79.0787 57.9986 77.576C58.2386 76.0733 57.7786 74.8467 56.4906 74.06C54.128 72.6173 51.492 72.1933 48.712 72.0093C48.2666 74.6667 47.8426 77.1547 47.3146 80.2827V80.2813Z" fill="#F7931B"/>
<path d="M116.297 56.312C113.324 56.2907 111.255 54.468 111.472 52.064C111.605 50.5733 112.376 50.18 113.591 51.0547C115.739 52.6053 117.857 52.32 120.064 51.1733C120.617 50.8853 121.325 50.892 121.963 50.7627C121.956 51.4187 122.116 52.1333 121.911 52.72C121.153 54.8627 118.769 56.3307 116.297 56.312Z" fill="#3A3A3A"/>
<path d="M109.241 43.964L111.655 40.984C112.105 41.6307 112.887 42.2533 112.935 42.928C113.021 44.1547 112.68 45.5733 111.225 45.8107C110.755 45.8867 110.096 44.8 109.241 43.964Z" fill="#3A3A3A"/>
<path d="M122.191 43.3827L119.855 46.2453C119.404 45.6373 118.655 45.0733 118.561 44.412C118.34 42.9453 119.545 41.1573 120.399 41.4787C121.003 41.6987 121.395 42.4973 122.191 43.3827Z" fill="#3A3A3A"/>
</svg>
