<svg width="160" height="160" viewBox="0 0 160 160" fill="none" xmlns="http://www.w3.org/2000/svg">
<path d="M112.473 89.6107C109.552 93.4227 106.719 97.0107 104.016 100.693C102.732 102.441 103.428 104.46 103.799 106.336C104.619 110.495 105.549 114.632 106.437 118.777C106.945 121.151 106.328 122.017 103.925 122.101C100.471 122.223 97.0133 122.327 93.5573 122.316C92.8546 122.316 91.6373 121.863 91.5639 121.455C91.4279 120.707 91.7333 119.6 92.2666 119.067C93.6399 117.72 95.2466 116.609 96.6546 115.488C95.8079 111.813 94.8959 108.236 94.1759 104.62C93.5626 101.54 93.7079 98.4867 95.5773 95.7774C97.5306 92.9414 99.3786 90.0107 101.565 87.3627C103.489 85.0333 104.161 82.652 103.404 79.756C102.799 77.44 102.329 75.0893 101.725 72.4227C97.6066 75.852 93.1239 76.768 88.3253 76.6107C83.7799 76.4627 79.0399 77.1347 75.0106 73.4014C74.0906 74.368 73.0106 75.4627 71.9826 76.6014C71.4853 77.1507 70.9946 78.12 70.2493 77.3187C69.8146 76.852 69.6959 75.668 69.9826 75.052C70.3933 74.168 71.2746 73.4934 71.9946 72.7667C72.4066 72.3493 72.8959 72.008 73.5413 71.4747L71.9413 70.2893C67.1093 73.444 62.0973 76.4747 57.3826 79.9133C55.4466 81.3253 54.0346 83.5334 52.6066 85.5374C51.5746 86.9867 51.9053 87.7267 53.4066 88.624C64.1253 95.0333 67.2253 109.723 59.7759 119.741C54.8879 126.316 47.9813 128.748 39.9986 128.033C33.8466 127.483 28.2653 125.381 23.8306 120.825C20.7239 117.635 19.1519 113.733 18.7706 109.388C18.2213 103.121 19.8639 97.4787 23.8879 92.5387C27.4399 88.1773 32.1799 86.1973 37.5413 85.3573C38.7639 85.1653 40.0039 85.0813 41.7093 84.896C41.4426 83.192 41.4666 81.372 40.8439 79.8107C39.7773 77.1334 38.5053 74.488 36.9586 72.06C32.1853 64.5734 31.4666 56.7867 34.4759 48.48C37.1066 41.2374 42.1466 36.5534 49.4239 34.512C57.2693 32.3107 63.9266 35.0734 69.6773 40.4134C74.4853 44.8774 76.8973 50.524 77.3239 56.9934C77.4573 58.94 77.0359 60.9214 76.8533 63.0854C82.8359 62.54 88.0226 59.7213 93.4959 57.7147C91.9119 56.632 90.4293 55.4587 88.8079 54.548C85.6653 52.7867 84.3813 49.8573 83.9599 46.6027C82.9493 38.796 89.0906 31.8894 96.8546 31.8454C104 31.804 110.088 38.2334 109.573 45.4667C109.427 47.508 108.729 49.5094 108.259 51.652C111.701 54.0027 114.191 57.576 116.359 61.3854C120.455 68.5774 122.849 76.3187 123.825 84.5414C124.34 88.864 125.044 93.1694 125.795 97.46C125.991 98.5028 126.471 99.4715 127.181 100.26C131.485 104.876 135.873 109.413 140.248 113.963C141.249 115.004 141.816 116.18 140.781 117.393C138.449 120.123 135.848 122.579 132.188 123.379C130.844 123.672 129.399 123.664 128.013 123.572C126.628 123.48 126.101 122.121 127.047 120.929C128.179 119.504 129.515 118.241 130.825 116.841C128.516 114.825 126.088 112.783 123.748 110.645C121.516 108.605 119.348 106.489 117.215 104.356C116.779 103.887 116.462 103.32 116.291 102.703C115.031 98.4974 113.827 94.2814 112.473 89.6107ZM76.8413 71.7227C77.8519 73.3227 79.1253 73.8333 80.5133 73.9893C82.9266 74.256 85.3679 74.632 87.7693 74.4893C90.6413 74.32 93.6466 74.0894 96.3026 73.108C101.503 71.1854 103.844 66.832 104.659 61.544C104.792 60.7053 104.856 59.6507 106.055 59.76C107.373 59.88 107.163 61.0107 106.893 61.76C105.98 64.32 104.877 66.812 103.953 69.3694C103.672 70.1467 103.511 71.1027 103.687 71.8854C104.185 74.188 104.912 76.4387 105.492 78.7253C106.425 82.3814 105.964 85.6214 103.311 88.6374C101.044 91.2094 99.2279 94.184 97.3293 97.0587C96.1093 98.9067 95.5866 100.977 96.1399 103.228C97.0466 106.924 97.8453 110.648 98.8466 114.317C99.2373 115.751 98.9413 116.695 97.7906 117.517C96.6399 118.34 95.5133 119.224 94.3053 120.136H104.361C104.333 119.541 104.361 119.167 104.293 118.813C103.493 114.921 102.751 111.015 101.835 107.149C100.919 103.284 101.271 99.8933 104.055 96.7774C106.78 93.7254 109.184 90.3853 111.788 87.2227C112.216 86.704 112.964 86.452 113.564 86.076C113.912 86.7067 114.404 87.2987 114.584 87.9734C115.767 92.432 116.864 96.9067 118.051 101.373C118.223 102.045 118.564 102.662 119.041 103.165C121.378 105.481 123.757 107.759 126.179 110C128.28 111.934 130.426 113.82 132.617 115.659C133.837 116.684 133.524 117.591 132.581 118.488C131.587 119.435 130.528 120.315 129.421 121.288C132.621 121.688 137.555 118.791 138.833 116.119C134.076 110.931 129.395 105.852 124.773 100.733C124.268 100.172 123.939 99.3253 123.816 98.564C123.003 93.52 122.207 88.472 121.523 83.4094C120.473 75.6374 118.056 68.3293 113.969 61.6533C112.407 59.1027 110.316 56.868 108.387 54.5547C107.709 53.7427 106.787 53.168 105.793 54.2573C103.76 56.4867 101.1 57.3867 98.2279 57.8573C97.1106 58.0413 96.3613 58.484 96.5173 59.8707C96.6506 61.0987 96.5546 62.3533 96.5453 63.596C96.5213 66.968 95.0519 69.228 91.7799 70.032C88.8746 70.7453 85.8573 71.032 82.8746 71.3854C80.9773 71.6 79.0546 71.6067 76.8413 71.7227ZM49.5199 86.616C51.6319 82.5694 54.2506 79.0454 58.0106 76.552C61.4173 74.2934 64.9879 72.2854 68.4106 70.0534C72.8666 67.1507 74.9946 63.0133 74.9173 57.6413C74.8186 50.7587 71.9613 45.2294 66.7586 40.9534C61.5559 36.6774 55.5666 34.9534 48.9693 37.112C44.2786 38.6467 40.5986 41.6547 38.7346 46.3294C37.3919 49.6974 37.6426 53.3267 37.9959 56.8827C38.3599 60.536 40.0373 63.7507 41.5506 67.016C44.2666 72.8587 45.9919 78.8107 43.5293 85.2L49.5199 86.616ZM61.5199 105.045C61.2626 99.0907 57.5479 92.9947 50.0439 89.388C46.2173 87.548 42.1559 87.1214 37.9213 87.5694C34.2013 87.9694 31.1213 89.3547 29.1359 92.5507C24.2026 100.484 23.8186 108.817 27.8519 117.14C29.7933 121.14 32.7039 124.616 37.5573 125.429C39.4172 125.733 41.2995 125.878 43.1839 125.863C53.6799 125.807 61.5613 117.821 61.5253 105.045H61.5199ZM92.0533 54.6587C94.6639 55.8854 96.8786 56.236 99.0853 55.7987C104.673 54.6907 108.8 48.1867 107.467 42.5787C106 36.3894 100.204 32.592 94.3399 34.16C90.2719 35.248 87.3946 37.8494 86.2413 41.96C85.1613 45.8107 86.0013 49.3213 88.8919 52.2027C89.2133 52.5227 89.7959 52.8307 90.1999 52.7693C91.5159 52.5667 92.7959 52.1494 94.1066 51.904C94.5439 51.8214 95.0306 52.0067 95.4946 52.0693C95.2599 52.5787 95.1586 53.3054 94.7586 53.5547C93.9679 54.0534 93.0079 54.292 92.0599 54.6587H92.0533ZM74.6133 69.812C76.4093 69.6787 78.0719 69.6 79.7226 69.4213C83.3506 69.028 87.0039 68.7547 90.5866 68.1027C93.2733 67.6107 94.3119 66.1534 94.5333 63.5C94.6346 62.2827 94.5506 61.0493 94.5506 59.616C92.7053 60.3667 91.0719 61.1627 89.3506 61.704C85.3319 62.9747 81.3119 64.2867 77.2173 65.256C75.0373 65.772 73.6413 67.7334 74.6133 69.812ZM27.7039 121.097C22.3533 113.289 21.8666 106.012 25.6893 93.9267C18.6933 101.121 19.6213 115.897 27.7039 121.097ZM36.2373 49.592C35.9093 50.0414 35.7119 50.196 35.6706 50.3854C34.8373 54.2374 34.4239 58.0747 35.0626 62.0453C36.0386 68.112 40.6839 72.3427 42.5933 77.92C42.2519 74.1654 40.9746 70.72 39.3066 67.4067C36.5213 61.876 34.8586 56.1574 36.2426 49.592H36.2373Z" fill="#3A3A3A"/>
<path d="M61.2147 50.408C67.092 53.6373 65.56 57.7933 61.6147 59.8853C64.5587 64.76 62.004 68.232 55.1627 68.5786C54.7334 69.912 54.2974 71.2706 53.8294 72.712L51.4294 72.1106C51.868 70.4893 52.28 68.964 52.712 67.3626L50.1574 66.5333C49.9254 67.3333 49.7107 68.0866 49.4907 68.84C48.8014 71.18 48.7427 71.2026 46.3574 70.032C46.7414 68.6773 47.1307 67.304 47.5574 65.7946L43.7454 64.3466L44.6987 61.876C47.592 62.636 47.592 62.636 48.52 59.7826C49.3814 57.1333 50.2227 54.4773 51.1094 51.8373C51.7107 50.0426 51.576 49.7773 49.6707 49.3373C49.312 49.2533 48.9694 49.1 48.484 48.9373C48.676 48.1373 48.8587 47.384 49.0747 46.492L53.2534 47.4973L55.164 42.7546L57.7334 43.6706C57.2307 45.204 56.7507 46.6626 56.22 48.2813L58.6574 49.3746C59.1987 47.8453 59.724 46.3653 60.2974 44.7333L62.9334 45.5826L61.2147 50.408ZM50.7814 64.0826C52.7814 64.4826 54.7 65.0613 56.6387 65.1413C57.3574 65.1706 58.3947 64.1546 58.772 63.3666C59.0294 62.8333 58.624 61.4693 58.1147 61.1786C56.428 60.216 54.5587 59.5786 52.648 58.7586C51.9814 60.6666 51.4347 62.224 50.7814 64.0826ZM54.968 51.2986C54.36 53.1386 53.8814 54.588 53.276 56.4226C55.2 56.6666 56.98 57.0666 58.7494 57.0453C59.4534 57.0333 60.476 56.2013 60.7334 55.5106C60.9307 54.9773 60.348 53.7613 59.7747 53.4226C58.304 52.5573 56.6454 52.0106 54.968 51.2986Z" fill="#F7931B"/>
<path d="M37.816 96.7067L39.3413 94.6667L43.1573 96.46C44.0613 95.408 44.8467 94.344 45.824 93.4894C46.016 93.3214 46.9187 93.96 47.6907 94.316L45.6 97.952L47.3333 99.172L49.724 95.9027L51.632 96.9414L49.3307 100.843C51.2133 102.816 53.1093 104.883 51.6453 108.012C50.8773 109.656 49.6973 110.207 47.6213 110.055C47.872 111.052 48.4133 112.109 48.308 113.097C48.2027 114.085 47.6 115.139 46.9427 115.933C44.7493 118.588 42.0773 118.117 39.2907 116.748L36.9973 120.152L34.7867 118.933L37.244 115.357L35.1107 113.729L32.6867 117.401L31.0053 116.452L33.052 112.612L30.0173 110.267L31.5893 108.073C33.76 109.385 33.856 109.363 35.2493 107.245C36.6973 105.04 38.1587 102.845 39.5853 100.625C40.9093 98.5694 40.8827 98.512 38.8413 97.304C38.5653 97.1454 38.288 96.984 37.816 96.7067ZM39.848 107.217L36.8827 111.372C37.896 112.047 38.832 112.672 39.772 113.292C39.996 113.44 40.2293 113.576 40.4627 113.709C41.7107 114.423 42.9333 114.509 43.988 113.392C44.752 112.592 44.5387 110.992 43.3907 109.925C42.3427 108.951 41.112 108.171 39.848 107.217ZM41.2827 104.828C42.7093 105.531 44.0307 106.341 45.464 106.812C46.0613 107.008 47.124 106.691 47.5533 106.221C47.9173 105.821 47.9733 104.647 47.644 104.203C46.6627 102.883 45.424 101.752 44.2373 100.497L41.2827 104.828Z" fill="#F7931B"/>
<path d="M91.3334 45.3334L89.6001 47.0667C89.2121 46.512 88.5094 45.9507 88.5214 45.404C88.5334 44.7747 89.1774 44.1574 89.5481 43.5374L91.3334 45.3334Z" fill="#3A3A3A"/>
</svg>
