<svg width="160" height="160" viewBox="0 0 160 160" fill="none" xmlns="http://www.w3.org/2000/svg">
<path d="M33.9054 60.7694C28.3574 57.2427 25.9214 51.276 27.5441 45.412C29.0774 39.8667 34.3468 35.5694 39.6001 35.2C47.5148 34.6347 52.2668 39.8094 53.8148 44.3174C54.9988 47.7574 54.7868 51.1494 53.3094 54.4627C51.8428 57.7414 49.3094 59.9454 45.7001 61.608C48.0268 64.6107 50.1001 67.5027 52.4188 70.1974C53.6108 71.5867 55.2974 72.0547 57.2414 71.5107C59.4268 70.9 61.6708 70.4814 63.9081 70.0707C64.9161 69.8854 65.3028 69.3094 65.4188 68.4067C65.7574 65.7867 66.1201 63.1707 66.4241 60.5467C66.7121 58.0587 68.2708 56.524 70.6468 56.8C74.8134 57.2827 78.9721 57.8574 83.1081 58.5494C85.6988 58.9814 86.7294 60.708 86.3241 63.2787C85.9041 65.9454 85.5361 68.612 85.1721 71.2787C85.1041 71.776 85.1628 72.2894 85.1628 72.708C86.8268 73.12 88.4187 73.3747 89.9068 73.908C94.4921 75.5614 96.9361 79.528 96.4548 84.344C96.2334 86.56 95.9214 88.768 95.7641 90.988C95.5494 93.9787 96.5334 96.4147 99.3988 97.752C102.363 99.1374 104.959 98.244 107.288 96.2507C110.247 93.7174 111.761 90.3614 112.673 86.6587C113.289 84.156 113.991 81.676 114.564 79.5214C112.001 77.9214 109.38 76.7 107.261 74.888C102.005 70.3987 100.195 64.3787 100.816 57.6694C101.459 50.68 104.705 45.0574 110.564 41.0947C120.139 34.6187 133.281 38.396 138.288 49.1107C143.843 60.9987 137.755 76.46 123.993 79.3347C121.701 79.8134 119.288 79.712 116.653 79.8987C115.891 82.7574 115.124 86.008 114.148 89.1947C113.033 92.832 111.128 96.008 108.031 98.3534C105.005 100.643 101.776 101.224 98.2854 99.4934C94.8988 97.8134 93.6681 94.8334 93.6561 91.3054C93.6494 89.404 93.9388 87.4734 94.3227 85.6027C95.5094 79.7974 91.9974 76.0667 86.9801 75.188C86.2761 75.0654 85.5681 74.964 84.7134 74.8294C84.3268 77.7134 83.9654 80.472 83.5868 83.2294C83.2974 85.332 83.0534 87.4467 82.6628 89.5294C82.3001 91.4374 80.6628 92.5627 78.7881 92.304C74.5303 91.7174 70.2756 91.108 66.0241 90.476C63.8721 90.156 62.8041 88.9294 62.9574 86.7427C63.1241 84.4187 63.4908 82.108 63.7654 79.7907C63.8428 79.132 63.8988 78.472 63.9681 77.7494C58.5334 79.5507 53.2001 81.6427 47.6254 77.5867C47.7788 79.8054 47.8588 81.7467 48.0561 83.676C49.1001 93.884 50.6494 104.009 52.9681 114.013C53.2348 115.184 53.6108 115.747 54.9374 115.847C56.2249 115.954 57.4769 116.324 58.6161 116.933C59.2668 117.28 59.9828 118.297 59.9281 118.951C59.8774 119.569 58.9508 120.417 58.2468 120.628C55.1361 121.575 51.9694 122.336 48.8201 123.152C47.5854 123.472 46.7321 123.208 46.3841 121.788C44.6668 114.773 42.8908 107.769 41.1548 100.757C40.8734 99.6187 40.6868 98.4587 40.3748 97.3147C39.9161 104.115 38.0801 110.613 36.0921 117.061C35.7281 118.24 35.9881 118.661 37.0254 119.153C38.0308 119.633 39.0441 120.304 39.7388 121.153C40.2081 121.725 40.4441 122.856 40.2054 123.531C40.0001 124.109 38.9854 124.731 38.3041 124.755C35.3041 124.888 32.2908 124.879 29.2881 124.777C27.5974 124.72 26.9668 124.057 27.1441 122.403C27.4868 119.22 28.0948 116.067 28.4921 112.889C29.1161 107.904 29.7694 102.919 30.2028 97.9147C30.7001 92.1814 30.9681 86.4214 31.1468 80.5814C30.7081 81.5787 30.2974 82.5907 29.8254 83.5734C28.1548 87.04 26.8081 90.596 26.8108 94.5267C26.8126 94.89 26.7678 95.2521 26.6774 95.604C26.1734 97.5054 24.5348 98.9374 22.9828 98.8707C21.3508 98.7934 19.6201 97.1614 19.6654 95.144C19.7115 92.3081 20.0186 89.4824 20.5828 86.7027C21.373 82.9667 22.3701 79.2775 23.5694 75.652C25.5134 69.748 29.3561 65.076 33.9054 60.7694ZM57.1494 118.851C57.1494 118.717 57.1494 118.584 57.1494 118.451C55.6894 118.184 54.2361 117.827 52.7628 117.664C51.8814 117.567 51.5628 117.295 51.3974 116.385C50.0894 108.955 48.5481 101.561 47.4054 94.1054C46.5281 88.372 46.0428 82.5747 45.5388 76.792C45.1841 72.704 45.1121 68.5934 44.8721 64.4947C44.7828 62.944 43.9988 62.396 42.5321 62.3734C40.5841 62.3454 38.6401 62.1067 36.6921 62.016C36.2921 61.996 35.7588 62.0614 35.4921 62.308C31.9361 65.5347 28.7001 69.0187 26.6481 73.452C23.8428 79.516 22.5334 85.9867 21.5401 92.5334C21.3908 93.52 21.5868 94.604 21.8401 95.5867C21.9534 96.0267 22.5788 96.5814 23.0148 96.6227C23.4508 96.664 24.1148 96.2067 24.3174 95.792C24.6681 95.0747 24.7761 94.2267 24.9188 93.4227C25.2588 91.4947 25.2428 89.436 25.9361 87.6494C28.0294 82.2574 30.3921 76.9707 32.6468 71.6414C32.9681 70.8827 33.4468 70.0414 34.3094 70.5547C34.7094 70.7907 34.8161 71.888 34.7028 72.532C34.4988 73.6894 33.8121 74.7814 33.7054 75.9347C33.3001 80.3294 32.9801 84.7294 32.7454 89.1347C32.2428 98.7734 31.5614 108.387 29.6561 117.873C29.3374 119.463 29.1694 121.081 28.9228 122.743H37.9548C38.0054 122.609 38.0561 122.489 38.1054 122.363C37.4588 121.908 36.8481 121.387 36.1588 121.009C33.3588 119.479 33.2828 119.472 34.2774 116.489C36.7254 109.139 37.7734 101.505 38.9441 93.8947C39.0708 93.0747 39.1148 92.3414 40.2001 92.2947C41.3628 92.236 41.5614 93.0854 41.7348 93.8947C42.6028 97.9347 43.3654 101.997 44.2988 106.021C45.4614 111.04 46.7548 116.021 48.0668 121.327L57.1494 118.851ZM120.735 40.176C120.7 40.0427 120.664 39.916 120.629 39.7854C118.363 40.4 115.972 40.7534 113.829 41.6747C105.6 45.2174 101.333 54.3854 103.255 63.9507C105.655 75.8347 119.985 81.6254 129.856 74.5867C136.188 70.072 138.648 63.7227 137.932 56.0534C137.075 46.86 129.84 40.164 120.735 40.176ZM52.4841 48.7254C52.6334 42.2027 47.1001 37.012 40.8628 37.1014C34.3908 37.1934 28.8628 42.6947 29.0161 49.0454C29.1868 56.3667 35.4828 60.88 41.4668 60.5614C47.4508 60.2427 52.5721 54.9614 52.4841 48.7254ZM78.8614 90.192C80.0201 90.3774 80.7281 89.9707 80.8508 88.584C80.9934 86.936 81.3028 85.304 81.5268 83.6627C82.4894 76.5818 83.4472 69.5009 84.4001 62.42C84.5334 61.4 84.0894 60.676 83.0254 60.5267C78.8214 59.9334 74.6134 59.3667 70.4001 58.8C69.4254 58.6667 68.8001 59.08 68.6028 60.068C68.4921 60.628 68.3841 61.1894 68.3041 61.7534C67.5148 67.34 66.7281 72.9271 65.9441 78.5147C65.5788 81.1298 65.2232 83.7467 64.8774 86.3654C64.7321 87.4734 65.0321 88.3787 66.2894 88.5507C70.4494 89.1147 74.6094 89.6387 78.8614 90.1907V90.192ZM46.9788 66.884C47.1014 69.0507 47.1774 70.8334 47.3188 72.6174C47.3734 73.316 47.3628 74.1654 47.7468 74.664C48.9734 76.264 50.5721 77.3454 52.6321 77.7214C56.0108 78.3374 59.0628 77.1494 62.1548 76.144C64.6548 75.3307 64.9721 74.7987 64.6548 72C62.8414 72.4094 61.0174 72.744 59.2388 73.2374C55.2228 74.352 51.8748 73.664 49.4588 69.98C48.8201 69 48.0001 68.1454 46.9788 66.884Z" fill="#3A3A3A"/>
<path d="M126.8 47.9373L125.789 52.2346C130.212 55.2506 130.404 57.78 126.456 60.932C128.189 63.324 128.379 65.1466 127.104 67.2146C125.869 69.2146 123.647 70.1093 120.909 69.6146L119.784 73.6293L117.495 73.188L118.521 69.0026L116.504 68.3733C116.141 69.7533 115.789 71.088 115.409 72.532L112.924 71.8933C113.143 70.548 113.353 69.2453 113.591 67.8013C112.761 67.524 111.955 67.2186 111.128 66.9893C110.061 66.6933 109.457 66.232 110.111 65.0346C110.327 64.6346 110.403 64.1626 110.536 63.748C110.68 63.7106 110.792 63.64 110.867 63.668C113.768 64.7653 113.533 64.468 114.067 61.9533C114.383 60.4386 114.769 58.9386 115.103 57.4266C115.423 55.9733 115.715 54.5133 116.045 52.9266L113.551 52.0213C113.843 50.908 114.109 49.888 114.416 48.7133L118.775 50.0466L120.015 45.6093L122.201 46.2226C121.859 47.728 121.535 49.156 121.189 50.6653L123.2 51.1853C123.424 50.528 123.663 49.9186 123.843 49.2906C124.444 47.1893 124.436 47.1866 126.8 47.9373ZM117.016 65.5013C118.44 65.9306 119.756 66.5946 121.092 66.64C122.071 66.6733 123.283 66.096 123.983 65.3866C124.317 65.048 123.975 63.2906 123.473 63.0106C121.824 62.092 119.963 61.5533 118.1 60.8373C117.688 62.6093 117.375 63.9546 117.016 65.5013ZM118.533 58.4106C120.251 58.6053 121.771 58.9186 123.285 58.8893C123.975 58.876 125.085 58.3 125.221 57.776C125.389 57.1293 124.955 55.936 124.403 55.5693C123.032 54.6693 121.439 54.1026 119.78 53.336L118.533 58.4106Z" fill="#F7931B"/>
<path d="M43.4401 57.4107C41.9734 56.8773 40.4654 56.3987 39.0401 55.744C38.6907 55.584 38.6094 54.8387 38.4041 54.3613C38.8961 54.3013 39.4921 54.0293 39.8614 54.2133C42.1281 55.3467 44.3854 55.5133 46.7441 54.5147C47.0441 54.388 47.5241 54.6867 47.9201 54.788C47.7574 55.2347 47.7107 55.952 47.4121 56.0813C46.2027 56.6 44.9174 56.9333 43.4401 57.4107Z" fill="#3A3A3A"/>
<path d="M42.3386 46.8253C41.5186 47.7413 41.0053 48.8413 40.3719 48.9106C39.1439 49.044 39.0999 47.7693 39.0959 46.8733C39.0959 45.924 39.1239 44.6133 40.4013 44.6933C40.9999 44.7306 41.5279 45.8853 42.3386 46.8253Z" fill="#3A3A3A"/>
<path d="M49.532 47.2294C48.7013 48.108 48.2093 49.096 47.5666 49.2067C46.424 49.4054 46.2426 48.256 46.2666 47.3854C46.2933 46.452 46.2186 45.1027 47.476 45.1107C48.076 45.1147 48.6666 46.2907 49.532 47.2294Z" fill="#3A3A3A"/>
<path d="M70.212 72.9427L71.876 73.0973C72.2213 71.6307 72.636 70.1947 72.8506 68.736C72.912 68.316 72.3946 67.8107 71.9613 67.4107C71.828 66.7 71.8906 66.0453 73.084 66.1293C73.4506 66.156 73.884 65.272 74.4173 64.6453H75.444C75.5506 65.3893 75.6466 66.056 75.736 66.6733L77.1826 65.8667C77.3333 66.316 77.4826 66.7667 77.708 67.4373C79.3706 68.6507 79.452 69.3853 77.9493 71.4893C79.1666 73.8227 78.8066 74.6893 76.292 75.74C75.9493 75.884 75.7866 76.416 75.492 76.7173C75.1973 77.0187 74.848 77.2413 74.2813 77.6907C74.3266 75.5893 74.3266 75.5893 73.4813 75.2347C72.9813 75.8173 73.464 77.3973 71.7386 76.9093C71.8346 76.2853 71.92 75.7347 72.024 75.0667L70.1333 74.376C70.152 73.9653 70.1773 73.5213 70.212 72.9427ZM73.4666 73.768C74.5666 73.768 75.484 73.792 76.4 73.732C76.4946 73.732 76.688 73.028 76.6146 72.98C75.8506 72.468 75.0413 72.024 74.1453 71.504C73.9013 72.296 73.756 72.78 73.4666 73.768ZM74.7653 67.8667C74.5546 68.9333 74.4506 69.4667 74.276 70.3533C75.1906 70.2533 75.9333 70.2093 76.6546 70.0573C76.788 70.0307 76.9533 69.3787 76.868 69.3093C76.2853 68.8387 75.64 68.448 74.7653 67.8667Z" fill="#F7931B"/>
<path d="M69.828 83.516C69.8248 83.0361 69.9169 82.5603 70.099 82.1163C70.2811 81.6723 70.5496 81.2689 70.8888 80.9294C71.228 80.5899 71.6313 80.3212 72.0752 80.1387C72.5191 79.9563 72.9947 79.8638 73.4747 79.8667C75.4893 79.848 77.084 81.476 77.0747 83.548C77.0747 85.6947 75.5027 87.172 73.2773 87.1253C72.8132 87.1171 72.3553 87.0169 71.93 86.8306C71.5048 86.6443 71.1208 86.3755 70.8 86.0399C70.4793 85.7043 70.2282 85.3085 70.0614 84.8753C69.8946 84.442 69.8152 83.9801 69.828 83.516ZM75.216 83.6693C75.1907 82.492 74.568 81.7893 73.4413 81.7613C72.3813 81.736 71.716 82.36 71.6787 83.48C71.6413 84.6 72.2533 85.2 73.36 85.2347C74.432 85.272 75.14 84.8253 75.216 83.6693Z" fill="#F7931B"/>
</svg>
