<svg width="160" height="160" viewBox="0 0 160 160" fill="none" xmlns="http://www.w3.org/2000/svg">
<path d="M104.449 128.857L113.783 128.308C114 126.78 114.293 125.261 114.4 123.733C114.8 118.347 115.119 112.955 115.489 107.565C115.691 104.647 115.877 101.724 116.207 98.8187C116.271 98.2547 116.968 97.7627 117.373 97.2387C117.868 97.7494 118.687 98.196 118.805 98.7827C119.472 102.079 119.92 105.419 120.532 108.727C121.541 114.179 122.543 119.636 123.719 125.053C124.02 126.444 123.556 127.036 122.509 127.587C121.64 128.044 120.791 128.541 120.061 129.377H128.209C127.441 119.975 126.693 110.808 125.943 101.644C125.393 94.8 124.857 87.9547 124.267 81.1187C124.156 79.8387 123.792 78.5854 123.637 77.3027C123.54 76.5027 123.307 75.472 124.513 75.264C125.72 75.056 125.676 76.1214 125.764 76.836C126.423 82.184 127.176 87.5267 127.631 92.8934C128.307 100.909 128.697 108.949 129.336 116.969C129.635 120.711 130.241 124.428 130.692 128.159C130.972 130.483 130.387 131.26 128 131.359C125.088 131.483 122.16 131.589 119.255 131.424C117.285 131.313 116.709 129.572 118.099 128.001C119.032 126.941 120.307 126.176 121.453 125.259C120.265 119.04 119.053 112.684 117.839 106.325H117.671C117.511 108.955 117.368 111.585 117.185 114.212C116.855 118.923 116.509 123.634 116.149 128.345C116.071 129.383 115.657 130.243 114.483 130.336C111.283 130.589 108.083 130.912 104.883 130.949C103.923 130.96 102.544 130.369 102.083 129.616C101.356 128.416 102.265 127.184 103.337 126.48C104.777 125.535 106.356 124.8 108.137 123.836C107.604 106.837 107.651 89.5694 109.688 72.0347C108.267 73.8667 106.992 75.4814 105.733 77.1014C103.081 80.5307 100.987 81.2707 96.784 80.0454C95.0186 79.5307 93.3026 78.82 91.6066 78.0947C90.728 77.72 90.1 77.6427 89.1693 78.1907C86.5613 79.728 83.8093 79.688 81.1693 78.1787C79.9693 77.492 78.9226 76.5627 79.2426 74.9467C79.536 73.4547 80.7493 72.7747 82.032 72.6294C83.3146 72.484 83.776 72.1614 83.7893 70.824C83.7893 70.3707 84.7773 69.608 85.38 69.536C88.4733 69.1667 91.1786 71.5227 91.5133 74.6334C91.56 75.0734 91.8093 75.752 92.1253 75.8627C94.5946 76.7294 97.076 77.596 99.612 78.2307C101.148 78.6134 102.488 77.7987 103.455 76.5934C105.917 73.5267 108.329 70.4174 110.853 67.208C106.148 64.5094 103.367 60.556 103.007 55.1574C102.728 50.972 104.116 47.2907 107.056 44.2814C113.007 38.196 122.389 38.5787 128.232 45.188C133.351 50.9774 133.299 60.7374 124.708 66.6774C132.731 73.5027 135.531 82.752 136.851 92.7054C136.916 93.1974 137.391 93.8054 137.843 94.0494C140.243 95.3494 141.164 97.4267 141.261 100.016C141.317 101.516 140.935 102.837 139.567 103.627C138.167 104.436 136.799 103.908 135.585 103.173C132.859 101.524 132.213 97.012 134.213 94.5267C134.553 94.104 134.808 93.4027 134.732 92.8854C133.741 86.1907 132.199 79.6467 128.367 73.9294C127.189 72.18 125.624 70.6667 124.133 69.1627C123.179 68.2 122 68.068 120.568 68.3334C118.728 68.6734 116.779 68.628 114.899 68.476C112.677 68.2947 112.421 68.3707 112.107 70.6454C110.075 85.3 109.66 100.031 110.037 114.8C110.112 117.727 110.244 120.653 110.393 123.577C110.469 125.071 110.003 125.957 108.408 126.377C106.955 126.761 105.608 127.571 104.223 128.193L104.449 128.857ZM117.075 66.4894C123.689 66.6467 129.293 61.2134 129.484 54.4574C129.664 48.0814 124.123 42.2547 117.721 42.0867C110.921 41.908 105.131 47.3574 105.073 54.0694C105.011 61.3934 111.364 66.8574 117.075 66.4894ZM81.248 75.2094C82.7986 76.8934 84.324 77.0414 85.9146 76.908C87.5053 76.7747 89.5333 75.372 89.3666 74.424C89.0853 72.824 87.8026 72.22 86.3626 71.9C86.2786 71.8814 86.1693 71.9787 86.0746 72.0334C86.248 74.5254 86.2466 74.5187 83.644 74.816C82.9653 74.8867 82.296 75.032 81.248 75.2094ZM135.175 97.7134C135.344 99.3307 135.915 100.556 137.207 101.353C138.273 102.011 139.236 101.557 139.109 100.344C138.965 99.1504 138.575 97.9995 137.964 96.964C137.649 96.4227 136.711 96.2467 136.053 95.9067L135.175 97.7134Z" fill="#3A3A3A"/>
<path d="M21.008 89.7733H51.424C51.824 89.7733 52.2906 89.6493 52.588 89.8213C53 90.0587 53.5386 90.524 53.5386 90.888C53.5386 91.2213 52.904 91.8213 52.5253 91.8427C50.6813 91.9427 48.8293 91.888 46.8053 91.888C46.8973 93.3333 46.9706 94.4973 47.0586 95.8947C48.1373 95.8947 49.1373 95.8227 50.1173 95.9307C50.5053 95.9733 50.8493 96.4187 51.2133 96.6813C50.9333 97.0533 50.72 97.6413 50.3573 97.756C49.5485 97.9935 48.7096 98.1129 47.8666 98.1107C43.1333 98.1733 38.4 98.2213 33.6653 98.1973C32.852 98.1973 32.04 97.8187 31.1 97.5827C31.9786 96.36 31.9786 96.36 35.5693 95.808V92.164C35.012 92.1373 34.4186 92.0867 33.8266 92.0867C30.0506 92.0867 26.2729 92.0964 22.4933 92.116C19.9373 92.1253 18.76 91.0227 18.76 88.4347C18.7333 78.7413 18.7271 69.048 18.7413 59.3547C18.7413 57.192 19.6226 56.304 21.808 56.2973C27.2186 56.2787 32.6293 56.2973 38.0386 56.2867C45.6466 56.2751 53.2546 56.2573 60.8626 56.2333C63.168 56.2333 63.736 56.7907 63.7386 59.112C63.7475 67.3973 63.7475 75.6818 63.7386 83.9653C63.7386 84.5533 63.5573 85.1413 63.46 85.7293C62.9373 85.508 62.424 85.2547 61.8853 85.0773C61.3693 84.9067 60.8266 84.7067 60.2946 84.7067C47.6146 84.692 34.9346 84.7067 22.2546 84.6893C21.1693 84.6893 20.6906 84.9947 20.8 86.1253C20.9173 87.2893 20.9333 88.4613 21.008 89.7733ZM61.66 82.448C61.66 74.64 61.66 67.1587 61.66 59.6773C61.66 58.4973 60.9413 58.3107 59.988 58.3147C56.7773 58.328 53.5666 58.3147 50.3573 58.3227C41.4586 58.3609 32.5604 58.408 23.6626 58.464C20.8626 58.484 20.844 58.52 20.8346 61.2267C20.8098 67.816 20.7986 74.4053 20.8013 80.9947C20.8013 81.4867 20.8546 81.9773 20.8826 82.448H61.66ZM44.708 92.1813H37.908C37.9733 93.464 38.0333 94.616 38.092 95.7813H44.7066L44.708 92.1813Z" fill="#F7931B"/>
<path d="M74.9773 124.153C68.388 124.153 61.7982 124.151 55.208 124.145C54.5339 124.154 53.8608 124.091 53.2 123.957C51.08 123.496 50.4573 122.141 51.504 120.296C52.1946 119.077 52.8 117.763 53.6946 116.716C55.196 114.949 55.4666 112.983 55.428 110.773C55.3266 105.143 55.3773 99.5093 55.3866 93.8773C55.3776 93.0904 55.4419 92.3043 55.5786 91.5293C55.8826 89.9453 56.8693 89.0733 58.512 89.0667C68.876 89.024 79.2386 88.9613 89.6013 88.9747C92.544 88.9747 93.836 90.4493 93.8306 93.444C93.82 100.089 93.7933 106.735 93.808 113.38C93.808 113.84 94.0173 114.345 94.26 114.752C95.1546 116.24 96.1373 117.677 97.0186 119.173C97.3966 119.796 97.6708 120.475 97.8306 121.185C98.1706 122.831 97.164 123.932 95.424 123.933C88.6089 123.933 81.7938 123.933 74.9786 123.933L74.9773 124.153ZM91.4826 112.752C91.4826 106.021 91.4826 99.496 91.4826 92.972C91.4826 91.7613 91.028 91.1053 89.6866 91.1133C79.6662 91.1613 69.6458 91.1822 59.6253 91.176C58.14 91.176 57.5826 91.632 57.608 93.2307C57.7066 99.196 57.648 105.164 57.6493 111.131V112.752H91.4826ZM95.7946 121.636C94.44 119.317 93.32 117.333 92.1133 115.405C91.9346 115.12 91.344 114.965 90.944 114.968C80.5933 115.008 70.2413 115.135 59.892 115.089C57.8813 115.081 56.5586 115.449 55.7586 117.451C55.1813 118.907 54.2266 120.215 53.4133 121.636H95.7946Z" fill="#F7931B"/>
<path d="M81.1227 28.488C90.5147 28.5826 97.9347 35.7013 98.1441 45.048C98.2134 48.1013 97.5921 51.1026 95.9894 53.7733C95.3801 54.788 95.6094 55.3733 96.4747 56.008C97.3401 56.6426 98.1947 57.3093 98.8814 58.112C99.2574 58.5506 99.5614 59.4213 99.3694 59.8706C99.1854 60.296 98.2947 60.6786 97.7467 60.6386C96.0134 60.5133 94.3121 60.076 92.5841 59.972C91.5414 59.9053 90.3427 59.96 89.4387 60.4106C78.9721 65.6253 67.3587 60.46 64.5761 49.2813C62.2401 39.9013 68.7614 30.1973 78.2854 28.8813L81.1227 28.488ZM95.2481 57.896C94.5814 57.3626 94.0881 56.9986 93.6401 56.5946C92.6507 55.7013 92.5561 54.7453 93.3414 53.62C97.8147 47.204 96.3107 38.352 89.9774 33.6773C83.8001 29.1186 74.2561 30.3106 69.6214 36.2213C65.4227 41.5746 65.3121 48.888 69.3467 54.3546C73.3094 59.7146 80.3241 61.792 86.6361 59.0506C89.3254 57.8826 91.7761 56.784 94.6721 57.9746C94.7614 58.0093 94.8921 57.9466 95.2481 57.896Z" fill="#3A3A3A"/>
<path d="M43.5734 115.2C43.5734 118.181 43.6094 121.163 43.5641 124.144C43.5187 127.125 42.3201 128.289 39.3054 128.312C35.7614 128.339 32.2174 128.339 28.6734 128.312C26.0734 128.292 24.5507 126.829 24.5401 124.257C24.4983 118.124 24.493 111.991 24.5241 105.857C24.5334 103.616 25.8814 102.293 28.0921 102.285C31.8054 102.272 35.5187 102.267 39.2321 102.319C42.3747 102.361 43.4681 103.432 43.5401 106.585C43.6067 109.453 43.5547 112.319 43.5547 115.192L43.5734 115.2ZM26.6401 115.123H26.7601C26.7601 118.108 26.7481 121.093 26.7667 124.077C26.7667 124.999 26.8241 126.033 28.0734 126.056C32.0094 126.124 35.9463 126.143 39.8841 126.113C40.7934 126.105 41.4267 125.601 41.4214 124.495C41.3947 118.412 41.4214 112.329 41.3961 106.248C41.3961 105.124 40.8054 104.503 39.6041 104.493C35.9427 104.465 32.2827 104.437 28.6227 104.34C27.0361 104.297 26.5814 105.033 26.6227 106.508C26.6974 109.377 26.6467 112.251 26.6467 115.123H26.6401Z" fill="#3A3A3A"/>
<path d="M42.9786 87.0147C42.1532 87.66 41.6972 88.2774 41.1986 88.316C40.8426 88.3427 40.0972 87.5707 40.1199 87.1907C40.1506 86.6907 40.7092 85.908 41.1412 85.8347C41.5732 85.7614 42.1159 86.424 42.9786 87.0147Z" fill="#F7931B"/>
<path d="M115.175 59.5814C116.355 59.6894 117.612 59.8654 117.609 61.448C117.609 62.8387 116.543 63.3214 115.336 63.38C114.035 63.444 113.12 62.4814 113.119 61.204C113.119 59.8027 114.035 59.5867 115.175 59.5814Z" fill="#3A3A3A"/>
<path d="M113.067 52.0787L110.908 54.5867C110.433 53.992 109.491 53.3053 109.585 52.824C109.765 51.92 110.544 51.136 111.075 50.3013L113.067 52.0787Z" fill="#3A3A3A"/>
<path d="M120.497 52.6293C119.633 53.5787 119.099 54.696 118.392 54.8173C117.273 55.0107 116.951 53.8133 117.229 52.932C117.496 52.0773 118.183 51.352 118.685 50.5707L120.497 52.6293Z" fill="#3A3A3A"/>
<path d="M74.4334 120.207C73.42 120.207 72.392 120.311 71.4014 120.163C70.9107 120.088 70.4907 119.548 70.04 119.219C70.4094 118.819 70.7547 118.095 71.1507 118.065C73.392 117.904 75.6454 117.859 77.8934 117.907C78.2547 117.915 78.9454 118.673 78.8814 118.937C78.7667 119.412 78.236 120.06 77.8014 120.127C76.7027 120.296 75.5587 120.184 74.4334 120.184V120.207Z" fill="#F7931B"/>
<path d="M81.7986 49.4787H79.7186C79.2866 47.5667 79.816 45.984 81.2573 44.6787C81.6733 44.3053 82.1506 44 82.5906 43.6453C83.632 42.7973 84.348 41.676 83.6786 40.4253C83.2786 39.6747 82.3266 38.9933 81.4866 38.7493C80.088 38.34 78.9973 39.1067 78.3333 40.388C78.1293 40.788 78.0066 41.22 77.8333 41.676H75.7106C75.5586 38.9227 77.0333 36.916 79.692 36.1693C82.3506 35.4227 85.1586 36.4987 86.2253 38.66C87.392 41.0147 86.7506 43.7853 84.6506 45.46C82.248 47.388 82.248 47.388 81.7986 49.4787Z" fill="#3A3A3A"/>
<path d="M80.6281 51.908C82.0428 52.256 82.7187 52.692 82.7294 53.8214C82.7414 55.116 81.9654 55.988 80.8174 55.8214C80.1374 55.7254 79.1147 54.6667 79.1147 54.0414C79.1147 53.3334 80.0814 52.62 80.6281 51.908Z" fill="#3A3A3A"/>
<path d="M35.792 122.856C34.916 123.347 34.3466 123.923 33.8893 123.849C33.4093 123.769 32.7186 123.061 32.7093 122.616C32.7 122.171 33.5266 121.34 33.848 121.4C34.4346 121.512 34.9213 122.159 35.792 122.856Z" fill="#3A3A3A"/>
</svg>
