<svg width="160" height="160" viewBox="0 0 160 160" fill="none" xmlns="http://www.w3.org/2000/svg">
<path d="M40.1333 102.303C39.1147 108.319 38.0773 114.331 37.1187 120.356C37.044 120.828 37.3973 121.525 37.7747 121.877C38.528 122.58 39.5587 123.001 40.2547 123.744C41.4733 125.051 41.1013 126.751 39.4093 126.897C36.172 127.177 32.8907 127.077 29.6347 126.947C28.4827 126.9 28.276 125.725 28.3547 124.74C28.768 119.525 29.236 114.316 29.66 109.101C30.0067 104.835 30.356 100.559 30.6387 96.2827C31.0027 90.7787 31.3053 85.2707 31.3293 79.668C30.5053 82.4253 29.56 85.1533 28.892 87.948C28.224 90.7427 27.8133 93.6 27.3333 96.4293C26.9907 98.4827 25.7707 100.001 24.2293 100.152C21.9627 100.373 20.104 98.9053 20.2133 96.4187C20.3457 92.9502 20.7469 89.4971 21.4133 86.0907C22.5987 80.236 24.5413 74.612 27.7427 69.5027C29.2093 67.1547 30.9427 65.048 33.672 63.732C29.1613 60.972 26.9107 56.96 26.8413 51.8387C26.788 47.9293 28.22 44.4987 31.108 41.8387C36.9667 36.4387 45.884 37.2307 50.7733 43.5027C55.3067 49.324 55.1213 59.18 45.7773 64.3747L54.4 74.2547C55.3707 75.368 56.4133 75.5 57.632 74.5947C60.0667 72.7849 62.5209 71.0031 64.9947 69.2493C66.728 68.0227 68.4973 66.8587 70.252 65.6693C70.2893 65.6427 70.3493 65.652 70.396 65.6373C71.596 65.2373 72.9853 65.0187 73.6293 66.1947C74.0293 66.924 73.5373 68.1413 73.4213 69.416C74.504 70.0693 75.404 71.396 74.8787 73.1493C74.22 75.34 72.1827 76.1347 70.2787 76.056C67.9653 75.9613 66.4893 77.104 64.8693 78.312C62.24 80.2733 59.6253 82.2587 56.3453 83.0827C54.8613 83.4547 53.5227 83.18 52.44 82.2053C50.9333 80.8427 49.548 79.3333 48.1333 77.876C47.9747 77.712 47.9547 77.416 47.8667 77.18L47.5707 77.48C47.9213 82.2333 48.2373 86.9907 48.6373 91.7467C49.0667 96.9587 49.5707 102.165 50.0267 107.375C50.3653 111.196 50.752 115.015 50.9813 118.841C51.0493 119.985 51.496 120.24 52.4853 120.575C54.004 121.089 55.552 121.785 56.7973 122.769C58.3547 124 57.9293 125.657 55.956 125.925C53.2627 126.292 50.5107 126.247 47.784 126.341C47.0893 126.364 46.3893 126.192 45.6947 126.208C44.576 126.228 44.0213 125.593 43.8613 124.621C42.928 118.984 42.0373 113.343 41.136 107.701C40.8493 105.903 40.5787 104.101 40.3 102.301L40.1333 102.303ZM55.0933 124.205L55.2413 123.587C53.7333 123.085 52.248 122.497 50.708 122.12C49.6907 121.867 49.2307 121.511 49.1627 120.364C48.9533 116.835 48.5867 113.316 48.2747 109.793C47.6987 103.241 47.1182 96.6911 46.5333 90.1427C46.0493 84.7387 45.5453 79.3427 45.0773 73.932C45.048 73.5867 45.172 72.9813 45.3667 72.9147C45.5714 72.8564 45.7857 72.8397 45.997 72.8653C46.2084 72.891 46.4124 72.9585 46.5973 73.064C47.0453 73.348 47.3733 73.828 47.732 74.2427C49.3613 76.1253 50.9467 78.0467 52.6173 79.892C54.0453 81.4693 55.8093 81.7453 57.5947 80.608C60.4827 78.768 63.328 76.8627 66.1067 74.856C66.9493 74.2467 67.6747 74.0693 68.6773 74.1067C69.8067 74.1455 70.9335 73.9737 72 73.6C72.4867 73.4267 73.0827 72.5133 72.996 72.0573C72.9027 71.5667 72.0987 71.16 71.54 70.8267C70.9813 70.4933 70.3693 70.316 69.7787 70.0693C70.1667 69.4227 70.54 68.7653 70.9533 68.1347C71.0747 67.9507 71.308 67.8387 71.4867 67.6947C70.8467 67.5813 70.2413 67.6387 69.8253 67.9493C68.3933 69.016 67.0773 70.2453 65.6253 71.2827C63.0027 73.164 60.3307 74.976 57.6493 76.7747C56.3733 77.6293 55.116 77.5053 54.0027 76.408C52.512 74.9413 50.936 73.5507 49.564 71.9747C47.8667 70.0253 46.4 67.8733 44.7253 65.908C44.3347 65.4507 43.484 65.2253 42.8267 65.1853C41.0547 65.0773 39.2453 65.3093 37.5027 65.052C36.108 64.8493 34.992 65.144 33.864 65.8267C31.6147 67.2 30.1187 69.2333 28.856 71.4667C24.8773 78.484 22.9333 86.1333 22.008 94.0813C21.9 95.1152 22.0113 96.1601 22.3347 97.148C22.4987 97.6493 23.3507 98.2733 23.8347 98.228C24.3187 98.1827 24.9213 97.4667 25.192 96.9093C25.4827 96.3093 25.4587 95.5547 25.556 94.8653C26.5787 87.3827 28.6973 80.2387 32.2227 73.5453C32.4613 73.0933 33.1627 72.8787 33.648 72.5627C33.8467 73.0653 34.2467 73.584 34.2107 74.0693C33.944 77.7933 33.544 81.5067 33.2773 85.2293C32.776 91.9373 32.3507 98.6493 31.848 105.363C31.5173 109.781 31.0933 114.193 30.736 118.611C30.5613 120.78 30.444 122.953 30.2987 125.167H38.6293C38.6573 125.016 38.6853 124.865 38.7147 124.716C37.7533 124.133 36.8027 123.533 35.8293 122.973C35.0467 122.523 34.796 122.004 34.9787 121.023C35.8013 116.583 36.4947 112.119 37.2453 107.665C37.912 103.751 38.564 99.8333 39.304 95.932C39.3853 95.5067 39.9973 95.1813 40.364 94.8107C40.7147 95.1773 41.204 95.488 41.3813 95.9253C41.6173 96.5093 41.6133 97.1907 41.708 97.8307C43.0093 106.612 44.3115 115.403 45.6147 124.203L55.0933 124.205ZM28.824 51.8667C28.8173 58.2933 33.8747 63.5573 40.084 63.584C46.548 63.6107 51.7013 58.4467 51.756 51.9373C51.8133 45.2613 46.0413 40.0133 40.0307 40.16C33.74 40.3147 28.832 45.292 28.824 51.8667Z" fill="#3A3A3A"/>
<path d="M130.8 79.24H111.051V86.736C116.384 88.3707 118.537 91.0547 118.396 95.8333C118.284 99.636 115.633 102.549 111.283 103.585V108.903C117.728 110.561 119.024 115.139 118.36 119.272C117.735 123.163 113.803 126.121 109.787 125.884C105.884 125.655 102.496 122.284 102.211 118.341C101.849 113.344 104.385 109.951 109.299 108.972V103.559C107.032 103.159 105.032 102.205 103.635 100.212C102.533 98.6387 102.08 96.8867 102.123 95.0013C102.217 90.7973 104.576 88.012 109.117 86.7893V79.2547H90.04V87.0667C92.592 87.6573 94.64 89.0667 95.8587 91.4547C96.8387 93.3263 97.085 95.4963 96.5494 97.54C95.7907 100.583 92.7814 104.144 87.712 103.756C84.2454 103.489 80.8427 100.479 80.3667 96.9933C79.66 91.8147 81.8827 88.8733 88.1454 86.784C88.1454 84.3227 88.1454 81.832 88.1454 79.34C88.1454 77.296 88.3494 77.168 90.3494 77.188C96.3374 77.248 102.325 77.244 108.313 77.2613C108.508 77.2613 108.701 77.22 109.003 77.1867V67.076C103.103 66.6013 98.312 64.104 95.2854 58.7747C93.1347 54.988 92.4694 50.908 93.4094 46.6707C95.4414 37.5133 103.304 31.9893 112.617 33.052C120.699 33.9747 127.075 41.2773 127.083 49.6187C127.091 58.7253 120.467 65.9347 111.044 66.988V77.2187C111.628 77.2493 112.16 77.2987 112.693 77.3C118.681 77.312 124.671 77.3 130.66 77.3267C132.487 77.3267 132.679 77.552 132.697 79.4267C132.72 81.7227 132.727 84.0187 132.744 86.3147C132.762 86.45 132.79 86.5838 132.829 86.7147C135.188 87.2067 137.217 88.324 138.547 90.4947C140.813 94.2067 139.88 99.452 136.483 101.901C134.816 103.118 132.747 103.649 130.701 103.386C128.655 103.123 126.787 102.086 125.483 100.488C122.301 96.6213 123.216 88.7093 129.72 86.952C130.52 86.736 130.868 86.4907 130.829 85.58C130.741 83.5027 130.8 81.4147 130.8 79.24ZM125.088 49.78C125.161 41.5 118.649 34.928 110.288 34.8467C102.26 34.768 95.2454 41.5867 94.9907 49.3427C94.6987 58.252 101.076 64.9253 109.352 65.076C118.047 65.2213 125.012 58.4 125.088 49.78ZM110.241 110.864C106.477 110.897 103.873 113.615 103.928 117.453C103.98 121.168 106.827 124.103 110.367 124.089C113.855 124.076 116.735 121.023 116.708 117.368C116.681 113.619 113.909 110.831 110.241 110.864ZM88.48 101.931C89.339 101.937 90.1908 101.773 90.9862 101.448C91.7816 101.124 92.5049 100.645 93.1144 100.04C93.724 99.4345 94.2077 98.7145 94.5377 97.9214C94.8677 97.1283 95.0376 96.2777 95.0374 95.4187C95.0694 91.776 92.08 88.7773 88.404 88.7653C84.9694 88.7533 82.0347 91.788 82.0374 95.348C82.0414 99.0853 84.8254 101.931 88.48 101.935V101.931ZM110.175 101.681C113.641 101.745 116.532 99.0147 116.6 95.6067C116.68 91.6427 114.088 88.78 110.364 88.72C106.597 88.6587 103.933 91.3173 103.897 95.172C103.867 98.916 106.467 101.616 110.175 101.685V101.681ZM125.532 95.0747C125.549 98.9533 128.065 101.619 131.724 101.624C135.247 101.624 137.963 98.7827 137.977 95.072C137.992 91.3613 135.123 88.3933 131.589 88.4467C128.248 88.5 125.516 91.4907 125.532 95.0787V95.0747Z" fill="#3A3A3A"/>
<path d="M43.1533 60.5787C42.1093 60.0213 40.8867 59.4547 39.7707 58.712C39.4827 58.52 39.5587 57.7787 39.4667 57.2973C39.956 57.288 40.6467 57.0653 40.9013 57.3053C42.4267 58.7427 44.0933 58.7013 45.8867 58.0253C45.9787 57.9907 46.0827 57.916 46.1653 57.9333C46.6907 58.044 47.2107 58.176 47.7333 58.3C47.4227 58.732 47.2 59.3827 46.784 59.5533C45.748 59.98 44.6227 60.184 43.1533 60.5787Z" fill="#3A3A3A"/>
<path d="M41.812 50.5867C41.784 51.6093 41.5453 52.4827 40.3667 52.504C39.1453 52.5253 38.788 51.6653 38.74 50.6187C38.684 49.4187 39.332 48.92 40.4733 48.8973C41.7253 48.872 41.712 49.7867 41.812 50.5867Z" fill="#3A3A3A"/>
<path d="M48.7067 50.84C48.664 51.7733 48.5734 52.7787 47.3734 52.7627C46.1147 52.7467 46.0054 51.6693 45.9574 50.7093C45.9067 49.6867 46.3054 48.9307 47.4494 48.9267C48.7747 48.9227 48.6467 49.9613 48.7067 50.84Z" fill="#3A3A3A"/>
<path d="M114.715 50.6667C116.332 51.992 116.768 53.444 116.097 55.2147C115.031 58.0267 112.755 58.304 110.241 57.8507C109.333 61.0533 109.333 61.0533 107.656 60.448C107.737 59.9933 107.828 59.5147 107.905 59.0467C107.983 58.5787 108.049 58.0813 108.12 57.5987C107.132 57.2747 107.132 57.2747 106.211 60.4453C105.907 60.4013 105.587 60.3573 105.268 60.312C104.985 60.2707 104.704 60.224 104.296 60.1587C104.529 59.024 104.744 57.984 104.963 56.9253L101.867 56.0747C101.888 54.94 101.751 53.872 103.407 54.236C103.644 54.288 104.215 53.7653 104.3 53.4267C105.037 50.508 105.697 47.5707 106.376 44.66C104.096 43.736 104.067 43.6787 104.909 41.7413L108.093 42.376C108.371 41.3173 108.616 40.376 108.901 39.2853L110.809 39.5893C110.599 40.7133 110.409 41.7053 110.201 42.844C112.735 43.0773 111.401 40.74 112.58 39.9347L114.231 40.2987C114.128 40.7573 114.077 41.0893 113.979 41.4067C113.579 42.7013 113.435 43.692 115.103 44.4093C117.101 45.2653 117.485 48.7907 114.715 50.6667ZM107.26 54.9333C108.411 55.148 109.369 55.404 110.343 55.488C111.476 55.5867 112.432 55.2053 112.697 53.9453C112.979 52.612 112.064 52.0333 111.037 51.6867C110.205 51.404 109.304 51.3173 108.263 51.1093C107.937 52.3373 107.628 53.5187 107.26 54.9227V54.9333ZM109.625 45.052C108.569 47.904 108.551 48.608 109.501 48.8893C111.279 49.4133 112.908 48.8213 113.203 47.5453C113.497 46.2693 112.555 45.5893 109.625 45.0413V45.052Z" fill="#F7931B"/>
<path d="M90.9827 95.648C91.7333 96.2627 91.936 96.936 91.624 97.7573C91.1307 99.0627 90.0733 99.1907 88.908 98.98C88.484 100.469 88.484 100.469 87.708 100.189C87.7453 99.9773 87.788 99.7587 87.824 99.5387C87.86 99.3187 87.8907 99.0907 87.924 98.872C87.4653 98.7213 87.4653 98.7213 87.0373 100.192C86.904 100.172 86.748 100.152 86.6 100.129C86.452 100.107 86.3333 100.089 86.1493 100.059C86.2573 99.532 86.3573 99.0493 86.4587 98.5587L85.0253 98.1653C85.0347 97.632 84.9707 97.1427 85.7387 97.312C85.8493 97.336 86.1147 97.0947 86.1533 96.936C86.496 95.5827 86.8027 94.22 87.1173 92.8693C86.0587 92.4413 86.0507 92.4147 86.4387 91.516L87.916 91.8107C88.0493 91.3187 88.1587 90.8773 88.2907 90.376L89.176 90.5173C89.0787 91.0387 88.992 91.4987 88.8933 92.028C90.072 92.136 89.448 91.052 89.9973 90.6773L90.764 90.8467C90.716 91.0587 90.692 91.2133 90.6467 91.36C90.4573 91.9613 90.3933 92.4267 91.168 92.7533C92.0907 93.1453 92.2667 94.7813 90.9827 95.648ZM87.524 97.6253C88.0573 97.7253 88.5027 97.844 88.9547 97.8827C89.48 97.928 89.924 97.7493 90.0467 97.1667C90.18 96.548 89.7533 96.28 89.2773 96.1187C88.8907 95.9853 88.4773 95.948 87.9893 95.852L87.524 97.6253ZM88.6213 93.0413C88.132 94.364 88.124 94.6907 88.564 94.8213C89.3893 95.064 90.1453 94.7893 90.2813 94.1973C90.4173 93.6053 89.9813 93.2947 88.6213 93.0413Z" fill="#F7931B"/>
<path d="M112.768 95.648C113.519 96.2627 113.72 96.936 113.409 97.7573C112.916 99.0627 111.859 99.1907 110.693 98.98C110.269 100.469 110.269 100.469 109.493 100.189C109.531 99.9773 109.573 99.7587 109.609 99.5387C109.645 99.3187 109.676 99.0907 109.709 98.872C109.251 98.7213 109.251 98.7213 108.823 100.192C108.681 100.172 108.533 100.152 108.385 100.129C108.237 100.107 108.119 100.089 107.935 100.059C108.043 99.532 108.143 99.0493 108.243 98.5587L106.811 98.1653C106.82 97.632 106.756 97.1427 107.524 97.312C107.635 97.336 107.899 97.0947 107.939 96.936C108.281 95.5827 108.587 94.22 108.901 92.8693C107.844 92.4413 107.835 92.4147 108.224 91.516L109.701 91.8107C109.835 91.3187 109.944 90.8773 110.076 90.376L110.961 90.5173C110.864 91.0387 110.777 91.4987 110.679 92.028C111.857 92.136 111.233 91.052 111.783 90.6773L112.548 90.8467C112.501 91.0587 112.477 91.2133 112.431 91.36C112.243 91.9613 112.179 92.4267 112.953 92.7533C113.875 93.1453 114.053 94.7813 112.768 95.648ZM109.309 97.6253C109.843 97.7253 110.288 97.844 110.74 97.8827C111.265 97.928 111.709 97.7493 111.832 97.1667C111.965 96.548 111.539 96.28 111.063 96.1187C110.676 95.9853 110.263 95.948 109.775 95.852L109.309 97.6253ZM110.407 93.0413C109.917 94.364 109.909 94.6907 110.349 94.8213C111.173 95.064 111.931 94.7893 112.067 94.1973C112.203 93.6053 111.765 93.2947 110.407 93.0413Z" fill="#F7931B"/>
<path d="M112.768 117.379C113.519 117.993 113.72 118.667 113.409 119.488C112.916 120.793 111.859 120.921 110.693 120.711C110.269 122.2 110.269 122.2 109.493 121.919C109.531 121.708 109.573 121.489 109.609 121.268C109.645 121.047 109.676 120.821 109.709 120.601C109.251 120.451 109.251 120.451 108.823 121.921C108.681 121.901 108.533 121.881 108.385 121.859C108.237 121.836 108.119 121.817 107.935 121.788C108.043 121.255 108.143 120.779 108.243 120.287L106.811 119.895C106.82 119.368 106.756 118.872 107.524 119.041C107.635 119.065 107.899 118.823 107.939 118.665C108.281 117.312 108.587 115.949 108.901 114.599C107.844 114.171 107.835 114.144 108.224 113.244L109.701 113.539L110.076 112.105L110.961 112.247C110.864 112.768 110.777 113.228 110.679 113.756C111.857 113.865 111.233 112.78 111.783 112.407L112.548 112.576C112.501 112.788 112.477 112.943 112.431 113.089C112.243 113.691 112.179 114.156 112.953 114.483C113.875 114.876 114.053 116.511 112.768 117.379ZM109.309 119.356C109.843 119.455 110.288 119.573 110.74 119.613C111.265 119.659 111.709 119.48 111.832 118.897C111.965 118.279 111.539 118.011 111.063 117.849C110.676 117.716 110.263 117.679 109.775 117.583L109.309 119.356ZM110.407 114.772C109.917 116.095 109.909 116.421 110.349 116.552C111.173 116.795 111.931 116.52 112.067 115.928C112.203 115.336 111.765 115.025 110.407 114.772Z" fill="#F7931B"/>
<path d="M134.047 95.648C134.797 96.2627 134.999 96.936 134.688 97.7573C134.195 99.0627 133.137 99.1907 131.972 98.98C131.548 100.469 131.548 100.469 130.772 100.189C130.809 99.9773 130.851 99.7587 130.887 99.5387C130.923 99.3187 130.955 99.0907 130.987 98.872C130.528 98.7213 130.528 98.7213 130.101 100.192C129.96 100.172 129.812 100.152 129.664 100.129C129.516 100.107 129.397 100.089 129.213 100.059C129.321 99.532 129.42 99.0493 129.521 98.5587L128.088 98.1653C128.099 97.632 128.035 97.1427 128.803 97.312C128.913 97.336 129.177 97.0947 129.217 96.936C129.559 95.5827 129.865 94.22 130.18 92.8693C129.123 92.4413 129.113 92.4147 129.503 91.516L130.98 91.8107C131.113 91.3187 131.223 90.8773 131.355 90.376L132.24 90.5173C132.143 91.0387 132.056 91.4987 131.957 92.028C133.135 92.136 132.512 91.052 133.061 90.6773L133.827 90.8467C133.779 91.0587 133.756 91.2133 133.709 91.36C133.521 91.9613 133.457 92.4267 134.232 92.7533C135.153 93.1453 135.333 94.7813 134.047 95.648ZM130.588 97.6253C131.121 97.7253 131.567 97.844 132.019 97.8827C132.544 97.928 132.987 97.7493 133.111 97.1667C133.244 96.548 132.817 96.28 132.341 96.1187C131.955 95.9853 131.541 95.948 131.053 95.852L130.588 97.6253ZM131.685 93.0413C131.196 94.364 131.187 94.6907 131.628 94.8213C132.452 95.064 133.208 94.7893 133.345 94.1973C133.483 93.6053 133.044 93.2947 131.685 93.0413Z" fill="#F7931B"/>
</svg>
