<svg width="160" height="160" viewBox="0 0 160 160" fill="none" xmlns="http://www.w3.org/2000/svg">
<path d="M39.1173 61.8307C36.7293 61.9213 35.0387 62.7493 34.224 64.432C33.1707 66.604 32.0027 68.9653 31.8787 71.292C31.636 75.8413 31.992 80.4333 32.2707 84.996C32.5573 89.676 33.2147 94.3373 33.3693 99.0187C33.4307 100.865 32.9973 102.999 32.0573 104.561C28.8573 109.867 25.364 114.989 21.9 120.127C21.6333 120.517 20.7253 120.473 20.116 120.632C20.136 119.965 19.9013 119.128 20.2147 118.657C22.8427 114.711 25.572 110.833 28.2667 106.932C30.7933 103.276 31.348 99.3053 30.832 94.8987C30.0747 88.44 29.6987 81.9307 29.3333 75.432C29.136 71.9133 29.5 68.3987 31.0667 65.148C32.608 61.948 35.02 59.8293 38.7187 59.3347C38.7187 56.752 38.7507 54.1747 38.712 51.6013C38.6413 46.904 38.4907 42.2067 38.4453 37.508C38.4107 33.932 40.5947 31.3387 44.1307 31.2187C53.9293 30.884 63.7307 30.6933 73.54 30.5613C76.504 30.5213 78.9 33.1573 78.9853 36.3587C79.268 47.1 79.4893 57.844 79.7267 68.5867C79.9067 76.6907 80.0627 84.7947 80.26 92.8973C80.364 97.2893 78.024 99.8307 73.6133 99.984C70.268 100.103 66.9213 100.213 63.5747 100.259C62.5893 100.271 62.02 100.533 61.5747 101.497C59.1893 106.597 55.6533 110.747 51.0507 114.005C50.3468 114.51 49.7609 115.161 49.3333 115.915C47.1373 119.844 45.0173 123.816 42.8693 127.772C42.7027 128.079 42.6027 128.523 42.336 128.655C41.8293 128.921 41.232 129 40.672 129.157C40.556 128.632 40.1707 127.965 40.3627 127.605C42.896 122.864 45.456 118.139 48.1453 113.483C48.636 112.633 49.7307 112.129 50.5533 111.473C54.3093 108.483 57.3613 104.927 59.4227 100.701C56.0053 100.701 52.6347 100.672 49.2653 100.749C48.9653 100.749 48.5907 101.416 48.4027 101.832C47.572 103.689 46.832 105.588 45.9827 107.432C45.716 108.001 45.308 108.599 44.7987 108.925C44.384 109.192 43.7227 109.073 43.1707 109.125C43.136 108.572 42.8507 107.831 43.1027 107.495C45.932 103.72 47.0253 99.4733 46.9213 94.8147C46.8373 91.0627 45.744 87.556 43.568 84.6427C40.0667 79.956 38.3067 74.9907 39.0667 69.104C39.372 66.7507 39.1173 64.32 39.1173 61.8307ZM49.132 98.1533C49.4301 98.1935 49.73 98.218 50.0307 98.2267C57.784 98.0293 65.5347 97.756 73.288 97.66C76.272 97.6227 78.06 95.7173 77.9853 92.676C77.5293 74.176 77.2307 55.672 76.8667 37.1707C76.808 34.212 75.1813 32.6013 72.2 32.6667C63.2147 32.8667 54.2307 33.1413 45.2453 33.3507C42.2427 33.42 40.5787 35.04 40.6373 38.052C40.86 48.8013 41.1853 59.548 41.2933 70.2973C41.3373 74.74 42.1253 78.712 44.8653 82.4307C48.244 87.0067 49.8133 92.3067 49.132 98.1533Z" fill="#3A3A3A"/>
<path d="M104.72 72.6667C101.12 75.156 99.8467 80.5787 101.703 84.6973C102.007 85.372 102.016 86.18 102.161 86.928C101.32 87.016 100.42 87.344 99.6467 87.156C92.5067 85.4133 88.784 80.3173 87.1667 73.6013C85.82 68.008 86.664 62.5347 89.6027 57.504C91.736 53.8413 92.4227 50.0133 91.176 45.892C91.068 45.5387 91.2067 44.8413 91.4507 44.7093C91.8933 44.4693 92.5813 44.3293 93.028 44.504C93.9643 44.8704 94.8037 45.4476 95.4809 46.1908C96.1582 46.9339 96.6552 47.8231 96.9333 48.7893C97.772 51.5467 98.2373 54.4173 98.8413 57.1427C100.688 56.256 102.028 52.076 101.445 49.368C101.167 48.0693 100.779 46.736 100.153 45.5773C96.9253 39.6307 99.828 31.8333 103.899 27.8813C104.217 27.572 104.937 27.3347 105.277 27.4893C105.589 27.632 105.819 28.368 105.775 28.8107C105.333 33.2307 107.2 36.62 110.337 39.5213C111.902 40.9457 113.382 42.4594 114.772 44.0547C118.44 48.3213 119.055 53.2173 117.663 58.5573C117.227 60.232 117.14 62.024 117.121 63.768C117.112 64.668 117.604 65.5733 117.869 66.476L118.583 66.52C119.016 65.3133 119.508 64.12 119.867 62.8947C120.293 61.44 120.487 59.908 121.015 58.4947C121.281 57.7667 121.983 57.1107 122.64 56.628C123.581 55.9427 124.156 56.5693 124.444 57.472C125.411 60.512 126.031 63.7093 127.377 66.5693C130.044 72.2413 126.417 81.428 122.128 84.2067C122.031 84.2707 121.955 84.3773 121.852 84.42C120.893 84.82 119.788 85.9907 118.952 84.6213C118.165 83.332 119.669 83.0613 120.419 82.5453C124.617 79.6827 127.292 72.6307 125.259 67.7213C124.439 65.744 123.621 63.7667 122.685 61.5067C122.297 62.8333 122.039 63.9293 121.651 64.9733C121.329 65.8427 120.968 66.736 120.427 67.4747C119.067 69.3333 116.811 69.144 115.708 67.1333C114.348 64.652 114.775 62.0107 115.132 59.4C115.353 57.7813 115.816 56.2 115.993 54.5747C116.459 50.3213 114.547 46.9973 111.716 44.0533C109.725 41.9827 107.583 40.02 105.864 37.74C104.677 36.164 104.104 34.1293 103.261 32.3093C101.148 35.9813 100.139 40.0187 102.217 44.3213C104.229 48.4893 104.647 52.644 102.171 56.6933C101.315 58.0947 99.9413 59.2133 98.676 60.316C98.1853 60.744 97.3427 60.772 96.6613 60.9827C96.4293 60.1907 96.044 59.4067 95.9947 58.6027C95.88 56.7427 96.128 54.84 95.8507 53.0133C95.6 51.4013 94.8413 49.8667 94.1333 48.3627C94.572 52.2093 93.3187 55.6013 91.52 58.7733C89.4853 62.3627 88.5867 66.172 88.892 70.22C89.304 75.6867 91.6467 80.2013 96.208 83.4013C96.9867 83.948 97.9333 84.2573 99.112 84.8253C98.024 80.3227 98.4453 76.3707 101.128 73.012C102.373 71.4493 104.121 70.272 105.725 69.0253C106.072 68.7587 106.773 68.94 107.312 68.916C107.336 69.4613 107.42 70.012 107.373 70.552C107.26 71.876 106.831 73.2253 106.991 74.508C107.285 76.8733 108.703 78.568 110.953 79.4693C111.735 79.7813 112.76 80.064 112.123 81.084C111.856 81.504 110.656 81.6707 110.029 81.4693C107.004 80.4933 104.784 77.3053 104.72 74.1067C104.712 73.66 104.72 73.212 104.72 72.6667Z" fill="#F7931B"/>
<path d="M117.867 132.559C106.384 132.559 97.2386 123.211 97.3413 111.397C97.46 97.4947 108.408 88.56 119.431 88.6253C129.164 88.684 139.819 96.5533 139.943 108.921C140.085 122.524 130.589 132.556 117.867 132.559ZM99.6653 111.297C99.812 112.455 99.912 113.62 100.111 114.764C102.18 126.797 113.897 133.373 125.151 128.831C133.123 125.613 138.077 117.497 137.485 108.063C136.767 96.604 126.321 89.2227 115.752 91.324C106.199 93.2293 99.788 101.476 99.6653 111.297Z" fill="#3A3A3A"/>
<path d="M63.808 58.5333C69.7173 61.1267 70.4466 64.0267 66.232 67.7333C68.7253 69.5467 69.4227 71.2 68.652 73.7067C67.4707 77.5453 64.4386 77.8067 60.992 77.372C60.7333 78.948 60.492 80.4107 60.244 81.924L57.808 81.524C57.9346 80.0947 58.06 78.668 58.192 77.1787L56.2093 76.94C56.004 78.316 55.8 79.676 55.56 81.288L53.0666 81.0293C53.2266 79.5147 53.3666 78.196 53.528 76.672C52.6773 76.572 51.7946 76.592 50.9946 76.3333C50.4053 76.1413 49.5013 75.592 49.4973 75.1933C49.4893 74.3134 49.5053 72.976 51.0493 73.2493C52.6626 73.5347 52.804 72.688 52.9426 71.3827C53.3186 67.8427 53.876 64.316 54.36 60.824C51.512 59.724 51.512 59.724 52.0253 57.16L56.4 57.6667C56.624 56.2267 56.8373 54.8587 57.0746 53.3387L59.5786 53.5787L58.92 57.9067L61.232 58.2467L61.848 53.9147L64.2666 54.256L63.808 58.5333ZM56.6946 73.9267C58.3413 74.0693 59.724 74.2547 61.1106 74.288C62.4973 74.3213 63.664 73.788 63.9586 72.2653C64.268 70.6653 63.404 69.6427 61.9813 69.224C60.7146 68.8533 59.3693 68.7133 58.048 68.592C57.7813 68.5667 57.2413 69.044 57.192 69.3493C56.9653 70.7733 56.8666 72.2174 56.6946 73.9267ZM57.6653 65.8133C59.0106 65.924 60.2733 66.1933 61.504 66.08C62.8293 65.964 63.7493 65.136 63.8253 63.668C63.8973 62.2747 63 61.6613 61.8253 61.4333C60.7066 61.2147 59.5586 61.1667 58.3293 61.0267C58.108 62.6387 57.908 64.0707 57.6653 65.8133Z" fill="#F7931B"/>
<path d="M59.5626 38.4253C58.336 38.492 57.0946 38.692 55.8893 38.5667C55.32 38.5067 54.8226 37.8107 54.2893 37.4027C54.812 36.9947 55.3066 36.2827 55.86 36.2333C58.42 36.0027 60.9973 35.9533 63.568 35.844C64.5213 35.804 65.5293 35.988 65.3373 37.1467C65.26 37.6187 64.2413 38.1787 63.5933 38.264C62.272 38.4373 60.9106 38.316 59.5653 38.316L59.5626 38.4253Z" fill="#3A3A3A"/>
<path d="M110.812 116.552C111.795 112.409 112.757 108.352 113.725 104.269C112.56 103.685 111.028 103.661 111.381 101.837C111.548 100.976 111.791 100.564 112.759 100.841C113.707 101.108 114.693 101.248 115.859 101.481C116.051 100.537 116.269 99.6573 116.392 98.7653C116.556 97.64 117.177 97.3307 118.22 97.5653C119.316 97.804 119.201 98.4093 118.917 99.2693C118.651 100.081 118.625 100.976 118.465 102.023L120.4 102.172C120.688 100.797 120.948 99.564 121.229 98.2213L123.733 98.9133C123.413 100.336 123.125 101.621 122.841 102.883C128.317 106.173 128.851 109.136 124.428 112.205C126.937 113.909 127.327 116.26 126.013 118.739C124.52 121.564 121.747 121.6 118.859 121.405C118.528 122.771 118.192 124.168 117.823 125.672L115.524 125.213C115.797 123.791 116.057 122.437 116.339 120.977L114.372 120.373C114.007 121.789 113.653 123.159 113.253 124.705L110.827 124.159C111.156 122.692 111.457 121.348 111.779 119.917L107.621 118.9C107.633 116.281 107.807 116.148 110.812 116.552ZM114.78 117.417C116.267 117.733 117.459 118.036 118.667 118.232C120.225 118.485 121.745 117.605 121.975 116.308C122.256 114.728 121.503 113.724 120.017 113.252C119.019 112.935 118.017 112.585 116.992 112.42C116.608 112.356 115.853 112.663 115.771 112.953C115.353 114.376 115.107 115.855 114.78 117.417ZM116.56 109.563C118.081 109.684 119.381 110 120.6 109.807C121.329 109.689 122.285 108.873 122.483 108.189C122.656 107.588 122.108 106.375 121.531 106.048C120.384 105.399 118.997 105.173 117.652 104.756C117.259 106.488 116.949 107.844 116.56 109.563Z" fill="#F7931B"/>
</svg>
