<svg width="160" height="160" viewBox="0 0 160 160" fill="none" xmlns="http://www.w3.org/2000/svg">
<path d="M27.6546 69.488C27.6546 66.0827 27.6546 62.7507 27.6546 59.42C27.6546 51.1533 32.4653 44.972 40.548 43.42C50.548 41.504 59.1173 48.4667 59.4146 58.404C59.5253 62.0827 59.4333 65.768 59.4333 69.3933C60.6893 69.6107 61.8133 69.66 62.8346 70.0107C65.7253 70.9987 67.5013 73.468 67.5213 76.544C67.6 86.696 67.6746 96.848 67.6666 107C67.6666 112.44 63.3413 116.733 57.7786 116.775C47.9813 116.852 38.1831 116.852 28.384 116.775C23.44 116.741 19.3173 112.409 19.2866 107.441C19.2289 97.4138 19.1786 87.3827 19.136 77.348C19.116 72.9813 22.1506 69.7933 26.4933 69.6C26.8306 69.5853 27.1666 69.536 27.6546 69.488ZM43.2426 71.9427V72.0627C37.612 72.0627 31.98 72.0427 26.348 72.0707C23.6293 72.084 21.4146 74.2387 21.4266 76.9613C21.4693 87.1693 21.5346 97.3787 21.6746 107.585C21.7253 111.26 24.7866 114.301 28.452 114.324C38.3066 114.381 48.1626 114.396 58.016 114.324C62.34 114.291 65.4453 110.96 65.416 106.624C65.3506 97.12 65.1493 87.6147 65.2106 78.112C65.24 73.4973 62.832 71.776 58.9013 71.9067C53.688 72.072 48.4626 71.9427 43.2426 71.9427ZM33.3653 69.484H54.156C54.156 65.912 54.1693 62.4587 54.156 59.0053C54.1293 53.3427 50.2146 49.132 44.156 48.6427C39.8133 48.2907 34.36 50.9227 33.4893 56.5867C32.8533 60.7507 33.3653 65.0907 33.3653 69.484Z" fill="#3A3A3A"/>
<path d="M108.54 61.716V58.3293C107.728 58.3293 106.984 58.3373 106.24 58.3293C103.417 58.2933 101.187 56.3293 100.992 53.7093C100.76 50.58 102.34 48.492 105.412 48.036C106.563 47.8653 107.749 47.9093 108.92 47.9027C112.497 47.888 116.077 47.9373 119.655 47.8813C123.232 47.8253 125.608 49.7173 125.7 52.7813C125.803 56.2307 123.681 58.2787 119.955 58.3347C119.605 58.3347 119.257 58.3733 118.667 58.4067C118.667 59.22 118.533 60.048 118.715 60.796C118.848 61.3187 119.34 62.036 119.799 62.148C132.259 65.18 140.5 75.7653 140.853 88.6107C141.219 101.893 131.701 113.544 119.291 116.285C104.667 119.521 88.976 109.493 86.1826 94.756C83.268 79.372 92.0413 65.7947 107.229 62.1747C107.674 62.0445 108.111 61.8914 108.54 61.716ZM113.459 63.8107C100.405 63.6147 88.9546 73.6573 87.9586 87.2773C86.82 102.847 99.8973 114.467 113.211 114.553C127.228 114.644 138.264 103.857 138.601 89.9C138.961 74.92 127.571 63.76 113.459 63.8107ZM113.436 50.2387C111.091 50.2387 108.744 50.216 106.399 50.2467C104.563 50.2707 103.209 51.4467 103.133 53.0147C103.06 54.4973 104.408 56.0973 106.116 56.132C110.916 56.228 115.733 56.2373 120.54 56.132C122.391 56.092 123.7 54.4573 123.521 52.8693C123.349 51.3413 121.881 50.2267 120.111 50.2387C117.885 50.256 115.66 50.244 113.436 50.2387ZM110.948 61.416H116.367V58.46H110.859C110.859 59.284 110.852 59.9827 110.859 60.68C110.865 60.9013 110.913 61.1227 110.948 61.416Z" fill="#3A3A3A"/>
<path d="M76.168 88.6307C77.6867 88.6307 79.2173 88.5213 80.72 88.684C81.2867 88.7453 81.7867 89.4307 82.32 89.832C81.7867 90.252 81.268 91.012 80.72 91.032C77.6867 91.1507 74.644 91.1413 71.6093 91.032C71.128 91.0147 70.676 90.2787 70.2053 89.876C70.6747 89.46 71.112 88.7387 71.62 88.684C73.1187 88.5333 74.6493 88.6307 76.168 88.6307Z" fill="#3A3A3A"/>
<path d="M39.08 83.7413V79.58H41.8V83.6H44.0094V79.628H46.6467V83.5427C48.764 84.164 51.0867 84.3427 51.9974 86.7427C52.8534 88.9987 52.1187 90.8347 50.176 92.444C52.724 93.4213 53.9854 95.068 53.6667 97.644C53.2827 100.752 52.392 101.453 46.7334 103.236V107.245L44.3214 107.379V103.177H41.812V107.311C39.1747 107.915 39.012 107.792 39.012 105.375C39.012 104.68 39.012 103.985 39.012 103.067C37.872 103.067 36.836 103.057 35.8014 103.067C34.9387 103.076 34.3347 102.885 34.3187 101.815C34.2987 100.84 34.4974 100.215 35.6174 100.185C36.132 100.171 36.6414 100.011 37.1894 99.9093V87.0107C36.4827 86.8773 35.7054 86.964 35.2867 86.6107C34.7834 86.145 34.4824 85.5008 34.448 84.816C34.448 84.4613 35.2014 83.8627 35.68 83.788C36.6987 83.6307 37.764 83.7413 39.08 83.7413ZM41.9174 94.604V100.044C43.712 99.8747 45.3974 99.8373 47.028 99.5227C48.3334 99.2693 49.1614 98.096 48.7614 96.9173C48.4587 96.0013 47.4174 94.9413 46.5054 94.7013C45.0947 94.3307 43.5094 94.604 41.9174 94.604ZM41.548 91.4573C43.5787 91.236 45.8147 92.2253 47.0227 89.9907C47.372 89.348 47.2547 87.9907 46.788 87.448C45.304 85.7147 43.388 86.8133 41.548 86.9227V91.4573Z" fill="#F7931B"/>
<path d="M117.235 85.9787C118.844 89.5653 117.824 92.2987 114.613 93.2627C112.761 93.82 110.936 93.1747 109.693 91.5227C108.52 89.964 108.424 88.0813 109.435 86.4413C110.445 84.8013 112.536 83.6413 114.175 84.1747C115.333 84.5453 115.836 84.124 116.504 83.3413C119.28 80.0947 122.117 76.8987 124.943 73.6933C125.536 73.0187 126.227 72.284 127.151 73.06C128.207 73.9467 127.224 74.6493 126.7 75.2507C123.588 78.8187 120.436 82.3573 117.235 85.9787ZM113.384 91.1027C114.676 91.12 115.757 90.1133 115.784 88.868C115.794 88.5634 115.743 88.2599 115.634 87.9754C115.524 87.6909 115.359 87.4312 115.148 87.2116C114.937 86.992 114.683 86.817 114.403 86.6968C114.123 86.5766 113.822 86.5138 113.517 86.512C112.14 86.4747 111.231 87.344 111.196 88.736C111.161 90.128 112.044 91.084 113.384 91.1027Z" fill="#3A3A3A"/>
<path d="M114.955 67.9586C114.155 68.844 113.755 69.724 113.171 69.852C112.155 70.0787 111.837 69.1853 111.837 68.272C111.837 67.4333 111.851 66.424 112.968 66.5173C113.557 66.5667 114.085 67.296 114.955 67.9586Z" fill="#3A3A3A"/>
<path d="M127.607 101.765C128.407 102.775 129.005 103.452 129.459 104.216C129.513 104.305 128.525 105.224 128.435 105.16C127.687 104.644 127.01 104.033 126.421 103.341C126.352 103.261 126.98 102.587 127.607 101.765Z" fill="#3A3A3A"/>
<path d="M99.032 101.733C99.508 102.667 100.032 103.341 99.9027 103.507C99.34 104.231 98.6107 104.84 97.864 105.383C97.8013 105.428 96.7974 104.432 96.8507 104.345C97.3947 103.536 98.0787 102.824 99.032 101.733Z" fill="#3A3A3A"/>
<path d="M114.944 109.689L113.251 111.255C112.833 110.653 112.137 110.071 112.093 109.443C112.061 108.997 112.913 108.491 113.369 108.012L114.944 109.689Z" fill="#3A3A3A"/>
<path d="M133.977 90.208L132.608 88.5093C133.141 88.1013 133.663 87.4293 134.232 87.3787C134.623 87.3453 135.368 88.1453 135.432 88.6373C135.467 89.0093 134.685 89.4813 133.977 90.208Z" fill="#3A3A3A"/>
<path d="M99.44 76.304C98.64 76.82 98.016 77.4013 97.84 77.2907C97.1734 76.864 96.652 76.2147 96.076 75.6493C96.4534 75.2813 97.0187 74.5333 97.1787 74.6107C97.8841 74.956 98.4707 75.5387 99.44 76.304Z" fill="#3A3A3A"/>
<path d="M92.652 90.608L90.9333 88.9107C91.4587 88.5627 91.976 87.9533 92.5107 87.94C93.0014 87.928 93.5094 88.5547 94.0107 88.9L92.652 90.608Z" fill="#3A3A3A"/>
</svg>
