<svg width="160" height="160" viewBox="0 0 160 160" fill="none" xmlns="http://www.w3.org/2000/svg">
<path d="M33.9413 61.0013C27.116 56.3853 25.7826 48.944 27.8746 43.0187C30.008 36.9734 35.896 32.8053 43.1866 33.2773C49.044 33.6573 54.8613 38.3293 56.48 44.2773C58.432 51.4573 55.7786 56.944 47.884 62.0747C50.4502 65.7867 53.0168 69.4996 55.584 73.2133C56.4733 74.5067 57.5906 74.8 59.1173 74.428C61.6893 73.8 64.24 73.3613 66.412 71.5413C67.3213 70.7787 68.9266 70.8453 70.4533 70.4747C70.4533 67.916 70.4426 65.1413 70.4533 62.3707C70.472 58.7707 72.912 56.148 76.6053 56.088C83.5946 55.9773 90.5853 56.0147 97.576 56.0093C98.708 56.0093 99.8546 56.0093 100.971 56.168C103.104 56.476 104.488 58.072 104.571 60.248C104.625 61.772 104.581 63.3013 104.581 65.012C108.508 65.1293 112.349 65.2987 116.192 65.3453C120.625 65.3987 125.06 65.3387 129.493 65.336C133.436 65.336 135.937 67.8333 135.959 71.8067C135.975 74.6947 135.959 77.5827 135.959 80.5133C136.759 80.6693 137.568 80.6947 138.268 80.9893C140.321 81.8547 141.245 83.5227 141.267 85.7067C141.301 89.116 141.36 92.528 141.316 95.9374C141.277 98.9347 139.405 100.689 135.763 101.293C135.621 103.827 135.609 106.384 135.305 108.907C134.941 111.919 132.789 113.815 129.779 113.825C116.423 113.873 103.065 113.861 89.708 113.871C88.6853 113.871 87.6613 113.888 86.6413 113.86C82.844 113.755 80.4333 111.339 80.3826 107.505C80.336 103.993 80.3733 100.48 80.3733 96.7707C79.316 96.7707 78.3733 96.7707 77.4186 96.7707C72.8853 96.7533 70.432 94.2533 70.4546 89.6787C70.468 87.1307 70.4546 84.5813 70.4546 81.992C69.6626 81.712 68.7933 81.3253 67.8826 81.1107C67.2562 80.9664 66.6067 80.9523 65.9746 81.0694C62.6546 81.7067 59.364 82.5107 56.0293 83.04C53.6466 83.4187 51.7333 82.316 50.2773 80.4307C49.9346 79.988 49.6106 79.528 49.0773 78.7934C49.0773 80.0733 49.02 81.0453 49.0866 82.0093C49.6106 89.5987 50.116 97.1893 50.716 104.773C51.0666 109.128 51.6 113.467 51.9773 117.813C52.064 118.807 52.5573 118.995 53.3586 119.359C55.024 120.117 56.7093 120.995 58.0866 122.173C59.5813 123.453 59.144 125.056 57.1866 125.364C54.5029 125.798 51.7837 125.971 49.0666 125.883C42.4 125.635 44.0546 126.603 42.908 120.476C41.776 114.432 41.1266 108.297 40.056 102.143C39.6293 104.136 39.2173 106.132 38.7746 108.123C37.9746 111.701 37.2173 115.291 36.332 118.848C36.0586 119.944 36.0853 120.568 37.2426 121.105C38.1333 121.52 38.936 122.26 39.5893 123.019C40.8733 124.509 40.368 126.485 38.4733 126.619C34.8733 126.872 31.2466 126.724 27.636 126.584C26.436 126.539 25.9666 125.533 26.1173 124.345C26.6093 120.479 27.136 116.604 27.6 112.728C28.3831 106.208 29.1435 99.6853 29.8813 93.16C30.3533 88.996 30.7733 84.8253 31.2146 80.6573C31.244 80.38 31.2146 80.0973 30.8426 79.7067C30.072 82.3387 29.188 84.944 28.5573 87.6093C27.856 90.5733 27.3746 93.5893 26.824 96.5867C26.3693 99.0373 24.584 100.664 22.464 100.523C20.4773 100.389 18.576 98.4947 18.6826 96.1933C19.216 84.7267 21.9973 73.9827 29.2613 64.776C29.888 63.976 30.6786 63.2973 31.4706 62.6573C32.1986 62.0627 33.0426 61.6 33.9413 61.0013ZM90.6453 85.8853C90.6453 84.3613 90.5546 83.0547 90.6866 81.772C90.7466 81.1787 91.124 80.324 91.5746 80.148C92.0253 79.972 92.9306 80.3 93.3546 80.704C95.9493 83.1693 98.4586 85.7227 101.008 88.236C101.767 88.9827 101.604 89.5693 100.844 90.2107C98.1213 92.5333 95.448 94.9093 92.7026 97.2C92.3026 97.536 91.472 97.8054 91.1026 97.6107C90.684 97.3947 90.3666 96.6213 90.3453 96.076C90.2986 94.904 90.4706 93.724 90.5613 92.4387H82.7253C82.7253 97.7947 82.6933 103.064 82.744 108.332C82.76 110.008 83.8106 111.056 85.3693 111.464C86.2866 111.703 87.2733 111.751 88.2293 111.753C96.2995 111.775 104.37 111.779 112.44 111.767C117.953 111.767 123.465 111.776 128.973 111.753C131.347 111.743 133.069 110.553 133.181 108.637C133.323 106.22 133.216 103.787 133.216 101.143C130.783 101.143 128.181 101.173 125.583 101.136C121.097 101.071 116.607 101.08 112.131 100.827C109.511 100.677 107.699 98.56 107.632 95.928C107.548 92.6347 107.447 89.328 107.653 86.0453C107.732 84.8134 108.453 83.4747 109.236 82.4667C110.591 80.7333 112.645 80.3747 114.76 80.4133C117.659 80.4653 120.556 80.536 123.453 80.5587C126.787 80.584 130.12 80.5587 133.713 80.5587C133.713 77.528 133.781 74.58 133.693 71.636C133.609 68.8013 132.093 67.4413 129.253 67.4267C123.911 67.4013 118.569 67.356 113.227 67.36C104.137 67.36 95.0466 67.404 85.956 67.4213C84.6226 67.4213 83.5133 67.8214 83.444 69.3267C83.2 74.6507 83.032 79.9787 82.832 85.404L90.6453 85.8853ZM64.176 75.4067C63.3533 75.64 62.5066 75.8907 61.656 76.1187C56.5893 77.4773 55.5226 77.1227 52.5266 72.864C50.572 70.084 48.7053 67.244 46.8066 64.4253C46.044 63.292 45.1893 62.8067 43.676 63.164C42.3454 63.4674 40.9594 63.4261 39.6493 63.044C36.236 61.9893 33.6493 63.2053 31.496 65.6667C30.1626 67.192 28.88 68.8147 27.868 70.564C24.0773 77.1133 22.1653 84.3067 21.0666 91.7333C20.8146 93.436 20.9066 95.2267 21.128 96.9333C21.1973 97.476 22.164 98.2027 22.7893 98.2774C23.276 98.3373 23.96 97.5893 24.3826 97.0613C24.668 96.704 24.692 96.112 24.7626 95.616C25.8693 87.788 27.7893 80.2053 31.5746 73.196C32.04 72.3347 32.1826 70.736 33.6613 71.2613C35.1853 71.8027 34.284 73.248 34.184 74.2493C33.6 80.116 32.8933 85.96 32.2746 91.8187C31.8266 96.048 31.568 100.299 31.016 104.512C30.1586 111.067 29.12 117.6 28.1106 124.459H37.624C36.7706 123.448 35.6613 122.889 34.7746 122.085C34.2413 121.6 33.6426 120.647 33.768 120.051C35.4666 111.935 37.28 103.84 39.1373 95.7587C39.2613 95.2253 39.9933 94.8253 40.444 94.356C40.8186 94.8227 41.4453 95.2493 41.528 95.7627C42.1413 99.6213 42.6186 103.496 43.192 107.363C43.94 112.397 44.7613 117.421 45.4893 122.459C45.6226 123.381 45.9773 123.737 46.8866 123.728C49.444 123.699 52.0026 123.736 54.56 123.699C55.056 123.691 55.548 123.46 56.0413 123.332C56.0586 123.145 56.0746 122.959 56.092 122.771C54.5306 122.204 53.0053 121.456 51.3946 121.128C50.224 120.891 49.8866 120.291 49.7866 119.332C49.6106 117.64 49.472 115.943 49.3333 114.245C48.8413 108.196 48.32 102.148 47.876 96.0947C47.3266 88.62 46.8262 81.1427 46.3746 73.6627C46.348 73.2027 46.9226 72.7053 47.216 72.2253C47.6786 72.5587 48.2946 72.796 48.5773 73.244C49.84 75.2374 50.8973 77.368 52.2626 79.284C52.776 80.0053 53.8906 80.6173 54.7813 80.696C58.4426 81.0107 61.94 80.1027 65.3933 78.8853C64.9746 77.6907 64.5853 76.5787 64.176 75.4067ZM41.988 61.0133C49.1413 61.0013 54.788 55.4427 54.7986 48.4093C54.8094 46.6935 54.4795 44.9925 53.8278 43.4052C53.1762 41.8178 52.2159 40.3756 51.0027 39.1622C49.7894 37.9489 48.3473 36.9884 46.76 36.3367C45.1727 35.6849 43.4718 35.3547 41.756 35.3653C34.724 35.3653 29.1946 41.0347 29.1986 48.2333C29.2 55.4787 34.752 61.024 41.988 61.0133ZM124.74 98.8227V98.8573C128.373 98.8573 132.008 98.8853 135.641 98.848C138.163 98.8227 139.027 97.9413 139.039 95.4693C139.054 92.288 139.05 89.1071 139.028 85.9267C139.015 83.748 138.125 82.8453 135.911 82.836C128.533 82.804 121.151 82.7893 113.765 82.792C111.253 82.792 109.733 84.2907 109.704 86.792C109.675 89.3467 109.695 91.9027 109.704 94.4587C109.713 97.5333 110.959 98.8054 114.009 98.82C117.585 98.836 121.163 98.8227 124.74 98.8227ZM102.133 65.0933C102.253 64.784 102.359 64.6307 102.367 64.472C102.421 63.3933 102.468 62.3147 102.5 61.236C102.549 59.144 101.664 58.2293 99.544 58.2267C92.0417 58.2178 84.5395 58.2178 77.0373 58.2267C74.2906 58.2267 72.564 59.936 72.5373 62.6573C72.5133 65.1013 72.6093 67.548 72.5106 69.9907C72.428 72.036 72.7133 73.8253 74.0733 75.5253C75.532 77.3467 75.2 79.156 73.6066 80.8667C73.288 81.208 72.94 81.68 72.9133 82.112C72.7426 84.7187 72.5933 87.332 72.5706 89.944C72.552 92.1894 74.0706 94.1227 76.0466 94.3533C77.428 94.5147 78.8466 94.3853 80.3253 94.3853C80.368 93.6853 80.4173 93.128 80.4346 92.5707C80.6453 85.8151 80.8542 79.0569 81.0613 72.296C81.088 71.4453 81.0613 70.5827 81.1946 69.7467C81.7213 66.308 83.1826 65.0933 86.6866 65.0933H102.133ZM72.6 77.4374C72.4666 77.1814 72.2346 76.6787 71.9333 76.22C71.5066 75.5533 70.776 74.984 70.628 74.2773C70.3333 72.8667 69.3506 72.5627 68.4133 72.992C67.648 73.3413 66.8133 74.304 66.68 75.1093C66.3333 77.1093 68.3453 79.4013 70.3626 79.676C71.5293 79.8347 72.652 78.8587 72.6 77.4374Z" fill="#3A3A3A"/>
<path d="M43.8667 46.848C43.8827 47.9427 43.716 48.9893 42.336 48.9813C40.9854 48.9733 40.7814 47.9787 40.7907 46.856C40.7987 45.7813 40.8494 44.6693 42.212 44.6227C43.6494 44.572 43.8467 45.7013 43.8667 46.848Z" fill="#3A3A3A"/>
<path d="M48.3 45.9307C48.1667 44.8773 48.48 43.8827 49.824 43.956C51.1387 44.028 51.3147 45.168 51.3013 46.2387C51.288 47.232 51.204 48.2853 49.8547 48.312C48.2733 48.3413 48.2827 47.176 48.3 45.9307Z" fill="#3A3A3A"/>
<path d="M132.309 88.5907C133.76 88.5733 134.644 89.4427 134.641 90.884C134.641 92.5107 133.512 93.684 131.92 93.7293C130.377 93.7693 129.467 92.88 129.483 91.348C129.499 89.7733 130.691 88.6107 132.309 88.5907Z" fill="#3A3A3A"/>
</svg>
