<svg width="160" height="160" viewBox="0 0 160 160" fill="none" xmlns="http://www.w3.org/2000/svg">
<path d="M24.216 72.2427C24.252 71.9227 24.2853 71.6787 24.3066 71.4333C24.4773 69.4507 25.8906 68.4373 27.712 69.2253C28.7466 69.6733 29.796 70.416 30.4693 71.3053C32.056 73.4026 34.2133 74.0787 36.6346 74.564C38.1213 74.86 38.8213 74.3373 39.5933 73.2213C41.984 69.7653 44.232 66.1707 47.708 63.6307C48.3253 63.1787 48.976 62.772 49.62 62.3387C40.9626 57.0387 39.9133 48.16 42.1986 42.3387C44.3666 36.8173 50.0586 31.896 58.3533 32.5333C64.0573 32.972 70.28 38.0413 71.764 43.8906C73.4506 50.544 71.2493 57.7133 63.532 62.3187C67.9133 64.9067 70.5986 69.1187 73.7986 72.8C74.444 73.544 74.9266 73.624 75.732 73.2333C78.0333 72.116 80.44 71.1706 81.836 68.796C82.06 68.4133 82.472 68.1293 82.8293 67.836C85.1386 65.9693 86.9626 66.4533 88 69.124C89.2506 69.2826 90.5333 69.244 91.6586 69.6267C94.6106 70.6267 95.472 74.1307 93.0946 76.112C91.5893 77.3667 89.5626 78.0373 87.7026 78.8093C85.7386 79.6227 83.6893 80.228 81.6893 80.96C81.0666 81.188 80.4893 81.532 79.8866 81.82C73.9186 84.672 71.2693 84.0307 67.1946 78.7533C67.0826 78.608 66.9106 78.5107 66.5933 78.2493C67.092 85.112 67.5786 91.7547 68.0533 98.3987C68.496 104.593 68.92 110.788 69.3626 116.983C69.4346 118.004 69.4866 119.039 69.6986 120.036C69.7813 120.436 70.2213 120.816 70.592 121.069C71.644 121.789 72.792 122.375 73.812 123.133C74.6693 123.769 75.3826 124.767 74.8466 125.783C74.4546 126.525 73.4493 127.429 72.7213 127.427C69.2441 127.425 65.7695 127.24 62.312 126.871C60.8213 126.707 60.0453 125.352 59.836 123.867C58.9346 117.323 58.0653 110.773 57.124 103.776C56.628 106.457 56.204 108.743 55.7826 111.028C54.9826 115.351 54.1266 119.665 53.4213 124.004C53.0906 126.04 51.8466 127.007 50.0346 127.181C47.3333 127.439 44.6 127.6 41.8933 127.489C40.9506 127.451 39.664 126.7 39.2133 125.896C38.5466 124.696 39.428 123.563 40.4613 122.743C40.6893 122.536 40.9451 122.362 41.2213 122.225C43.192 121.425 43.9093 119.992 44.0213 117.869C44.3213 112.44 44.8506 107.024 45.2893 101.603C45.764 95.7191 46.2386 89.8355 46.7133 83.952C46.8386 82.372 46.9346 80.7893 47.0586 78.9907C46.1706 80.0173 45.3786 80.9053 44.6186 81.8187C42.2186 84.6987 39.2013 85.2973 35.7346 84.2453C34.7586 83.9493 33.7533 83.7053 32.8293 83.2867C30.1333 82.0667 27.2733 81.644 24.376 81.268C23.2386 81.12 22.096 80.6747 21.06 80.1573C19.116 79.184 18.3933 77.6053 18.7506 75.596C19.0306 74.0426 20.784 72.5786 22.6413 72.3626C23.148 72.304 23.6533 72.284 24.216 72.2427ZM40.824 124.881L41.0626 125.38C44.1293 126.027 47.1786 125.688 50.1946 125.067C50.6986 124.963 51.332 124.205 51.4386 123.659C52.3346 119.093 53.1066 114.504 53.944 109.925C54.644 106.105 55.3426 102.284 56.1466 98.4853C56.2626 97.9373 56.9693 97.5133 57.4026 97.0307C57.784 97.5013 58.412 97.9267 58.5053 98.448C58.9053 100.715 59.16 103.007 59.4653 105.289C60.2853 111.423 61.0786 117.568 61.9733 123.689C62.0506 124.223 62.7306 124.939 63.252 125.067C64.6987 125.406 66.175 125.604 67.66 125.659C69.4413 125.737 71.2306 125.631 73.0173 125.604C73.0733 125.351 73.1289 125.097 73.184 124.844C71.94 124.116 70.74 123.291 69.436 122.692C68.4706 122.249 67.804 121.821 67.7333 120.632C67.5866 118.179 67.2893 115.735 67.0986 113.283C66.6986 108.216 66.336 103.149 65.9586 98.0827C65.684 94.3987 65.384 90.716 65.1453 87.028C64.8786 82.8293 64.632 78.628 64.456 74.4226C64.436 73.9493 64.928 73.4547 65.1826 72.9707C65.64 73.3 66.228 73.5387 66.5293 73.9747C67.5173 75.4 68.256 77.016 69.3506 78.344C72.4013 82.048 73.908 82.3573 78.284 80.436C81.6866 78.94 84.9293 77.032 88.732 76.6013C89.3653 76.5293 89.9813 76.1533 90.5653 75.8427C91.7546 75.208 92.74 74.376 92.4493 72.8373C92.2333 71.688 90.936 71.0333 89.2066 71.12C88.8479 71.1431 88.4913 71.193 88.14 71.2693C87.0586 71.4853 85.9786 71.716 84.64 71.9947C85.072 71.124 85.4293 70.5173 85.6733 69.8613C85.7933 69.54 85.7053 69.1386 85.7106 68.7733C85.328 68.8133 84.844 68.7187 84.584 68.9173C83.9 69.44 83.1946 70.008 82.7173 70.7066C81.8257 72.0257 80.5725 73.0594 79.108 73.684C77.9853 74.176 76.8546 74.6747 75.8 75.2933C74.6866 75.9467 73.8706 75.6507 73.112 74.76C72.012 73.4733 70.9506 72.148 69.7906 70.9173C67.824 68.8307 65.8666 66.7253 63.76 64.784C62.5453 63.6653 61.0933 63.1667 59.2386 63.6133C57.6383 63.9733 55.979 63.9828 54.3746 63.6413C52.108 63.1613 50.3866 64 48.7026 65.2213C48.0674 65.6575 47.4923 66.1753 46.992 66.7613C45.0653 69.1613 42.968 71.4547 41.368 74.056C39.956 76.3493 38.4093 76.9307 35.836 76.3773C33.0693 75.784 30.6746 74.8627 28.9893 72.4947C28.696 72.0827 28.3373 71.6533 27.9066 71.428C27.476 71.2027 26.9186 71.2013 26.416 71.1027C26.4893 71.56 26.4666 72.0626 26.6573 72.464C26.9666 73.1186 27.416 73.7067 27.8573 74.404C26.18 74.3267 24.7 74.1666 23.228 74.2213C22.0106 74.2666 20.8653 74.7027 20.5866 76.1147C20.32 77.4853 21.1613 78.228 22.2906 78.6787C23.098 78.9904 23.9268 79.2435 24.7706 79.436C27.4373 80.072 30.124 80.636 32.7853 81.3027C33.8693 81.5693 34.9106 82.012 35.9733 82.3693C39.04 83.4027 41.636 82.7947 43.5826 80.1027C44.9026 78.276 46.1533 76.3987 47.4973 74.5907C47.7906 74.1907 48.3466 73.992 48.7813 73.7013C48.9666 74.1813 49.3346 74.672 49.3146 75.14C49.1173 78.7267 48.868 82.3107 48.5866 85.8907C48.128 91.7227 47.6489 97.5524 47.1493 103.38C46.66 109.101 46.112 114.819 45.6533 120.543C45.5666 121.617 45.076 122.167 44.1866 122.66C43.0133 123.319 41.94 124.133 40.824 124.881ZM56.5573 61.892C63.9866 61.912 70.2666 55.6453 70.2906 48.192C70.3093 40.788 64.108 34.4506 56.8053 34.4106C49.4133 34.3693 43.1546 40.4907 43.1293 47.7867C43.1 55.5587 49.1133 61.8733 56.56 61.892H56.5573Z" fill="#3A3A3A"/>
<path d="M118.377 95.668C112.511 91.7133 110.259 86.2373 111.943 80.2827C113.451 74.9493 119.04 70.3813 124.287 70.1973C130.831 69.9667 135.935 73.088 138.009 78.7307C139.895 83.8533 139.587 91.1773 132.009 95.9307C137.839 100.843 139.86 107.563 140.943 114.724C141.104 115.791 141.36 116.857 141.333 117.924C141.319 118.483 140.788 119.028 140.489 119.579C140.123 119.077 139.484 118.604 139.423 118.071C138.939 113.26 138.044 108.557 135.949 104.163C134.749 101.645 133.24 99.304 130.928 97.6587C130.368 97.2587 129.421 97.1013 128.733 97.2387C126.432 97.7027 124.125 97.9653 121.913 97.1227C120.501 96.5893 119.569 97.0893 118.624 97.9227C116.233 100.041 114.439 102.651 113.473 105.636C112.224 109.503 111.405 113.503 110.349 117.439C110.115 118.315 110.587 119.957 109.085 119.756C107.677 119.567 108.295 118.167 108.419 117.191C109.028 112.455 110.116 107.849 112.223 103.533C113.704 100.505 115.501 97.7213 118.377 95.668ZM136.933 84.0267C137.083 77.4653 132.4 72.2627 125.521 72.1067C119.121 71.9613 113.669 77.5507 113.408 83.7907C113.157 89.7787 119.105 95.6467 125.319 95.636C126.844 95.639 128.356 95.3408 129.766 94.7585C131.176 94.1762 132.457 93.3212 133.536 92.2427C134.615 91.1641 135.471 89.8832 136.054 88.4733C136.637 87.0634 136.936 85.5523 136.933 84.0267Z" fill="#3A3A3A"/>
<path d="M93.3014 51.3147C93.2787 42.3267 100.752 34.7347 109.631 34.7227C118.179 34.7107 125.325 41.8667 125.541 50.2667C125.8 60.2853 117.328 67.544 109.08 67.5467C100.993 67.5413 93.2214 60.8 93.3014 51.3147ZM95.2694 51.2307C95.2241 59.0893 101.293 65.4667 108.893 65.5333C116.836 65.6093 123.484 58.928 123.54 50.816C123.592 43.2453 117.495 37.0827 110.107 36.8253C102.545 36.5613 95.4041 42.8 95.2694 51.2307Z" fill="#F7931B"/>
<path d="M107.892 44.3795L108.554 41.7912L110.32 42.243L109.68 44.7434L111.115 45.1104L111.747 42.6399L113.459 43.078L112.836 45.5129C114.112 46.2511 115.591 46.748 115.801 48.3921C115.998 49.9375 115.228 50.9574 113.711 51.6357C115.21 52.6669 115.767 53.9006 115.15 55.4499C114.406 57.3193 113.716 57.6076 109.758 57.7764L109.12 60.2701L107.533 59.9524L108.202 57.3392L106.572 56.9223L105.915 59.4932C104.106 59.4308 104.02 59.3275 104.405 57.8239C104.515 57.3919 104.626 56.9598 104.772 56.3884C104.032 56.199 103.361 56.0211 102.687 55.855C102.126 55.7175 101.764 55.4986 101.924 54.83C102.066 54.2204 102.295 53.8645 103.027 54.0323C103.363 54.1087 103.719 54.0938 104.091 54.1218L106.144 46.0989C105.706 45.8986 105.188 45.8234 104.972 45.534C104.719 45.1608 104.627 44.7101 104.713 44.2785C104.77 44.0579 105.354 43.8106 105.677 43.8437C106.363 43.9151 107.037 44.1609 107.892 44.3795ZM108.005 51.6073L107.139 54.9909C108.332 55.1837 109.432 55.4405 110.541 55.5156C111.428 55.5749 112.153 54.9827 112.081 54.1831C112.03 53.5631 111.522 52.7308 110.968 52.43C110.112 51.9651 109.039 51.8718 108.005 51.6073ZM108.266 49.5887C109.62 49.7884 110.914 50.7752 112.054 49.5859C112.383 49.2442 112.523 48.3805 112.306 47.9654C111.619 46.6408 110.2 47.0059 108.988 46.7682L108.266 49.5887Z" fill="#F7931B"/>
<path d="M114.145 118.705C114.932 114.363 115.648 110.24 116.465 106.139C116.549 105.723 117.244 105.428 117.655 105.079C117.887 105.624 118.379 106.205 118.309 106.708C117.776 110.545 117.168 114.372 116.484 118.188C116.377 118.78 115.797 119.287 115.436 119.833L114.145 118.705Z" fill="#3A3A3A"/>
<path d="M134.427 118.915L133.452 119.84C133.088 119.369 132.475 118.933 132.403 118.423C131.984 115.445 131.712 112.448 131.348 109.464C131.251 108.664 130.891 107.879 130.871 107.081C130.855 106.415 131.16 105.748 131.324 105.081C131.797 105.565 132.585 105.989 132.692 106.548C133.268 109.544 133.689 112.571 134.129 115.591C134.267 116.552 134.307 117.525 134.427 118.915Z" fill="#3A3A3A"/>
<path d="M59.3574 57.3027C57.7947 56.8413 56.4307 56.588 55.224 56.0093C54.7534 55.7827 54.632 54.8267 54.3507 54.2013C54.944 54.216 55.6347 54.036 56.1147 54.276C58.3107 55.38 60.3947 55.3547 62.536 54.1227C62.936 53.8933 63.6027 54.1387 64.152 54.1653C63.9894 54.688 63.9747 55.5227 63.64 55.6813C62.2467 56.3387 60.76 56.792 59.3574 57.3027Z" fill="#3A3A3A"/>
<path d="M65.7107 46.548C65.6587 47.1026 65.7614 47.6213 65.5494 47.8813C65.2094 48.3013 64.66 48.5546 64.1987 48.8773C63.7587 48.1586 62.968 47.4386 62.9707 46.72C62.9707 45.92 63.6907 45.112 64.0974 44.308C64.5694 44.6027 65.164 44.804 65.4734 45.2213C65.7334 45.5867 65.6587 46.192 65.7107 46.548Z" fill="#3A3A3A"/>
<path d="M57.9801 46.6067C57.9107 46.9293 57.9334 47.4067 57.7134 47.704C57.3827 48.16 56.8694 48.8187 56.4641 48.7973C56.0281 48.7733 55.5414 48.12 55.2414 47.6387C55.0521 47.3347 55.1414 46.8387 55.1481 46.4387C55.1667 45.4427 55.1707 44.2853 56.5334 44.3307C57.8387 44.3707 57.8027 45.568 57.9801 46.6067Z" fill="#3A3A3A"/>
<path d="M124.207 91.52C121.913 91.3387 120.361 90.232 119.171 88.5867C118.915 88.2347 119.151 87.52 119.161 86.98C119.653 87.1013 120.34 87.0586 120.608 87.372C122.687 89.8093 124.649 89.692 127.141 88.2867C127.541 88.0573 128.208 88.2866 128.76 88.3133C128.544 88.864 128.481 89.6986 128.083 89.9133C126.857 90.58 125.507 91.004 124.207 91.52Z" fill="#3A3A3A"/>
<path d="M119.009 81.7973C119.377 80.5347 119.449 79.352 120.711 79.356C121.972 79.36 122.064 80.5813 122.079 81.5533C122.096 82.572 121.812 83.744 120.612 83.6213C120.019 83.56 119.539 82.4387 119.009 81.7973Z" fill="#3A3A3A"/>
<path d="M129.333 82.3667C128.769 82.9333 128.244 83.924 127.635 83.9787C126.435 84.0853 126.404 82.904 126.356 81.9787C126.337 81.6293 126.292 81.1933 126.467 80.9387C126.775 80.4853 127.303 79.7787 127.625 79.8347C128.108 79.9173 128.559 80.5253 128.891 80.9987C129.071 81.2493 128.991 81.6853 129.024 82.0387L129.333 82.3667Z" fill="#3A3A3A"/>
</svg>
