<svg width="160" height="160" viewBox="0 0 160 160" fill="none" xmlns="http://www.w3.org/2000/svg">
<path d="M111.568 99.5307C113.527 103.083 113.145 105.715 110.436 108.413C109 109.844 107.515 111.232 106.148 112.727C103.927 115.152 100.584 116.193 97.2786 114.033C97.2525 114.041 97.2271 114.052 97.2027 114.064C95.6946 115.051 95.3506 116.141 95.916 118.057C98.7253 127.576 92.7253 137.257 83.0427 139.157C74.9026 140.757 66.7853 135.905 64.1973 127.908C62.928 123.985 63.1133 120.123 64.5973 116.308C64.6373 116.207 64.6746 116.104 64.7026 116.031L62.952 114.199C61.508 114.568 60.2706 115.027 58.9973 115.177C57.1306 115.399 55.5306 114.623 54.208 113.328C52.6373 111.792 51.0849 110.236 49.5506 108.661C46.7506 105.787 46.3893 103.415 48.1866 99.7774C46.6946 98.28 45.1986 96.7587 43.664 95.2787C43.5133 95.1347 43.1026 95.1774 42.8413 95.2427C39.3133 96.1347 35.8146 96.1227 32.46 94.6293C26.98 92.1893 23.7853 87.9414 22.944 82C21.8 73.924 26.5893 66.636 34.4373 64.4334C37.3506 63.6147 40.2626 63.6267 43.1333 64.6147C43.7853 64.8387 44.2 64.748 44.66 64.2453C45.8133 62.976 47.0133 61.7494 48.26 60.4374C48.164 60.2654 47.9773 59.96 47.82 59.6374C46.62 57.188 46.9773 54.408 48.8973 52.372C50.792 50.3654 52.72 48.384 54.748 46.5147C56.776 44.6453 59.724 44.0613 62.8813 46.236C63.4386 45.6267 64.0506 45.0133 64.5826 44.3373C64.716 44.1747 64.64 43.78 64.5493 43.5373C62.4546 37.804 62.968 32.3573 66.564 27.3947C70.4306 22.0613 75.764 19.944 82.2973 20.6853C88.8573 21.4307 95.1093 26.904 96.4306 34.5667C96.9538 37.5172 96.6202 40.5559 95.4693 43.3227C95.2613 43.828 95.2426 44.1787 95.7 44.5613C96.2333 45.0107 96.704 45.5453 97.244 46.0867C98.388 45.3533 99.5986 44.864 100.993 44.8653C102.656 44.8653 104.108 45.428 105.28 46.5387C107.28 48.436 109.241 50.3853 111.136 52.3907C113.213 54.592 113.309 57.4947 111.487 60.5387C112.859 61.908 114.239 63.3027 115.649 64.6654C115.771 64.7827 116.111 64.752 116.316 64.6894C122.909 62.748 128.601 64.2893 133.249 69.296C136.012 72.2693 137.237 75.928 137.205 80.0053C137.152 86.66 132.845 92.776 126.587 94.972C123.419 96.084 120.196 96.1013 116.987 95.196C116.397 95.0307 116.077 95.1453 115.676 95.5467C114.336 96.8933 112.944 98.204 111.568 99.5307ZM46.488 66.024C50.9786 68.9574 53.588 73.1134 54.1813 78.468H61.2373C62.248 67.6587 71.432 60.932 80.5707 61.18C90.0227 61.4374 98.424 68.6067 98.7746 79.512C99.0666 88.7054 92.88 97.0827 82.996 98.7454C77.4813 99.6787 72.4347 98.2934 68.108 94.7267C63.7813 91.16 61.5293 86.5107 61.2426 80.9187H54.1973C53.6293 86.6987 50.8746 91.0733 46.0346 93.8987L50 97.956C52.9106 96.1893 55.8093 96.356 58.072 98.5467C59.9386 100.345 61.74 102.205 63.564 104.045C64.399 104.889 64.9762 105.952 65.228 107.112C65.6466 108.932 65.2533 110.605 64.3346 112.224C64.6209 112.467 64.8925 112.727 65.148 113.003C65.3754 113.309 65.5846 113.628 65.7746 113.959C69.3453 108.687 73.9413 105.815 80.056 105.825C86.196 105.843 90.7773 108.805 94.2826 113.933C94.6666 113.477 95.0373 113.117 95.304 112.693C95.4373 112.475 95.524 112.069 95.4133 111.871C93.8 108.983 94.1266 106.328 96.4533 103.973C98.2311 102.169 100.024 100.377 101.831 98.5973C103.404 97.0533 105.297 96.452 107.463 96.936C108.316 97.128 109.119 97.5427 109.923 97.848L113.883 93.9813C102.96 87.7493 103.128 72.256 113.548 65.9813C112.38 64.8013 111.228 63.6187 110.044 62.468C109.931 62.3574 109.575 62.364 109.412 62.4574C106.66 64.0414 103.768 63.3814 101.639 61.2654C99.92 59.5587 98.2 57.8547 96.5053 56.124C96.0502 55.6646 95.651 55.1531 95.316 54.6C93.9506 52.3093 94.24 50.0493 95.5373 47.8787L94.024 46.3147C90.5893 51.2067 86.0866 54.028 79.9973 54.0294C73.908 54.0307 69.44 51.1853 66.1 46.5067C65.5133 47.0507 64.9613 47.5613 64.4133 48.072C66.0867 51.2614 65.7173 53.7333 63.1706 56.3067C61.4266 58.068 59.704 59.8574 57.9053 61.5547C57.2467 62.1576 56.4811 62.632 55.648 62.9534C53.7186 63.7094 51.856 63.3534 50.2133 62.3214C48.944 63.5814 47.7333 64.788 46.488 66.024ZM65.8013 122.751C65.8013 130.575 72.0773 136.893 79.7293 137.017C87.12 137.139 94.2333 131.144 94.2733 122.679C94.3106 114.801 87.844 108.299 80.0667 108.243C72.7146 108.192 65.7333 114.287 65.8013 122.751ZM79.972 51.6453C87.6773 51.7987 94.1786 45.3053 94.2653 37.4027C94.352 29.5 87.8546 22.9187 80.1146 22.9107C72.0893 22.904 65.7813 29.188 65.7613 37.2227C65.74 45.684 72.8893 51.7573 79.972 51.6453ZM121.333 66.3187C114.377 66.1854 108.281 72.0947 108.133 79.4293C107.968 87.7267 114.729 93.3587 121.295 93.4293C128.636 93.5133 134.785 87.3334 134.839 79.9467C134.891 72.3347 128.912 66.332 121.333 66.3187ZM38.596 66.332C35.0605 66.3093 31.6602 67.6892 29.1404 70.1693C26.6205 72.6493 25.1868 76.0273 25.1533 79.5627C25.0546 87.0227 30.7053 93.0294 37.7613 93.4C45.4626 93.808 51.792 87.4507 51.84 79.9734C51.8853 72.0667 45.4666 66.2494 38.5906 66.332H38.596ZM59.3507 112.667C60.4746 112.64 61.7426 112.036 62.4173 110.545C63.1613 108.896 63.06 107.263 61.788 105.921C59.8933 103.921 57.9213 101.988 55.9293 100.085C55.4696 99.68 54.9023 99.4165 54.296 99.3267C52.4293 99.044 51.0146 99.8147 50.1906 101.416C49.304 103.139 49.4613 104.901 50.7546 106.247C52.5093 108.071 54.3186 109.847 56.132 111.609C56.8826 112.337 57.8293 112.667 59.3507 112.667ZM100.979 47.4067C99.2173 47.4387 98.028 48.3493 97.3266 49.9093C96.6493 51.4174 96.884 52.82 98.0453 54.0147C99.8106 55.8293 101.543 57.684 103.407 59.3934C104.149 60.062 105.054 60.5221 106.032 60.7267C107.616 61.0254 109.025 60.06 109.809 58.488C110.629 56.848 110.536 55.4133 109.325 54.1347C107.527 52.236 105.661 50.4013 103.781 48.5773C103.025 47.8507 102.112 47.34 100.979 47.4067ZM109.936 101.873C107.756 103.967 105.582 106.053 103.413 108.133C103.12 108.434 102.801 108.708 102.46 108.953C101.725 109.443 101.101 109.384 100.664 108.828C100.147 108.161 100.455 107.609 100.931 107.113C101.591 106.421 102.28 105.756 102.957 105.081L108.157 99.908C106.721 98.884 104.996 99.0254 103.72 100.277C101.831 102.126 99.9609 103.996 98.1093 105.887C96.5 107.532 96.624 109.729 98.376 111.487C99.9066 113.023 102.173 113.1 103.729 111.591C105.588 109.789 107.397 107.939 109.211 106.093C110.465 104.816 110.499 103.333 109.936 101.873ZM50.3573 58.776C50.58 58.4547 50.7573 58.092 51.0333 57.8174C53.0253 55.7862 55.0298 53.7676 57.0466 51.7613C57.2973 51.5107 57.6026 51.252 57.9293 51.1533C58.4933 50.984 58.9773 51.204 59.2946 51.7267C59.6946 52.3934 59.388 52.9333 58.9426 53.3907C57.9386 54.4187 56.892 55.4027 55.876 56.416C54.5506 57.7387 53.2373 59.072 51.9106 60.408C53.436 61.2307 54.9773 61 56.376 59.628C58.248 57.7978 60.084 55.9311 61.884 54.028C63.3 52.532 63.1827 50.344 61.6933 48.7894C60.0933 47.1133 58.1973 46.904 56.5453 48.4053C54.5666 50.2014 52.6413 52.0667 50.812 54.016C49.6173 55.288 49.308 56.8707 50.3573 58.776ZM65.2 73.0427C64.2815 74.947 63.7698 77.0217 63.6973 79.1347H70.0053C70.1875 77.5062 70.3653 75.936 70.5386 74.424L65.2 73.0427ZM89.3506 86.1254L94.584 87.4587C95.5626 85.56 96.0787 83.5347 96.2773 81.4H89.932C89.7333 83.0187 89.544 84.572 89.3546 86.1254H89.3506ZM89.9733 78.9747H96.3093C96.1133 76.816 95.736 74.78 94.7506 72.9507L89.4773 74.3427C89.648 75.8987 89.808 77.404 89.9773 78.9747H89.9733ZM70.5813 86.1187C70.3986 84.5454 70.2173 82.9987 70.032 81.412H63.772C63.9053 83.556 64.3946 85.564 65.3346 87.412L70.5813 86.1187ZM78.868 63.6854C75.9547 66.1454 74.4 69.18 73.2986 72.6667L78.868 73.1213V63.6854ZM86.632 72.6187C85.4813 69.152 83.9373 66.1374 81.1533 63.6693V73.128L86.632 72.6187ZM73.4426 87.928C74.4413 91.372 76.1813 94.084 78.8493 96.3894V87.5454L73.4426 87.928ZM81.132 96.2427L81.3386 96.3627C83.8346 94.096 85.432 91.2574 86.5306 87.9734L81.132 87.5733V96.2427ZM72.8106 85.816L78.8373 85.3694V81.4307H72.276C72.456 82.9014 72.628 84.3134 72.8106 85.816ZM72.252 79.1307H78.852V75.2213L72.8106 74.7854C72.6227 76.2494 72.4413 77.656 72.252 79.1307ZM81.1386 79.0907H87.6347C87.4866 77.5454 87.3493 76.112 87.2133 74.7014L81.1386 75.2347V79.0907ZM81.1386 85.3667L87.0947 85.828C87.2827 84.32 87.464 82.864 87.652 81.3574H81.136L81.1386 85.3667ZM85.0053 64.4414C85.696 65.5574 86.488 66.672 87.1 67.8773C87.7307 69.116 88.1666 70.4507 88.732 71.728C88.8053 71.8947 89.1146 72.104 89.2653 72.0707C90.724 71.744 92.172 71.3707 93.6653 71.004C92.0333 68.1214 88.356 65.3854 85.0053 64.4414ZM74.8906 64.62C71.712 65.4427 67.884 68.3534 66.3986 71.0774L71.0306 72.2987C71.8274 69.5209 73.1366 66.9166 74.8906 64.62ZM75.2653 95.8454C73.4544 93.7703 72.0925 91.343 71.2653 88.716C71.2146 88.5547 70.8426 88.356 70.6666 88.3934C69.3333 88.6787 68.012 89.02 66.5693 89.372C68.7373 92.5333 71.568 94.5934 75.2653 95.8454ZM84.78 95.8213C88.432 94.6 91.1946 92.5573 93.3853 89.4213L88.8 88.296C88 91.1067 86.6853 93.52 84.78 95.8213Z" fill="#3A3A3A"/>
<path d="M59.3026 108C59.2839 108.909 58.5026 109.453 57.7893 109.189C57.4261 109.045 57.0956 108.83 56.8173 108.556C55.3266 107.109 53.8533 105.644 52.3839 104.177C51.6946 103.489 51.5839 102.752 52.0519 102.255C52.4893 101.796 53.4333 101.824 54.0359 102.412C55.6639 103.997 57.2639 105.612 58.8519 107.239C59.0906 107.485 59.2119 107.844 59.3026 108Z" fill="#3A3A3A"/>
<path d="M108.184 57.512C108.203 58.644 107.417 59.184 106.576 58.808C106.246 58.6524 105.947 58.4378 105.695 58.1747C104.129 56.5933 102.583 54.996 101.028 53.4C100.895 53.26 100.683 53.0933 100.683 52.9387C100.683 52.4413 100.597 51.8067 100.861 51.4853C101.087 51.212 101.748 51.2653 102.219 51.2427C102.379 51.2347 102.575 51.412 102.709 51.548C104.368 53.232 106.029 54.9147 107.663 56.6253C107.941 56.912 108.081 57.3333 108.184 57.512Z" fill="#3A3A3A"/>
</svg>
