<svg width="160" height="160" viewBox="0 0 160 160" fill="none" xmlns="http://www.w3.org/2000/svg">
<path d="M71.632 82.4747C66.0853 85.8573 60.9786 87.5053 56.9213 80.3413C56.9213 82.0987 56.8626 83.3533 56.9306 84.6C57.2666 90.668 57.5973 96.7333 57.9973 102.801C58.444 109.448 58.9693 116.091 59.464 122.735C59.6093 124.689 59.688 126.653 59.9666 128.589C60.056 129.211 60.5706 129.923 61.1026 130.297C62.536 131.295 64.2253 131.965 65.5306 133.097C66.236 133.707 66.864 135.145 66.62 135.923C66.3333 136.829 65.1533 137.851 64.1893 138.079C60.112 139.043 55.9986 138.516 51.9666 137.639C50.136 137.239 49.1986 135.749 48.988 133.905C48.0271 125.482 47.076 117.059 46.1346 108.635C46.108 108.403 46.0013 108.179 45.5746 107.941C44.3524 115.704 43.1284 123.475 41.9026 131.253C43.1026 132.004 44.436 132.552 45.344 133.503C46.1253 134.316 46.9746 135.711 46.7786 136.632C46.588 137.525 45.144 138.715 44.1826 138.78C40.62 139.019 36.9973 139.133 33.4573 138.745C30.304 138.4 29.4493 136.832 29.7533 133.679C30.2866 128.157 30.8142 122.635 31.336 117.112C31.8173 112.109 32.4026 107.112 32.7786 102.105C33.288 95.3947 33.644 88.672 34.0626 81.9533C34.0786 81.696 34.0626 81.4373 34.0626 81.1787L33.5293 81.0667C32.7813 84.5667 31.9293 88.048 31.3146 91.5707C30.6773 95.2227 30.36 98.9307 29.732 102.585C29.2306 105.509 27.8893 106.645 25.5586 106.54C22.7093 106.407 20.7866 104.807 20.716 101.943C20.6182 98.4875 20.7563 95.0297 21.1293 91.5933C21.9506 84.3293 23.464 77.2013 26.596 70.5267C29.0213 65.3547 32.0626 60.6853 38.04 58.4387C33.5386 55.8427 30.6106 52.1987 29.0546 47.5947C27.4986 42.9907 27.6773 38.3573 29.5546 33.8333C32.9546 25.6453 40.7546 21.0333 49.6026 21.992C57.4973 22.844 64.216 29.204 65.7146 37.6427C67.244 46.256 63.3146 55.528 53.8986 59.6613C55.732 61.8533 57.7093 64.084 59.5346 66.4333C61.36 68.7827 63.0533 71.2693 64.9266 73.868C67.1933 72.5107 69.2773 71.3613 71.224 70.0133C71.624 69.736 71.608 68.712 71.6093 68.0333C71.632 54.7493 71.6746 41.4653 71.5986 28.1827C71.576 24.2427 73.572 22.0227 76.2253 21.332C77.22 21.072 78.3 21.0653 79.3413 21.0653C96.808 21.0533 114.275 21.1387 131.741 21.016C136.983 20.98 139.315 23.964 139.297 28.708C139.179 60.4413 139.179 92.1773 139.297 123.916C139.312 128.012 136.889 131.061 132.169 131.051C114.436 131.012 96.712 131.051 78.984 131.039C74.0346 131.039 71.6626 128.68 71.6506 123.727C71.6195 111.359 71.6124 98.9911 71.6293 86.624C71.6306 85.444 71.632 84.2667 71.632 82.4747ZM136.8 76.1453C136.8 60.38 136.8 44.6138 136.8 28.8467C136.8 24.8133 135.508 23.5293 131.556 23.528C114.093 23.528 96.6297 23.528 79.1666 23.528C75.5453 23.528 74.092 24.9947 74.0906 28.6453C74.0906 42.9067 74.0906 57.1684 74.0906 71.4307C74.0906 88.8973 74.0906 106.364 74.0906 123.831C74.0906 126.897 75.372 128.257 78.392 128.465C78.9773 128.505 79.568 128.503 80.156 128.503C95.1337 128.503 110.112 128.503 125.089 128.503C127.835 128.503 130.583 128.473 133.325 128.377C135.325 128.307 136.409 127.111 136.705 125.207C136.839 124.373 136.8 123.511 136.8 122.661C136.8 107.155 136.8 91.6493 136.8 76.1453ZM71.5853 72.6107C70.184 73.5053 69.1026 74.2107 68.0013 74.896C65.0106 76.7387 64.0413 76.5907 61.9613 73.7867C60.0186 71.1667 58.228 68.432 56.2506 65.8387C53.9773 62.8613 51.44 60.3307 47.14 60.9053C45.8933 61.0707 44.568 60.5053 43.2733 60.4987C41.704 60.488 39.9013 60.264 38.616 60.932C36.412 62.0773 34.0333 63.4733 32.5986 65.4093C24.5506 76.2613 23.036 88.9333 23.1 101.943C23.108 103.393 25.224 104.655 26.2546 103.851C27.0146 103.259 27.5333 102.061 27.7 101.051C28.3373 97.196 28.4413 93.2227 29.3946 89.4573C30.808 83.8733 32.744 78.4187 34.5506 72.9413C34.7146 72.4453 35.5586 72.1747 36.0853 71.8C36.3306 72.348 36.5853 72.8933 36.8146 73.448C36.86 73.5573 36.8146 73.7067 36.8066 73.8373C36.1693 83.9427 35.648 94.0573 34.86 104.151C34.0826 114.104 33.0666 124.039 32.076 133.975C31.88 135.943 33.0413 136.391 34.4853 136.531C36.4376 136.721 38.3985 136.807 40.36 136.789C41.704 136.776 43.0453 136.511 44.388 136.357L44.4826 135.661C43.4493 135.049 42.456 134.349 41.3706 133.849C39.7186 133.092 39.3333 131.867 39.6 130.181C40.5213 124.595 41.3573 118.992 42.2866 113.407C43.012 109.044 43.7813 104.687 44.6573 100.353C44.7906 99.7133 45.6146 99.2147 46.124 98.6507C46.5453 99.304 47.1906 99.9093 47.3453 100.62C47.732 102.397 47.9306 104.22 48.1453 106.029C49.212 115.159 50.2253 124.296 51.3986 133.412C51.4946 134.163 52.5786 135.259 53.3266 135.371C56.2213 135.803 59.164 135.94 62.0933 136.096C62.8133 136.135 63.5533 135.829 64.284 135.676L64.476 135.009C62.8893 134.103 61.2413 133.283 59.7373 132.253C58.904 131.684 57.8253 130.841 57.6933 129.987C57.2093 126.897 57.0266 123.756 56.8266 120.628C56.3706 113.72 55.9213 106.812 55.5573 99.8987C55.1129 91.4827 54.7288 83.0627 54.4053 74.6387C54.38 73.9853 54.9093 73.3053 55.18 72.6453C55.7133 73.1787 56.4026 73.6373 56.7493 74.276C57.9493 76.492 58.8066 78.9333 60.2293 80.9867C61.8986 83.3987 64.1586 83.6827 66.788 82.3853C68.3453 81.616 69.9053 80.852 71.588 80.0253L71.5853 72.6107ZM63.484 41.2773C63.484 31.844 56.2213 24.304 47.1426 24.3147C38.1026 24.3253 30.556 32.0707 30.512 41.3813C30.4693 50.3587 38.3786 58.456 47.2106 58.472C55.9093 58.4893 63.4853 50.4853 63.484 41.28V41.2773Z" fill="#3A3A3A"/>
<path d="M104.376 69.0667C94.0906 69.1467 85.5999 60.6267 85.5026 50.1187C85.4026 39.816 94.1092 30.7587 104.249 30.62C114.765 30.4747 123.316 39.0093 123.376 49.7187C123.437 60.2667 114.867 68.9893 104.376 69.0667ZM120.968 49.7013C120.835 40.2693 113.573 32.9573 104.364 32.9933C95.4479 33.0293 87.7746 41.0467 87.8772 50.2173C87.9786 59.2933 95.6106 66.8387 104.555 66.7147C113.6 66.5893 121.091 58.824 120.968 49.7013Z" fill="#F7931B"/>
<path d="M105.301 81.2413C98.9015 81.2413 92.5015 81.2413 86.1015 81.2413C85.5788 81.2413 84.9774 81.3747 84.5574 81.1613C84.1374 80.948 83.6028 80.3787 83.5921 79.9533C83.5841 79.604 84.2095 79.0986 84.6588 78.916C85.1081 78.7333 85.6868 78.8587 86.2095 78.8587C99.1383 78.8587 112.067 78.8618 124.996 78.868C125.929 78.868 127.22 78.5587 127.155 80.068C127.093 81.48 125.837 81.232 124.888 81.2333C118.359 81.2449 111.83 81.2475 105.301 81.2413Z" fill="#3A3A3A"/>
<path d="M105.333 90.9893C111.733 90.9893 118.133 90.9893 124.533 90.9893C125.12 90.9893 125.764 90.8933 126.267 91.104C126.64 91.26 127.007 91.8227 127.057 92.2427C127.093 92.552 126.681 93.1013 126.349 93.2267C125.827 93.4227 125.203 93.392 124.616 93.392C111.75 93.4 98.8844 93.4 86.0186 93.392C85.6279 93.392 85.1333 93.536 84.8666 93.352C84.3466 92.9933 83.9533 92.4493 83.5093 91.9827C83.9879 91.6533 84.4599 91.0493 84.9466 91.0413C88.4053 90.9493 91.8679 90.9733 95.3293 90.968C98.6599 90.968 101.991 90.968 105.321 90.968L105.333 90.9893Z" fill="#3A3A3A"/>
<path d="M98.9827 105.587C94.5467 105.587 90.1107 105.597 85.6747 105.579C84.7507 105.579 83.5094 105.893 83.5241 104.353C83.5387 102.944 84.7001 103.223 85.5627 103.221C94.6294 103.208 103.696 103.204 112.763 103.208C113.696 103.208 114.857 103.168 114.725 104.408C114.677 104.869 113.405 105.523 112.677 105.539C108.116 105.637 103.549 105.587 98.9827 105.587Z" fill="#3A3A3A"/>
<path d="M50.3026 53.8986C47.1373 53.4986 44.6773 53.04 42.9693 51.024C42.5199 50.4906 42.6693 49.4506 42.5439 48.644C43.2439 48.8386 44.1173 48.8333 44.6159 49.2627C47.3119 51.58 50.4093 51.84 53.3893 49.816C54.1959 49.268 55.1039 48.3293 55.8119 49.5347C56.0786 49.9813 55.4346 51.4493 54.8226 51.824C53.2613 52.78 51.4799 53.3813 50.3026 53.8986Z" fill="#3A3A3A"/>
<path d="M48.5573 40.1187C47.7893 40.988 47.08 42.512 46.2387 42.5893C44.572 42.7413 44.416 40.9787 44.4133 39.732C44.4133 38.5613 44.5013 36.984 46.1467 36.94C47.916 36.892 47.9227 38.476 48.5573 40.1187Z" fill="#3A3A3A"/>
<path d="M54.0346 40.0267C54.1012 38.6747 54.2532 37.2787 55.9079 37.3173C57.4479 37.3547 57.5639 38.7253 57.5759 39.932C57.5759 40.44 57.5759 41.0413 57.3212 41.4347C56.9359 42.0307 56.1799 42.9867 55.8479 42.888C55.1812 42.6907 54.6066 41.9427 54.1546 41.3067C53.9306 40.992 54.0612 40.4227 54.0346 40.0267Z" fill="#3A3A3A"/>
<path d="M105.209 58.8533C105.011 59.552 104.971 60.1867 104.661 60.652C104.305 61.1853 103.712 61.5493 103.223 61.9853C102.928 61.4307 102.531 60.9053 102.367 60.3147C102.163 59.5827 102.151 58.7973 102.009 57.6627C100.576 58.9253 101.3 61.3093 99.192 60.7293C98.684 60.5867 98.5827 58.9787 98.488 57.9787C97.6973 57.0133 95.26 57.9547 95.5107 55.6587C95.5653 55.1573 97.1387 54.8213 98.524 54.168L99.8093 44.5333C98.856 43.5453 97.3227 42.5333 97.4733 42.0133C98.1147 39.7907 100.041 41.692 101.592 41.0253C101.696 40.3587 101.688 39.4253 102.013 38.6333C102.236 38.1 102.925 37.748 103.405 37.3147C103.728 37.816 104.205 38.2813 104.331 38.828C104.479 39.4387 104.243 40.132 104.316 40.7733C104.363 41.1853 104.664 41.5667 104.849 41.9627C105.155 41.6133 105.564 41.3107 105.737 40.9053C105.936 40.4413 105.784 39.7973 106.043 39.3973C106.301 38.9973 106.893 38.5147 107.329 38.524C107.643 38.532 108.148 39.26 108.197 39.7067C108.289 40.5253 108.105 41.3747 108.036 42.2213C113.067 45.5493 113.528 47.7333 109.708 50.444C111.696 51.7773 112.785 53.5813 111.935 55.936C110.808 59.048 108.055 58.9907 105.209 58.8533ZM101.776 55.8667C103.621 55.8667 105.109 56.0373 106.54 55.7973C107.273 55.6733 108.461 54.7667 108.419 54.3067C108.348 53.528 107.619 52.4733 106.892 52.1627C105.533 51.5813 103.984 51.448 102.413 51.1067C102.201 52.6867 102.023 54.0173 101.776 55.8667ZM102.648 48.3933C104.185 48.476 105.489 48.7093 106.739 48.544C107.349 48.4627 108.221 47.696 108.315 47.132C108.408 46.568 107.781 45.5893 107.227 45.3427C106.027 44.8093 104.665 44.628 103.293 44.2827C103.067 45.6893 102.891 46.836 102.648 48.3867V48.3933Z" fill="#F7931B"/>
</svg>
