<svg width="160" height="160" viewBox="0 0 160 160" fill="none" xmlns="http://www.w3.org/2000/svg">
<path d="M128.475 86.9333C128.755 91.1191 129.036 95.3045 129.317 99.4893C129.576 103.29 129.843 107.091 130.117 110.892C130.223 112.409 130.403 113.929 130.384 115.445C130.384 115.951 129.851 116.449 129.559 116.951C129.22 116.521 128.648 116.125 128.584 115.659C128.317 113.701 128.153 111.724 128.029 109.749C127.685 104.275 127.404 98.7947 127.051 93.3187C126.824 89.8227 126.467 86.3347 126.272 82.8373C126.227 82.0373 126.605 81.204 126.788 80.3853C127.363 80.9347 128.139 81.3813 128.48 82.0507C130.823 86.6667 132.701 91.4667 133.223 96.6747C133.368 98.1187 133.208 99.62 132.992 101.065C132.817 102.235 132.953 102.911 134.281 103.101C134.711 103.163 135.124 103.665 135.445 104.049C135.657 104.303 135.692 104.704 135.807 105.039C136.308 104.852 137.123 104.787 137.253 104.455C137.737 103.22 138.453 101.823 138.259 100.62C137.508 95.9907 136.692 91.34 135.412 86.836C134.163 82.436 132.193 78.2333 128.629 75.1507C127.215 73.9293 125.403 73.1267 123.683 72.3227C123.085 72.0427 122.216 72.2867 121.481 72.368C119.292 72.612 117.101 72.8547 114.925 73.184C114.316 73.276 113.611 73.5253 113.192 73.9453C112.322 74.8617 111.527 75.8472 110.816 76.892C109.265 79.0853 107.855 81.3867 106.201 83.4973C105.659 84.1893 104.519 84.8493 103.692 84.8013C101.143 84.6533 98.6094 84.184 96.0801 83.7827C95.3388 83.6653 94.6388 83.2493 93.8988 83.1733C93.4908 83.1293 93.0388 83.4893 92.6068 83.6667C92.7921 84.0493 92.8961 84.5187 93.1854 84.7933C93.5774 85.1653 94.1188 85.3893 94.4988 85.6253C94.4014 86.3013 94.1894 86.904 94.2521 87.476C94.5281 89.98 96.4801 90.928 98.7854 89.8C99.3668 89.516 100.141 89.2493 100.72 89.4C105.361 90.5747 108.087 89.3853 110.263 85.0853C110.604 84.4187 110.831 83.6693 111.24 83.044C111.439 82.7387 112 82.4107 112.283 82.492C112.565 82.5733 112.901 83.1587 112.883 83.5107C112.483 90.7107 112.031 97.9107 111.612 105.117C111.441 108.06 111.331 111.007 111.195 113.951C111.175 114.408 111.289 114.92 111.119 115.309C110.919 115.765 110.475 116.109 110.137 116.509C109.795 116.077 109.229 115.679 109.159 115.207C109.041 114.424 109.268 113.595 109.308 112.783C109.536 108.116 109.737 103.441 109.975 98.7707C110.108 96.1334 110.321 93.5 110.475 90.864C110.52 90.0787 110.475 89.288 110.475 88.6107C109.133 89.524 107.873 90.688 106.388 91.3C105.209 91.784 103.669 91.9267 102.441 91.6187C100.764 91.196 99.3228 91.288 97.9081 92.12C97.7561 93.1867 97.7414 94.3267 97.4188 95.3694C96.5894 98.036 94.0201 99.9027 91.2214 99.9027C69.7103 99.916 48.1992 99.916 26.6881 99.9027C23.1361 99.9027 20.0281 96.8733 19.9894 93.1387C19.8961 83.9831 19.8961 74.8276 19.9894 65.672C20.0308 61.5067 23.0801 58.6987 27.2174 58.6973C48.3214 58.6973 69.4268 58.7507 90.5294 58.644C94.5601 58.624 97.8908 62.104 97.7974 65.9667C97.6734 71.0507 97.7974 76.14 97.7374 81.2253C97.7241 82.28 98.1374 82.6773 99.0628 82.7867C99.1628 82.7987 99.2654 82.8 99.3668 82.8107C105.116 83.408 103.776 83.7547 107.037 79.1973C108.593 77.0227 109.996 74.7373 111.447 72.5307C103.047 69.1067 100.891 61.212 102.055 55.2907C103.255 49.172 108.611 44.0907 114.979 43.1773C120.927 42.3187 127.392 45.78 130.079 51.3013C132.639 56.5587 132.847 64.312 125.012 70.6947C131.073 72.9773 133.901 78.076 136.167 83.5787C138.255 88.6453 139.653 93.94 140.041 99.4267C140.151 101.14 139.958 102.86 139.473 104.507C138.877 106.525 136.651 107.723 135.015 106.784C133.499 105.915 132.301 104.408 131.148 103.024C130.792 102.593 130.911 101.617 131.057 100.944C131.913 97.008 130.952 93.2973 129.759 89.6107C129.465 88.7027 129.084 87.824 128.743 86.932L128.475 86.9333ZM95.6348 81.4667C95.6348 76.2667 95.6348 71.1333 95.6348 66C95.6348 62.7627 93.6654 60.8227 90.4148 60.8227C69.4228 60.8227 48.4312 60.8227 27.4401 60.8227C24.1348 60.8227 22.1068 62.8093 22.1001 66.084C22.0877 74.9293 22.0877 83.7738 22.1001 92.6173C22.0962 93.1212 22.1635 93.623 22.3001 94.108C23.0428 96.6413 24.7281 97.792 27.8801 97.8C41.3477 97.8311 54.8143 97.8431 68.2801 97.836C75.9041 97.836 83.5276 97.8058 91.1508 97.7453C93.1414 97.7267 94.6814 96.756 95.3588 94.8267C95.7961 93.5787 96.0961 92.456 94.5001 91.36C93.4068 90.6133 92.9894 88.8707 92.2828 87.5653C91.9934 87.032 91.8334 86.3973 91.4481 85.952C90.5721 84.9427 90.4988 83.8107 90.9148 82.6813C91.3308 81.552 92.3081 81.1307 93.5014 81.248L95.6348 81.4667ZM116.423 71.26C123.639 71.236 129.703 65.164 129.709 57.9573C129.709 50.876 123.717 44.916 116.68 45.0133C109.551 45.112 103.771 51.1467 103.795 58.4653C103.82 65.692 109.344 71.2907 116.423 71.2653V71.26Z" fill="#3A3A3A"/>
<path d="M118.163 106.771C118.163 104.741 118.119 102.709 118.185 100.681C118.209 99.9293 117.736 98.644 119.097 98.7013C120.309 98.7533 120 99.984 120.016 100.781C120.065 103.315 120.007 105.859 120.06 108.395C120.108 110.677 120.251 112.956 120.345 115.237C120.373 115.916 120.384 116.749 119.457 116.609C119.072 116.552 118.552 115.769 118.516 115.285C118.305 112.453 118.219 109.613 118.091 106.776L118.163 106.771Z" fill="#3A3A3A"/>
<path d="M90.5 79.88C90.8 87.76 83.82 95.008 75.3947 94.8C67.048 94.5893 60.768 88.0453 60.8467 79.3333C60.9187 71.384 67.7467 64.7573 75.816 64.808C83.964 64.8533 90.5547 71.6213 90.5 79.88ZM75.5587 92.9173C82.9973 92.9373 88.6693 87.3053 88.6733 79.892C88.6733 72.6827 82.984 66.8253 75.9133 66.7573C68.6787 66.6907 62.6947 72.588 62.6773 79.8027C62.6587 87.1707 68.284 92.8987 75.5587 92.9173Z" fill="#F7931B"/>
<path d="M33.3066 83.4V73.8467C32.5279 74.3307 31.9359 74.8147 31.2586 75.0813C30.7813 75.2707 30.1919 75.1653 29.6466 75.1907C29.7199 74.492 29.5319 73.448 29.9133 73.1547C31.3292 72.0888 32.8452 71.1627 34.4399 70.3893C35.4306 69.9013 35.8946 70.496 35.8853 71.5893C35.8546 75.2507 35.8759 78.912 35.8853 82.5733C35.8853 82.7693 35.9293 82.9653 35.9813 83.404C36.5786 83.404 37.1653 83.436 37.7466 83.396C38.5133 83.3427 39.0293 83.4773 39.0159 84.424C39.0026 85.2973 38.7279 85.712 37.7679 85.688C35.4306 85.6333 33.0919 85.6347 30.7533 85.672C29.8586 85.6853 29.5973 85.2867 29.6173 84.472C29.6359 83.7333 29.8839 83.34 30.7013 83.3907C31.5186 83.4413 32.3253 83.4 33.3066 83.4Z" fill="#F7931B"/>
<path d="M53.5092 82.5493C53.9026 83.1373 54.6719 83.7853 54.5906 84.2987C54.4986 84.88 53.7119 85.6547 53.1066 85.7827C52.1239 85.9907 51.4439 85.168 51.6012 84.2187C51.7039 83.604 52.3839 83.084 52.8012 82.5227L53.5092 82.5493Z" fill="#F7931B"/>
<path d="M44.4827 84.5667C43.9054 84.996 43.3027 85.792 42.7587 85.7533C42.2147 85.7147 41.692 84.8627 41.1587 84.3667C41.6547 83.8413 42.092 82.9827 42.66 82.8893C43.1934 82.8027 43.86 83.524 44.4614 83.8907L44.4827 84.5667Z" fill="#F7931B"/>
<path d="M48.16 82.5213C48.56 83.0893 49.328 83.6907 49.2813 84.2187C49.2293 84.7987 48.4307 85.312 47.9573 85.8547C47.3867 85.3373 46.512 84.9013 46.3467 84.276C46.2293 83.8293 47.0613 83.1307 47.4707 82.5427L48.16 82.5213Z" fill="#F7931B"/>
<path d="M118.325 56.7653C118.192 57.292 118.144 57.8693 117.893 58.3333C117.389 59.2667 116.375 59.284 115.868 58.3587C115.615 57.896 115.515 57.312 115.481 56.7733C115.416 55.696 115.66 54.5067 116.915 54.5333C118.06 54.5573 118.28 55.696 118.325 56.7653Z" fill="#3A3A3A"/>
<path d="M110.621 56.9133C110.583 57.8827 110.599 59.056 109.26 58.9747C107.957 58.8947 107.865 57.6747 107.888 56.6787C107.908 55.7347 108.059 54.512 109.305 54.5867C110.583 54.6667 110.667 55.8507 110.621 56.9133Z" fill="#3A3A3A"/>
<path d="M73.6186 73.3453C73.752 72.6053 73.752 71.9093 74.0186 71.3347C74.208 70.9347 74.7546 70.6867 75.1413 70.3707C75.356 70.7707 75.688 71.1573 75.752 71.5827C75.816 72.008 75.4853 72.492 75.5573 72.916C75.6293 73.34 75.976 73.6893 76.2013 74.0733L76.5693 73.864C76.7106 73.228 76.7546 72.5453 77.0306 71.976C77.2013 71.6227 77.7266 71.4427 78.0973 71.184C78.332 71.572 78.8586 72.084 78.756 72.3307C78.0893 73.92 78.872 74.5653 80.212 75.0987C82.1293 75.8627 82.356 79.4667 79.5453 80.5067C80.892 81.4107 81.8533 82.5253 81.412 84.2507C80.9706 85.976 80.2626 86.308 76.5746 86.848L74.6346 89.2L73.7946 86.812L74.2146 86.5787L73.2293 86.228C73.1588 86.3599 73.0991 86.4972 73.0506 86.6387C72.8133 87.596 72.832 88.8213 71.4333 88.7187C71.2826 88.708 71.2413 87.1707 71.1493 86.34C71.1386 86.2427 71.1373 86.1453 71.124 85.9293C70.6266 85.8107 70.0386 85.7853 69.5813 85.5293C69.0813 85.252 68.7026 84.7587 68.272 84.36C68.8426 84.1227 69.4066 83.868 69.9893 83.6613C70.1573 83.6027 70.3773 83.6867 70.6933 83.7173C71.176 80.9173 71.6506 78.1547 72.0586 75.788C71.3093 74.988 70.6213 74.4547 70.256 73.7653C70.0613 73.392 70.456 73.24 73.6186 73.3453ZM73.2 84.3493C74.62 84.4467 75.8786 84.6507 77.116 84.5613C77.616 84.5253 78.436 83.8653 78.4493 83.46C78.472 82.9267 77.9653 82.0907 77.4733 81.8813C76.3573 81.4053 75.112 81.232 73.8733 80.9253C73.6346 82.1333 73.4386 83.1147 73.2 84.3493ZM74.8 75.6373C74.5973 76.7973 74.436 77.7187 74.224 78.9373C75.4653 78.9373 76.596 79.0547 77.68 78.8787C78.1133 78.808 78.6586 78.1333 78.7466 77.6573C78.8093 77.3187 78.276 76.6533 77.8653 76.4853C76.912 76.0973 75.88 75.924 74.788 75.6373H74.8Z" fill="#F7931B"/>
</svg>
