<svg width="160" height="160" viewBox="0 0 160 160" fill="none" xmlns="http://www.w3.org/2000/svg">
<path d="M77.1146 104.375C78.0226 105.155 78.8986 105.975 79.848 106.703C80.7013 107.353 81.3333 107.825 80.5466 109.092C79.6546 110.527 80.7466 112.729 82.5173 112.651C86.0973 112.493 88.784 114.484 91.668 115.904C95.784 117.929 98.8933 116.321 101.088 113.999C103.24 111.719 105.191 109.332 104.624 105.799C104.529 105.216 105.319 103.972 105.799 103.919C107.132 103.771 106.849 105.009 106.812 105.809C106.42 114.322 106.007 122.835 105.572 131.347C105.551 131.78 105.608 132.313 105.383 132.62C105.031 133.1 104.469 133.42 103.996 133.82C103.675 133.353 103.072 132.887 103.079 132.423C103.119 129.875 103.276 127.327 103.452 124.781C103.685 121.38 103.973 117.981 104.288 113.933C100.14 118.8 95.696 120.836 89.9653 117.6C88.924 119.789 87.032 119.971 84.9266 119.951C77.52 119.88 70.112 119.923 62.5266 119.923C62.0906 127.352 58.9453 133.164 52.5146 136.973C48.4906 139.357 44.0893 139.937 39.556 139.193C30.92 137.779 21.8813 129.483 24.1453 115.296C22.0533 114.936 21.9453 113.341 21.9453 111.651C21.9515 93.968 21.9515 76.2858 21.9453 58.604C21.9453 48.204 21.9453 37.8062 21.9453 27.4107C21.9453 23.3173 24.7146 20.5387 28.852 20.536C48.1586 20.5267 67.464 20.5627 86.7693 20.5133C87.6911 20.5131 88.6039 20.6952 89.4551 21.0489C90.3063 21.4027 91.0792 21.9212 91.7294 22.5747C92.3795 23.2282 92.8941 24.0038 93.2435 24.8568C93.5929 25.7099 93.7702 26.6235 93.7653 27.5453C93.632 53.7573 93.6973 79.9693 93.6986 106.181V107.956L94.232 108.251C94.9106 107.532 95.6653 106.871 96.256 106.085C99.0933 102.315 101.856 98.4853 104.715 94.732C105.533 93.6533 106.561 92.732 107.583 91.6427C102.689 89.2267 99.0613 85.6427 97.2306 80.4733C95.8222 76.5857 95.6979 72.3488 96.876 68.3853C99.2893 60.1053 106.076 54.98 114.795 54.7307C122.947 54.4973 129.761 59.1627 132.596 66.852C135.168 73.828 133.843 84.1653 124.052 90.484C130.712 94.0573 133.724 100.141 135.535 107.049C137.649 115.119 137.783 123.391 138.025 131.651C138.033 131.897 138.083 132.225 137.952 132.38C137.524 132.885 137.019 133.327 136.549 133.793C136.217 133.281 135.616 132.784 135.596 132.256C135.393 128.344 135.391 124.42 135.159 120.509C134.807 114.552 133.999 108.653 131.789 103.057C129.923 98.3453 127.049 94.456 122.223 92.4027C121.511 92.1 120.595 92.1933 119.78 92.232C117.019 92.3653 114.256 92.5093 111.5 92.736C110.819 92.792 109.933 92.9667 109.532 93.4267C106.565 96.836 103.673 100.309 100.811 103.807C99.3333 105.627 97.9506 107.547 96.5026 109.411C95.632 110.531 94.5026 110.895 93.2 110.271C90.692 109.071 88.176 107.884 85.7333 106.569C83.116 105.164 80.5946 103.547 77.448 103.855L77.1146 104.375ZM24.5813 113.38C29.3813 103.367 36.5813 98.108 47.32 100.26C56.3866 102.079 61.0253 108.547 62.48 117.548C63.0306 117.576 63.58 117.627 64.1293 117.628C71.1053 117.628 78.0813 117.653 85.0626 117.595C85.7133 117.595 86.3613 117.077 87.0106 116.795C86.412 116.261 85.8613 115.648 85.192 115.227C84.9 115.043 84.3626 115.249 83.936 115.276C81.4306 115.437 78.784 114.156 78.3453 111.849C77.9066 109.543 76.7706 107.816 75.56 105.924C73.952 103.409 75.204 101.597 78.176 101.524C81.316 101.443 83.9226 102.849 86.512 104.352C87.992 105.212 89.4853 106.051 91.152 107C91.196 106.384 91.2373 106.085 91.2373 105.787C91.2373 79.7591 91.2306 53.7307 91.2173 27.7013C91.2173 24.52 89.844 23.0987 86.7373 23.0973C67.492 23.0902 48.2475 23.0929 29.004 23.1053C28.3877 23.09 27.7726 23.1686 27.18 23.3387C25.0373 24.0227 24.2906 25.3387 24.288 28.3587C24.2631 55.8182 24.2449 83.2787 24.2333 110.74C24.228 111.431 24.408 112.12 24.5853 113.38H24.5813ZM114.541 90.376C124.115 90.34 131.364 82.9093 131.292 73.2027C131.224 64.0907 124.243 57.0853 115.243 57.1013C105.545 57.1187 98.524 64.336 98.5546 74.2587C98.5813 83.3733 105.561 90.4093 114.541 90.376ZM42.8613 137.067C52.404 137.085 60.044 129.507 60.072 119.993C60.1013 109.86 53.0053 102.456 43.4506 102.227C35.5573 102.037 26.3053 108.581 26.1666 119.763C26.0466 129.448 33.4666 137.044 42.8613 137.067Z" fill="#3A3A3A"/>
<path d="M129.2 128.32C129.251 129.44 129.333 130.559 129.345 131.679C129.36 132.612 129.479 133.727 128.083 133.699C126.791 133.673 126.976 132.612 126.965 131.752C126.861 123.283 126.061 114.897 123.976 106.664C123.843 106.124 123.516 105.569 123.576 105.057C123.657 104.391 124.035 103.747 124.285 103.095C124.793 103.539 125.599 103.895 125.759 104.441C126.491 106.933 127.249 109.448 127.613 112.009C128.38 117.416 128.905 122.857 129.529 128.284L129.2 128.32Z" fill="#3A3A3A"/>
<path d="M54.0681 52.24C51.7827 52.24 49.6134 52.2213 47.4441 52.2467C45.9121 52.2653 45.5347 51.4813 46.0894 50.224C48.6641 44.3907 51.2521 38.5627 53.9401 32.78C54.1894 32.2467 55.1614 31.7627 55.8067 31.7427C59.2281 31.64 62.6534 31.6787 66.0734 31.7013C67.9494 31.7133 68.4641 32.4533 67.6827 34.156C66.3707 37.016 64.9627 39.8333 63.4534 42.956C66.3654 42.956 69.1187 42.9093 71.8667 42.9907C72.5187 43.0107 73.5187 43.312 73.7041 43.756C73.9001 44.2267 73.4827 45.176 73.0467 45.652C66.5712 52.7142 60.0676 59.7511 53.5361 66.7627C53.3667 66.9453 53.2187 67.2107 53.0094 67.2787C52.3107 67.504 51.5894 67.6573 50.8761 67.8387C50.7321 67.1627 50.3427 66.4267 50.4841 65.8227C51.4054 62.0387 52.4467 58.284 53.4494 54.5187L54.0681 52.24ZM53.8174 62.5333L54.0961 62.6253C59.2734 57 64.4494 51.3733 69.8414 45.5133C67.1867 45.5133 64.9481 45.5133 62.7081 45.5133C60.2574 45.5133 59.8401 44.8387 60.9267 42.6027C62.2427 39.8907 63.5841 37.1893 65.0094 34.2893C62.0881 34.2893 59.4214 34.232 56.7614 34.3413C56.2694 34.3613 55.5987 34.96 55.3627 35.4573C54.1201 38.0867 52.9947 40.7693 51.8201 43.4307C50.9321 45.4387 50.0294 47.4413 49.0481 49.6387C51.1001 49.6387 52.8401 49.6307 54.5801 49.6387C56.7921 49.652 57.1974 50.2027 56.6041 52.3707C55.6761 55.7618 54.7472 59.1493 53.8174 62.5333Z" fill="#F7931B"/>
<path d="M57.4534 78.7747C50.3566 78.7747 43.2583 78.7747 36.1588 78.7747C35.6615 78.7747 35.1041 78.908 34.6814 78.7227C34.2588 78.5373 33.6588 78.056 33.6401 77.6854C33.6215 77.3147 34.1628 76.776 34.5841 76.5653C35.0055 76.3547 35.5588 76.4667 36.0508 76.4667C50.3717 76.4667 64.693 76.4667 79.0148 76.4667C79.5121 76.4667 80.0814 76.348 80.4814 76.5493C80.8814 76.7507 81.4148 77.296 81.4015 77.6707C81.3881 78.0454 80.8294 78.516 80.4015 78.7374C80.0535 78.9147 79.5481 78.7813 79.1121 78.7813L57.4534 78.7747Z" fill="#3A3A3A"/>
<path d="M50.5479 91.208H36.3586C35.8612 91.208 35.3052 91.3227 34.8812 91.1413C34.3852 90.9307 34.0039 90.452 33.5732 90.088C34.0372 89.688 34.4572 89.004 34.9719 88.924C36.1266 88.7453 37.3279 88.8626 38.5106 88.8626H64.2759C64.5866 88.8626 64.8986 88.8546 65.2092 88.8626C66.0559 88.8893 67.1052 88.66 67.1559 89.9733C67.2066 91.324 66.1412 91.1453 65.2972 91.1507C61.1892 91.1787 57.0826 91.1853 52.9746 91.1987C52.1652 91.1987 51.3572 91.1987 50.5479 91.1987V91.208Z" fill="#3A3A3A"/>
<path d="M111.247 85.552C109.513 84.8854 107.813 84.3654 106.269 83.552C105.831 83.324 105.831 82.2573 105.629 81.5747C106.328 81.532 107.173 81.212 107.703 81.4907C110.265 82.8387 112.703 82.9747 115.276 81.4907C115.829 81.1707 116.771 81.52 117.533 81.5614C117.223 82.2854 117.101 83.4014 116.565 83.66C114.933 84.4507 113.147 84.908 111.247 85.552Z" fill="#3A3A3A"/>
<path d="M107.956 71.1467C107.548 73.18 106.577 74.6027 105.407 74.4293C104.017 74.2253 103.823 73.0653 103.807 71.9107C103.783 70.3933 105.031 68.46 105.832 68.8573C106.701 69.2893 107.26 70.356 107.956 71.1467Z" fill="#3A3A3A"/>
<path d="M117.277 71.8667C117.277 72.9427 116.941 74.2947 115.311 74.3653C113.877 74.4267 113.652 73.0653 113.547 71.9653C113.413 70.5133 114.613 68.6987 115.592 68.856C117.067 69.0907 117.265 70.2853 117.277 71.8667Z" fill="#3A3A3A"/>
<path d="M46.3213 128.309C46.3213 129.083 46.4639 129.797 46.2773 130.415C46.1186 130.941 45.5826 131.348 45.2106 131.817C44.8106 131.373 44.2119 130.989 44.0586 130.472C43.8199 129.672 44.2733 128.429 42.6573 128.959C42.1159 129.969 43.2626 131.909 41.3413 131.977C39.2693 132.051 40.7133 129.941 39.7213 128.879C38.8559 128.212 36.6653 130.589 36.2039 127.913C35.8586 125.913 37.8559 126.775 38.8453 125.893C38.6439 122.649 38.4306 119.199 38.2199 115.795C37.0853 115.424 35.4533 116.564 35.3693 114.491C35.2626 111.835 37.5986 113.573 38.6826 112.269C38.6826 112.033 38.5679 111.292 38.7199 110.609C38.8293 110.121 39.2946 109.713 39.5999 109.269C40.0626 109.643 40.5986 109.959 40.9559 110.415C41.1413 110.652 40.8919 111.199 41.0506 111.493C41.2399 111.849 41.6533 112.084 41.9706 112.371C42.1839 112.063 42.4706 111.779 42.5906 111.437C42.6866 111.171 42.4573 110.757 42.5826 110.527C42.8879 109.973 43.3173 109.488 43.6959 108.975C44.1413 109.436 44.7333 109.831 44.9893 110.38C45.2319 110.904 45.1226 111.592 45.1719 112.185C50.1919 113.696 51.3933 115.975 48.9599 119.273C51.1999 120.4 52.1786 122.119 51.8266 124.325C51.5053 126.34 49.7253 127.667 46.3213 128.309ZM42.2799 125.975C43.6453 125.812 45.0599 125.881 46.2599 125.408C46.9426 125.141 47.6639 123.968 47.6413 123.225C47.6226 122.607 46.6346 121.665 45.9186 121.483C42.8519 120.696 41.6266 121.907 42.0986 125.009C42.1333 125.243 42.1853 125.473 42.2799 125.975ZM41.8799 119.271C43.6039 118.832 45.4879 119.221 46.3839 117.389C46.5906 116.967 46.2839 115.959 45.8813 115.632C44.5106 114.524 43.0053 114.924 41.4399 115.585C41.5719 116.737 41.7026 117.828 41.8746 119.271H41.8799Z" fill="#F7931B"/>
</svg>
