<svg width="160" height="160" viewBox="0 0 160 160" fill="none" xmlns="http://www.w3.org/2000/svg">
<path d="M106.085 80.868C108.611 80.868 111.019 80.868 113.419 80.868C114.732 80.868 116.045 80.8387 117.359 80.848C117.868 80.848 118.292 81.0853 118.459 81.5907C118.629 82.124 118.585 82.6787 118.119 83.0693C117.163 83.8693 116.194 84.6516 115.211 85.416C109.981 89.4733 104.735 93.508 99.5173 97.5787C97.588 99.0853 95.716 100.665 93.832 102.229C93.5453 102.467 93.3346 102.796 93.0026 103.184C93.3346 103.184 93.536 103.175 93.744 103.184C95.928 103.303 98.112 103.428 100.297 103.541C100.809 103.568 101.168 103.808 101.307 104.287C101.445 104.765 101.307 105.252 100.857 105.529C99.8013 106.184 98.724 106.811 97.6573 107.436C92.3026 110.549 86.9333 113.639 81.5933 116.779C77.176 119.377 72.7933 122.04 68.3933 124.661C67.216 125.363 66.008 126.013 64.816 126.689C64.7384 126.742 64.6649 126.8 64.596 126.864H78.232C78.232 126.159 78.2173 125.521 78.232 124.885C78.2666 123.669 78.5626 123.352 79.776 123.34C81.6066 123.323 83.436 123.351 85.2666 123.359C85.848 123.359 86.4293 123.359 87.0106 123.359C88.0186 123.352 88.4666 123.759 88.516 124.777C88.5386 125.229 88.516 125.683 88.5226 126.135C88.5226 126.344 88.5413 126.555 88.5533 126.844H115.284V124.767C115.284 123.805 115.651 123.355 116.608 123.333C118.243 123.296 119.879 123.333 121.515 123.333C122.375 123.333 123.236 123.353 124.097 123.349C125.048 123.349 125.492 123.76 125.492 124.693C125.492 127.085 125.492 129.477 125.492 131.868C125.492 132.917 125.001 133.404 123.965 133.404C121.554 133.404 119.142 133.404 116.729 133.404C115.741 133.404 115.325 133.004 115.303 132C115.286 131.289 115.28 130.578 115.287 129.867C115.287 129.545 115.199 129.417 114.841 129.424C111.959 129.469 109.076 129.515 106.192 129.521C100.571 129.536 94.9506 129.521 89.3293 129.521H88.4506C88.4506 130.231 88.4506 130.909 88.4506 131.588C88.4413 132.957 88 133.412 86.648 133.397C84.2386 133.369 81.8293 133.336 79.42 133.279C78.6706 133.261 78.3333 132.916 78.3013 132.164C78.2653 131.351 78.2933 130.533 78.2933 129.667C78.0346 129.651 77.8293 129.628 77.6266 129.628C73.276 129.628 68.9266 129.657 64.576 129.64C63.4413 129.64 62.3093 129.437 61.1746 129.453C60.542 129.455 59.9193 129.611 59.3613 129.909C56.5266 131.56 53.736 133.281 50.9266 134.976C48.172 136.633 45.4186 138.296 42.648 139.925C42.2329 140.182 41.7584 140.327 41.2706 140.347C40.9373 140.347 40.5013 140.061 40.3026 139.772C40.0586 139.416 40.1546 138.972 40.4906 138.599C43.3911 135.368 46.2831 132.13 49.1666 128.887C52.852 124.744 56.5093 120.575 60.2186 116.453C62.52 113.895 64.9053 111.415 67.2306 108.877C67.876 108.172 68.4306 107.387 69.1093 106.547C68.22 106.455 67.4426 106.371 66.6653 106.295C63.404 105.976 60.1422 105.658 56.88 105.343C56.5808 105.321 56.2847 105.269 55.996 105.188C55.444 105.016 54.948 104.732 54.8266 104.111C54.6933 103.436 54.9706 102.867 55.5013 102.471C56.152 101.983 56.852 101.559 57.5293 101.105C58.528 100.439 59.5493 99.7987 60.512 99.08C60.8586 98.811 61.1172 98.4447 61.2546 98.028C63.0026 92.3507 64.7133 86.6613 66.4546 80.9827C66.5179 80.8171 66.537 80.6379 66.5099 80.4628C66.4827 80.2877 66.4104 80.1226 66.3 79.984C64.0333 76.7227 61.756 73.4667 59.5266 70.1787C58.788 69.0867 57.944 67.98 57.9026 66.5973C57.8701 65.5766 57.9683 64.5559 58.1946 63.56C59.0493 59.8747 59.972 56.204 60.8933 52.5347C61.1853 51.376 61.56 50.2373 61.9253 48.976C61.5 49.0747 61.1253 49.1413 60.7533 49.2507C59.464 49.636 58.1706 50.0093 56.9 50.4507C56.6003 50.5841 56.3586 50.8207 56.2186 51.1173C54.8088 54.1396 53.4182 57.1724 52.0466 60.216C51.264 61.9493 49.7946 63.2747 47.4373 62.9053C46.6786 62.7867 45.8 62.3107 45.3306 61.7173C44.4906 60.6507 44.016 59.3627 44.576 57.936C45.56 55.4267 46.52 52.908 47.5093 50.4C48.1666 48.7267 48.8933 47.0813 49.5093 45.3947C50.112 43.748 51.3386 42.9493 52.9493 42.5413C56.4946 41.6467 60.0386 40.748 63.572 39.808C65.7917 39.2141 68.1282 39.2113 70.3493 39.8C73.5493 40.6 76.7973 41.1813 80.016 41.8987C80.5303 42.0266 81.011 42.264 81.4253 42.5947C84.5453 45.02 87.6413 47.4747 90.744 49.928C90.9008 50.0654 91.0931 50.156 91.299 50.1892C91.5048 50.2225 91.7159 50.1971 91.908 50.116C95.2644 48.972 98.6284 47.852 102 46.756C102.984 46.4387 104.012 46.1253 105.055 46.4973C106.403 46.9773 107.301 48.8787 106.947 50.2653C106.568 51.748 105.628 52.6733 104.26 53.2373C100.087 54.9587 95.9226 56.704 91.7266 58.38C90.9786 58.6787 90.1266 58.78 89.3106 58.8307C87.9906 58.92 87.1106 57.9813 86.1626 57.272C84.3226 55.896 82.5146 54.48 80.696 53.084C80.528 52.9507 80.3373 52.856 80.116 52.7173L75.7426 63.452C78.62 64.8853 81.476 66.312 84.3293 67.7187C85.1146 68.1067 85.9173 68.4627 86.7213 68.812C88.5066 69.588 89.4186 71.0053 89.6866 72.8733C89.9826 74.9267 90.2373 76.9867 90.5253 79.1547C90.9146 78.8427 91.26 78.5827 91.592 78.3027C95.0586 75.3493 98.5106 72.38 101.992 69.44C105.799 66.2227 109.633 63.04 113.443 59.8267C117.152 56.696 120.853 53.5551 124.545 50.404C125.625 49.488 126.713 48.5813 127.787 47.6587C128.041 47.4264 128.373 47.2969 128.718 47.2952C129.063 47.2935 129.396 47.4197 129.653 47.6493C130.147 48.1053 130.121 48.624 129.627 49.2933C125.449 54.9378 121.271 60.5822 117.093 66.2267C114.812 69.2933 112.475 72.3147 110.173 75.3667C108.819 77.1707 107.485 78.9867 106.085 80.868ZM119.6 58.42L119.455 58.2867C119.341 58.3747 119.224 58.4587 119.115 58.5533C117.781 59.6773 116.463 60.8067 115.131 61.9267C112.386 64.2333 109.638 66.5373 106.887 68.8387C104.189 71.1053 101.484 73.3627 98.8053 75.6507C96.3884 77.7173 93.9884 79.8062 91.6053 81.9173C91.412 82.0867 91.24 82.436 91.268 82.6773C91.412 83.928 91.6413 85.1667 91.8013 86.4107C91.88 87.012 92.0986 87.1653 92.7266 87.0413C93.9266 86.804 94.7453 87.596 94.46 88.6413C94.2733 89.344 93.6906 89.5547 93.0626 89.7C90.8346 90.2187 88.604 90.7267 86.3826 91.2747C85.1746 91.5733 84.536 91.244 84.2653 90.0227C84.1226 89.3813 84.0653 88.7213 83.9586 88.004C83.7269 88.0937 83.5 88.1951 83.2786 88.308C79.512 90.484 75.7573 92.6787 71.98 94.8413C70.6893 95.5787 70.0346 96.7333 69.524 98.0733C70.8373 98.1747 72.0746 98.2653 73.3106 98.3667C74.7 98.4813 76.0893 98.588 77.476 98.732C78.276 98.8147 78.616 99.2147 78.6533 99.9867C78.684 100.617 78.2146 101.272 77.524 101.32C76.7733 101.375 76.0093 101.261 75.2573 101.205C73.548 101.082 71.8395 100.952 70.132 100.817C68.532 100.693 66.932 100.551 65.332 100.445C64.6653 100.404 63.9 100.249 63.3573 100.513C62.1573 101.095 61.0813 101.911 59.8506 102.696C60.2906 102.753 60.5826 102.788 60.872 102.829C62.2506 103.02 63.624 103.272 65.0053 103.392C67.4826 103.607 69.9693 103.717 72.4466 103.939C72.8226 103.972 73.2813 104.291 73.4986 104.613C73.7946 105.053 73.6026 105.564 73.24 105.963C72.7333 106.519 72.216 107.067 71.7173 107.629C68.7693 110.963 65.8386 114.304 62.8786 117.629C59.0866 121.88 55.2693 126.108 51.472 130.355C50.8373 131.064 50.2453 131.812 49.5733 132.612L94.8786 105.792C92.7573 105.735 90.7453 105.659 88.7346 105.636C88.1386 105.628 87.712 105.429 87.5466 104.867C87.4516 104.6 87.4509 104.309 87.5446 104.042C87.6382 103.775 87.8206 103.549 88.0613 103.4C88.3093 103.229 88.564 103.067 88.7946 102.875C91.4333 100.673 94.0213 98.408 96.7133 96.2747C101.124 92.7787 105.611 89.3827 110.039 85.9093C110.845 85.2773 111.525 84.4827 112.271 83.756C109.239 83.756 106.313 83.756 103.387 83.756C102.803 83.756 102.235 83.6853 101.96 83.0893C101.685 82.4933 101.78 81.9387 102.183 81.4C103.783 79.2547 105.348 77.0707 106.983 74.944C109.412 71.7773 111.916 68.6653 114.34 65.496C116.125 63.1693 117.844 60.7827 119.6 58.42ZM103.92 49.96C103.453 49.488 103.045 49.4347 102.54 49.592C99.0066 50.684 95.456 51.7173 91.9386 52.856C90.872 53.2 90.072 53.0253 89.236 52.3573C86.7142 50.3529 84.1729 48.3742 81.612 46.4213C80.732 45.7547 79.8306 45.0627 78.8386 44.5973C78.0253 44.216 77.0666 44.1347 76.172 43.9533C73.5746 43.4267 70.972 42.9493 68.3786 42.38C67.3906 42.1627 66.4506 42.0707 65.4626 42.336C63.48 42.8693 61.4786 43.3333 59.496 43.868C57.3884 44.436 55.2897 45.0351 53.2 45.6653C52.856 45.7693 52.4333 46.044 52.2986 46.3493C50.9466 49.448 49.6426 52.568 48.3373 55.6827C47.9373 56.6493 47.556 57.6267 47.1906 58.608C47.0026 59.112 47.2546 59.76 47.6293 59.8467C48.7226 60.1 49.2653 59.84 49.78 58.812C49.8573 58.6587 49.9413 58.508 50.0093 58.352C51.4315 55.0987 52.8564 51.8462 54.284 48.5947C54.3769 48.355 54.5291 48.1428 54.7264 47.9779C54.9237 47.813 55.1596 47.7009 55.412 47.652C58.3133 47.0027 61.208 46.3187 64.108 45.6667C64.8213 45.5067 65.5186 46.1027 65.5266 46.8827C65.5175 47.2881 65.4441 47.6895 65.3093 48.072C63.5066 53.6044 61.928 59.1982 60.5733 64.8533C60.3813 65.6533 60.3506 66.42 60.792 67.152C61.268 67.9427 61.7013 68.7613 62.224 69.5187C64.4462 72.7311 66.6844 75.9311 68.9386 79.1187C69.3266 79.6693 69.5973 80.2013 69.3706 80.904C67.6435 86.2756 65.9244 91.6502 64.2133 97.028C64.1613 97.1947 64.1346 97.3693 64.08 97.592C64.88 97.592 65.5893 97.6107 66.2973 97.5787C66.3935 97.5696 66.4865 97.5389 66.5692 97.4888C66.6518 97.4387 66.7221 97.3705 66.7746 97.2893C67.3266 96.0373 67.8893 94.7867 68.3626 93.504C69.8506 89.4747 71.2853 85.4267 72.7786 81.4C73.064 80.6293 73.1573 79.888 72.8133 79.16C71.308 75.9693 69.7693 72.792 68.2453 69.608C68.0213 69.1737 67.825 68.7257 67.6573 68.2667C67.472 67.7093 67.592 67.1533 68.1 66.8413C68.608 66.5293 69.1173 66.4933 69.6333 66.9467C70.0314 67.2686 70.4681 67.5396 70.9333 67.7533C71.8906 68.236 72.8786 68.6587 73.8306 69.1507C76.86 70.712 79.872 72.304 82.9066 73.856C83.44 74.1293 83.72 74.4453 83.8466 75.068C84.38 77.7347 84.9973 80.3813 85.5893 83.0333C85.9893 84.824 86.4013 86.6107 86.8186 88.4467L89.2066 87.8107C89.2033 87.5847 89.1886 87.3591 89.1626 87.1347C88.476 82.9787 87.7946 78.8213 87.092 74.668C86.6373 71.976 86.624 71.98 84.1466 70.728C80.7813 69.0253 77.4066 67.3373 74.052 65.6133C72.7346 64.9347 72.5306 64.4507 73.0213 63.08C73.9066 60.6027 74.836 58.14 75.7813 55.6853C76.5964 53.5707 77.4386 51.4667 78.308 49.3733C78.6186 48.6213 79.4253 48.4787 80.0493 48.9867C80.9653 49.732 81.88 50.48 82.808 51.2107C84.7813 52.7671 86.7595 54.3169 88.7426 55.86C89.188 56.208 89.6066 56.3933 90.2346 56.1187C94.4746 54.2853 98.74 52.5093 102.988 50.692C103.333 50.5413 103.6 50.2147 103.92 49.96ZM72.8893 71.8173L72.8026 71.94C73.6213 73.7053 74.4853 75.4533 75.2426 77.244C75.956 78.932 76.0946 80.6747 75.3853 82.4267C74.7853 83.9133 74.1933 85.404 73.6266 86.904C73.0866 88.332 72.5826 89.7747 72.0146 91.344C72.2693 91.248 72.348 91.2267 72.4146 91.1907C76 89.4 79.528 87.5067 82.8786 85.3C83.2133 85.0787 83.2546 84.8453 83.1773 84.4893C82.644 82.044 82.1231 79.596 81.6146 77.1453C81.512 76.6493 81.4346 76.18 80.9253 75.9213C78.2471 74.556 75.5684 73.188 72.8893 71.8173ZM81.0666 130.717H85.6693V126.069H81.0666V130.717ZM118.04 130.689C119.551 130.689 120.86 130.681 122.173 130.689C122.533 130.689 122.675 130.549 122.676 130.197C122.676 128.997 122.709 127.797 122.713 126.597C122.713 126.183 122.429 126.072 122.068 126.064C120.993 126.064 119.916 126.097 118.845 126.028C118.204 125.987 118.056 126.315 118.045 126.805C118.024 128.095 118.035 129.38 118.035 130.689H118.04Z" fill="#3A3A3A"/>
<path d="M76.944 19.6507C82.6093 19.7413 86.8573 23.904 86.928 29.4547C87.0053 35.3867 82.628 39.252 77.6293 39.48C70.812 39.7907 66.7413 34.5787 66.92 29.3747C67.104 23.9653 71.3053 19.624 76.944 19.6507ZM84.0533 29.5547C84.1413 25.768 80.9866 22.488 77.2266 22.3387C73.0933 22.172 69.9746 25.496 69.808 28.9333C69.58 33.66 73.008 36.564 76.7973 36.7C80.8346 36.8453 83.9573 33.7253 84.0533 29.5547Z" fill="#3A3A3A"/>
<path d="M38.3667 126.945C41.0138 126.945 43.6596 126.945 46.304 126.945C46.92 126.945 47.4374 127.163 47.66 127.745C47.864 128.279 47.78 128.856 47.272 129.191C46.9077 129.443 46.4841 129.596 46.0427 129.635C45.036 129.676 44.024 129.579 43.0147 129.583C39.228 129.599 35.44 129.632 31.652 129.661C30.5507 129.669 29.9507 129.113 29.9947 128.119C30.02 127.556 30.5894 127.025 31.328 126.968C31.9694 126.917 32.616 126.951 33.2614 126.951C34.9618 126.951 36.6622 126.951 38.3627 126.951L38.3667 126.945Z" fill="#3A3A3A"/>
</svg>
