<svg width="160" height="160" viewBox="0 0 160 160" fill="none" xmlns="http://www.w3.org/2000/svg">
<path d="M31.988 124.176C31.552 125.096 31.1467 126.033 30.676 126.935C29.568 129.055 27.8294 130.349 25.4094 130.197C22.8347 130.035 20.8027 128.529 20.3894 126.064C19.856 122.904 19.5987 119.579 19.96 116.409C21.128 106.175 23.3414 96.1427 27.5147 86.676C30.028 80.9693 33.1414 75.6307 38.652 72.2173C40.264 71.2187 42.0187 70.4533 43.8387 69.5133C36.9054 64.6147 33.676 57.828 34.2974 49.38C34.724 43.5733 37.224 38.6013 41.688 34.8467C51.1334 26.8933 65.2974 28.58 72.18 38.3133C79.6467 48.8733 76.9587 65.8947 61.3254 72.2067C68.2054 77.3707 69.484 85.528 72.6067 92.6893C73.5867 94.9347 74.4307 97.2427 75.476 99.456C75.968 100.495 76.7934 101.376 77.7907 102.789C78.5454 98.844 79.1947 95.4813 79.832 92.1227C80.288 89.7147 80.6774 87.2933 81.1867 84.896C81.928 81.408 83.5867 80.0667 87.1574 80.0493C93.8867 80.0173 100.616 80.0267 107.345 80.024C116.54 80.024 125.735 80.0267 134.929 80.032C139.351 80.0413 140.857 82.032 139.957 86.404C137.367 98.992 134.836 111.593 132.224 124.177C131.557 127.399 129.253 129.156 125.957 129.157C100.638 129.164 75.3196 129.164 50.0014 129.157C47.0774 129.157 45.608 127.801 45.6654 125.177C45.72 122.669 47.304 120.487 50.1227 120.719C52.7027 120.931 55.3147 120.748 57.912 120.731C58.036 120.731 58.1574 120.647 58.4454 120.54C58.6027 118.381 58.7707 116.14 58.928 113.911C59.504 105.68 60.0774 97.448 60.648 89.216C60.672 88.884 60.5667 88.4747 60.7227 88.2333C61.1427 87.588 61.6734 87.0147 62.1587 86.4133C62.476 87.0533 63.1294 87.736 63.0574 88.3293C62.3174 94.388 63.9907 99.8587 66.7214 105.172C67.9587 107.572 69.8174 109.263 71.856 110.879C73.088 111.857 74.2334 112.943 75.604 114.144C76.108 111.535 76.6107 109.168 76.9934 106.783C77.0854 106.204 76.9934 105.292 76.624 104.989C72.7107 101.823 71.672 97.084 69.8587 92.788C68.4174 89.3747 67.3387 85.8013 65.7787 82.448C64.732 80.1973 63.3014 78.064 61.7254 76.1387C60.04 74.08 58.02 72.3747 54.9254 72.9587C53.8587 73.16 52.6067 73.004 51.5694 72.6413C44.4334 70.156 39.5694 73.904 35.2334 78.6827C31.5107 82.78 29.5 87.8907 27.7667 93.06C24.6254 102.393 22.4334 111.939 22.268 121.845C22.2392 123.231 22.5121 124.606 23.068 125.875C24.1347 128.207 26.892 128.451 28.0947 126.211C29.0627 124.409 29.888 122.183 29.7707 120.211C29.0667 108.293 32.868 97.5733 37.7894 87.092C37.8747 86.912 37.9227 86.692 38.056 86.5587C38.772 85.912 39.6347 84.668 40.2174 84.784C41.7574 85.092 40.7387 86.432 40.6 87.2573C38.956 96.9907 37.1934 106.715 35.5694 116.457C35.0894 119.337 34.948 122.272 34.636 125.181C34.5587 125.908 34.5907 126.703 34.2894 127.331C34.0614 127.807 33.3827 128.065 32.904 128.421C32.552 127.943 31.9534 127.488 31.9027 126.981C31.8147 126.088 32.0627 125.161 32.1694 124.248L31.988 124.176ZM76.0187 126.5H78.6854C86.2774 126.5 93.8703 126.5 101.464 126.5C109.323 126.508 117.181 126.54 125.041 126.537C128.375 126.537 129.291 125.839 129.956 122.583C132.485 110.194 134.988 97.7969 137.467 85.3907C137.897 83.2573 137.509 82.76 135.353 82.7587C119.236 82.748 103.118 82.7413 86.9987 82.7387C85.1094 82.7387 84.1374 83.4267 83.768 85.4053C81.7334 96.2813 79.5814 107.133 77.4934 118C76.972 120.711 76.5467 123.443 76.0187 126.5ZM36.8867 51.2453C36.8467 61.9747 44.6574 70.16 55.008 70.236C65.068 70.3093 73.248 61.8973 73.4854 51.6387C73.7227 41.38 66.552 32.5507 55.696 32.4133C45.0854 32.2787 36.9254 40.58 36.8867 51.2453ZM61.02 120.739C65.3374 120.739 69.3801 120.753 73.42 120.713C73.7947 120.713 74.3534 120.447 74.5107 120.141C75.444 118.369 75.0094 116.932 73.4214 115.529C69.7787 112.311 65.4214 109.729 63.732 104.737C63.4347 103.856 62.9507 103.037 62.3547 101.765C61.8974 108.347 61.4667 114.409 61.024 120.739H61.02ZM73.7027 123.243C67.2667 123.243 60.9574 123.243 54.6467 123.243C53.18 123.243 51.6827 123.092 50.276 123.376C49.516 123.532 48.484 124.383 48.3387 125.08C48.072 126.383 49.2827 126.648 50.3307 126.651C57.972 126.668 65.612 126.66 73.296 126.66C73.48 125.743 73.6574 124.913 73.8041 124.08C73.84 123.905 73.7654 123.701 73.7067 123.243H73.7027ZM35.7747 98.3533C33.3814 104.959 32.028 111.153 32.7894 117.687C33.7587 111.409 34.7227 105.161 35.7747 98.3533Z" fill="#3A3A3A"/>
<path d="M105.477 112.933C105.077 113.285 104.571 113.575 104.303 114.009C104.035 114.444 104.169 115.199 103.843 115.488C103.373 115.901 102.643 116.021 102.024 116.261C101.877 115.751 101.624 115.241 101.612 114.727C101.596 114.149 101.796 113.567 101.928 112.844L98.7441 112.653C98.5481 111.121 98.2561 109.756 100.567 109.895C100.967 109.919 101.552 109.392 101.767 108.972C102.06 108.404 102.095 107.699 102.208 107.047C102.676 104.38 103.132 101.707 103.611 98.924L101.773 98.708C100.796 97.808 101.563 96.0493 102.951 95.9627C103.672 95.9187 104.399 95.9547 105.119 95.9547C105.859 94.844 104.945 92.4507 107.267 92.7867C109.332 93.0867 107.34 94.8067 108.245 96.12C108.677 95.72 109.204 95.4053 109.468 94.9427C109.979 94.0453 109.824 92.3653 111.489 92.9627C111.879 93.096 111.711 94.6213 111.925 95.4733C112.077 96.0813 112.283 96.8827 112.736 97.176C116.107 99.3627 116.336 101.148 113.449 104.209C115.207 105.409 115.413 107.131 114.859 108.988C114.204 111.184 112.575 112.383 110.389 112.721C109.212 112.903 108.523 113.243 108.201 114.52C108.028 115.205 107.135 115.709 106.573 116.295C106.332 115.583 106.068 114.877 105.861 114.161C105.795 113.925 105.879 113.647 105.895 113.388L105.477 112.933ZM104.868 110.235C106.659 110.127 108.201 110.292 109.535 109.848C110.244 109.611 111.067 108.291 111.024 107.504C110.921 105.585 109.143 105.859 107.815 105.688C106.801 105.555 105.757 105.468 105.483 106.844C105.299 107.744 105.152 108.649 104.868 110.235ZM106.344 102.768C109.105 103.557 111.241 102.961 111.565 101.332C111.843 99.9373 110.872 99.4213 109.772 99.1867C107.224 98.652 106.892 99.012 106.344 102.773V102.768Z" fill="#F7931B"/>
<path d="M59.2413 64.64C57.4773 64.2573 55.7747 63.9987 54.1613 63.4867C53.3508 63.2109 52.6517 62.6793 52.1693 61.972C51.888 61.5347 52.044 60.56 52.3733 60.08C52.572 59.7893 53.676 59.7267 54.036 60.0027C57.1027 62.3427 60.3027 61.9547 63.6507 60.8227C64.256 60.6187 65.088 61.0893 65.8147 61.2413C65.4213 61.968 65.1853 63.124 64.6013 63.34C62.8947 63.972 61.048 64.232 59.2413 64.64Z" fill="#3A3A3A"/>
<path d="M62.9253 49.9253C64.1626 48.62 64.9973 46.992 65.892 46.9573C67.492 46.8973 67.6906 48.7013 67.64 50.0107C67.5893 51.32 67.328 53.036 65.5533 52.728C64.6853 52.5773 64.036 51.1693 62.9253 49.9253Z" fill="#3A3A3A"/>
<path d="M52.5134 49.8067C53.7588 48.552 54.6068 46.9773 55.5228 46.9347C57.1748 46.86 57.2388 48.648 57.2108 49.9573C57.1801 51.3547 56.6161 52.8533 55.0348 52.624C54.2108 52.5067 53.5774 51.0587 52.5134 49.8067Z" fill="#3A3A3A"/>
</svg>
