<svg width="160" height="160" viewBox="0 0 160 160" fill="none" xmlns="http://www.w3.org/2000/svg">
<path d="M79.8666 103.285C63.584 103.285 47.3013 103.207 31.0186 103.321C23.9706 103.371 18.432 98.052 18.668 91.0373C18.9173 83.6627 18.876 76.2693 18.676 68.892C18.4826 61.712 24.1626 56.6547 31.076 56.6787C63.704 56.792 96.332 56.7253 128.96 56.7307C135.167 56.7307 139.787 60.172 141.045 65.7693C141.276 66.7987 141.26 67.9027 141.261 68.9693C141.277 76.352 141.083 83.7413 141.316 91.116C141.547 98.396 135.74 103.347 129.087 103.316C112.689 103.235 96.28 103.285 79.8666 103.285ZM79.908 100.752C96.1293 100.752 112.352 100.619 128.575 100.817C135.401 100.903 139.217 96.2213 139.008 90.2533C138.759 83.132 138.956 75.9867 138.951 68.8627C138.951 63.1667 135.179 59.36 129.519 59.3587C96.3186 59.3533 63.1186 59.3533 29.9186 59.3587C24.9853 59.3587 21.1813 63.144 21.172 68.076C21.1542 76.028 21.1542 83.9796 21.172 91.9307C21.1586 92.6205 21.2339 93.3093 21.396 93.98C22.5466 98.2693 25.8906 100.733 30.676 100.739C47.0902 100.756 63.5026 100.758 79.9133 100.745L79.908 100.752Z" fill="#3A3A3A"/>
<path d="M116.215 89.556L115.148 89.2627C113.891 90.2053 114.951 93.396 112.232 92.5373C110.251 91.912 112.284 90.284 111.891 89.1707C110.868 87.9947 108.073 89.8587 107.999 87.012C107.961 85.6133 108.423 85.4907 111.612 85.5453C112.36 81.812 113.117 78.036 113.879 74.2613C112.993 73.3027 110.335 74.488 111.011 71.9747C111.736 69.272 113.879 71.556 115.24 70.9693C116.307 66.532 116.739 67.3773 118.56 67.94C118.448 68.888 118.333 69.8667 118.201 70.9813L119.885 71.1147C120.081 70.3693 120.108 69.6187 120.465 69.088C120.823 68.5573 121.495 68.288 122.031 67.8987C122.369 68.4507 122.933 68.98 122.991 69.56C123.065 70.328 122.745 71.1347 122.601 71.888C127.801 74.4133 128.555 77.444 124.665 80.1547C127.183 81.6493 127.617 84 126.667 86.4C125.405 89.568 122.343 89.612 119.576 89.72C118.517 90.7867 119.709 93.676 116.961 93.0053C115.017 92.5333 116.791 90.8813 116.215 89.556ZM115.368 86.2733C117.185 86.4067 118.679 86.6733 120.145 86.5733C122.16 86.44 123.244 84.44 122.256 82.992C121.621 82.0587 117.468 80.9587 116.535 81.5107C116.271 81.6755 116.08 81.935 116.001 82.236C115.772 83.452 115.611 84.68 115.368 86.2733ZM119.368 78.9307L119.456 78.6853C119.708 78.6853 120.007 78.7733 120.204 78.6693C121.137 78.1827 122.157 77.7627 122.871 77.0427C123.055 76.8573 122.356 75.176 121.835 75.0427C120.516 74.6907 118.961 74.4987 117.724 74.9093C117.209 75.08 117.043 76.98 117.173 78.0373C117.213 78.4227 118.593 78.6387 119.364 78.9333L119.368 78.9307Z" fill="#F7931B"/>
<path d="M56.048 89.2867V71.144C58.7466 71.144 61.3813 70.9893 63.9973 71.1933C66.1146 71.3587 67.8146 72.408 68.3186 74.74C68.78 76.88 68.032 78.516 66.5173 79.572C67.3173 80.8787 68.5173 82.0613 68.804 83.4387C69.4706 86.5533 67.3186 88.9347 63.9306 89.2613C63.1186 89.34 62.2933 89.288 61.4746 89.2893C59.72 89.2893 57.9666 89.2867 56.048 89.2867ZM59.2266 81.3413V86.5813C60.5426 86.5813 61.7386 86.6653 62.9186 86.56C64.4466 86.4267 65.5613 85.7093 65.5773 83.9747C65.5933 82.24 64.4906 81.504 62.9586 81.3627C61.776 81.2533 60.5746 81.3413 59.2266 81.3413ZM59.164 78.6667C60.4973 78.6667 61.74 78.7587 62.9693 78.6413C64.3293 78.508 65.1106 77.7 65.1213 76.2613C65.132 74.8707 64.3693 74.152 63.0626 74.068C61.7786 73.9853 60.484 74.0507 59.164 74.0507V78.6667Z" fill="#3A3A3A"/>
<path d="M44.6533 89.2H41.5653C41.5653 86.8147 41.5907 84.5013 41.5587 82.1893C41.5213 79.56 40.6173 78.2453 38.964 78.3093C37.2827 78.376 36.328 79.7187 36.2973 82.176C36.264 84.492 36.2907 86.8093 36.2907 89.1987H33.1893V76.0133C34.3027 76.2413 35.856 74.896 36.3067 76.8573C37.6307 76.4707 39.032 75.684 40.3707 75.7773C41.6587 75.8667 42.884 76.8667 44.0947 77.4467C45.212 76.928 46.5227 75.98 47.9613 75.732C50.5813 75.2853 52.824 77.344 52.9547 80.188C53.088 83.1373 52.9853 86.096 52.9853 89.1653H49.9587C49.9587 86.6867 49.972 84.2427 49.9587 81.7987C49.9427 79.5827 48.9627 78.2853 47.3707 78.3093C45.7467 78.3347 44.684 79.6533 44.6627 81.7507C44.6333 84.1973 44.6533 86.6453 44.6533 89.2Z" fill="#3A3A3A"/>
<path d="M99.4493 76.788C97.616 77.1587 96.3653 77.0653 95.3013 75.2307C93.8747 72.7693 90.1093 73.2893 88.612 76.02C87.336 78.3453 87.4253 80.868 88.1173 83.344C88.5987 85.0667 89.596 86.3907 91.5693 86.6293C93.6147 86.8773 94.9667 86.108 96.06 84.2853C96.488 83.5693 97.94 83.4667 99.0533 83.0347C99.32 87.2573 94.9453 90.48 90.8027 89.5507C87.7053 88.856 85.6733 86.9253 84.824 83.904C84.024 81.0613 84.024 78.1787 85.2467 75.4227C86.6053 72.3733 89.704 70.5173 92.788 70.804C96.3613 71.1373 98.5 73.0333 99.4493 76.788Z" fill="#3A3A3A"/>
<path d="M75.3574 74.0467H70.4947V71.256H83.5614V74H78.6667V89.148H75.3574V74.0467Z" fill="#3A3A3A"/>
</svg>
