<svg width="160" height="160" viewBox="0 0 160 160" fill="none" xmlns="http://www.w3.org/2000/svg">
<path d="M129.363 93.0667C129.479 94.08 129.659 95.0907 129.703 96.1067C130.064 104.551 130.411 112.992 130.743 121.429C130.752 121.649 130.829 121.915 130.743 122.083C130.487 122.506 130.209 122.914 129.909 123.307C129.523 122.928 128.875 122.595 128.799 122.161C128.571 120.863 128.532 119.527 128.48 118.204C128.228 111.913 128.04 105.621 127.741 99.3347C127.513 94.5347 127.151 89.752 126.849 84.96C126.819 84.464 126.692 83.9467 126.789 83.4773C126.923 82.8653 127.224 82.2893 127.456 81.6987C127.904 82.1827 128.579 82.5947 128.761 83.1653C129.816 86.456 131.044 89.732 131.664 93.1133C132.597 98.1907 133.067 103.353 133.752 108.477C133.845 109.183 133.937 109.92 134.216 110.561C134.688 111.648 135.595 112.541 136.787 112.137C137.639 111.848 138.412 110.988 138.939 110.195C139.292 109.661 139.249 108.8 139.219 108.092C138.875 100.265 138.196 92.4813 135.739 84.9773C135.178 83.314 134.518 81.6857 133.763 80.1013C132.388 77.1453 130.328 74.788 127.653 72.8667C124.743 70.776 121.701 71.0667 118.533 71.7707C117.893 71.9147 117.155 72.104 116.571 71.9227C114.62 71.316 113.237 72.1267 112.112 73.5427C108.881 77.5867 105.64 81.6253 102.5 85.74C100.033 88.972 99.6333 89.2453 95.7347 88.116C93.468 87.46 91.2933 86.516 89.048 85.776C86.7667 85.0307 84.464 84.236 81.7667 85.6093C82.636 86.1147 83.4773 86.676 84.3813 87.1093C85.4093 87.5973 86.544 87.824 85.46 89.404C84.9107 90.204 86.1867 91.9667 87.46 91.8547C90.9187 91.5507 93.8787 93.188 97.0413 93.988C100.689 94.9107 103.485 93.9067 105.812 91.0213C107.26 89.2253 108.6 87.4667 108.309 84.9773C108.263 84.6457 108.327 84.3081 108.491 84.016C108.737 83.6493 109.127 83.38 109.455 83.0693C109.76 83.4693 110.136 83.836 110.343 84.2827C110.464 84.5493 110.304 84.9293 110.289 85.26C109.92 93.4787 109.565 101.697 109.181 109.913C108.993 113.94 108.781 117.965 108.484 121.984C108.449 122.459 107.773 122.885 107.395 123.335C107.067 122.856 106.436 122.364 106.455 121.9C106.721 115.171 107.08 108.445 107.416 101.719C107.573 98.5364 107.73 95.3538 107.887 92.1707L107.44 91.8267C107.232 92.1907 107.068 92.5907 106.808 92.9133C104.196 96.1427 100.816 97.0173 96.8827 96.0627C95.4987 95.7267 94.128 95.3227 92.7773 94.8627C91.3267 94.376 89.9653 93.9293 88.324 94.1467C85.968 94.4627 83.8213 92.5467 83.304 90.2373C83.1619 89.6419 82.8203 89.1131 82.336 88.7387C80.292 87.3333 79.2 85.7867 79.7813 84.552C80.6547 82.6853 82.5293 82.476 84.1933 82.7107C86.6187 83.0533 88.9933 83.7773 91.372 84.4267C93.4827 85.0093 95.5827 85.6533 97.6387 86.4027C98.8387 86.8387 99.468 86.364 100.117 85.476C102.689 81.9627 105.257 78.444 107.915 74.9947C108.981 73.6133 110.272 72.4067 111.553 71.0213C107.097 69.2747 103.82 66.328 101.769 62.088C100.079 58.5947 99.6907 54.888 100.303 51.1213C101.455 44.0173 107.46 37.9693 114.201 36.9173C122.093 35.6853 128.943 39.0187 132.297 45.7467C133.651 48.4613 134.156 51.3467 134.121 54.3787C134.085 57.4907 133.487 60.4707 131.728 62.9933C130.056 65.3933 127.965 67.5013 126.084 69.7067C132.873 72.4173 135.96 78.46 138.003 85.2133C140.28 92.7467 141.099 100.52 141.336 108.361C141.336 108.913 141.272 109.462 141.145 109.999C140.564 112.812 138.687 114.513 136.371 114.355C133.811 114.18 131.999 112.033 131.719 109.192C131.185 103.789 130.519 98.4 129.917 93.0053L129.363 93.0667ZM102.183 54.224C102.183 62.8493 108.608 69.7093 116.675 69.712C125.349 69.712 132.076 62.8093 132.065 53.9147C132.056 45.18 125.867 38.868 117.333 38.8747C108.733 38.8813 102.176 45.5267 102.183 54.224Z" fill="#3A3A3A"/>
<path d="M73.304 79.6613C70.9853 79.6613 68.668 79.6613 66.3507 79.6613C62.7693 79.6547 60.2347 77.336 60.1707 73.768C60.0818 68.8587 60.0849 63.948 60.18 59.036C60.252 55.512 62.8147 53.1693 66.4067 53.1467C71.0973 53.1187 75.788 53.1293 80.4787 53.1467C83.9787 53.1573 86.4787 55.4453 86.5493 58.9773C86.6533 63.9413 86.6587 68.912 86.5307 73.8747C86.44 77.4133 83.9387 79.6533 80.4227 79.6653C78.0493 79.668 75.676 79.6613 73.304 79.6613ZM62.4 66.4C62.4 68.8307 62.3787 71.2613 62.4067 73.6907C62.4347 76.032 63.7173 77.5373 65.9907 77.5747C70.904 77.6533 75.8227 77.652 80.736 77.544C83.0707 77.4933 84.3173 76.0107 84.324 73.668C84.3373 68.8076 84.3373 63.9471 84.324 59.0867C84.316 56.7133 83.084 55.3733 80.6747 55.3533C75.76 55.3053 70.8449 55.3258 65.9293 55.4147C63.6533 55.4547 62.4307 56.816 62.4013 59.1133C62.372 61.5373 62.4 63.968 62.4 66.4Z" fill="#F7931B"/>
<path d="M74.4294 96.9333C74.4294 99.3067 74.4534 101.681 74.4227 104.055C74.3787 107.521 72.0307 110.025 68.5454 110.092C63.7454 110.181 58.9427 110.178 54.1374 110.084C50.7694 110.015 48.256 107.384 48.212 103.983C48.1498 99.1249 48.1467 94.2671 48.2027 89.4093C48.2427 86.1053 50.8467 83.652 54.176 83.6453C58.976 83.6347 63.7787 83.6347 68.584 83.6453C71.8774 83.6533 74.3374 86.02 74.412 89.312C74.4694 91.8453 74.4227 94.3907 74.4227 96.9307L74.4294 96.9333ZM61.2734 107.851C63.6467 107.851 66.02 107.851 68.3934 107.851C70.8947 107.841 72.372 106.373 72.3814 103.839C72.4 99.1462 72.4 94.4547 72.3814 89.764C72.3707 87.4973 70.7454 85.7067 68.496 85.6733C63.696 85.6013 58.896 85.5987 54.096 85.6653C51.9494 85.696 50.4827 87.2173 50.4587 89.3653C50.4071 94.2773 50.4071 99.1893 50.4587 104.101C50.488 106.532 51.9147 107.835 54.3254 107.851C56.6374 107.855 58.956 107.845 61.2734 107.844V107.851Z" fill="#F7931B"/>
<path d="M18.6667 81.1573C18.6667 78.6707 18.652 76.1853 18.6667 73.7C18.6907 70.604 20.8533 68.1 23.9347 68.016C29.0667 67.8827 34.2013 67.9133 39.34 68.016C41.9573 68.068 43.984 69.972 44.54 72.5493C44.6693 73.1421 44.7373 73.7466 44.7427 74.3533C44.7613 78.8867 44.7933 83.412 44.7427 87.9413C44.7 92.1187 42.2987 94.5 38.1387 94.5307C33.776 94.5627 29.4129 94.5627 25.0493 94.5307C21.0973 94.5013 18.668 92.036 18.6613 88.12C18.6649 85.7973 18.6667 83.4764 18.6667 81.1573ZM42.5547 81.1573C42.5547 78.7827 42.5787 76.4093 42.548 74.0347C42.516 71.4613 41.1013 70.06 38.532 70.0507C33.9498 70.0329 29.3671 70.0329 24.784 70.0507C22.3493 70.0587 20.76 71.448 20.7187 73.872C20.6298 78.7298 20.6298 83.588 20.7187 88.4467C20.7653 90.8467 22.396 92.2533 24.8053 92.2613C29.4427 92.2756 34.0805 92.2756 38.7187 92.2613C41.0947 92.2507 42.4933 90.8667 42.5373 88.4507C42.5813 86.0347 42.5587 83.592 42.56 81.1627L42.5547 81.1573Z" fill="#F7931B"/>
<path d="M30.5693 51.38C30.5693 48.9533 30.5547 46.5253 30.5693 44.0987C30.596 40.8733 33.0467 38.2733 36.244 38.232C41.2075 38.1707 46.172 38.1707 51.1373 38.232C54.2613 38.268 56.776 40.8613 56.7907 43.9653C56.8164 48.9858 56.8164 54.008 56.7907 59.032C56.7773 62.0493 54.3027 64.676 51.2787 64.7213C46.204 64.7973 41.128 64.784 36.0533 64.7213C33.1627 64.688 30.6373 62.0733 30.5867 59.1587C30.5427 56.5667 30.5773 53.9733 30.5773 51.38H30.5693ZM54.7027 51.4213C54.7027 49.1013 54.7227 46.78 54.7027 44.46C54.6733 41.8253 53.3347 40.424 50.7453 40.412C45.9933 40.3907 41.2422 40.4071 36.492 40.4613C34.1213 40.488 32.6467 41.928 32.6253 44.2827C32.5782 49.0898 32.5782 53.8964 32.6253 58.7027C32.6493 61.048 34.2787 62.6293 36.6333 62.644C41.2733 62.6733 45.9138 62.6671 50.5547 62.6253C53.316 62.6013 54.676 61.1813 54.7 58.3827C54.712 56.0627 54.696 53.7413 54.6987 51.4213H54.7027Z" fill="#F7931B"/>
<path d="M118.267 116.88C118.051 118.512 117.933 120.167 117.568 121.764C117.435 122.343 116.713 122.785 116.26 123.291C116.007 122.701 115.491 122.091 115.543 121.529C115.827 118.463 116.251 115.396 116.627 112.34C116.801 110.919 116.871 109.473 117.192 108.085C117.344 107.431 117.976 106.885 118.392 106.295C118.807 106.861 119.511 107.392 119.592 108.003C120.174 112.536 120.671 117.082 121.083 121.64C121.132 122.173 120.549 122.761 120.255 123.324C119.855 122.824 119.205 122.375 119.088 121.815C118.752 120.215 118.631 118.56 118.421 116.927L118.267 116.88Z" fill="#3A3A3A"/>
<path d="M113.652 65.1427C112.133 64.564 110.667 64.1467 109.361 63.424C108.928 63.184 108.928 62.1613 108.731 61.4973C109.356 61.4973 110.115 61.2693 110.587 61.54C112.871 62.848 115.039 62.74 117.316 61.5107C117.84 61.228 118.661 61.5 119.347 61.5173C119.08 62.156 118.98 63.1453 118.513 63.372C117.015 64.0973 115.38 64.54 113.652 65.1427Z" fill="#3A3A3A"/>
<path d="M109.531 52.6253C109.563 54.1307 109.087 55.2613 107.829 55.3213C106.529 55.384 106.197 54.1333 106.24 53.0547C106.285 51.8933 106.527 50.5013 107.973 50.4573C109.467 50.4107 109.449 51.7867 109.531 52.6253Z" fill="#3A3A3A"/>
<path d="M118.56 52.4333C118.188 53.936 117.856 55.1333 116.56 55.2147C115.264 55.296 114.952 54.0453 114.876 52.9907C114.784 51.7013 116.047 49.9453 116.717 50.324C117.484 50.7653 117.959 51.7093 118.56 52.4333Z" fill="#3A3A3A"/>
<path d="M74.484 72.156C74.4427 72.664 74.5094 73.0893 74.3507 73.4027C74.1694 73.776 73.7974 74.056 73.508 74.376C73.2414 74.044 72.9467 73.7333 72.7334 73.372C72.52 73.0107 72.412 72.6213 72.1094 72.3053C71.5267 74.2333 71.5267 74.2333 70.1374 74.2853C70.084 73.7067 70.0307 73.1227 69.9747 72.52C69.3707 71.7867 67.5574 73.0773 67.6907 71.252C67.7227 70.8147 68.4907 70.4333 68.9267 70.0253L69.4227 70.292C69.5894 67.9613 69.756 65.6253 69.9214 63.3147C67.9734 62.8853 67.9734 62.8853 68.516 61.16L70.1814 61.2333L71.6294 58.8867L72.8547 61.1747C73.0307 60.7747 73.148 60.3307 73.3974 59.9853C73.6747 59.6 74.072 59.3027 74.4174 58.968C74.6227 59.3453 74.8374 59.7187 75.0307 60.1013C75.2894 60.616 75.3947 61.3973 75.8054 61.6173C78.332 62.972 78.62 63.872 77.0454 66.268C78.3574 67.144 78.7787 68.4013 78.3134 69.868C77.7614 71.6 76.2667 72.008 74.484 72.156ZM71.684 70.7267C73.2254 70.2947 74.4 70.0413 75.4934 69.5893C75.6894 69.5093 75.696 68.208 75.5334 68.1467C74.4427 67.732 73.2827 67.5 71.9334 67.1533C71.836 68.456 71.7814 69.264 71.68 70.7267H71.684ZM73.168 66.3147C74.2027 65.4467 75.2854 64.9813 75.3974 64.348C75.5947 63.224 74.4867 63.1333 73.556 63.0747C72.516 63.0093 71.8947 63.36 72.1107 64.4507C72.2094 64.9653 72.6374 65.416 73.164 66.3147H73.168Z" fill="#F7931B"/>
<path d="M62.9 102.599L61.7333 104.812L60.2773 102.8L58.6133 104.831L57.7653 102.533C57.3373 102.071 55.632 103.439 55.6067 101.675C55.6 101.251 56.4907 100.815 56.9693 100.383L57.4693 100.663C57.632 98.3333 57.7947 96.004 57.9667 93.5507C56.7867 93.4787 55.6187 93.3987 56.312 91.608H58.1787L59.668 89.2453C60.0427 89.9667 60.416 90.6893 60.8453 91.512C62.12 91.5347 60.6667 88.5227 62.9987 89.432V91.5653C66.3627 92.936 66.904 94.1933 65.1853 96.4107C67.8 99.2747 66.9013 101.445 62.9 102.599ZM59.9733 100.853C61.0067 100.728 62.0907 100.729 63.0733 100.415C63.4733 100.281 63.828 99.4933 63.8853 98.9667C63.9187 98.6533 63.4013 98.0907 63.0187 97.9533C60.596 97.0787 59.5773 97.948 59.9733 100.853ZM60.1787 96.3707C61.4933 95.8453 62.4973 95.48 63.4493 95.0093C63.548 94.96 63.4213 93.9987 63.2627 93.9547C62.2893 93.688 61.2773 93.5547 60.1787 93.3667V96.3707Z" fill="#F7931B"/>
<path d="M28.788 75.6333C29.352 74.7 29.7307 74.0733 30.1093 73.4467L31.3827 75.7467C31.5333 75.4099 31.7043 75.0827 31.8947 74.7667C32.2067 74.3027 32.5613 73.8693 32.9027 73.424C33.12 73.9693 33.3587 74.508 33.5413 75.0653C33.604 75.2587 33.5267 75.4973 33.5133 75.7027C36.884 77.5693 37.2213 78.38 35.5333 80.7307C36.856 81.4333 37.3147 82.572 37.02 84.0067C36.5787 86.1467 34.7933 86.504 33.032 86.864C32.9933 87.14 33.008 87.3707 32.9253 87.56C32.6907 88.0933 32.4173 88.6133 32.1587 89.1373C31.8627 88.6653 31.5573 88.204 31.276 87.7187C31.1067 87.428 30.9747 87.1133 30.844 86.844C30.248 87.72 29.7867 88.4 29.3333 89.0733C28.9867 88.4427 28.6413 87.812 28.1747 86.96L26.308 86.8467C26.268 86.272 26.232 85.7453 26.188 85.088L27.9867 84.8827C28.12 82.532 28.2533 80.2333 28.3947 77.828L26.744 77.5227C26.708 77.0267 26.672 76.508 26.6253 75.8427L28.788 75.6333ZM30.3707 84.8067C33.0307 85.1707 34.504 84.688 34.4227 83.4387C34.3187 81.916 33.0893 81.972 31.96 81.972C30.14 81.992 30.14 81.9867 30.3707 84.8067ZM30.604 80.1787C33.0533 80.2573 34.204 79.752 34.012 78.7493C33.736 77.36 32.5453 77.6027 31.612 77.6987C29.8333 77.8813 30.876 79.2107 30.604 80.1787Z" fill="#F7931B"/>
<path d="M40.1253 57.1867L38.0866 57.024C37.532 55.5307 38.164 55.024 39.7266 55.172C39.928 52.808 40.1266 50.532 40.3213 48.168L38.6733 47.768C38.0706 45.2507 40.1626 46.48 40.8146 45.8773C41.2306 45.2213 41.6458 44.5653 42.06 43.9093L43.3226 46.0587C43.4306 45.9 43.6506 45.5867 43.8653 45.2707C44.1626 44.828 44.4573 44.3827 44.7533 43.9373C45.008 44.4507 45.2973 44.9493 45.5026 45.4813C45.5946 45.7173 45.5186 46.0147 45.5186 46.2733C48.5853 47.7973 49.0826 49.0733 47.3626 50.9707C49.8573 53.276 49.3626 56.4227 45.0746 57.1627C44.5773 57.9947 44.1706 58.6733 43.7653 59.3533C43.3653 58.6387 42.9773 57.9227 42.5506 57.148C41.508 57.4373 42.5253 59.6813 40.8173 59.2267C40.4573 59.1267 40.3786 57.992 40.1253 57.1867ZM42.292 52.608C42.052 55.2533 42.1173 55.4227 43.6253 55.3667C44.8 55.324 46.0693 55.2027 46.1586 53.6427C46.2213 52.5133 44.9173 52.172 42.292 52.608ZM42.58 50.8533C43.78 50.4453 44.7573 50.148 45.6906 49.7453C45.8053 49.696 45.7666 48.812 45.6426 48.768C44.6986 48.4453 43.716 48.2347 42.576 47.948L42.58 50.8533Z" fill="#F7931B"/>
</svg>
