<svg width="160" height="160" viewBox="0 0 160 160" fill="none" xmlns="http://www.w3.org/2000/svg">
<path d="M114.28 55.3333V65.4667C116.372 66.2573 118.103 67.4267 118.857 69.6867C119.933 72.9133 118.744 75.888 115.555 77.392C114.571 77.856 114.187 78.3373 114.221 79.4493C114.32 82.488 114.269 85.532 114.283 88.5733C114.283 88.68 114.349 88.7867 114.453 89.1067C117.869 89.1067 121.356 89.076 124.84 89.116C128.661 89.1587 131.337 91.7827 131.479 95.5627C131.528 96.9067 131.596 98.2587 131.505 99.596C131.42 100.848 131.691 101.516 133.039 102.005C135.789 103.004 137.249 106.033 136.655 108.847C136.04 111.757 133.513 113.857 130.695 113.803C127.84 113.748 125.373 111.744 124.784 109.003C124.109 105.861 125.385 103.229 128.295 102.027C129.183 101.659 129.577 101.244 129.503 100.251C129.388 98.736 129.48 97.208 129.369 95.6933C129.193 93.2267 127.264 91.2493 124.836 91.1853C121.393 91.0947 117.945 91.1627 114.267 91.1627C114.267 94.5453 114.232 97.852 114.324 101.163C114.333 101.483 115.097 101.867 115.575 102.077C118.441 103.337 119.776 105.977 119.161 109.277C118.685 111.832 116.104 113.92 113.352 113.976C110.408 114.035 107.619 111.653 107.252 108.776C106.804 105.209 108.42 102.835 112.052 101.865V91.3667C108.393 91.3667 104.664 91.108 100.993 91.456C98.444 91.6973 97.0107 93.696 96.6747 96.2853C96.556 97.2093 96.596 98.152 96.468 99.0853C96.2467 100.685 96.692 101.653 98.32 102.419C100.903 103.627 101.997 106.889 101.12 109.651C100.32 112.164 97.6814 114.029 95.108 113.896C92.4254 113.763 89.8254 111.565 89.3587 109.051C88.8 106.044 90.1187 103.141 92.8734 102.161C94.3254 101.644 94.512 100.901 94.492 99.6133C94.4654 97.9267 94.396 96.1747 94.792 94.5613C95.6 91.2707 98.556 89.1827 102.091 89.1387C105.363 89.0987 108.636 89.1307 112.036 89.1307V78.0627C108.36 76.7027 106.743 74.608 106.895 71.3747C107.028 68.5267 108.787 66.5867 112.08 65.7187V55.4333C111.597 55.4 111.099 55.3373 110.6 55.336C106.389 55.3262 102.178 55.3262 97.9654 55.336C95.2214 55.336 93.4187 56.9173 93.2414 59.6507C93.108 61.624 93.216 63.612 93.216 65.5507C97.1454 67.0813 98.8414 69.792 98.0854 73.2053C97.452 76.0613 94.8107 78.0053 91.7214 77.8813C88.8654 77.7693 86.4694 75.528 86.0907 72.616C85.6587 69.2907 87.3307 66.9133 91.0974 65.6947C91.0974 63.8413 91.084 61.9267 91.0974 60.012C91.1347 55.7147 93.6654 53.1573 97.948 53.128C101.984 53.1013 106.02 53.128 110.056 53.128H112.084C112.084 49.384 112.121 45.8347 112.027 42.288C112.016 41.92 111.267 41.4427 110.769 41.236C108.244 40.188 106.719 37.728 106.865 34.792C106.988 32.3187 108.747 30.1707 111.228 29.4667C112.475 29.1106 113.801 29.1548 115.021 29.593C116.241 30.0313 117.293 30.8415 118.028 31.9093C120.439 35.432 118.652 40.0333 114.161 41.556V53.1293C115.375 53.1293 116.636 53.1293 117.895 53.1293C121.579 53.1413 125.267 53.0573 128.947 53.1973C132.66 53.34 134.901 55.8173 134.947 59.568C134.971 61.4947 134.947 63.4213 134.947 65.3013C139.529 67.272 141.191 70.6827 139.456 74.4093C138.304 76.8827 135.755 78.212 132.957 77.7987C130.517 77.4373 128.26 75.0947 127.947 72.5987C127.576 69.6413 128.776 67.108 131.301 66.1347C132.567 65.648 133.003 65.048 132.876 63.7347C132.749 62.4213 132.899 61.044 132.833 59.7013C132.712 56.8827 131.067 55.3333 128.273 55.3333C123.665 55.3333 119.056 55.3333 114.28 55.3333ZM117.067 71.744C117.035 69.468 115.147 67.592 112.948 67.652C110.923 67.7067 108.993 69.7387 109.003 71.8067C109.012 74.0093 110.932 75.94 113.116 75.9547C115.341 75.9653 117.101 74.0893 117.067 71.744ZM108.993 35.2707C108.969 37.4613 110.767 39.336 112.915 39.3627C115.137 39.3907 116.981 37.5893 116.956 35.416C116.931 33.2427 115.089 31.44 112.915 31.4333C111.886 31.4223 110.895 31.8204 110.159 32.54C109.424 33.2596 109.005 34.2418 108.993 35.2707ZM92.2254 75.7227C94.3454 75.6973 96.016 73.944 96.004 71.756C95.992 69.568 94.172 67.6653 92.0747 67.6547C89.9414 67.644 88.2254 69.4947 88.248 71.788C88.2707 74.0813 89.968 75.7493 92.2254 75.7227ZM117.145 107.799C117.133 105.553 115.38 103.776 113.188 103.785C111.047 103.795 109.368 105.5 109.344 107.688C109.321 109.941 111.237 111.908 113.384 111.833C115.467 111.761 117.159 109.943 117.145 107.799ZM137.792 71.6867C137.805 69.4613 136.192 67.676 134.111 67.6213C131.96 67.564 130.111 69.388 130.087 71.5813C130.067 73.7147 131.976 75.6973 134.035 75.688C136.093 75.6787 137.779 73.9 137.792 71.6867ZM91.4454 107.733C91.4454 109.908 93.312 111.76 95.4454 111.711C97.5254 111.663 99.1787 109.872 99.168 107.676C99.1587 105.503 97.488 103.773 95.3707 103.743C93.1654 103.713 91.4387 105.467 91.4454 107.733ZM130.765 111.504C131.276 111.497 131.781 111.388 132.25 111.184C132.719 110.981 133.143 110.686 133.497 110.317C133.851 109.949 134.129 109.514 134.314 109.037C134.499 108.561 134.587 108.052 134.575 107.541C134.546 106.51 134.118 105.529 133.38 104.808C132.642 104.086 131.652 103.68 130.62 103.675C128.441 103.685 126.86 105.372 126.887 107.656C126.916 109.867 128.581 111.519 130.765 111.507V111.504Z" fill="#F7931B"/>
<path d="M57.1733 66.8173C62.0613 71.304 64.0893 77.3773 66.5067 83.2347C67.8107 86.3907 67.852 86.4253 70.8093 84.6853C74.276 82.6467 77.68 80.4907 81.1627 78.476C81.7307 78.148 82.5653 78.2813 83.276 78.2013C82.9013 78.896 82.704 79.864 82.1227 80.2413C78.6027 82.5253 75.0013 84.684 71.4107 86.8573C70.804 87.2065 70.1645 87.495 69.5013 87.7187C67.5867 88.4067 66.4347 88.0893 65.5627 86.3053C64.4627 84.0667 63.5813 81.7213 62.6133 79.4173C60.936 75.4173 59.1227 71.4893 55.768 68.5813C55.116 68.016 54.0547 67.7747 53.1493 67.6773C51.08 67.4547 48.9613 67.5893 46.9133 67.264C40.536 66.248 35.724 68.88 32.06 73.7493C28.32 78.72 26.5933 84.636 25.1067 90.5787C23.4453 97.2 22.1333 103.885 21.94 110.74C21.9253 111.264 21.868 111.832 22.0387 112.305C22.3973 113.297 22.4787 114.621 23.9653 114.673C25.452 114.725 26.4547 113.833 26.7947 112.515C27.3013 110.549 27.5653 108.515 27.9013 106.515C29.4027 97.528 31.9813 88.8507 35.4533 80.44C35.6933 79.8587 36.5373 79.5253 37.1 79.0773C37.22 79.744 37.524 80.4227 37.4347 81.052C36.4 88.3107 35.16 95.5453 34.2667 102.823C33.184 111.565 32.4 120.344 31.4 129.099C31.332 129.699 30.564 130.22 30.1213 130.779C29.8547 130.152 29.3147 129.503 29.3653 128.904C29.7853 123.971 30.2987 119.037 30.816 114.104C31.3493 109.056 31.9133 104.011 32.484 98.9667C32.66 97.412 32.9067 95.8653 32.828 94.2387C32.364 96.1787 31.8333 98.1053 31.448 100.063C30.6947 103.889 30.0093 107.728 29.3227 111.565C28.7693 114.66 27.3133 116.381 24.7773 116.86C22.864 117.22 21.0267 116.495 20.6267 114.609C20.08 112.029 19.68 109.287 19.948 106.689C20.9093 97.3427 22.7587 88.1653 26.4067 79.4387C28.7107 73.928 31.8 69.064 37.4933 66.452C38.6933 65.9027 39.9427 65.488 41.376 64.9307C36.6107 61.6453 33.8067 57.1973 32.892 51.6747C32.2067 47.528 32.936 43.492 34.968 39.8267C39.4253 31.788 46.2267 28.776 54.3173 29.8267C62.3333 30.872 68.2573 36.8107 69.5173 45.236C70.6413 52.8067 68.4213 61.6467 57.1733 66.8173ZM50.884 65.644C59.6373 65.688 67.3533 57.808 67.6187 48.9693C67.9533 37.8453 59.1733 32.036 51.808 31.7893C42.436 31.4667 35.0573 39.4893 34.948 48.6667C34.836 57.916 42.1107 65.6 50.884 65.644Z" fill="#3A3A3A"/>
<path d="M57.9453 90.696C57.752 95.9133 57.5453 100.681 57.4013 105.451C57.1613 113.224 56.9813 121 56.6907 128.771C56.6667 129.409 55.9947 130.024 55.624 130.649C55.2787 130.019 54.6173 129.381 54.6333 128.76C54.9 118.299 55.2387 107.839 55.576 97.3787C55.6978 93.64 55.8387 89.9013 55.9987 86.1627C56.0627 84.7067 56.1253 83.2373 56.3867 81.8107C56.488 81.26 57.1413 80.8107 57.5427 80.3147C57.8453 80.86 58.504 81.496 58.392 81.936C57.3533 85.9947 59.4293 89.0587 61.54 92.0813C63.54 94.9453 66.6187 96.012 69.664 94.3333C74.5013 91.6667 79.0907 88.5533 83.7813 85.6213C84.324 85.2827 84.8013 84.796 85.3813 84.572C85.7987 84.4107 86.34 84.572 86.8267 84.596C86.76 85.1413 86.7173 85.6907 86.612 86.228C86.5853 86.3613 86.368 86.468 86.2227 86.5627C81.3787 89.7013 76.6533 93.044 71.6533 95.912C67.1387 98.5013 62.9867 97.3787 59.7213 93.2907C59.184 92.6147 58.74 91.8667 57.9453 90.696Z" fill="#3A3A3A"/>
<path d="M44.0934 122.552C43.8614 124.561 43.6934 126.583 43.3534 128.572C43.2507 129.163 42.648 130.108 42.248 130.123C41.084 130.161 41.188 129.108 41.28 128.307C41.784 123.853 42.3187 119.404 42.8507 114.955C43.016 113.568 43.104 112.155 43.428 110.811C43.5614 110.277 44.228 109.871 44.656 109.405C45.04 109.893 45.7227 110.361 45.76 110.872C46.144 116.691 46.4551 122.513 46.6934 128.339C46.7147 128.852 46.096 129.392 45.7734 129.919C45.3614 129.451 44.6294 129.005 44.596 128.511C44.4627 126.543 44.5387 124.559 44.5387 122.581L44.0934 122.552Z" fill="#3A3A3A"/>
<path d="M47.8854 56.5107C48.5614 56.324 49.096 56.136 49.6467 56.0533C49.8027 56.0293 50.0094 56.308 50.18 56.4533C53.0454 58.9053 54.776 58.9867 58.0334 56.9587C58.4587 56.692 59.124 56.812 59.6787 56.7533C59.5627 57.3853 59.6627 58.212 59.2974 58.62C56.7334 61.468 50.7374 61.02 48.5667 57.8853C48.3774 57.6107 48.2667 57.2787 47.8854 56.5107Z" fill="#3A3A3A"/>
<path d="M52.4907 47.516C52.3734 48.6307 52.2414 49.988 50.636 50.056C49.264 50.116 48.984 48.9693 48.9854 47.8547C48.9854 46.6173 49.008 45.1373 50.5854 44.984C52.0627 44.84 52.4187 46.1133 52.4907 47.516Z" fill="#3A3A3A"/>
<path d="M62.328 47.6573C62.2213 48.868 62.0613 50.2293 60.5947 50.276C59.0067 50.324 58.88 48.8533 58.9347 47.7133C58.9893 46.6107 59.056 45.1227 60.696 45.208C62.0853 45.28 62.3027 46.4853 62.328 47.6573Z" fill="#3A3A3A"/>
</svg>
