<svg width="160" height="160" viewBox="0 0 160 160" fill="none" xmlns="http://www.w3.org/2000/svg">
<path d="M63.2707 68.6547C62.6587 69.6213 62.676 70.4213 63.3667 71.2453C66.156 74.5787 68.98 77.8867 71.7427 81.2453C72.5507 82.2253 73.3187 83.2787 73.876 84.4093C74.5427 85.7493 74.032 87.1987 73.8413 88.5933C73.432 91.5947 72.992 94.5933 72.56 97.5907C72.264 99.6467 71.9693 101.704 71.6587 103.759C71.5253 104.611 71.612 104.845 72.4587 105.043C73.716 105.333 74.5333 106.117 75.092 107.2C75.4133 107.815 75.8667 108.055 76.54 108.011C77.556 107.945 78.5893 108.001 79.5853 107.832C80.1627 107.711 80.689 107.416 81.0933 106.987C82.4267 105.564 83.6653 104.053 84.98 102.609C85.2448 102.333 85.6014 102.163 85.9827 102.132C87.6027 102.083 89.224 102.132 90.8453 102.101C91.3493 102.093 91.512 102.281 91.4987 102.759C91.4733 103.559 91.4627 104.359 91.4787 105.159C91.488 105.603 91.3053 105.728 90.8827 105.723C89.5107 105.703 88.1373 105.715 86.696 105.715C86.652 106.248 86.584 106.755 86.5707 107.257C86.5133 109.432 86.4493 111.607 86.4373 113.781C86.4373 114.388 86.2173 114.523 85.656 114.517C82.9267 114.492 80.1973 114.507 77.412 114.507C77.3573 115.184 77.2787 115.84 77.256 116.493C77.1507 119.621 77.0453 122.749 76.98 125.879C76.968 126.451 76.836 126.656 76.2333 126.637C74.8147 126.595 73.392 126.603 71.9667 126.637C71.3947 126.649 71.2453 126.4 71.2267 125.884C71.1747 124.38 71.0933 122.876 71.016 121.392H66.3147C66.3147 122.869 66.2773 124.261 66.3307 125.651C66.356 126.325 66.1627 126.532 65.4813 126.519C63.3987 126.477 61.3147 126.504 59.1907 126.504C59.1537 126.321 59.1287 126.137 59.116 125.951C59.1 122.843 59.1 119.735 59.0707 116.627C59.0707 116.033 59.2427 115.827 59.8707 115.827C62.1573 115.859 64.4453 115.827 66.732 115.827C67.8813 115.827 68.8893 115.515 69.744 114.679C70.9333 113.516 72.184 112.412 73.4053 111.287C73.4467 111.248 73.4573 111.179 73.5293 111.02H72.6413L26.5453 111.029C25.2933 111.029 24.6267 110.048 25.1267 108.939C25.3653 108.405 25.76 108.107 26.368 108.107C27.6333 108.107 28.9013 108.068 30.164 108.107C30.724 108.123 31.02 107.951 31.2853 107.44C34.1453 101.921 37.0453 96.424 39.9107 90.9067C40.66 89.464 41.6147 88.0893 41.7773 86.4107C41.9107 85.064 41.9773 83.712 42.044 82.36C42.1573 79.8773 42.228 77.3933 42.344 74.9107C42.4547 72.54 42.5093 70.1613 42.7747 67.8067C42.9 66.6987 43.4827 65.6453 43.8187 64.556C44.0013 64.0052 44.1199 63.4352 44.172 62.8573C44.2 62.4573 43.8827 62.2333 43.456 62.1213C42.0253 61.7493 40.5973 61.364 39.1893 60.9213C37.7227 60.4587 37.2627 58.8293 38.332 57.844C38.5106 57.6954 38.7173 57.5843 38.9397 57.5172C39.1621 57.4501 39.3957 57.4284 39.6267 57.4533C40.7747 57.6587 41.8933 58.0187 43.0267 58.3147C43.212 58.364 43.3987 58.4027 43.684 58.4693C43.1987 56.9853 42.7427 55.588 42.2853 54.1907C41.3964 51.4644 40.5053 48.7369 39.612 46.008C39.5201 45.7595 39.45 45.5034 39.4027 45.2427C39.148 43.4787 39.7147 42.576 41.4107 42.0333C46.9387 40.26 52.4667 38.4876 57.9947 36.716C59.8533 36.1227 61.6507 36.3307 63.2907 37.3533C65.7333 38.8667 68.1187 40.4733 70.5333 42.04C71.3693 42.5827 72.232 43.0853 73.0507 43.6547C74.9533 44.9773 75.7973 46.9547 76.2947 49.1133C77.5498 54.5587 78.7942 60.0053 80.028 65.4533C80.2615 66.5105 80.7734 67.4859 81.5107 68.2787C82.2533 69.1 82.7253 70.1627 83.336 71.1067C83.4773 71.3253 83.6653 71.6027 83.8867 71.6667C87.7427 72.7907 91.5973 73.92 95.4747 74.968C96.64 75.2827 97.8747 75.356 99.1853 75.556C99.3813 74.4307 99.6427 73.404 99.7187 72.364C99.9067 70 100.085 67.6307 100.119 65.2627C100.173 62.8009 99.8387 60.346 99.1293 57.988C99.0773 57.8187 99.0333 57.648 98.996 57.4747C98.7813 56.5413 99.0507 55.836 99.7333 55.5467C100.533 55.2053 101.316 55.4747 101.813 56.32C104 60.0333 105.913 63.8667 106.497 68.1987C106.863 70.9013 107.124 73.6173 106.843 76.3507C106.756 77.192 106.783 77.9093 107.601 78.5067C108.092 78.8653 108.485 79.5373 108.643 80.14C109.043 81.6547 108.029 82.8933 106.365 83.0307C105.768 83.0787 105.48 83.3253 105.265 83.8707C103.572 88.1827 101.184 92.0707 98 95.4453C96.5947 96.936 95.0587 98.2773 93.1467 99.0987C92.7368 99.262 92.3157 99.3957 91.8867 99.4987C91.0573 99.724 90.3893 99.3973 89.8867 98.776C89.3613 98.1253 89.4613 97.3987 89.8867 96.7307C90.6293 95.576 91.4493 94.464 92.144 93.288C94.464 89.34 96.024 85.072 97.296 80.6933C97.3507 80.5067 97.1627 80.1907 97.0093 80.0107C95.6573 78.4653 93.6653 78.3493 91.8853 77.776C89.1347 76.8907 86.3613 76.0773 83.6067 75.2053C83.0867 75.0413 82.816 75.052 82.54 75.6267C81.9693 76.8267 80.8307 77.18 79.5027 76.6933C77.8267 76.0827 76.5333 75.0187 75.7933 73.3787C75.5267 72.8027 75.1693 72.5107 74.5693 72.32C70.8133 71.1267 67.0667 69.8893 63.2707 68.6547ZM70.0547 107.957C68.712 106.775 68.44 105.981 68.6733 104.424C69.0973 101.604 69.496 98.7813 69.8973 95.9573C70.2973 93.1787 70.6453 90.3933 71.0813 87.6213C71.2907 86.288 71.2373 85.12 70.2933 84.0213C67.66 80.9627 65.0827 77.856 62.4947 74.7587C61.756 73.876 60.936 73.0253 60.368 72.0427C59.5573 70.6373 59.8907 69.1307 60.4333 67.6653C60.3353 67.6035 60.2323 67.55 60.1253 67.5053C58.2587 66.908 56.392 66.2587 54.5027 65.7493C53.7827 65.556 52.9733 65.6427 52.2107 65.6867C51.5307 65.7267 50.86 65.9267 50.18 65.98C48.9187 66.076 47.7493 65.732 46.5973 65.0027C46.2787 65.9853 45.9107 66.8693 45.716 67.788C45.5376 68.7237 45.4324 69.6719 45.4013 70.624C45.16 75.2533 44.948 79.884 44.7147 84.5133C44.616 86.4573 44.5147 88.3693 43.552 90.1747C41.0187 94.916 38.5947 99.7107 36.1253 104.483C35.5173 105.656 34.9 106.824 34.3053 107.961H40.96C39.424 106.507 39.32 105.783 40.3107 104.172C43.1853 99.496 46.0733 94.828 48.908 90.128C49.34 89.412 49.6013 88.56 49.7867 87.7373C49.98 86.88 49.9933 85.9827 50.068 85.1013C50.3347 81.9013 50.5867 78.7013 50.868 75.5013C50.928 74.8133 51.0867 74.1347 51.6853 73.6827C52.5613 73.016 53.468 73.1493 54.3853 74.1227C57.8707 77.8231 61.3462 81.5316 64.812 85.248C65.6613 86.1613 66.4733 87.1293 66.3947 88.496C66.336 89.5133 66.232 90.528 66.1347 91.5427C65.8867 94.1204 65.6342 96.6982 65.3773 99.276C65.2133 100.951 65.0453 102.625 64.888 104.3C64.7733 105.5 64.6747 106.712 64.5653 107.955L70.0547 107.957ZM62.1333 64.5133C62.4107 64.024 62.6987 63.5293 62.9733 63.028C64.7413 59.8107 66.496 56.5867 68.2827 53.3813C68.512 52.972 68.8427 52.544 69.236 52.3147C70.2067 51.7573 71.184 52.3453 71.4907 53.664C72.5307 58.1373 73.5827 62.6093 74.5453 67.0987C74.9093 68.796 76.6147 69.9467 77.8013 70.1227C78.0254 70.1584 78.2547 70.1064 78.4413 69.9773C78.5253 69.9027 78.4413 69.5773 78.3613 69.3907C78.0853 68.6947 77.672 68.036 77.5067 67.3173C76.1933 61.6 74.9333 55.8667 73.624 50.1333C73.292 48.6667 72.7867 47.2627 71.5707 46.2773C70.9547 45.7787 70.2587 45.3773 69.5893 44.944C67.1164 43.344 64.64 41.7507 62.16 40.164C61.012 39.432 59.792 39.2893 58.476 39.7173C53.5013 41.336 48.5187 42.928 43.5427 44.528C42.3587 44.908 42.2947 44.996 42.6773 46.1707C44.2827 51.1031 45.8956 56.0324 47.516 60.9587C47.9093 62.152 48.808 62.7827 50.056 62.7933C51.4747 62.8053 51.656 62.544 51.1907 61.1773C49.8573 57.2453 48.5507 53.3107 47.2147 49.38C46.6347 47.6787 47.5213 46.8293 48.7707 46.428C50.788 45.7787 52.792 45.0947 54.808 44.44C55.5453 44.2013 56.3387 43.7307 57.0267 44.504C57.7707 45.3373 57.2347 46.1307 56.8267 46.8853C55.404 49.5093 53.9533 52.1187 52.5427 54.752C52.3907 55.0347 52.3013 55.4573 52.3947 55.7467C53.0373 57.7467 53.728 59.724 54.4307 61.6987C54.4837 61.8358 54.5636 61.9609 54.6658 62.0667C54.7679 62.1725 54.8901 62.2568 55.0253 62.3147C57.372 63.0667 59.7333 63.78 62.1333 64.5133ZM43.3707 104.78C43.904 105.251 44.4787 105.591 44.8 106.092C45.1427 106.625 45.244 107.315 45.4533 107.944H61.7107C61.956 105.535 62.212 103.183 62.4307 100.828C62.7547 97.3467 63.052 93.8613 63.364 90.3773C63.4587 89.32 63.4333 88.308 62.652 87.444C59.7578 84.2591 56.8738 81.0667 54 77.8667C53.8907 77.7565 53.7759 77.6519 53.656 77.5533C53.6027 77.6507 53.5507 77.7027 53.5467 77.7573C53.312 80.5831 53.0791 83.4076 52.848 86.2307C52.7147 87.8827 52.5813 89.5213 51.6747 91.004C49.6653 94.284 47.712 97.6 45.7333 100.899C44.9253 102.243 44.1067 103.577 43.376 104.78H43.3707ZM64.8547 65.6827L71.8013 67.836C71.0013 64.284 70.2427 60.8627 69.448 57.3027L64.8547 65.6827ZM100.237 81.2093C98.6893 85.9373 97.1773 90.6333 94.3387 94.9653C97.628 92.284 101.589 86.2173 102.944 81.876L100.237 81.2093ZM103.249 66.488C102.92 69.724 102.6 72.8733 102.275 76.088L104 76.4C104.088 73.0387 103.973 69.7813 103.249 66.488ZM51.028 51.5373L52.98 48.0707L50.1187 49.036L51.028 51.5373Z" fill="#3A3A3A"/>
<path d="M99.5079 126.379L101.541 110.8L98.1333 110.193C98.2559 109.177 98.3533 108.193 98.5186 107.223C98.5413 107.089 98.9066 106.899 99.0986 106.916C100.617 107.049 102.133 107.217 103.651 107.377C103.825 107.396 104 107.424 104.281 107.461C104.415 106.536 104.559 105.631 104.681 104.723C104.748 104.22 104.744 103.703 104.852 103.209C104.892 103.031 105.175 102.768 105.333 102.776C106.255 102.827 107.172 102.945 108.16 103.043C107.957 104.7 107.76 106.271 107.565 107.893L109.984 108.228C110.129 107.096 110.272 105.985 110.416 104.875C110.463 104.659 110.496 104.44 110.513 104.22C110.505 103.687 110.816 103.66 111.217 103.713C111.897 103.804 112.584 103.855 113.256 103.987C113.432 104.021 113.704 104.308 113.688 104.453C113.532 105.904 113.325 107.349 113.155 108.663C114.324 109.221 115.555 109.644 116.595 110.34C119.029 111.961 119.703 115.133 118.107 117.387C117.587 118.12 116.755 118.633 116.052 119.229C115.886 119.344 115.707 119.439 115.519 119.512C116.241 120.147 117.019 120.696 117.629 121.391C119.311 123.305 119.516 125.553 118.696 127.859C117.885 130.117 116.163 131.425 113.779 131.661C112.363 131.795 110.921 131.687 109.417 131.687C109.275 132.739 109.117 133.893 108.959 135.047C108.931 135.243 108.905 135.439 108.865 135.632C108.677 136.548 108.625 136.577 107.717 136.432C107.196 136.335 106.67 136.267 106.141 136.228C105.667 136.208 105.595 135.989 105.652 135.585C105.852 134.184 106.033 132.785 106.233 131.297L103.933 130.933C103.781 132.017 103.62 133.036 103.5 134.06C103.324 135.559 103.305 135.58 101.804 135.32C101.416 135.235 101.02 135.186 100.623 135.173C99.9626 135.183 99.9906 134.796 100.056 134.336C100.235 133.091 100.403 131.843 100.589 130.461L95.1799 129.733C95.2479 128.945 95.3133 128.101 95.3959 127.257C95.4039 127.169 95.4466 127.087 95.4599 126.999C95.6519 125.815 95.6493 125.831 96.8759 126.035C97.7039 126.169 98.5399 126.253 99.5079 126.379ZM105.648 120.608C105.333 122.757 105.035 124.799 104.727 126.897C105.541 127.017 106.299 127.192 107.064 127.228C108.383 127.289 109.731 127.407 111.024 127.241C112.491 127.056 113.344 125.785 113.332 124.267C113.321 122.845 112.5 121.781 111.044 121.497C109.293 121.155 107.521 120.912 105.648 120.608ZM106.189 116.849C107.789 117.001 109.335 117.217 110.891 117.276C112.311 117.331 113.256 116.352 113.34 114.947C113.424 113.541 112.673 112.604 111.241 112.368C109.959 112.156 108.665 112.008 107.388 111.775C106.957 111.695 106.855 111.787 106.804 112.196C106.624 113.701 106.409 115.2 106.189 116.849Z" fill="#F7931B"/>
<path d="M124.317 94.8533H128.701C128.807 97.2107 128.908 99.48 129.013 101.835C130.443 101.835 131.813 101.835 133.179 101.835C135.053 101.835 135.059 101.835 135.036 103.701C135.008 106.055 134.957 108.408 134.944 110.768C134.944 111.292 134.761 111.485 134.239 111.449C133.685 111.405 133.129 111.405 132.576 111.449C131.997 111.503 131.787 111.299 131.776 110.721C131.741 109.08 131.665 107.439 131.604 105.797C131.604 105.664 131.587 105.531 131.571 105.308H130.787H126.787C125.869 105.308 125.883 105.308 125.853 104.363C125.807 102.588 125.757 100.813 125.685 99.0387C125.644 98.0453 125.623 98.06 124.656 98.072C123.436 98.0853 122.217 98.072 120.923 98.072C120.885 97.7307 120.833 97.412 120.819 97.0907C120.733 95.3173 120.647 93.5453 120.584 91.772C120.567 91.2653 120.415 91.024 119.856 91.0053C118.336 90.952 116.817 90.8413 115.207 90.748C115.112 92.4293 114.989 94.016 114.952 95.604C114.937 96.216 114.769 96.404 114.152 96.3893C111.268 96.316 108.384 96.2773 105.499 96.256C105.012 96.256 104.823 96.1227 104.853 95.6133C104.9 94.8387 104.893 94.06 104.888 93.2827C104.888 92.8027 105.079 92.616 105.572 92.6427C107.255 92.7333 108.939 92.7973 110.623 92.8653C110.953 92.88 111.289 92.8653 111.675 92.8653C111.739 91.932 111.808 90.9867 111.864 90.0427C111.915 89.268 111.968 88.4933 111.997 87.7173C112.012 87.3333 112.147 87.1493 112.557 87.1747C115.453 87.3507 118.349 87.5147 121.245 87.692C121.753 87.7227 122.259 87.7933 122.763 87.8533C123.739 87.9707 123.907 88.12 123.98 89.08C124.053 90.04 124.079 90.9853 124.133 91.9373C124.188 92.8627 124.251 93.788 124.317 94.8533Z" fill="#F7931B"/>
<path d="M74.6467 41.5C69.1053 41.704 64 36.392 64 30.628C64 24.7613 68.5533 19.6787 74.712 19.6427C80.4453 19.6093 85.352 24.576 85.316 30.4053C85.2787 36.82 80.0627 41.6 74.6467 41.5ZM82.34 30.5667C82.44 26.5867 79.0333 22.6547 74.488 22.76C70.5787 22.8507 66.6213 26.2373 66.9653 31.1507C67.1162 33.1582 68.044 35.0278 69.5516 36.3621C71.0592 37.6964 73.0276 38.3902 75.0387 38.296C79.0373 38.1333 82.4213 34.616 82.34 30.5627V30.5667Z" fill="#3A3A3A"/>
<path d="M76.9693 133.409C76.9693 131.265 76.9599 129.229 76.9879 127.193C76.9879 127.052 77.2666 126.793 77.4186 126.793C79.2133 126.761 81.0079 126.771 82.8026 126.76C83.2119 126.76 83.3533 126.979 83.3559 127.339C83.3679 129.179 83.3879 131.019 83.3693 132.857C83.3693 133.043 83.1199 133.381 82.9813 133.384C81.0146 133.42 79.0466 133.409 76.9693 133.409Z" fill="#F7931B"/>
<path d="M91.4813 137.028C91.4813 137.915 91.4613 138.801 91.4893 139.687C91.504 140.183 91.3026 140.353 90.8226 140.353C89.116 140.341 87.4102 140.341 85.7053 140.353C85.2813 140.353 85.0946 140.201 85.096 139.777C85.1013 137.916 85.1013 136.055 85.096 134.193C85.096 133.832 85.2506 133.681 85.6186 133.683C87.3911 133.691 89.1635 133.691 90.936 133.683C91.344 133.683 91.4813 133.843 91.4693 134.236C91.4533 135.169 91.4693 136.103 91.4693 137.028H91.4813Z" fill="#F7931B"/>
<path d="M126.133 119.681C126.133 118.013 126.124 116.423 126.153 114.832C126.153 114.713 126.435 114.5 126.588 114.497C128.007 114.476 129.425 114.476 130.844 114.516C131.008 114.516 131.299 114.804 131.303 114.964C131.337 116.383 131.335 117.803 131.303 119.221C131.303 119.377 131.044 119.659 130.903 119.661C129.353 119.693 127.803 119.681 126.133 119.681Z" fill="#F7931B"/>
<path d="M83.6333 121.68C83.6333 121.036 83.6026 120.391 83.6533 119.751C83.668 119.577 83.9266 119.287 84.0813 119.281C85.3013 119.243 86.5226 119.244 87.7426 119.281C87.8853 119.281 88.1426 119.548 88.1426 119.699C88.1719 120.987 88.1746 122.275 88.1266 123.565C88.1199 123.748 87.8013 124.065 87.6159 124.073C86.4413 124.119 85.2639 124.113 84.0879 124.073C83.9306 124.073 83.6653 123.787 83.6519 123.617C83.5986 122.977 83.6306 122.331 83.6306 121.687L83.6333 121.68Z" fill="#F7931B"/>
<path d="M123.6 138.885C123 138.885 122.4 138.868 121.803 138.885C121.413 138.9 121.221 138.769 121.233 138.363C121.268 137.163 121.277 135.963 121.341 134.772C121.349 134.629 121.632 134.388 121.793 134.383C123.035 134.345 124.279 134.337 125.527 134.369C125.692 134.369 125.984 134.655 125.989 134.815C126.031 136.015 126.033 137.215 125.997 138.408C125.997 138.568 125.707 138.839 125.535 138.853C124.896 138.907 124.249 138.875 123.607 138.875L123.6 138.885Z" fill="#F7931B"/>
<path d="M99.6786 103.833C99.2346 103.833 98.7906 103.82 98.3453 103.833C97.9 103.847 97.6786 103.7 97.7293 103.217C97.8 102.489 97.804 101.751 97.904 101.033C97.9293 100.848 98.2066 100.556 98.3706 100.553C99.368 100.54 100.371 100.585 101.361 100.647C101.441 100.674 101.513 100.722 101.569 100.785C101.626 100.849 101.665 100.925 101.683 101.008C101.683 101.761 101.603 102.513 101.599 103.267C101.599 103.749 101.375 103.875 100.941 103.849C100.508 103.824 100.099 103.849 99.6773 103.849L99.6786 103.833Z" fill="#F7931B"/>
</svg>
