<svg width="160" height="160" viewBox="0 0 160 160" fill="none" xmlns="http://www.w3.org/2000/svg">
<path d="M55.18 72.0387C60.1134 76.952 61.2467 83.144 62.1134 89.5053C62.9334 95.5053 64.044 101.456 64.9613 107.44C65.1844 108.961 65.2798 110.498 65.2467 112.035C65.22 113.731 64.18 114.887 62.788 115.725C60.5054 117.096 58.536 116.723 57.2507 114.392C56.2467 112.573 55.6013 110.555 54.6147 108.187C54.564 109.12 54.5307 109.681 54.5014 110.245C54.3027 114.139 54.1467 118.036 53.8614 121.924C53.82 122.484 53.1867 123.425 52.78 123.452C51.6547 123.523 51.7347 122.528 51.7747 121.705C52.3414 109.792 52.8974 97.8787 53.508 85.972C53.5334 85.472 54.0414 84.9973 54.3267 84.5053C54.7267 85.028 55.4813 85.552 55.4787 86.0733C55.46 90.0867 55.2027 94.0987 55.196 98.112C55.1867 103.288 56.8694 108.103 58.796 112.817C59.0494 113.437 60.2787 114.267 60.6773 114.099C61.6174 113.699 62.88 112.853 63.0174 112.024C63.284 110.392 62.984 108.633 62.732 106.957C61.7507 100.407 60.6947 93.868 59.6654 87.324C58.9613 82.8227 57.8307 78.4893 54.8733 74.8493C53.7413 73.456 52.5094 72.5307 50.5054 72.7453C49.0221 72.8844 47.5259 72.7612 46.0854 72.3813C39.952 70.8 35.2974 73.2387 31.6107 77.7987C27.744 82.5893 25.5854 88.3213 24.232 94.232C22.876 100.163 22.08 106.233 21.1454 112.267C20.9854 113.299 21.2534 114.445 21.524 115.487C21.9974 117.312 23.3907 117.852 24.672 116.477C25.6374 115.441 26.3854 113.872 26.5387 112.464C27.5747 102.979 29.6494 93.776 33.524 85.0293C33.7907 84.4373 34.5467 84.068 35.076 83.596C35.24 84.2533 35.6294 84.9467 35.5334 85.564C34.588 91.6 33.4827 97.6 32.5814 103.644C31.7534 109.187 31.124 114.757 30.4014 120.311C30.2987 121.103 30.2867 121.937 30.0014 122.667C29.8227 123.132 29.2307 123.44 28.824 123.819C28.544 123.34 27.992 122.837 28.032 122.387C28.2134 120.28 28.552 118.188 28.848 116.092C29.5876 110.834 30.3294 105.577 31.0734 100.32C31.1048 100.13 31.0927 99.9351 31.038 99.7503C30.9833 99.5656 30.8873 99.3956 30.7574 99.2533C30.292 102.036 29.8094 104.817 29.3667 107.604C28.9894 109.971 28.7627 112.365 28.2814 114.708C27.724 117.448 25.7334 119.2 23.4254 119.285C21.572 119.352 20.1507 118.637 19.7894 116.84C19.3094 114.456 18.8867 111.943 19.1227 109.553C20.0734 100.019 22.1267 90.736 26.3747 82.048C29.116 76.448 32.8667 71.9453 39.1574 70.1693C39.376 70.108 39.604 70.08 39.824 70.0267C39.968 69.992 40.108 69.94 40.284 69.884C30.5147 62.436 30.9107 52.3053 34.2694 46.1627C38.1547 39.0587 45.4694 35.0653 53.6707 36.448C61.5187 37.7707 67.12 44 67.9187 51.7573C68.8787 61.0787 64.3627 68.3613 55.18 72.0387ZM65.8734 53.9387C65.8734 45.1507 59.2067 38.352 50.5947 38.3467C41.7787 38.3467 34.372 45.7133 34.3667 54.4987C34.3667 63.3587 41.5774 70.7653 50.28 70.7013C57.304 70.6453 66.1067 64.416 65.8734 53.9387Z" fill="#3A3A3A"/>
<path d="M137.156 90.484C140.155 91.2467 140.94 92.2707 140.943 95.3347C140.943 98.4333 140.943 101.532 140.943 104.632C140.943 107.871 140.376 108.607 137.163 109.472C137.163 112.072 137.176 114.707 137.163 117.339C137.14 120.889 134.432 123.727 130.885 123.739C112.865 123.77 94.8448 123.77 76.8253 123.739C73.1866 123.739 69.7013 120.219 69.6826 116.479C69.6266 105.634 69.6266 94.7875 69.6826 83.9387C69.7013 79.9387 73.496 76.2533 77.6546 76.2053C83.788 76.1227 89.9346 76.1747 96.076 76.1747C107.324 76.1747 118.575 76.3227 129.819 76.112C134.9 76.016 137.599 78.8453 137.2 83.4747C136.991 85.8 137.156 88.1627 137.156 90.484ZM135.088 90.732C135.088 87.8853 135.088 85.4213 135.088 82.9573C135.088 79.5973 133.785 78.2907 130.405 78.2907C113.135 78.2827 95.8653 78.2827 78.596 78.2907C74.2333 78.2907 71.7213 80.824 71.7173 85.248C71.7075 95.2924 71.7106 105.333 71.7266 115.369C71.7266 119.319 74.104 121.692 78.004 121.692C87.5853 121.692 97.1666 121.692 106.748 121.692C114.551 121.692 122.354 121.692 130.157 121.692C132.844 121.692 134.919 120.159 135.041 117.844C135.189 115.057 135.077 112.257 135.077 109.147H123.947C121.113 109.147 118.661 108.257 116.797 106.036C114.533 103.319 113.623 100.267 115.012 96.9333C116.443 93.496 118.872 91.1573 122.868 90.9933C124.468 90.9267 126.068 90.772 127.68 90.7427C130.075 90.7 132.471 90.732 135.088 90.732ZM129.733 106.881V107.207C132.024 107.207 134.315 107.188 136.604 107.207C138 107.221 138.803 106.605 138.807 105.185C138.819 101.747 138.806 98.3089 138.767 94.8707C138.752 93.4187 138.067 92.684 136.516 92.7373C132.049 92.8973 127.583 92.9293 123.116 93.1373C119.279 93.3147 116.669 96.204 116.728 100.012C116.788 103.951 119.613 106.812 123.545 106.871C125.612 106.907 127.675 106.881 129.733 106.881Z" fill="#3A3A3A"/>
<path d="M86.8707 50.984C86.8707 49.5507 86.8707 48.2387 86.8707 46.9253C86.8827 42.2493 89.76 39.5133 94.4707 39.3013C98.7054 39.1107 101.847 41.796 102.325 45.1867C102.585 47.0347 102.372 48.9493 102.372 50.9333C102.875 51.0027 103.191 51.0587 103.509 51.0853C105.665 51.2747 107.075 52.5413 107.084 54.7147C107.104 59.0627 107.012 63.4147 106.835 67.76C106.753 69.7747 105.776 70.724 103.811 71.1187C103.082 71.2585 102.342 71.3277 101.6 71.3253C96.8427 71.3413 92.0871 71.3413 87.3334 71.3253C83.8667 71.3093 82.3907 69.9707 82.2667 66.5027C82.1334 62.7253 82.1254 58.94 82.152 55.16C82.16 52.7387 83.7827 51.324 86.8707 50.984ZM94.912 53.3013V53.3333C92.1614 53.3333 89.4107 53.3173 86.66 53.3333C85.168 53.3467 84.3827 53.9507 84.432 55.6387C84.5334 59.1893 84.4587 62.7453 84.468 66.2987C84.468 68.3547 85.0787 68.98 87.0987 68.9853C92.1414 68.996 97.1849 68.996 102.229 68.9853C104.273 68.9853 104.825 68.4707 104.833 66.492C104.848 62.7667 104.767 59.04 104.833 55.316C104.861 53.808 104.265 53.256 102.819 53.28C100.185 53.3333 97.548 53.3013 94.912 53.3013ZM100.313 51.028C100.313 49.48 100.335 48.0573 100.313 46.6373C100.264 44.008 98.3707 41.788 95.9267 41.4587C92.5667 41.004 89.8574 42.4907 89.2734 45.4027C88.912 47.208 89.0254 49.1067 88.9227 51.028H100.313Z" fill="#3A3A3A"/>
<path d="M116.143 50.8453C116.143 49.276 116.124 47.792 116.143 46.312C116.205 42.056 119.317 39.1907 123.896 39.1547C128.308 39.12 131.576 42.1493 131.648 46.3613C131.673 47.8453 131.648 49.328 131.648 50.7787C135.976 51.876 136.457 52.5187 136.456 57.0787C136.456 60.2333 136.473 63.388 136.449 66.5453C136.425 69.5387 134.871 71.0627 131.863 71.0667C126.472 71.0756 121.082 71.0756 115.691 71.0667C112.757 71.0667 111.353 69.6787 111.312 66.7827C111.263 63.4 111.224 60.016 111.156 56.6333C111.08 52.392 111.804 51.5 116.143 50.8453ZM123.897 53.156V53.1667C121.088 53.1667 118.28 53.1853 115.471 53.16C114.043 53.1467 113.368 53.768 113.38 55.2267C113.411 59.0107 113.414 62.7942 113.389 66.5773C113.38 68.1707 114.133 68.8747 115.696 68.868C121.141 68.8453 126.587 68.8213 132.033 68.844C133.664 68.844 134.3 68.0707 134.273 66.524C134.223 62.856 134.224 59.1907 134.161 55.5187C134.128 53.58 133.667 53.1733 131.636 53.16C129.057 53.144 126.477 53.156 123.897 53.156ZM129.561 50.9333C129.561 49.288 129.639 47.7973 129.544 46.3187C129.387 43.8467 127.356 41.72 125.011 41.4307C121.724 41.0307 119.3 42.1987 118.611 44.952C118.137 46.836 118.247 48.8667 118.088 50.9333H129.561Z" fill="#3A3A3A"/>
<path d="M43.9227 114.876C43.6747 117.208 43.4894 119.543 43.1334 121.863C43.052 122.396 42.3894 122.836 41.9947 123.319C41.692 122.727 41.1054 122.119 41.136 121.545C41.2694 118.979 41.52 116.412 41.8814 113.867C41.972 113.224 42.6334 112.667 43.032 112.063C43.308 112.712 43.6134 113.351 43.8467 114.013C43.936 114.268 43.8614 114.581 43.8614 114.868L43.9227 114.876Z" fill="#3A3A3A"/>
<path d="M53.456 65.8227C51.2866 65.632 49.4 65.036 47.9413 63.544C47.5293 63.1227 47.5853 62.2453 47.4266 61.5773C48.0626 61.696 48.8306 61.6267 49.3133 61.964C51.484 63.4867 53.692 64.0107 56.2 62.824C56.6453 62.6133 57.292 62.8307 57.8453 62.8493C57.6146 63.4787 57.556 64.4493 57.1213 64.6693C55.988 65.232 54.6893 65.4667 53.456 65.8227Z" fill="#3A3A3A"/>
<path d="M61.1386 53.308C61.1026 53.7733 61.1146 54.124 61.0386 54.4547C60.9626 54.7853 60.8853 55.2373 60.656 55.3667C60.076 55.6907 59.2573 56.224 58.808 56.0333C57.1986 55.344 57.4413 53.752 57.7026 52.4587C57.836 51.8027 58.684 50.9187 59.2946 50.8467C59.8133 50.784 60.516 51.6827 61.0106 52.264C61.2226 52.512 61.1133 53.0333 61.1386 53.308Z" fill="#3A3A3A"/>
<path d="M51.7413 52.6C51.348 54.1827 51.0133 55.3787 49.6 55.428C48.3387 55.472 48.0773 54.256 48.1333 53.3027C48.1893 52.236 48.1333 50.6787 49.748 50.824C50.456 50.888 51.0773 51.9773 51.7413 52.6Z" fill="#3A3A3A"/>
<path d="M99.588 86.3347C99.2786 87.9 98.9946 89.3413 98.7133 90.772C103.825 93.2213 104.968 97.3493 101.233 100.271C103.215 102.111 103.756 104.345 102.433 106.721C100.841 109.591 98.056 110.119 94.9666 109.964C94.652 111.112 94.344 112.231 94.004 113.473L91.604 113.128C91.8066 111.849 91.9893 110.687 92.1733 109.52C90.3746 108.615 90.3306 108.637 89.88 110.54C89.712 111.247 89.5146 111.945 89.3013 112.757L86.8586 112.267C87.108 110.968 87.3413 109.749 87.596 108.417L83.3933 107.52C83.7013 106.445 83.9653 105.527 84.2626 104.493L87.0386 104.893C87.8133 100.743 88.5653 96.7187 89.3533 92.5027L86.18 91.8733C86.3213 90.9853 86.468 90.0667 86.6333 89.0267L91.4666 89.7333C91.7533 88.1747 92.0186 86.74 92.3146 85.132L94.7533 85.64C94.468 87.0947 94.2 88.4667 93.9066 89.964L96.0733 90.4733L97.0666 85.8547L99.588 86.3347ZM90.984 105.548C93.44 106.367 95.412 106.448 96.768 105.825C98.5666 105 98.86 103.583 97.4986 102.147C96.076 100.645 94.2 100.291 92.1506 100.044C91.7506 101.935 91.3653 103.751 90.984 105.548ZM93.5093 92.836C93.2106 94.4427 92.896 95.716 92.78 97.0053C92.7466 97.38 93.272 98.1387 93.5586 98.148C94.792 98.184 96.08 98.1733 97.2506 97.84C97.8573 97.6667 98.6653 96.78 98.6586 96.224C98.6506 95.5187 98.068 94.5347 97.444 94.184C96.3346 93.56 95.0093 93.3213 93.5093 92.836Z" fill="#F7931B"/>
<path d="M126.824 100.108C126.824 102.183 125.624 103.415 123.568 103.441C121.544 103.46 120.313 102.216 120.287 100.123C120.259 97.964 121.371 96.836 123.527 96.8373C125.6 96.8333 126.819 98.0493 126.824 100.108ZM125.375 100.041C124.461 99.508 123.96 98.9747 123.493 99.008C123.093 99.032 122.357 99.8253 122.435 100.044C122.616 100.557 123.137 101.153 123.635 101.281C123.964 101.367 124.488 100.705 125.375 100.041Z" fill="#3A3A3A"/>
<path d="M97.9107 59.984C97.696 60.436 97.568 61.3093 97.088 61.6027C95.7773 62.4027 96 63.5747 95.9707 64.7413C95.9493 65.5907 96.0693 66.6013 94.7707 66.5787C93.5373 66.556 93.7147 65.5653 93.7333 64.8067C93.764 63.536 93.708 62.4787 92.4787 61.5653C91.3613 60.7347 91.412 59.3187 92.184 58.1427C92.984 56.9293 94.12 56.4893 95.6027 56.8733C97.1413 57.2747 97.6 58.4187 97.9107 59.984Z" fill="#3A3A3A"/>
<path d="M126.861 60.0973C126.796 60.264 126.741 61.0787 126.328 61.356C124.948 62.2827 125.12 63.5973 124.995 64.948C124.94 65.5253 124.195 66.0373 123.772 66.5787C123.413 66.0453 122.792 65.52 122.751 64.9587C122.651 63.6027 122.731 62.3827 121.441 61.348C120.357 60.4773 120.521 59.0813 121.281 57.9213C122.101 56.6747 123.383 56.2933 124.731 56.6987C126.079 57.104 126.907 58.112 126.861 60.0973Z" fill="#3A3A3A"/>
</svg>
