<svg width="160" height="160" viewBox="0 0 160 160" fill="none" xmlns="http://www.w3.org/2000/svg">
<path d="M74.468 110.049C74.8587 111.927 76.3867 112.353 77.7693 112.992C78.3547 113.259 78.836 113.76 79.3694 114.155C78.8853 114.568 78.4573 115.088 77.9027 115.377C76.1693 116.296 76.5307 117.927 77.0373 119.081C77.5894 120.339 78.744 121.423 79.844 122.328C81.516 123.707 83.5107 124.708 85.116 126.151C88.8613 129.517 92.812 130.151 97.064 127.447C99.212 126.079 101.064 124.239 102.993 122.543C103.355 122.224 103.393 121.56 103.644 121.089C103.911 120.577 104.267 120.107 104.577 119.623C105.111 120.095 105.703 120.515 106.135 121.064C106.325 121.308 106.2 121.813 106.189 122.2C106.079 126.453 106.012 130.711 105.789 134.959C105.759 135.563 104.989 136.129 104.557 136.713C104.205 136.12 103.571 135.536 103.551 134.931C103.448 131.811 103.503 128.684 103.503 125.5C98.4813 130.109 93.152 133.919 85.8547 129.672C85.676 130.099 85.4973 130.488 85.3453 130.889C83.7453 135.128 80.7307 137.479 76.16 137.512C67.004 137.577 57.8467 137.551 48.6934 137.556C42.76 137.556 36.8267 137.571 30.8947 137.544C24.1667 137.513 20.8054 133.312 21.7147 126.611C22.708 119.277 23.3627 111.911 24.1934 104.561C25.0094 97.3409 25.8462 90.1236 26.704 82.9093C26.9707 80.6133 27.172 78.2947 27.6507 76.0387C28.6 71.5733 32.136 68.2773 36.6533 68.0933C43.0907 67.8267 49.5427 67.9307 55.9867 67.9187C64.7573 67.9027 73.528 67.9187 82.2987 67.9333C89.0413 67.94 92.3267 71.6747 91.5933 78.344C90.4933 88.44 89.4667 98.548 88.3893 108.653C88.268 109.804 88.3413 111.035 87.9467 112.087C86.7467 115.277 88.5653 117.115 90.664 118.961C91.5507 119.741 92.3347 119.827 93.244 119.165C93.8667 118.712 94.5173 118.276 95.0653 117.739C99.052 113.833 103.016 109.905 106.967 106.005C93.7107 98.272 94.3693 82.792 101.233 74.5027C109.367 64.684 122.273 65.3293 130.088 72.8173C138.095 80.4893 138.888 97.0467 125.563 105.468C134.933 110.791 137.907 119.601 138.727 129.564C138.88 131.431 139.1 133.297 139.036 135.156C139.012 135.857 138.269 136.535 137.855 137.223C137.483 136.575 136.829 135.947 136.788 135.276C136.399 129.693 136.164 124.076 134.041 118.807C132.2 114.231 129.487 110.309 124.975 107.909C123.508 107.127 122.079 107.097 120.383 107.333C117.501 107.733 114.516 107.733 111.616 107.467C110.399 107.356 109.473 107.405 108.649 108.149C106.211 110.348 103.825 112.607 101.425 114.847C99.26 116.868 97.2 119.017 94.9147 120.891C92.492 122.879 91.3587 122.675 89.068 120.519C85.832 117.476 82.6173 114.4 79.2907 111.467C78.0093 110.329 76.4507 109.487 74.468 110.049ZM85.3787 113.624C85.4787 112.993 85.5787 112.5 85.632 112.003C86.2907 105.869 86.9653 99.736 87.5907 93.588C88.1613 88.0267 88.8067 82.4693 89.1973 76.8947C89.496 72.628 87.26 70.372 83.028 70.3613C68.0102 70.3347 52.9933 70.3347 37.9773 70.3613C33.4747 70.3693 30.0814 73.5613 29.6107 78.0547C29.0774 83.104 28.5827 88.1573 28.004 93.2C26.6547 104.951 25.2547 116.693 23.8987 128.443C23.4987 131.924 25.988 135.04 29.3373 135.049C45.1276 135.098 60.9178 135.103 76.708 135.063C79.0787 135.063 80.8894 133.901 82.1867 131.973C84.224 128.949 83.8987 127.529 80.8093 125.615C80.428 125.379 80.0347 125.157 79.632 124.96C74.832 122.62 73.436 119.535 74.8907 114.608C74.1987 113.867 73.2907 113.275 72.9573 112.445C72.5093 111.34 72.068 109.887 72.4493 108.905C72.728 108.191 74.436 107.504 75.3453 107.673C77.296 108.036 79.2893 108.715 80.9907 109.725C82.592 110.677 83.8427 112.221 85.3787 113.624ZM133.451 87.18C133.317 76.8133 125.851 69.512 115.537 69.6413C106.315 69.756 98.6934 78.504 98.8707 88.7747C99.0333 98.2053 106.839 105.743 116.337 105.64C125.387 105.541 133.579 96.7053 133.451 87.18Z" fill="#3A3A3A"/>
<path d="M86.0534 36.6507C86.0534 34.784 86.028 33.0507 86.0534 31.324C86.1454 25.9787 90.1667 22.4147 96.0454 22.4453C101.196 22.472 105.029 26.312 105.053 31.4773C105.061 33.1467 105.053 34.8107 105.053 36.624C105.553 36.6747 105.972 36.7413 106.387 36.7573C108.903 36.8547 110.763 38.1853 110.839 40.6547C111.011 46.2547 110.947 51.8547 110.781 57.4547C110.724 59.3787 108.717 61.0867 106.635 61.1107C99.2934 61.196 91.9494 61.2067 84.608 61.1107C82.1974 61.0787 80.3294 58.9773 80.2867 56.528C80.2054 51.9547 80.2014 47.3773 80.2054 42.8027C80.22 38.0627 81.2 37.0147 86.0534 36.6507ZM95.7187 39.0853C92.2427 39.0853 88.7667 39.076 85.2907 39.0853C83.8547 39.0853 82.6574 39.5813 82.64 41.2187C82.584 46.1747 82.5694 51.132 82.652 56.0867C82.68 57.7733 83.6387 58.8133 85.4774 58.812C92.108 58.812 98.7374 58.84 105.367 58.804C107.8 58.7907 108.536 57.964 108.541 55.4933C108.552 50.9884 108.552 46.4827 108.541 41.976C108.541 39.6067 108.008 39.0867 105.564 39.08C102.284 39.0787 99.0014 39.0867 95.7187 39.0853ZM102.731 36.6853C102.731 34.8187 102.768 33.156 102.723 31.4853C102.628 28.0107 99.8294 25.024 96.4787 24.7693C92.52 24.468 89.012 26.8733 88.5294 30.5027C88.2627 32.5027 88.4814 34.5733 88.4814 36.6827L102.731 36.6853Z" fill="#3A3A3A"/>
<path d="M46.1934 36.6347C50.6094 37.02 51.7094 38.2187 51.708 42.4947C51.708 47.008 51.7147 51.5227 51.6667 56.036C51.6294 59.5667 49.848 61.4653 46.3654 61.5027C39.5947 61.572 32.824 61.572 26.0534 61.5027C23.1 61.476 21.0987 59.4533 21.0454 56.4907C20.9565 51.5262 20.9316 46.5618 20.9707 41.5973C20.9947 38.1213 22.2467 37.0373 26.56 36.624C26.6347 34.9413 26.6934 33.2267 26.788 31.5147C27.0707 26.04 31.2574 22.384 37.1587 22.448C41.968 22.4987 46.04 26.656 46.1867 31.7027C46.232 33.3013 46.1934 34.9067 46.1934 36.6347ZM36.28 39.0827C32.868 39.0827 29.456 39.0653 26.044 39.0893C24.0707 39.1027 23.4214 39.772 23.4147 41.7627C23.3996 46.4613 23.3996 51.1609 23.4147 55.8613C23.4147 58.0213 24.412 59.1507 26.524 59.1653C33.0894 59.2133 39.6556 59.2133 46.2227 59.1653C48.396 59.152 49.34 58.1053 49.3454 55.9147C49.3569 51.28 49.3569 46.6449 49.3454 42.0093C49.3387 39.7133 48.6974 39.0933 46.328 39.084C42.976 39.0667 39.628 39.0827 36.28 39.0827ZM43.6134 36.7013C43.6134 34.7973 43.6587 33.0667 43.6027 31.3387C43.5067 28.344 41.7507 26.4627 39.18 25.3387C36.5267 24.176 34.072 24.704 31.8187 26.5507C28.4067 29.344 29.2547 33.0587 29.3054 36.7027L43.6134 36.7013Z" fill="#3A3A3A"/>
<path d="M130.064 135.521C129.497 136.197 129.024 136.759 128.552 137.321C128.117 136.776 127.387 136.276 127.293 135.677C126.551 130.921 125.901 126.148 125.316 121.369C125.261 120.92 125.849 120.391 126.136 119.903C126.605 120.311 127.403 120.655 127.495 121.135C128.407 125.848 129.2 130.588 130.064 135.521Z" fill="#3A3A3A"/>
<path d="M53.8974 112.7C54.1107 111.353 54.3254 109.993 54.564 108.521L52.1907 108.148C51.8507 109.461 51.504 110.792 51.1173 112.281L48.2 111.92C48.4813 110.435 48.7333 109.132 49 107.692L43.8813 106.711C44.2387 105.472 44.5654 104.34 44.9134 103.131L48.1747 103.388C49.1307 98.268 50.0653 93.2547 51.028 88.0933L47.048 87.5747C47.212 86.3267 47.3587 85.2067 47.528 83.908L52.9947 84.5933C53.2973 83.0187 53.5947 81.464 53.916 79.7933L56.94 80.2467C56.6827 81.8467 56.436 83.3867 56.1627 85.0893L58.7813 85.572C59.0933 83.812 59.3787 82.1973 59.692 80.4267L62.6 80.816C62.4133 82.6347 62.2387 84.3307 62.0587 86.084C64.8587 86.7147 66.992 88.02 67.5373 90.9147C67.984 93.2613 67.5947 95.412 65.344 96.9973C67.8987 99.1813 68.284 101.905 66.8947 104.789C65.4187 107.856 62.54 108.909 59.4053 109.017C57.8933 109.069 57.484 109.527 57.2573 110.901C56.8333 113.435 56.7387 113.419 53.8974 112.7ZM54.5413 97.2653C54.1147 99.3453 53.6693 101.265 53.3693 103.204C53.312 103.571 53.8413 104.389 54.0867 104.383C56.0213 104.34 58.068 104.496 59.856 103.909C62.0067 103.203 62.1493 101.36 60.6173 99.6507C59.032 97.884 56.8973 97.5907 54.5413 97.2653ZM54.924 94.9227C56.7213 94.9227 58.2853 95.1893 59.6947 94.8293C60.616 94.5973 61.9933 93.4267 61.9507 92.7547C61.884 91.7147 60.9827 90.4267 60.0573 89.8213C58.9547 89.104 57.4534 89 55.9134 88.572C55.584 90.6947 55.2907 92.5773 54.924 94.9227Z" fill="#F7931B"/>
<path d="M49.9147 123.436C55.3894 123.436 60.8636 123.436 66.3374 123.436C67.2134 123.436 68.3054 123.219 68.2747 124.623C68.244 126.027 67.128 125.747 66.2747 125.748C55.3263 125.758 44.3778 125.761 33.4294 125.757C32.5067 125.757 31.4534 125.852 31.472 124.54C31.4907 123.161 32.636 123.441 33.4934 123.439C38.9672 123.43 44.4409 123.429 49.9147 123.436Z" fill="#F7931B"/>
<path d="M111.951 99.9387C110.113 99.0227 108.248 98.156 106.464 97.1453C106.141 96.9627 106.156 96.1853 106.015 95.6787C106.584 95.5453 107.215 95.1773 107.705 95.316C108.545 95.552 109.257 96.332 110.091 96.4667C111.469 96.6907 112.901 96.5587 114.308 96.628C114.927 96.6587 115.539 96.816 116.153 96.916C115.835 97.5827 115.688 98.5533 115.16 98.8533C114.316 99.332 113.22 99.368 112.227 99.5907L111.951 99.9387Z" fill="#3A3A3A"/>
<path d="M103.892 85.128C103.917 84.0827 103.944 82.5293 105.759 82.4693C107.395 82.4147 107.759 83.7787 107.759 85.1547C107.768 87.0213 106.855 88.284 105.596 88.2213C104.499 88.16 103.897 87.1827 103.892 85.128Z" fill="#3A3A3A"/>
<path d="M117.836 85.4053C117.857 86.7787 117.657 88.132 115.949 88.1747C114.495 88.2093 114.312 87.0093 114.333 85.8453C114.357 84.4373 114.556 82.936 116.289 82.8693C117.897 82.808 117.851 84.224 117.836 85.4053Z" fill="#3A3A3A"/>
<path d="M94.7133 52.244C94.18 51.3373 93.78 50.328 93.1133 49.544C91.728 47.9267 91.6467 45.7587 93.0973 44.368C93.4541 44.0238 93.876 43.7541 94.3381 43.5747C94.8003 43.3953 95.2936 43.3097 95.7892 43.323C96.2848 43.3363 96.7728 43.4481 97.2248 43.652C97.6767 43.856 98.0834 44.1478 98.4213 44.5107C99.808 45.9867 99.848 48.4267 98.1547 49.5947C96.784 50.5413 97.0026 51.6787 96.9293 52.9147C96.8706 53.9067 97.3933 55.3733 95.6373 55.344C93.9707 55.316 94.3867 53.9013 94.304 52.876C94.2933 52.7493 94.304 52.62 94.304 52.492L94.7133 52.244Z" fill="#3A3A3A"/>
<path d="M35.5293 52.444C34.9453 51.5173 34.4706 50.496 33.7546 49.6867C32.404 48.1573 32.3186 46.1067 33.712 44.6453C35.2853 42.9947 37.6173 42.972 39.2 44.5907C40.5333 45.9493 40.6853 48.468 39.136 49.5707C37.6813 50.608 37.7346 51.8373 37.732 53.2467C37.732 54.2947 38.0333 55.716 36.3613 55.664C34.8946 55.62 35.092 54.3307 35.088 53.3067C35.088 53.1133 35.088 52.92 35.088 52.7267C35.2346 52.632 35.3813 52.5333 35.5293 52.444Z" fill="#3A3A3A"/>
</svg>
