<svg width="160" height="160" viewBox="0 0 160 160" fill="none" xmlns="http://www.w3.org/2000/svg">
<path d="M73.7054 76.2667C78.6654 70.892 85.1481 71.0533 89.2387 74.2413C93.6721 77.6973 95.5054 83.824 91.7414 90.1293C93.8201 91.5867 95.9174 93.0467 98.0081 94.5293C98.8081 95.0947 99.5161 95.092 100.173 94.328C101.418 92.8764 102.662 91.4249 103.907 89.9733C106.637 86.7867 109.373 83.5987 112.04 80.484C104.573 76.9467 100.617 69.4173 102.007 60.8693C103.288 52.9853 109.967 46.7467 117.96 45.968C125.32 45.2507 132.876 49.8627 135.465 56.9587C138.193 64.4413 136.423 73.4627 128.057 79.092C130.203 80.7747 132.648 82.3107 134.612 84.3187C138.16 87.944 139.545 92.7107 140.079 97.5707C140.756 103.872 140.924 110.227 141.304 116.56C141.327 116.941 141.411 117.389 141.252 117.695C141.028 118.128 140.604 118.456 140.265 118.829C139.905 118.419 139.44 118.057 139.219 117.583C139.053 117.225 139.205 116.721 139.209 116.283C139.28 108.283 139.183 100.275 136.829 92.5493C135.196 87.1867 132.115 82.9133 126.349 81.36C125.264 81.068 124.025 81.3 122.86 81.36C120.521 81.4693 118.183 81.5973 115.848 81.7733C115.197 81.8227 114.348 81.8573 113.953 82.2573C111.233 85.0129 108.571 87.8271 105.967 90.7C104.531 92.2733 103.3 94.0413 101.833 95.584C100.201 97.3 98.7294 97.5133 96.8721 96.1667C93.7361 93.892 90.7081 91.4653 87.6721 89.052C85.8894 87.632 84.1774 86.132 81.6334 86.056C81.4614 87.82 82.4334 88.868 83.4841 89.804C84.4174 90.6347 84.7187 91.396 84.2241 92.6573C83.5267 94.4333 84.5907 96.1813 86.2854 96.9C88.2226 97.7368 90.1162 98.6713 91.9587 99.7C93.4894 100.54 94.8801 101.64 96.4254 102.447C98.6721 103.619 101.109 103.684 103.111 102.137C105.112 100.591 106.831 98.648 108.535 96.7547C109.015 96.2213 108.935 95.2187 109.253 94.488C109.52 93.8667 110.001 93.332 110.387 92.7547C110.653 93.324 111.165 93.904 111.145 94.464C110.873 102.242 110.544 110.02 110.16 117.797C110.139 118.241 109.568 118.657 109.252 119.087C108.911 118.572 108.26 118.051 108.272 117.544C108.391 112.611 108.625 107.685 108.805 102.755C108.839 101.895 108.805 101.031 108.805 100.251C107.205 101.495 105.7 102.897 103.983 103.965C101.108 105.752 98.0507 105.712 95.0961 104.099C93.5174 103.236 92.1041 102.072 90.5281 101.207C88.9281 100.327 87.1454 99.7627 85.5734 98.8413C84.4467 98.1747 83.5361 97.152 82.5214 96.296C82.1067 95.9453 81.7081 95.3853 81.2427 95.3173C78.3707 94.8973 76.1654 93.4213 74.3334 91.2627C73.8894 90.74 73.5734 90.2453 72.6001 90.6107C64.3334 93.708 56.0307 96.712 47.7414 99.748C47.5086 99.8446 47.2812 99.9537 47.0601 100.075C46.7561 110.891 41.5841 116.875 32.5147 116.968C25.1134 117.043 19.1014 111.144 18.6827 103.733C18.2667 96.1733 24.3187 87.5733 34.4001 88.32C36.0374 82.0533 37.6841 75.7507 39.3707 69.3C35.1841 66.5333 32.6667 62.5893 32.2441 57.4813C31.8747 53.0333 33.2014 49.0613 36.1107 45.648C41.3881 39.4587 51.2507 38.632 57.7787 43.68C63.7507 48.2987 66.9441 58.08 59.4281 67.1133L73.7054 76.2667ZM118.8 48.0813C110.687 48.2347 102.987 55.4333 103.927 66.0387C104.681 74.5587 112.355 80.488 119.951 79.8293C127.096 79.2093 135.248 72.22 134.548 61.8733C134.023 54.1013 126.732 47.66 118.8 48.0813ZM72.3134 88.5547C70.7134 84.4013 70.5961 82.5307 71.9827 79.288C72.4187 78.268 72.2681 77.764 71.3427 77.1867C67.0281 74.4973 62.7681 71.72 58.4427 69.0533C58.0427 68.8027 57.2494 68.936 56.7361 69.1373C55.0747 69.792 53.5054 70.7107 51.8121 71.2547C48.2294 72.404 44.7027 71.8253 41.1974 70.4227C39.5974 76.5107 38.0361 82.5053 36.4521 88.556C41.5121 89.92 44.6987 93.2013 46.5001 98.0413L72.3134 88.5547ZM48.4881 42.5333C41.4401 42.0333 35.1547 47.544 34.4587 54.4227C33.6587 62.3253 38.6934 68.916 46.6161 69.5867C54.6894 70.2707 61.2827 64.62 61.7627 56.6213C62.2961 47.7933 54.9014 42.5947 48.4881 42.5333ZM32.6747 114.719C39.7894 114.719 45.0481 109.441 45.0507 102.289C45.0507 95.5973 39.8841 90.356 33.2827 90.3573C26.1601 90.3573 20.8494 95.7867 20.9001 103.013C20.9494 110 25.6907 114.715 32.6747 114.719ZM90.2347 88.4307C92.5014 85.0973 92.2841 80.5907 89.6307 77.2907C87.2881 74.38 82.9721 73.2907 79.3747 74.7133C75.2921 76.324 72.9334 80.2293 73.3334 84.7333C73.6787 88.6933 77.2147 92.304 81.6761 93.2533C82.2987 92.2 82.2827 91.328 81.2427 90.4533C80.6481 89.9507 80.2441 89.1533 79.9187 88.416C78.7494 85.7707 80.2561 83.7293 83.0827 84.1293C83.8201 84.2333 84.6094 84.4587 85.2241 84.86C86.9001 85.9573 88.5001 87.1813 90.2347 88.4307Z" fill="#3A3A3A"/>
<path d="M132.659 112.212C132.659 114.184 132.723 116.159 132.615 118.125C132.588 118.636 132.028 119.119 131.713 119.615C131.348 119.049 130.693 118.497 130.664 117.915C130.46 113.925 130.531 109.915 130.229 105.937C129.941 102.135 129.275 98.3613 128.857 94.5653C128.788 93.9373 128.991 92.812 129.336 92.6893C130.485 92.2893 130.669 93.4147 130.767 94.156C131.416 99.0733 132.019 103.999 132.573 108.933C132.696 110.015 132.591 111.121 132.591 112.216L132.659 112.212Z" fill="#3A3A3A"/>
<path d="M111.592 62.192C111.551 62.4893 111.625 63.0187 111.4 63.3307C111.021 63.8573 110.413 64.636 109.971 64.5933C109.395 64.5387 108.807 63.8467 108.383 63.304C108.156 63.016 108.211 62.4627 108.233 62.0347C108.293 60.8493 108.461 59.5093 109.952 59.524C111.443 59.5387 111.6 60.84 111.592 62.192Z" fill="#3A3A3A"/>
<path d="M114.111 74.6667C113.247 74.3507 112.141 74.0453 111.148 73.5267C110.809 73.3507 110.748 72.6333 110.571 72.1627C111.039 72.0053 111.537 71.6573 111.971 71.7267C113.303 71.9466 114.62 72.2526 115.913 72.6427C116.305 72.7573 116.597 73.204 116.936 73.5C116.617 73.752 116.333 74.0893 115.972 74.2347C115.476 74.428 114.921 74.4813 114.111 74.6667Z" fill="#3A3A3A"/>
<path d="M120.765 61.712C120.435 63.196 120.285 64.424 118.909 64.52C117.689 64.6053 117.388 63.5773 117.413 62.468C117.441 61.2507 117.611 59.9573 119.025 59.9213C119.589 59.9067 120.184 61.08 120.765 61.712Z" fill="#3A3A3A"/>
</svg>
