<svg width="160" height="160" viewBox="0 0 160 160" fill="none" xmlns="http://www.w3.org/2000/svg">
<path d="M77.1052 107.135C71.5119 106.436 67.4426 103.38 64.2639 98.2013C64.0159 100.299 63.7719 101.883 63.6493 103.476C63.0919 110.745 62.5666 118.019 62.0319 125.291C62.0039 125.671 62.1386 126.168 61.9453 126.407C61.5612 126.883 61.0013 127.215 60.5133 127.607C60.2039 127.128 59.6106 126.636 59.6306 126.172C59.7786 122.879 60.0239 119.588 60.2906 116.305C60.8586 109.292 61.4444 102.28 62.0479 95.2693C62.1812 93.7533 62.2693 92.2267 62.5519 90.736C62.6399 90.272 63.2959 89.916 63.6919 89.5107C64.0373 89.944 64.7452 90.46 64.6693 90.8013C63.8186 94.668 65.9519 97.2373 68.2919 99.82C70.6839 102.463 73.5052 104.2 77.3719 104.676C77.7132 101.781 78.0546 98.8693 78.4306 95.6733C74.6026 95.7733 73.1359 93.1053 71.8132 90.26C70.7466 87.9667 69.8999 85.5213 68.5173 83.4347C66.6786 80.6627 64.4412 78.152 62.2999 75.5907C62.0146 75.2493 61.2599 75.0747 60.7812 75.1587C56.8852 75.848 53.2453 74.9293 49.6306 73.6107C48.8795 73.3604 48.0773 73.304 47.2986 73.4467C39.6346 74.8093 34.5252 79.412 31.0999 86.212C27.5892 93.1813 25.7666 100.665 24.3613 108.255C23.2946 114.036 22.5679 119.881 21.5919 125.681C21.4892 126.289 20.7132 126.784 20.2506 127.331C19.9399 126.739 19.3039 126.108 19.3706 125.563C19.9319 120.976 20.5546 116.396 21.2866 111.829C22.5612 103.891 24.2199 96.04 27.3986 88.6C29.6879 83.232 32.4959 78.1867 37.5933 74.964C39.9173 73.4973 42.4959 72.4307 45.0493 71.132C38.3559 65.6507 34.8746 58.448 36.6066 49.4307C37.7812 43.3147 40.8839 38.1973 46.1653 34.656C56.0973 27.9973 70.3906 31.396 76.5479 41.6973C83.0719 52.6133 78.7653 69.5373 64.6519 74.4613C69.7186 78.7813 71.6106 84.9707 74.5999 90.496C75.8426 92.792 76.3079 93.1733 78.4826 93.296C78.6893 91.3293 78.9172 89.344 79.1052 87.3547C79.3972 84.2613 79.7132 81.1707 79.9292 78.072C80.3012 72.7293 84.2653 68.004 90.2573 68.084C103.208 68.256 116.163 68.1373 129.116 68.2013C134.333 68.2267 137.588 71.8493 137.236 77.0667C137.088 79.28 136.905 81.4933 136.703 83.7027C136.509 85.836 136.273 87.9693 136.065 90.004C136.191 90.1587 136.22 90.236 136.268 90.2507C140.635 91.6507 140.979 92.2013 140.433 96.9093C140.223 98.736 139.999 100.561 139.816 102.392C139.333 107.213 139.34 107.213 134.388 107.603C134.153 110.044 133.924 112.536 133.673 115.035C133.44 117.365 133.341 119.724 132.904 122.017C132.133 126.044 129.129 128.667 125.053 128.693C111.466 128.782 97.8777 128.795 84.2892 128.731C79.3186 128.703 75.9439 125.124 76.1266 120.165C76.2839 115.876 76.7572 111.6 77.1052 107.135ZM133.685 90.3107C133.819 89.4947 133.952 88.8147 134.016 88.128C134.34 84.528 134.619 80.928 134.963 77.328C135.363 73.0733 133.145 70.4747 128.881 70.4587C116.183 70.4116 103.484 70.396 90.7853 70.412C85.2999 70.4253 82.6213 73.3093 82.1933 78.864C81.6239 86.2547 80.7719 93.624 80.0719 101.005C79.4986 107.064 78.8292 113.117 78.4626 119.188C78.1666 124.091 80.5732 126.424 85.5079 126.468C89.9519 126.507 94.3973 126.481 98.8413 126.481C107.159 126.481 115.477 126.493 123.795 126.461C128.595 126.443 130.72 124.365 131.007 119.559C131.075 118.42 131.211 117.285 131.297 116.148C131.509 113.332 131.712 110.516 131.923 107.645C130.403 107.645 129.145 107.625 127.889 107.645C126.633 107.665 125.356 107.804 124.088 107.787C120.423 107.736 117.848 105.724 116.867 102.212C115.084 95.8307 119.205 90.356 125.839 90.3067C128.371 90.296 130.904 90.3107 133.685 90.3107ZM57.9519 33.7427C46.8359 33.852 38.5333 42.508 38.6666 53.8453C38.7919 64.392 47.5772 72.9227 58.0906 72.8707C69.9652 72.8133 77.1493 62.9 77.0599 52.8707C76.9573 41.836 68.7092 33.6387 57.9533 33.7427H57.9519ZM129.617 105.436V105.423C131.647 105.423 133.681 105.503 135.703 105.373C136.301 105.335 137.319 104.76 137.369 104.34C137.769 100.945 138.025 97.532 138.207 94.1187C138.228 93.7347 137.524 92.9653 137.14 92.9587C132.645 92.884 128.139 92.728 123.657 92.992C120.591 93.172 118.485 96.8587 118.815 100.725C119.053 103.504 121.363 105.431 124.475 105.44C126.193 105.44 127.905 105.436 129.619 105.436H129.617Z" fill="#3A3A3A"/>
<path d="M30.0174 124.575C31.3774 113.315 33.3614 102.189 37.3001 91.508C37.6667 90.5133 37.7894 88.6427 39.4774 89.3173C41.0507 89.9453 39.8001 91.3293 39.4961 92.2627C35.9667 103.123 33.3147 114.163 32.2414 125.559C32.1854 126.159 31.3507 126.685 30.8787 127.245C30.5614 126.609 30.2121 125.985 29.9454 125.331C29.8587 125.119 29.9867 124.827 30.0174 124.575Z" fill="#3A3A3A"/>
<path d="M97.236 90.944C99.88 90.9947 101.909 92.5107 102.757 95.068C103.529 97.3973 102.812 100.3 100.681 101.659C99.104 102.665 98.7853 103.963 98.596 105.569C98.4267 107.007 98.6413 109.137 96.6333 109.119C94.4853 109.097 95.1667 106.953 95.1667 105.652C95.1587 103.919 94.8333 102.628 93.312 101.459C91.12 99.7733 90.6093 97.0053 91.5787 94.624C92.548 92.2427 94.628 90.8947 97.236 90.944ZM97.4 93.2867C95.1213 93.2693 93.6333 94.7907 93.6667 97.1093C93.6907 98.9133 95.4147 100.843 97.0374 100.873C99.0094 100.915 100.827 98.9693 100.792 96.8547C100.755 94.8253 99.308 93.3013 97.4 93.2867Z" fill="#F7931B"/>
<path d="M62.388 67.0547C59.6773 66.7013 57.4666 65.8853 55.8106 63.9373C55.48 63.5493 55.6346 62.7493 55.564 62.1387C56.152 62.2187 56.8973 62.0947 57.2973 62.4053C59.928 64.456 62.6306 65.1867 65.724 63.4107C66.0546 63.22 66.6986 63.5733 67.1906 63.6773C67.0573 64.1733 67.0573 64.9533 66.7493 65.1173C65.3533 65.8587 63.8546 66.4253 62.388 67.0547Z" fill="#3A3A3A"/>
<path d="M67.3761 53.392C67.3756 53.0775 67.3974 52.7634 67.4414 52.452C67.7081 51.2307 67.8147 49.6893 69.5747 49.9587C71.1974 50.2053 71.1361 51.692 71.1441 52.956C71.1441 53.2613 71.1094 53.6347 70.9374 53.8613C70.3121 54.6893 69.6227 55.4693 68.9574 56.2613L66.9414 53.7387L67.3761 53.392Z" fill="#3A3A3A"/>
<path d="M60.1427 51.032C60.1134 53.3733 59.1947 54.9893 58.0987 54.788C56.5374 54.5013 56.2641 53.188 56.3654 51.8707C56.4667 50.5133 56.5081 48.8333 58.3347 48.728C60.1027 48.6253 60.0787 50.1613 60.1427 51.032Z" fill="#3A3A3A"/>
</svg>
