<svg width="160" height="160" viewBox="0 0 160 160" fill="none" xmlns="http://www.w3.org/2000/svg">
<path d="M104.033 43.6787C104.517 42.2213 104.967 40.356 105.767 38.6613C106.208 37.728 107.252 37.088 108.024 36.3147C108.637 37.204 109.564 38.0173 109.799 38.9973C110.265 40.9427 110.352 42.9773 110.545 44.576C112.728 43.9093 114.895 43.1773 117.103 42.6067C117.56 42.4893 118.416 42.816 118.636 43.1973C118.856 43.5787 118.609 44.3347 118.369 44.8347C118.088 45.4347 117.628 45.96 117.201 46.4827C113.936 50.4827 113.637 54.8827 115.179 59.6533C115.901 61.8907 117.517 63.0293 119.46 63.8973C123.593 65.7453 127.208 68.2907 130.485 71.4427C135.352 76.1227 138.352 81.728 139.539 88.3173C141.111 97.024 140.061 105.211 134.289 112.295C129.461 118.219 123.167 121.904 115.747 123.488C103.431 126.121 91.7041 124.52 81.4668 116.883C74.5334 111.711 70.9335 104.313 70.7708 95.5867C70.5041 81.164 77.2588 70.76 90.2375 65.0293C96.3521 62.3293 97.9121 57.9053 98.4054 52.248C98.7148 48.696 97.3254 45.5373 95.9881 42.3627C95.6974 41.6707 95.8401 40.7973 95.7828 40.008C96.5254 40.008 97.4068 39.7413 97.9841 40.0533C100.055 41.1533 102.016 42.448 104.033 43.6787ZM98.6668 42.6667C98.9334 43.42 99.0268 43.6973 99.1348 43.968C101.348 49.568 101.029 55.0933 98.8268 60.62C98.0148 62.6587 96.7801 64.2027 94.7748 65.1533C92.8348 66.0693 90.8961 66.9987 89.0228 68.04C76.9748 74.7373 70.6934 87.796 73.7428 100.4C76.3761 111.28 84.0668 118.628 95.8441 120.96C94.0175 119.216 91.8294 117.493 90.0814 115.396C84.1721 108.316 82.4094 100.127 83.1748 90.9813C84.0734 80.232 90.1521 72.8107 97.6654 66.0827C97.8988 65.8747 98.4121 65.98 98.7948 65.9387C98.7495 66.364 98.8614 66.928 98.6294 67.1907C97.6161 68.3427 96.5161 69.4213 95.4294 70.5027C86.8121 79.0253 83.7694 89.3333 85.9014 101.139C87.7588 111.423 93.8095 118.305 103.635 121.852C103.931 121.959 104.284 121.909 104.749 121.944C101.717 111.441 100.068 100.919 100.687 90.1653C100.977 85.0987 101.813 80.0627 102.529 75.0307C102.621 74.3813 103.531 73.3067 103.968 73.3507C105.233 73.484 104.709 74.5813 104.608 75.396C103.903 81.048 102.727 86.6933 102.637 92.356C102.545 98.212 103.283 104.117 104.091 109.941C104.672 114.125 105.967 118.208 106.951 122.375C114.507 119.549 120.157 114.095 122.684 107.221C124.56 102.119 124.891 96.808 124.536 91.436C124.044 83.988 120.832 77.808 115.677 72.532C113.787 70.5978 111.941 68.6213 110.139 66.6027C109.872 66.304 109.985 65.6693 109.923 65.1933C110.345 65.268 110.933 65.1933 111.167 65.4413C114.796 69.3507 118.88 72.9613 121.86 77.3227C126.736 84.4587 127.711 92.696 126.335 101.155C125.091 108.804 121.895 115.404 115.452 120.101C114.908 120.501 114.371 120.909 113.831 121.313C114.47 121.384 115.117 121.326 115.733 121.143C123.889 118.919 131.027 115.071 134.923 107.208C140.292 96.3747 138.615 86.0187 131.675 76.408C128.179 71.5653 123.397 68.2547 118.013 65.7787C116.091 64.8933 114.095 63.9467 113.524 61.7253C112.847 59.0827 111.969 56.3227 112.139 53.676C112.319 50.8893 113.632 48.1747 114.485 45.3107C113.52 46.1107 112.408 46.988 111.361 47.9347C110.695 48.5413 110.12 49.2573 109.504 49.924C109.132 48.9533 108.753 47.9867 108.397 47.0107C108.337 46.8453 108.383 46.644 108.365 46.46C108.174 44.4591 107.983 42.4591 107.791 40.46C107.271 41.0373 107.075 41.6067 106.905 42.184C106.303 44.2373 105.767 46.3173 105.079 48.3373C104.873 48.9413 104.257 49.404 103.828 49.9307C103.428 49.3653 103.005 48.812 102.636 48.2253C102.513 48.0307 102.527 47.7507 102.472 47.512C102.008 45.4667 100.772 44.0333 98.6668 42.6667Z" fill="#F7931B"/>
<path d="M41.7948 73.8253C30.9161 65.8667 31.3801 53.492 35.3534 46.08C39.5228 38.3013 48.8001 34 57.3041 35.7013C66.5041 37.5387 72.7041 44.796 73.6375 53.3307C74.8695 64.612 68.0628 73.9973 58.9241 76.68C64.3041 83.0453 65.1988 90.7453 65.5908 98.588C65.9734 106.321 66.3255 114.055 66.6894 121.78C66.7041 122.087 66.7868 122.433 66.6774 122.695C66.4254 123.301 66.0748 123.869 65.7628 124.452C65.3361 123.895 64.5774 123.359 64.5374 122.775C64.3001 119.283 64.3294 115.772 64.0814 112.281C63.5321 104.509 63.0401 96.7253 62.1855 88.9853C61.7715 84.9798 60.0144 81.2322 57.2001 78.352C56.6414 77.7787 55.7001 77.4093 54.8841 77.2853C52.5294 76.936 50.1188 76.9213 47.7855 76.4853C41.4255 75.296 35.3055 78.1493 31.2361 84.312C27.5028 89.96 25.7975 96.3547 24.6948 102.879C23.6535 109.033 23.1281 115.279 22.3775 121.479C22.3401 121.783 22.3495 122.096 22.2868 122.395C22.0975 123.295 22.3495 124.683 20.9175 124.559C19.3455 124.425 19.8775 123.032 19.9081 122.065C19.9388 121.099 20.0881 120.111 20.1961 119.132C21.1641 110.428 21.8641 101.673 24.6228 93.28C26.7561 86.7773 29.5681 80.6693 35.6241 76.8227C37.5455 75.6 39.7428 74.8067 41.7948 73.8253ZM71.4801 56.2667C71.5094 45.7333 63.8161 37.7547 53.7801 37.6533C42.2721 37.536 35.2641 46.2467 35.0348 56.14C34.7975 66.38 43.4094 75.028 53.5494 75.0347C63.4668 75.044 71.4521 66.6907 71.4801 56.2667Z" fill="#3A3A3A"/>
<path d="M29.0759 122.637C30.6386 113.1 32.2213 103.437 33.8119 93.7707C33.8613 93.472 33.9093 93.1173 34.0946 92.9093C34.5986 92.344 35.1773 91.8427 35.7253 91.3093C35.9066 92.052 36.3346 92.8293 36.2333 93.5307C34.8546 103.044 33.4026 112.545 31.9666 122.051C31.9026 122.472 31.9466 122.984 31.7159 123.289C31.3919 123.712 30.8039 124.281 30.4279 124.223C30.0159 124.153 29.7133 123.433 29.0759 122.637Z" fill="#3A3A3A"/>
<path d="M58.9332 107.824C58.9332 112.673 58.9719 117.523 58.8852 122.371C58.8746 122.963 58.2572 123.989 57.8186 124.044C56.5599 124.2 56.6586 123.065 56.6719 122.229C56.7572 116.643 56.8466 111.056 56.9839 105.472C57.0839 101.36 57.2146 97.2493 57.4506 93.144C57.4839 92.5507 58.1799 91.9947 58.5692 91.4213C58.9279 92.0413 59.5866 92.6547 59.5972 93.28C59.6839 98.1267 59.6452 102.976 59.6452 107.825L58.9332 107.824Z" fill="#3A3A3A"/>
<path d="M57.0521 68.8C54.7574 68.7453 52.6961 68.0333 51.1281 66.32C50.7481 65.904 50.8307 65.0627 50.7014 64.4173C51.3161 64.5413 52.1041 64.464 52.5147 64.8173C54.4974 66.544 58.2481 67.384 60.7001 65.5067C61.0654 65.228 61.8454 65.492 62.4334 65.5067C62.2787 66.04 62.2841 66.8547 61.9414 67.0467C60.4441 67.88 58.8454 68.5307 57.2841 69.2493L57.0521 68.8Z" fill="#3A3A3A"/>
<path d="M54.5067 55.2867C54.4907 55.408 54.5813 56.0013 54.3307 56.3413C53.8667 56.972 53.2 57.8667 52.616 57.8773C52.0573 57.8773 51.228 56.9773 50.996 56.308C50.7173 55.508 50.692 54.4133 51.024 53.6507C51.348 52.9093 52.264 52.4267 52.92 51.8307C53.4533 52.5573 54.0107 53.264 54.4853 54.024C54.6227 54.2427 54.5067 54.6187 54.5067 55.2867Z" fill="#3A3A3A"/>
<path d="M65.2453 55C65.0559 56.2107 65.0999 57.7293 63.3479 58.0027C62.2293 58.1773 61.4079 56.5853 61.5586 54.7147C61.5919 54.2933 61.5973 53.7813 61.8346 53.484C62.2839 52.9227 62.9733 52.0267 63.4119 52.1067C64.0559 52.224 64.6373 53.0213 65.1026 53.6373C65.3186 53.9227 65.1999 54.4627 65.2453 55Z" fill="#3A3A3A"/>
</svg>
