<svg width="160" height="160" viewBox="0 0 160 160" fill="none" xmlns="http://www.w3.org/2000/svg">
<path d="M96.9947 70.8867C96.9947 62.804 96.9853 54.9667 96.9947 47.128C97.004 40.8613 97.0187 34.6013 97.084 28.3373C97.092 27.524 96.5427 26.1627 98.024 26.1893C98.52 26.1987 98.996 27.3613 99.6747 28.252C101.687 28.3707 104.208 28.3293 106.661 28.72C108.787 29.0511 110.86 29.6608 112.827 30.5333C117.257 32.5333 121.76 33.552 126.615 32.628C127.225 32.512 128.181 32.6347 128.501 33.028C128.791 33.388 128.604 34.3613 128.329 34.9107C126.376 38.8373 123.725 42.1987 120.164 44.8267C116.087 47.84 111.585 48 106.8 47.2773C104.647 46.9533 102.385 47.2773 100.183 47.4307C99.832 47.456 99.2493 48.1707 99.2493 48.5693C99.1933 55.936 99.208 63.3027 99.208 70.8907H101.308C111.964 70.8907 122.621 71.0013 133.275 70.8347C137.383 70.7707 140.561 74.328 140.513 78.116C140.336 91.756 140.336 105.397 140.513 119.04C140.575 123.511 138.247 127.585 132.361 127.905C132.361 128.876 132.377 129.859 132.361 130.839C132.32 132.816 131.428 133.756 129.484 133.788C127.494 133.82 125.503 133.816 123.512 133.777C121.681 133.745 120.805 132.809 120.761 130.92C120.74 129.987 120.728 129.053 120.704 128.112C120.704 128.065 120.643 128.02 120.541 127.881H93.3467C93.3467 128.936 93.3707 130.015 93.3467 131.103C93.2947 132.984 92.5213 133.769 90.668 133.789C88.6773 133.812 86.6867 133.805 84.696 133.783C82.7533 133.76 81.8093 132.827 81.7627 130.897C81.7387 129.913 81.7627 128.929 81.7627 128.436C79.74 127.543 77.8747 127.009 76.3573 125.969C74.7173 124.845 73.996 122.981 73.9987 120.925C73.9987 117.007 73.9987 113.088 73.9987 108.885C72.6493 108.885 71.3787 108.979 70.132 108.848C69.4013 108.765 68.7108 108.47 68.1453 108C67.8787 107.767 67.908 106.911 68.1227 106.507C68.264 106.24 68.9787 106.173 69.4307 106.193C72.196 106.316 74.964 106.645 77.7227 106.583C79.1893 106.549 80.028 105.044 79.9253 103.476C79.792 101.476 78.6853 100.212 76.8373 100.063C75.904 99.9867 74.9387 100.176 74.0373 99.9947C73.5453 99.896 73.1587 99.272 72.724 98.8853C73.1347 98.4613 73.4893 97.772 73.968 97.672C74.8865 97.4716 75.8381 97.4789 76.7533 97.6933C78.1187 98.0467 79.06 97.8413 79.512 96.4253C79.912 95.1667 79.1827 93.3213 77.9267 93.1253C75.8653 92.8013 73.7467 92.7347 71.66 92.7747C71.1587 92.7853 70.7347 93.752 70.1613 94.08C69.588 94.408 68.8787 94.48 68.228 94.668C68.236 94.008 68.0067 93.2107 68.2933 92.7107C69.4933 90.608 71.5533 90.2827 73.988 90.5947C73.988 87.7067 73.988 84.976 73.988 82.2467C73.988 80.8427 73.968 79.436 73.9947 78.032C74.076 73.816 77.0293 70.8973 81.2293 70.888C86.4853 70.8787 91.744 70.8867 96.9947 70.8867ZM76.1333 109.095C76.1333 112.703 76.1333 116.212 76.1333 119.721C76.1333 123.703 78.0333 125.599 82.052 125.603C96.5693 125.612 111.087 125.617 125.604 125.616C130.084 125.616 131.701 123.983 131.7 119.465C131.7 106.06 131.696 92.6547 131.687 79.2493C131.687 78.548 131.713 77.8387 131.629 77.144C131.331 74.708 129.541 73.0107 127.2 73.004C111.922 72.988 96.6431 72.988 81.364 73.004C78.66 73.004 76.3467 74.8773 76.2187 77.552C76.0133 81.86 76.164 86.1853 76.164 90.4947C82.252 90.7613 83.0213 96.0627 80.4187 99.436C83.8493 104.301 82.1613 108.28 76.1333 109.095ZM125.921 35.6067L125.553 35.1653C123.361 35.0467 121.092 35.2453 118.995 34.736C115.965 34 113.047 32.7867 110.107 31.7067C106.529 30.392 102.885 30.2 99.1733 30.6773V45.2547C102.448 45.2547 105.688 44.876 108.801 45.3467C113.212 46.0133 116.956 44.9467 120.124 42.0693C122.256 40.1333 124 37.776 125.921 35.6067ZM132.201 125.467C136.125 125.479 138.324 123.352 138.325 119.723C138.331 105.856 138.331 91.992 138.325 78.1307C138.325 74.7107 135.724 72.596 132.219 73.24C133.897 75.24 134.023 77.588 134.015 80.02C133.975 92.7151 133.969 105.409 133.997 118.103C134 120.683 134.025 123.244 132.201 125.467ZM130.133 131.579V127.911H122.952V131.579H130.133ZM84 127.832V131.557H91.0933V127.832H84Z" fill="#3A3A3A"/>
<path d="M54.972 79.8213C58.3187 82.6733 60.068 86.2107 60.7427 90.3267C60.7893 90.6107 60.844 90.94 61.0093 91.1507C63.676 94.4467 62.5467 98.1227 62.0333 101.705C61.4133 106.035 60.668 110.344 59.9907 114.665C59.6533 116.815 58.5467 118.411 56.7387 119.62C56.2587 119.941 55.8053 120.64 55.752 121.203C55.448 124.521 55.316 127.856 54.9973 131.173C54.9333 131.827 54.3613 132.907 53.9227 132.956C52.6827 133.109 52.916 131.969 52.9453 131.2C53.0787 127.651 53.2613 124.103 53.4307 120.409C50.4493 120.409 47.532 120.423 44.6147 120.409C40.7907 120.389 38.7813 118.543 38.4333 114.653C35.8213 115.655 33.2333 116.624 30.6667 117.665C30.4 117.777 30.168 118.293 30.1333 118.645C29.6307 122.936 29.2 127.236 28.648 131.52C28.5747 132.095 27.9187 132.595 27.5333 133.128C27.212 132.552 26.576 131.948 26.6213 131.395C26.9413 127.556 27.4 123.727 27.8213 119.896C27.872 119.436 27.9547 118.98 28.0213 118.545C27.8467 118.457 27.732 118.345 27.6427 118.363C21.1693 119.656 18.728 112.753 19.7027 108.108C21.1373 101.261 23.3533 94.62 26.636 88.3973C29.428 83.1013 32.6613 80.2427 38.7467 77.5493C32.116 72.7107 29.0667 66.2413 29.8467 58.1333C30.4467 51.8973 33.516 47.0373 38.5467 43.3653C47.272 36.9947 60.3173 39.736 66.1773 49.0187C72.1213 58.4373 69.44 74.3293 54.972 79.8213ZM66.9987 59.6253C66.9987 49.7707 59.1693 42.0427 49.2253 42.068C39.9613 42.092 31.8667 50.6013 31.8573 60.3213C31.848 70.728 39.2613 78.248 49.54 78.2573C59.1293 78.2667 67.0053 69.8667 66.9987 59.6253ZM32.332 105.3C33.54 104.523 34.312 104.06 35.0493 103.547C36.2493 102.716 37.3093 101.441 38.624 101.096C40.8667 100.507 41.424 99.2053 41.5187 97.16C41.6187 95.008 42.2093 92.848 44.276 91.8013C45.6747 91.0933 47.3547 90.7187 48.932 90.632C52.1133 90.4573 55.3093 90.58 58.508 90.58C58.2867 87.08 56.136 83.316 53.08 81.1747C52.4133 80.712 51.5093 80.516 50.68 80.388C48.048 79.988 45.404 79.6467 42.7587 79.3213C42.0427 79.2333 41.2613 79.1333 40.588 79.3213C34.0547 81.1333 29.9107 85.6733 27.3453 91.6373C25.4427 96.0613 24.012 100.693 22.5093 105.28C21.6947 107.776 21.1627 110.347 22.172 112.988C23.3227 116.003 25.112 117.004 28.192 115.989C30.6213 115.189 33.0547 114.34 35.3587 113.247C37.2867 112.332 39.092 112.283 41.092 112.815C43.2667 113.391 45.5013 113.481 47.5467 112.253C48.4987 111.684 49.38 110.989 49.1467 110.165C46.3253 109.319 43.8307 108.639 41.3987 107.781C40.9027 107.607 40.3667 106.779 40.332 106.223C40.2613 105.096 40.5227 103.949 40.6933 102.389C39.5853 103.08 38.7307 103.468 38.052 104.061C35.532 106.264 32.5333 107.528 29.4067 108.495C28.7853 108.687 27.5493 108.572 27.3773 108.22C26.872 107.177 27.9307 107.02 28.648 106.62C29.332 106.239 30.144 105.656 30.3813 104.98C31.436 101.961 32.26 98.864 33.2827 95.8333C33.4693 95.2813 34.1907 94.908 34.6653 94.4533C34.8173 95.1413 35.2427 95.9067 35.0773 96.5067C34.3173 99.2907 33.3813 102.025 32.3387 105.3H32.332ZM42.688 106.543C44.6773 106.843 46.5827 107.257 48.5067 107.389C50.9587 107.559 52.1693 109.233 51.0613 111.435C49.9373 113.669 47.984 114.923 45.484 115.133C44.0373 115.255 42.5733 115.156 41.1173 115.156C41.1507 117.044 42.1027 117.933 44.1467 117.956C47.248 117.992 50.3507 117.987 53.4533 117.963C55.6133 117.945 57.0533 116.795 57.5307 114.629C57.884 113.039 58.1293 111.423 58.3733 109.809C59.04 105.428 59.764 101.052 60.2813 96.6533C60.644 93.5707 60.0373 93.016 56.9613 92.9893C54.0347 92.9653 51.108 92.9893 48.1813 93.0093C45.8227 93.024 44.54 93.9573 44.1453 96.2627C43.6 99.4773 43.2267 102.723 42.6947 106.543H42.688Z" fill="#3A3A3A"/>
<path d="M87.3226 99.3693C87.4053 89.5467 94.8986 82.0267 104.493 82.1333C113.784 82.2373 121.224 90.1493 121.128 99.8173C121.036 109.027 113.167 116.667 103.901 116.533C94.7693 116.407 87.244 108.616 87.3226 99.3693ZM119.037 99.4013C119.061 91.1107 112.301 84.2453 104.104 84.232C96.04 84.2187 89.4986 90.9173 89.4533 99.236C89.4066 107.612 95.9333 114.355 104.133 114.4C112.252 114.439 119.015 107.637 119.037 99.4013Z" fill="#F7931B"/>
<path d="M53.3507 73.08C50.1654 72.8773 47.9507 72.372 46.284 70.6427C45.8907 70.2347 45.6627 69.1533 45.9227 68.7347C46.4947 67.8147 47.152 68.468 47.7573 69.0107C49.9147 70.9467 53.64 71.176 56.2907 69.7C56.7654 69.4333 57.484 69.612 58.0894 69.584C57.8734 70.2293 57.84 71.2333 57.4067 71.4507C55.888 72.2333 54.232 72.7427 53.3507 73.08Z" fill="#3A3A3A"/>
<path d="M50.4707 59.0733C50.4927 59.3623 50.4927 59.6524 50.4707 59.9413C50.2813 61.16 49.804 62.3413 48.4333 62.356C47.0853 62.368 46.7413 61.172 46.5867 60.0227C46.5441 59.7356 46.5187 59.4462 46.5107 59.156C46.4933 57.4227 47.296 56.1933 48.4813 56.1373C49.6667 56.0813 50.4747 57.2867 50.4707 59.0733Z" fill="#3A3A3A"/>
<path d="M61.3747 59.344C61.3747 61.148 60.6027 62.3907 59.4573 62.4413C58.2573 62.4947 57.324 61.2027 57.3453 59.5293C57.3693 57.8147 58.264 56.48 59.384 56.4867C60.504 56.4933 61.3773 57.764 61.3747 59.344Z" fill="#3A3A3A"/>
<path d="M47.944 94.716C51.1573 94.0613 52.5693 95.096 52.828 97.9533C52.8546 98.2427 53.1213 98.5253 53.316 98.7827C54.528 100.383 54.1533 102.275 52.3693 103.183C51.7383 103.486 51.0633 103.687 50.3693 103.779C48.0786 104.123 47.7813 103.724 47.9106 101.432C48.044 99.1773 47.944 96.908 47.944 94.716ZM49.8666 101.632L50.3066 102.103L51.892 100.576L49.8666 99.276V101.632Z" fill="#F7931B"/>
<path d="M102.92 106.599C102.872 107.399 102.825 108.199 102.772 109.092H101.137C101.068 108.249 101.003 107.449 100.941 106.692C100.096 105.668 97.8747 107.483 97.836 105.185C97.8267 104.641 98.684 104.083 99.416 103.203V94.4667C99.016 94.3907 98.7267 94.424 98.5853 94.2947C98.144 93.8947 97.7587 93.4227 97.352 92.9787C97.8 92.6427 98.2107 92.1107 98.7053 92.0147C99.5373 91.8547 100.423 91.9707 101.428 91.9707C101.428 91.4133 101.324 90.9813 101.452 90.6373C101.637 90.1347 101.985 89.6933 102.273 89.2253C102.576 89.672 103.06 90.088 103.144 90.5733C103.277 91.3853 103.063 92.348 104.553 91.7813V88.9013L106.453 88.7947C106.533 89.8867 106.605 90.8587 106.677 91.8227C111.031 92.988 111.359 95.9453 109.537 98.2933C111.505 99.4787 111.868 101.335 111.175 103.303C110.249 105.925 107.852 106.287 105.355 106.469V109.5L103.589 109.624C103.524 108.489 103.471 107.545 103.417 106.603L102.92 106.599ZM102.707 104.073C104.267 103.867 105.689 103.867 106.96 103.432C107.587 103.217 108.115 102.241 108.312 101.508C108.379 101.259 107.348 100.451 106.736 100.333C105.456 100.091 104.121 100.137 102.707 100.067V104.073ZM102.595 94.4227V98.036C103.815 97.9027 104.943 97.92 105.955 97.5893C106.524 97.404 107.385 96.428 107.273 96.1653C106.984 95.4787 106.317 94.7093 105.636 94.492C104.744 94.208 103.693 94.4227 102.595 94.4227Z" fill="#F7931B"/>
</svg>
