<svg width="160" height="160" viewBox="0 0 160 160" fill="none" xmlns="http://www.w3.org/2000/svg">
<path d="M76.124 95.576C75.1533 96.26 74.1386 96.8893 73.2226 97.6387C71.504 99.044 69.8653 100.547 68.156 101.96C63.3973 105.889 59.6586 104.927 55.2226 101.225C54.7666 100.845 54.4613 100.284 54.0853 99.808L53.5786 100.008C53.5786 100.688 53.6013 101.369 53.5786 102.048C53.3653 107.433 53.1462 112.818 52.9213 118.204C52.908 118.536 52.984 118.971 52.808 119.175C52.484 119.547 52.0013 119.783 51.5853 120.075C51.3293 119.696 50.9253 119.344 50.852 118.932C50.7493 118.347 50.8973 117.719 50.9226 117.108C51.256 108.841 51.5693 100.563 51.9546 92.2933C51.9786 91.7893 52.56 91.312 52.8813 90.8267C53.2293 91.292 53.6706 91.7173 53.8933 92.2373C54.0533 92.612 53.872 93.12 53.9306 93.556C54.108 94.8893 53.92 96.4987 54.6146 97.472C56.304 99.8333 58.5453 101.823 61.528 102.335C62.6466 102.527 64.084 102.059 65.0906 101.433C67.012 100.233 68.7786 98.776 70.516 97.312C72.2013 95.8787 73.7933 94.4 76 93.684C77.936 93.0533 78.4 91.452 77.4973 89.4947C77.2546 89.5853 77 89.7693 76.7586 89.7533C76.136 89.7133 75.5186 89.584 74.9 89.4867C75.1666 88.9787 75.332 88.344 75.7373 87.9867C76.9853 86.8907 78.384 85.964 79.604 84.8347C79.996 84.4693 79.9973 83.684 80.1773 83.0907C79.616 82.9747 78.9453 82.6067 78.5133 82.7933C77.3133 83.308 76.0746 83.892 75.1 84.7373C71.8666 87.5373 68.7453 90.4707 65.5733 93.3347C63.228 95.4573 62.0186 95.3787 60.192 92.7413C57.7306 89.1867 55.3693 85.5613 53.008 81.9413C51.528 79.6747 50.0613 77.7373 46.8093 77.8773C44.38 77.9813 41.8533 76.7427 39.476 77.0293C32.7893 77.8293 29.0626 82.496 26.6013 88.2693C23.7333 94.988 22.4573 102.133 21.5653 109.333C21.184 112.413 21.1253 115.533 20.784 118.62C20.7186 119.217 20.0253 119.745 19.6226 120.305C19.288 119.744 18.6346 119.164 18.668 118.625C19.3346 107.525 20.6173 96.5293 25.2786 86.252C27.504 81.344 30.7733 77.404 36.0973 75.6027C36.724 75.3907 37.3693 75.236 38.2306 74.9893C33.928 71.9947 31.044 68.1493 30.0146 63.112C28.9946 58.128 29.8 53.3867 32.3786 49.0053C36.792 41.508 45.2173 38.112 53.5573 40.3933C61.6906 42.6173 66.9573 49.7267 66.9573 58.492C66.9573 67.7387 61.364 75.2133 52.548 77.624C52.7493 77.9653 52.92 78.2907 53.1226 78.5933C55.5146 82.1942 57.9093 85.7942 60.3066 89.3933C60.8293 90.1773 61.396 90.9347 61.8866 91.7387C62.5626 92.844 63.2653 92.772 64.1453 91.9613C67.0026 89.324 69.8133 86.628 72.7906 84.1347C74.368 82.8147 76.2826 81.904 77.984 80.72C78.4307 80.377 78.7282 79.8752 78.8146 79.3187C79.2293 75.2333 79.4173 71.12 79.984 67.0587C80.2826 64.9187 80.9093 62.712 81.9133 60.8133C83.276 58.2453 85.7333 57.0667 88.7013 57.0667C103.376 57.0213 118.051 56.9689 132.725 56.9093C132.948 56.9093 133.171 56.9213 133.392 56.9187C140.108 56.8347 141.759 60.352 141.247 65.704C140.083 77.8547 138.821 89.9947 137.581 102.137C137.315 104.784 137.032 107.433 136.635 110.063C135.931 114.729 132.368 117.776 127.68 117.777C112.728 117.785 97.7751 117.785 82.8213 117.777C77.908 117.777 75.096 115.075 75.2866 110.125C75.456 105.752 76.0293 101.393 76.4226 97.0293C76.456 96.652 76.4786 96.2733 76.508 95.8947L76.124 95.576ZM111.577 59.0427V59.0667C104.129 59.0667 96.6813 59.0667 89.2333 59.0667C85.3586 59.0667 82.756 61.2107 82.28 65.0147C81.668 69.9133 81.2133 74.8307 80.728 79.744C80.7027 80.1788 80.8177 80.6102 81.056 80.9747C82.8746 83.6707 82.888 84.3773 80.6173 86.6827C79.7013 87.616 79.26 88.2827 79.7426 89.7427C80.1066 90.8467 79.4907 92.292 79.2373 93.572C79.144 94.044 78.696 94.46 78.652 94.9253C78.1573 100.169 77.5853 105.412 77.2946 110.668C77.12 113.805 79.2413 115.769 82.3613 115.772C97.4244 115.784 112.487 115.78 127.549 115.763C131.501 115.756 134.061 113.623 134.655 109.688C135.216 105.961 135.56 102.2 135.957 98.4493C136.606 92.3267 137.236 86.2013 137.847 80.0733C138.365 74.7733 138.935 69.4747 139.267 64.1613C139.481 60.7267 137.828 59.0867 134.415 59.0627C126.8 59.008 119.191 59.044 111.577 59.044V59.0427ZM31.74 59.3093C31.6146 69.96 41.228 76.1907 49.2733 75.8853C58.5866 75.5307 65.1613 67.7747 64.9173 57.1693C64.7173 48.5027 57.276 41.644 48.2786 41.844C38.8466 42.0533 31.532 49.7787 31.74 59.3107V59.3093Z" fill="#3A3A3A"/>
<path d="M27.1548 118.097C28.3548 109.397 29.2561 100.919 31.5188 92.6533C31.6055 92.3347 31.6148 91.9387 31.8148 91.72C32.1428 91.3573 32.5988 91.1093 33.0001 90.8133C33.2028 91.2747 33.6308 91.7707 33.5668 92.192C33.2575 94.2133 32.7401 96.204 32.4348 98.2253C31.4441 104.793 30.5055 111.369 29.5668 117.945C29.4335 118.896 29.7615 120.212 28.4028 120.275C28.0188 120.289 27.5721 118.863 27.1548 118.097Z" fill="#3A3A3A"/>
<path d="M99.6199 70.7413C104.771 70.752 107.773 73.5987 108.2 79.3067C108.527 83.6693 107.533 87.7987 104.772 91.336C101.116 96.028 94.1413 96.4267 90.5373 92.192C89.1053 90.508 88.5199 88.4827 88.4186 86.3653C88.1813 81.4053 88.9333 76.716 92.9239 73.1947C94.8199 71.5213 97.0439 70.6213 99.6199 70.7413ZM104.757 81.088L104.427 80.9853C104.388 80.2653 104.367 79.5427 104.307 78.824C104.007 75.2333 101.885 73.5107 98.3586 74.088C95.9799 74.4773 94.3519 75.9653 93.3546 78.0773C92.1412 80.653 91.6623 83.5136 91.9706 86.344C92.3386 90.0253 94.7039 92.1387 98.0146 91.7333C100.377 91.444 102.056 90.0227 102.865 87.8973C103.701 85.708 104.143 83.3653 104.757 81.088Z" fill="#F7931B"/>
<path d="M115.707 85.6267C115.44 88.2413 115.069 90.6613 115.005 93.0933C114.964 94.676 114.505 95.3707 112.892 95.124C112.413 95.052 111.921 95.064 111.171 95.0227C111.333 93.0227 111.437 91.1027 111.652 89.2013C112.284 83.476 112.935 77.7507 113.652 72.0347C113.712 71.56 114.347 70.7827 114.719 70.7813C117.819 70.7813 120.944 70.7053 124.011 71.0773C127.413 71.488 129.337 73.6467 129.623 76.6773C129.984 80.5053 128.383 83.744 125.161 84.712C122.979 85.368 120.597 85.3787 118.299 85.62C117.488 85.6987 116.667 85.6267 115.707 85.6267ZM116.133 82.584C118.688 82.3987 120.963 82.3907 123.18 82.024C124.913 81.7387 125.884 80.1107 125.952 78.1573C126.012 76.4427 125.159 74.8627 123.599 74.5707C121.465 74.1707 119.264 74.1093 117.053 73.904C116.737 76.9173 116.459 79.5547 116.133 82.584Z" fill="#F7931B"/>
<path d="M105.781 106.811C100.945 106.811 96.1094 106.835 91.2747 106.777C90.728 106.771 90.1867 106.308 89.6414 106.056C90.1747 105.708 90.696 105.065 91.232 105.055C99.232 104.913 107.232 104.853 115.24 104.788C116.852 104.773 118.472 104.701 120.072 104.844C120.615 104.892 121.107 105.519 121.621 105.881C121.121 106.181 120.625 106.735 120.121 106.741C115.343 106.808 110.561 106.78 105.781 106.78V106.811Z" fill="#F7931B"/>
<path d="M53.3252 70.68C51.1412 70.4853 49.2345 69.9173 47.8799 68.28C47.5079 67.832 47.5359 67.0533 47.3799 66.4267C47.9319 66.588 48.5985 66.604 49.0132 66.936C50.6132 68.22 52.3172 68.8653 54.4105 68.4773C54.8932 68.388 55.4839 68.8773 56.0252 69.1027C55.6252 69.5333 55.2932 70.08 54.8079 70.36C54.3559 70.6253 53.7399 70.6027 53.3252 70.68Z" fill="#3A3A3A"/>
<path d="M60.6134 57.6347C60.5667 58.0733 60.668 58.6227 60.44 58.9267C60.02 59.4907 59.4067 59.9107 58.8734 60.3933C58.4307 59.8387 57.8067 59.344 57.5934 58.712C57.3691 58.0229 57.3762 57.2794 57.6134 56.5947C57.8494 55.9787 58.512 55.528 58.988 55.004C59.512 55.548 60.084 56.056 60.5347 56.656C60.6934 56.868 60.56 57.3013 60.56 57.6333L60.6134 57.6347Z" fill="#3A3A3A"/>
<path d="M47.1174 58.2933C47.5761 56.8027 47.4641 55.412 49.0988 55.1893C50.1508 55.0453 50.8094 56.396 50.6628 58.1587C50.6441 58.3773 50.6854 58.6693 50.5641 58.8C50.0308 59.3773 49.4388 59.9067 48.8694 60.4547L47.1174 58.2933Z" fill="#3A3A3A"/>
</svg>
