<svg width="160" height="160" viewBox="0 0 160 160" fill="none" xmlns="http://www.w3.org/2000/svg">
<path d="M44.2187 79.512C46.7947 80.344 49.2027 81.1347 51.62 81.8987C57.9391 83.8978 64.2605 85.8893 70.584 87.8733C73.504 88.792 76.42 89.72 79.3453 90.62C79.6339 90.6965 79.9384 90.6886 80.2227 90.5973C91.3409 87.096 102.457 83.5849 113.571 80.064C114.023 79.9213 114.461 79.7347 115.171 79.468C112.985 78.784 111.037 78.1653 109.083 77.5653C103.289 75.784 97.4925 74.0044 91.6933 72.2267C91.48 72.1613 91.196 72.1107 91.092 71.96C90.848 71.5933 90.508 71.148 90.5493 70.772C90.6093 70.2293 91.1307 69.9507 91.7107 70.06C92.2042 70.1671 92.6915 70.3006 93.1707 70.46C101.34 72.9507 109.512 75.4333 117.669 77.9627C118.336 78.1693 118.613 77.8693 118.936 77.4813C121.514 74.3827 124.087 71.28 126.655 68.1733L128.823 65.552C126.912 64.9547 125.104 64.368 123.283 63.8253C116.989 61.9489 110.693 60.0822 104.393 58.2253C102.564 57.6827 100.741 57.116 98.9147 56.564C98.064 56.3067 97.76 55.8853 97.9373 55.1827C98.088 54.5787 98.636 54.3493 99.4387 54.5853C105.123 56.26 110.809 57.9187 116.485 59.624C121.244 61.0507 125.988 62.524 130.739 63.976C131.797 64.3 132.044 64.9747 131.365 65.792C127.605 70.3253 123.835 74.8587 120.016 79.452C121.483 81.168 123.009 82.9347 124.513 84.7213C126.892 87.548 129.262 90.3827 131.623 93.2253C132.585 94.3853 132.372 94.9867 130.935 95.4373C127.4 96.544 123.868 97.676 120.337 98.784C119.915 98.9173 119.804 99.1387 119.804 99.572C119.828 106.105 119.821 112.631 119.845 119.161C119.853 121.304 119.921 123.447 119.971 125.589C120.003 127.003 120.008 127.003 118.696 127.448C113.165 129.318 107.636 131.191 102.107 133.067C95.04 135.467 87.9733 137.876 80.8853 140.231C80.2222 140.436 79.5125 140.436 78.8493 140.231C71.4933 137.78 64.1587 135.268 56.8173 132.779C51.5 130.976 46.1805 129.181 40.8587 127.393C40.0267 127.116 39.8013 126.569 39.8053 125.793C39.8253 122.06 39.8493 118.335 39.8467 114.605C39.8467 109.603 39.8093 104.599 39.812 99.596C39.812 99.0827 39.6533 98.8653 39.1613 98.7053C35.668 97.5613 32.1867 96.3827 28.7027 95.2133C27.7613 94.8987 27.5027 94.112 28.1427 93.332C30.3596 90.628 32.5925 87.9369 34.8413 85.2587C36.456 83.3387 38.1093 81.4507 39.7813 79.5067C38.1467 77.6027 36.5173 75.736 34.924 73.8387C32.6947 71.184 30.492 68.5053 28.2827 65.8387C27.5747 64.9813 27.804 64.2573 28.8507 63.9453L59.608 54.7707C60.4267 54.5253 61.0173 54.7293 61.232 55.34C61.4467 55.9507 61.0573 56.6053 60.324 56.8173C57.0613 57.7587 53.7907 58.668 50.532 59.6333C44.6653 61.3667 38.8107 63.14 32.952 64.8973C32.2853 65.0987 31.6187 65.3053 30.8427 65.5427C32.176 67.1547 33.4507 68.6947 34.7307 70.224C36.7227 72.6013 38.7307 74.9627 40.7067 77.3573C41.12 77.86 41.4627 77.9707 42.1147 77.7693C50.4027 75.2013 58.6973 72.6582 66.9987 70.14C67.6227 69.9493 68.2373 69.8653 68.6413 70.5507C68.9853 71.1373 68.6653 71.8093 67.9253 72.0387C64.9213 72.972 61.912 73.8907 58.9093 74.8267C54.2196 76.2907 49.5316 77.7609 44.8453 79.2373C44.6893 79.2907 44.544 79.3707 44.2187 79.512ZM80.84 94.744V137.991L117.907 125.64V99.64C116.715 100.04 115.609 100.44 114.495 100.8C107.309 103.128 100.133 105.467 92.9333 107.761C92.572 107.876 91.9174 107.727 91.6773 107.456C89.512 105.003 87.4107 102.497 85.2867 100.004C83.832 98.292 82.3853 96.5733 80.84 94.744ZM41.8987 99.6V100.533C41.8987 108.475 41.9093 116.417 41.8533 124.359C41.8533 125.243 42.0733 125.621 42.892 125.897C52.708 129.2 62.5107 132.533 72.324 135.851C74.4893 136.583 76.6787 137.245 78.8187 137.928V94.6867C78.4187 95.2293 78.152 95.6587 77.8307 96.0373C74.6747 99.7173 71.488 103.371 68.364 107.077C67.712 107.848 67.1027 108.011 66.1627 107.691C60.3973 105.736 54.616 103.824 48.84 101.903L41.8987 99.6ZM92.776 105.667L129.479 93.7907C125.817 89.4773 122.352 85.3907 118.888 81.3133C118.5 80.856 118.072 80.7067 117.481 80.9587C116.836 81.2333 116.161 81.4387 115.492 81.6493C105.634 84.7507 95.776 87.8489 85.9173 90.944C84.4507 91.404 82.984 91.856 81.4987 92.3173L92.776 105.667ZM77.9467 92.4C77.36 92.204 76.8347 92.0187 76.3027 91.8507C64.9009 88.232 53.5036 84.6107 42.1107 80.9867C41.5547 80.8107 41.276 80.936 40.9253 81.3573C38.4947 84.2907 36.032 87.1867 33.592 90.104C32.636 91.2467 31.7027 92.408 30.736 93.588C30.8749 93.6721 31.0197 93.7461 31.1693 93.8093C34.9027 95.052 38.636 96.2827 42.3613 97.532C50.2725 100.182 58.1782 102.842 66.0787 105.513C66.668 105.713 66.9987 105.612 67.3653 105.161C68.2907 104.028 69.2613 102.932 70.1933 101.804C72.7587 98.6987 75.3187 95.5853 77.9467 92.4Z" fill="#3A3A3A"/>
<path d="M72.4307 75.384C72.7093 72.1453 72.1907 69.3027 70.448 66.7893C69.7613 65.7987 68.9013 64.9293 68.132 63.9893C65.8493 61.212 64.256 58.0987 63.8907 54.4907C63.4027 49.676 64.7693 45.424 68.024 41.796C70.5147 39.02 73.5467 37.2853 77.252 36.8293C81.808 36.268 86.1027 36.9627 89.7213 39.9987C94.2187 43.7693 96.4893 48.5733 95.864 54.5173C95.5787 57.2413 94.5307 59.668 92.8653 61.9133C91.4173 63.8707 89.5787 65.544 88.548 67.8227C87.7573 69.568 87.2533 71.3467 87.2347 73.272C87.216 75.1973 87.2773 77.1213 87.0307 79.0053C86.7107 81.4587 85.1347 82.6147 82.716 82.5867C80.776 82.5627 78.836 82.6173 76.896 82.6173C76.5044 82.6119 76.1147 82.5613 75.7347 82.4667C73.8573 82.016 72.8387 80.8587 72.668 78.9347C72.5493 77.6867 72.4973 76.4213 72.4307 75.384ZM85.0093 72.2773C85.084 71.952 85.172 71.6587 85.2173 71.36C85.5907 68.928 86.4173 66.6733 87.904 64.6933C88.704 63.6387 89.564 62.6307 90.3853 61.5933C92.8147 58.5267 94.036 55.036 93.64 51.1427C92.8027 42.9067 84.44 37.076 76.468 39.2867C69.764 41.1453 66.22 46.004 66.0813 52.7773C66.012 56.1987 67.192 59.2893 69.3747 61.964C70.4253 63.252 71.5533 64.4867 72.4907 65.852C73.7947 67.752 74.4227 69.9427 74.744 72.264H78.724C78.7429 72.1363 78.7554 72.0077 78.7613 71.8787C78.7093 67.5013 78.6627 63.1253 78.5773 58.748C78.5773 58.492 78.3107 58.168 78.0787 58C76.848 57.1093 75.556 56.3 74.3533 55.376C73.7067 54.88 73.6667 54.0427 74.1667 53.5947C74.7133 53.104 75.2733 53.216 75.84 53.6533C76.888 54.46 77.9947 55.1947 79.0187 56.0307C79.6133 56.5147 80.0733 56.4573 80.6333 56.0307C81.7267 55.1867 82.8453 54.3747 83.9667 53.5587C84.4813 53.1813 85.1067 53.0867 85.468 53.6173C85.6947 53.9533 85.6293 54.5507 85.544 55.0093C85.4973 55.26 85.16 55.4827 84.9133 55.6653C83.8067 56.488 82.7067 57.3253 81.5573 58.088C81.0707 58.412 80.9147 58.7547 80.9187 59.3213C80.9573 63.4187 80.964 67.516 80.984 71.6133C80.984 71.828 81.02 72.044 81.04 72.28L85.0093 72.2773ZM74.6947 74.5613C74.6947 75.4947 74.6867 76.3693 74.6947 77.2413C74.6948 77.6084 74.7238 77.9748 74.7813 78.3373C75.0013 79.6253 75.6813 80.3373 76.9707 80.392C78.8373 80.4667 80.704 80.464 82.5627 80.392C83.38 80.36 84.4427 80.2667 84.6373 79.2827C84.944 77.736 84.9987 76.1387 85.16 74.564L74.6947 74.5613Z" fill="#F7931B"/>
<path d="M101.981 26.9707C101.804 27.4093 101.732 27.7507 101.549 28.0147C99.888 30.42 98.216 32.8151 96.5333 35.2C96.0947 35.8253 95.4667 35.9787 94.9333 35.6293C94.3307 35.2373 94.1853 34.592 94.6373 33.9453C96.376 31.4667 98.116 28.972 99.9293 26.5333C100.149 26.2387 100.821 26.1533 101.263 26.196C101.523 26.2253 101.733 26.6947 101.981 26.9707Z" fill="#F7931B"/>
<path d="M58.9333 25.9573C59.288 26.2053 59.6707 26.3573 59.876 26.632C61.6093 28.9907 63.3187 31.372 65.028 33.7507C65.536 34.4587 65.4907 35.108 64.928 35.5453C64.3227 36.0173 63.7707 35.9173 63.22 35.152C61.5093 32.7733 59.796 30.3947 58.1533 27.9733C57.908 27.6147 57.9093 27 57.996 26.5413C58.0307 26.3213 58.5333 26.188 58.9333 25.9573Z" fill="#F7931B"/>
<path d="M46.6973 43.98C47.908 44.4027 48.9 44.78 49.916 45.0947C51.7387 45.6453 53.572 46.1613 55.4067 46.668C56.0573 46.8493 56.496 47.1653 56.34 47.912C56.3069 48.0789 56.2391 48.237 56.141 48.376C56.0428 48.515 55.9165 48.6318 55.7703 48.7188C55.624 48.8058 55.4611 48.8611 55.2921 48.8811C55.1231 48.901 54.9518 48.8852 54.7893 48.8347C51.9813 47.9667 49.1893 47.0613 46.3893 46.1533C45.7853 45.9573 45.5053 45.436 45.74 44.8893C45.904 44.5093 46.3827 44.2667 46.6973 43.98Z" fill="#F7931B"/>
<path d="M104.325 48.8907C104.049 48.6 103.569 48.3013 103.415 47.8813C103.228 47.376 103.536 46.8973 104.111 46.7213C106.897 45.8653 109.683 45.0053 112.476 44.1733C113.097 43.9893 113.632 44.232 113.809 44.8773C113.995 45.5533 113.655 46.028 112.995 46.228C110.775 46.9013 108.548 47.5613 106.328 48.228C105.733 48.4 105.157 48.6133 104.325 48.8907Z" fill="#F7931B"/>
<path d="M80.9747 25.0133C80.9747 26.4507 80.9613 27.8867 80.9813 29.324C80.9893 29.9747 80.764 30.464 80.0933 30.5413C79.4013 30.6213 78.9693 30.2453 78.908 29.532C78.8733 29.1187 78.8827 28.7013 78.8827 28.2867C78.8827 25.7787 78.8547 23.2707 78.9133 20.7653C78.9227 20.3653 79.236 19.82 79.5667 19.6533C79.848 19.5107 80.404 19.7387 80.744 19.9533C80.9267 20.068 80.9693 20.4973 80.9733 20.788C80.996 22.196 80.9827 23.604 80.9827 25.0133H80.9747Z" fill="#F7931B"/>
</svg>
