<svg width="160" height="160" viewBox="0 0 160 160" fill="none" xmlns="http://www.w3.org/2000/svg">
<path d="M87.296 77.7453C86.5493 76.8573 85.8614 76.0027 85.1347 75.184C83.8334 73.7173 83.0334 72.1013 83.1 70.0587C83.1827 67.4907 83.2853 64.9027 83.064 62.3493C82.7147 58.3413 84.6787 55.7147 87.7707 53.6827C91.56 51.1893 95.8374 49.964 100.252 49.248C109.119 47.8107 117.933 48.0147 126.485 50.9667C128.909 51.804 131.181 53.2747 133.285 54.7893C135.389 56.304 136.444 58.552 136.312 61.3147C136.179 64.1853 136.321 67.0693 136.236 69.944C136.199 71.1853 135.889 72.4187 135.665 73.9027C136.051 74.2293 136.719 74.752 137.336 75.3293C139.097 76.9787 140.244 78.884 140.136 81.4373C140.033 83.704 140.017 85.9707 140.136 88.2293C140.288 91.0773 139.185 93.296 137.235 95.2653C136.684 95.8625 136.351 96.6284 136.291 97.4387C136.172 99.8813 136.165 102.336 136.263 104.781C136.396 107.963 134.953 110.303 132.54 112.141C128.384 115.309 123.495 116.675 118.453 117.325C110.085 118.411 101.712 118.291 93.6414 115.52C90.9307 114.587 88.364 113.032 85.9893 111.387C83.972 109.988 82.9734 107.807 83.0867 105.18C83.2054 102.431 83.1867 99.6707 83.108 96.9133C83.0387 94.4853 84.004 92.5933 85.5653 90.8133C86.2395 90.0081 86.6521 89.0165 86.748 87.9707C86.9173 85.6573 86.748 83.32 86.8254 80.9973C86.8627 79.8107 87.1587 78.632 87.296 77.7453ZM111.067 50.628C102.444 50.9173 96.7573 51.6573 91.524 54.24C89.675 55.1581 88.0044 56.3983 86.5907 57.9027C84.7107 59.928 84.7627 61.928 86.6733 63.9507C87.9853 65.3333 89.6 66.6333 91.3334 67.3973C102.388 72.276 113.709 72.1973 125.109 68.7307C127.995 67.8547 130.636 66.4387 132.679 64.1173C134.721 61.796 134.84 59.4587 132.633 57.2973C131.198 55.8923 129.537 54.7373 127.72 53.88C121.539 51.0107 114.897 50.6533 111.067 50.628ZM134.369 75.836C119.748 84.5747 104.833 84.112 89.5227 78.892C88.9133 80.7587 89.1787 82.3027 90.9334 83.8133C92.3467 85.0293 93.952 86.136 95.6494 86.88C103.221 90.232 111.237 90.6853 119.347 90.032C123.797 89.6747 128.193 88.8027 132.139 86.6C133.911 85.6107 135.533 84.252 136.988 82.8213C138.337 81.488 138.241 79.7867 137.017 78.3507C136.133 77.3187 135.037 76.46 134.371 75.836H134.369ZM89.124 85.5573C88.7054 91.2013 88.576 92.5973 95.0174 96.0653C95.615 96.3678 96.2329 96.6285 96.8667 96.8453C102.977 99.096 109.309 99.7133 115.776 99.4867C121.625 99.2813 127.348 98.4827 132.587 95.7187C137.577 93.0853 138.477 90.864 137.717 85.7053C127.313 94.9893 99.4187 94.644 89.124 85.5573ZM133.947 66.284C126.739 72.172 118.297 73.2373 109.68 73.2733C100.989 73.308 92.5467 72.0733 85.488 66.256C84.9427 71.656 85.1987 73.5533 90.9547 76.6987C91.2213 76.844 91.504 76.9533 91.7787 77.0827C95.8187 78.972 100.133 79.7227 104.524 80.104C112.22 80.7707 119.777 80.156 127.036 77.3253C132.832 75.0667 134.32 72.6587 133.947 66.284ZM85.4667 101.621C84.972 107.332 85.0547 108.981 91.3614 112.295C91.9019 112.577 92.462 112.82 93.0374 113.023C101.349 115.971 109.891 116.241 118.517 115.039C122.697 114.455 126.749 113.347 130.323 110.941C133.841 108.572 134.835 105.865 133.715 101.723C125.056 111.215 95.4413 111.271 85.4667 101.621ZM87.3587 92.456C84.7974 94.9747 84.5587 97.5227 87.092 99.7893C88.9187 101.419 91.092 102.875 93.3587 103.751C100.78 106.613 108.543 107.279 116.412 106.337C120.964 105.793 125.455 104.804 129.376 102.279C130.995 101.237 132.335 99.764 133.803 98.4867L133.383 97.912C132.799 98.1653 132.219 98.4293 131.628 98.6707C131.008 98.924 130.389 99.192 129.751 99.392C120.017 102.431 110.173 102.503 100.295 100.225C95.216 99.052 90.4774 97.212 87.352 92.456H87.3587Z" fill="#F7931B"/>
<path d="M43.2893 71.54C32.364 63.6133 31.8907 52.1573 35.74 43.928C39.632 35.604 48.4827 30.88 57.5893 32.1947C66.548 33.4853 73.8453 40.884 74.9533 50.288C76.112 60.1187 71.3693 69.416 61.4867 73.516C65.36 76.48 68.2253 80.2067 69.4253 84.8493C70.4107 88.664 71 92.6293 71.3013 96.564C71.948 104.981 72.316 113.42 72.748 121.853C72.8194 123.376 72.7565 124.902 72.56 126.413C72.5 126.88 71.8267 127.269 71.4333 127.693C71.068 127.189 70.616 126.723 70.3667 126.165C70.208 125.812 70.376 125.323 70.3573 124.895C70.0213 117.315 69.7933 109.728 69.2973 102.159C68.9667 97.108 68.4747 92.0467 67.6467 87.0573C66.8093 82.0093 63.8533 78.1147 59.6893 75.1907C59.088 74.768 58.12 74.5973 57.3733 74.6973C53.9533 75.152 50.696 74.3867 47.4133 73.648C46.684 73.484 45.848 73.4373 45.1333 73.62C38.0853 75.428 33.5907 80.1773 30.5693 86.5267C27.5027 92.9693 25.9253 99.8747 24.7347 106.841C23.6373 113.268 22.9773 119.775 22.0413 126.227C21.9467 126.879 21.3067 127.94 20.872 127.96C19.576 128.032 19.88 126.837 19.916 126.055C20.2973 117.739 21.68 109.564 23.4347 101.44C24.8427 94.9267 26.5627 88.5147 29.9533 82.712C33.004 77.4907 37.292 73.632 43.2893 71.54ZM72.84 53.2293C72.84 42.5853 64.764 34.3107 54.3733 34.3133C44.2267 34.3133 35.528 43.1333 35.812 53.5507C36.124 64.968 43.7333 71.88 55.584 72.1827C64.8253 72.4187 72.8373 63.42 72.84 53.2293Z" fill="#3A3A3A"/>
<path d="M34.1334 106.967C33.5587 109.672 32.9174 112.364 32.4254 115.083C31.7414 118.86 31.2107 122.665 30.5027 126.437C30.404 126.971 29.6734 127.371 29.236 127.833C28.9694 127.3 28.4187 126.721 28.4907 126.233C29.9387 116.351 31.8667 106.56 34.6374 96.9507C35.3159 94.6145 36.1111 92.3139 37.02 90.0573C37.2427 89.5027 38.0867 89.1933 38.636 88.772C38.8 89.3827 39.1787 90.0253 39.0974 90.6013C38.004 98.3347 36.8307 106.047 35.7107 113.771C35.104 117.936 34.5854 122.115 33.9267 126.271C33.84 126.812 33.1547 127.259 32.7467 127.749C32.5014 127.18 31.9854 126.577 32.0507 126.047C32.8134 119.937 33.664 113.839 34.4867 107.736C34.502 107.503 34.502 107.269 34.4867 107.036L34.1334 106.967Z" fill="#3A3A3A"/>
<path d="M61.5133 108.2C61.5133 102.271 61.4946 96.3427 61.5306 90.4133C61.5306 89.368 61.332 87.7907 62.812 87.8133C64.348 87.836 63.9546 89.3867 63.9413 90.4333C63.8546 97.34 63.5626 104.251 63.7173 111.152C63.8253 115.952 64.528 120.752 64.988 125.544C65.1013 126.731 65.472 128.001 63.432 127.456C62.688 127.257 61.7506 128.856 61.1653 127.423C60.8426 126.635 61.068 125.619 61.0666 124.705C61.0666 119.204 61.0666 113.702 61.0666 108.2H61.5133Z" fill="#3A3A3A"/>
<path d="M116.616 60.4267C117.369 61.132 118.412 61.7867 118.903 62.728C119.099 63.104 118.208 64.2893 117.569 64.788C116.931 65.2867 116.016 65.432 115.193 65.588C114.065 65.8093 112.912 65.8987 111.769 66.044L112.019 66.4907C111.161 67.0413 110.355 67.7467 109.419 68.048C109.139 68.1387 108.496 67.1 108.152 66.3693C106.916 65.9987 105.38 65.3027 104.852 67.0173C104.16 66.6973 103.597 66.3213 102.985 66.1853C102.344 66.0427 101.652 66.1653 100.985 66.1013C100.727 66.0773 100.345 65.9107 100.276 65.7173C100.207 65.524 100.423 64.972 100.535 64.9653C102.059 64.8893 101.427 63.5987 101.681 62.88C102.207 61.392 102.565 59.8453 102.967 58.316C103.137 57.6707 103.24 57.0067 103.4 56.2187L101.8 55.8667C102.037 55.616 102.14 55.4053 102.259 55.396C103.932 55.256 105.58 54.6253 107.192 56.0107C107.753 56.4933 109.076 56.088 110.052 56.088C110.001 55.9107 109.949 55.7333 109.899 55.5547C110.677 55.2333 111.46 54.668 112.232 54.6813C112.703 54.6907 113.157 55.5907 113.641 55.9C115.001 56.6667 116.408 57.3667 117.655 58.292C117.779 58.3787 116.933 59.7773 116.616 60.4267ZM114.792 62.7533C113.929 62.364 113.415 61.9707 112.863 61.912C111.356 61.7507 109.827 61.796 108.319 61.6373C106.452 61.4413 105.467 62.0373 105.816 64.212C108.645 63.7333 111.713 65.004 114.792 62.7533ZM106.101 59.7333C108.112 59.7333 110.065 59.7933 112.011 59.6867C112.448 59.6627 112.853 59.052 113.273 58.7107C112.887 58.4347 112.525 57.976 112.108 57.9173C111.024 57.7653 109.907 57.852 108.816 57.7253C107.392 57.5587 106.465 58.0227 106.101 59.7333Z" fill="#F7931B"/>
<path d="M58.4613 66.072C55.0307 65.856 52.716 65.248 50.8947 63.3947C50.2773 62.7653 49.668 62.0893 50.5347 61.2133C51.4013 60.3373 51.9107 61.0893 52.4867 61.6453C54.8067 63.8813 58.7533 64.2067 61.6427 62.5347C62.0973 62.268 62.8427 62.5133 63.4533 62.5213C63.2587 63.1467 63.2413 64.1373 62.836 64.336C61.1813 65.1453 59.4093 65.712 58.4613 66.072Z" fill="#3A3A3A"/>
<path d="M55.2533 52.144C55.1266 52.5373 55.0093 53.2773 54.6693 53.8973C53.8693 55.3547 52.2093 55.392 51.5586 53.8747C51.1293 52.876 50.932 51.592 51.1586 50.5547C51.3426 49.728 52.332 49.088 52.9653 48.356C53.684 49.08 54.4573 49.76 55.0986 50.552C55.3173 50.828 55.2 51.3787 55.2533 52.144Z" fill="#3A3A3A"/>
<path d="M62.2547 52.112C62.2147 50.3413 63.2413 48.7147 64.388 48.724C65.4213 48.7333 66.4893 50.256 66.5213 51.7613C66.5547 53.4947 65.5533 55.1853 64.4573 55.244C63.3333 55.3027 62.292 53.836 62.2547 52.112Z" fill="#3A3A3A"/>
</svg>
