<svg width="160" height="160" viewBox="0 0 160 160" fill="none" xmlns="http://www.w3.org/2000/svg">
<path d="M78.1653 85.6267C77.995 85.8767 77.8074 86.1147 77.604 86.3387C77.204 86.7147 76.6267 87.436 76.404 87.3413C75.8813 87.1253 75.3107 86.5627 75.176 86.0333C75.0853 85.6787 75.6267 85.0493 76.0253 84.7C77.2133 83.6693 78.4853 82.74 79.6893 81.7267C80.1747 81.3187 80.6667 80.8533 80.9693 80.3093C81.2187 79.86 81.1907 79.2573 81.2853 78.7227C80.8067 78.7093 80.2787 78.556 79.856 78.7027C76.9347 79.72 74.492 81.4627 72.4547 83.7813C70.4173 86.1 68.464 88.508 66.3213 90.736C62.7427 94.4693 61.512 94.2333 59.012 89.748C56.6893 85.584 54.252 81.4813 51.9053 77.3333C51.2973 76.2573 50.5547 75.8107 49.2573 75.856C47.524 75.9173 45.6827 75.9813 44.0573 75.4787C39.3173 74.012 35.78 76.2 32.54 79.0493C28.644 82.4747 26.736 87.1227 25.4173 92.0147C22.9453 101.2 21.7187 110.587 21.1147 120.068C21.0493 121.093 21.4787 122.9 19.752 122.721C18.0027 122.54 18.864 120.869 18.9867 119.857C19.9093 112.24 20.664 104.591 21.9533 97.0333C22.9987 90.9 24.8173 84.916 28.7907 79.88C31.1493 76.8907 34.188 74.8 37.74 73.372C27.144 65.5627 26.94 54.572 30.4533 47.0627C34.2973 38.8587 42.2773 34.776 49.8827 35.44C59.776 36.3013 66.12 43.3253 67.668 52.732C69.24 62.2947 64.4387 70.092 53.548 75.6293L62.4 91.188C63.044 90.6973 63.5933 90.38 64.0133 89.94C67.36 86.448 70.7 82.9493 73.9853 79.4067C74.316 79.0507 74.3733 78.3493 74.3853 77.8067C74.496 71.6813 74.5627 65.556 74.6613 59.4307C74.7253 55.492 76.0667 54.052 79.9453 53.46C88.064 52.22 95.8747 50.1267 102.516 44.9573C103.205 44.424 103.877 43.86 104.563 43.316C107.057 41.336 108.272 41.3347 110.696 43.4253C114.812 46.9707 119.451 49.5973 124.676 51.036C128.305 52.036 132.035 52.6787 135.72 53.476C136.401 53.6227 137.1 53.704 137.768 53.8933C140.125 54.56 141.424 56.1493 141.329 58.6253C141.036 66.3147 140.731 74.004 140.263 81.684C139.935 87.1413 139.209 92.5467 137.273 97.7293C133.089 108.933 124.999 116.485 114.6 121.781C107.019 125.648 108.592 125.508 101.336 121.803C91.6867 116.876 83.6587 110.133 78.856 100.143C77.8307 98.0093 77.096 95.7427 76.1173 93.248C75.168 94.2427 74.2293 95.296 73.216 96.2707C71.3333 98.0867 69.5253 100.016 67.4667 101.611C63.8013 104.447 60.66 104.3 57.0093 101.397C56.1933 100.749 55.4707 99.9827 54.5533 99.1307C54.4107 101.731 54.2293 104.237 54.1453 106.748C53.98 111.763 53.8667 116.779 53.7387 121.795C53.7173 122.617 53.828 123.661 52.624 123.46C52.2147 123.392 51.6627 122.393 51.6773 121.829C51.9502 111.451 52.2827 101.074 52.6747 90.6987C52.6933 90.1947 53.3187 89.7133 53.6613 89.2213C54.0147 89.74 54.4853 90.2187 54.6813 90.7907C54.8387 91.252 54.6587 91.8267 54.6347 92.3507C54.4467 96.5147 57.5987 100.617 61.716 101.325C62.66 101.487 63.916 101.28 64.6787 100.744C66.668 99.3507 68.4893 97.7107 70.3267 96.112C72.4689 94.2453 74.58 92.3458 76.66 90.4133C77.416 89.712 78.1733 88.9547 78.7053 88.0853C79.2 87.2813 79.2533 86.324 78.1653 85.6267ZM80.0853 84.5267C81.6547 87.06 81.5027 88.7107 79.2413 90.8493C78.4413 91.6093 78.224 92.2707 78.5973 93.2413C79.4733 95.508 80.108 97.908 81.232 100.041C86.876 110.784 96.1347 117.375 106.997 122.032C107.544 122.267 108.371 122.14 108.967 121.916C114.465 119.839 119.387 116.773 123.852 112.973C130.992 106.901 135.467 99.2533 137.067 90.008C138.856 79.6307 138.848 69.12 139.211 58.6373C139.267 57.004 138.428 56.2733 137.044 55.9707C135.625 55.66 134.183 55.4573 132.748 55.224C124.18 53.8253 116.207 51.0413 109.444 45.3573C107.515 43.736 107.475 43.8 105.423 45.504C100.935 49.228 95.9693 52.084 90.2773 53.4933C86.6173 54.3987 82.9053 55.0933 79.2253 55.9173C77.892 56.216 76.864 56.8293 76.84 58.4507C76.7493 64.5173 76.616 70.584 76.5067 76.6507C76.5228 76.9616 76.5621 77.2709 76.624 77.576C77.6907 77.1867 78.624 76.8867 79.5267 76.5093C80.9933 75.8933 82.2253 76.3387 83.0987 77.4893C84.0133 78.6893 83.7547 80.0507 82.8853 81.2067C82.0467 82.3267 81.0893 83.348 80.0853 84.5333V84.5267ZM48 37.5853C38.476 37.6733 30 46.5 30.6667 57.1573C31.2373 66.2027 38.5547 74.5253 49.9573 73.8027C59.024 73.228 66.1107 64.512 65.6307 54.2653C65.2 44.8213 57.04 37.1053 48 37.5853Z" fill="#3A3A3A"/>
<path d="M28.0387 120.9C29.6174 110.829 31.164 100.852 32.7907 90.888C32.8694 90.4053 33.6427 90.036 34.0934 89.6147C34.34 90.1853 34.8694 90.8 34.7867 91.3187C34.232 94.8133 33.4107 98.2667 32.9334 101.771C32.068 108.159 31.3734 114.571 30.6334 120.971C30.536 121.815 30.7827 122.981 29.5374 122.863C29.044 122.821 28.6454 121.733 28.0387 120.9Z" fill="#3A3A3A"/>
<path d="M96.988 77.8067C97.164 75.1787 97.132 72.5373 97.56 69.9733C98.2814 65.6493 101.449 62.8973 105.827 62.5627C107.265 62.452 108.769 62.4573 110.172 62.752C114.665 63.692 117.288 67.048 117.468 71.9253C117.539 73.8453 117.479 75.7707 117.479 77.2667C119.028 78.3933 120.692 79.0747 121.461 80.312C122.247 81.576 122.363 83.3787 122.403 84.956C122.513 89.3307 122.331 93.712 122.457 98.084C122.565 101.817 119.643 104.449 116.1 104.316C110.156 104.092 104.199 104.256 98.2467 104.248C94.5627 104.248 92.272 101.992 92.24 98.268C92.1987 93.5413 92.2227 88.8147 92.2174 84.088C92.2134 80.2573 93.4267 78.6747 96.988 77.8067ZM107.333 80.1587C104.181 80.1587 101.029 80.1227 97.8787 80.1707C95.4721 80.2067 94.3627 81.3707 94.3574 83.7507C94.3467 88.4778 94.3467 93.2049 94.3574 97.932C94.3667 100.653 95.8614 102.14 98.5747 102.144C104.41 102.155 110.246 102.155 116.083 102.144C118.831 102.144 120.259 100.712 120.267 97.944C120.28 93.2773 120.267 88.6107 120.267 83.9373C120.267 81.252 119.273 80.204 116.605 80.164C113.523 80.1333 110.429 80.1573 107.333 80.1587ZM115.34 77.944C115.34 75.8387 115.487 73.8573 115.309 71.9053C114.933 67.672 113.067 65.6267 109.128 64.8C105.339 64.008 101.339 65.7733 100.14 68.8373C98.9894 71.7813 99.2347 74.844 99.372 77.94L115.34 77.944Z" fill="#F7931B"/>
<path d="M52.1627 68.612C49.6627 68.2867 47.42 67.7427 45.7214 65.9533C45.348 65.56 45.164 64.5173 45.4214 64.0933C45.9907 63.152 46.5974 63.7667 47.204 64.3533C49.264 66.34 52.9254 66.6907 55.6467 65.1827C56.3547 64.7907 57.1294 64.296 57.4907 65.2867C57.656 65.7387 57.1547 66.8267 56.6907 67.0467C55.248 67.7187 53.68 68.1107 52.1627 68.612Z" fill="#3A3A3A"/>
<path d="M49.1894 54.0827C49.2094 56.4147 48.344 57.748 47.0974 57.6707C45.9134 57.5973 44.984 56.0267 45.0974 54.2667C45.12 53.924 45.116 53.4973 45.3094 53.2613C45.8534 52.5947 46.4574 51.5693 47.1054 51.516C47.6934 51.468 48.4387 52.4573 48.972 53.1027C49.2374 53.408 49.172 53.9787 49.1894 54.0827Z" fill="#3A3A3A"/>
<path d="M60.0334 54.7347C60.0201 56.4987 59.2054 57.7387 58.0547 57.752C56.8307 57.7653 55.8734 56.4253 55.8694 54.6947C55.8694 53.1027 56.8547 51.7067 57.9707 51.7293C59.0867 51.752 60.0454 53.164 60.0334 54.7347Z" fill="#3A3A3A"/>
<path d="M107.537 85.9853C108.633 86.868 109.889 87.4053 110.239 88.296C110.588 89.1867 110.401 91 109.785 91.4107C108.241 92.4373 108.332 93.72 108.363 95.1547C108.379 95.9547 108.523 96.9587 107.325 96.956C106.128 96.9533 106.271 95.9667 106.259 95.152C106.259 93.736 106.383 92.4067 105.108 91.2027C104.556 90.68 104.565 89.0547 104.941 88.2053C105.317 87.356 106.476 86.8453 107.537 85.9853Z" fill="#F7931B"/>
</svg>
