<svg width="160" height="160" viewBox="0 0 160 160" fill="none" xmlns="http://www.w3.org/2000/svg">
<path d="M78.02 70.7733C80.5667 68.9067 83.068 67.072 85.5507 65.216C85.8479 64.9807 86.0832 64.6763 86.236 64.3293C88.9027 58.3293 91.5587 52.3213 94.244 46.2493C91.7 44.348 90.3267 41.768 90.3027 38.516C90.2867 36.1227 90.9947 33.968 92.576 32.1467C95.5827 28.68 100.585 27.624 104.787 30.1347C108.627 32.4293 110.579 36.8013 109.137 41.2693C108.337 43.7307 106.773 45.576 104.576 46.8773C102.347 48.1987 99.9333 48.364 97.3947 47.8013L92.6907 58.4C92.7227 58.4467 92.7427 58.5107 92.7827 58.5333C94.2693 59.1667 94.8627 60.4853 94.6947 62.1773C94.5978 63.1115 94.2147 63.993 93.5977 64.7011C92.9808 65.4092 92.1601 65.9095 91.248 66.1333C90.8206 66.2366 90.3824 66.2885 89.9427 66.288C89.5787 66.288 89.3507 66.364 89.2373 66.7387C89.1241 67.0244 88.9904 67.3015 88.8373 67.568L95.1613 70.416C94.7093 71.44 94.272 72.428 93.812 73.468L90.1587 71.8267L89.292 73.7107C90.324 74.216 91.324 74.728 92.344 75.1933C92.7173 75.364 92.7373 75.5413 92.576 75.8747C92.2027 76.6453 91.8587 77.432 91.4733 78.2747C90.3187 77.7347 89.2067 77.216 88.0413 76.6667C87.6947 77.3947 87.352 78.116 86.9987 78.856L90.216 80.6493C89.86 81.4213 89.5493 82.144 89.1973 82.8493C88.9427 83.3627 88.5227 83.2027 88.156 83.0133C86.876 82.3467 85.6053 81.6667 84.332 80.992C83.772 80.696 83.2093 80.4067 82.652 80.1053C82.4093 79.972 82.236 79.972 82.012 80.1947C81.1627 81.0467 80.5173 80.952 79.84 79.956C79.7533 79.8227 79.4867 79.7667 79.3067 79.768C76.2516 79.7947 73.1969 79.8298 70.1427 79.8733C70.04 79.8733 69.9387 79.8893 69.8093 79.8987C69.7773 80.2507 69.728 80.58 69.72 80.9107C69.6311 84.6716 69.5524 88.4324 69.484 92.1933C69.4845 92.5067 69.5508 92.8165 69.6787 93.1027C72.2218 98.876 74.7733 104.645 77.3333 110.411C77.9747 111.853 78.184 113.377 78.2747 114.929C78.4524 117.959 78.6244 120.988 78.7907 124.019C78.9107 126.239 79.0133 128.46 79.1307 130.685C79.2213 132.392 79.3213 134.1 79.42 135.859C80.2747 135.963 81.112 136.039 81.9413 136.173C83.308 136.397 84.68 136.612 86.028 136.923C86.9053 137.124 87.3013 137.836 87.176 138.675C87.1193 139.055 86.9215 139.401 86.6218 139.642C86.3222 139.884 85.9427 140.004 85.5587 139.979C84.3453 139.939 83.132 139.845 81.9227 139.743C80.7133 139.64 79.5 139.533 78.3013 139.343C77.0147 139.144 76.48 138.527 76.3973 137.209C76.2933 135.572 76.2467 133.932 76.1587 132.293C76.0387 130.027 75.892 127.751 75.7733 125.479C75.684 123.823 75.6187 122.165 75.524 120.509C75.3907 118.243 75.336 115.957 75.064 113.703C74.9467 112.724 74.4067 111.788 73.9973 110.856C71.6053 105.345 69.1867 99.8467 66.8147 94.3227C66.58 93.7773 66.3413 93.6107 65.76 93.628C62.248 93.7293 58.7347 93.7867 55.2267 93.86C55.126 93.8682 55.0258 93.882 54.9267 93.9013C55.0907 95.1213 55.2427 96.3227 55.4147 97.5213C55.6813 99.388 55.9551 101.249 56.236 103.104C56.756 106.545 57.272 109.988 57.8147 113.427C57.9773 114.461 57.9227 115.436 57.508 116.419C55.0787 122.188 52.68 127.96 50.2667 133.733C49.9693 134.444 49.656 135.149 49.3267 135.912C49.9387 136.109 50.5267 136.297 51.1227 136.491C52.3053 136.877 53.5013 137.229 54.6667 137.663C55.9613 138.145 56.248 139.733 55.1667 140.539C54.766 140.814 54.2743 140.923 53.7947 140.844C52.2733 140.501 50.7787 140.044 49.2787 139.609C48.4533 139.372 47.6333 139.111 46.8187 138.836C45.8613 138.515 45.3907 137.725 45.7067 136.768C46.1133 135.537 46.6133 134.335 47.1133 133.136C49.5453 127.3 51.9667 121.46 54.4533 115.648C54.8933 114.619 54.628 113.685 54.4933 112.715C54.2093 110.66 53.888 108.611 53.5853 106.559C53.24 104.228 52.8813 101.892 52.5573 99.5653C52.244 97.2987 51.9027 95.032 51.6867 92.7653C51.3787 89.5013 51.1533 86.232 50.9307 82.96C50.7627 80.5507 50.632 78.1373 50.5053 75.724C50.2867 71.5493 50.088 67.372 49.8747 63.1907C49.7267 60.2893 51.692 57.6267 54.912 57.132C56.228 56.9307 57.588 57.0093 58.928 56.9787C60.7107 56.936 62.4947 56.9427 64.2773 56.8693C66.4533 56.78 68.0107 57.72 69.2733 59.46C71.156 62.056 73.1467 64.5747 75.1067 67.1147C76.0547 68.3347 77.036 69.536 78.02 70.7733ZM66.6267 90.5627C66.6267 88.296 66.612 86.1093 66.6267 83.92C66.6413 82.26 66.68 80.6 66.752 78.9427C66.7681 78.773 66.7453 78.6018 66.6855 78.4422C66.6257 78.2826 66.5303 78.1387 66.4067 78.0213C63.2351 74.6791 60.0716 71.328 56.916 67.968C56.4106 67.4511 55.9373 66.9039 55.4987 66.3293C54.9827 65.6253 55.1253 64.596 55.7293 64.1227C56.3333 63.6493 57.196 63.752 57.84 64.3653C57.916 64.4387 57.9933 64.512 58.0653 64.5893C60.2173 66.9004 62.3693 69.2151 64.5213 71.5333C65.2507 72.316 65.988 73.0867 66.7293 73.8627L66.876 73.828C66.876 73.0427 66.856 72.256 66.876 71.4707C66.964 68.436 67.084 65.4013 67.152 62.3653C67.184 60.8987 66.2093 59.9253 64.752 59.9347C61.7853 59.956 58.8187 59.9907 55.8533 60.068C54.04 60.1133 52.7973 61.4427 52.844 63.256C52.8907 65.0693 52.984 66.8893 53.076 68.704C53.1987 71.1173 53.3427 73.5307 53.476 75.944C53.556 77.424 53.6213 78.904 53.708 80.3827C53.8413 82.5307 53.968 84.6787 54.116 86.8253C54.2067 88.1373 54.3293 89.448 54.444 90.8253L66.6267 90.5627ZM106.4 38.4493C106.437 35.044 103.476 32.14 99.9733 32.0493C96.5067 31.956 93.656 34.8013 93.5373 37.9587C93.3827 42.0813 96.4427 44.6 99.552 44.8093C102.956 45.0347 106.488 42.196 106.4 38.4493ZM83.048 70.8893L82.9747 70.8587C81.7471 71.7733 80.5196 72.6871 79.292 73.6C78.024 74.5467 77.0613 74.4413 76.0533 73.2133C74.824 71.7133 73.6107 70.2 72.3947 68.6893C71.6613 67.7787 70.9373 66.8613 70.128 65.844C70.016 69.5653 69.908 73.152 69.7973 76.7947C70.0467 76.7947 70.236 76.7947 70.4267 76.7947C73.5667 76.7253 76.7067 76.6613 79.8453 76.5653C80.0373 76.5653 80.288 76.324 80.396 76.1307C80.8067 75.396 81.172 74.6373 81.5507 73.884C82.0502 72.8876 82.5493 71.8893 83.048 70.8893Z" fill="#3A3A3A"/>
<path d="M49.652 43.6413C49.576 39.0653 53.1293 34.488 57.9186 33.3093C61.312 32.4733 64.36 33.32 67.0533 35.508C69.2173 37.2667 70.5866 39.5253 71.028 42.272C71.5386 45.4427 70.88 48.364 68.832 50.904C67.1506 52.9907 65.0466 54.428 62.38 54.8933C58.3666 55.5947 54.9773 54.3947 52.2466 51.3747C50.4 49.344 49.6453 46.912 49.652 43.6413ZM52.5853 44.1387C52.6346 44.6107 52.6693 45.084 52.7359 45.552C53.3213 49.632 57.2693 52.6773 61.3173 52.0787C64.9906 51.536 68.1386 48.4787 68.1813 44.296C68.2093 41.564 67.0186 39.3733 64.8933 37.688C63.0706 36.2427 60.992 35.7547 58.74 36.2787C55.0879 37.128 52.616 40.3533 52.5893 44.1333L52.5853 44.1387Z" fill="#3A3A3A"/>
<path d="M114.391 25.708C114.185 26.02 114.072 26.32 113.857 26.4973C112.678 27.4751 111.483 28.4315 110.272 29.3667C110.173 29.4483 110.059 29.5082 109.935 29.5423C109.812 29.5763 109.683 29.5838 109.556 29.5643C109.43 29.5448 109.309 29.4986 109.201 29.4289C109.094 29.3593 109.003 29.2676 108.933 29.16C108.696 28.776 108.745 28.4027 109.095 28.12C110.365 27.088 111.635 26.0533 112.939 25.064C113.067 24.988 113.21 24.9418 113.359 24.9286C113.507 24.9155 113.656 24.9357 113.796 24.988C114.037 25.096 114.179 25.436 114.391 25.708Z" fill="#F7931B"/>
<path d="M98.3 24.468C98.316 24.8947 98.1267 25.18 97.7027 25.268C97.1787 25.3813 96.808 25.2067 96.656 24.7133C96.3893 23.876 96.1853 23.024 95.9413 22.18C95.756 21.54 95.5413 20.908 95.3587 20.268C95.2053 19.7347 95.4133 19.3347 95.892 19.1747C96.3533 19.0227 96.876 19.2227 97.0147 19.6933C97.464 21.224 97.872 22.76 98.2947 24.304C98.3037 24.3582 98.3055 24.4133 98.3 24.468Z" fill="#F7931B"/>
<path d="M105.636 19.4493C106.233 19.4667 106.632 19.9467 106.451 20.516C105.975 22.036 105.468 23.5467 104.955 25.0493C104.807 25.4867 104.421 25.6293 103.973 25.4813C103.525 25.3333 103.289 24.9627 103.415 24.4987C103.597 23.8227 103.815 23.1547 104.024 22.4867C104.291 21.6533 104.573 20.824 104.848 19.9933C104.973 19.6213 105.219 19.4147 105.636 19.4493Z" fill="#F7931B"/>
</svg>
