<svg width="160" height="160" viewBox="0 0 160 160" fill="none" xmlns="http://www.w3.org/2000/svg">
<path d="M79.6639 84.5853C80.0745 87.5787 80.4759 90.5587 80.8932 93.536C81.4199 97.2813 81.9679 101.023 82.4932 104.768C82.8799 107.527 83.2332 110.289 83.6212 113.048C83.9545 115.425 84.3266 117.796 84.6612 120.172C85.0092 122.639 85.3372 125.105 85.6652 127.576C85.9065 129.395 86.1159 131.217 86.3852 133.032C86.4239 133.299 86.6719 133.596 86.9079 133.749C88.0239 134.481 89.1745 135.152 90.3012 135.875C91.6146 136.719 91.9719 138.247 91.1252 139.392C90.6359 140.059 89.9385 140.347 89.1252 140.348C85.8265 140.348 82.5283 140.348 79.2305 140.348C78.1519 140.348 77.4386 139.76 77.2186 138.699C76.2132 133.857 75.2266 129.012 74.2092 124.165C73.1621 119.195 72.1008 114.227 71.0252 109.261C69.9479 104.25 68.8661 99.2395 67.7799 94.2307C67.7425 94.0587 67.6905 93.8893 67.6105 93.588C66.8785 96.908 66.1679 100.089 65.4772 103.276C64.3581 108.44 63.247 113.607 62.1439 118.775C61.2372 123.041 60.3519 127.308 59.4612 131.575C58.9492 134.027 58.4545 136.483 57.9346 138.933C57.7546 139.78 57.0599 140.332 56.0879 140.337C52.4879 140.359 48.8999 140.371 45.3052 140.337C43.9292 140.324 42.8692 139.317 42.5719 137.92C42.3439 136.841 43.1052 135.233 44.1492 134.691C45.4941 133.995 46.8528 133.324 48.2252 132.679C48.6746 132.467 48.9012 132.228 48.9719 131.689C49.3799 128.569 49.8625 125.459 50.2905 122.341C50.7719 118.841 51.2132 115.336 51.6892 111.836C52.0706 109.036 52.4892 106.236 52.8732 103.436C53.2185 100.903 53.5279 98.36 53.8679 95.824C54.1572 93.6693 54.4705 91.5187 54.7652 89.3653C54.9852 87.7653 55.1932 86.1653 55.4319 84.3667C55.1772 84.644 55.0519 84.7667 54.9439 84.9C52.6692 87.7107 49.3305 87.0333 47.4705 84.7013C43.7972 80.0813 40.1759 75.4213 36.5279 70.78C34.1012 67.6907 35.1759 64.5133 37.4612 62.6613C38.2199 62.0467 38.9852 61.44 39.7506 60.8333C44.051 57.4147 48.3501 53.9947 52.6479 50.5733C54.0279 49.468 55.5506 48.868 57.3292 48.8707C64.1292 48.884 70.9292 48.928 77.7292 48.8467C79.9572 48.82 81.7639 49.5227 83.4359 50.928C86.2519 53.2933 89.1412 55.5733 91.9892 57.9027C93.8879 59.456 95.7479 61.0573 97.6612 62.592C100.345 64.7467 100.595 68.2947 98.5465 70.876C95.4199 74.8 92.3186 78.7373 89.1999 82.6667C88.5652 83.4667 87.9585 84.296 87.2559 85.0333C85.5105 86.8627 82.9679 87.224 81.1012 85.9213C80.5932 85.5667 80.1785 85.0667 79.6639 84.5853ZM86.6825 137.34L86.7346 137.207C85.9466 136.639 85.1345 136.095 84.3799 135.493C84.0772 135.252 83.7132 134.911 83.6532 134.569C83.3226 132.536 83.0772 130.488 82.7999 128.445C82.4692 125.999 82.1439 123.552 81.8026 121.112C81.4146 118.332 81.0026 115.555 80.6186 112.775C80.1919 109.708 79.7919 106.627 79.3572 103.556C78.9759 100.867 78.5452 98.184 78.1652 95.496C77.7532 92.58 77.3386 89.664 76.9999 86.74C76.8172 85.1653 76.6292 83.5627 76.7332 81.9907C76.9292 78.8227 77.3079 75.6667 77.6332 72.5093C78.0261 68.6978 78.4332 64.8871 78.8545 61.0773C78.9292 60.3893 79.0705 59.7133 79.8465 59.4427C80.5279 59.2053 81.0359 59.5947 81.5212 59.9627C84.3292 62.08 87.1212 64.2213 89.9305 66.3347C91.5692 67.5653 91.6732 68.468 90.4065 69.7773C90.3913 69.7944 90.3775 69.8127 90.3652 69.832C88.0799 72.8813 85.7826 75.9227 83.5186 78.988C82.9314 79.762 82.4155 80.5876 81.9772 81.4547C81.6052 82.216 82.0146 83.1293 82.7452 83.5533C83.5999 84.048 84.4426 83.82 85.3186 82.724C88.8999 78.2627 92.4674 73.7893 96.0212 69.304C97.4879 67.4373 97.2932 66.1373 95.4452 64.6547C95.3932 64.612 95.3372 64.5733 95.2839 64.5307C90.9105 60.944 86.5039 57.4 82.1839 53.7507C80.5999 52.4173 78.9305 51.816 76.8506 51.844C70.6652 51.928 64.4759 51.8867 58.2892 51.8653C56.7788 51.8431 55.3083 52.3508 54.1332 53.3C49.2559 57.1222 44.3759 60.9444 39.4932 64.7667C37.8386 66.0587 37.6626 67.4947 38.9706 69.148C41.8346 72.756 44.6901 76.3733 47.5372 80C48.3665 81.052 49.1812 82.1173 50.0439 83.1413C50.6199 83.8253 51.3412 83.96 52.0439 83.6253C52.7225 83.304 53.1879 82.4813 53.0159 81.7027C52.905 81.2421 52.7057 80.8074 52.4292 80.4227C51.4959 79.0893 50.5239 77.772 49.5546 76.4587C47.7639 74.032 45.9372 71.6307 44.1812 69.1787C43.4079 68.0987 43.6292 67.2667 44.6972 66.512C46.8243 65.0009 48.9492 63.4898 51.0719 61.9787C52.1999 61.1787 53.3039 60.344 54.4719 59.608C55.3506 59.0547 56.3905 59.4973 56.5652 60.4213C56.6532 60.8867 56.6772 61.3653 56.7239 61.8387C56.8759 63.3747 57.0266 64.9102 57.1759 66.4453C57.3919 68.7031 57.6052 70.9613 57.8159 73.22C57.9865 75.0493 58.1665 76.8773 58.3159 78.708C58.4359 80.1747 58.7012 81.6707 58.5745 83.124C58.3332 85.924 57.8639 88.696 57.4799 91.4773C57.0986 94.236 56.6972 96.992 56.3172 99.7507C55.9279 102.579 55.5559 105.408 55.1705 108.235C54.7825 111.084 54.3839 113.932 53.9985 116.781C53.6599 119.273 53.3426 121.768 52.9999 124.26C52.6119 127.06 52.1585 129.86 51.8279 132.669C51.6652 134.047 51.1839 134.967 49.7466 135.381C48.6279 135.703 47.5839 136.291 46.5145 136.777C46.2959 136.876 46.1146 137.053 45.8306 137.253C45.9387 137.297 46.0508 137.331 46.1652 137.353C49.0079 137.361 51.8505 137.377 54.6985 137.353C54.8865 137.353 55.1852 137.055 55.2399 136.845C55.5848 135.512 55.8981 134.172 56.1799 132.825C57.2252 127.852 58.2399 122.872 59.2932 117.901C60.0999 114.1 60.9519 110.309 61.7745 106.513C62.8412 101.589 63.8865 96.6613 64.9612 91.74C65.2679 90.332 66.1052 89.6067 67.3705 89.568C68.8999 89.5133 69.6812 90.028 70.1145 91.5413C70.4865 92.8413 70.7639 94.1693 71.0479 95.492C72.8541 103.859 74.6541 112.227 76.4479 120.596C77.2185 124.196 77.9559 127.804 78.7146 131.409C79.1279 133.392 79.5412 135.373 79.9545 137.352L86.6825 137.34ZM55.0825 78.856L55.2492 78.7947C54.8012 73.8213 54.3532 68.848 53.8959 63.776L47.2985 68.2507L55.0825 78.856ZM81.6266 63.724L80.1332 78.2893L80.2879 78.3347L87.6346 68.2573L81.6266 63.724Z" fill="#3A3A3A"/>
<path d="M106.096 103.029C115.163 103.068 122.629 109.248 124.448 117.755C126.2 125.947 122.095 134.228 115.236 137.977C112.029 139.767 108.344 140.513 104.693 140.111C99.76 139.591 95.7026 137.433 92.56 133.64C90.4068 131.05 89.0098 127.917 88.5226 124.584C87.5706 118.375 89.3426 112.996 93.628 108.493C96.492 105.487 100.055 103.683 104.228 103.209C104.967 103.119 105.713 103.067 106.096 103.029ZM121.752 122.2C122.111 114.884 116.752 107.067 108 106.372C98.9746 105.661 92.012 111.945 91.4306 120.739C90.8666 129.285 97.232 136.76 105.981 137.179C114.033 137.565 121.564 130.992 121.752 122.2Z" fill="#F7931B"/>
<path d="M67.8547 19.6507C76.148 19.384 81.444 26.304 81.704 32.7947C82.0347 41.0427 75.024 47.032 68.1787 47.0613C60.2 47.1027 54.3814 40.8947 54.1627 33.7733C53.9134 25.7413 59.968 19.5667 67.8547 19.6507ZM57.224 33.2667C57.0294 39.02 62.2147 44.172 67.9854 43.972C74.4467 43.7467 78.7854 38.6853 78.5827 32.728C78.4267 28.1027 74.6054 22.144 67.032 22.6293C61.2694 22.9987 57.2 27.9067 57.224 33.2667Z" fill="#3A3A3A"/>
<path d="M112.159 122.381C112.733 123.293 113.492 124.092 113.781 125.033C114.504 127.383 112.848 129.793 110.42 130.1C109.416 130.224 108.395 130.204 107.243 130.255C107.12 130.905 106.937 131.688 106.831 132.481C106.753 133.061 106.611 133.3 105.931 133.141C104.7 132.853 104.689 132.909 104.967 131.695C105.052 131.321 105.123 130.944 105.188 130.565C105.333 129.711 105.025 129.365 104.136 129.452C103.973 129.468 103.748 129.719 103.703 129.909C103.527 130.632 103.411 131.376 103.275 132.1C103.263 132.167 103.287 132.256 103.252 132.301C102.759 132.92 102.224 132.32 101.708 132.336C101.383 132.345 101.163 132.179 101.255 131.764C101.4 131.097 101.505 130.431 101.619 129.764C101.687 129.364 101.652 129.081 101.128 129.001C100.304 128.877 99.5001 128.628 98.6774 128.493C98.2361 128.421 98.1801 128.203 98.2214 127.836C98.4001 126.253 98.4001 126.253 99.9294 126.285C100.244 126.292 100.559 126.285 100.968 126.285C101.284 124.496 101.591 122.743 101.901 120.991C102.097 119.901 102.311 118.815 102.507 117.725C102.555 117.459 102.559 117.184 102.592 116.915C102.635 116.567 102.527 116.363 102.143 116.305C101.759 116.248 101.355 116.1 100.955 116.039C100.36 115.947 100.171 115.639 100.279 115.053C100.512 113.779 100.496 113.763 101.82 113.861C102.587 113.919 103.351 114.029 104.228 114.128C104.361 113.299 104.548 112.467 104.612 111.625C104.656 111.048 104.879 110.933 105.389 111.031C107.185 111.372 107.187 111.364 106.781 113.187C106.688 113.601 106.604 114.019 106.504 114.492L108.116 114.879C108.284 113.975 108.452 113.145 108.589 112.307C108.673 111.787 108.837 111.579 109.437 111.745C110.712 112.1 110.723 112.06 110.504 113.403C110.451 113.737 110.465 114.101 110.335 114.404C110.032 115.104 110.379 115.337 110.964 115.58C111.841 115.94 112.719 116.327 113.267 117.191C114.433 119.021 113.979 120.997 112.159 122.381ZM104.232 127.143C105.5 127.276 106.727 127.439 107.965 127.504C109.032 127.56 109.805 126.981 109.965 126.149C110.159 125.133 109.781 124.331 108.715 123.963C107.541 123.563 106.315 123.324 105.04 123C104.759 124.417 104.512 125.695 104.232 127.143ZM106.064 116.993C105.835 118.303 105.623 119.519 105.384 120.88C106.484 120.959 107.517 121.084 108.541 121.089C109.407 121.089 110.043 120.487 110.212 119.676C110.4 118.773 110.069 118.039 109.263 117.633C108.267 117.135 107.207 117.011 106.064 116.993Z" fill="#F7931B"/>
</svg>
