<svg width="160" height="160" viewBox="0 0 160 160" fill="none" xmlns="http://www.w3.org/2000/svg">
<path d="M110.923 118.133V118.831C110.923 123.259 110.867 127.689 110.94 132.116C111.004 135.911 108.047 138.224 104.896 138.583C103.924 138.679 102.947 138.719 101.971 138.704C82.1653 138.711 62.3599 138.708 42.5546 138.693C40.8853 138.693 39.1933 138.576 37.796 137.423C36.3186 136.203 35.4466 134.728 35.4493 132.737C35.468 116.217 35.492 99.6987 35.432 83.1787C35.42 80.0387 37.0573 78.4827 39.6386 77.8293C41.4066 77.3813 43.2386 77.1907 45.0386 76.8573C48.964 76.132 52.8879 75.396 56.8106 74.6493C58.3373 74.36 59.8573 74.032 61.3853 73.7427C61.7518 73.6817 62.1233 73.6567 62.4946 73.668C63.2399 73.668 63.6706 74.068 63.7506 74.776C63.8253 75.4427 63.4533 76.028 62.792 76.1653C60.6586 76.6098 58.5186 77.0373 56.372 77.448C52.9533 78.1022 49.5311 78.7462 46.1053 79.38C44.964 79.592 43.816 79.78 42.6746 80.0307H103.047C102.72 77.5493 100.532 74.9813 97.1733 75.6227C96.1426 75.8187 95.1293 76.104 94.1066 76.3347C93.9463 76.3772 93.7792 76.3872 93.615 76.364C93.4508 76.3408 93.2929 76.2849 93.1507 76.1997C93.0084 76.1144 92.8848 76.0014 92.787 75.8675C92.6892 75.7336 92.6192 75.5814 92.5813 75.42C92.3906 74.7533 92.6959 74.0547 93.36 73.8587C95.2119 73.3107 97.0866 72.7613 99.0426 73C101.348 73.2813 103.095 74.5147 104.376 76.4373C105.019 77.4369 105.447 78.5593 105.633 79.7333C105.701 80.1133 105.853 80.3253 106.252 80.4613C108.677 81.2867 110.312 82.8733 110.856 85.4427C110.916 85.8097 110.938 86.1818 110.923 86.5533C110.923 90.6493 110.923 94.7449 110.923 98.84V99.496C111.672 99.5547 112.389 99.592 113.097 99.6733C113.388 99.7072 113.671 99.7925 113.932 99.9253C114.465 100.192 114.819 100.58 114.817 101.249C114.807 106.305 114.817 111.361 114.817 116.417C114.817 117.451 114.052 118.08 112.777 118.124C112.187 118.149 111.6 118.133 110.923 118.133ZM38.0453 81.9627V103.316C38.0453 113.152 38.0453 122.988 38.0453 132.824C38.0453 134.32 39.4826 135.931 40.9226 136.035C41.5653 136.08 42.2106 136.103 42.8546 136.105C46.1053 136.115 49.3564 136.118 52.608 136.115C69.7271 136.115 86.8457 136.115 103.964 136.115C104.295 136.11 104.625 136.072 104.948 136.001C106.736 135.639 108.415 134.203 108.368 131.972C108.269 127.585 108.34 123.196 108.341 118.807V118.177H105.867C105.867 118.613 105.911 119.011 105.856 119.392C105.779 119.925 105.387 120.059 104.899 120.016C104.44 119.973 104.107 119.808 104.109 119.276C104.109 118.909 104.109 118.543 104.109 118.129C102.303 118.129 100.564 118.14 98.8253 118.129C98.2213 118.129 97.5999 118.129 97.0173 117.996C94.1013 117.333 91.8426 115.733 90.444 113.067C87.5346 107.519 91.1106 101.697 96.1346 100.028C97.6279 99.5307 99.1733 99.5653 100.715 99.56C101.825 99.56 102.936 99.56 104.096 99.56C104.096 99.1093 104.096 98.7227 104.096 98.3347C104.105 97.7307 104.468 97.328 104.991 97.3333C105.513 97.3387 105.855 97.72 105.867 98.3547C105.867 98.7413 105.867 99.1267 105.867 99.52H108.339V99.016C108.339 94.8613 108.339 90.7076 108.339 86.5547C108.339 85.1387 107.693 84.092 106.521 83.3547C105.721 82.8493 104.839 82.7053 103.896 82.7053C83.5457 82.7196 63.1951 82.7236 42.8439 82.7173C42.2428 82.7014 41.644 82.6367 41.0533 82.524C40.0613 82.3587 39.0733 82.156 38.0453 81.9627ZM112.267 102.168C112.096 102.157 111.98 102.143 111.867 102.143H98.3519C98.1957 102.135 98.0392 102.141 97.8839 102.16C93.8959 102.847 91.5813 106.427 91.9693 109.641C92.3693 112.924 95.1573 115.595 98.4666 115.611C102.911 115.632 107.355 115.625 111.8 115.628C111.956 115.621 112.111 115.606 112.265 115.583L112.267 102.168Z" fill="#3A3A3A"/>
<path d="M63.5399 62.2933C63.4213 58.4973 64.5053 55.3187 66.6933 52.5493C69.1306 49.4667 72.3253 47.4827 76.184 46.7813C81.8 45.7627 86.48 47.5813 90.3173 51.7787C92.564 54.2373 93.6946 57.1627 94.1173 60.3973C94.6853 64.7467 93.6133 68.6987 90.9173 72.1307C88.42 75.312 85.1253 77.224 81.0893 77.7987C77.7479 78.276 74.5986 77.6653 71.66 76.052C68.928 74.5467 67.0039 72.2387 65.4439 69.584C64.0639 67.2573 63.3906 64.7613 63.5399 62.2933ZM79.1306 75.556C80.0013 75.4613 80.8799 75.4147 81.74 75.2653C84.94 74.7053 87.3653 72.856 89.2653 70.3667C91.932 66.8707 92.5093 62.9173 91.3986 58.68C90.2533 54.3387 87.4546 51.4307 83.4546 49.6707C80.1719 48.2253 76.788 48.6333 73.6346 50.0213C69.1306 52.0067 66.4746 55.5627 65.9293 60.5187C65.5413 64.0587 66.4533 67.3187 68.5879 70.1533C71.1999 73.632 74.6839 75.5427 79.1306 75.556Z" fill="#F7931B"/>
<path d="M117.425 36.6413C117.416 45.2093 111.2 52.0547 102.267 52.1333C93.8347 52.2013 86.5241 45.2307 86.9334 36.012C87.3187 27.404 94.4001 21.3453 102.107 21.296C110.157 21.2387 117.501 27.6613 117.425 36.6413ZM102.619 49.708C102.932 49.708 103.245 49.7227 103.552 49.708C103.862 49.6867 104.17 49.648 104.476 49.592C108.217 48.9373 111.167 47.0667 113.116 43.78C114.741 41.044 115.272 38.0467 114.921 34.892C114.633 32.3027 113.709 30.008 111.924 28.0653C108.697 24.5333 104.667 23.1907 100.029 23.8787C96.2067 24.448 93.2294 26.5453 91.1841 29.8267C89.3734 32.7267 88.9854 35.9227 89.5707 39.272C89.996 41.8146 91.2206 44.1554 93.0667 45.9547C95.6921 48.5533 98.9761 49.6293 102.619 49.7027V49.708Z" fill="#F7931B"/>
<path d="M100.408 64.8693C100.269 64.8701 100.132 64.8343 100.012 64.7656C99.8911 64.6969 99.7906 64.5977 99.7203 64.4779C99.6501 64.3581 99.6126 64.2219 99.6116 64.083C99.6106 63.9442 99.6461 63.8075 99.7146 63.6867C100.496 62.256 101.315 60.848 102.173 59.4573C102.385 59.1133 102.793 58.996 103.212 59.1907C103.671 59.4107 103.715 59.8147 103.612 60.2347C103.535 60.4755 103.423 60.7037 103.28 60.912C102.643 62.0027 102.008 63.0947 101.352 64.1747C101.136 64.5333 100.92 64.952 100.408 64.8693Z" fill="#3A3A3A"/>
<path d="M105.367 69.76C105.153 69.6 104.799 69.46 104.677 69.2067C104.568 68.98 104.645 68.596 104.768 68.344C104.877 68.1187 105.143 67.944 105.371 67.8107C106.411 67.1573 107.457 66.5142 108.511 65.8813C109.003 65.5853 109.5 65.6947 109.796 66.1227C110.092 66.5507 110.017 66.9453 109.471 67.3067C108.284 68.092 107.071 68.8373 105.871 69.592C105.708 69.6629 105.539 69.7191 105.367 69.76Z" fill="#3A3A3A"/>
<path d="M115.439 52.4C115.741 52.5893 116.009 52.6867 116.179 52.8747C117.147 53.9413 118.1 55.0222 119.039 56.1173C119.439 56.5867 119.415 56.98 119.016 57.3373C118.617 57.6947 118.263 57.6987 117.816 57.204C116.843 56.1373 115.895 55.0547 114.939 53.976C114.68 53.6853 114.593 53.3493 114.823 53.0187C114.973 52.8 115.2 52.6373 115.439 52.4Z" fill="#3A3A3A"/>
<path d="M79.0666 27.6C79.3559 27.7027 79.5239 27.7227 79.6399 27.8107C80.7413 28.6467 81.8493 29.476 82.9199 30.344C83.4613 30.7853 83.4533 31.3387 82.9839 31.7533C82.6813 32.02 82.3599 32.0587 82.0359 31.8107C80.9346 30.9733 79.8159 30.156 78.7573 29.2667C78.5319 29.0773 78.4079 28.6 78.4613 28.2947C78.5026 28.0267 78.8613 27.812 79.0666 27.6Z" fill="#3A3A3A"/>
<path d="M119.947 46.9467C121.231 47.1627 122.516 47.368 123.797 47.6013C124.351 47.7013 124.636 48.1133 124.555 48.6C124.467 49.1173 124.029 49.4227 123.488 49.3267C122.224 49.1071 120.96 48.8818 119.696 48.6507C119.104 48.544 118.816 48.2147 118.88 47.7387C118.956 47.1293 119.248 46.9227 119.947 46.9467Z" fill="#3A3A3A"/>
<path d="M80.8267 38.764C79.748 38.6853 78.6653 38.624 77.588 38.524C77.016 38.472 76.68 38.0827 76.72 37.616C76.7507 37.3796 76.8707 37.1639 77.0554 37.0131C77.2402 36.8624 77.4755 36.788 77.7133 36.8053C78.94 36.8533 80.1667 36.9187 81.3907 37.016C81.8707 37.0533 82.084 37.4427 82.1067 37.876C82.132 38.3707 81.84 38.676 81.3547 38.76C81.1791 38.7753 81.0025 38.7767 80.8267 38.764Z" fill="#3A3A3A"/>
<path d="M67.7814 85.4947C68.348 85.4947 68.9174 85.484 69.484 85.4947C70.108 85.5093 70.4454 85.8333 70.4667 86.412C70.48 86.7733 70.04 87.2907 69.596 87.3027C68.324 87.336 67.0507 87.336 65.7787 87.3093C65.3294 87.3 64.9347 86.82 64.9787 86.384C65.0307 85.9227 65.2814 85.556 65.7787 85.528C66.4454 85.4907 67.112 85.5187 67.7787 85.5187L67.7814 85.4947Z" fill="#3A3A3A"/>
<path d="M104.1 125.881C104.1 125.276 104.1 124.671 104.1 124.064C104.1 123.457 104.348 123.207 104.871 123.188C105.452 123.169 105.856 123.455 105.867 124.004C105.893 125.352 105.879 126.7 105.867 128.048C105.867 128.495 105.6 128.771 105.159 128.829C104.672 128.892 104.267 128.723 104.203 128.205C104.109 127.436 104.099 126.659 104.053 125.884L104.1 125.881Z" fill="#3A3A3A"/>
<path d="M92.0001 85.5067C92.5668 85.5067 93.1321 85.4933 93.6974 85.5067C94.3881 85.528 94.7641 85.8693 94.7401 86.4227C94.7161 86.976 94.3401 87.3187 93.6734 87.3213C92.5814 87.3213 91.4881 87.336 90.3961 87.3213C89.7934 87.3107 89.3294 86.8693 89.3441 86.376C89.3561 85.852 89.7948 85.488 90.4174 85.4853H92.0001V85.5067Z" fill="#3A3A3A"/>
<path d="M84.0361 87.3333C83.4881 87.3333 82.9415 87.3427 82.3948 87.3333C81.7028 87.32 81.3588 87.0107 81.3548 86.4227C81.3508 85.8347 81.6321 85.5427 82.3308 85.536C83.5188 85.524 84.7081 85.5453 85.8961 85.5693C86.4521 85.5813 86.6961 85.944 86.6961 86.452C86.6961 86.96 86.3174 87.308 85.7881 87.328C85.2028 87.348 84.6161 87.328 84.0308 87.328L84.0361 87.3333Z" fill="#3A3A3A"/>
<path d="M105.867 91.5307C105.867 92.136 105.876 92.7413 105.867 93.3453C105.856 93.9267 105.504 94.2787 104.965 94.2653C104.475 94.256 104.112 93.8973 104.107 93.356C104.093 92.1453 104.091 90.9347 104.107 89.7253C104.116 89.0933 104.491 88.716 105.016 88.7373C105.541 88.7587 105.857 89.128 105.864 89.7733C105.864 90.3587 105.864 90.944 105.864 91.5307H105.867Z" fill="#3A3A3A"/>
<path d="M100.099 87.3333C99.5654 87.3333 99.0427 87.3467 98.5147 87.3333C97.8481 87.3133 97.3787 86.892 97.4121 86.372C97.4441 85.8773 97.9321 85.4893 98.5467 85.496C99.7001 85.508 100.856 85.496 102.007 85.5707C102.17 85.5736 102.328 85.6244 102.462 85.7168C102.596 85.8093 102.7 85.9392 102.76 86.0903C102.821 86.2414 102.836 86.407 102.803 86.5665C102.77 86.7259 102.69 86.8721 102.575 86.9867C102.372 87.1947 101.993 87.2613 101.681 87.3253C101.415 87.3787 101.136 87.336 100.863 87.336L100.099 87.3333Z" fill="#3A3A3A"/>
<path d="M51.5026 87.3333C50.9346 87.3333 50.3666 87.3333 49.7986 87.3333C49.2306 87.3333 48.9026 86.996 48.8839 86.4813C48.8752 86.3641 48.891 86.2463 48.9303 86.1355C48.9696 86.0247 49.0316 85.9233 49.1122 85.8377C49.1929 85.7522 49.2905 85.6844 49.3988 85.6386C49.5071 85.5929 49.6237 85.5702 49.7413 85.572C50.8759 85.5347 52.0079 85.5027 53.1479 85.5187C53.4533 85.5187 53.8519 85.628 54.0346 85.8387C54.2173 86.0493 54.3013 86.5307 54.1773 86.7293C53.9567 87.0316 53.629 87.2381 53.2613 87.3067C52.6893 87.4 52.0906 87.332 51.5026 87.332V87.3333Z" fill="#3A3A3A"/>
<path d="M75.8774 85.56C76.4614 85.56 77.0467 85.5533 77.6321 85.56C78.1081 85.56 78.4707 85.7467 78.5414 86.2693C78.6041 86.74 78.2854 87.2507 77.7801 87.2747C76.4561 87.336 75.1281 87.3507 73.8054 87.2947C73.3321 87.2747 73.1147 86.8133 73.1667 86.3387C73.2147 85.896 73.4454 85.5627 73.9454 85.552C74.5894 85.54 75.2334 85.552 75.8774 85.552V85.56Z" fill="#3A3A3A"/>
<path d="M59.6774 87.3253C59.1107 87.3253 58.5454 87.3427 57.98 87.3253C57.3134 87.3013 56.972 86.98 56.9707 86.436C56.9694 85.892 57.32 85.5333 57.9587 85.5187C59.128 85.4933 60.2987 85.5067 61.4694 85.528C61.7041 85.5396 61.9261 85.638 62.0924 85.804C62.2587 85.9701 62.3574 86.192 62.3694 86.4267C62.3694 86.8347 61.908 87.2987 61.436 87.3213C60.852 87.348 60.2654 87.3213 59.68 87.3213L59.6774 87.3253Z" fill="#3A3A3A"/>
<path d="M51.6293 133.255C51.0626 133.255 50.496 133.272 49.9293 133.255C49.2893 133.231 48.9853 132.933 48.98 132.38C48.98 131.891 49.3693 131.527 49.9493 131.52C51.104 131.508 52.2586 131.503 53.416 131.511C54.068 131.511 54.3626 131.767 54.384 132.281C54.3877 132.413 54.3649 132.545 54.3168 132.668C54.2687 132.791 54.1964 132.903 54.1041 132.998C54.0118 133.092 53.9014 133.167 53.7795 133.218C53.6577 133.269 53.5268 133.295 53.3946 133.295C52.808 133.32 52.22 133.295 51.6333 133.295L51.6293 133.255Z" fill="#3A3A3A"/>
<path d="M76.9054 133.184C75.9521 133.184 74.9974 133.199 74.0454 133.184C73.9325 133.185 73.8206 133.163 73.7166 133.119C73.6126 133.075 73.5187 133.01 73.4407 132.928C73.3628 132.846 73.3024 132.749 73.2633 132.644C73.2242 132.538 73.2072 132.425 73.2134 132.312C73.2241 131.792 73.5681 131.423 74.0987 131.432C75.3267 131.455 76.5561 131.5 77.7827 131.548C77.9819 131.543 78.1755 131.614 78.3241 131.747C78.4727 131.88 78.5652 132.064 78.5827 132.263C78.6507 132.716 78.4787 133.092 78.0041 133.211C77.6423 133.278 77.2767 133.323 76.9094 133.344L76.9054 133.184Z" fill="#3A3A3A"/>
<path d="M59.8186 131.539C60.4053 131.539 60.9919 131.539 61.5799 131.539C62.0346 131.539 62.3439 131.743 62.4146 132.189C62.4853 132.636 62.3559 133.048 61.8439 133.195C61.6599 133.253 61.4689 133.287 61.2759 133.296C60.1999 133.307 59.1239 133.305 58.0466 133.296C57.4719 133.296 57.0359 132.884 57.0519 132.383C57.0679 131.911 57.5013 131.541 58.0573 131.536C58.6439 131.533 59.2319 131.537 59.8186 131.539Z" fill="#3A3A3A"/>
<path d="M42.7333 131.379C43.5706 131.379 44.4079 131.363 45.2439 131.379C45.9199 131.396 46.2946 131.76 46.2719 132.312C46.2493 132.864 45.8319 133.164 45.1613 133.151C44.2279 133.132 43.2946 133.137 42.3613 133.124C42.1689 133.116 41.9774 133.095 41.7879 133.061C41.2546 132.981 41.0159 132.628 41.0026 132.135C40.9919 131.744 41.5253 131.313 41.9799 131.296C42.2333 131.285 42.4866 131.296 42.7399 131.296L42.7333 131.379Z" fill="#3A3A3A"/>
<path d="M84.0639 131.537H85.8839C86.3586 131.537 86.6666 131.735 86.7079 132.244C86.7506 132.777 86.46 133.261 85.9786 133.276C84.728 133.315 83.4733 133.32 82.2226 133.276C81.6999 133.257 81.3693 132.755 81.4226 132.24C81.4746 131.653 81.8653 131.527 82.368 131.535C82.9333 131.545 83.4959 131.539 84.0639 131.537Z" fill="#3A3A3A"/>
<path d="M92.1734 131.537C92.7601 131.537 93.3467 131.537 93.9321 131.537C94.4654 131.544 94.7894 131.844 94.8187 132.337C94.8481 132.856 94.5254 133.281 94.0081 133.293C92.8161 133.319 91.6241 133.319 90.4321 133.293C90.3089 133.297 90.1863 133.276 90.0718 133.23C89.9574 133.185 89.8536 133.116 89.767 133.028C89.6803 132.94 89.6127 132.836 89.5684 132.721C89.5241 132.606 89.504 132.483 89.5094 132.36C89.5227 131.797 89.8214 131.539 90.4734 131.533C91.0401 131.533 91.6067 131.533 92.1734 131.533V131.537Z" fill="#3A3A3A"/>
<path d="M43.5107 87.3333C42.9253 87.3333 42.34 87.3413 41.756 87.3333C41.24 87.3253 40.956 87.044 40.9467 86.5333C40.9373 86.0227 41.1027 85.6 41.6653 85.5827C42.932 85.5493 44.1987 85.5547 45.4653 85.5827C45.9747 85.5947 46.2107 85.992 46.252 86.4507C46.2907 86.884 45.828 87.308 45.3253 87.3253C44.7213 87.3413 44.116 87.3333 43.5107 87.3333Z" fill="#3A3A3A"/>
<path d="M100.167 131.535C100.755 131.535 101.343 131.523 101.929 131.535C102.472 131.551 102.817 131.876 102.824 132.335C102.832 132.885 102.503 133.279 101.947 133.287C100.791 133.304 99.6357 133.298 98.4801 133.271C97.8694 133.255 97.5174 132.871 97.5228 132.308C97.5281 131.745 97.8334 131.528 98.5214 131.524C99.0708 131.524 99.6188 131.524 100.167 131.524V131.535Z" fill="#3A3A3A"/>
<path d="M67.8666 133.184C67.3186 133.184 66.7706 133.184 66.224 133.184C65.5573 133.176 65.2133 132.877 65.2026 132.32C65.192 131.763 65.528 131.435 66.1853 131.428C67.2613 131.417 68.3373 131.407 69.412 131.428C70.3053 131.447 70.7733 132.113 70.3306 132.745C70.1379 132.977 69.8643 133.127 69.5653 133.164C69.0026 133.228 68.4293 133.184 67.8666 133.184Z" fill="#3A3A3A"/>
<path d="M98.4894 112.155C96.5854 112.237 95.2494 110.733 95.2894 108.971C95.3241 107.479 96.4895 105.704 98.7375 105.736C99.5838 105.752 100.39 106.1 100.983 106.704C101.576 107.309 101.907 108.121 101.907 108.968C101.889 110.863 100.464 112.191 98.4894 112.155Z" fill="#3A3A3A"/>
<path d="M82.9692 60.5853C85.1906 61.1347 86.3546 62.2507 86.3812 64.0453C86.4226 66.764 84.4279 67.6 82.2612 68.2347C82.4212 69.0147 82.5586 69.776 82.7359 70.5267C82.8492 71.012 82.6252 71.2307 82.2026 71.304C80.9572 71.5147 80.9306 71.7227 80.6759 70.4027C80.5812 69.9093 80.4332 69.4267 80.2879 68.8573C79.9875 68.8858 79.6897 68.9375 79.3972 69.012C79.3146 69.0387 79.2372 69.2787 79.2639 69.412C79.3772 70.0227 79.5306 70.624 79.6639 71.232C79.7492 71.632 79.6439 71.864 79.1719 71.968C77.8279 72.2627 77.8386 72.288 77.5079 70.9347C77.3986 70.484 77.2786 70.036 77.1439 69.5133C76.4572 69.6827 75.8106 69.8827 75.1439 69.988C74.8626 70.0333 74.3439 69.9547 74.2892 69.808C74.1266 69.3333 74.1119 68.8013 74.0986 68.2893C74.0986 68.216 74.4172 68.1147 74.5999 68.06C75.0239 67.9333 75.4546 67.828 75.9506 67.696L73.9999 59.0133C73.4399 59.1467 72.9186 59.22 72.4279 59.388C71.9026 59.5667 71.6506 59.4173 71.5866 58.8827C71.5698 58.7678 71.5471 58.6539 71.5186 58.5413C71.3439 57.8107 71.4266 57.6613 72.1666 57.46C72.9666 57.24 73.7759 57.036 74.6119 56.816C74.4039 56.0893 74.2279 55.3747 73.9906 54.6827C73.8572 54.3 74.0066 54.1133 74.3172 54.016C74.6137 53.9271 74.9169 53.8629 75.2239 53.824C75.5466 53.7733 75.7172 53.9213 75.8039 54.248C75.9932 54.9587 76.2226 55.6587 76.4439 56.3933L77.6119 56.1067C77.4492 55.44 77.3159 54.7813 77.1252 54.1413C76.9666 53.608 77.1386 53.3213 77.6732 53.2267C77.8452 53.196 78.0199 53.1707 78.1906 53.132C78.5906 53.0427 78.7999 53.1467 78.8746 53.596C78.9732 54.188 79.1706 54.7627 79.3052 55.3507C79.3706 55.6387 79.4706 55.72 79.7906 55.6507C80.3946 55.5173 81.0226 55.3573 81.6306 55.392C83.2306 55.48 84.0386 56.344 84.2519 58.0587C84.3999 59.2867 84.1546 59.7907 82.9692 60.5853ZM77.8666 63.3493C78.1972 64.6453 78.5052 65.8627 78.8146 67.076C78.9786 67.036 79.0719 67.016 79.1652 66.9907C80.3012 66.6853 81.5026 66.5907 82.5159 65.8973C83.1972 65.432 83.4172 64.7693 83.2786 64.0107C83.1452 63.3173 82.6732 62.8813 81.9759 62.7547C80.5466 62.4947 79.2532 63.1213 77.8666 63.3493ZM76.7999 58.3253C77.0226 59.3573 77.2199 60.304 77.4412 61.2453C77.4612 61.332 77.6612 61.4627 77.7346 61.4387C78.7399 61.1093 79.7612 60.808 80.7252 60.3813C81.0386 60.248 81.3292 59.788 81.4052 59.4307C81.6466 58.28 80.8172 57.5187 79.5559 57.7213C78.6666 57.8667 77.7799 58.1067 76.7999 58.3253Z" fill="#F7931B"/>
<path d="M101.009 43.2667L99.6441 43.0267C99.5534 43.6493 99.4521 44.2627 99.3774 44.8787C99.2761 45.7027 99.2841 45.704 98.4628 45.696C97.5214 45.6853 97.4481 45.604 97.5694 44.6813C97.6094 44.3733 97.6641 44.0653 97.7028 43.7573C97.7414 43.4493 97.7828 43.14 97.8361 42.7773C97.0228 42.6947 96.2121 42.5733 95.3988 42.544C94.9054 42.5267 94.7321 42.3027 94.7121 41.8773C94.6985 41.6998 94.6985 41.5215 94.7121 41.344C94.7814 40.6227 94.9788 40.48 95.7028 40.58C96.1628 40.644 96.6281 40.668 97.1161 40.7133C97.5441 37.6587 97.9628 34.6627 98.3908 31.6107C97.8734 31.5173 97.4214 31.4053 96.9628 31.364C96.5321 31.324 96.2961 31.16 96.3494 30.7067C96.3881 30.3813 96.3801 30.0253 96.5174 29.7427C96.5843 29.6388 96.6746 29.5521 96.7812 29.4895C96.8877 29.427 97.0075 29.3904 97.1308 29.3827C97.8894 29.42 98.6441 29.54 99.3974 29.6253C99.4868 29.6347 99.5788 29.6253 99.6921 29.6253C99.7854 28.8573 99.8521 28.1253 99.9801 27.4027C100.013 27.3085 100.069 27.224 100.143 27.1569C100.216 27.0898 100.306 27.0423 100.403 27.0187C100.9 27.0156 101.396 27.0392 101.891 27.0893L101.519 29.8893L102.937 30.144C103.012 29.44 103.091 28.7307 103.159 28.02C103.201 27.568 103.315 27.2293 103.88 27.4533C103.918 27.4636 103.957 27.4685 103.996 27.468C105.276 27.6173 105.265 27.6147 104.996 28.904C104.888 29.4147 104.84 29.936 104.78 30.3587C105.621 30.74 106.429 30.996 107.116 31.4387C108.732 32.484 108.949 35.0907 107.573 36.2787C107.311 36.481 107.038 36.6684 106.755 36.84C107.735 37.3293 108.381 38.052 108.519 39.1267C108.685 40.436 108.331 41.672 107.432 42.5733C106.935 43.072 106.064 43.292 105.323 43.4333C104.581 43.5747 103.779 43.464 102.955 43.464C102.841 44.2 102.7 44.904 102.635 45.6133C102.588 46.1333 102.341 46.2067 101.893 46.1467C100.685 45.9787 100.679 45.9907 100.804 44.776C100.86 44.2827 100.933 43.788 101.009 43.2667ZM100.485 37.3853C100.28 38.6747 100.085 39.8853 99.8654 41.2653C101.167 41.34 102.399 41.4787 103.64 41.4613C104.707 41.4467 105.38 40.784 105.497 39.8613C105.596 39.08 105.02 38.1973 104.065 37.968C102.92 37.6973 101.733 37.5827 100.485 37.3853ZM100.705 35.5747C101.736 35.6213 102.717 35.6827 103.7 35.708C104.561 35.7267 105.115 35.276 105.343 34.432C105.439 34.0895 105.414 33.7244 105.272 33.3982C105.13 33.0721 104.88 32.8048 104.564 32.6413C103.531 32.0773 102.376 32.0933 101.231 31.9587C101.059 33.16 100.893 34.2893 100.705 35.5747Z" fill="#F7931B"/>
</svg>
