<svg width="160" height="160" viewBox="0 0 160 160" fill="none" xmlns="http://www.w3.org/2000/svg">
<path d="M63.4187 137.792C62.808 137.569 62.1704 137.43 61.5227 137.376C60.0733 137.223 60.0733 137.217 59.8507 135.899C59.616 135.365 59.764 134.804 59.6867 134.256C59.3987 132.243 59.1773 130.219 58.9227 128.2C58.772 127.016 58.6093 125.833 58.4507 124.651C58.5027 124.527 58.4093 124.365 58.3933 124.224C58.2853 123.263 58.176 122.303 58.0853 121.339C57.9053 119.444 57.648 117.555 57.4067 115.665C57.2627 114.537 57.0933 113.412 56.9333 112.287C56.9418 112.241 56.9352 112.195 56.9147 112.153C56.8627 111.629 56.8173 111.104 56.7587 110.581C56.5373 108.581 56.216 106.581 56.1093 104.581C55.904 100.715 55.7853 96.8387 55.6933 92.9667C55.616 89.6773 55.5867 86.388 55.4267 83.1C55.3867 82.2813 54.74 81.7667 53.9253 81.8053C53.1107 81.844 52.556 82.432 52.5787 83.2627C52.6 84.0507 52.6467 84.8373 52.676 85.6253C52.952 93.092 52.7373 100.58 53.64 108.025C53.8973 110.144 54.116 112.267 54.3707 114.385C54.6587 116.768 54.9693 119.148 55.2667 121.531C55.5938 124.157 55.9182 126.784 56.24 129.412C56.1227 129.801 56.3107 130.161 56.356 130.533C56.6707 133.092 56.9987 135.648 57.3213 138.205C57.3004 138.242 57.2916 138.285 57.296 138.327L54.7267 138.365L54.3547 138.335C54.3333 138.088 54.3187 137.841 54.288 137.596C53.9858 135.127 53.6804 132.657 53.372 130.188C53.2267 129.041 53.0667 127.897 52.9107 126.752C52.9413 126.619 52.8773 126.467 52.852 126.323L52.844 126.267C52.7827 125.631 52.736 124.992 52.6573 124.357C52.36 121.937 52.076 119.516 51.7373 117.101C51.584 116.011 51.6187 114.885 51.212 113.835C51.1467 111.499 50.752 109.197 50.444 106.889C50.3853 106.445 50.556 105.927 50.136 105.556C49.9773 104.745 49.352 104.596 48.6827 104.588C47.1987 104.572 45.7133 104.572 44.2293 104.608C43.176 104.633 42.7413 105.031 42.5653 106.075C42.1027 108.844 41.656 111.617 41.204 114.388C41.1907 114.521 41.1853 114.655 41.1627 114.788C40.6729 117.721 40.1818 120.655 39.6893 123.588C39.2107 126.433 38.7213 129.277 38.2507 132.121C37.9467 133.953 37.6667 135.791 37.376 137.625C37.1307 137.817 37.4627 138.425 36.8427 138.351H34.6667L34.2933 138.284C34.56 136.789 34.8267 135.295 35.0733 133.797C35.5107 131.195 35.9613 128.597 36.364 125.985C36.6307 124.241 37.0693 122.519 37.1227 120.744C37.4413 120.232 37.4013 119.633 37.4973 119.076C38.0027 116.161 38.4747 113.24 38.9427 110.319C39.2787 108.228 39.6627 106.143 39.832 104.028C40.0107 103.611 39.944 103.173 39.9307 102.741L39.9627 99.8347C40.1267 98.868 40.0827 97.8947 40.0653 96.9213C40.0751 95.5933 40.0849 94.2653 40.0947 92.9373C40.3013 91.6707 40.184 90.3947 40.2133 89.1227C40.2133 88.9213 40.336 88.6733 40.0933 88.5107C40.0873 88.4771 40.0873 88.4428 40.0933 88.4093C40.36 87.972 40.1773 87.4987 40.2013 87.0427C40.2013 86.9093 40.2013 86.7693 40.2013 86.632C40.212 85.8 40.2231 84.968 40.2347 84.136C40.3806 83.4683 40.3806 82.777 40.2347 82.1093C40.2053 81.9093 40.1533 81.724 39.968 81.6133C39.968 81.3067 39.728 81.2013 39.5067 81.1027C38.488 80.6493 37.5133 81.308 37.4893 82.4907C37.3973 87.1773 37.3467 91.8653 37.2227 96.552C37.148 99.472 37.236 102.403 36.852 105.311C36.4893 107.521 36.1276 109.732 35.7667 111.944C35.3667 114.284 34.9667 116.624 34.5827 118.965C34.2907 120.728 34.0173 122.495 33.7347 124.259C33.548 125.295 33.352 126.328 33.1773 127.365C32.5453 131.136 31.9178 134.908 31.2947 138.68C31.1907 139.309 30.996 139.956 31.5253 140.508C31.5489 140.571 31.5885 140.626 31.6402 140.668C31.692 140.711 31.754 140.739 31.82 140.749C32.0967 140.944 32.4285 141.044 32.7667 141.036C34.5893 141.036 36.4107 141.047 38.2333 141.036C38.7667 141.036 39.2427 140.865 39.5453 140.377C39.824 140.171 39.8613 139.833 39.912 139.545C40.3013 137.385 40.6653 135.221 41.0267 133.056C41.56 129.896 42.0933 126.737 42.5853 123.572C42.8147 122.092 43.2053 120.639 43.2173 119.121L43.2093 119.132C43.7602 116.958 44.1211 114.74 44.288 112.503C44.5173 112.369 44.4853 112.103 44.5213 111.908C44.7329 110.74 44.924 109.568 45.0947 108.392C45.184 107.775 45.312 107.283 46.1347 107.459C46.5013 107.536 46.9 107.488 47.2827 107.465C47.5613 107.449 47.6587 107.523 47.6933 107.824C47.8413 109.117 48.0387 110.405 48.2 111.699C48.6231 115.076 49.0404 118.454 49.452 121.832C49.6298 123.366 49.8102 124.9 49.9933 126.433C50.0293 126.673 50.0733 126.912 50.1 127.152C50.2933 128.824 50.4693 130.499 50.676 132.169C50.9707 134.553 51.3067 136.932 51.5853 139.319C51.7187 140.448 52.2787 141.052 53.408 141.052C56.5458 141.061 59.6836 141.061 62.8213 141.052C63.7613 141.052 64.4413 140.559 64.588 139.804C64.7813 138.855 64.3813 138.167 63.4187 137.792Z" fill="#3A3A3A"/>
<path d="M137.467 47.384C137.269 46.6027 137.236 45.7453 136.688 45.0747V45.0813C136.473 44.1008 136.168 43.1421 135.777 42.2173C134.816 39.7849 133.563 37.4786 132.044 35.3493C131.548 34.5185 130.967 33.7415 130.311 33.0307C129.809 32.3679 129.262 31.7402 128.675 31.152C128.501 30.8796 128.274 30.6448 128.008 30.4613L127.608 30.0613C127.566 29.9744 127.508 29.8966 127.436 29.8323C127.364 29.768 127.28 29.7185 127.189 29.6867C126.568 29.0367 125.897 28.4358 125.183 27.8893C125.159 27.8275 125.119 27.7732 125.067 27.7319C125.015 27.6907 124.954 27.664 124.888 27.6547C124.57 27.3295 124.212 27.0467 123.821 26.8133C123.497 26.4974 123.127 26.2322 122.724 26.0267C120.807 24.6024 118.729 23.4089 116.533 22.4707C116.423 22.324 116.249 22.3 116.092 22.244C111.547 20.1747 106.759 19.1773 101.783 18.9853C98.7918 18.8616 95.7967 19.0854 92.8573 19.652C89.9307 20.2267 87.096 21.0893 84.3987 22.3773C83.0847 22.9468 81.8142 23.6117 80.5973 24.3667L78.708 25.6093L77.6147 26.3907L75.5787 28.0133C74.5625 28.8425 73.6117 29.7487 72.7347 30.724C72.7267 30.724 72.7187 30.7333 72.712 30.7467C71.9762 31.4448 71.3034 32.2064 70.7013 33.0227L69.8853 34.104C69.8283 34.1345 69.7785 34.177 69.7394 34.2285C69.7002 34.2801 69.6727 34.3395 69.6587 34.4027C68.5812 35.7758 67.6575 37.2629 66.904 38.8373C66.6754 39.1283 66.5019 39.4586 66.392 39.812C65.856 40.8098 65.4055 41.8514 65.0453 42.9253C63.9947 45.6173 63.2493 48.3853 62.9667 51.268C62.824 51.4453 62.8507 51.652 62.8747 51.856C62.7827 52.7053 62.64 53.552 62.608 54.4027C62.4293 59.104 62.8507 63.736 64.36 68.2227C65.072 70.3347 65.9133 72.396 67.0613 74.3187C67.3349 74.9599 67.6936 75.5613 68.128 76.1067C68.5613 76.988 69.1627 77.7547 69.7627 78.524L70.4667 79.4573C70.4824 79.5208 70.5122 79.58 70.554 79.6303C70.5958 79.6807 70.6485 79.7209 70.708 79.748L71.108 80.208C71.1261 80.2838 71.1605 80.3547 71.2088 80.4157C71.2572 80.4767 71.3184 80.5264 71.388 80.5613C71.8293 81.064 72.2267 81.6147 72.7213 82.056C73.216 82.4973 73.208 82.748 72.6107 82.9973C70.744 83.996 68.8693 84.9973 67.0587 86.0987L64.7253 87.432C64.2187 87.6987 63.6973 87.948 63.2133 88.252C62.8133 88.5053 62.6213 88.4227 62.468 87.9853C62.3507 87.6427 62.244 87.272 61.9347 87.028C61.452 85.5147 60.6307 84.1533 59.9813 82.7147C59.672 82.0818 59.3609 81.4489 59.048 80.816C58.7107 80.1293 58.3507 79.4507 58.04 78.752C57.64 77.86 57.276 76.9573 56.6267 76.2067C56.0267 75.4173 55.3854 74.6827 54.36 74.4547L54.3414 74.444C54.2574 74.1507 53.9734 74.1347 53.7573 74.0693C52.7649 73.7787 51.7354 73.6345 50.7014 73.6413C47.7907 73.6413 44.88 73.5947 41.9707 73.6587C39.664 73.7093 37.7667 74.6547 36.4374 76.6013C36.4294 76.6013 36.4213 76.6107 36.4147 76.6253C35.5787 77.5053 34.8587 78.4787 34.136 79.4493C34.0772 79.4771 34.0253 79.5176 33.9841 79.5679C33.9428 79.6181 33.9132 79.6769 33.8974 79.74L30.48 84.0507C30.08 84.5467 29.628 85.0173 29.2907 85.5546C29.1827 85.7253 29.0454 85.9373 28.932 85.9347C28.7214 85.9347 28.88 85.628 28.7494 85.5053L28.7013 83.6587C28.7214 83.088 28.7507 82.5173 28.5974 81.9573C28.5867 81.2613 28.5765 80.5653 28.5667 79.8693C28.5814 79.3907 28.628 78.908 28.4667 78.4413L28.4787 75.0107C28.8787 74.5693 29.2614 74.1147 29.4334 73.5253C29.4309 73.5287 29.4277 73.5314 29.424 73.5333C30.218 72.6612 30.9039 71.6965 31.4667 70.66C31.5838 70.4435 31.6314 70.1963 31.6033 69.9519C31.5752 69.7074 31.4725 69.4775 31.3094 69.2933C30.612 68.6693 29.8694 68.572 29.236 69.056C28.8926 69.3387 28.6223 69.7 28.448 70.1093L27.4907 71.4667H27.244C27.1924 71.3923 27.1524 71.3104 27.1254 71.224C27.1248 71.2209 27.1248 71.2177 27.1254 71.2147C27.1667 71.3 27.2067 71.3867 27.2494 71.472C27.2697 71.2962 27.2529 71.1182 27.2 70.9493C26.608 69.5107 26.0574 68.0533 25.4454 66.6227C25.1507 65.936 25.0227 65.1693 24.512 64.58C24.4972 64.5161 24.464 64.4578 24.4167 64.4124C24.3694 64.3669 24.3098 64.3362 24.2454 64.324C23.4947 63.8627 22.7787 63.9533 22.08 64.444L21.7934 64.7107C21.6337 64.9512 21.534 65.2264 21.5027 65.5134C21.4713 65.8004 21.5093 66.0907 21.6134 66.36C22.1974 67.9227 22.8374 69.4627 23.5587 70.9667C24.04 72.1187 24.5134 73.2733 25.0054 74.42C25.209 74.8667 25.3279 75.3472 25.356 75.8373C25.46 78.2227 25.5147 80.6107 25.6307 82.9933C25.728 85.0187 25.6307 87.0507 25.856 89.0693C25.904 89.5067 26.008 89.9053 26.4014 90.1653C26.414 90.1782 26.4289 90.1886 26.4454 90.196C27.4854 90.9547 28.9174 90.688 29.412 89.6293C30.328 88.7733 31.0747 87.7733 31.8387 86.7867L32.4854 85.9613C32.836 85.58 33.2014 85.2107 33.464 84.7613C34.0294 84.1307 34.5773 83.4853 34.9733 82.7293C35.1459 82.6018 35.3069 82.4595 35.4547 82.304C36.468 81.052 37.4707 79.792 38.4773 78.5347C39.044 77.9227 39.5613 77.2627 40.2493 76.7707C41.0435 76.4692 41.8897 76.3287 42.7387 76.3573C45.46 76.3747 48.18 76.3707 50.9014 76.3747C51.1214 76.5387 51.3733 76.468 51.6147 76.468C52.6545 76.5897 53.6146 77.0854 54.316 77.8627C55.2174 79.1507 55.808 80.6027 56.4893 82.0053C57.7813 84.672 59.0347 87.3493 60.304 90.0227C60.3315 90.1905 60.4163 90.3436 60.544 90.456C60.7053 90.9453 60.944 91.3667 61.4853 91.5227C61.5281 91.5426 61.5728 91.5582 61.6187 91.5693C62.144 91.7467 62.6587 91.788 63.1413 91.4C64.788 90.7853 66.24 89.8 67.7587 88.9533C69.4667 88.12 71.1053 87.164 72.7507 86.2173C73.0813 86.0453 73.4027 85.8533 73.7427 85.704C74.3613 85.4373 74.844 84.904 75.5333 84.7707L76.128 85.2973C76.1612 85.3679 76.21 85.4301 76.2708 85.479C76.3315 85.528 76.4026 85.5625 76.4787 85.58L77.34 86.2467L78.0347 86.772L79.2347 87.6C79.3879 87.7694 79.5801 87.899 79.7947 87.9773C82.3093 89.6813 85.0467 90.928 87.904 91.9333C90.1524 92.7381 92.4748 93.3187 94.8374 93.6667C98.3139 94.18 101.843 94.2324 105.333 93.8227C109.813 93.3319 114.161 92.004 118.151 89.908C119.144 89.3893 120.119 88.8413 120.993 88.1307C121.98 87.6253 122.916 87.048 123.695 86.2467C123.991 86.22 124.168 86.008 124.361 85.8213C124.692 85.5627 125.075 85.3667 125.328 85.0213C125.677 84.7467 126.076 84.5227 126.261 84.088C127.041 83.6573 127.556 82.944 128.159 82.324C128.411 82.128 128.667 81.936 128.801 81.6293C129.241 81.1586 129.701 80.7053 130.056 80.1627C130.332 79.9388 130.554 79.6546 130.704 79.332C131.275 78.7907 131.664 78.116 132.088 77.4653C132.35 77.1735 132.569 76.8452 132.737 76.4907C134.178 74.2821 135.366 71.9183 136.277 69.444C136.471 68.9253 136.732 68.4213 136.701 67.844C136.883 67.7627 136.909 67.592 136.959 67.4227C137.297 66.3147 137.56 65.185 137.745 64.0413C138.112 62.4895 138.335 60.9073 138.412 59.3147C138.667 55.292 138.457 51.3 137.467 47.384ZM125.019 81.0787L122.056 83.6653L120.001 85.132L118.935 85.8293L115.955 87.4667C112.277 89.2217 108.322 90.3252 104.267 90.728C100.465 91.1187 96.716 90.8613 92.988 90.088C91.036 89.688 89.152 89.044 87.2774 88.38L84.6667 87.2C82.89 86.2149 81.1708 85.1296 79.5173 83.9493L78.4427 83.116L78.1573 82.8813C78.024 82.7787 77.9013 82.676 77.772 82.5707C77.7489 82.5094 77.7099 82.4554 77.6591 82.4142C77.6083 82.3729 77.5474 82.346 77.4827 82.336L74.2227 79.0667C74.2033 79.0023 74.1706 78.9427 74.1267 78.8917C74.0829 78.8407 74.0288 78.7995 73.968 78.7707C73.5973 78.3262 73.2271 77.8818 72.8573 77.4373C72.6398 77.0408 72.3748 76.6723 72.068 76.34C70.7042 74.3194 69.4924 72.2002 68.4427 70L68.42 69.9533C68.4172 69.8856 68.4064 69.8185 68.388 69.7533C67.1221 66.7385 66.2955 63.5577 65.9333 60.308C65.4507 56.192 65.8 52.1493 66.7267 48.1333C67.2733 45.776 68.1387 43.5333 69.0933 41.32C69.1053 41.32 69.1147 41.3027 69.124 41.2667C69.952 39.8307 70.7093 38.3547 71.6573 36.9867C71.8667 36.684 72.1907 36.4333 72.224 36.0253C72.8462 35.3 73.4711 34.5738 74.0987 33.8467C75.0533 32.8138 76.0476 31.8191 77.0813 30.8627L77.3694 30.6067C77.816 30.2413 78.26 29.8733 78.7027 29.508L79.9467 28.5747L82.6573 26.816C83.044 26.64 83.4573 26.508 83.7307 26.1493C84.228 26.072 84.6253 25.7653 85.072 25.572C85.243 25.544 85.401 25.4633 85.524 25.3413L88.324 24.2187C88.6613 24.1267 89.0147 24.0773 89.292 23.8373C89.4699 23.8295 89.6461 23.7986 89.816 23.7453C92.1688 23.0116 94.5932 22.5311 97.048 22.312C99.1 22.1307 101.149 22.2507 103.199 22.2187C103.209 22.2251 103.22 22.2304 103.232 22.2347C103.441 22.3294 103.673 22.3582 103.899 22.3173L104.675 22.3547C104.896 22.504 105.143 22.48 105.388 22.4573L109.452 23.2653L109.711 23.2947L112.167 24.0813L115.111 25.2L118.127 26.78L120.947 28.5867L123.003 30.1867L124.743 31.7027L125.296 32.2533C126.664 33.6432 127.928 35.1321 129.077 36.708C130.195 38.3515 131.202 40.0673 132.093 41.844C132.449 42.6627 132.801 43.4818 133.151 44.3013C134.257 47.4827 135.048 50.728 135.256 54.1053C135.429 56.9413 135.333 59.7573 134.808 62.5533C134.681 63.208 134.569 63.868 134.424 64.5187C133.875 66.9747 132.993 69.3187 131.929 71.5853C130.951 73.4107 129.831 75.1493 128.68 76.868C128.355 77.268 127.956 77.6093 127.733 78.0867L125.567 80.5333C125.384 80.712 125.2 80.896 125.019 81.0827V81.0787ZM132.728 76.4267C132.727 76.4227 132.727 76.4186 132.728 76.4147C132.728 76.4147 132.728 76.4533 132.737 76.4733C132.732 76.4597 132.729 76.4453 132.728 76.4307V76.4267Z" fill="#3A3A3A"/>
<path d="M39.4093 69.8733C39.6933 70.0827 39.9706 70.3027 40.2626 70.4987C43.42 72.632 48.064 72.62 51.196 70.4907C51.316 70.4467 51.4413 70.4067 51.4973 70.2693C51.9186 70.072 52.228 69.736 52.552 69.4213C53.1534 68.9442 53.6572 68.3557 54.036 67.688C55.8906 64.7627 56.184 61.68 54.9 58.4707C54.4453 57.332 53.852 56.2573 52.836 55.4907C52.6293 55.0733 52.2706 54.8067 51.9026 54.5573C51.3388 54.0517 50.6902 53.6495 49.9866 53.3693C47.4106 52.1227 44.7866 52.0853 42.1373 53.1027C41.135 53.4505 40.2134 53.9975 39.428 54.7107C39.0573 54.9678 38.7305 55.283 38.46 55.644C38.107 56.0096 37.7941 56.4119 37.5266 56.844C34.752 60.96 35.5653 66.5507 39.4093 69.8733ZM51.2213 57.6707C51.2383 57.7342 51.2689 57.7932 51.3111 57.8436C51.3532 57.894 51.4059 57.9347 51.4653 57.9627C51.6466 58.2667 51.8413 58.5627 52.0053 58.876C53.3773 61.4907 53.2186 64.936 50.788 67.3987C50.78 67.3987 50.772 67.4053 50.764 67.4187C50.192 67.944 49.536 68.352 48.88 68.7627C47.5253 69.264 46.1586 69.604 44.6893 69.3267C43.5706 69.1147 42.576 68.6467 41.608 68.0827L41.3093 67.832L39.8426 66.3267C39.8426 66.1133 39.7093 65.956 39.6186 65.78C39.0742 64.7763 38.7672 63.661 38.7213 62.52C38.6506 60.7627 39.2413 59.2347 40.236 57.8293L42.1333 56.068C43.0946 55.7533 44.0186 55.3293 45.048 55.2293C46.9146 55.048 48.572 55.56 50.0946 56.6027C50.1246 56.6619 50.1669 56.7141 50.2186 56.7557C50.2703 56.7973 50.3303 56.8274 50.3946 56.844L51.2213 57.6707Z" fill="#3A3A3A"/>
<path d="M90.7267 61.02C90.7267 60.856 90.5347 60.9226 90.4347 61.0293C90.2213 61.0986 90.012 61.176 89.796 61.2373C88.9467 61.4826 88.4627 61.0466 88.6333 60.1853C89.5227 55.532 90.4107 50.8786 91.3093 46.172C90.2787 46.172 89.288 46.1986 88.3 46.16C87.9 46.144 87.752 46.2933 87.6867 46.6533C87.2253 49.2293 86.7773 51.8066 86.2787 54.3746C85.996 55.8413 85.9507 57.3546 85.336 58.748C84.8785 59.457 84.2804 60.0646 83.5787 60.5333C82.1027 61.3333 80.584 61.6533 78.9733 60.9453C78.596 60.8053 78.3747 60.5093 78.1987 60.1733C77.912 59.6186 77.9853 59.0306 78.0813 58.4546C78.312 57.0653 78.568 55.68 78.8147 54.2933L80.2933 46.1786C79.272 46.1786 78.3053 46.212 77.34 46.1653C76.8533 46.1426 76.7333 46.364 76.6733 46.764C76.5733 47.4306 76.444 48.088 76.328 48.7493C76.0444 50.3724 75.7595 51.996 75.4733 53.62C75.3467 54.256 75.2067 54.888 75.0973 55.5266C74.812 57.1453 74.5347 58.768 74.2533 60.3893C73.9387 62.1475 73.6231 63.9071 73.3067 65.668C73.04 67.104 72.7733 68.5426 72.5067 70.024C73.5733 70.024 74.5907 70.016 75.6027 70.024C75.884 70.024 75.984 69.9493 76.02 69.656C76.0947 69.0573 76.2453 68.468 76.3373 67.872C76.5773 66.3253 77.004 64.8053 77.0907 63.2413C77.2067 63.028 77.3493 63.1213 77.4907 63.2053C79.4027 64.7306 82.5267 64.4893 84.5267 62.6613C84.9427 62.5186 85.2133 62.204 85.46 61.8613C85.7 61.9946 85.6613 62.2706 85.7267 62.48C85.912 63.0133 86.1827 63.468 86.6893 63.752C88.0227 64.4733 89.3307 64.3266 90.6147 63.6186C90.944 62.7653 90.7 61.8853 90.7267 61.02Z" fill="#3A3A3A"/>
<path d="M117.867 56.7174C117.44 56.3494 116.905 56.1734 116.427 55.9027C115.893 55.6067 115.236 55.6867 114.773 55.2547C115.573 55.1214 116.179 54.656 116.761 54.144C117.442 53.6529 117.994 53.0059 118.373 52.2574C120.04 49.5907 119.787 45.144 117.44 42.6574C117.046 42.1091 116.536 41.654 115.947 41.324C115.732 41.1667 115.528 40.9947 115.303 40.856C113.288 39.6054 111.051 39.1227 108.721 39.012C108.212 38.9867 108.092 38.8547 108.103 38.356C108.14 36.756 108.123 35.156 108.103 33.556C108.103 33.3814 108.313 32.996 107.821 33.0667C106.859 33.0587 105.896 33.06 104.933 33.04C104.617 33.0334 104.452 33.0987 104.575 33.448C104.564 35.048 104.528 36.6374 104.555 38.2307C104.564 38.788 104.492 39.008 103.839 38.9707C102.652 38.9027 101.459 38.9707 100.265 38.9814C100.255 37.1574 100.239 35.336 100.24 33.5147C100.24 33.1987 100.217 33.0214 99.8187 33.0374C98.8293 33.0774 97.8387 33.0707 96.8493 33.0827C96.7921 33.1865 96.7653 33.3044 96.772 33.4227C96.6387 34.1814 96.772 34.9507 96.7413 35.7134C96.6907 36.796 96.8373 37.8827 96.6973 38.9654L96.656 38.9934C94.1822 38.9845 91.7089 38.9765 89.236 38.9694C89.0453 38.9694 88.7947 38.928 88.8773 39.268C88.8773 39.4934 88.8773 39.7214 88.8773 39.948C88.8773 40.0374 88.8773 40.128 88.8773 40.2147C88.8773 40.4814 88.8773 40.748 88.8773 41.024C88.8773 41.1574 88.8773 41.2907 88.8773 41.4334V42.2414C88.8013 42.604 89.0733 42.516 89.252 42.5174C90.04 42.5174 90.8307 42.54 91.6173 42.508C92.52 42.4734 93.336 42.6414 93.9813 43.308C93.9879 43.3139 93.9941 43.3202 94 43.3267C94.4 43.8414 94.548 44.4334 94.548 45.0814C94.548 52.4947 94.5507 59.9072 94.556 67.3187C94.578 67.9448 94.4803 68.5693 94.268 69.1587C93.9133 69.7214 93.3667 70.0174 92.7707 70.248C91.644 70.256 90.5173 70.2827 89.3893 70.2627C88.9893 70.2627 88.836 70.3454 88.856 70.7814C88.8933 71.6574 88.9013 72.5387 88.856 73.4147C88.832 73.9027 88.928 74.064 89.46 74.056C91.7133 74.0227 93.968 74.056 96.2213 74.0267C96.6947 74.0267 96.764 74.16 96.7547 74.576C96.732 76.22 96.7547 77.8627 96.7293 79.5094C96.7293 79.8814 96.8027 80.0214 97.2013 80.008C98.056 79.98 98.9133 79.9787 99.7707 80.008C100.171 80.0227 100.244 79.8747 100.241 79.5107C100.223 77.844 100.228 76.1774 100.241 74.5107C100.241 74.3054 100.123 74.056 100.375 73.896C101.588 73.904 102.803 73.9307 104.016 73.912C104.427 73.912 104.557 74.0107 104.549 74.4347C104.524 76.0987 104.529 77.768 104.549 79.4254C104.549 79.6027 104.345 79.8867 104.708 79.9774H107.96C108.283 79.8587 108.103 79.5907 108.105 79.4054C108.12 77.76 108.125 76.1134 108.105 74.472C108.105 74.072 108.176 73.9 108.615 73.9294C109.11 73.9708 109.608 73.9614 110.101 73.9014C110.932 73.7854 111.799 73.9014 112.587 73.512C114.545 73.3587 116.272 72.6027 117.851 71.4694C118.46 70.9614 119.141 70.536 119.584 69.848C119.958 69.418 120.291 68.9532 120.577 68.46C121.727 66.3347 121.965 64.0707 121.452 61.76C120.975 59.6107 119.817 57.8667 117.867 56.7174ZM107.352 70.0974C105.164 70.1267 102.975 70.128 100.787 70.1427H100.509C100.056 70.0894 100.251 69.7427 100.251 69.5174C100.238 65.9672 100.235 62.4156 100.241 58.8627C100.241 58.604 100.285 58.336 100.132 58.0987C103.055 58.0987 105.976 58.0827 108.897 58.084C110.58 58.084 112.181 58.42 113.636 59.3054L113.931 59.5334C116.064 61.4774 116.264 65.1907 114.597 67.5334L113.093 68.8934C111.292 69.8467 109.34 70.072 107.352 70.0974ZM100.233 43.524C100.233 43.1334 100.393 43.0974 100.717 43.096C102.248 43.096 103.784 43.18 105.312 43.0654C105.761 43.1266 106.215 43.1467 106.668 43.1254C107.109 43.1454 107.552 43.168 108.001 43.2027C110.092 43.3587 112.001 43.8947 113.243 45.7854C114.34 48.0814 114.279 50.2587 112.576 52.2694L111.056 53.336C109.269 54.0027 107.416 54.184 105.523 54.1547C103.772 54.1254 102.02 54.1547 100.269 54.1547C100.257 50.604 100.255 47.0667 100.233 43.524Z" fill="#F7931B"/>
</svg>
