<svg width="806" height="485" viewBox="0 0 806 485" fill="none" xmlns="http://www.w3.org/2000/svg">
<path d="M739.142 23.2198H806.001V452.848H739.142V280.13L568.281 318.512V33.7439H634.521V234.939L739.142 211.414V23.2198Z" fill="white"/>
<path d="M170.861 23.2198H237.72V452.848H170.861V280.13L0 318.512V33.7439H66.2396V234.939L170.861 211.414V23.2198Z" fill="white"/>
<path d="M426.037 1.70419C503.42 17.7998 552.945 119.945 552.945 262.329C552.945 393.57 498.467 475.905 406.846 482.715C403.751 483.334 400.036 483.334 396.941 483.334C367.226 483.334 340.607 472.81 318.939 453.619C278.7 416.475 258.271 347.759 257.033 248.71C255.795 157.708 289.224 68.5628 340.607 26.4667C367.226 4.18044 396.941 -3.86736 426.037 1.70419ZM401.894 416.475C455.133 412.142 486.086 356.426 486.086 262.329C486.086 130.469 442.133 73.5153 412.418 67.3247C411.18 66.7056 409.322 66.7056 408.084 66.7056C400.036 66.7056 391.989 70.42 382.703 77.8487C353.607 101.992 322.654 165.755 323.273 247.471C325.13 352.712 349.273 391.094 364.131 404.094C374.655 413.38 386.417 417.713 401.894 416.475Z" fill="white"/>
<g clip-path="url(#clip0_650_7224)">
<path d="M530.296 354.476C521.114 354.088 511.929 354.281 502.743 354.448C496.363 354.56 489.986 354.74 483.643 355.491C481.97 355.686 481.484 355.227 481.325 353.461C480.461 343.884 479.367 334.326 478.395 324.756C477.938 320.23 477.67 315.687 477.1 311.179C476.908 309.664 477.608 307.05 474.996 307.143C472.257 307.244 473.517 309.764 473.619 311.092C474.228 318.94 475.059 326.771 475.833 334.608C476.453 340.884 477.105 347.139 477.741 353.409C478.534 361.239 479.35 369.07 480.116 376.904C481.307 389.104 482.63 401.263 481.605 413.593C480.662 424.941 480.414 436.349 479.848 447.729C479.699 450.705 479.47 453.676 479.375 456.652C479.341 457.734 479.069 458.078 477.908 458.206C454.663 460.751 431.343 461.47 407.999 460.65C391.785 460.078 375.622 458.526 359.624 455.628C358.264 455.382 357.932 455.009 357.973 453.706C358.489 438.284 358.853 422.854 359.466 407.432C359.848 397.805 360.489 388.187 361.193 378.575C361.888 369.052 362.814 359.562 363.617 350.052C364.388 340.893 365.102 331.727 365.896 322.565C366.691 313.404 367.552 304.258 368.381 295.107C368.467 294.148 368.545 293.183 368.564 292.222C368.584 291.319 368.493 290.363 367.34 290.252C366.188 290.142 365.577 290.856 365.398 291.943C365.044 294.183 364.636 296.421 364.39 298.672C363.958 302.587 363.602 306.509 363.33 310.437C363.257 311.493 362.97 312.095 361.923 312.24C354.675 313.244 347.461 314.49 340.144 314.969C339.763 314.964 339.382 314.931 339.006 314.869C340.666 308.506 341.864 302.176 341.732 295.655C341.56 287.958 339.968 280.361 337.038 273.245C336.567 272.088 336.675 271.282 337.269 270.146C339.775 265.352 343.496 262.703 348.76 261C357.735 258.098 366.244 253.817 375.463 251.477C385.137 249.027 394.956 247.798 404.874 247.109C405.802 247.042 406.26 247.183 406.428 248.267C406.692 250.079 407.115 251.863 407.691 253.6C410.518 261.874 417.104 265.748 425.008 267.424C433.705 269.268 441.777 267.066 449.004 261.937C453.465 258.771 456.155 254.379 457.245 249.027C457.461 248.018 457.676 247.432 458.877 247.596C472.373 249.417 485.657 251.925 497.53 259.201C511.515 267.787 519.577 280.732 524.345 296.014C527.583 306.368 529.26 317.033 530.326 327.829C531.135 336.025 531.36 344.26 532.23 352.441C532.4 354.138 531.925 354.536 530.296 354.476Z" fill="#F99E2B"/>
<path d="M483.485 184.78C480.247 181.646 474.789 181.966 470.891 185.26C469.87 186.126 468.875 186.343 467.869 185.548C466.625 184.581 467.271 183.497 467.992 182.577C469.151 181.109 470.619 179.854 472.455 179.599C475.626 179.166 475.292 177.06 475.024 174.898C474.94 174.207 474.683 173.541 474.592 172.853C472.684 159.031 466.362 147.647 455.501 138.964C444.769 130.385 432.362 128.041 418.938 129.599C405.078 131.209 393.92 137.532 385.463 148.567C376.397 160.425 373.088 174.192 372.7 188.842C372.484 193.788 373.214 198.631 374.351 203.386C376.974 214.383 381.806 224.164 390.904 231.278C399.97 238.368 410.115 242.532 421.77 242.87C431.406 243.151 440.076 240.197 448.227 235.472C456.779 230.518 463.502 223.711 467.763 214.656C468.16 213.814 469.211 212.838 467.385 212.236C465.825 211.721 465.784 210.392 466.369 209.226C467.036 207.892 468.18 207.879 469.462 208.62C470.978 209.515 472.775 209.805 474.495 209.433C480.696 208.193 485.598 202.941 486.662 196.383C487.357 192.015 486.74 187.927 483.485 184.78ZM385.964 169.474C385.031 169.52 384.064 168.805 383.883 167.617C383.684 166.334 384.543 165.563 385.892 165.433C389.957 165.046 393.447 163.178 396.788 161.016C398.012 160.226 399.087 159.609 400.104 161.144C401.12 162.678 400.104 163.54 398.934 164.295C395.059 166.79 391.01 168.862 385.964 169.474ZM396.363 190.617C394.408 192.348 391.258 191.05 390.602 188.169C390.371 187.152 390.386 186.081 390.289 185.109C390.505 181.798 390.896 178.616 393.298 176.125C395.068 174.296 396.866 174.491 398.263 176.603C400.207 179.553 399.029 188.251 396.363 190.617ZM398.25 200.618C399.732 198.276 401.619 196.19 403.322 193.987C404.013 193.091 404.785 192.242 405.375 191.284C406.13 190.054 407.011 189.037 408.476 189.961C410.048 190.957 409.631 192.323 408.653 193.556C406.754 195.937 404.822 198.318 402.914 200.698C402.588 201.101 402.32 201.549 402.016 201.969C400.937 203.436 401.153 204.425 403.011 204.971C404.764 205.486 406.508 206.016 408.349 205.962C409.741 205.925 411.218 205.962 411.272 207.715C411.33 209.63 409.78 209.758 408.297 209.7C407.948 209.682 407.598 209.7 406.685 209.7C404.764 209.793 402.424 209.219 400.251 208.037C397.116 206.332 396.303 203.685 398.25 200.618ZM434.261 224.441C432.917 226.627 431.436 225.328 429.925 224.246C424.253 220.196 413.305 218.809 406.398 223.984C405.148 224.921 403.568 227.014 402.012 224.932C400.393 222.768 402.908 221.685 404.17 220.707C407.986 217.716 412.472 216.524 417.592 216.47C421.909 216.753 426.359 217.625 430.519 219.735C431.136 220.049 431.861 220.32 432.28 220.818C433.163 221.893 435.468 222.491 434.261 224.441ZM425.086 180.073C425.893 178.848 426.858 177.631 428.658 178.04C430.329 178.419 431.138 179.813 431.393 181.185C432.053 184.721 431.971 188.293 430.34 191.628C429.595 193.143 428.55 194.545 426.618 194.357C424.587 194.158 423.786 192.502 423.294 190.805C423.009 189.827 423.098 188.738 423.02 187.7C422.975 184.953 423.568 182.367 425.086 180.075V180.073ZM442.755 172.404C442.436 173.487 441.758 173.991 440.62 173.92C437.915 173.414 435.273 172.616 432.74 171.539C429.612 170.255 426.808 168.368 424.013 166.492C422.882 165.732 421.93 164.76 423.016 163.245C424.076 161.784 425.174 162.271 426.349 163.154C430.441 166.215 435.1 168.428 440.055 169.662C440.56 169.778 441.05 169.95 441.518 170.173C442.405 170.632 443.111 171.221 442.755 172.407V172.404Z" fill="#FEFEFE"/>
<path d="M378.541 150.941C376.94 154.259 375.561 157.203 374.084 160.094C373.791 160.672 373.173 161.122 372.629 161.525C367.712 165.184 363.929 169.803 361.153 175.248C360.481 176.564 358.994 178.248 360.866 179.378C362.942 180.64 363.644 178.538 364.406 177.088C366.253 173.601 368.688 170.552 371.716 167.109C370.421 172.736 369.463 177.763 368.928 182.888C367.961 192.182 369.284 201.155 371.861 210.007C372.228 211.271 372.09 212.109 371.38 213.106C357.781 232.247 345.169 252.064 331.944 271.443C328.249 276.853 324.323 282.084 319.84 286.874C318.929 287.848 317.871 288.941 319.192 290.229C320.513 291.516 321.683 290.672 322.713 289.56C326.637 285.331 330.026 280.673 333.591 275.745C335.705 280.184 336.782 284.64 337.531 289.205C338.877 297.386 337.567 305.377 335.925 313.356C335.605 314.899 334.934 315.46 333.214 315.59C323.334 316.337 313.485 316.304 303.671 314.928C297.996 314.129 292.52 312.53 287.513 309.662C277.944 304.186 274.752 294.917 278.531 284.108C281.132 276.667 285.563 270.341 290.595 264.441C304.642 247.958 319.861 232.585 335.856 218.028C344.17 210.464 348.569 201.285 350.132 190.409C351.671 179.718 356.579 170.699 363.92 162.936C368.196 158.432 372.431 153.893 378.541 150.941Z" fill="#FEFEFE"/>
<path d="M451.256 253.84C447.321 259.719 441.543 262.747 434.785 263.673C426.96 264.744 419.695 263.428 414.038 257.18C411.4 254.262 410.463 250.713 410.001 246.958C409.887 246.019 409.872 245.261 411.342 245.601C426.06 249.008 439.527 245.657 452.137 237.87C452.64 237.561 453.143 237.26 453.997 236.74C454.177 242.898 454.692 248.702 451.256 253.84Z" fill="#FEFEFE"/>
<path d="M480.339 357.835L508.261 356.207H534.053L532.833 390.414L531.007 411.693L519.127 481.942L479.832 483.264L481.863 444.848L483.765 403.107L482.573 380.436L480.339 357.835Z" fill="#FEFEFE"/>
<path d="M533.966 328.913C532.861 316.659 530.922 304.606 527.091 292.875C521.164 274.728 510.311 260.844 492.886 252.527C482.346 247.49 470.999 245.601 459.6 243.926C458.284 243.733 457.785 243.428 457.843 242.034C457.943 239.845 457.899 237.653 457.714 235.47C457.597 234.171 457.93 233.373 458.933 232.583C464.116 228.543 468.199 223.258 470.805 217.216C471.884 214.719 473.002 213.537 475.901 212.965C484.064 211.385 490.343 203.659 490.809 195.339C491.142 189.427 490.3 183.289 484.492 180.737C479.911 178.724 478.252 176.177 478.409 171.662C478.387 171.313 478.332 170.966 478.245 170.628C475.812 156.412 469.311 144.496 457.867 135.648C446.695 127.01 433.923 123.918 419.878 125.335C405.447 126.796 393.439 132.744 384.048 143.842C382.869 145.295 381.249 146.321 379.435 146.764C373.914 148.262 369.752 152.002 365.649 155.854C355.521 165.334 348.165 176.33 346.398 190.444C345.016 201.482 339.652 210.072 331.239 217.179C325.499 222.034 320.252 227.479 314.854 232.725C305.864 241.456 297.45 250.739 289.185 260.145C283.96 266.095 279.2 272.401 275.941 279.743C269.25 294.782 274.117 307.818 289.028 314.637C295.268 317.49 301.823 318.791 308.627 319.295C325.881 320.576 342.966 319.161 359.948 316.178C361.949 315.828 363.162 315.914 362.754 318.393C362.666 318.908 362.718 319.444 362.677 319.968C361.813 330.692 361.105 341.434 360.024 352.136C359.847 353.867 359.808 355.614 359.625 357.345C359.625 357.378 359.625 357.41 359.625 357.445C359.625 357.527 359.607 357.609 359.597 357.69C359.586 357.77 359.586 357.809 359.577 357.867C359.576 357.884 359.576 357.9 359.577 357.917C359.053 362.763 355.707 395.307 354.475 447.177C354.544 447.491 354.559 447.814 354.518 448.133C354.468 448.692 354.436 449.254 354.414 449.815V449.837C354.399 450.213 354.39 450.585 354.386 450.96C354.362 452.297 354.386 453.637 354.362 454.972C354.347 456.13 354.416 457.494 355.37 458.076C356.549 458.799 356.478 459.693 356.45 460.734C356.346 467.311 356.214 473.891 356.156 480.468C356.119 484.625 356.557 485.013 360.594 485.013H419.123V484.431C439.068 484.431 459.015 484.44 478.964 484.459C481.094 484.459 482.018 483.675 481.949 481.539C481.891 479.697 481.949 477.86 482.027 476.014C482.683 462.27 483.351 448.529 484.03 434.788C484.414 426.91 484.505 419.004 485.228 411.156C485.979 402.988 485.804 394.876 484.951 386.765C484.064 378.341 482.981 369.942 481.951 361.536C481.8 360.293 482.096 359.588 483.462 359.458C485.621 359.241 487.779 358.917 489.937 358.668C495.944 357.971 501.995 358.289 508.019 357.902C515.358 357.432 522.696 357.551 530.055 357.735C531.022 357.761 532.351 357.402 532.373 359.328C532.481 368.544 532.302 377.757 531.65 386.94C530.917 397.307 529.76 407.632 528.177 417.915C526.342 429.873 524.253 441.785 522.107 453.691C520.534 462.426 519.107 471.185 517.654 479.942C517.425 481.327 517.195 483.078 519.165 483.203C521 483.316 521.125 481.615 521.324 480.193C521.676 477.596 521.997 474.999 522.476 472.443C526.349 451.665 530.154 430.864 532.994 409.895C534.723 396.966 535.715 383.95 535.967 370.909C536.247 356.871 535.224 342.888 533.966 328.913ZM385.448 148.567C393.897 137.528 405.055 131.205 418.924 129.599C432.348 128.041 444.754 130.385 455.486 138.964C466.348 147.647 472.672 159.031 474.578 172.852C474.675 173.541 474.932 174.207 475.01 174.898C475.277 177.062 475.612 179.159 472.441 179.599C470.604 179.854 469.136 181.114 467.977 182.577C467.256 183.496 466.611 184.581 467.854 185.548C468.871 186.338 469.866 186.122 470.876 185.26C474.774 181.971 480.229 181.646 483.471 184.78C486.713 187.914 487.343 192.015 486.635 196.383C485.571 202.945 480.669 208.193 474.468 209.433C472.748 209.805 470.951 209.515 469.434 208.62C468.152 207.879 467.008 207.892 466.341 209.226C465.756 210.392 465.797 211.721 467.358 212.236C469.184 212.838 468.133 213.814 467.736 214.656C463.475 223.711 456.751 230.518 448.199 235.472C440.049 240.197 431.378 243.151 421.743 242.869C410.087 242.53 399.927 238.368 390.877 231.278C381.794 224.155 376.959 214.383 374.337 203.386C373.199 198.625 372.467 193.788 372.685 188.842C373.074 174.192 376.372 160.425 385.448 148.567ZM451.258 253.84C447.323 259.719 441.545 262.746 434.787 263.673C426.962 264.744 419.697 263.428 414.039 257.18C411.402 254.262 410.465 250.713 410.003 246.958C409.889 246.019 409.874 245.261 411.344 245.601C426.062 249.007 439.527 245.657 452.138 237.87C452.641 237.56 453.144 237.26 453.999 236.74C454.178 242.898 454.694 248.702 451.258 253.84ZM404.013 243.646C389.172 245.4 385.723 242.564 345.154 258.556C354.744 244.129 364.261 230.115 374.263 215.969C379.97 229.637 390.62 237.801 404.013 243.646ZM335.933 313.356C335.614 314.899 334.943 315.46 333.222 315.59C323.343 316.336 313.494 316.304 303.679 314.927C298.005 314.129 292.529 312.529 287.521 309.662C277.953 304.186 274.76 294.916 278.54 284.108C281.141 276.667 285.572 270.341 290.603 264.441C304.651 247.958 319.87 232.585 335.864 218.028C344.179 210.464 348.578 201.285 350.14 190.409C351.679 179.718 356.588 170.699 363.929 162.936C368.185 158.432 372.431 153.893 378.541 150.941C376.94 154.259 375.561 157.202 374.084 160.094C373.791 160.672 373.173 161.122 372.629 161.524C367.712 165.184 363.929 169.803 361.153 175.248C360.482 176.564 358.994 178.248 360.866 179.378C362.942 180.64 363.644 178.538 364.406 177.088C366.253 173.601 368.688 170.552 371.716 167.108C370.421 172.736 369.463 177.763 368.928 182.888C367.961 192.182 369.284 201.155 371.861 210.007C372.228 211.271 372.09 212.108 371.38 213.106C357.781 232.247 345.169 252.063 331.944 271.442C328.249 276.853 324.323 282.084 319.84 286.874C318.929 287.848 317.871 288.941 319.192 290.229C320.513 291.516 321.683 290.672 322.713 289.56C326.637 285.331 330.026 280.673 333.591 275.745C335.705 280.184 336.782 284.64 337.531 289.205C338.886 297.386 337.576 305.376 335.933 313.356ZM530.292 354.478C521.11 354.09 511.926 354.283 502.739 354.45C496.359 354.562 489.983 354.742 483.639 355.493C481.966 355.688 481.481 355.229 481.321 353.463C480.457 343.886 479.363 334.328 478.392 324.758C477.934 320.232 477.667 315.689 477.097 311.181C476.905 309.666 477.604 307.052 474.992 307.145C472.253 307.249 473.514 309.766 473.615 311.095C474.226 318.942 475.055 326.773 475.83 334.61C476.449 340.886 477.101 347.141 477.738 353.411C478.53 361.241 479.346 369.072 480.112 376.906C481.304 389.106 482.627 401.265 481.601 413.595C480.658 424.943 480.41 436.351 479.844 447.731C479.696 450.707 479.467 453.678 479.372 456.654C479.337 457.736 479.065 458.08 477.904 458.208C454.66 460.753 431.34 461.472 407.996 460.652C391.781 460.08 375.619 458.528 359.62 455.63C358.26 455.384 357.928 455.011 357.969 453.708C358.485 438.286 358.85 422.856 359.463 407.434C359.845 397.807 360.486 388.189 361.189 378.577C361.885 369.054 362.811 359.564 363.613 350.054C364.384 340.895 365.098 331.729 365.893 322.567C366.687 313.406 367.548 304.26 368.377 295.109C368.464 294.15 368.541 293.185 368.561 292.224C368.58 291.322 368.489 290.365 367.337 290.255C366.184 290.144 365.573 290.858 365.394 291.945C365.04 294.185 364.632 296.423 364.386 298.674C363.954 302.589 363.598 306.511 363.326 310.439C363.253 311.495 362.966 312.097 361.919 312.242C354.671 313.246 347.457 314.492 340.14 314.971C339.759 314.966 339.379 314.933 339.003 314.871C340.663 308.508 341.86 302.178 341.729 295.657C341.557 287.96 339.965 280.363 337.034 273.248C336.564 272.09 336.672 271.284 337.265 270.148C339.771 265.354 343.492 262.705 348.755 261.002C357.732 258.1 366.238 253.819 375.459 251.479C385.133 249.029 394.952 247.8 404.87 247.111C405.798 247.044 406.256 247.185 406.424 248.269C406.689 250.081 407.111 251.865 407.687 253.602C410.515 261.876 417.1 265.75 425.004 267.426C433.701 269.27 441.774 267.068 449 261.939C453.462 258.773 456.151 254.381 457.241 249.029C457.457 248.021 457.673 247.434 458.873 247.598C472.37 249.419 485.653 251.927 497.527 259.203C511.511 267.789 519.573 280.734 524.339 296.016C527.577 306.37 529.256 317.035 530.322 327.831C531.132 336.027 531.356 344.262 532.226 352.443C532.401 354.138 531.926 354.536 530.296 354.476L530.292 354.478Z" fill="#2E2E2E"/>
<path d="M402.009 224.923C403.565 227.001 405.145 224.923 406.395 223.975C413.302 218.8 424.25 220.188 429.922 224.237C431.446 225.319 432.918 226.618 434.263 224.441C435.47 222.493 433.184 221.893 432.273 220.818C431.854 220.311 431.129 220.041 430.512 219.735C426.352 217.625 421.893 216.753 417.584 216.47C412.465 216.524 407.979 217.716 404.163 220.707C402.905 221.685 400.39 222.765 402.009 224.923Z" fill="#2E2E2E"/>
<path d="M400.25 208.033C402.424 209.215 404.763 209.788 406.684 209.695C407.597 209.695 407.947 209.682 408.297 209.695C409.78 209.754 411.319 209.626 411.271 207.711C411.217 205.962 409.741 205.921 408.349 205.958C406.507 206.012 404.763 205.481 403.011 204.966C401.146 204.421 400.947 203.432 402.016 201.964C402.32 201.545 402.588 201.099 402.914 200.694C404.822 198.313 406.754 195.933 408.653 193.552C409.631 192.318 410.047 190.955 408.476 189.957C407.01 189.033 406.13 190.05 405.374 191.279C404.785 192.238 404.012 193.087 403.322 193.983C401.619 196.186 399.732 198.272 398.249 200.614C396.302 203.685 397.116 206.332 400.25 208.033Z" fill="#2E2E2E"/>
<path d="M398.259 176.603C396.866 174.491 395.068 174.296 393.294 176.125C390.892 178.607 390.499 181.798 390.285 185.109C390.378 186.081 390.367 187.152 390.598 188.169C391.246 191.048 394.404 192.353 396.359 190.617C399.029 188.251 400.208 179.553 398.259 176.603Z" fill="#2E2E2E"/>
<path d="M428.662 178.043C426.862 177.633 425.897 178.85 425.089 180.075C423.579 182.367 422.979 184.953 423.024 187.702C423.102 188.741 423.024 189.829 423.298 190.808C423.79 192.504 424.593 194.16 426.622 194.359C428.565 194.547 429.599 193.151 430.343 191.63C431.975 188.295 432.057 184.724 431.397 181.187C431.142 179.815 430.332 178.421 428.662 178.043Z" fill="#2E2E2E"/>
<path d="M424.016 166.49C426.822 168.366 429.615 170.253 432.745 171.537C435.277 172.614 437.919 173.412 440.623 173.917C441.761 173.991 442.438 173.485 442.758 172.402C443.114 171.216 442.408 170.628 441.521 170.175C441.053 169.952 440.563 169.781 440.058 169.665C435.103 168.43 430.444 166.217 426.351 163.157C425.175 162.273 424.079 161.787 423.019 163.247C421.942 164.754 422.885 165.73 424.016 166.49Z" fill="#2E2E2E"/>
<path d="M385.965 169.474C391.011 168.862 395.06 166.79 398.935 164.295C400.103 163.54 401.128 162.68 400.105 161.144C399.082 159.607 398.013 160.226 396.789 161.016C393.446 163.18 389.958 165.046 385.893 165.433C384.544 165.563 383.685 166.334 383.884 167.617C384.065 168.805 385.03 169.52 385.965 169.474Z" fill="#2E2E2E"/>
</g>
<defs>
<clipPath id="clip0_650_7224">
<path d="M273 125H536V344.733C536 422.2 473.2 485 395.733 485C327.95 485 273 430.05 273 362.267V125Z" fill="white"/>
</clipPath>
</defs>
</svg>
