<svg width="160" height="160" viewBox="0 0 160 160" fill="none" xmlns="http://www.w3.org/2000/svg">
<path d="M92.9331 66.216C91.8024 66.94 90.5238 66.8827 89.2664 66.8747C88.8971 66.8747 88.8211 66.956 88.8264 67.2747C88.8371 68.0747 88.8264 68.868 88.8264 69.6653C88.8264 71.132 88.8264 71.096 90.2931 71.112C92.4491 71.1347 94.6064 71.0227 96.7624 71.1747C96.7624 73.1227 96.7624 75.0707 96.7491 77.0187C96.7491 77.356 96.7998 77.5227 97.2011 77.5107C98.1638 77.48 99.1278 77.4933 100.092 77.5107C100.377 77.5107 100.504 77.456 100.5 77.1253C100.474 75.1547 100.473 73.1853 100.464 71.2147C101.764 70.9893 103.076 71.2 104.38 71.1027C104.833 71.068 104.978 71.1893 104.97 71.664C104.94 73.3973 104.952 75.1307 104.97 76.864C104.97 77.0653 104.812 77.3267 105.096 77.4813C106.192 77.4893 107.289 77.4813 108.385 77.5147C108.742 77.5253 108.804 77.4027 108.801 77.0773C108.78 75.1173 108.782 73.1587 108.777 71.1987L109.329 71.0827C109.393 71.0759 109.457 71.0625 109.518 71.0427C110.571 71.0882 111.625 71.0301 112.666 70.8693C115.152 70.5107 117.393 69.6173 119.25 67.876C121.784 65.5027 122.44 61.1613 121.288 58.344C120.973 57.3562 120.397 56.472 119.62 55.7853C119.367 55.3097 118.969 54.9278 118.482 54.696C117.662 53.9573 116.646 53.568 115.602 53.1813C116.002 52.732 116.55 52.624 116.802 52.1653C116.938 52.1512 117.064 52.0926 117.162 51.9987C120.257 49.4013 120.689 44.1213 118.057 41.0173C117.621 40.3793 117.045 39.849 116.373 39.4667C115.38 38.7251 114.215 38.2463 112.988 38.0747C112.959 38.1012 112.923 38.1176 112.884 38.1213L112.988 38.0747C112.388 38.0627 111.81 37.8373 111.204 37.8933C110.545 37.744 109.87 37.8093 109.212 37.8133C108.838 37.8133 108.72 37.68 108.741 37.3493C108.749 35.5747 108.741 33.8 108.776 32.0267C108.784 31.5893 108.605 31.5347 108.242 31.544C107.309 31.5653 106.376 31.544 105.442 31.56C105.292 31.56 105.053 31.4267 104.993 31.7213C104.993 33.564 104.984 35.4053 104.965 37.2493C104.965 37.46 105.133 37.808 104.672 37.7947C103.274 37.7547 101.872 37.8747 100.48 37.7293C100.489 35.784 100.48 33.84 100.52 31.896C100.52 31.516 100.352 31.544 100.113 31.5453C99.1798 31.5453 98.2358 31.5773 97.2984 31.5453C96.8784 31.5307 96.7411 31.6147 96.7504 32.0693C96.7811 33.756 96.7344 35.444 96.7784 37.1293C96.7931 37.6973 96.6251 37.824 96.0838 37.816C93.8558 37.788 91.6278 37.8093 89.3998 37.8067C89.1078 37.8067 88.8358 37.7613 88.8478 38.2067C88.8824 39.516 88.8891 40.8267 88.9078 42.136C89.5398 42.412 90.2064 42.2107 90.8544 42.2787C92.4278 42.4467 93.3638 42.536 93.8104 44.5667L93.8464 46.2173V48.48C93.8464 48.528 93.8464 48.576 93.8464 48.624V50.7333V56.508C93.8384 58.8907 93.8251 61.2733 93.8264 63.656C93.8264 64.4653 93.6838 65.2293 93.2491 65.9227L92.9491 66.216H92.9331ZM100.666 65.7333C100.673 62.9911 100.673 60.2493 100.666 57.508C100.666 57.2413 100.681 56.956 100.512 56.7227C100.527 56.724 100.542 56.724 100.557 56.7227C103.829 56.7227 107.098 56.744 110.369 56.7067C110.406 56.6959 110.443 56.6874 110.481 56.6813C110.576 56.7656 110.697 56.8154 110.824 56.8227C111.455 56.9521 112.062 57.1831 112.62 57.5067C112.764 57.588 112.912 57.6973 113.092 57.628C113.092 57.6503 113.096 57.6724 113.104 57.6933C113.223 57.9232 113.37 58.1377 113.541 58.332C115.253 60.504 114.62 64.1467 112.173 65.444C111.981 65.5453 111.73 65.6173 111.714 65.9C111.67 65.8782 111.621 65.8664 111.572 65.8653C110.175 66.2767 108.723 66.4714 107.266 66.4427C105.365 66.384 103.461 66.4267 101.557 66.4307C101.229 66.4307 100.897 66.404 100.578 66.5107C100.553 66.5201 100.53 66.5327 100.508 66.548C100.688 66.3133 100.666 66.02 100.666 65.7333ZM113.272 45.5387C113.785 47.4947 113.329 49.172 111.853 50.564C110.489 51.652 108.836 51.7253 107.208 51.8787H100.726C100.384 51.7787 100.593 51.444 100.46 51.2573C100.47 48.3169 100.48 45.3769 100.489 42.4373C103.081 42.4373 105.678 42.4013 108.27 42.4493C109.737 42.476 111.133 42.828 112.28 43.8387L112.4 43.972C112.752 44.4693 113.113 44.9467 113.272 45.544V45.5387ZM105.097 71.3013C105.088 71.298 105.078 71.298 105.069 71.3013C105.01 71.3253 105.052 71.276 105.097 71.2707V71.308V71.3013Z" fill="#F7931B"/>
<path d="M139.473 52C139.473 51.9533 139.473 51.9053 139.473 51.8573C139.489 51.5587 139.547 51.2533 139.373 50.9747C139.256 49.8733 139.151 48.7693 138.936 47.6787C138.368 44.7853 137.524 41.9827 136.231 39.324C135.804 38.2946 135.289 37.3043 134.692 36.364C134.011 35.1119 133.216 33.9255 132.316 32.82C131.185 31.204 129.82 29.7987 128.371 28.472C128.002 28.0419 127.57 27.6709 127.089 27.372C125.606 25.9867 123.947 24.8015 122.156 23.8467C122.065 23.7719 121.97 23.7025 121.872 23.6387C117.744 21.2211 113.149 19.7082 108.392 19.2C104.61 18.7693 100.785 18.9095 97.0452 19.616C94.1679 20.172 91.3812 21.0107 88.7425 22.308C88.2756 22.4645 87.8344 22.6892 87.4332 22.9747C86.5479 23.3573 85.7332 23.8747 84.9332 24.4C84.1839 24.7467 83.5599 25.2707 82.9332 25.7947L81.8172 26.6253L81.1185 27.2093C80.4905 27.7427 79.8105 28.2253 79.3199 28.9053C78.9706 29.1282 78.6721 29.4222 78.4439 29.768C77.9622 30.1738 77.5347 30.6398 77.1719 31.1547C76.487 31.8873 75.8715 32.6818 75.3332 33.528C74.6906 34.3225 74.1304 35.1803 73.6612 36.088C73.3177 36.5672 73.0359 37.0877 72.8225 37.6373C71.9052 39.2811 71.1889 41.0292 70.6892 42.844C69.8345 45.244 69.2372 47.688 69.1252 50.24C68.9825 50.484 69.0025 50.7493 69.0212 51.0147L68.9852 51.7933C68.7999 53.1993 68.7999 54.6234 68.9852 56.0293C68.9092 56.3813 68.9852 56.728 69.0159 57.076C68.9932 57.3427 68.9759 57.6093 69.1212 57.856L69.1479 58.2L69.1545 58.4827C69.1319 58.7373 69.1052 58.992 69.2612 59.22C69.2879 59.5107 69.2105 59.8173 69.4012 60.0813C69.3932 60.9707 69.6479 61.8147 69.8625 62.6653C70.5479 65.3787 71.4119 68.0307 72.7879 70.488C72.8551 70.7917 72.988 71.0771 73.1772 71.324C73.7359 70.804 74.3772 70.408 74.7932 69.7573C74.8379 69.7603 74.8822 69.7476 74.9185 69.7213C75.4279 69.5147 75.5039 69.244 75.2372 68.7187C74.2957 66.829 73.5406 64.8521 72.9825 62.816C72.7159 61.8907 72.6945 60.904 72.2545 60.0267C72.2412 59.584 72.2625 59.1373 72.2079 58.7C71.6225 54.0253 71.8879 49.4133 73.1412 44.8627C73.7959 42.4933 74.8065 40.2733 75.9119 38.0907L78.0452 34.6973C78.5425 34.38 78.8185 33.8707 79.1532 33.4133L80.2505 32.1453L80.5812 31.732L83.2479 29.332L83.9545 28.7693C84.1292 28.6707 84.3452 28.6133 84.3665 28.36C85.0452 28.0853 85.5905 27.6 86.1905 27.2L87.3185 26.4947L88.7665 25.68C89.0663 25.6009 89.3463 25.4607 89.5892 25.268C89.8122 25.2372 90.0203 25.1385 90.1852 24.9853C93.5945 23.5053 97.1185 22.5053 100.852 22.232C106.104 21.852 111.2 22.392 116.133 24.2667C117.773 24.8893 119.301 25.74 120.86 26.5333L123.148 28.0627L126.243 30.6067L127.919 32.3027C128.297 32.7338 128.675 33.1649 129.053 33.596C130.671 35.6639 132.088 37.882 133.283 40.22C135.299 44.688 136.476 49.3507 136.561 54.268C136.496 56.7252 136.206 59.1713 135.697 61.576C135.265 63.5573 134.575 65.452 133.851 67.3387C133.512 67.7653 133.435 68.3133 133.184 68.7773C132.608 69.7987 132.032 70.8209 131.457 71.844L128.924 75.2507L127.216 77.0667L126.516 77.772L125.26 78.9093C125.191 78.9285 125.128 78.9622 125.074 79.0082C125.02 79.0543 124.976 79.1115 124.947 79.176L124.413 79.616L124.1 79.8827C123.52 80.1707 123.067 80.6307 122.557 81.016L120.745 82.16C117.84 83.84 114.759 85.08 111.465 85.76C110.176 86.0267 108.871 86.2187 107.572 86.4347C107.481 86.4298 107.39 86.4443 107.305 86.4773L107.121 86.5093L106.36 86.5427C105.863 86.5107 105.365 86.5371 104.875 86.6213C104.827 86.6307 104.779 86.6413 104.731 86.6547C104.355 86.5627 103.977 86.6147 103.6 86.6387C102.933 86.5053 102.249 86.5173 101.569 86.5387C98.2479 86.2253 95.0239 85.5173 91.9319 84.236C91.2479 83.9533 90.6239 83.52 89.8732 83.4C89.0319 82.6773 87.9692 82.3333 87.0479 81.7413C87.0058 81.7233 86.9594 81.7182 86.9145 81.7267C86.1399 80.8 85.0665 80.2667 84.1052 79.592C84.0129 79.4012 83.871 79.2386 83.6944 79.1214C83.5178 79.0041 83.3129 78.9364 83.1012 78.9253C82.6465 79.1587 82.3212 79.54 81.9732 79.896C81.9065 79.9161 81.8458 79.9521 81.7961 80.0009C81.7464 80.0497 81.7092 80.1097 81.6879 80.176C81.4025 80.3333 81.1999 80.576 80.9652 80.8427L82.1159 81.716L82.6599 82.152L84.6532 83.6787C85.4239 84.18 86.1439 84.764 87.0025 85.1213C87.4449 85.462 87.9363 85.734 88.4599 85.928L89.5879 86.4987C90.4532 86.956 91.3759 87.276 92.2932 87.6013C94.6185 88.4253 96.9919 89.068 99.4559 89.3147C100.789 89.62 102.149 89.612 103.505 89.6427C106.179 89.7 108.829 89.5093 111.437 88.8893C114.441 88.3589 117.343 87.3601 120.037 85.9293C120.68 85.6688 121.293 85.3403 121.867 84.9493C122.579 84.6111 123.25 84.1924 123.867 83.7013C124.317 83.4663 124.737 83.1771 125.117 82.84C125.185 82.8219 125.248 82.7898 125.302 82.7457C125.357 82.7016 125.401 82.6465 125.433 82.584L126.387 81.8587C126.396 81.8587 126.405 81.8507 126.413 81.8387C126.771 81.6098 127.098 81.3356 127.385 81.0227C128.898 79.7748 130.271 78.3651 131.477 76.8187C132.067 76.2198 132.578 75.5476 132.997 74.8187C133.596 74.2013 134.02 73.468 134.405 72.708C134.709 72.2107 135.123 71.7747 135.288 71.1947C135.655 70.632 136.032 70.0733 136.143 69.3893C136.321 69.1233 136.482 68.8463 136.625 68.56C138.889 63.2693 139.875 57.756 139.473 52ZM101.427 21.796L101.476 21.8107L101.425 21.82C101.437 21.788 101.361 21.7693 101.427 21.792V21.796Z" fill="#F7931B"/>
<path d="M97.3788 123.961C96.4268 123.201 95.3374 123.317 94.2414 123.475C93.1121 123.637 92.0094 123.973 90.8574 123.972C90.6028 123.715 90.4841 123.384 90.3681 123.053C89.2125 119.755 88.057 116.456 86.9014 113.159C85.5494 109.313 84.2148 105.463 82.8281 101.629C82.4508 100.585 81.9388 99.58 80.8681 99.028C80.6654 98.6946 80.3508 98.508 80.0028 98.3613C79.1569 97.805 78.186 97.4678 77.1774 97.38C76.5994 97.2875 76.0148 97.2429 75.4294 97.2466C71.4917 97.26 67.5543 97.2649 63.6174 97.2613C63.2041 97.2613 62.7708 97.336 62.3961 97.0666C62.1601 96.8 61.9228 96.5453 61.5468 96.488C61.1468 95.92 60.5494 95.604 59.9814 95.2493C58.984 94.51 57.9033 93.8902 56.7614 93.4026C56.3994 93.1164 55.9823 92.9076 55.5361 92.7893C54.9788 92.62 54.8694 92.3 54.8948 91.7693C54.9374 91.052 54.8948 90.3306 54.8854 89.6106C54.8934 88.9346 54.9041 88.256 54.9041 87.5773C54.9041 87.3573 54.9174 87.1946 55.1948 87.3546L56.3174 88.3413L57.1548 89.0506L57.9974 89.7573L58.8374 90.4613C59.6494 91.1626 60.4374 91.9 61.3934 92.4106C63.0494 93.4293 64.8948 93.3866 66.3494 92.2946L66.7494 91.9986C68.1758 90.7125 69.5332 89.3519 70.8161 87.9226L70.9841 87.756C72.0028 86.9093 72.9068 85.9493 73.8054 84.9813C74.5228 84.2346 75.3841 83.6253 75.9388 82.724C76.3243 82.5214 76.6544 82.2275 76.9001 81.868C77.0806 81.773 77.229 81.6269 77.3268 81.448C78.1361 80.6386 78.9801 79.86 79.7468 79.0106C80.7134 77.944 81.9188 77.0826 82.6681 75.8106C82.9244 75.5085 83.0858 75.1374 83.1321 74.744C83.2982 74.2052 83.3318 73.6343 83.2302 73.0798C83.1285 72.5253 82.8945 72.0034 82.5481 71.5586C82.4881 71.4013 82.4361 71.2386 82.2694 71.1586C81.6894 70.3226 80.8494 69.88 79.9054 69.5933C79.5188 69.4473 79.0921 69.4473 78.7054 69.5933C78.3864 69.6137 78.0745 69.697 77.7878 69.8384C77.5011 69.9798 77.2451 70.1766 77.0348 70.4173C75.2321 72.0933 73.5028 73.8426 71.8174 75.6333C71.8108 75.6333 71.8041 75.6413 71.7974 75.6533C70.6748 76.7804 69.5525 77.908 68.4308 79.036L67.1614 80.3026L66.1761 81.2893C66.0534 81.3506 65.9228 81.408 65.9308 81.58C65.3401 81.98 64.8708 82.5133 64.3974 83.0306C64.0521 83.408 63.7534 83.4453 63.3734 83.1453C63.1068 83.012 63.0188 82.7213 62.8254 82.524L61.1094 80.4533C60.8316 80.033 60.5063 79.646 60.1401 79.3C59.7734 78.7386 59.3001 78.268 58.8494 77.7773C58.5508 77.4186 58.3748 76.9413 57.8854 76.7613C57.4854 76.0146 56.8988 75.4133 56.3308 74.7986L55.7561 74.1133L54.9214 73.124C54.5934 72.7053 54.3214 72.2346 53.8174 71.988C52.7921 70.2666 51.3841 69.024 49.4174 68.488C49.3021 68.4922 49.1866 68.4828 49.0734 68.46C46.7121 67.6773 44.5508 68.18 42.5121 69.476C42.0069 69.7471 41.5662 70.1241 41.2201 70.5813C40.1614 71.6378 39.5218 73.0424 39.4201 74.5346C39.2508 74.9613 39.2734 75.4106 39.2734 75.8546C39.2734 80.7293 39.2668 85.6053 39.2934 90.48C39.2934 91.072 39.2521 91.5133 38.5614 91.5933C38.4121 91.5733 38.3108 91.5226 38.2948 91.3426C38.1099 89.7631 37.9197 88.184 37.7241 86.6053C37.5677 85.3386 37.4086 84.0733 37.2468 82.8093C37.2511 82.6877 37.2358 82.5661 37.2014 82.4493L37.1734 82.2266C36.9148 79.6466 36.6748 77.0653 36.3881 74.4933C36.2681 73.4053 36.0681 72.32 35.3214 71.4426C34.9552 70.9019 34.4764 70.4467 33.9179 70.1082C33.3593 69.7697 32.7343 69.5558 32.0854 69.4813C32.0193 69.4584 31.9509 69.4423 31.8814 69.4333C28.5481 69.336 25.2148 69.368 21.8814 69.416C21.6561 69.416 21.4041 69.416 21.2308 69.6226C20.1508 70.4426 20.2174 71.732 21.3748 72.4L21.4268 72.436H21.4668C21.7534 72.676 22.0948 72.5693 22.4068 72.5693C25.3543 72.5782 28.3019 72.5755 31.2494 72.5613C31.8881 72.5613 32.4494 72.6946 32.9068 73.144C33.1366 73.5206 33.2868 73.9404 33.3481 74.3773C33.4334 75.1653 33.5588 75.9493 33.6574 76.7346C34.0681 80.0453 34.4574 83.3573 34.8908 86.6653C35.1268 88.4946 35.2388 90.34 35.6001 92.152C35.6534 92.536 35.5268 92.776 35.1308 92.916C34.7948 93.036 34.4948 93.2586 34.1788 93.4346C33.5344 93.7449 32.9183 94.1107 32.3374 94.528L30.7748 95.6653C30.2673 95.9869 29.7992 96.3669 29.3801 96.7973C28.7989 97.1945 28.2741 97.6686 27.8201 98.2066C27.7281 98.4826 27.3441 98.4733 27.2721 98.7746L26.4161 99.7333C25.7971 100.448 25.2286 101.206 24.7148 102C24.2408 102.669 23.8289 103.379 23.4841 104.123C23.3508 104.364 23.1881 104.597 23.0708 104.849C21.4708 108.301 20.5988 111.916 20.6054 115.732C20.6054 117.173 20.6054 118.619 20.9454 120.033C21.4844 123.578 22.8321 126.952 24.8841 129.892L25.1694 130.315L25.4188 130.635C25.8814 131.504 26.5961 132.164 27.2654 132.863C28.0205 133.75 28.8729 134.551 29.8068 135.248C30.3701 135.776 30.9842 136.246 31.6401 136.653L32.4868 137.219C33.005 137.616 33.5746 137.943 34.1801 138.188C34.4639 138.392 34.7792 138.548 35.1134 138.649C35.7013 139 36.3342 139.269 36.9948 139.449C37.2108 139.536 37.4241 139.635 37.6441 139.708C41.7228 141.053 45.8668 141.455 50.1014 140.58C52.8721 140.16 55.4094 139.113 57.8068 137.699C58.1734 137.484 58.6321 137.379 58.8574 136.959C59.9694 136.425 60.9188 135.665 61.8121 134.825C62.7423 134.071 63.5914 133.222 64.3454 132.292C64.6494 132.009 64.9774 131.747 65.0734 131.312C65.9646 130.389 66.7129 129.339 67.2934 128.195C68.8074 125.693 69.8107 122.917 70.2454 120.025C70.2226 119.999 70.2083 119.966 70.2041 119.931C70.2174 119.963 70.2308 119.993 70.2454 120.025C70.3294 119.576 70.3561 119.117 70.4148 118.665C70.6719 116.699 70.6576 114.707 70.3721 112.745C70.3361 112.492 70.3934 112.177 70.1334 111.981C70.1121 111.636 70.1334 111.28 70.0628 110.947C69.7961 109.791 69.7881 109.795 70.9681 109.725C71.2702 109.72 71.5724 109.73 71.8734 109.756C72.4628 109.831 73.0734 109.576 73.6441 109.901L79.1881 123.965C79.2614 124.252 79.0401 124.232 78.8708 124.276C77.2201 124.267 75.6868 124.637 74.3561 125.665C73.4851 126.239 72.762 127.011 72.2454 127.917C70.5894 130.269 70.5281 134.109 72.1121 136.505C72.1911 136.734 72.3291 136.938 72.5121 137.096C72.599 137.318 72.7481 137.509 72.9414 137.648C73.1691 137.973 73.4516 138.257 73.7761 138.485C75.0774 139.635 76.5561 140.397 78.3094 140.571C80.0641 140.795 81.7188 140.525 83.2428 139.592C83.247 139.592 83.2511 139.591 83.2548 139.588C83.2585 139.586 83.2617 139.583 83.2641 139.58C84.1949 139.121 85.0075 138.453 85.6388 137.629C85.7418 137.569 85.8312 137.488 85.9013 137.391C85.9713 137.295 86.0204 137.185 86.0454 137.068C86.7543 136.268 87.2123 135.277 87.3628 134.219C87.4601 133.584 87.7201 133.301 88.3161 133.248C88.3842 133.264 88.4542 133.271 88.5241 133.268C90.7792 132.873 93.033 132.476 95.2854 132.076C96.3028 131.895 97.3014 131.663 98.0561 130.876C100.201 129.105 99.8268 125.277 97.3788 123.961ZM73.9121 106.895C72.4628 106.903 71.0134 106.868 69.5654 106.919C69.0081 106.939 68.7654 106.772 68.5454 106.252C68.1174 105.263 67.7974 104.203 67.0454 103.376C66.5468 102.253 65.8454 101.259 65.1134 100.283L65.3441 100.149C68.2685 100.168 71.1934 100.187 74.1188 100.207C75.4894 100.22 76.8614 100.229 78.1721 100.719C78.94 101.1 79.5752 101.704 79.9948 102.452C81.7725 107.4 83.5503 112.348 85.3281 117.296C86.1432 119.569 86.9583 121.844 87.7734 124.12C87.8761 124.445 87.9628 124.779 88.0854 125.097C88.6814 126.64 89.6001 127.16 91.2854 126.921C92.5028 126.713 93.7214 126.507 94.9374 126.293C95.5068 126.195 95.9414 126.359 96.2494 126.865C96.8321 127.821 96.4414 128.813 95.2908 129.039C92.7228 129.541 90.1401 129.972 87.5681 130.453C87.1681 130.529 87.1468 130.245 87.0761 130.028C86.8241 129.247 86.5334 128.481 86.0681 127.804C85.5348 127.024 85.0214 126.204 84.1014 125.787C83.7094 125.243 83.1094 124.987 82.5441 124.683C82.4428 124.448 82.3361 124.217 82.2414 123.98C81.6548 122.522 81.0703 121.063 80.4881 119.603C80.4746 119.556 80.4558 119.511 80.4321 119.469C79.4988 117.041 78.5761 114.608 77.6321 112.183C77.0788 110.757 76.6401 109.284 75.8988 107.932C75.7388 107.629 75.6028 107.305 75.2014 107.245C74.8039 107.027 74.36 106.908 73.9068 106.896L73.9121 106.895ZM74.0241 131.08C74.6108 128.536 76.4681 127.104 79.3014 126.923C80.2348 126.976 81.0961 127.279 81.9374 127.657L82.6788 128.217C82.7663 128.399 82.915 128.545 83.0988 128.628C84.9894 130.717 85.2801 133.944 82.9654 136.228C81.0414 137.74 78.9654 138.109 76.7081 137.045C76.2334 136.821 75.8068 136.493 75.3588 136.212C75.3623 136.188 75.3608 136.164 75.3544 136.141C75.3479 136.118 75.3367 136.097 75.3214 136.079C74.0948 134.623 73.5868 132.955 74.0188 131.081L74.0241 131.08ZM65.3334 89.3146L65.0334 89.6C64.5094 90.0333 63.9441 90.3573 63.2281 90.2946L60.6948 88.3346C60.4103 88.0058 60.0705 87.7292 59.6908 87.5173C59.3241 87.1866 58.9561 86.8586 58.5881 86.528L58.5641 86.508C57.9472 85.9072 57.2873 85.3524 56.5894 84.848C55.9561 84.2546 55.3361 83.648 54.6161 83.1546C54.3494 82.888 54.1201 82.6 53.7894 82.4173C53.1494 81.832 52.5401 81.2173 51.7894 80.756C51.3974 80.3453 51.0094 79.932 50.5228 79.6293C50.4081 79.52 50.3014 79.4013 50.1788 79.304C49.5121 78.7706 48.8228 78.7706 48.2188 79.292C47.6588 79.7786 47.5654 80.56 48.0041 81.252C48.2471 81.6209 48.5714 81.9292 48.9521 82.1533C49.2863 82.4324 49.6228 82.7106 49.9614 82.988C50.4708 83.4146 50.9801 83.8409 51.4894 84.2666L51.7561 84.5866C51.7561 86.6733 51.7481 88.7626 51.7708 90.8533C51.7708 91.3466 51.7108 91.4986 51.1508 91.356C48.7421 90.7288 46.2449 90.5119 43.7641 90.7146C43.2534 90.7573 42.7361 90.728 42.2214 90.732C42.2214 86.0946 42.2334 81.456 42.2214 76.82C42.2148 75.544 42.3254 74.3066 42.9161 73.152C42.9241 73.152 42.9348 73.14 42.9428 73.1186C43.5321 72.3693 44.2094 71.748 45.1494 71.4333C46.6988 70.9146 48.1814 71.076 49.6388 71.7413L50.3694 72.2946L50.7961 72.7133L52.4921 74.6933L53.0681 75.384L54.1601 76.6546L54.1788 76.676C54.6508 77.236 55.1228 77.7951 55.5948 78.3533C56.0668 78.9115 56.5303 79.4764 56.9854 80.048L57.7148 80.88L58.6734 82.0173C58.9148 82.3013 59.1574 82.5853 59.3974 82.8693L59.9694 83.556C60.0588 83.6586 60.1494 83.76 60.2361 83.8626C60.4908 84.216 60.7241 84.588 61.0814 84.8533C61.2741 85.1633 61.5175 85.4387 61.8014 85.668C61.9834 85.9529 62.2167 86.2016 62.4894 86.4013C63.5388 87.24 64.7908 87.108 65.3428 86.1C65.3648 86.1022 65.387 86.0999 65.4081 86.0933C65.4292 86.0866 65.4487 86.0758 65.4654 86.0613C68.4281 83.2613 71.2161 80.284 74.0681 77.3706C74.0774 77.3706 74.0868 77.3626 74.0948 77.3453C75.3108 76.232 76.4588 75.048 77.5961 73.8546C77.7754 73.7556 77.9205 73.6045 78.0121 73.4213C78.1894 73.272 78.3654 73.1213 78.5454 72.9746C79.1681 72.468 79.6774 72.4666 80.1548 72.9746C80.5708 73.4106 80.5401 73.972 80.0441 74.5386C79.7068 74.9226 79.3428 75.284 78.9921 75.656C76.6508 77.9795 74.3099 80.3035 71.9694 82.628C71.8673 82.7234 71.8049 82.8539 71.7948 82.9933C71.6881 83.0026 71.5548 82.9586 71.5214 83.1266C69.4294 85.1453 67.3521 87.2 65.3334 89.3146ZM28.6934 101.581C29.5357 100.643 30.4258 99.7491 31.3601 98.9026C31.3694 98.9026 31.3774 98.896 31.3881 98.88L32.7854 97.7786C33.2334 97.4946 33.7254 97.2626 34.0441 96.8093C34.8094 96.576 35.4521 96.0973 36.1601 95.7426C39.8388 93.944 43.7094 93.372 47.7668 93.7733C49.0268 93.8986 50.2414 94.2253 51.4881 94.3973L51.5961 94.4346C53.3001 95.0134 54.96 95.7148 56.5628 96.5333L58.5361 97.8013C58.7416 98.0355 58.9895 98.2286 59.2668 98.3706L60.5308 99.48L62.6508 101.747C63.2605 102.641 63.8694 103.535 64.4774 104.429C64.5748 104.637 64.6641 104.851 64.7681 105.055C67.3721 110.135 68.3548 115.447 67.0214 121.071C66.2068 124.512 64.6148 127.577 62.3708 130.308C62.3614 130.308 62.3521 130.317 62.3414 130.337L60.3908 132.287L59.4014 133.131L58.2774 133.957L55.8494 135.515C54.4547 136.206 53.0145 136.802 51.5388 137.299C51.4793 137.309 51.4221 137.329 51.3694 137.359C51.2301 137.368 51.0915 137.387 50.9548 137.416C47.9894 138.216 45.0001 138.268 41.9734 137.803C39.6841 137.449 37.5734 136.592 35.4921 135.652L32.6454 133.833C31.4614 132.848 30.2241 131.923 29.2148 130.745L27.2948 128.339C27.2613 128.207 27.2134 128.079 27.1521 127.957C25.7471 125.823 24.7289 123.458 24.1441 120.971C24.1081 120.816 24.0774 120.647 23.8934 120.583C23.7228 118.477 23.4774 116.379 23.5881 114.26C23.5988 114.127 23.6068 113.993 23.6161 113.867C23.6234 113.856 23.6296 113.844 23.6348 113.832C23.7325 113.614 23.7632 113.372 23.7228 113.137C24.0631 110.718 24.7399 108.358 25.7334 106.125C26.1468 105.325 26.7134 104.599 27.0001 103.725C27.4207 103.289 27.7964 102.812 28.1214 102.301C28.3121 102.064 28.5001 101.825 28.6894 101.588L28.6934 101.581ZM21.2108 69.7506C21.2108 69.7506 21.2108 69.7426 21.2108 69.7386C21.2108 69.7346 21.2081 69.7466 21.2108 69.7506Z" fill="#3A3A3A"/>
<path d="M42.7745 63.4146C44.1305 64.568 45.7078 65.268 47.4345 65.6426C49.9429 66.2757 52.5958 65.9777 54.9012 64.804C55.508 64.5573 56.0772 64.2265 56.5918 63.8213C56.9683 63.6064 57.3048 63.3281 57.5865 62.9986C57.9159 62.7695 58.2028 62.4848 58.4345 62.1573C58.7385 61.9293 58.9265 61.608 59.1278 61.2973C61.0865 58.6173 61.6425 55.6506 60.9465 52.428C60.6276 50.5915 59.7982 48.8818 58.5532 47.4946C58.3772 47.0813 58.0612 46.7866 57.7225 46.5106L56.3438 45.364C56.1898 45.1745 55.9827 45.0353 55.7492 44.964C51.9585 42.4306 46.4558 42.848 42.7785 45.94C42.7692 45.94 42.7598 45.9493 42.7518 45.9626C42.0065 46.5693 41.3238 47.2333 40.8145 48.0586C37.8665 51.8386 38.0612 58.2226 41.2292 61.8666C41.6591 62.4611 42.1807 62.9836 42.7745 63.4146ZM56.8612 50.0613C58.8385 53.468 58.7972 56.7906 56.4478 60.0173C55.2478 61.3506 53.8332 62.304 52.0598 62.728C49.7932 63.272 47.6692 62.9066 45.6305 61.8493L43.7718 60.4346C43.7752 60.4128 43.7739 60.3905 43.7682 60.3691C43.7624 60.3478 43.7523 60.3279 43.7385 60.3106C43.2052 59.544 42.6958 58.7786 42.3252 57.9106C41.6225 56.2666 41.8132 54.5533 41.8132 52.852C42.2132 52.248 42.3105 51.5186 42.6132 50.8706C42.6852 50.752 42.7612 50.6333 42.8292 50.512C45.2545 46.3373 50.2118 45.1066 54.3265 47.66C55.3465 48.2813 56.1238 49.1506 56.8612 50.0613Z" fill="#3A3A3A"/>
<path d="M42.0732 120.863C43.8065 122.107 45.6892 122.381 47.7132 121.712H47.7212C48.0919 121.611 48.4852 121.552 48.7159 121.179C50.2225 120.479 51.2305 119.328 51.7959 117.777C51.9812 117.404 52.0265 116.995 52.0959 116.592C52.2846 115.956 52.2846 115.28 52.0959 114.644C51.993 113.692 51.6448 112.783 51.0852 112.005C51.0027 111.781 50.8563 111.585 50.6639 111.443C50.3013 110.918 49.8209 110.485 49.2612 110.179C46.4959 108.233 42.7279 108.839 40.6532 111.561C40.4359 111.695 40.3452 111.924 40.2532 112.145C38.9705 114.204 38.8768 116.316 39.9719 118.48C40.4339 119.456 41.1623 120.282 42.0732 120.863ZM48.6545 117.632C47.7985 118.809 46.0652 119.797 43.7825 118.617C41.3919 116.923 41.7025 113.669 43.9452 112.431C45.4119 111.616 46.8119 111.897 48.1332 112.824C48.3439 113.003 48.4119 113.315 48.6879 113.437C49.4999 114.841 49.6532 116.256 48.6545 117.632Z" fill="#3A3A3A"/>
</svg>
