<svg width="160" height="160" viewBox="0 0 160 160" fill="none" xmlns="http://www.w3.org/2000/svg">
<path d="M101.859 38.0774C101.534 35.4413 100.694 32.8948 99.3866 30.5827L99.0105 29.928C98.8919 29.5867 98.6639 29.3107 98.4706 29.0147C96.8291 26.4682 94.6478 24.3138 92.0812 22.704C91.2954 22.1567 90.4618 21.6815 89.5905 21.284C88.9452 20.9747 88.3079 20.632 87.5905 20.5254C86.9159 20.1694 86.2185 19.888 85.4399 19.8787C85.2854 19.754 85.0943 19.6833 84.8959 19.6774C84.8696 19.6462 84.8345 19.6239 84.7951 19.6134C84.7558 19.6029 84.7141 19.6047 84.6759 19.6187C84.5425 19.584 84.4092 19.54 84.2759 19.5174C81.8759 19.1174 79.4839 18.9987 77.0652 19.3054C75.2028 19.5435 73.3802 20.0277 71.6452 20.7454C71.1815 20.9096 70.732 21.1116 70.3012 21.3494C70.2761 21.3543 70.253 21.3663 70.2345 21.384C69.476 21.7146 68.7516 22.1188 68.0719 22.5907L67.7852 22.788C67.222 23.1127 66.6923 23.4924 66.2039 23.9214C66.1589 23.9347 66.1172 23.9574 66.0816 23.988C66.046 24.0185 66.0172 24.0563 65.9972 24.0987C65.4945 24.396 65.1225 24.8414 64.6999 25.2294C63.7876 26.0427 62.9712 26.9575 62.2665 27.956C61.8345 28.512 61.3945 29.0614 61.1119 29.7134C60.5505 30.5419 60.0853 31.4316 59.7252 32.3654C59.4191 32.9904 59.1666 33.6403 58.9705 34.308C57.9812 37.3747 57.7519 40.5227 58.0372 43.72C58.0265 43.888 57.9999 44.0587 58.1092 44.2094C58.1067 44.3651 58.113 44.5209 58.1279 44.676C58.5172 47.2267 59.2439 49.6694 60.5345 51.9147C60.8679 52.4947 61.0345 52.9814 60.4772 53.4814C59.8105 54.3987 59.5265 55.3934 59.8825 56.5094C60.0332 56.9814 60.2172 57.4427 60.0745 57.9574C60.0332 58.0143 60.0056 58.08 59.9938 58.1494C59.982 58.2188 59.9863 58.2899 60.0065 58.3574C59.6839 59.9174 59.5825 61.504 59.4532 63.084C59.2732 65.2774 59.1999 67.484 59.4359 69.6747C59.5999 71.1894 59.9972 72.6387 60.8252 73.9414C61.1018 74.463 61.4526 74.9417 61.8665 75.3627C62.3932 76.1627 63.1665 76.724 63.8665 77.3467C64.4545 77.8667 65.0332 78.4054 65.7012 78.8294C67.7879 80.5827 69.9679 82.2054 72.1905 83.7867C72.3439 83.9827 72.6652 84.024 72.6679 84.3654C72.6679 84.8014 72.7279 85.236 72.7425 85.672C72.8292 88.2387 72.9732 90.804 73.1425 93.368C73.1332 93.6987 73.0919 94.0347 73.2092 94.3534C73.2452 95.428 73.2719 96.504 73.3199 97.5787C73.3866 99.0574 73.4399 100.539 73.5545 102.016C73.6505 103.248 73.6719 104.455 73.1786 105.624C73.043 106.001 72.9299 106.387 72.8399 106.777C72.8069 106.798 72.7815 106.828 72.7676 106.864C72.7536 106.9 72.7518 106.94 72.7625 106.977C71.5372 110.728 70.3972 114.504 69.2639 118.283C68.6105 120.463 68.1385 122.691 67.6065 124.903C67.3319 126.112 67.0479 127.319 66.7839 128.531C66.2052 131.197 65.5519 133.851 65.0625 136.531C65.0537 136.616 65.0231 136.698 64.9735 136.768C64.924 136.838 64.8574 136.894 64.7799 136.931C64.7434 136.92 64.7045 136.922 64.6692 136.936C64.6338 136.95 64.6039 136.974 64.5839 137.007C63.4336 137.3 62.3069 137.679 61.2132 138.14C60.8203 138.219 60.4562 138.403 60.1599 138.673C59.5346 139.236 59.5519 140.108 60.1799 140.66C60.3519 140.792 60.5642 140.862 60.7812 140.856C61.5212 140.892 62.2105 140.677 62.8999 140.456L63.6585 140.212C64.5465 139.953 65.4399 139.713 66.2945 139.352C66.8839 139.104 67.2585 138.697 67.2972 138.033C67.4132 137.529 67.5479 137.028 67.6399 136.52C67.7865 135.72 68.1012 134.952 68.0652 134.12L68.0719 134.097C68.2345 134.015 68.2212 133.852 68.2532 133.697C68.7719 131.369 69.3199 129.045 69.8065 126.711C70.0132 125.729 70.3759 124.78 70.4185 123.764C70.5519 123.707 70.5519 123.572 70.5825 123.457C70.8679 122.331 71.1386 121.199 71.4372 120.075C71.8066 118.684 72.1999 117.299 72.5825 115.911C72.6776 115.759 72.7318 115.585 72.7399 115.405C73.0265 114.605 73.3145 113.816 73.4225 112.971C73.4745 112.919 73.5559 112.875 73.5732 112.812C74.0025 111.427 74.4239 110.039 74.8465 108.652C74.8999 108.635 74.9079 108.597 74.8946 108.549C75.1612 107.815 75.3852 107.068 75.5759 106.311C75.7064 106.044 75.8027 105.762 75.8625 105.471C78.6105 105.396 81.3572 105.425 84.1052 105.471C84.5452 106.771 84.9932 108.069 85.4252 109.373C86.0279 111.193 86.6252 113.017 87.2159 114.84C87.2277 115.015 87.2861 115.183 87.3852 115.328C87.6025 116.232 87.8781 117.12 88.2105 117.988C88.6105 119.119 88.8559 120.255 88.6959 121.464C88.6012 122.191 88.5719 122.931 88.5172 123.657C88.4159 124.981 88.3292 126.305 88.2159 127.628C88.0452 129.603 87.8572 131.576 87.6745 133.548C87.5252 135.164 87.3892 136.781 87.2145 138.395C87.1079 139.376 87.4105 139.861 88.3652 140.071C88.5663 140.097 88.7693 140.105 88.9719 140.096C89.1505 140.229 89.3519 140.179 89.5479 140.171L89.7305 140.185C89.8745 140.3 90.0412 140.265 90.2039 140.26L90.1545 140.237C90.1727 140.24 90.1897 140.248 90.2039 140.26L90.8106 140.288C90.9706 140.404 91.1519 140.367 91.3305 140.356C92.1599 140.48 92.9973 140.542 93.8359 140.541C95.0145 140.533 95.5145 139.645 94.9812 138.588C94.9846 138.577 94.9855 138.565 94.9838 138.554C94.9821 138.542 94.9778 138.531 94.9713 138.522C94.9648 138.512 94.9561 138.504 94.9461 138.498C94.936 138.492 94.9248 138.489 94.9132 138.488C94.3599 137.844 93.6199 137.736 92.8332 137.759C92.3359 137.492 91.7785 137.553 91.2492 137.459C90.7812 137.375 90.2865 137.459 89.8385 137.237C89.9196 137.072 89.9444 136.885 89.9092 136.704C89.9465 136.363 89.9892 136.023 90.0199 135.681C90.1265 134.516 90.2332 133.351 90.3319 132.185C90.5097 130.088 90.6874 127.99 90.8652 125.892C90.9825 124.477 91.0919 123.061 91.2092 121.647C91.3212 120.287 91.3425 118.937 90.7572 117.657C90.5038 116.7 90.1958 115.759 89.8345 114.837C89.7385 114.497 89.6519 114.153 89.5439 113.817C89.047 112.28 88.5461 110.745 88.0412 109.211C88.0505 109.128 88.0559 109.048 87.9679 108.999C87.6359 107.939 87.3265 106.872 86.9679 105.821C86.6092 104.771 86.3639 103.699 86.4665 102.549C86.5999 101.093 86.5999 99.6267 86.6585 98.1654C86.7919 97.7547 86.7305 97.3334 86.7239 96.9147C86.7532 96.5267 86.7945 96.1387 86.8092 95.7494C86.947 92.0027 87.0803 88.2569 87.2092 84.512C87.2065 84.414 87.2281 84.3167 87.272 84.229C87.316 84.1413 87.381 84.0659 87.4612 84.0094C87.8212 83.7174 88.2479 83.504 88.5279 83.1227C89.5226 82.5094 90.4039 81.7454 91.3279 81.036C91.4535 80.9829 91.561 80.8944 91.6372 80.7814L93.4865 79.348L94.1599 78.8067C95.0225 78.208 95.7799 77.4814 96.5812 76.8067C97.1664 76.3466 97.6942 75.818 98.1532 75.232C98.2865 75.0894 98.3972 74.9214 98.5225 74.772C99.8839 73.14 100.461 71.2147 100.612 69.144C100.752 66.9814 100.687 64.8103 100.417 62.66C100.431 62.4614 100.464 62.26 100.349 62.0734C100.341 61.988 100.333 61.9014 100.327 61.816C100.34 61.6414 100.369 61.464 100.257 61.3067C100.321 61.1107 100.143 60.964 100.152 60.7734C100.199 59.864 99.9839 58.9827 99.8852 58.0894C99.8439 57.7147 99.6892 57.344 99.8665 56.9454C100.503 55.512 100.167 54.216 99.2225 53.0467C99.0012 52.78 99.0119 52.6 99.1799 52.3214C99.4985 51.796 99.8639 51.2867 99.9932 50.6654C100.192 50.407 100.338 50.112 100.423 49.7974C100.819 48.8247 101.156 47.8286 101.431 46.8147C101.611 46.0724 101.751 45.3205 101.848 44.5627C101.887 44.5046 101.913 44.439 101.926 44.3702C101.938 44.3014 101.936 44.2307 101.92 44.1627C101.955 43.8694 102.005 43.576 102.023 43.2814C102.126 41.5453 102.071 39.8034 101.859 38.0774ZM93.9585 140.077C93.9592 140.089 93.9592 140.1 93.9585 140.112H93.9172L93.9585 140.077ZM64.6879 77.7907H64.6959C64.6959 77.7907 64.6959 77.7907 64.6959 77.7974L64.6879 77.7907ZM95.7999 30.1907C95.8359 30.2214 95.8719 30.2534 95.9052 30.2867C95.9145 30.304 95.9252 30.3187 95.9345 30.3347C97.8279 33.0707 98.8679 36.1187 99.2265 39.4094C99.1909 39.6093 99.2155 39.8154 99.2972 40.0014C99.2839 41.0614 99.3225 42.1174 99.2345 43.1774C99.0618 45.1551 98.5878 47.0948 97.8292 48.9294C97.1905 50.508 96.2892 51.932 95.2652 53.284C94.4133 54.273 93.4914 55.1994 92.5065 56.056C91.0319 57.3067 89.3799 58.272 87.6412 59.1027C86.4332 59.5826 85.19 59.9687 83.9225 60.2574C83.8711 60.2445 83.8172 60.2448 83.7659 60.2583C83.7147 60.2719 83.6676 60.2981 83.6292 60.3347C83.2599 60.3734 82.8865 60.3907 82.5225 60.4574C80.4399 60.8307 78.3745 60.656 76.3145 60.292C74.8905 60.0414 73.5426 59.5454 72.2039 59.02C70.7644 58.3431 69.3917 57.5324 68.1039 56.5987L68.1119 56.5654C68.0905 56.3894 67.9439 56.3107 67.8265 56.2107C65.5332 54.284 63.6665 52.0294 62.4612 49.26C62.4119 49.1269 62.3236 49.0116 62.2079 48.9294C62.1642 48.8704 62.1245 48.8084 62.0892 48.744C61.7204 47.7292 61.4067 46.6953 61.1492 45.6467C61.0052 45.0067 61.0159 44.3347 60.7559 43.72C60.7559 43.516 60.7639 43.32 60.7559 43.1134C60.6866 41.4614 60.6865 39.8174 60.9212 38.1707C61.2211 35.9848 61.9174 33.8719 62.9759 31.936C63.2532 31.428 63.5492 30.932 63.8452 30.4347C63.9292 30.3134 64.0172 30.1947 64.1119 30.0747C64.1432 30.0388 64.1708 30 64.1945 29.9587L64.2345 29.8947C64.2545 29.8828 64.2721 29.8675 64.2865 29.8494C64.9039 28.9414 65.6945 28.188 66.4545 27.4107C66.5045 27.3871 66.5568 27.3688 66.6105 27.356C66.9452 27.2334 67.1439 26.94 67.3985 26.716C67.9639 26.2094 68.6679 25.8774 69.1639 25.2907C69.1853 25.2556 69.2098 25.2226 69.2372 25.192C70.7546 24.2298 72.3864 23.4611 74.0946 22.904C74.5599 22.7574 75.0559 22.7054 75.4959 22.4787L75.6292 22.4534C75.6972 22.436 75.7625 22.4187 75.8345 22.404C76.3145 22.34 76.7932 22.2787 77.2719 22.2094C79.5082 21.892 81.7817 21.9475 83.9999 22.3734C85.0576 22.5913 86.0967 22.8914 87.1079 23.2707C87.1833 23.3108 87.2563 23.3554 87.3265 23.404C87.4146 23.5137 87.5314 23.5968 87.6639 23.644C88.4925 24.0042 89.2922 24.4277 90.0559 24.9107C91.7703 25.9651 93.3123 27.2768 94.6279 28.8C95.0212 29.26 95.3052 29.812 95.7999 30.1854V30.1907ZM97.8665 59.08C97.8712 59.0752 97.8766 59.0711 97.8825 59.068L97.8905 59.1014L97.8665 59.08ZM63.2439 56.9147C63.2281 56.9019 63.2112 56.8907 63.1932 56.8814L63.2505 56.8734C63.2502 56.8874 63.248 56.9013 63.2439 56.9147ZM60.5612 54.8187C60.5377 54.7983 60.5187 54.7734 60.5052 54.7454L60.5159 54.7667L60.5385 54.796L60.5572 54.8134C60.5643 54.8181 60.5719 54.8222 60.5799 54.8254L60.5612 54.8187ZM80.1772 20.9987C80.1767 21.0036 80.1767 21.0085 80.1772 21.0134C80.1777 21.0089 80.1777 21.0045 80.1772 21V20.9987ZM68.9212 78.3414C68.4345 77.784 67.7652 77.4454 67.2345 76.9414C67.1216 76.8044 66.983 76.6907 66.8265 76.6067C66.807 76.5739 66.7955 76.5368 66.7932 76.4987C66.7523 76.3968 66.6834 76.3085 66.5945 76.244C65.7257 75.5624 64.9034 74.8234 64.1332 74.032C64.0393 73.9272 63.9237 73.8439 63.7945 73.788C63.7396 73.7679 63.6883 73.7391 63.6425 73.7027C63.1129 73.0685 62.6847 72.356 62.3732 71.5907C62.2705 71.3494 62.3106 71.0574 62.0892 70.86C62.0812 70.828 62.0719 70.7934 62.0652 70.7614C62.0549 70.665 62.0393 70.5693 62.0186 70.4747C62.0186 70.4747 62.0186 70.4747 62.0186 70.4667C61.9723 70.1387 61.9279 69.8107 61.8852 69.4827C61.8586 68.572 61.7319 67.6667 61.7759 66.752C61.8172 65.928 61.8305 65.1014 61.8585 64.276C62.0532 62.436 62.2488 60.5947 62.4452 58.752C62.5012 58.208 62.5612 57.6667 63.1772 57.432C63.2625 57.4 63.2759 57.324 63.2892 57.2494C63.4866 57.2747 63.6039 57.1334 63.6972 57.004C63.8945 56.7214 64.0519 56.8014 64.2545 57.004C64.4359 57.1827 64.5705 57.4414 64.8759 57.456L64.8932 57.4467C65.3212 57.8214 65.7519 58.1934 66.1812 58.568C66.7884 59.0967 67.4453 59.5655 68.1425 59.968C68.9692 60.5526 69.8555 61.0478 70.7866 61.4454C71.3432 61.7496 71.9282 61.9988 72.5332 62.1894C73.4319 62.5107 74.3385 62.82 75.2919 62.9494C76.4574 63.2335 77.65 63.3918 78.8492 63.4214C80.5184 63.5102 82.1924 63.4163 83.8412 63.1414C85.6625 62.8214 87.4305 62.316 89.0839 61.4627C89.4258 61.3603 89.749 61.2036 90.0412 60.9987C91.0324 60.5369 91.9688 59.9658 92.8332 59.296C93.8334 58.63 94.7529 57.8501 95.5732 56.972C95.8119 56.7134 95.9852 56.648 96.2039 56.9587C96.2635 57.0817 96.368 57.1772 96.4959 57.2254C96.5879 57.3284 96.6938 57.4182 96.8105 57.492C97.3225 57.7174 97.3679 58.1747 97.4252 58.6387C97.5452 59.632 97.6705 60.624 97.7932 61.6174C97.7867 61.7087 97.7664 61.7986 97.7332 61.884C97.6785 62.0694 97.6625 62.248 97.8212 62.3974C97.8439 62.3912 97.8678 62.3912 97.8905 62.3974C97.9732 63.6569 98.0563 64.9169 98.1399 66.1774C98.2468 67.6396 98.1571 69.1096 97.8732 70.548C97.6762 71.4541 97.2994 72.3115 96.7652 73.0694C96.7119 73.1347 96.6545 73.2027 96.5946 73.26C95.8625 73.936 95.1839 74.664 94.4812 75.3694C94.4529 75.4278 94.4208 75.4844 94.3852 75.5387L93.4519 76.324C93.3959 76.352 93.3372 76.38 93.2799 76.4054C93.1343 76.4466 92.9989 76.5175 92.8821 76.6137C92.7653 76.7098 92.6697 76.8291 92.6012 76.964L92.3719 77.2054C92.0199 77.472 91.6706 77.7387 91.3199 78.0147C91.2466 78.0482 91.1714 78.0771 91.0946 78.1014C90.9482 78.1507 90.8125 78.2271 90.6945 78.3267C89.8505 78.964 88.9972 79.588 88.1612 80.2347C87.5732 80.6894 86.9079 81.0507 86.4279 81.64C86.3838 81.6897 86.3278 81.7273 86.2652 81.7494C86.1964 81.7652 86.1264 81.775 86.0559 81.7787C85.9759 81.7787 85.8959 81.768 85.8185 81.768C82.8252 81.7774 79.8332 81.7747 76.8412 81.7814C76.5745 81.7814 76.3012 81.7814 76.0319 81.7894H75.3332C75.2185 81.7894 75.1039 81.7894 74.9879 81.7894C74.5679 81.7894 74.1479 81.7747 73.7292 81.74L73.6599 81.7294C73.5775 81.6947 73.4981 81.6532 73.4225 81.6054C73.0749 81.2755 72.6963 80.9799 72.2919 80.7227C72.2746 80.6906 72.2599 80.6571 72.2479 80.6227C71.7319 80.0894 71.1092 79.6894 70.4745 79.3187C70.4202 79.3203 70.366 79.3144 70.3132 79.3014C69.8572 78.9787 69.4785 78.5334 68.9212 78.3414ZM83.3212 103.104C81.0412 103.104 78.7612 103.093 76.4812 103.117C76.0639 103.117 75.9652 102.996 75.9479 102.593C75.8679 100.613 75.7546 98.6347 75.6532 96.656V96.56C75.6532 96.3267 75.6532 96.092 75.6385 95.86C75.5585 94.364 75.4585 92.8707 75.3959 91.3747C75.3092 89.3187 75.2439 87.26 75.0905 85.2067C75.0999 84.864 75.1079 84.52 75.1159 84.1774L75.3825 84.1574H75.4786C78.4319 84.1574 81.3852 84.176 84.3372 84.164C84.6999 84.164 84.8359 84.26 84.8225 84.6187C84.7559 86.4614 84.6972 88.304 84.6359 90.1454C84.5577 92.5374 84.479 94.9263 84.3999 97.312C84.3999 97.4054 84.3999 97.5 84.3999 97.5947C84.2865 99 84.2519 100.407 84.2159 101.815C84.1985 102.12 84.1612 102.424 84.1692 102.728C84.1799 103.055 84.0212 103.149 83.7332 103.128C83.5999 103.12 83.4532 103.104 83.3145 103.104H83.3212ZM67.1652 131.285H67.1879C67.1799 131.297 67.1732 131.299 67.1652 131.285ZM66.4719 130.723V130.713L66.4812 130.721L66.4719 130.723ZM66.3305 137.881H66.2559C66.2807 137.878 66.3058 137.878 66.3305 137.881ZM68.7145 130.8H68.7252V130.813L68.7145 130.8ZM59.9145 139.779C59.9145 139.779 59.9145 139.788 59.9145 139.792C59.9145 139.796 59.8999 139.792 59.9119 139.78L59.9145 139.779ZM94.6559 139.795C94.7092 139.828 94.7612 139.865 94.8119 139.904C94.8115 139.909 94.8115 139.914 94.8119 139.919C94.7494 139.892 94.6948 139.85 94.6532 139.796L94.6559 139.795Z" fill="#3A3A3A"/>
<path d="M73.7825 77.3333C74.3425 78.0933 74.9825 78.7587 75.8398 79.2C75.8748 79.2473 75.9189 79.2871 75.9695 79.3171C76.0201 79.3471 76.0762 79.3666 76.1345 79.3747C77.8438 80.3307 79.6545 80.5427 81.5438 80.0773C82.5571 79.828 83.5105 79.436 84.2945 78.7107C84.6671 78.5086 84.9889 78.2246 85.2358 77.88C87.4225 75.6467 87.8811 71.6853 86.2571 69.0587C85.8277 68.218 85.2251 67.4778 84.4891 66.8867C83.9153 66.3126 83.2051 65.8938 82.4251 65.6693C81.9171 65.2613 81.2811 65.2493 80.6918 65.172C79.8985 65.0667 79.0918 65.016 78.2985 65.2227C77.4545 65.3307 76.6585 65.5693 75.9531 66.064C75.1919 66.4913 74.5198 67.0607 73.9731 67.7413C72.9235 68.957 72.3073 70.4868 72.2211 72.0907C72.1185 73.5987 72.3678 75.0493 73.1545 76.376C73.3034 76.7308 73.5163 77.0553 73.7825 77.3333ZM76.1425 68.8733C77.1025 68.0093 78.1958 67.464 79.5131 67.4467L80.7318 67.5413C81.5838 67.7468 82.3797 68.1384 83.0625 68.688C83.4802 69.1278 83.8585 69.6034 84.1931 70.1093C84.1904 70.14 84.194 70.1708 84.2038 70.2C85.3171 72.248 84.9518 75.108 83.0718 76.744L82.8731 76.936C82.7571 77.0093 82.6398 77.0827 82.5238 77.1587C80.6571 78.388 78.0745 78.2533 76.4305 76.8413L75.5678 75.932C75.4465 75.7027 75.3238 75.4733 75.2051 75.2427C74.6025 74.08 74.4918 72.8547 74.7185 71.5813C74.8878 70.6227 75.3758 69.8253 75.9505 69.0693C76.0145 69.008 76.0785 68.9413 76.1425 68.8773V68.8733Z" fill="#3A3A3A"/>
<path d="M90 42.4106C89.8447 42.0653 89.5874 41.7759 89.2627 41.5813C88.6648 40.9885 87.9113 40.5771 87.0894 40.3946C87.204 40.1679 87.4534 40.2013 87.5747 40.0506C87.6201 40.0399 87.6625 40.0193 87.6989 39.9903C87.7354 39.9612 87.7649 39.9244 87.7854 39.8826C88.7894 39.1373 89.284 38.1226 89.3654 36.8893C89.4773 36.5937 89.4773 36.2675 89.3654 35.9719L89.3454 35.5559C89.212 34.7386 88.9174 33.9933 88.3334 33.3839C88.0643 33.0018 87.7148 32.6832 87.3094 32.4506C87.0867 32.2279 86.8 32.1159 86.5267 31.9746C85.416 31.4026 84.192 31.3079 82.9867 31.1279C82.9934 29.7946 82.9867 28.4693 83.016 27.1413C83.024 26.7653 82.9 26.6466 82.5334 26.6599C81.9094 26.6826 81.2827 26.6893 80.6667 26.6599C80.284 26.6413 80.1334 26.7359 80.1494 27.1453C80.176 28.3333 80.1494 29.5226 80.1707 30.7106C80.1707 31.0053 80.124 31.1373 79.7947 31.1186C79.28 31.0901 78.7645 31.0861 78.248 31.1066C77.9507 31.1173 77.8894 31.0133 77.8947 30.7306C77.9174 29.5573 77.8947 28.3839 77.924 27.2119C77.932 26.8119 77.8294 26.6453 77.404 26.6653C76.7494 26.6959 76.0894 26.6959 75.4347 26.6653C75.0654 26.6466 74.988 26.7879 74.992 27.1226C75.0094 28.2959 74.992 29.4693 75.0067 30.6426C75.0067 30.9853 74.9654 31.1253 74.556 31.1119C73.072 31.0653 71.5854 31.0773 70.1 31.0533C69.7414 31.0533 69.5894 31.1733 69.5974 31.5426C69.6107 32.2306 69.5974 32.9199 69.5894 33.6066C69.5894 33.9279 69.7014 34.0719 70.0614 34.0653C70.728 34.0519 71.4067 33.9999 72.0747 34.0999C72.804 34.2079 73.0387 34.4813 73.0387 35.2213C73.0387 39.2888 73.0387 43.3559 73.0387 47.4226C73.0387 47.8693 72.888 48.2039 72.4654 48.3893C72.0454 48.3986 71.6254 48.3893 71.2067 48.4199C70.8774 48.4426 70.54 48.3079 70.2187 48.4999C69.9174 48.9986 70.0774 49.5759 69.952 50.0999C69.9176 50.4403 69.8646 50.7786 69.7934 51.1133C69.6894 51.5133 69.8347 51.6119 70.2067 51.6079C71.54 51.5959 72.8627 51.5999 74.1894 51.6013C74.776 51.6013 74.8987 51.7239 74.9014 52.3133C74.9014 53.3906 74.9174 54.4679 74.9014 55.5466C74.9014 55.8893 75.0027 56.0213 75.356 56.0093C76.012 55.9866 76.668 55.9853 77.324 56.0093C77.704 56.0226 77.844 55.8999 77.8374 55.5053C77.8134 54.3346 77.8374 53.1613 77.816 51.9906C77.816 51.6533 77.912 51.5666 78.232 51.5906C78.6996 51.6179 79.1684 51.6179 79.636 51.5906C79.9387 51.5733 79.992 51.6799 79.9894 51.9586C79.9747 53.1586 79.9974 54.3586 79.9774 55.5586C79.9774 55.9199 80.0947 56.0133 80.4347 56.0013C81.1058 55.9773 81.7769 55.9773 82.448 56.0013C82.7947 56.0133 82.9094 55.9039 82.904 55.5519C82.8854 54.2399 82.896 52.9279 82.896 51.6159L83.2867 51.5119C84.4867 51.4733 85.6867 51.3786 86.8227 50.9293C87.489 50.7688 88.1077 50.4526 88.628 50.0066C88.7467 49.9973 88.8174 49.9093 88.8947 49.8399C90.552 48.4119 91.028 46.5453 90.8267 44.4613C90.7614 43.7333 90.5587 42.9853 90 42.4106ZM82.9987 34.9546C83.1214 35.1626 83.3267 35.2879 83.496 35.4466C83.8216 35.7446 84.0265 36.1516 84.072 36.5906C84.188 37.5853 83.9174 38.4093 83.032 38.9666C82.9519 39.0158 82.8847 39.0835 82.836 39.1639C82.7942 39.2003 82.7497 39.2332 82.7027 39.2626C82.436 39.3453 82.1694 39.4306 81.9027 39.4933C80.6694 39.7733 79.4067 39.7213 78.156 39.7879C78.1448 39.7798 78.1341 39.7709 78.124 39.7613C78.0876 39.7358 78.0461 39.7185 78.0024 39.7104C77.9587 39.7024 77.9138 39.7038 77.8707 39.7146L77.8374 39.7253C77.8374 38.0613 77.8374 36.3919 77.824 34.7346C77.824 34.5133 77.8534 34.4026 78.1147 34.3946C79.7147 34.3413 81.3147 34.3026 82.8547 34.8346C82.9069 34.8709 82.9564 34.911 83.0027 34.9546H82.9987ZM84.0267 47.6986C83.5547 47.9799 83.0334 48.1133 82.5094 48.2399C82.376 48.2626 82.2427 48.2906 82.1094 48.3053C80.776 48.4533 79.4427 48.4253 78.1094 48.3986C78.0657 48.3771 78.0249 48.3502 77.988 48.3186C77.9374 48.2653 77.8934 48.2066 77.844 48.1519C77.844 46.463 77.8387 44.7777 77.828 43.0959C77.8425 42.9672 77.8325 42.8369 77.7987 42.7119C77.8043 42.6938 77.8119 42.6764 77.8214 42.6599L77.832 42.6479C77.8612 42.6525 77.8909 42.6525 77.92 42.6479C78.776 42.6479 79.6347 42.5853 80.4907 42.6826C80.722 42.7167 80.9556 42.7324 81.1894 42.7293C82.16 42.7893 83.112 42.9306 83.9734 43.4293C84.5907 43.7866 84.94 44.3199 85.128 45.0013C85.292 45.5986 85.0467 46.1373 84.9787 46.7026C84.985 46.7222 84.9935 46.741 85.004 46.7586C84.7529 47.1399 84.4205 47.4609 84.0307 47.6986H84.0267Z" fill="#F7931B"/>
</svg>
