<svg width="189" height="209" viewBox="0 0 189 209" fill="none" xmlns="http://www.w3.org/2000/svg">
<path d="M92.2713 197.167C92.2713 197.167 86.4825 199.222 82.2299 198.094C77.9772 196.966 70.7904 191.24 70.7904 191.24L68.7335 187.579C68.7335 187.579 74.7282 186.537 74.9332 184.606C75.1382 182.675 71.8057 181.607 69.881 181.524C67.9562 181.441 58.1947 181.524 58.1947 181.524L25.3898 171.642L29.5589 156.669C29.5589 156.669 10.1368 150.2 4.81445 151.838C4.81445 151.838 11.2891 128.429 19.0794 119.016C26.8696 109.602 42.8727 107.288 46.2285 107.455C46.2285 107.455 47.7753 115.052 56.7732 114.612C65.7711 114.173 65.2776 106.189 65.2776 106.189C65.2776 106.189 77.5031 103.816 91.048 114.172C104.593 124.527 110.268 130.704 110.268 130.704C111.317 129.93 100.543 141.783 98.3068 153.146L88.8212 146.761L92.2713 197.167Z" fill="#F99E2B"/>
<path d="M90.0781 58.875V17.9181C90.0781 17.9181 91.3975 3.70718 104.417 3.00921C117.436 2.31124 173.659 1.05957 173.659 1.05957C173.659 1.05957 188.143 1.83552 187.996 18.6775C187.849 35.5194 187.996 63.909 187.996 63.909C187.996 63.909 188.396 82.4968 168.7 81.6341C149.004 80.7714 130.898 81.4148 130.898 81.4148C130.898 81.4148 128.41 81.7998 127.167 82.9004L125.923 84.002L116.304 94.8283L113.927 95.2007L113.378 86.7197L113.415 81.3982L105.221 81.0307C105.221 81.0307 93.0356 81.4206 90.5144 66.116L90.0781 58.875Z" fill="#FBCB36"/>
<path d="M99.625 150.723C99.625 150.723 101.819 139.714 110.543 131.457L122.065 141.09L129.802 129.475L138.196 110.538L143.443 101.987L148.417 98.0238C148.417 98.0238 151.49 98.171 151.197 100.189C150.905 102.207 149.953 106.207 149.953 106.207L160.195 100.794C160.195 100.794 166.523 97.0333 168.243 97.4369C169.962 97.8405 169.779 99.8954 169.742 100.336C169.705 100.777 174.571 100.153 175.046 100.996C175.521 101.839 176.025 104.776 174.731 105.658C173.437 106.539 174.936 107.607 174.936 107.607L173.77 109.849C173.77 109.849 160.858 118.731 157.236 119.061L152.113 120.741C152.113 120.741 138.141 160.578 128.649 163.495C128.649 163.495 122.724 167.899 99.625 150.723Z" fill="#606060"/>
<path d="M5.19743 151.88C5.19743 151.88 -0.289146 172.741 3.38736 180.344C7.06386 187.948 14.6345 190.58 33.9478 193.611C33.9478 193.611 45.4786 195.415 50.4648 197.022C55.451 198.63 69.7228 212.877 76.8552 205.831C76.8552 205.831 81.3245 204.454 82.1776 202.335C82.1776 202.335 84.4822 200.386 83.4407 198.344C83.4407 198.344 70.739 192.203 68.5753 188.022C68.5753 188.022 74.775 187.145 74.775 184.334C74.775 181.524 65.9423 181.117 65.9423 181.117L56.6694 181.255L25.3958 171.649L29.291 156.401C29.291 156.401 18.7502 151.33 5.19743 151.88Z" fill="#606060"/>
<path d="M46.2565 102.428C46.2565 102.428 45.1965 114.028 56.1327 114.832C67.0689 115.635 64.8012 102.732 64.8012 102.732C64.8012 102.732 54.8891 104.152 46.2565 102.428Z" fill="#606060"/>
<path d="M29.9155 75.9676C29.9155 75.9676 28.599 51.5864 53.5358 50.0667C78.4727 48.5469 80.7501 75.9676 80.7501 75.9676C80.7501 75.9676 82.0695 94.3175 65.021 102.171C47.9725 110.024 35.028 91.5647 35.028 91.5647C35.028 91.5647 28.5902 91.9946 26.066 86.4761C23.5418 80.9577 28.2793 76.4443 29.9155 75.9676Z" fill="#606060"/>
<path d="M173.23 99.8097C172.735 99.795 172.23 99.7239 171.757 99.8097C170.896 99.9666 170.701 99.6225 170.591 98.8095C170.334 96.8832 169.18 96.1502 167.275 96.4504C166.199 96.6191 165.202 96.9817 164.214 97.4252C161.655 98.5707 159.277 100.034 156.864 101.446C155.124 102.462 153.477 103.676 151.4 104.45C151.633 103.216 151.9 102.218 151.995 101.207C152.137 99.717 151.865 98.2626 150.395 97.5383C148.84 96.7585 147.333 97.1016 146.064 98.3133C144.068 100.218 142.139 102.188 140.444 104.379C138.087 107.424 137.033 111.105 135.489 114.54C131.72 122.924 127.59 131.112 122.832 138.971C122.308 139.848 121.852 140.283 120.923 139.431C116.924 135.775 112.875 132.172 108.89 128.5C102.957 123.035 97.134 117.449 90.5272 112.757C83.6464 107.875 76.1068 105.112 67.6326 105.056C67.0409 105.056 66.1752 105.478 66.0081 104.368C65.8692 103.436 65.9255 102.688 67.0205 102.254C69.6642 101.21 71.93 99.525 73.8323 97.4506C80.2011 90.5089 82.7622 82.3292 81.4108 72.9719C79.3063 58.3974 66.0693 46.0874 49.3716 49.432C37.3423 51.8389 28.8652 63.3329 28.7903 74.4117C28.7845 75.1565 28.5805 75.5513 27.9771 75.9276C24.9807 77.8041 24.1442 80.7208 24.5017 83.9883C25.0109 88.6626 28.2997 91.7284 33.0624 92.2831C33.6182 92.3484 34.2283 92.2655 34.5674 92.9567C36.3542 96.6074 39.371 99.1244 42.8347 100.896C44.9236 101.968 45.5649 103.106 45.4055 105.339C45.32 106.544 44.9586 106.837 43.9734 106.971C41.9807 107.238 39.9899 107.499 38.0049 107.848C27.0512 109.754 18.8082 115.419 13.821 125.524C8.52878 136.241 4.66282 147.451 2.36792 159.206C1.29334 164.696 0.601566 170.199 1.25253 175.805C2.01037 182.293 5.17776 186.806 11.4348 189.173C16.3511 191.034 21.3878 192.319 26.5227 193.322C31.9568 194.387 37.3938 195.432 42.8716 196.246C48.0211 197.018 52.81 198.46 56.8625 202.095C59.9002 204.844 63.4914 206.905 67.3926 208.139C71.0963 209.299 74.7252 209.771 77.6449 206.322C77.7605 206.183 77.9849 206.03 78.1423 206.043C80.0408 206.228 81.0824 204.978 82.3425 203.835C83.9515 202.373 85.2971 201.002 84.6578 198.624C85.0018 197.259 83.9602 197.055 83.0819 196.814C78.3872 195.526 74.5066 192.881 71.0196 189.582C70.6203 189.201 70.0665 188.825 70.289 188.098C70.4192 188.047 70.5493 188 70.6776 187.961C72.6917 187.828 74.4367 187.124 75.6638 185.329C75.691 185.294 75.7143 185.258 75.7386 185.223C75.7765 183.116 75.2353 182.208 73.227 181.43C70.2394 180.273 67.1157 180.178 63.9503 180.332C61.1259 180.471 58.2985 180.934 55.4732 180.067C49.6436 178.279 43.7898 176.586 37.9447 174.853C34.8094 173.61 31.5225 172.841 28.3259 171.803C27.6934 171.595 26.7996 171.669 26.6111 170.707C28.5921 162.909 30.6218 155.115 32.5378 147.298C33.5288 143.247 34.3362 139.148 35.1786 135.059C35.3029 134.457 35.6313 133.539 34.5869 133.385C33.6153 133.239 33.7416 134.187 33.6153 134.738C33.2869 136.174 33.1003 137.643 32.7661 139.08C31.5118 144.485 30.2225 149.88 28.9477 155.278C26.6548 154.587 24.3949 153.746 22.064 153.236C16.8077 152.088 11.5106 151.168 5.90257 151.072H5.86953C5.87212 151.061 5.87603 151.05 5.88119 151.04C7.43574 146.423 8.8426 141.888 10.4836 137.444C12.6852 131.488 15.0394 125.568 19.0239 120.528C25.6055 112.213 34.8307 109.513 44.8342 108.538C45.3521 108.487 45.6358 108.63 45.8641 109.113C48.1182 113.954 52.0279 115.871 57.2104 115.592C60.881 115.397 64.472 113.004 65.6409 110.042C66.0722 108.956 65.5728 107.365 66.6261 106.817C67.6491 106.282 69.0278 106.879 70.2491 106.971C76.6558 107.442 82.4562 109.591 87.8349 113.088C95.3599 117.981 101.74 124.201 108.15 130.401C108.783 131.013 108.895 131.422 108.286 132.194C103.828 137.832 100.256 143.964 98.3126 150.947C98.0133 152.019 97.7296 151.932 97.0077 151.33C94.5885 149.318 92.074 147.43 89.3321 145.871C89.235 145.649 89.0863 145.432 89.0718 145.203C88.8531 141.957 88.6695 138.707 88.4412 135.461C88.3295 133.887 88.1604 132.321 87.9768 130.753C87.9214 130.266 87.7825 129.733 87.0897 129.821C86.4271 129.904 86.3707 130.406 86.4096 130.926C86.5009 132.151 86.6195 133.377 86.7011 134.606C86.976 138.493 87.2335 142.381 87.5153 146.269C87.9292 151.976 88.4227 157.674 88.754 163.387C89.0455 168.359 89.5857 173.299 89.7509 178.285C89.8665 181.767 90.2241 185.271 90.5612 188.758C90.8391 191.658 90.8527 194.581 91.3035 197.466C91.4366 197.436 91.5697 197.406 91.7028 197.368C92.4548 197.633 92.8454 197.333 92.8804 196.567C92.9081 196.024 92.9032 195.48 92.8658 194.938C92.4014 188.744 91.9224 182.551 91.4638 176.357C90.8634 168.294 90.2746 160.229 89.6975 152.164C89.6061 150.875 89.6829 149.573 89.6829 148.223C92.3509 149.65 94.466 151.576 96.794 153.195C97.6247 153.779 98.7634 154.34 99.2812 153.076C99.8525 151.675 100.35 152.328 101.03 152.783C105.413 155.754 109.72 158.85 114.385 161.384C117.372 163.007 120.457 164.441 123.87 164.743C128.994 165.195 132.49 162.262 135.432 158.579C139.645 153.315 142.439 147.245 144.942 141.033C147.288 135.219 149.621 129.396 151.713 123.478C151.974 122.742 152.024 121.787 153.014 121.491C157.907 120.022 162.471 117.763 167.053 115.567C169.579 114.356 171.989 112.907 173.963 110.856C174.945 109.839 175.761 108.634 175.634 107.209C175.551 106.298 175.79 105.663 176.187 104.93C177.323 102.836 176.314 99.9071 173.23 99.8097ZM6.82849 152.751C13.8026 153.134 20.6329 154.311 27.2795 156.497C27.9451 156.714 28.4037 156.887 28.154 157.794C27.1212 161.519 26.1719 165.27 25.1546 168.997C24.9603 169.706 24.8117 170.576 23.6108 170.149C23.125 169.973 22.235 169.899 22.0815 170.584C21.9299 171.246 22.6139 171.74 23.2144 171.949C24.8661 172.527 26.5508 173.041 28.2307 173.549C37.1195 176.22 46.0092 178.884 54.8999 181.542C56.7459 182.092 58.6056 182.213 60.5585 182.115C64.2233 181.937 67.9319 181.564 71.5501 182.587C72.5411 182.869 73.9402 182.994 73.9431 184.35C73.9431 185.688 72.5673 185.828 71.5676 186.125C70.6258 186.388 69.6685 186.592 68.7014 186.736C67.0001 187.015 66.9263 187.039 67.7784 188.606C69.3582 191.518 71.9193 193.44 74.6767 195.096C76.853 196.402 79.1129 197.568 81.335 198.8C81.5915 198.943 81.8577 199.073 82.1006 199.239C82.5475 199.539 82.7632 199.966 82.6214 200.506C82.4465 201.162 81.8966 201.068 81.4117 201.044C78.4153 200.895 75.6968 199.782 73.0201 198.557C71.0533 197.658 69.2357 196.462 67.6307 195.01C67.0215 194.462 66.3404 194.036 65.7108 194.718C64.9656 195.531 65.8381 196.062 66.3492 196.498C70.3667 199.893 75.0663 201.822 80.2759 202.897C79.7046 203.939 78.7583 204.197 77.9441 204.135C72.9977 203.757 68.3924 202.477 64.884 198.629C64.4293 198.131 63.8551 197.654 63.2605 198.267C62.7426 198.799 63.0448 199.463 63.4732 199.988C65.3076 202.235 67.8308 203.428 70.4133 204.538C71.9271 205.187 73.5895 205.306 75.2713 205.855C73.4379 207.538 71.4471 207.147 69.4835 206.725C66.0606 205.992 63.1526 204.179 60.2777 202.271C57.7787 200.614 55.6548 198.43 52.9392 197.086C49.2268 195.249 45.1364 194.904 41.1548 194.161C34.0797 192.847 26.954 191.76 19.9741 189.962C16.4764 189.06 12.9787 188.069 9.77242 186.3C5.41191 183.891 3.45124 179.993 3.08107 175.204C2.51949 167.903 3.77964 160.789 5.44495 153.726C5.61789 152.953 6.07648 152.715 6.82849 152.751ZM64.0436 104.935C64.9578 109.496 62.352 113.185 57.7457 113.747C55.8997 113.972 54.0303 113.921 52.2475 113.156C48.5117 111.547 47.3341 108.247 47.098 104.308C47.0329 103.236 47.681 103.389 48.3495 103.567C51.3993 104.383 54.4967 104.686 57.6524 104.65C59.823 104.626 61.8876 103.982 64.2845 103.688C63.8716 104.181 63.9639 104.538 64.0436 104.935ZM54.3276 102.652C48.2251 102.216 43.1544 99.6137 38.7744 95.4941C37.9583 94.7289 37.3433 93.7521 36.6301 92.8738C36.1832 92.3221 35.9558 91.8015 36.7836 91.3784C36.8258 91.3529 36.863 91.3198 36.8934 91.281C37.3792 90.7497 38.2954 90.2009 37.8339 89.4707C37.2607 88.5573 36.4999 89.4795 35.9558 89.7914C32.4979 91.7654 26.8229 88.8059 26.4255 83.6501C26.3128 82.2015 26.5022 80.8163 27.2271 79.5247C28.5873 77.1003 30.8385 76.3848 33.3238 77.5867C33.8679 77.8509 34.5334 78.3529 34.9386 77.4415C35.302 76.6255 34.9561 75.9987 34.1613 75.6459C33.898 75.5299 33.5725 75.5484 33.3121 75.4265C32.4251 75.023 31.026 75.4528 30.6412 74.6574C30.2779 73.9097 30.7384 72.7497 30.8725 71.7729C32.2065 62.0832 39.8461 53.6998 49.3706 51.447C51.0518 51.0589 52.7767 50.895 54.5006 50.9596C66.0752 50.3279 76.4761 59.9766 78.9604 70.5593C81.2407 80.2665 79.0877 88.9063 72.2253 96.1833C67.3829 101.314 61.2716 103.154 54.3238 102.652H54.3276ZM174.468 104.151C174.258 104.677 173.948 104.882 173.371 104.925C168.632 105.291 164.716 107.858 160.572 109.808C160.066 110.048 159.871 110.514 160.105 111.051C160.332 111.571 160.85 111.577 161.252 111.423C162.345 111.009 163.415 110.538 164.458 110.01C166.543 108.927 168.707 108.004 170.93 107.249C171.91 106.92 173.199 106.439 173.764 107.422C174.314 108.383 173.131 109.17 172.427 109.796C169.57 112.346 166.225 114.108 162.719 115.547C159.146 117.009 155.724 118.867 151.949 119.829C151.068 120.052 150.825 120.853 150.539 121.584C148.483 126.884 146.448 132.197 144.371 137.488C141.585 144.578 138.541 151.54 133.79 157.592C132.461 159.311 130.811 160.754 128.932 161.839C127.658 162.571 126.286 162.854 125.212 162.767C120.946 162.741 117.634 161.005 114.383 159.183C110.011 156.731 105.952 153.776 101.696 151.14C100.596 150.457 100.335 149.647 100.838 148.422C103.072 142.981 105.932 137.922 109.65 133.354C110.389 132.447 110.886 132.731 111.554 133.345C114.498 136.037 117.43 138.744 120.432 141.37C121.911 142.665 122.608 142.557 123.703 140.869C125.333 138.358 126.927 135.817 128.385 133.206C132.503 125.846 136.103 118.228 139.33 110.434C141.079 106.208 143.849 102.745 147.402 99.8984C148.043 99.3885 148.784 98.6935 149.617 99.2014C150.575 99.7863 150.363 100.866 150.115 101.762C149.726 103.178 149.24 104.57 148.727 105.947C148.533 106.464 148.518 106.876 148.898 107.283C149.319 107.727 149.724 107.41 150.105 107.235C154.033 105.458 157.755 103.302 161.399 101.012C163.06 99.9733 164.838 99.1354 166.695 98.5151C167.024 98.4144 167.36 98.3379 167.701 98.286C168.251 98.1885 168.689 98.4703 168.978 98.8651C169.268 99.2599 168.76 99.5387 168.641 99.8798C168.431 100.491 167.864 100.746 167.342 101.016C164.991 102.216 162.631 103.4 160.285 104.614C159.675 104.927 159.111 105.322 158.536 105.697C158.036 106.02 157.728 106.379 158.128 107.026C158.556 107.726 159.026 107.626 159.612 107.282C162.528 105.58 165.529 104.031 168.604 102.64C170.11 101.957 171.637 101.186 173.39 101.844C174.783 102.368 174.995 102.819 174.468 104.151Z" fill="white"/>
<path d="M65.6949 87.0903C61.7581 89.2027 56.6786 87.2589 54.5673 83.9407C54.1787 83.3353 53.6929 82.7485 52.9156 83.3558C52.2413 83.8802 52.4094 84.468 52.8592 85.1446C55.0453 88.4248 58.203 89.7262 61.9922 89.8373C63.607 89.9231 65.1304 89.6589 66.5004 88.765C67.0212 88.4268 67.7926 88.1148 67.3748 87.3223C67.0105 86.6302 66.3187 86.754 65.6949 87.0903Z" fill="white"/>
<path d="M66.463 76.1031C65.3302 75.4032 64.2216 74.676 63.4375 73.5686C63.0353 73.0022 62.7273 72.2662 61.8519 72.8774C60.959 73.5033 61.2776 74.2217 61.7634 74.9187C62.4815 75.952 63.523 76.6344 64.4781 77.3967C67.7766 80.0209 67.7912 80.0053 64.3809 82.3351C63.9427 82.6276 63.591 83.0116 63.7387 83.5341C63.8718 84.0118 64.4314 84.0927 64.8366 84.119C66.6972 84.2555 69.2204 81.7717 69.2233 79.7596C69.0718 78.0352 67.8845 76.9814 66.463 76.1031Z" fill="white"/>
<path d="M67.107 64.4754C66.2433 64.8654 66.3113 65.7164 66.5299 66.5226C67.0157 68.3211 67.486 70.1226 67.9795 71.9172C68.2904 73.0538 69.195 73.3034 70.0121 72.4514C70.5445 71.9026 70.7272 71.1841 70.7155 70.4423C70.6184 68.5521 69.9616 66.8842 68.8821 65.383C68.4566 64.7962 67.9183 64.1138 67.107 64.4754Z" fill="white"/>
<path d="M53.165 74.6369C53.8889 74.5541 53.9336 73.8239 54.1085 73.2809C54.1969 73.008 54.1619 72.6961 54.1794 72.4407C54.1026 70.9628 53.7295 69.5952 53.336 68.2207C53.0931 67.3657 52.5403 66.9593 51.73 67.0129C50.807 67.0753 50.5709 67.781 50.5524 68.5979C50.5145 70.3662 51.1354 71.9747 51.7387 73.5861C51.9875 74.2421 52.4461 74.7198 53.165 74.6369Z" fill="white"/>
<path d="M158.804 50.1056C158.47 46.0933 156.101 43.6124 152.35 42.1813C152.681 41.9913 152.888 41.8636 153.105 41.7544C158.485 38.9615 158.893 32.1125 155.119 28.0406C152.787 25.5324 149.678 24.8501 146.529 24.3012C145.902 24.194 145.701 24.0809 145.774 23.4161C145.938 21.9539 146.053 20.4751 146.106 19.0002C146.145 17.9825 146.883 16.7893 146.192 16.0026C145.518 15.2374 144.207 15.8486 143.216 15.561C141.87 15.1711 141.477 15.8905 141.379 17.0535C141.25 18.6239 141.007 20.1875 140.945 21.7609C140.888 23.1792 140.386 23.5711 138.963 23.2504C137.058 22.8166 137.076 22.9297 137.354 20.9596C137.575 19.3999 137.659 17.8226 137.839 16.258C137.943 15.3505 137.665 14.8933 136.689 14.8367C135.468 14.7656 134.234 14.8718 133.024 14.5277C132.362 14.3328 132.247 14.8367 132.166 15.3943C131.894 17.2465 131.705 19.1045 131.583 20.9742C131.534 21.7609 131.569 22.683 130.232 22.5056C127.848 22.1878 125.437 22.0748 123.061 21.7014C121.962 21.5289 121.645 21.8788 121.568 22.8497C121.488 23.8791 121.45 24.9271 121.222 25.9272C120.931 27.1945 121.535 27.4675 122.597 27.5211C123.919 27.5835 125.239 27.7969 126.564 27.8203C127.597 27.8389 127.709 28.1976 127.599 29.1744C127.096 33.679 126.724 38.1963 126.277 42.7039C125.931 46.2327 125.523 49.7557 125.209 53.2865C125.134 54.1209 124.785 54.2662 124.087 54.1745C122.771 54.002 121.449 53.8821 120.135 53.6969C119.358 53.5867 118.733 53.6784 118.648 54.6259C118.52 55.9965 118.441 57.371 118.293 58.7416C118.21 59.5136 118.402 59.8723 119.264 59.9435C121.808 60.1599 124.344 60.4953 126.885 60.7234C127.571 60.7828 127.84 60.9183 127.71 61.6787C127.476 63.0347 127.343 64.4082 127.195 65.7797C127.086 66.8043 126.612 68.0657 127.032 68.8017C127.55 69.7034 129.009 69.2199 130.037 69.4607C130.277 69.5133 130.516 69.5698 130.759 69.6118C131.668 69.7658 132.212 69.6234 132.271 68.4576C132.362 66.6434 132.723 64.842 132.883 63.0288C132.986 61.8415 133.475 61.3609 134.654 61.6904C134.939 61.7762 135.232 61.8269 135.529 61.8415C136.336 61.8658 136.584 62.1339 136.436 63.0259C136.124 64.917 135.984 66.8364 135.777 68.7451C135.703 69.4187 135.674 69.873 136.651 70.0124C137.769 70.1723 138.911 70.1216 140.006 70.3916C140.961 70.6236 141.269 70.0777 141.357 69.3115C141.583 67.4535 141.899 65.5965 141.926 63.7355C141.946 62.4088 142.434 62.2217 143.588 62.2811C146.883 62.4478 150.137 62.4088 153.201 60.7799C157.091 58.7035 159.214 54.9758 158.804 50.1056ZM135.486 37.3053C135.716 34.9014 136.022 32.5063 136.299 30.1092C136.347 29.693 136.237 29.2036 136.971 29.2631C139.846 29.5068 142.748 29.5555 145.445 30.7828C147.342 31.6494 148.308 33.0561 148.197 35.1987C148.093 37.1903 146.818 38.1398 145.176 38.7802C143.301 39.5162 141.328 39.4626 139.361 39.4158C138.723 39.4158 138.08 39.4304 137.441 39.4158C135.324 39.3593 135.286 39.3534 135.484 37.3053H135.486ZM145.688 54.7887C143.833 55.7411 141.822 55.7635 139.307 55.7713C138.044 55.6738 136.296 55.5159 134.527 55.4057C133.993 55.3736 133.883 55.1533 133.934 54.6639C134.277 51.4385 134.604 48.2106 134.915 44.9801C134.957 44.5677 135.057 44.3269 135.521 44.3747C138.867 44.7276 142.275 44.6779 145.487 45.9091C147.519 46.6889 148.678 48.1404 148.752 50.3454C148.826 52.5505 147.496 53.8597 145.683 54.7887H145.688Z" fill="white"/>
<path d="M188.819 14.0501C187.573 5.7251 180.901 0.0126725 172.027 0.000974696C165.48 -0.0081236 158.934 0.084809 152.389 0.279773C140.681 0.618034 128.974 0.995289 117.275 1.48757C112.519 1.68936 107.745 1.68936 103.015 2.33956C98.9478 2.89716 95.623 4.86532 92.9696 7.9243C90.0091 11.3362 89.2105 15.5337 89.1901 19.8814C89.1483 27.8827 89.1901 35.884 89.2814 43.8853C89.3669 51.7287 89.0006 59.5799 89.6244 67.4165C90.1102 73.6017 94.7272 79.3346 100.655 81.2043C103.805 82.2015 107.05 82.0816 110.285 82.0923C112.395 82.104 112.354 82.1011 112.406 84.2789C112.49 87.5348 112.25 90.7906 112.629 94.0465C112.92 96.4885 115.3 96.9076 116.749 95.7203C117.67 94.9798 118.535 94.1735 119.34 93.3076C122.65 89.6631 125.97 86.0274 129.299 82.4004C133.729 82.4062 138.158 82.4394 142.587 82.4111C152.62 82.3477 162.655 82.7435 172.688 82.34C173.249 82.5349 173.744 82.2161 174.264 82.1148C183.105 80.4205 188.441 73.6806 188.613 65.0087C188.923 49.5529 188.894 34.0933 188.989 18.6346C189 17.1071 189.042 15.5756 188.819 14.0501ZM187.222 18.0332C187.071 32.9479 186.994 47.8626 186.885 62.7773C186.858 66.4134 186.204 69.9091 184.509 73.162L182.521 75.8915C181.472 76.8498 180.448 77.8178 179.197 78.545C175.745 80.5414 171.959 80.8387 168.121 80.83C155.929 80.7968 143.734 80.8212 131.544 80.5892C129.012 80.5414 127.343 81.3105 126.006 83.266C123.538 85.937 121.065 88.5963 118.614 91.279C117.753 92.2227 116.954 93.2287 115.893 93.9647C114.778 94.7338 114.28 94.5261 114.242 93.1848C114.194 91.5608 114.274 89.9318 114.307 88.3107C114.35 86.2889 114.422 84.2711 114.451 82.2532C114.475 80.6057 114.16 80.3445 112.458 80.3036C109.761 80.2412 107.057 80.4459 104.359 80.1817C99.8183 79.7362 96.4255 77.3859 93.8022 73.7625C92.0533 71.1871 91.4364 68.3318 91.245 65.3791C91.1925 64.5612 91.1721 63.7346 91.1692 62.905C91.143 52.338 91.1498 41.7719 91.109 31.2049C91.0947 27.6592 91.0746 24.1144 91.0487 20.5706C91.0205 16.8254 91.5918 13.3228 93.5175 10.0991C95.0284 8.08417 96.9482 6.54688 99.1226 5.31471C100.944 4.5641 102.815 3.94996 104.787 3.85833C111.718 3.52559 118.648 3.22275 125.579 2.9498C132.022 2.69732 138.467 2.50138 144.914 2.28205C146.123 2.31714 147.336 2.34736 148.534 2.15142C148.641 2.1368 148.75 2.11535 148.856 2.09488L154.669 1.98863C156.47 1.98863 158.28 2.1602 160.07 1.79366C164.643 1.79951 169.217 1.80439 173.791 1.80829C176.77 2.28302 179.589 3.13209 181.976 5.11389C183.089 6.03997 183.861 7.24192 184.81 8.2957C186.579 11.302 187.258 14.5492 187.222 18.0332Z" fill="white"/>
</svg>
