<svg width="189" height="209" viewBox="0 0 189 209" fill="none" xmlns="http://www.w3.org/2000/svg">
<g clip-path="url(#clip0_561_6135)">
<path d="M91.7567 197.167C91.7567 197.167 85.9372 199.222 81.6619 198.094C77.3867 196.966 70.1616 191.24 70.1616 191.24L68.0938 187.579C68.0938 187.579 74.1204 186.537 74.3265 184.606C74.5326 182.675 71.1823 181.607 69.2473 181.524C67.3124 181.441 57.4989 181.524 57.4989 181.524L24.5196 171.642L28.7108 156.669C28.7108 156.669 9.1854 150.2 3.83472 151.838C3.83472 151.838 10.3438 128.429 18.1755 119.016C26.0072 109.602 42.0954 107.288 45.4691 107.455C45.4691 107.455 47.0241 115.052 56.0699 114.612C65.1156 114.173 64.6194 106.189 64.6194 106.189C64.6194 106.189 76.91 103.816 90.527 114.172C104.144 124.527 109.849 130.704 109.849 130.704C110.904 129.93 100.073 141.783 97.8244 153.146L88.2883 146.761L91.7567 197.167Z" fill="#F99E2B"/>
<path d="M89.5513 58.875V17.9181C89.5513 17.9181 90.8777 3.70718 103.966 3.00921C117.055 2.31124 173.577 1.05957 173.577 1.05957C173.577 1.05957 188.138 1.83552 187.99 18.6775C187.843 35.5194 187.99 63.909 187.99 63.909C187.99 63.909 188.392 82.4968 168.592 81.6341C148.791 80.7714 130.588 81.4148 130.588 81.4148C130.588 81.4148 128.087 81.7998 126.837 82.9004L125.587 84.002L115.917 94.8283L113.527 95.2007L112.975 86.7197L113.012 81.3982L104.775 81.0307C104.775 81.0307 92.5245 81.4206 89.9898 66.116L89.5513 58.875Z" fill="#FBCB36"/>
<path d="M99.1489 150.723C99.1489 150.723 101.354 139.714 110.125 131.457L121.708 141.09L129.486 129.475L137.925 110.538L143.2 101.987L148.201 98.0238C148.201 98.0238 151.289 98.171 150.995 100.189C150.701 102.207 149.745 106.207 149.745 106.207L160.041 100.794C160.041 100.794 166.403 97.0333 168.132 97.4369C169.86 97.8405 169.676 99.8954 169.639 100.336C169.602 100.777 174.493 100.153 174.971 100.996C175.448 101.839 175.955 104.776 174.654 105.658C173.353 106.539 174.86 107.607 174.86 107.607L173.688 109.849C173.688 109.849 160.707 118.731 157.067 119.061L151.916 120.741C151.916 120.741 137.87 160.578 128.328 163.495C128.328 163.495 122.37 167.899 99.1489 150.723Z" fill="white"/>
<path d="M4.22052 151.88C4.22052 151.88 -1.29524 172.741 2.40082 180.344C6.09687 187.948 13.7078 190.58 33.1238 193.611C33.1238 193.611 44.716 195.415 49.7287 197.022C54.7414 198.63 69.0891 212.877 76.2595 205.831C76.2595 205.831 80.7525 204.454 81.6101 202.335C81.6101 202.335 83.927 200.386 82.8799 198.344C82.8799 198.344 70.1107 192.203 67.9355 188.022C67.9355 188.022 74.1682 187.145 74.1682 184.334C74.1682 181.524 65.2885 181.117 65.2885 181.117L55.9663 181.255L24.5264 171.649L28.4422 156.401C28.4422 156.401 17.8453 151.33 4.22052 151.88Z" fill="white"/>
<path d="M45.4975 102.428C45.4975 102.428 44.4318 114.028 55.4262 114.832C66.4206 115.635 64.1409 102.732 64.1409 102.732C64.1409 102.732 54.176 104.152 45.4975 102.428Z" fill="white"/>
<path d="M29.0693 75.9676C29.0693 75.9676 27.7458 51.5864 52.8153 50.0667C77.8848 48.5469 80.1744 75.9676 80.1744 75.9676C80.1744 75.9676 81.5008 94.3175 64.3616 102.171C47.2224 110.024 34.209 91.5647 34.209 91.5647C34.209 91.5647 27.737 91.9946 25.1994 86.4761C22.6618 80.9577 27.4245 76.4443 29.0693 75.9676Z" fill="white"/>
<path d="M173.146 99.8096C172.649 99.795 172.141 99.7239 171.665 99.8096C170.8 99.9666 170.604 99.6225 170.493 98.8095C170.235 96.8832 169.075 96.1502 167.16 96.4504C166.077 96.6191 165.075 96.9817 164.082 97.4252C161.51 98.5706 159.119 100.034 156.693 101.446C154.944 102.462 153.288 103.676 151.2 104.45C151.435 103.216 151.702 102.218 151.798 101.207C151.941 99.717 151.667 98.2626 150.189 97.5383C148.627 96.7585 147.112 97.1016 145.836 98.3133C143.829 100.218 141.89 102.188 140.186 104.379C137.816 107.424 136.757 111.105 135.204 114.54C131.415 122.924 127.264 131.112 122.48 138.971C121.953 139.848 121.495 140.283 120.561 139.431C116.541 135.775 112.47 132.172 108.464 128.5C102.499 123.035 96.6455 117.449 90.0035 112.757C83.0861 107.875 75.5065 105.112 66.9872 105.056C66.3923 105.056 65.522 105.478 65.354 104.368C65.2144 103.436 65.271 102.688 66.3718 102.254C69.0296 101.21 71.3074 99.525 73.2199 97.4506C79.6225 90.5089 82.1973 82.3292 80.8386 72.9719C78.7229 58.3974 65.4156 46.0874 48.629 49.432C36.5357 51.8389 28.0135 63.3329 27.9383 74.4117C27.9324 75.1565 27.7273 75.5513 27.1207 75.9276C24.1084 77.8041 23.2674 80.7208 23.6269 83.9883C24.1387 88.6626 27.445 91.7284 32.2331 92.2831C32.7918 92.3484 33.4052 92.2655 33.7461 92.9567C35.5424 96.6074 38.5752 99.1244 42.0573 100.896C44.1574 101.968 44.802 103.106 44.6419 105.339C44.5559 106.544 44.1925 106.837 43.2021 106.971C41.1988 107.238 39.1974 107.499 37.2019 107.848C26.1899 109.754 17.9031 115.419 12.8894 125.524C7.56895 136.241 3.68242 147.451 1.37532 159.206C0.295021 164.696 -0.400432 170.199 0.253997 175.805C1.01587 182.293 4.2001 186.806 10.4904 189.173C15.4328 191.034 20.4964 192.319 25.6585 193.322C31.1215 194.387 36.5875 195.431 42.0945 196.246C47.2713 197.018 52.0857 198.46 56.1598 202.095C59.2136 204.844 62.8239 206.905 66.7459 208.139C70.4693 209.299 74.1175 209.771 77.0527 206.322C77.1689 206.183 77.3945 206.03 77.5528 206.043C79.4614 206.228 80.5085 204.978 81.7753 203.835C83.3928 202.373 84.7456 201.002 84.1029 198.624C84.4487 197.259 83.4016 197.055 82.5186 196.814C77.7989 195.526 73.8978 192.881 70.3922 189.582C69.9907 189.201 69.434 188.825 69.6576 188.098C69.7885 188.047 69.9194 188 70.0483 187.961C72.0732 187.828 73.8274 187.124 75.0611 185.329C75.0884 185.294 75.1119 185.258 75.1363 185.223C75.1744 183.116 74.6303 182.208 72.6114 181.43C69.6078 180.273 66.4675 180.178 63.2853 180.332C60.4458 180.471 57.6034 180.934 54.763 180.067C48.9025 178.279 43.0175 176.586 37.1413 174.853C33.9893 173.61 30.6849 172.841 27.4714 171.803C26.8355 171.595 25.9369 171.669 25.7474 170.707C27.739 162.909 29.7795 155.115 31.7057 147.298C32.7019 143.247 33.5136 139.148 34.3605 135.059C34.4855 134.457 34.8157 133.539 33.7656 133.385C32.7889 133.239 32.9159 134.187 32.7889 134.738C32.4587 136.174 32.2712 137.643 31.9352 139.08C30.6742 144.485 29.378 149.88 28.0965 155.278C25.7914 154.587 23.5194 153.746 21.1762 153.236C15.8919 152.088 10.5666 151.168 4.92877 151.072H4.89556C4.89815 151.061 4.90209 151.05 4.90728 151.04C6.47009 146.423 7.88444 141.888 9.53419 137.444C11.7475 131.488 14.1142 125.568 18.1199 120.528C24.7365 112.213 34.0108 109.513 44.0675 108.538C44.5881 108.487 44.8733 108.63 45.1029 109.113C47.369 113.954 51.2994 115.871 56.5095 115.592C60.1997 115.397 63.8098 113.004 64.9848 110.042C65.4185 108.956 64.9164 107.365 65.9753 106.817C67.0038 106.282 68.3898 106.879 69.6176 106.971C76.0583 107.442 81.8896 109.591 87.2969 113.088C94.8619 117.981 101.276 124.201 107.72 130.401C108.357 131.013 108.469 131.422 107.857 132.194C103.375 137.832 99.7838 143.964 97.8303 150.947C97.5295 152.019 97.2442 151.932 96.5185 151.33C94.0864 149.318 91.5585 147.43 88.8021 145.871C88.7044 145.649 88.555 145.432 88.5403 145.203C88.3206 141.957 88.136 138.707 87.9064 135.461C87.7941 133.887 87.6241 132.321 87.4395 130.753C87.3839 130.266 87.2442 129.733 86.5478 129.821C85.8816 129.904 85.825 130.406 85.864 130.926C85.9558 132.151 86.075 133.377 86.1571 134.606C86.4335 138.493 86.6923 142.381 86.9756 146.268C87.3917 151.976 87.8879 157.674 88.2209 163.387C88.514 168.359 89.0571 173.299 89.2231 178.285C89.3393 181.766 89.6988 185.271 90.0377 188.758C90.3171 191.658 90.3307 194.581 90.784 197.466C90.9178 197.436 91.0516 197.406 91.1854 197.368C91.9414 197.633 92.3341 197.333 92.3692 196.567C92.3971 196.024 92.3922 195.48 92.3546 194.938C91.8877 188.744 91.4062 182.551 90.9451 176.357C90.3415 168.294 89.7496 160.229 89.1694 152.164C89.0776 150.875 89.1547 149.573 89.1547 148.223C91.8369 149.65 93.9633 151.576 96.3036 153.195C97.1388 153.779 98.2835 154.34 98.8041 153.076C99.3785 151.675 99.8786 152.328 100.562 152.783C104.968 155.754 109.298 158.85 113.988 161.384C116.991 163.007 120.093 164.441 123.524 164.743C128.675 165.195 132.19 162.262 135.147 158.579C139.383 153.315 142.192 147.245 144.708 141.033C147.066 135.219 149.412 129.396 151.515 123.478C151.777 122.742 151.828 121.787 152.823 121.491C157.742 120.022 162.33 117.763 166.936 115.567C169.476 114.356 171.899 112.907 173.883 110.856C174.87 109.839 175.691 108.634 175.563 107.209C175.48 106.298 175.72 105.663 176.119 104.93C177.261 102.836 176.246 99.9071 173.146 99.8096ZM5.85962 152.751C12.8708 153.134 19.7374 154.311 26.4194 156.497C27.0885 156.714 27.5495 156.887 27.2985 157.794C26.2602 161.519 25.3059 165.27 24.2833 168.997C24.0879 169.706 23.9385 170.576 22.7312 170.149C22.2428 169.973 21.3481 169.899 21.1938 170.584C21.0414 171.246 21.729 171.74 22.3327 171.949C23.9932 172.527 25.6869 173.041 27.3757 173.549C36.3117 176.22 45.2487 178.884 54.1867 181.542C56.0426 182.092 57.9121 182.213 59.8754 182.115C63.5597 181.937 67.288 181.564 70.9255 182.587C71.9218 182.869 73.3283 182.994 73.3312 184.35C73.3312 185.688 71.9481 185.828 70.943 186.125C69.9963 186.388 69.0339 186.592 68.0616 186.736C66.3513 187.015 66.2771 187.039 67.1337 188.606C68.7219 191.518 71.2966 193.44 74.0687 195.096C76.2566 196.402 78.5286 197.568 80.7624 198.8C81.0203 198.943 81.2879 199.073 81.5321 199.239C81.9814 199.539 82.1982 199.966 82.0556 200.506C81.8798 201.162 81.327 201.068 80.8396 201.044C77.8272 200.895 75.0943 199.782 72.4033 198.557C70.4261 197.658 68.5987 196.462 66.9852 195.01C66.3728 194.462 65.6881 194.036 65.0551 194.718C64.306 195.531 65.1831 196.062 65.6969 196.498C69.7358 199.893 74.4604 201.822 79.6977 202.897C79.1234 203.939 78.172 204.197 77.3535 204.135C72.3808 203.757 67.751 202.477 64.2239 198.629C63.7668 198.131 63.1895 197.654 62.5918 198.267C62.0711 198.799 62.3749 199.463 62.8057 199.988C64.6498 202.235 67.1864 203.428 69.7827 204.538C71.3045 205.187 72.9757 205.306 74.6665 205.855C72.8233 207.538 70.8219 207.147 68.8479 206.725C65.4068 205.992 62.4833 204.179 59.5931 202.271C57.0809 200.614 54.9457 198.43 52.2156 197.086C48.4834 195.249 44.3713 194.904 40.3685 194.161C33.2558 192.847 26.0922 191.76 19.0752 189.962C15.5588 189.06 12.0425 188.069 8.8192 186.3C4.4355 183.891 2.4644 179.993 2.09226 175.204C1.52769 167.903 2.79455 160.789 4.46871 153.726C4.64258 152.953 5.10361 152.715 5.85962 152.751ZM63.379 104.935C64.2981 109.496 61.6785 113.185 57.0477 113.747C55.1918 113.972 53.3125 113.921 51.5202 113.156C47.7645 111.547 46.5807 108.247 46.3434 104.308C46.2779 103.236 46.9294 103.389 47.6014 103.567C50.6675 104.383 53.7814 104.686 56.9539 104.65C59.136 104.626 61.2116 103.982 63.6213 103.688C63.2061 104.181 63.2989 104.538 63.379 104.935ZM53.6114 102.652C47.4764 102.216 42.3787 99.6137 37.9755 95.4941C37.155 94.7289 36.5367 93.7521 35.8198 92.8738C35.3705 92.3221 35.1419 91.8015 35.9741 91.3784C36.0165 91.3529 36.0539 91.3198 36.0845 91.281C36.5728 90.7497 37.4939 90.2009 37.03 89.4707C36.4537 88.5573 35.6889 89.4795 35.1419 89.7914C31.6656 91.7654 25.9604 88.8059 25.5609 83.6501C25.4476 82.2015 25.638 80.8163 26.3667 79.5247C27.7341 77.1003 29.9973 76.3848 32.4958 77.5867C33.0428 77.8509 33.7119 78.3529 34.1192 77.4415C34.4845 76.6255 34.1368 75.9987 33.3378 75.6459C33.0731 75.5299 32.7459 75.5484 32.4841 75.4265C31.5923 75.0229 30.1858 75.4528 29.799 74.6574C29.4337 73.9097 29.8967 72.7497 30.0315 71.7729C31.3726 62.0832 39.0528 53.6998 48.628 51.447C50.3181 51.0589 52.0522 50.895 53.7853 50.9596C65.4214 50.3279 75.8776 59.9766 78.3752 70.5593C80.6677 80.2665 78.5032 88.9063 71.6043 96.1833C66.7361 101.314 60.5923 103.154 53.6075 102.652H53.6114ZM174.391 104.151C174.18 104.677 173.868 104.882 173.288 104.925C168.524 105.291 164.587 107.858 160.421 109.808C159.912 110.048 159.716 110.514 159.951 111.051C160.18 111.571 160.7 111.577 161.105 111.423C162.204 111.009 163.279 110.538 164.328 110.01C166.424 108.927 168.599 108.004 170.834 107.249C171.819 106.92 173.115 106.439 173.683 107.422C174.236 108.383 173.047 109.17 172.339 109.796C169.467 112.346 166.104 114.108 162.58 115.547C158.987 117.009 155.547 118.867 151.752 119.829C150.866 120.052 150.622 120.853 150.334 121.584C148.267 126.884 146.222 132.197 144.134 137.488C141.333 144.578 138.273 151.54 133.497 157.592C132.161 159.311 130.502 160.754 128.613 161.839C127.331 162.571 125.952 162.854 124.873 162.767C120.584 162.741 117.254 161.005 113.986 159.183C109.59 156.731 105.511 153.776 101.231 151.14C100.126 150.457 99.8639 149.647 100.369 148.422C102.615 142.981 105.49 137.922 109.228 133.354C109.971 132.447 110.471 132.731 111.143 133.345C114.102 136.037 117.049 138.744 120.067 141.37C121.554 142.665 122.255 142.557 123.356 140.869C124.994 138.358 126.597 135.817 128.063 133.206C132.202 125.846 135.821 118.228 139.066 110.434C140.824 106.208 143.609 102.745 147.181 99.8983C147.826 99.3885 148.57 98.6935 149.408 99.2014C150.371 99.7862 150.157 100.866 149.908 101.762C149.517 103.178 149.029 104.57 148.513 105.947C148.318 106.464 148.302 106.876 148.685 107.283C149.108 107.727 149.516 107.41 149.898 107.235C153.847 105.458 157.588 103.302 161.252 101.012C162.922 99.9733 164.71 99.1354 166.577 98.5151C166.908 98.4144 167.245 98.3379 167.588 98.286C168.14 98.1885 168.581 98.4702 168.872 98.865C169.163 99.2598 168.652 99.5386 168.533 99.8798C168.322 100.491 167.752 100.746 167.227 101.016C164.863 102.215 162.491 103.4 160.132 104.614C159.52 104.927 158.952 105.322 158.374 105.697C157.872 106.02 157.562 106.379 157.964 107.026C158.394 107.726 158.867 107.626 159.456 107.282C162.387 105.58 165.405 104.031 168.496 102.64C170.01 101.957 171.544 101.186 173.307 101.844C174.707 102.368 174.921 102.819 174.391 104.151Z" fill="#2E2E2E"/>
<path d="M65.0385 87.0903C61.0807 89.2027 55.9742 87.2589 53.8517 83.9407C53.461 83.3353 52.9726 82.7485 52.1912 83.3558C51.5133 83.8802 51.6823 84.468 52.1345 85.1446C54.3322 88.4248 57.5067 89.7262 61.3161 89.8373C62.9395 89.9231 64.471 89.6589 65.8482 88.765C66.3718 88.4268 67.1473 88.1148 66.7273 87.3223C66.361 86.6302 65.6656 86.754 65.0385 87.0903Z" fill="#2E2E2E"/>
<path d="M65.8111 76.1031C64.6722 75.4032 63.5577 74.676 62.7695 73.5686C62.3651 73.0022 62.0555 72.2662 61.1754 72.8774C60.2778 73.5033 60.5982 74.2217 61.0865 74.9187C61.8084 75.952 62.8554 76.6344 63.8156 77.3967C67.1317 80.0209 67.1463 80.0053 63.7179 82.3351C63.2774 82.6276 62.9238 83.0116 63.0723 83.5341C63.2061 84.0118 63.7687 84.0927 64.176 84.119C66.0465 84.2555 68.5832 81.7717 68.5861 79.7596C68.4337 78.0352 67.2401 76.9814 65.8111 76.1031Z" fill="#2E2E2E"/>
<path d="M66.4588 64.4754C65.5904 64.8654 65.6588 65.7164 65.8786 66.5226C66.3669 68.3211 66.8397 70.1226 67.3359 71.9172C67.6484 73.0538 68.5578 73.3034 69.3793 72.4514C69.9145 71.9026 70.0982 71.1841 70.0864 70.4423C69.9888 68.5521 69.3285 66.8842 68.2433 65.383C67.8155 64.7962 67.2743 64.1138 66.4588 64.4754Z" fill="#2E2E2E"/>
<path d="M52.4423 74.6369C53.1699 74.5541 53.2149 73.8239 53.3907 73.2809C53.4796 73.008 53.4444 72.6961 53.462 72.4407C53.3848 70.9628 53.0098 69.5952 52.6142 68.2207C52.37 67.3657 51.8142 66.9593 50.9996 67.0129C50.0717 67.0753 49.8343 67.781 49.8157 68.5979C49.7777 70.3662 50.4018 71.9747 51.0084 73.5861C51.2584 74.2421 51.7195 74.7198 52.4423 74.6369Z" fill="#2E2E2E"/>
<path d="M158.643 50.1057C158.307 46.0933 155.926 43.6124 152.155 42.1814C152.488 41.9913 152.696 41.8636 152.914 41.7544C158.322 38.9615 158.732 32.1125 154.939 28.0406C152.594 25.5324 149.469 24.8501 146.303 24.3012C145.672 24.194 145.47 24.0809 145.544 23.4161C145.708 21.9539 145.824 20.4751 145.877 19.0002C145.916 17.9825 146.659 16.7893 145.964 16.0026C145.286 15.2374 143.969 15.8486 142.972 15.561C141.619 15.1711 141.224 15.8905 141.125 17.0535C140.995 18.6239 140.751 20.1875 140.689 21.7609C140.632 23.1792 140.127 23.5711 138.696 23.2504C136.782 22.8166 136.799 22.9297 137.078 20.9596C137.301 19.3999 137.385 17.8226 137.567 16.258C137.671 15.3505 137.392 14.8933 136.41 14.8367C135.183 14.7656 133.942 14.8718 132.726 14.5277C132.06 14.3328 131.945 14.8367 131.864 15.3943C131.59 17.2465 131.4 19.1045 131.277 20.9742C131.228 21.7609 131.263 22.683 129.919 22.5056C127.522 22.1878 125.099 22.0748 122.71 21.7014C121.605 21.5289 121.286 21.8788 121.209 22.8497C121.129 23.8791 121.09 24.9271 120.861 25.9272C120.568 27.1945 121.176 27.4675 122.243 27.5211C123.573 27.5835 124.899 27.7969 126.232 27.8203C127.27 27.8389 127.382 28.1976 127.272 29.1744C126.767 33.679 126.393 38.1963 125.943 42.7039C125.595 46.2327 125.184 49.7557 124.869 53.2865C124.794 54.1209 124.443 54.2662 123.742 54.1745C122.418 54.002 121.089 53.8821 119.768 53.6969C118.987 53.5867 118.359 53.6784 118.273 54.6259C118.145 55.9965 118.065 57.371 117.916 58.7416C117.833 59.5136 118.026 59.8723 118.893 59.9435C121.45 60.1599 124 60.4953 126.554 60.7234C127.243 60.7828 127.514 60.9183 127.383 61.6787C127.149 63.0347 127.015 64.4082 126.865 65.7797C126.756 66.8043 126.279 68.0657 126.702 68.8017C127.223 69.7034 128.689 69.2199 129.723 69.4607C129.965 69.5133 130.205 69.5698 130.449 69.6118C131.362 69.7658 131.909 69.6235 131.969 68.4576C132.061 66.6434 132.423 64.842 132.584 63.0288C132.688 61.8415 133.179 61.3609 134.365 61.6904C134.651 61.7762 134.946 61.8269 135.244 61.8415C136.056 61.8658 136.305 62.1339 136.156 63.0259C135.842 64.917 135.701 66.8364 135.493 68.7451C135.419 69.4187 135.39 69.873 136.372 70.0124C137.497 70.1723 138.644 70.1216 139.745 70.3916C140.705 70.6236 141.015 70.0777 141.104 69.3115C141.33 67.4535 141.648 65.5965 141.675 63.7355C141.696 62.4088 142.186 62.2217 143.346 62.2811C146.659 62.4478 149.93 62.4088 153.01 60.7799C156.921 58.7035 159.056 54.9758 158.643 50.1057ZM135.201 37.3053C135.433 34.9014 135.739 32.5063 136.019 30.1092C136.067 29.693 135.956 29.2036 136.694 29.2631C139.584 29.5068 142.501 29.5555 145.213 30.7828C147.12 31.6494 148.091 33.0561 147.979 35.1987C147.875 37.1903 146.593 38.1398 144.942 38.7802C143.057 39.5162 141.074 39.4626 139.096 39.4158C138.455 39.4158 137.809 39.4304 137.166 39.4158C135.038 39.3593 135 39.3534 135.199 37.3053H135.201ZM145.457 54.7887C143.592 55.7411 141.571 55.7635 139.043 55.7713C137.773 55.6738 136.015 55.5159 134.237 55.4057C133.7 55.3736 133.589 55.1533 133.64 54.6639C133.985 51.4385 134.314 48.2106 134.627 44.9801C134.669 44.5677 134.769 44.3269 135.236 44.3747C138.6 44.7276 142.026 44.6779 145.255 45.9091C147.298 46.6889 148.464 48.1404 148.538 50.3455C148.612 52.5505 147.275 53.8597 145.452 54.7887H145.457Z" fill="#2E2E2E"/>
<path d="M188.817 14.0501C187.565 5.7251 180.857 0.0126725 171.936 0.000974696C165.355 -0.0081236 158.774 0.084809 152.194 0.279773C140.424 0.618034 128.654 0.995289 116.893 1.48757C112.112 1.68936 107.312 1.68936 102.557 2.33956C98.4681 2.89716 95.1257 4.86532 92.4581 7.9243C89.4819 11.3362 88.6791 15.5337 88.6585 19.8814C88.6165 27.8827 88.6585 35.884 88.7504 43.8853C88.8363 51.7287 88.4681 59.5799 89.0952 67.4165C89.5835 73.6017 94.2251 79.3346 100.184 81.2043C103.351 82.2015 106.613 82.0816 109.866 82.0923C111.986 82.104 111.945 82.1011 111.998 84.2789C112.082 87.5348 111.841 90.7906 112.222 94.0465C112.515 96.4885 114.907 96.9076 116.364 95.7203C117.29 94.9798 118.16 94.1735 118.968 93.3076C122.297 89.6631 125.634 86.0274 128.981 82.4004C133.434 82.4062 137.887 82.4394 142.339 82.4111C152.426 82.3477 162.514 82.7435 172.6 82.34C173.165 82.5349 173.662 82.2161 174.185 82.1148C183.073 80.4205 188.437 73.6806 188.61 65.0087C188.922 49.5529 188.893 34.0933 188.988 18.6346C188.999 17.1071 189.042 15.5756 188.817 14.0501ZM187.212 18.0332C187.06 32.9479 186.983 47.8626 186.873 62.7773C186.846 66.4134 186.189 69.9091 184.484 73.162L182.486 75.8915C181.431 76.8498 180.402 77.8178 179.144 78.545C175.674 80.5414 171.868 80.8387 168.009 80.83C155.751 80.7968 143.492 80.8212 131.236 80.5892C128.691 80.5414 127.014 81.3105 125.669 83.266C123.189 85.937 120.702 88.5963 118.238 91.279C117.372 92.2227 116.569 93.2287 115.503 93.9647C114.381 94.7338 113.881 94.5261 113.842 93.1848C113.794 91.5608 113.875 89.9318 113.908 88.3107C113.952 86.2889 114.024 84.2711 114.053 82.2532C114.077 80.6057 113.76 80.3445 112.049 80.3036C109.338 80.2412 106.619 80.4459 103.907 80.1817C99.3423 79.7362 95.9315 77.3859 93.2942 73.7625C91.0477 70.4745 90.657 66.7292 90.6472 62.9031C90.6121 48.7916 90.6355 34.6801 90.5261 20.5687C90.4988 16.8254 91.0731 13.3228 93.009 10.0991C94.5279 8.08417 96.458 6.54688 98.644 5.31471C100.475 4.5641 102.356 3.94996 104.338 3.85833C111.306 3.52559 118.274 3.22275 125.241 2.9498C131.718 2.69732 138.198 2.50138 144.679 2.28205C145.895 2.31714 147.114 2.34736 148.318 2.15142C148.425 2.1368 148.535 2.11535 148.642 2.09488L154.485 1.98863C156.296 1.98863 158.116 2.1602 159.915 1.79366C164.513 1.79951 169.111 1.80439 173.71 1.80829C176.705 2.28302 179.538 3.13209 181.938 5.11389C183.056 6.03997 183.833 7.24192 184.787 8.2957C186.566 11.302 187.248 14.5492 187.212 18.0332Z" fill="#2E2E2E"/>
</g>
<defs>
<clipPath id="clip0_561_6135">
<rect width="189" height="209" fill="white"/>
</clipPath>
</defs>
</svg>
