<svg width="160" height="160" viewBox="0 0 160 160" fill="none" xmlns="http://www.w3.org/2000/svg">
<path d="M86.6453 106.207L81.2533 105.041C81.2533 107.159 81.152 109.225 81.288 111.276C81.3827 112.687 80.888 113.492 79.696 114.193C77.3853 115.551 75.1547 117.047 72.9187 118.525C72.3667 118.889 71.852 118.812 71.2973 118.681C67.6404 117.818 63.9853 116.948 60.332 116.072C59.4053 115.849 59.2 115.569 59.2 114.556C59.2 110.307 59.2 106.057 59.2 101.807V100.167C57.9827 99.8653 56.816 99.572 55.6467 99.2893C52.9267 98.6333 50.2067 97.9796 47.4867 97.328C47.3053 97.2853 47.1187 97.26 46.9347 97.224C46.0307 97.0493 45.6493 96.588 45.648 95.6573C45.648 91.9547 45.66 88.252 45.6387 84.5493C45.6387 83.7947 45.9053 83.3213 46.572 82.928C49.0093 81.4947 51.4173 80.0107 53.8187 78.516C54.372 78.172 54.8733 78.048 55.5253 78.2307C56.688 78.5587 57.88 78.7867 59.1147 79.068C59.1347 78.8773 59.164 78.7227 59.164 78.5693C59.164 76.0027 59.1507 73.436 59.164 70.8693C59.164 70.4427 59.0093 70.3027 58.6227 70.216C54.7116 69.336 50.8031 68.4471 46.8973 67.5493C46 67.344 45.6493 66.92 45.6493 66.0107C45.6493 62.328 45.6493 58.6467 45.6493 54.964C45.6493 54.2333 45.916 53.6813 46.5827 53.312C48.9942 51.9618 51.4004 50.6 53.8013 49.2267C54.304 48.9373 54.764 48.8347 55.3453 48.9813C56.5787 49.2907 57.832 49.5147 59.1853 49.8V48.96C59.1853 46.12 59.2013 43.2787 59.1693 40.4387C59.1587 39.4907 59.5107 38.9347 60.376 38.4733C62.7013 37.2307 64.968 35.876 67.244 34.5427C67.5117 34.3816 67.8097 34.2777 68.1195 34.2373C68.4292 34.1969 68.744 34.221 69.044 34.308C72.6778 35.1862 76.3147 36.0484 79.9547 36.8947C80.9027 37.1173 81.244 37.5173 81.2467 38.5133C81.2582 42.8689 81.2716 47.2245 81.2867 51.58C81.2867 52.1253 81.3973 52.676 81.3547 53.216C81.3067 53.8187 81.536 54.0613 82.1093 54.1707C83.4827 54.4373 84.8453 54.7507 86.2147 55.0347C86.4191 55.0538 86.6249 55.0538 86.8293 55.0347C86.8293 54.768 86.8293 54.5253 86.8293 54.2787C86.8293 51.612 86.8533 48.9347 86.8293 46.2627C86.82 45.4627 87.1187 45.0067 87.8227 44.632C90.2413 43.344 92.6147 41.9747 95.0333 40.6867C95.4559 40.4773 95.9354 40.4118 96.3987 40.5C99.804 41.2427 103.199 42.0453 106.596 42.82C107.796 43.096 108.133 43.4867 108.133 44.72C108.133 49.684 108.133 54.6493 108.133 59.7053C109.213 59.924 110.312 60.1293 111.404 60.372C114.012 60.9507 116.62 61.5333 119.223 62.1413C119.997 62.3213 120.373 62.8547 120.373 63.6533C120.373 67.356 120.361 71.0587 120.36 74.7613C120.36 75.4053 120.108 75.852 119.54 76.1987C116.873 77.8227 114.215 79.4613 111.581 81.132C111.02 81.4893 110.499 81.584 109.881 81.4213C109.339 81.2787 108.787 81.1707 108.133 81.0213V89.144C109.961 89.5507 111.891 89.984 113.823 90.408C115.599 90.7973 117.38 91.168 119.156 91.564C119.471 91.6198 119.755 91.7858 119.958 92.0323C120.162 92.2789 120.271 92.5898 120.265 92.9093C120.28 96.612 120.295 100.315 120.249 104.017C120.249 104.375 119.907 104.837 119.589 105.065C116.833 107.052 114.043 108.989 111.273 110.956C111.077 111.111 110.846 111.217 110.6 111.263C110.354 111.31 110.101 111.296 109.861 111.223C109.301 111.06 108.735 110.923 108.105 110.756V115.007C108.105 115.975 108.095 116.943 108.105 117.911C108.121 118.216 108.055 118.519 107.915 118.791C107.774 119.062 107.564 119.29 107.305 119.453C104.969 121.053 102.631 122.643 100.311 124.261C99.74 124.661 99.1693 124.689 98.5293 124.537C95.0138 123.709 91.4969 122.888 87.9787 122.076C86.9733 121.844 86.7133 121.449 86.7173 120.396C86.7293 115.747 86.7107 111.097 86.7027 106.448C86.6891 106.366 86.6699 106.286 86.6453 106.207ZM48.1773 85.7627C48.1773 88.592 48.2027 91.3627 48.16 94.1427C48.1493 94.828 48.3613 95.076 49.0187 95.2347C52.804 96.1053 56.5773 97.0227 60.352 97.9267C61.2853 98.1507 61.552 98.496 61.552 99.4693C61.552 103.594 61.552 107.717 61.552 111.84C61.552 112.341 61.656 112.844 61.6413 113.345C61.6267 113.879 61.892 114.072 62.3667 114.168C64.1444 114.53 65.9222 114.904 67.7 115.291C68.7893 115.527 69.872 115.792 71.0133 116.057V115.265C71.0133 110.721 71.0133 106.177 71.0133 101.633C71.0133 100.604 71.4733 100.248 72.496 100.485C77.6631 101.684 82.8289 102.884 87.9933 104.085C88.7813 104.269 89.06 104.641 89.06 105.469C89.06 110.035 89.06 114.6 89.06 119.165V119.937L98.2733 121.937V121.217C98.2733 116.631 98.2733 112.044 98.2733 107.459C98.2733 106.619 98.8253 106.171 99.6187 106.36C101.933 106.913 104.245 107.479 106.563 108.019C107.548 108.249 108.545 108.428 109.599 108.641C109.599 105.652 109.607 102.775 109.579 99.8933C109.579 99.7413 109.312 99.4933 109.123 99.4533C106.096 98.7413 103.065 98.04 100.029 97.368C98.5733 97.0467 98.148 96.5893 98.1467 95.112C98.1467 89.3893 98.1467 83.6671 98.1467 77.9453C98.1467 76.9347 98.7107 76.464 99.692 76.6867C102.135 77.244 104.574 77.8129 107.011 78.3933C107.911 78.6053 108.804 78.844 109.755 79.084C109.755 75.956 109.755 72.928 109.737 69.9C109.737 69.7547 109.497 69.524 109.331 69.4813C106.133 68.6667 102.909 67.8667 99.684 67.0827C98.44 66.7827 98.156 66.4827 98.156 65.2067V49.756L89.1053 47.356V52.0147C89.1053 55.844 89.1053 59.6729 89.1053 63.5013C89.1053 64.5853 88.6787 65.0093 87.6027 64.904C87.0267 64.848 86.4627 64.6627 85.8933 64.532C81.336 63.4813 76.7787 62.4298 72.2213 61.3773C71.388 61.184 71.0307 60.7227 71.0293 59.856C71.0213 54.5742 71.0213 49.2933 71.0293 44.0133C71.0293 43.548 70.9227 43.388 70.4373 43.2867C68.4373 42.8733 66.4467 42.3907 64.4547 41.932C63.512 41.7147 62.5693 41.4933 61.5667 41.2653V42.0653C61.5667 47.1987 61.5667 52.332 61.5667 57.4653C61.5667 58.5107 61.092 58.9613 60.0667 58.736C57.0507 58.0693 54.0467 57.3533 51.036 56.66C50.1133 56.448 49.1867 56.248 48.2213 56.0333V65.3667C48.3787 65.416 48.5307 65.4747 48.688 65.5107C52.5947 66.3996 56.5013 67.2884 60.408 68.1773C61.3027 68.3813 61.5667 68.7013 61.5667 69.6053C61.5667 73.9609 61.5667 78.3164 61.5667 82.672C61.5667 84.1853 61.6173 85.6987 61.6093 87.2133C61.6093 88.24 60.9987 88.68 59.9947 88.4467L48.1773 85.7627ZM100.711 63.0413C101.011 62.88 101.244 62.7587 101.479 62.6253C102.728 61.904 103.965 61.1587 105.229 60.4667C105.608 60.2587 105.745 60.0387 105.743 59.604C105.725 55.568 105.732 51.532 105.731 47.496C105.731 47.2973 105.713 47.096 105.701 46.8093L100.707 49.38L100.711 63.0413ZM100.711 92.9293C102.373 91.7787 103.945 90.704 105.496 89.596C105.595 89.5191 105.677 89.4227 105.737 89.3129C105.798 89.2031 105.835 89.0821 105.847 88.9573C105.872 86.2693 105.847 83.5813 105.877 80.8933C105.877 80.3907 105.668 80.2507 105.231 80.1773C104.408 80.044 103.593 79.86 102.776 79.6933C102.096 79.56 101.416 79.4093 100.711 79.2613V92.9293ZM117.696 95.596C115.875 96.6627 114.136 97.6987 112.385 98.712C112.063 98.8987 111.912 99.104 111.915 99.5013C111.935 101.901 111.923 104.288 111.925 106.681C111.925 106.855 111.956 107.028 111.975 107.229C112.059 107.207 112.14 107.176 112.219 107.139C113.961 105.939 115.707 104.753 117.439 103.539C117.509 103.484 117.567 103.415 117.61 103.336C117.652 103.258 117.678 103.172 117.685 103.083C117.696 100.619 117.692 98.1453 117.692 95.6L117.696 95.596ZM74.4213 59.3333L86.8 62.2667V58.5573C86.8 57.624 86.8 57.624 85.884 57.392C85.804 57.3707 85.72 57.3613 85.6387 57.3427C83.992 56.9707 82.3387 56.6227 80.7053 56.2107C80.4891 56.1459 80.2616 56.1276 80.0377 56.157C79.8139 56.1864 79.5988 56.2629 79.4067 56.3813C77.94 57.236 76.4733 58.072 75.0067 58.9147C74.8427 59.0133 74.6987 59.1333 74.4213 59.3333ZM116.32 93.4C115.92 93.2867 115.704 93.2133 115.481 93.164C112.873 92.5907 110.265 92.0147 107.653 91.4613C107.454 91.4504 107.258 91.5141 107.104 91.64C106.199 92.32 105.312 93.024 104.417 93.7173C103.763 94.224 103.105 94.7267 102.369 95.2907C105.055 95.9453 107.605 96.5733 110.161 97.1773C110.328 97.216 110.561 97.1133 110.723 97.0133C112.077 96.1804 113.426 95.336 114.768 94.48C115.257 94.172 115.72 93.82 116.32 93.4ZM102.099 65.092C102.385 65.188 102.555 65.2573 102.729 65.3C104.611 65.7693 106.529 66.1213 108.36 66.7373C109.816 67.228 111.013 67.112 112.265 66.2387C113.421 65.4387 114.685 64.7827 115.92 64.0547C115.841 63.972 115.821 63.9293 115.793 63.9213C113.096 63.284 110.397 62.652 107.699 62.0253C107.535 62.0008 107.368 62.0333 107.225 62.1173C105.56 63.0747 103.9 64.044 102.099 65.092ZM59.24 81.5653C57.9253 81.2587 56.6907 80.9667 55.4533 80.6907C55.2863 80.6395 55.1068 80.648 54.9453 80.7147C53.508 81.6093 52.0827 82.524 50.656 83.436C50.5227 83.5253 50.3893 83.6333 50.1853 83.7893L59.24 85.856V81.5653ZM91.784 45.4773C92.0947 45.5827 92.3053 45.6653 92.5227 45.724C94.2333 46.1907 95.9813 46.5533 97.6453 47.1493C98.8453 47.5827 99.756 47.416 100.712 46.624C101.512 45.9573 102.445 45.4387 103.412 44.7933C101.145 44.2467 98.9973 43.7453 96.8587 43.2027C96.5889 43.1305 96.3069 43.1161 96.0312 43.1604C95.7554 43.2047 95.4922 43.3068 95.2587 43.46C94.148 44.1227 93.02 44.7627 91.784 45.4773ZM76 38.7187C75.9394 38.6859 75.8766 38.6574 75.812 38.6333C73.4662 38.0547 71.12 37.4791 68.7733 36.9067C68.6311 36.8683 68.4799 36.8801 68.3453 36.94C66.9613 37.7067 65.5867 38.4893 64.1387 39.3067C64.2153 39.3527 64.2956 39.3924 64.3787 39.4253C66.7902 39.9907 69.2036 40.5524 71.6187 41.1107C71.7365 41.1298 71.8574 41.1081 71.9613 41.0493C73.304 40.2827 74.6373 39.508 76 38.7187ZM59.2413 52.1707C58.0493 51.904 56.8933 51.6267 55.7293 51.3907C55.4765 51.3437 55.2152 51.3792 54.984 51.492C53.7307 52.1587 52.4933 52.8667 51.2507 53.564C51.0467 53.6787 50.8507 53.816 50.584 53.992L59.24 56.1427L59.2413 52.1707Z" fill="#3A3A3A"/>
<path d="M108.252 131.067C108.252 129.657 108.269 128.247 108.252 126.837C108.241 126.22 108.5 125.805 109.009 125.504C111.108 124.239 113.196 122.956 115.309 121.717C115.634 121.536 116.011 121.475 116.376 121.545C119.043 122.171 121.689 122.837 124.341 123.504C125.408 123.771 125.675 124.141 125.675 125.237C125.675 127.904 125.663 130.581 125.684 133.252C125.7 133.598 125.626 133.943 125.469 134.251C125.311 134.56 125.075 134.822 124.785 135.012C122.967 136.293 121.149 137.576 119.333 138.863C119.103 139.042 118.833 139.163 118.546 139.214C118.259 139.266 117.964 139.248 117.685 139.16C115.033 138.421 112.369 137.723 109.708 137.012C108.521 136.695 108.251 136.345 108.251 135.107C108.253 133.762 108.253 132.415 108.252 131.067ZM116.925 136.256V129.789L110.783 128.089C110.783 130.255 110.775 132.272 110.797 134.288C110.815 134.379 110.856 134.464 110.914 134.536C110.973 134.608 111.048 134.665 111.133 134.701C113.041 135.232 114.957 135.733 116.925 136.257V136.256ZM123.276 127.684C122.147 128.387 121.111 129.007 120.108 129.676C120.004 129.759 119.919 129.864 119.857 129.982C119.796 130.1 119.76 130.23 119.751 130.363C119.719 131.853 119.735 133.345 119.739 134.836C119.739 134.989 119.767 135.141 119.784 135.316C120.851 134.631 121.885 133.983 122.892 133.316C122.989 133.251 123.072 133.166 123.135 133.067C123.198 132.969 123.24 132.858 123.259 132.743C123.288 131.105 123.276 129.467 123.276 127.685V127.684ZM113.032 126.133C114.713 126.608 116.232 127.039 117.751 127.467C117.827 127.489 117.908 127.482 117.979 127.447C119.071 126.736 120.159 126.019 121.368 125.224C119.849 124.876 118.479 124.544 117.101 124.256C116.753 124.183 116.301 124.123 116.027 124.272C115.056 124.8 114.143 125.433 113.032 126.133Z" fill="#F7931B"/>
<path d="M103.951 29.2213C103.951 27.8547 103.961 26.488 103.951 25.1227C103.936 24.8905 103.992 24.6593 104.111 24.4595C104.23 24.2596 104.406 24.1003 104.617 24.0027C106.635 22.936 108.651 21.88 110.681 20.8453C110.928 20.7426 111.203 20.7299 111.459 20.8093C113.887 21.5667 116.311 22.34 118.729 23.1293C119.017 23.2065 119.27 23.3797 119.446 23.6202C119.622 23.8608 119.711 24.1542 119.697 24.452C119.705 27.0373 119.697 29.6227 119.697 32.2093C119.697 32.7427 119.419 33.1147 118.992 33.396C117.309 34.4991 115.627 35.6018 113.947 36.704C113.413 37.052 112.88 37.0907 112.272 36.9107C109.915 36.2093 107.549 35.536 105.188 34.852C104.353 34.6107 103.959 34.0827 103.956 33.1933C103.956 31.8693 103.956 30.5453 103.956 29.2213H103.951ZM111.704 33.9347C111.704 32.2347 111.715 30.6013 111.685 28.9667C111.685 28.8147 111.452 28.5973 111.285 28.5307C110.468 28.2173 109.636 27.9387 108.805 27.6627C108.1 27.428 107.389 27.216 106.656 26.9867V32.3853L111.704 33.9347ZM114.563 33.2387C114.904 33.028 115.116 32.8467 115.363 32.7533C116.739 32.2293 117.169 31.2453 116.985 29.82C116.867 28.9067 116.963 27.9667 116.963 26.9187C116.163 27.3893 115.471 27.7747 114.804 28.1947C114.736 28.2495 114.68 28.3181 114.641 28.396C114.601 28.474 114.579 28.5594 114.575 28.6467C114.556 30.1333 114.563 31.62 114.563 33.2387ZM114.984 24.8387C114.973 24.7787 114.963 24.7173 114.953 24.656C114.1 24.3893 113.22 24.1987 112.401 23.84C110.884 23.1733 109.955 24.364 108.777 24.8013C109.985 25.2493 111.177 25.62 112.377 25.976C112.532 26.0355 112.703 26.0411 112.861 25.992C113.573 25.62 114.276 25.2213 114.984 24.8333V24.8387Z" fill="#F7931B"/>
<path d="M34.3294 112.133C34.3294 111.124 34.3414 110.115 34.3294 109.107C34.3083 108.866 34.3624 108.625 34.4842 108.417C34.606 108.209 34.7896 108.043 35.0094 107.944C36.3908 107.201 37.7454 106.407 39.1428 105.677C39.4722 105.522 39.8434 105.478 40.2001 105.552C41.9481 105.952 43.6854 106.401 45.4241 106.839C46.4268 107.091 46.6948 107.439 46.6948 108.469C46.6948 110.383 46.6788 112.295 46.7041 114.203C46.7192 114.39 46.6825 114.577 46.598 114.745C46.5136 114.912 46.3847 115.053 46.2254 115.152C44.9081 116.047 43.6028 116.96 42.2628 117.819C41.9608 117.999 41.605 118.068 41.2574 118.013C39.3974 117.64 37.5468 117.22 35.6961 116.799C34.6481 116.56 34.3788 116.231 34.3534 115.149C34.3294 114.141 34.3534 113.132 34.3534 112.123L34.3294 112.133ZM40.1001 115.133C40.1001 114.095 40.1148 113.152 40.0841 112.211C40.0679 112.119 40.0294 112.032 39.972 111.959C39.9146 111.885 39.84 111.827 39.7548 111.789C38.8374 111.556 37.9081 111.368 36.9454 111.156C36.9454 112.171 36.9308 113.135 36.9601 114.097C36.9776 114.188 37.017 114.272 37.0749 114.344C37.1328 114.416 37.2074 114.472 37.2921 114.508C38.1988 114.732 39.1174 114.916 40.1001 115.129V115.133ZM38.6534 108.948C38.7082 108.99 38.7683 109.024 38.8321 109.049C39.4508 109.229 40.0708 109.411 40.6921 109.583C41.5121 109.804 42.1214 109.544 42.6374 108.733C41.2694 108.52 39.9041 107.505 38.6534 108.948Z" fill="#F7931B"/>
<path d="M71.0212 80.6667C71.0212 77.7218 71.0212 74.7773 71.0212 71.8333C71.0212 70.964 71.5025 70.5707 72.3545 70.7667C77.1545 71.8627 81.9572 72.9631 86.7625 74.068C87.1492 74.156 87.5426 74.216 87.9279 74.312C88.7812 74.5253 89.0665 74.8947 89.0625 75.7853C89.0479 79.1507 89.0239 82.5147 89.0132 85.8787C89.0052 88.3187 89.0132 90.7587 89.0132 93.1987C89.0132 94.3267 88.4079 94.8147 87.3146 94.556C82.4817 93.4129 77.6488 92.2676 72.8159 91.12C72.6119 91.072 72.4052 91.0413 72.2012 90.9867C71.2839 90.764 71.0199 90.4333 71.0186 89.4947C71.0194 86.5498 71.0203 83.6071 71.0212 80.6667ZM86.6666 76.5907L81.2999 75.2693C81.2777 75.3407 81.2621 75.4139 81.2532 75.488C81.2839 78.0947 81.3079 80.7 81.3719 83.3067C81.3719 83.48 81.6652 83.744 81.8666 83.7987C82.8332 84.0653 83.8146 84.272 84.7919 84.4947C85.3852 84.628 85.9812 84.7547 86.6666 84.9053V76.5907ZM86.6532 91.8533V87.2853C84.6532 86.8507 82.6706 86.4093 80.6759 85.9947C80.4473 85.9527 80.2112 85.9929 80.0092 86.108C78.8226 86.852 77.6519 87.6253 76.4799 88.3933C76.1225 88.6267 75.7719 88.872 75.3066 89.1867L86.6532 91.8533Z" fill="#3A3A3A"/>
</svg>
