<svg width="160" height="160" viewBox="0 0 160 160" fill="none" xmlns="http://www.w3.org/2000/svg">
<path d="M72.832 72.9973L67.7507 67.9893C66.8374 66.9986 65.8707 66.06 64.864 65.1626L64.028 64.3426C64.0158 64.2862 63.9884 64.2342 63.9486 64.1924C63.9089 64.1505 63.8584 64.1204 63.8027 64.1053C63.1213 63.4253 62.5627 63.344 62.0467 63.8493C61.5054 64.3826 61.5667 65.06 62.224 65.708C62.7147 66.1906 63.216 66.664 63.712 67.1413C65.528 68.992 67.3573 70.832 69.2547 72.608C70.2431 73.5946 71.2307 74.5813 72.2174 75.568C72.672 76.0253 73.1907 76.0266 73.6947 75.7213C74.236 75.3946 74.3227 74.84 74.012 74.176C73.6784 73.7276 73.2808 73.3305 72.832 72.9973Z" fill="#3A3A3A"/>
<path d="M97.7027 63.7333C97.1067 63.4186 96.612 63.5 96.132 64.0133C95.32 64.8813 94.46 65.7026 93.62 66.5466C92.3053 67.7466 91.0293 68.9893 89.808 70.2866C88.4813 71.536 87.1813 72.812 85.9413 74.1533C85.6267 74.7493 85.6667 75.276 86.2413 75.6986C86.5987 75.952 86.9653 76.0133 87.344 75.78C87.3635 75.7739 87.3812 75.7634 87.396 75.7493C88.288 75.02 89.0547 74.1626 89.8573 73.3413L90.3107 72.892C91.7693 71.5435 93.1871 70.1537 94.564 68.7226C95.7493 67.6186 96.9027 66.4813 98.0013 65.292C98.4 64.6733 98.288 64.1573 97.7027 63.7333Z" fill="#3A3A3A"/>
<path d="M80.7507 51.6573C80.084 51.0853 79.7707 51.084 79.1013 51.6573C78.8267 51.8987 78.776 52.2107 78.776 52.56C78.7813 59.9378 78.7813 67.3156 78.776 74.6933C78.776 75.04 78.8067 75.36 79.0893 75.5973C79.0978 75.6092 79.1082 75.6195 79.12 75.628C79.592 76.108 80.0947 76.18 80.64 75.72C80.7893 75.688 80.8413 75.5707 80.888 75.4533C80.8807 75.3878 80.8807 75.3216 80.888 75.256C80.888 75.3213 80.888 75.3893 80.888 75.4533C81.0113 75.2015 81.0778 74.9257 81.0827 74.6453C81.0747 67.2853 81.0747 59.9262 81.0827 52.568C81.08 52.2067 81.0267 51.8973 80.7507 51.6573ZM79.2 75.5907V75.58L79.2227 75.6027L79.2 75.5907Z" fill="#3A3A3A"/>
<path d="M110.596 102.991C110.422 102.587 110.125 102.248 109.748 102.021L109.325 101.696C108.46 101.039 107.472 100.629 106.453 100.287C103.803 99.2667 101.019 98.808 98.2306 98.42C95.019 97.9891 91.787 97.7265 88.5479 97.6333C87.5333 97.5973 86.5093 97.56 85.3853 97.5307C85.375 97.5133 85.3665 97.495 85.3599 97.476L85.3479 97.4413L85.9559 96.692C86.0176 96.6632 86.0722 96.6211 86.1158 96.5688C86.1593 96.5165 86.1908 96.4552 86.2079 96.3893C86.4106 96.1547 86.6079 95.9187 86.8133 95.684L87.0613 95.3853L87.5333 94.8333C87.7042 94.7245 87.8381 94.5665 87.9173 94.38L88.3946 93.828C88.4579 93.8006 88.514 93.7589 88.5584 93.7061C88.6028 93.6534 88.6344 93.591 88.6506 93.524L89.2546 92.824C89.3275 92.7887 89.3918 92.738 89.4432 92.6754C89.4945 92.6127 89.5316 92.5397 89.5519 92.4613L90.1146 91.8213C90.1767 91.793 90.2316 91.7509 90.275 91.6983C90.3185 91.6456 90.3493 91.5837 90.3653 91.5173L90.8319 90.9653C90.9049 90.93 90.9693 90.8792 91.0204 90.8163C91.0716 90.7534 91.1083 90.68 91.1279 90.6013L91.6893 89.9587C91.7633 89.9193 91.8282 89.8648 91.8797 89.7986C91.9311 89.7324 91.968 89.6561 91.9879 89.5747L92.4079 89.1C92.4822 89.0635 92.5473 89.0109 92.5987 88.9461C92.6502 88.8813 92.6865 88.8059 92.7053 88.7253L93.2639 88.088C93.5919 87.7013 93.9213 87.3151 94.2519 86.9293C94.4493 86.6964 94.6471 86.464 94.8453 86.232C94.9186 86.1944 94.9831 86.1416 95.0346 86.0773C95.086 86.0129 95.1233 85.9384 95.1439 85.8587L95.7013 85.2227C95.7624 85.1934 95.8165 85.1514 95.86 85.0994C95.9035 85.0474 95.9353 84.9867 95.9533 84.9213L96.4226 84.3693C96.4863 84.3402 96.5431 84.2977 96.5891 84.2448C96.6351 84.1919 96.6692 84.1298 96.6893 84.0627L97.2826 83.3627L97.5346 83.0587L98.1399 82.3547L98.3866 82.0533C98.6013 81.7773 98.9546 81.6027 99.0133 81.212C99.5893 80.8547 99.7666 80.3853 99.4133 79.7693C99.4083 79.6987 99.379 79.6319 99.3304 79.5804C99.2818 79.5288 99.2169 79.4957 99.1466 79.4867C98.8679 79.22 98.5159 79.312 98.1933 79.312C94.3497 79.304 90.5048 79.304 86.6586 79.312C78.3013 79.312 69.9426 79.332 61.5839 79.284C60.4706 79.284 59.9386 80.164 60.4639 80.9093C60.4807 80.9748 60.5115 81.0359 60.5544 81.0882C60.5972 81.1405 60.651 81.1827 60.7119 81.212L61.3213 81.9133C61.3959 82.1043 61.5338 82.2639 61.7119 82.3653C61.8515 82.5253 61.9911 82.6862 62.1306 82.848C62.1489 82.9293 62.1851 83.0054 62.2365 83.0709C62.2879 83.1364 62.3533 83.1896 62.4279 83.2267L63.0306 83.9227C63.047 83.99 63.0787 84.0526 63.1234 84.1056C63.168 84.1586 63.2244 84.2005 63.2879 84.228L63.7639 84.7787L64.0093 85.08L64.6119 85.7853L64.8679 86.088L65.4293 86.732C65.4487 86.8108 65.4855 86.8842 65.537 86.9469C65.5884 87.0097 65.6532 87.0601 65.7266 87.0947L66.3279 87.7933C66.3467 87.8595 66.3795 87.9208 66.4241 87.973C66.4688 88.0252 66.5242 88.0672 66.5866 88.096L67.0533 88.6493C67.1373 88.7493 67.2199 88.852 67.3039 88.952L67.9119 89.6507L68.1639 89.952C68.3679 90.1867 68.5719 90.42 68.7746 90.6547C68.8586 90.7547 68.9413 90.8573 69.0253 90.9573L69.6333 91.6573C69.7173 91.7587 69.7999 91.8627 69.8839 91.964L70.4759 92.6627C70.4957 92.7301 70.5298 92.7925 70.5758 92.8457C70.6218 92.8988 70.6787 92.9414 70.7426 92.9707L71.2066 93.5213L71.4626 93.8253L72.0693 94.524C72.0865 94.5904 72.1183 94.6521 72.1624 94.7047C72.2064 94.7572 72.2616 94.7994 72.3239 94.828L72.7933 95.384C72.8725 95.5724 73.0086 95.7314 73.1826 95.8387L73.6479 96.3907L73.8986 96.6947L74.4906 97.396C74.4773 97.44 74.4666 97.4867 74.4573 97.5293C69.3159 97.6013 64.1906 97.9507 59.1239 98.8387C56.8199 99.2387 54.5359 99.7453 52.3893 100.725C51.9825 100.855 51.597 101.043 51.2453 101.285C50.8584 101.439 50.5094 101.675 50.2226 101.977C49.9363 102.153 49.7031 102.403 49.5479 102.701C49.1039 103.2 49.0599 103.807 49.0639 104.435C49.0759 106.485 49.3839 108.503 49.8173 110.496C50.3639 113.005 51.0653 115.471 52.2386 117.776C52.6047 118.764 53.0749 119.71 53.6413 120.599C53.6475 120.617 53.658 120.634 53.6719 120.648C54.1773 121.715 54.8413 122.687 55.5253 123.644C55.6359 123.777 55.7453 123.924 55.8559 124.063L56.4039 124.788L56.8559 125.353C56.8726 125.421 56.9047 125.483 56.9495 125.536C56.9944 125.589 57.0509 125.631 57.1146 125.659L57.4466 126.059C57.5257 126.245 57.6608 126.403 57.8333 126.509C58.2288 126.933 58.6253 127.357 59.0226 127.78C59.2297 128.073 59.4886 128.326 59.7866 128.525L60.8373 129.516C60.9359 129.613 61.0333 129.709 61.1333 129.805L61.8479 130.375C62.5873 131.018 63.3794 131.598 64.2159 132.108C65.0026 132.476 65.1306 133.129 65.0826 133.923C65.0266 134.825 65.0666 135.733 65.0706 136.639C65.0706 137.119 65.1279 137.587 65.4639 137.972C65.6193 138.271 65.8548 138.521 66.1439 138.693C66.4758 139.005 66.873 139.239 67.3066 139.379C67.5439 139.484 67.7759 139.604 68.0199 139.693C70.8639 140.731 73.8413 141.103 76.8319 141.241C80.5986 141.417 84.3733 141.361 88.1053 140.691C89.9466 140.36 91.7853 140 93.3973 138.957C93.8853 138.691 94.2946 138.344 94.5306 137.823C94.7853 137.485 94.8479 137.101 94.8453 136.687C94.8359 135.401 94.8453 134.115 94.8453 132.828L95.1399 132.531L96.2613 131.787L97.4266 130.955L97.8373 130.644C98.2139 130.412 98.5578 130.13 98.8599 129.807L99.4959 129.243C99.809 129.057 100.081 128.81 100.296 128.516C100.62 128.275 100.907 127.987 101.147 127.663C101.417 127.463 101.647 127.213 101.824 126.927C102.22 126.457 102.617 125.989 103.015 125.521C103.347 125.229 103.627 124.881 103.841 124.493L104.444 123.653C104.92 123.067 105.338 122.435 105.692 121.767C105.927 121.478 106.093 121.139 106.177 120.776C106.336 120.748 106.319 120.628 106.311 120.509C106.977 119.623 107.425 118.623 107.851 117.609C109.747 113.338 110.781 108.733 110.891 104.06C110.897 103.681 110.789 103.31 110.581 102.993L110.596 102.991ZM95.8253 81.7533C95.6453 81.8502 95.501 82.002 95.4133 82.1867L95.1559 82.4853C94.9533 82.7173 94.7559 82.952 94.5493 83.184C94.4873 83.2132 94.4324 83.2555 94.3885 83.308C94.3445 83.3605 94.3125 83.4219 94.2946 83.488L93.6919 84.192C93.6307 84.2207 93.5767 84.2627 93.5335 84.3148C93.4904 84.3669 93.4594 84.4278 93.4426 84.4933L92.9719 85.0467C92.9092 85.0753 92.8537 85.1175 92.8094 85.1704C92.7651 85.2232 92.7332 85.2852 92.7159 85.352C92.5159 85.5867 92.3159 85.8187 92.1119 86.052C92.0493 86.0805 91.9939 86.1228 91.9498 86.1756C91.9057 86.2285 91.8741 86.2906 91.8573 86.3573L91.2533 87.0667C91.1706 87.168 91.0866 87.268 91.0053 87.3693C90.8466 87.552 90.6906 87.736 90.5333 87.92C90.4698 87.948 90.4136 87.99 90.3688 88.0429C90.324 88.0958 90.2918 88.1582 90.2746 88.2253L89.6746 88.9293C89.6123 88.9577 89.5571 88.9995 89.5131 89.0519C89.469 89.1043 89.4372 89.1658 89.4199 89.232C89.2653 89.416 89.1102 89.5996 88.9546 89.7827C88.7798 89.8876 88.6448 90.0475 88.5706 90.2373C88.4119 90.4227 88.2546 90.608 88.0959 90.792C88.0239 90.8287 87.9602 90.8798 87.9088 90.9422C87.8574 91.0046 87.8195 91.0769 87.7973 91.1547L87.2373 91.7973C87.1546 91.8987 87.0693 91.9987 86.9866 92.1013C86.7839 92.3347 86.5866 92.5707 86.3799 92.8053L86.1333 93.0987L85.6573 93.6493C85.5946 93.678 85.5392 93.7207 85.4956 93.7741C85.4519 93.8275 85.421 93.8902 85.4053 93.9573L84.9399 94.508C84.7392 94.6332 84.5847 94.8204 84.4999 95.0413C84.3666 95.1987 84.2199 95.356 84.0813 95.512C84.0182 95.5406 83.9623 95.583 83.9177 95.6361C83.8732 95.6891 83.8411 95.7515 83.8239 95.8187L83.3653 96.376C83.0853 96.5907 83.0986 96.9093 83.0773 97.2107C82.8613 99.464 82.6026 101.712 82.4306 103.965C82.3733 104.731 82.0306 105.507 82.3906 106.283C82.3948 106.289 82.3997 106.296 82.4053 106.301C82.9493 107.031 83.5066 107.084 84.1666 106.468C84.1859 106.459 84.2021 106.444 84.2133 106.425C84.4693 106.084 84.4799 105.681 84.5213 105.279C84.6679 103.664 84.8319 102.052 84.9799 100.44C85.0199 99.9987 85.1679 99.7933 85.6773 99.824C87.8466 99.9493 90.0226 99.9747 92.1879 100.139C94.2773 100.296 96.3733 100.428 98.4426 100.805C99.9093 101.072 101.387 101.311 102.86 101.563C102.919 101.596 102.984 101.616 103.052 101.621L106.579 102.716L108.045 103.527C108.693 104.147 108.693 104.147 108.045 104.741L107.153 105.275C106.799 105.358 106.463 105.506 106.163 105.711C102.372 106.932 98.4666 107.5 94.5173 107.908C90.7839 108.292 87.0506 108.449 83.3079 108.561C78.8693 108.695 74.4293 108.545 69.9973 108.279C67.3826 108.12 64.7733 107.879 62.1759 107.536C59.3093 107.152 56.4746 106.603 53.7186 105.705C53.1408 105.42 52.5631 105.135 51.9853 104.849C51.7813 104.567 51.3186 104.468 51.3853 103.995C51.5026 103.861 51.6186 103.72 51.7359 103.584C52.0613 103.389 52.3853 103.197 52.7119 103.005C55.5346 101.841 58.4973 101.251 61.5039 100.82C63.4373 100.543 65.3786 100.363 67.3253 100.209C69.6573 100.025 71.992 99.9213 74.328 99.8333C74.6626 99.82 74.7693 99.9133 74.7999 100.256C74.9119 101.56 75.0133 102.868 75.2186 104.159C75.3399 104.917 75.1173 105.747 75.6386 106.432C75.6521 106.5 75.6869 106.562 75.738 106.609C75.7891 106.655 75.8538 106.685 75.9226 106.692C76.4666 106.997 76.9519 106.959 77.3573 106.448C77.8719 105.984 77.5346 105.428 77.4906 104.921C77.4093 103.893 77.4133 102.855 77.12 101.855C77.1243 101.794 77.1063 101.734 77.0693 101.685C77.1653 100.543 76.9639 99.4187 76.8546 98.2853C76.7693 97.4173 76.9213 96.436 76.0239 95.8293C75.9471 95.6401 75.8103 95.4813 75.6346 95.3773L75.3013 94.9773C75.2318 94.785 75.0949 94.6243 74.9159 94.5253L74.4546 93.9707C74.4372 93.9041 74.4051 93.8423 74.3605 93.7899C74.316 93.7375 74.2602 93.6958 74.1973 93.668C74.0399 93.4827 73.8813 93.2987 73.7226 93.1133C73.6438 92.927 73.5098 92.7692 73.3386 92.6613C73.1813 92.4773 73.0226 92.2933 72.8666 92.1093C72.7839 92.008 72.7026 91.9067 72.6213 91.804C72.3333 91.4693 72.0466 91.1373 71.7599 90.8C71.6026 90.616 71.448 90.4307 71.2933 90.2453C71.2079 90.1467 71.1253 90.0453 71.0399 89.9467L70.4386 89.2387C70.4228 89.1716 70.3914 89.1093 70.3469 89.0567C70.3024 89.0041 70.2461 88.9627 70.1826 88.936L69.5813 88.2333C69.5639 88.1666 69.5317 88.1046 69.4868 88.0522C69.442 87.9997 69.3859 87.9582 69.3226 87.9307C69.1653 87.7458 69.0075 87.5618 68.8493 87.3787C68.769 87.1917 68.6343 87.0332 68.4626 86.924C68.3053 86.74 68.1453 86.5573 67.9866 86.3733C67.9126 86.1795 67.7767 86.0154 67.5999 85.9067C67.4426 85.7227 67.2866 85.5387 67.1279 85.3547L66.8799 85.0533L66.3999 84.4947C66.3246 84.3067 66.191 84.1478 66.0186 84.0413L65.4306 83.3427C65.4099 83.276 65.3754 83.2144 65.3295 83.1618C65.2836 83.1093 65.2272 83.0669 65.1639 83.0373L64.7013 82.4853C64.6849 82.4184 64.6535 82.3561 64.6093 82.3032C64.5652 82.2502 64.5095 82.2081 64.4466 82.18C64.2911 81.996 64.1364 81.8107 63.9826 81.624C63.9973 81.5773 64.0106 81.5307 64.0266 81.4907C64.2933 81.5053 64.5506 81.5347 64.8119 81.5347C72.7693 81.5347 80.7248 81.5347 88.6786 81.5347C91.0653 81.5347 93.4533 81.5027 95.8426 81.4853C95.8373 81.5707 95.8306 81.6613 95.8253 81.7533ZM87.7719 138.4C84.4386 138.955 81.0853 139.079 77.7226 138.967C75.9839 138.902 74.2509 138.731 72.5333 138.453C70.786 138.179 69.0825 137.675 67.4666 136.956C67.1479 136.023 67.4186 135.059 67.3133 134.115C67.5293 134.024 67.6933 134.195 67.8866 134.221C68.3879 134.463 68.8733 134.745 69.3919 134.939C74.8999 136.985 80.5373 137.489 86.2919 136.235C87.8586 135.893 89.4359 135.519 90.8453 134.685C91.4853 134.716 91.9399 134.193 92.5439 134.115C92.5439 134.855 92.5439 135.596 92.5519 136.336C92.5519 136.603 92.5586 136.869 92.2653 137.003L89.9279 137.957C89.2106 138.104 88.4959 138.276 87.7719 138.4ZM106.051 116.185L104.869 118.739L104.155 120.037C103.687 120.76 103.22 121.484 102.752 122.208L102.151 123.052L101.469 123.932L101.144 124.34C101.08 124.37 101.024 124.412 100.978 124.465C100.932 124.518 100.897 124.581 100.877 124.648L100.136 125.487L98.1213 127.504L97.4253 128.112L97.1186 128.365L96.5653 128.8L95.8293 129.36L94.9879 129.952L93.6813 130.795L93.1213 131.111L90.3879 132.515C90.2093 132.569 90.0239 132.611 89.8546 132.681C86.1893 134.179 82.3879 134.768 78.4319 134.555C76.9066 134.472 75.42 134.169 73.9186 133.953C73.8607 133.914 73.7925 133.893 73.7226 133.893L71.1893 133.115C70.6559 132.897 70.1226 132.68 69.6013 132.46C68.0506 131.813 66.6199 130.939 65.1879 130.073C64.5577 129.603 63.9284 129.132 63.2999 128.659C63.0653 128.463 62.8333 128.259 62.5999 128.069C62.5613 127.997 62.5081 127.932 62.4436 127.881C62.3792 127.83 62.3049 127.792 62.2253 127.771L59.3973 124.933C59.3789 124.867 59.3464 124.806 59.3019 124.753C59.2575 124.701 59.2022 124.658 59.1399 124.629C58.9808 124.445 58.8226 124.261 58.6653 124.076C58.5839 123.973 58.5026 123.873 58.4226 123.771L58.0959 123.357C57.4879 122.491 56.8804 121.624 56.2733 120.756L55.9493 120.2C55.8999 119.855 55.5493 119.739 55.3933 119.477C55.3933 119.407 55.4306 119.319 55.4013 119.268C54.2786 117.295 53.5266 115.165 52.7973 113.028C52.8279 112.753 52.6039 112.573 52.5386 112.321C52.1013 110.675 51.8266 108.997 51.552 107.321C52.6626 107.637 53.6986 108.175 54.8373 108.411C57.0519 109.055 59.3133 109.456 61.5973 109.764C64.8536 110.228 68.1335 110.508 71.4213 110.604C71.4373 110.611 71.4538 110.616 71.4706 110.62C71.8416 110.724 72.2294 110.754 72.612 110.708H72.9013C74.5013 110.764 76.1013 110.849 77.6906 110.871C83.5106 110.944 89.3199 110.761 95.1159 110.176C98.3053 109.855 101.472 109.411 104.565 108.561C105.708 108.245 106.907 108.028 107.899 107.304C108.731 107.316 108.288 107.909 108.251 108.205C107.992 110.221 107.421 112.167 106.859 114.113C106.589 114.807 106.321 115.495 106.051 116.183V116.185Z" fill="#3A3A3A"/>
<path d="M57.9827 63.08C58.7454 62.792 59.4947 62.476 60.1507 61.976C60.4141 61.8796 60.6537 61.7277 60.8534 61.5307C61.1312 61.3939 61.3808 61.2062 61.5894 60.9773C61.8747 60.8347 62.072 60.592 62.284 60.3667C62.3525 60.3555 62.4168 60.3262 62.4702 60.2819C62.5236 60.2376 62.5643 60.1799 62.588 60.1147C62.8654 59.9229 63.105 59.6815 63.2947 59.4027C63.3573 59.3746 63.413 59.3333 63.4579 59.2814C63.5028 59.2296 63.5358 59.1686 63.5547 59.1027C63.708 58.916 63.86 58.7293 64.0134 58.544C64.3514 58.2033 64.6336 57.8114 64.8494 57.3827C65.3014 56.656 65.8054 55.9573 66.0254 55.116C66.568 54.0733 66.812 52.9427 66.992 51.7947L67.032 51.252C67.1531 51.0244 67.1899 50.7614 67.136 50.5093C67.136 49.8871 67.136 49.2649 67.136 48.6427C67.0857 48.518 67.0529 48.387 67.0387 48.2533C67.0747 46.9827 66.7027 45.7987 66.2774 44.6267C66.1774 44.3133 66.1 43.9933 65.8854 43.732C65.6734 43.004 65.2667 42.3787 64.848 41.76C64.5694 41.3707 64.2934 40.9813 64.016 40.592L63.6894 40.192C63.6143 40.0016 63.4765 39.8426 63.2987 39.7413C63.1075 39.4641 62.8682 39.2235 62.592 39.0307C61.8752 38.2891 61.0453 37.6658 60.1334 37.184C57.7427 35.7173 55.1214 35.1387 52.3454 35.244C50.5227 35.3133 48.7387 35.6267 47.088 36.468C46.5249 36.6759 45.9946 36.9637 45.5134 37.3227C45.1407 37.4969 44.8007 37.7336 44.508 38.0227L43.7867 38.5827L43.4907 38.8747C43.0648 39.2061 42.6835 39.591 42.356 40.02C42.2747 40.1213 42.1907 40.2213 42.1094 40.32L41.78 40.728C41.5513 40.9348 41.364 41.1832 41.228 41.46C41.0547 41.6773 40.8547 41.8773 40.7747 42.156C40.1707 42.9347 39.8267 43.8387 39.524 44.7613C38.844 46.6413 38.6774 48.5867 38.7734 50.5667C38.8763 52.7696 39.527 54.912 40.6667 56.8C40.9186 57.3287 41.2455 57.8181 41.6374 58.2533L41.9574 58.6627C41.9729 58.7301 42.0039 58.793 42.0479 58.8464C42.0918 58.8999 42.1476 58.9424 42.2107 58.9707C42.6784 59.5468 43.2043 60.0732 43.78 60.5413C44.3827 61.0413 44.9547 61.58 45.6627 61.9387C49.5854 64.304 53.6974 64.6387 57.9827 63.08ZM45.6454 59.2933C45.512 59.1813 45.3707 59.0693 45.232 58.9587L44.9334 58.704C44.592 58.3613 44.2507 58.0173 43.908 57.676L43.6534 57.3747C43.4774 57.132 43.3334 56.8653 43.076 56.6933C42.3145 55.4505 41.6988 54.124 41.2414 52.74C41.1627 51.9653 40.9494 51.212 40.9147 50.4293C40.8791 49.1274 40.9859 47.8254 41.2334 46.5467C41.238 46.5362 41.242 46.5256 41.2454 46.5147C41.5245 45.7485 41.804 44.9818 42.084 44.2147C42.8966 42.6997 43.9632 41.3354 45.2374 40.1813L45.6507 39.8533C46.6547 39.0533 47.8294 38.5627 48.984 38.0427C52.5694 36.984 55.9974 37.3253 59.2587 39.1787L60.4267 40.008L61.1254 40.612C61.2283 40.7957 61.3808 40.9468 61.5654 41.048L62.3067 41.892L63.1427 43.0533L63.4614 43.612L64.128 44.9453C64.692 46.6147 65.084 48.3093 65.0134 50.096C64.9627 51.412 64.624 52.6613 64.2774 53.9147C64.2654 53.9147 64.256 53.9347 64.2454 53.9747C63.7507 54.9987 63.232 56.012 62.5627 56.94C62.5028 56.9704 62.4503 57.0136 62.4091 57.0667C62.3678 57.1197 62.3388 57.1811 62.324 57.2467C62.164 57.4307 62.0067 57.616 61.8467 57.8L60.8347 58.8107L60.28 59.2747L59.116 60.1027L58.5547 60.4107L56.3507 61.376C55.116 61.6227 53.8854 61.8787 52.6107 61.8333C51.6094 61.8 50.6547 61.4947 49.664 61.412C48.3574 60.9276 47.1106 60.295 45.948 59.5267C45.8507 59.4507 45.7494 59.372 45.6454 59.2933Z" fill="#F7931B"/>
<path d="M121.176 48C121.071 46.9333 120.971 45.832 120.384 44.872C120.014 43.4582 119.33 42.1458 118.384 41.032C118.355 40.7107 118.095 40.5453 117.913 40.3267C117.897 40.2592 117.865 40.1965 117.82 40.1435C117.775 40.0905 117.719 40.0487 117.655 40.0213C117.275 39.5465 116.843 39.1166 116.365 38.74C116.338 38.6778 116.297 38.6227 116.245 38.579C116.193 38.5353 116.131 38.5042 116.065 38.488L115.656 38.164C115.199 37.9853 114.957 37.4973 114.487 37.3453L113.924 37.0213C113.399 36.64 112.801 36.4053 112.191 36.1893C110.724 35.572 109.192 35.3 107.62 35.2307C105.259 35.1267 102.989 35.52 100.872 36.6213L100.416 36.8707C99.7187 37.1267 99.1414 37.5747 98.5734 38.0347C98.5627 38.0347 98.5534 38.044 98.544 38.0587L97.9214 38.5853C97.8423 38.605 97.7687 38.642 97.7057 38.6937C97.6428 38.7454 97.5921 38.8104 97.5574 38.884C97.1318 39.2166 96.7493 39.6009 96.4187 40.028C96.3469 40.0643 96.2833 40.115 96.2319 40.177C96.1806 40.2389 96.1425 40.3107 96.12 40.388L95.7067 40.8933C95.2174 41.392 94.956 42.0387 94.5894 42.6187C94.182 43.2688 93.8754 43.9768 93.68 44.7187C93.1787 45.7787 93.0134 46.9253 92.9027 48.068C92.676 50.4293 92.924 52.7413 93.8707 54.944C94.2145 55.9149 94.6944 56.8321 95.296 57.668C95.4294 57.86 95.5707 58.0507 95.708 58.2427L96.0307 58.664C96.1027 58.8563 96.2394 59.0175 96.4174 59.12C96.8868 59.6939 97.4135 60.2184 97.9894 60.6853C98.0177 60.7476 98.0596 60.8028 98.1119 60.8469C98.1643 60.8909 98.2258 60.9227 98.292 60.94L98.7067 61.256C100.699 62.8086 103.097 63.751 105.613 63.9693C108.147 64.148 110.603 63.812 112.908 62.668C113.376 62.5035 113.817 62.2698 114.216 61.9747C114.861 61.6933 115.401 61.26 115.92 60.7933C115.989 60.7829 116.053 60.7541 116.107 60.7099C116.161 60.6658 116.202 60.6081 116.225 60.5427L116.952 59.8533C117.278 59.6082 117.562 59.3109 117.791 58.9733C117.853 58.9446 117.909 58.902 117.952 58.8486C117.996 58.7952 118.027 58.7325 118.043 58.6653L118.36 58.2453L118.76 57.664C119.29 56.9105 119.722 56.0923 120.045 55.2293C121.117 52.9333 121.424 50.492 121.176 48ZM114.909 58.8173L114.349 59.284L113.183 60.1053C111.088 61.2627 108.865 61.9187 106.449 61.8387C105.18 61.7933 103.971 61.46 102.765 61.1053C102.185 60.8209 101.607 60.536 101.032 60.2507L99.2894 58.9773L98.1627 57.8893C98.0672 57.6802 97.9142 57.5026 97.7214 57.3773C97.6174 57.244 97.5147 57.1027 97.4107 56.9667C97.18 56.6253 96.9467 56.2867 96.716 55.9467L95.8214 54.0947C95.4667 53.1813 95.2787 52.228 95.0627 51.2733C95.056 51.2493 95.0507 51.2267 95.0454 51.2013C95.032 51.144 95.0187 51.088 95.0067 51.0307C94.9934 50.6667 94.9787 50.3 94.9654 49.936V49.2133C94.9654 47.9493 95.2814 46.736 95.5867 45.524C95.987 44.5698 96.4521 43.6441 96.9787 42.7533C97.2258 42.4253 97.4729 42.0956 97.72 41.764L97.9667 41.46L98.9974 40.4267C99.1829 40.3447 99.3402 40.2097 99.4494 40.0387L99.8614 39.7253C100.204 39.496 100.547 39.2662 100.888 39.036L102.621 38.2027L102.648 38.1893C103.91 37.7567 105.226 37.5053 106.559 37.4427C107.877 37.396 109.149 37.644 110.425 37.9C110.446 37.9064 110.466 37.914 110.485 37.9227C111.555 38.3208 112.595 38.7921 113.6 39.3333L114.344 39.8773L114.9 40.332L115.912 41.3427C116.067 41.528 116.223 41.712 116.376 41.8973C116.744 42.4307 117.113 42.9676 117.483 43.508C117.563 43.696 117.632 43.8907 117.727 44.0707C118.621 45.7959 119.087 47.7113 119.084 49.6547C119.096 51.1213 118.737 52.5067 118.333 53.892C118.329 53.8998 118.326 53.9078 118.323 53.916C117.899 54.732 117.476 55.548 117.055 56.364C116.406 57.2366 115.689 58.0561 114.911 58.8147L114.909 58.8173Z" fill="#F7931B"/>
<path d="M66.868 39.484C66.928 39.8533 67.1346 40.1506 67.3306 40.4573L67.5973 40.8973C67.8152 41.3713 68.1048 41.8089 68.456 42.1946L68.772 42.6066C68.789 42.6735 68.8209 42.7356 68.8652 42.7885C68.9095 42.8413 68.9651 42.8835 69.028 42.912C69.2122 43.1901 69.4437 43.4338 69.712 43.632C69.9648 43.9569 70.2635 44.2434 70.5986 44.4826L70.9053 44.728L71.316 45.0546C71.7821 45.4717 72.3113 45.8124 72.884 46.064C73.1865 46.3135 73.5361 46.4999 73.912 46.612C74.8624 47.083 75.8753 47.4157 76.92 47.6C80.0386 48.244 83.0533 47.9626 85.9426 46.5866C86.0946 46.5053 86.2453 46.4253 86.396 46.3427C87.2306 45.9253 88.0933 45.5427 88.6866 44.776C88.9426 44.776 89.0866 44.596 89.2373 44.4333C89.7776 44.043 90.2532 43.5701 90.6466 43.032L90.9773 42.632C91.0402 42.6027 91.0957 42.5598 91.1397 42.5062C91.1838 42.4527 91.2153 42.39 91.232 42.3227L91.5466 41.9053L91.9466 41.32C92.3786 40.7066 92.7706 40.072 92.9826 39.344C94.0146 37.2933 94.3773 35.0947 94.3226 32.8293C94.276 30.8813 93.896 28.9933 92.9813 27.244C92.88 26.776 92.6213 26.384 92.3786 25.9826C92.0286 25.3111 91.6036 24.6813 91.112 24.1053L90.6453 23.5506C90.3393 23.1157 89.9588 22.7384 89.5213 22.436L88.9733 21.9586C88.9435 21.8962 88.9003 21.841 88.8469 21.797C88.7935 21.753 88.731 21.7212 88.664 21.704L88.2453 21.3906C87.8773 21.008 87.3693 20.844 86.9453 20.5493C82.692 18.2106 78.3426 18.092 73.9053 19.9826C73.4337 20.1362 72.9915 20.3683 72.5973 20.6693L72.044 20.9853C71.6166 21.2009 71.2256 21.482 70.8853 21.8186C70.4439 22.1372 70.0452 22.5109 69.6986 22.9306C69.4257 23.2266 69.152 23.5231 68.8773 23.82C68.3217 24.4287 67.8479 25.1073 67.468 25.8386C67.0426 26.5546 66.6106 27.2693 66.4293 28.1053C65.872 29.2666 65.6293 30.516 65.504 31.7773C65.2786 34.1213 65.504 36.4173 66.4653 38.6026C66.532 38.9228 66.6696 39.224 66.868 39.484ZM69.4146 26.6933L69.756 26.1453C70.0428 25.862 70.2871 25.5386 70.4813 25.1853L72.0346 23.6613L73.6266 22.5453L75.2 21.7866C78.0466 20.6906 80.92 20.6346 83.82 21.5506C85.0533 21.94 86.1253 22.6506 87.2373 23.284C87.3384 23.4559 87.4957 23.5877 87.6826 23.6573L89.416 25.404C89.6946 25.7906 89.9733 26.176 90.2506 26.564L90.5706 27.124C90.7964 27.5684 91.0213 28.0093 91.2453 28.4466C91.6306 29.6613 92.024 30.8693 92.124 32.1573C92.3013 34.4533 91.8733 36.632 90.9653 38.7306L90.2986 39.9C90.1853 40.0813 90.0733 40.2626 89.96 40.4426C89.6653 40.6053 89.592 40.94 89.3933 41.1773L89.1466 41.4786C88.7022 41.9186 88.2622 42.36 87.8266 42.8026C87.7253 42.8826 87.6253 42.9626 87.524 43.0453C87.3906 43.152 87.2466 43.2613 87.1066 43.3706L86.088 44.0466L84.2306 44.9333C80.804 46.116 77.46 45.936 74.1986 44.3347C73.5462 43.8991 72.8933 43.464 72.24 43.0293L71.768 42.6093L70.9013 41.74L70.4253 41.1893C70.2013 40.8947 69.9773 40.5973 69.7586 40.3013C69.5097 39.8791 69.2613 39.4564 69.0133 39.0333C68.904 38.7666 68.832 38.4866 68.6226 38.2733C67.956 36.5466 67.556 34.7746 67.5893 32.904C67.6173 31.5186 67.964 30.204 68.3346 28.888C68.6946 28.1529 69.0546 27.4195 69.4146 26.688V26.6933Z" fill="#F7931B"/>
<path d="M46.4 45.2C46.4 45.9547 46.5547 46.3293 47.384 46.088C47.6053 46.024 47.8547 46.056 48.092 46.0427C48.1262 46.0641 48.1667 46.073 48.2067 46.068C48.24 46.2267 48.2747 46.3827 48.308 46.5413C48.315 46.6324 48.3343 46.7221 48.3653 46.808C48.3853 47.208 48.3853 47.6187 48.4253 48.0213C48.6404 50.128 48.8627 52.2342 49.092 54.34C49.1307 54.6973 49.0227 54.8453 48.6547 54.9027C48.3147 54.956 47.936 54.8053 47.6333 55.0733C47.1 55.4987 47.5933 56.0067 47.5373 56.4707C47.4813 56.9347 47.804 57.1453 48.2787 57.0853C48.656 57.036 49.0387 56.944 49.4133 56.9667C49.828 56.9933 50.3467 56.6253 50.6133 56.9667C50.8373 57.2627 50.788 57.7893 50.8027 58.216C50.8213 58.7787 51.0347 58.9627 51.612 58.8653C52.604 58.6973 52.608 58.732 52.4427 57.7C52.3893 57.36 52.336 57.0227 52.2813 56.6827C53.5307 56.5213 53.5307 56.5267 53.676 57.8267C53.684 57.8738 53.6867 57.9216 53.684 57.9693C53.652 58.444 53.8867 58.5747 54.3373 58.556C55.3853 58.5133 55.484 58.4107 55.3147 57.3733C55.2827 57.1853 55.2693 56.9973 55.2453 56.808C55.2 56.472 55.356 56.4147 55.68 56.3547C56.98 56.1173 58.2307 55.748 59.004 54.532C60.0307 53.3853 59.9253 50.832 58.4427 49.9173C58.2013 49.6507 57.8813 49.5173 57.56 49.384C56.88 49.2507 57.22 48.936 57.4267 48.644C57.6102 48.4906 57.7485 48.2901 57.8267 48.064C58.408 46.9067 58.3013 45.812 57.5293 44.7773C57.3573 44.3467 56.988 44.232 56.576 44.192C56.3427 43.6413 55.8173 43.5827 55.3347 43.4787C54.1147 43.212 54.1013 43.2227 53.9707 41.9387C53.9147 41.396 53.704 41.1293 53.1107 41.176C52.2893 41.2413 52.2187 41.316 52.2587 42.48C52.296 43.612 52.296 43.6187 51.1667 43.6987C51.1013 43.1653 51.0213 42.6387 50.9787 42.0987C50.952 41.7787 50.8453 41.5493 50.5187 41.472C49.6813 41.2707 49.2253 41.6427 49.2493 42.5067C49.2493 42.7667 49.2307 43.04 49.3133 43.2813C49.46 43.7013 49.2627 43.76 48.9227 43.7947C48.1707 43.872 47.4227 43.9773 46.6733 44.0707C46.104 44.3347 46.4467 44.812 46.4 45.2ZM56.8427 52.6347C56.7787 53.3173 56.3213 53.708 55.8333 54.0827C54.736 54.516 53.5667 54.5027 52.4187 54.656C52.0187 54.7067 51.812 54.6267 51.816 54.1413C51.8267 53.1093 51.54 52.0947 51.5853 51.0573C51.6001 51.0622 51.6153 51.0657 51.6307 51.068C51.6173 51.0293 51.604 50.992 51.5893 50.9533C52.556 50.8627 53.52 50.7467 54.488 50.6867C55.8467 50.6027 56.9707 51.2587 56.8413 52.632L56.8427 52.6347ZM55.424 47.9253C55.068 48.4227 54.5733 48.592 53.9747 48.6627C53.3253 48.7427 52.6547 48.6827 52.024 48.908C51.7893 48.7613 51.32 49.22 51.264 48.6067C51.1867 47.7547 51.1093 46.904 51.012 46.056C50.992 45.8653 51.0387 45.7893 51.2147 45.7773C52.4147 45.6933 53.6147 45.436 54.8147 45.7773C55.624 46.4387 55.756 46.9067 55.4227 47.9227L55.424 47.9253Z" fill="#F7931B"/>
<path d="M74.4 29.14C74.7614 29.1653 75.152 29.016 75.476 29.3013C75.52 32.0613 75.5534 34.8213 75.6094 37.5813C75.6187 37.9933 75.476 38.1147 75.0894 38.148C74.7027 38.1813 74.2894 37.96 73.948 38.3133C73.6987 38.688 73.8894 39.0987 73.8507 39.4907C73.7974 40.04 74.052 40.2667 74.6014 40.2413C75.3107 40.2067 76.0214 40.208 76.7347 40.1947C77.1134 40.6787 76.8467 41.2387 76.9134 41.76C76.944 41.9987 76.9054 42.304 77.212 42.3067C77.64 42.3067 78.1094 42.496 78.4934 42.136C78.8254 41.508 78.4627 40.8213 78.6547 40.1813C79.04 40.2387 79.4547 40.032 79.8147 40.3147C79.8147 40.744 79.8254 41.1733 79.8067 41.5987C79.7827 42.1547 80.0294 42.352 80.58 42.3387C81.5374 42.3187 81.5374 42.3387 81.528 41.4053C81.5374 41.1906 81.5334 40.9756 81.516 40.7613C81.4734 40.424 81.5907 40.328 81.9387 40.308C82.9547 40.248 83.9507 40.076 84.8054 39.452C85.373 39.1283 85.8185 38.627 86.0734 38.0253C86.7094 36.6533 86.5254 35.256 85.58 34.2813C85.384 34.0147 85.18 33.764 84.824 33.7067C84.7494 33.3733 84.168 33.464 84.236 33.0133C85.7747 31.6587 85.836 29.7693 84.8147 28.5507C84.6763 28.3174 84.482 28.1222 84.2494 27.9827C84.0069 27.7306 83.704 27.5447 83.3694 27.4427C83.2745 27.3723 83.1673 27.3203 83.0534 27.2893C81.8094 27.2067 81.256 26.632 81.4894 25.3267C81.6 24.7093 81.024 24.7933 80.6387 24.7933C80.2534 24.7933 79.776 24.6947 79.784 25.3413C79.784 25.8867 79.784 26.432 79.784 26.9773C79.3547 27.188 78.9294 27.1027 78.5027 26.9667C78.5027 26.444 78.484 25.9213 78.5027 25.4C78.5294 24.6507 77.9787 24.8253 77.56 24.792C77.1054 24.7547 76.752 24.8267 76.7734 25.416C76.792 25.936 76.7734 26.4587 76.7654 26.98L74.0547 27.004C73.876 26.9933 73.8107 27.1187 73.76 27.2573C73.5587 27.768 73.6134 28.28 73.7507 28.7933C73.8067 29.2 74.1174 29.1227 74.4 29.14ZM82.352 29.5707C82.4507 29.672 82.552 29.7707 82.6507 29.8693C83.0094 30.4773 83.06 31.0933 82.7014 31.72C82.5426 31.9129 82.3416 32.0667 82.1138 32.1693C81.8861 32.272 81.6377 32.3208 81.388 32.312C80.4854 32.312 79.5827 32.304 78.6814 32.32C78.3734 32.32 78.252 32.216 78.2507 31.92C78.2507 31.1107 78.2267 30.304 78.216 29.496C78.216 29.3307 78.196 29.1347 78.4454 29.1467C79.7507 29.2 81.104 28.8907 82.3467 29.5707H82.352ZM83.6387 35.7733C83.7002 36.0997 83.6802 36.4363 83.5804 36.7531C83.4806 37.0699 83.3042 37.3571 83.0667 37.5893C82.7854 37.7427 82.5027 37.8947 82.2214 38.0493C81.092 38.316 79.948 38.152 78.8094 38.176C78.3827 38.1853 78.2934 38.032 78.3067 37.6427C78.3227 37.124 78.368 36.5947 78.2147 36.0813C78.2227 35.656 78.2374 35.232 78.2307 34.8067C78.2307 34.58 78.2787 34.4293 78.536 34.444C79.9507 34.5213 81.3907 34.2373 82.7747 34.7373C83.1375 35.0113 83.4315 35.366 83.6334 35.7733H83.6387Z" fill="#F7931B"/>
<path d="M111.489 50.3507L111.2 50.0587C111.289 49.9587 111.381 49.8587 111.467 49.76C111.831 49.5774 112.126 49.283 112.311 48.92C113.147 47.5413 113.111 46.528 112.193 45.328C112.016 45.0387 111.774 44.7945 111.487 44.6147C110.975 44.072 110.248 43.924 109.62 43.6C109.703 43.108 109.781 42.616 109.869 42.1253C109.925 41.808 109.765 41.616 109.503 41.5053C108.703 41.168 108.183 41.4627 108.056 42.324C108.028 42.512 108.065 42.7133 108.019 42.8947C107.939 43.192 108.101 43.684 107.485 43.5933C106.967 43.5173 106.569 43.4 106.763 42.728C106.832 42.4259 106.877 42.1187 106.896 41.8093C106.917 41.6931 106.903 41.5735 106.858 41.4645C106.813 41.3556 106.737 41.2619 106.64 41.1947C105.84 40.716 105.204 41.0733 105.173 41.9947L105.149 42.708C105.14 42.7689 105.117 42.8271 105.084 42.879C105.051 42.9309 105.007 42.9755 104.956 43.0099C104.905 43.0443 104.848 43.0678 104.787 43.0789C104.726 43.09 104.664 43.0886 104.604 43.0747C104.084 43.016 103.564 42.9547 103.043 42.9C101.927 42.7827 101.927 42.784 101.753 43.8747C101.628 44.6627 101.769 44.84 102.571 44.92C103.004 44.9627 103.46 44.9827 103.336 45.6293C103.035 48.12 102.729 50.6093 102.437 53.096C102.384 53.5507 102.224 53.6707 101.739 53.564C100.665 53.3293 100.465 53.5293 100.443 54.66C100.427 55.4933 100.555 55.6307 101.397 55.664C101.636 55.6747 101.872 55.6773 102.111 55.6813C102.453 55.948 102.988 55.616 103.243 55.972C103.497 56.328 103.08 56.74 103.168 57.144C103.17 57.1675 103.17 57.1912 103.168 57.2147C103.159 57.5173 103.063 57.8653 103.487 57.976C103.88 58.0787 104.305 58.3373 104.623 57.828C104.964 57.368 104.865 56.8187 104.924 56.3013C105.277 55.876 105.684 56.152 106.025 56.276C106.069 56.2895 106.109 56.3138 106.141 56.3467C106.159 56.3938 106.172 56.4425 106.181 56.492C106.168 56.6253 106.067 56.772 106.056 56.892C106.027 57.1987 105.977 57.5027 105.936 57.8067C105.864 58.3507 106.261 58.4347 106.643 58.496C107.024 58.5573 107.499 58.6613 107.609 58.088C107.699 57.6253 107.717 57.148 107.767 56.6773C108.213 56.6773 108.661 56.6867 109.107 56.66C110.476 56.58 111.699 56.196 112.473 54.9413C113.14 53.8747 113.336 52.7707 112.644 51.628C112.412 51.0667 111.947 50.7107 111.489 50.3507ZM110.033 53.6347C109.888 53.7827 109.74 53.9293 109.593 54.0773C108.161 54.8533 106.724 54.308 105.288 54.1013C105.081 54.0707 105.021 53.976 105.055 53.7613C105.201 52.776 105.331 51.788 105.455 50.8C105.479 50.6093 105.544 50.4667 105.764 50.516C106.984 50.8 108.265 50.7587 109.449 51.224L110.036 51.7947C110.4 52.408 110.365 53.0227 110.033 53.6347ZM110.175 46.6533C110.297 46.9225 110.349 47.2184 110.326 47.5132C110.303 47.8081 110.205 48.0921 110.041 48.3387L109.743 48.628C109.238 48.8758 108.664 48.9458 108.115 48.8267C107.389 48.6933 106.648 48.516 105.901 48.6147C105.741 47.568 106.101 46.5667 106.179 45.5413C106.176 45.5116 106.181 45.4817 106.194 45.4545C106.206 45.4273 106.225 45.4038 106.249 45.3863C106.273 45.3687 106.302 45.3576 106.331 45.3542C106.361 45.3508 106.391 45.3551 106.419 45.3667C107.477 45.6133 108.607 45.524 109.601 46.0613L110.175 46.6533Z" fill="#F7931B"/>
</svg>
