<svg width="160" height="160" viewBox="0 0 160 160" fill="none" xmlns="http://www.w3.org/2000/svg">
<path d="M32.104 97.3013C31.1827 101.507 30.2667 105.715 29.3334 109.919C29.0214 111.326 28.6782 112.726 28.304 114.12C28.1178 114.816 27.8692 115.495 27.5614 116.147C26.4134 118.547 24.236 119.921 22.3294 119.5C20.2467 119.041 18.424 116.748 18.6894 114.139C19.1507 109.617 19.8387 105.108 20.6747 100.64C21.944 93.8573 23.9067 87.276 27.0547 81.0893C30.2027 74.9027 35.18 71.2387 42 69.9053C32.1734 62.3253 29.5 52.9973 36.116 42.1893C40.516 35.0093 48.984 32.5133 57.2774 34.9507C64.5747 37.096 69.7587 44.1907 70.0907 52.4867C70.4347 61.0973 65.12 68.4613 55.9427 71.92C60.2094 76.6893 62.504 82.596 65.676 87.9773C66.6814 89.6813 67.0093 89.8 68.684 88.6907C72.532 86.1427 76.3 83.4747 80.1627 80.9573C81.4467 80.1173 82.86 79.2773 84.3253 78.976C85.344 78.7667 86.8147 79.1733 87.6067 79.8573C88.5773 80.6947 88.4067 82.1573 87.5947 83.2227C86.7613 84.316 85.756 85.276 84.72 86.4107C85.2533 90.9667 84.0053 92.7733 79.4014 94.24C78.1574 94.64 77.016 95.3973 75.8813 96.0813C73.8813 97.2813 71.9827 98.6627 69.94 99.7813C65.4067 102.264 62.1787 101.532 59.02 97.436C58.22 96.4013 57.4867 95.3187 56.5227 93.98C56.372 98.432 56.212 102.523 56.1027 106.616C55.9454 112.464 55.8267 118.313 55.684 124.163C55.6707 124.719 55.72 125.325 55.512 125.811C55.36 126.164 54.852 126.515 54.4667 126.56C54.2267 126.588 53.8 126.087 53.676 125.744C53.5347 125.344 53.6187 124.864 53.632 124.419C54.004 111.944 54.3667 99.468 54.7934 86.9947C54.8107 86.4613 55.412 85.9467 55.7414 85.4227C56.0667 85.956 56.724 86.5373 56.6667 87.0227C56.0774 91.9947 59.5627 94.8307 62.412 97.9067C63.8534 99.4627 65.928 99.5067 67.832 98.5067C69.504 97.6347 71.0774 96.576 72.7347 95.672C75.1547 94.352 77.5667 93.0053 80.068 91.8427C82.2733 90.8213 83.0254 89.7493 82.7107 87.2187C82.352 87.2867 81.976 87.464 81.652 87.3933C81.2734 87.312 80.736 87.0813 80.6454 86.7947C80.5547 86.508 80.84 85.94 81.1293 85.7387C82.0827 85.072 83.1827 84.6067 84.096 83.896C84.9347 83.2427 85.6053 82.3707 86.3507 81.5947L86.0507 80.9C85.2267 81.0333 84.292 80.9653 83.5987 81.3427C81.896 82.2667 80.2934 83.38 78.6653 84.4467C75.5547 86.4933 72.52 88.6627 69.332 90.58C66.6867 92.18 65.5987 91.832 64.036 89.16C62.3827 86.3347 60.8827 83.4187 59.2747 80.5653C58.4574 79.1133 57.5267 77.7253 56.6947 76.2813C55.0147 73.3693 52.684 72.0587 49.1613 71.944C45.3453 71.8187 41.6694 71.5667 38.072 73.2053C32.7147 75.6467 29.4747 79.9187 27.3734 85.2053C23.8254 94.1387 21.88 103.472 20.7294 112.983C20.4494 115.297 21.396 117.116 22.828 117.435C24.076 117.712 25.4174 116.556 26.028 114.179C27.228 109.512 28.0507 104.733 29.3907 100.105C30.6667 95.7053 32.368 91.4133 33.9827 87.112C34.1947 86.548 35.004 86.208 35.5373 85.7653C35.6827 86.412 36.0213 87.084 35.944 87.704C34.8933 96.2667 33.7534 104.8 32.68 113.341C32.1734 117.368 31.8027 121.413 31.2707 125.436C31.208 125.908 30.512 126.296 30.1094 126.723C29.8427 126.248 29.3094 125.749 29.344 125.301C29.7529 120.704 30.2182 116.112 30.74 111.525C31.2734 106.792 31.8934 102.067 32.4734 97.3387L32.104 97.3013ZM51.6773 70.0507C61.8213 70.3653 67.944 61.0587 67.856 52.552C67.7467 42.4187 59.5453 35.876 50.964 36.1867C42.1574 36.5067 34.6707 43.96 34.6894 52.9573C34.7094 62.5253 42.228 70.092 51.6773 70.0507Z" fill="#3A3A3A"/>
<path d="M114.056 73.2653V87.7653H115.804C119.928 87.7653 124.052 87.7547 128.176 87.7747C132.613 87.7947 135.268 90.2773 135.433 94.716C135.548 97.772 135.456 100.835 135.456 103.889C139.684 105.373 141.741 108.052 141.267 111.444C140.789 114.857 138.215 117.348 134.977 117.527C131.828 117.701 128.936 115.46 128.171 112.255C127.331 108.739 129.104 105.896 133.419 103.977C133.419 100.76 133.489 97.4747 133.395 94.1933C133.329 91.904 131.563 89.8947 129.328 89.8347C124.275 89.7013 119.216 89.792 114.068 89.792V103.875C118.4 105.757 120.248 108.565 119.439 112.033C118.639 115.441 115.809 117.68 112.476 117.532C109.477 117.399 106.609 114.832 106.256 111.957C105.767 108.004 107.641 105.312 111.899 103.916V89.684C109.971 89.684 108.1 89.684 106.228 89.684C103.055 89.6987 99.8775 89.6213 96.7108 89.776C94.2788 89.8947 92.3495 91.8093 92.2588 94.1693C92.1348 97.3907 92.2281 100.62 92.2281 103.799C96.8308 105.751 98.6575 108.563 97.8108 112.272C97.0601 115.552 94.3014 117.637 90.8494 117.533C87.7748 117.439 85.0348 114.959 84.5641 111.843C84.0148 108.215 85.9455 105.463 90.2108 103.883C90.2108 100.912 90.1975 97.9067 90.2108 94.9027C90.2335 90.7853 93.2468 87.7773 97.3748 87.7627C102.16 87.7453 106.945 87.7627 111.843 87.7627V73.4027C105.697 72.7773 100.672 70.0787 97.1148 64.904C94.2574 60.7493 93.0788 56.112 93.6294 51.1347C94.7454 41.0307 102.577 33.8013 112.441 33.1747C122.449 32.5427 130.568 40.1387 132.175 49.0493C133.241 54.916 132.121 60.464 128.484 65.3347C124.899 70.1467 119.98 72.6667 114.056 73.2653ZM130.38 52.8893C130.879 42.9053 121.98 35.3173 114.38 35.26C102.231 35.1667 95.9201 43.66 95.6388 53.3547C95.3614 62.9267 103.301 70.9547 112.705 71.168C122.691 71.3867 131.031 61.9093 130.38 52.8893ZM95.9188 110.667C95.9312 109.429 95.458 108.236 94.6008 107.343C93.7435 106.451 92.5705 105.93 91.3335 105.892C88.8001 105.817 86.5335 108.073 86.5335 110.667C86.5335 113.315 88.6748 115.529 91.2294 115.519C93.7841 115.508 95.9121 113.311 95.9188 110.667ZM108.252 110.736C108.275 113.339 110.368 115.499 112.837 115.468C115.371 115.437 117.668 113.136 117.637 110.655C117.617 109.418 117.119 108.237 116.246 107.361C115.374 106.484 114.195 105.98 112.959 105.955C110.333 105.912 108.228 108.051 108.252 110.731V110.736ZM134.641 106C132.1 105.964 130.039 108.049 130.008 110.684C129.977 113.255 132.016 115.449 134.504 115.525C137.047 115.604 139.316 113.411 139.371 110.821C139.425 108.232 137.275 106.036 134.641 106Z" fill="#F7931B"/>
<path d="M41.9519 125.357C42.4772 121.195 42.9039 117.559 43.4346 113.936C43.4986 113.501 44.1346 113.151 44.5012 112.761C44.8079 113.189 45.4026 113.637 45.3732 114.041C45.1959 116.472 44.8839 118.895 44.5972 121.319C44.4479 122.585 44.3479 123.869 44.0439 125.1C43.8866 125.739 43.3332 126.277 42.9572 126.861C42.5559 126.257 42.1506 125.652 41.9519 125.357Z" fill="#3A3A3A"/>
<path d="M54.7095 64.7453C52.6641 64.8067 50.8628 64.1213 49.4281 62.72C48.9801 62.284 48.5828 61.168 48.8268 60.7733C49.4415 59.7747 50.0975 60.624 50.6935 61.1067C53.0068 62.9827 55.4534 63.152 57.9241 61.736C58.2841 61.5307 58.8574 61.7067 59.3401 61.7067C59.2641 62.2053 59.3548 62.9973 59.0828 63.152C57.7414 63.916 56.3028 64.5107 54.8988 65.1653L54.7095 64.7453Z" fill="#3A3A3A"/>
<path d="M49.0239 51.8787C49.1573 51.3627 49.1653 50.6653 49.5039 50.2253C49.8426 49.7853 50.5586 49.2787 51.0506 49.332C51.5426 49.3853 52.2346 50.0307 52.3493 50.532C52.5519 51.4173 52.5773 52.448 52.3039 53.2987C52.1119 53.9 51.3119 54.6733 50.7679 54.6853C50.2693 54.6947 49.6799 53.84 49.2719 53.264C49.0439 52.9333 49.1079 52.4107 49.0239 51.8787Z" fill="#3A3A3A"/>
<path d="M59.0481 52.088C59.0814 50.3547 59.8201 49.1333 60.7881 49.3733C62.3161 49.752 62.3721 51.096 62.2841 52.3067C62.2001 53.4507 61.9801 54.9293 60.4881 54.8267C58.9961 54.724 59.0561 53.2653 59.0481 52.088Z" fill="#3A3A3A"/>
<path d="M118.231 53.1027C119.981 54.036 121.773 55.0147 121.204 57.452C120.7 59.6133 118.793 60.6587 114.696 61.1V63.5C112.163 64.2187 112.931 62.212 112.523 61.2133C111.456 61.0587 111.456 61.0587 110.82 63.576H109.188C109.164 63.116 109.147 62.684 109.117 62.2533C109.091 61.8707 109.049 61.4893 109.012 61.0733L105.513 60.72C105 58.5027 105 58.5027 107.981 58.2827V48.732L105.772 48.576C105.471 46.5147 105.471 46.5147 109.017 46.2173L109.32 43.7133L110.868 43.6147C111.027 44.4947 111.172 45.2987 111.319 46.1133C112.385 46.2947 112.385 46.2947 113.061 43.7067H114.689V45.7227C116.396 46.696 118.133 47.2947 119.305 48.46C120.604 49.7507 120.12 51.0987 118.231 53.1027ZM111.253 58.7667C112.969 58.6147 114.528 58.6187 116.005 58.2773C116.637 58.132 117.52 57.2747 117.529 56.7267C117.539 56.1533 116.723 55.1907 116.12 55.0547C114.556 54.7027 112.911 54.712 111.253 54.5733V58.7667ZM111.295 52.376C112.703 52.2293 113.953 52.2587 115.092 51.916C115.684 51.7373 116.292 50.964 116.473 50.3373C116.563 50.0347 115.759 49.164 115.248 49.0507C113.993 48.7707 112.676 48.784 111.295 48.6653V52.376Z" fill="#F7931B"/>
</svg>
