<svg width="350" height="394" viewBox="0 0 350 394" fill="none" xmlns="http://www.w3.org/2000/svg">
<g clip-path="url(#clip0_648_7000)">
<path d="M74.4235 60.4025C40.1274 60.0396 14.5387 87.0549 13.9428 118.937C13.3147 152.85 39.3366 179.954 73.3414 180.349C108.493 180.758 134.516 152.092 134.136 120.763C134.39 87.2533 107.787 60.7579 74.4235 60.4025ZM102.231 145.841C101.459 146.609 100.68 147.367 99.9138 148.134C96.9288 151.107 94.9463 151.128 91.999 148.2C87.232 143.456 82.4694 138.708 77.7112 133.957C76.5157 132.759 75.4204 131.458 74.0546 129.954C68.3247 135.778 62.8559 141.341 57.3814 146.898C56.7174 147.575 56.0572 148.268 55.3459 148.892C53.1572 150.805 51.0196 150.797 48.8688 148.832C47.766 147.824 46.735 146.752 45.6851 145.679C43.4037 143.359 43.3716 141.078 45.653 138.779C51.3999 133.005 57.1487 127.226 62.9656 121.516C63.9114 120.59 63.8585 120.125 62.9656 119.236C57.3076 113.658 51.712 108.018 46.0918 102.402C43.1578 99.4662 43.1257 97.5721 45.9708 94.6045C46.9582 93.5762 47.9135 92.512 48.9407 91.5291C51.084 89.4819 53.4259 89.4989 55.5408 91.599C61.7038 97.7234 67.8367 103.886 74.1189 110.146L92.0634 92.047C94.7571 89.3345 96.8682 89.3156 99.5336 91.9581C100.546 92.9656 101.565 93.9599 102.56 94.9825C104.792 97.2924 104.809 99.6079 102.56 101.863C96.8588 107.588 91.1572 113.318 85.3857 118.975C84.3623 119.983 84.3945 120.508 85.3952 121.487C91.0154 127.005 96.5561 132.596 102.148 138.15C105.089 141.074 105.125 142.953 102.237 145.832L102.231 145.841Z" fill="#FEFEFE"/>
<path d="M337.898 184.629C325.082 186.553 312.476 189.277 300.611 194.726C299.011 195.46 297.416 196.225 296.071 197.341C295.022 198.204 294.679 197.838 294.34 196.785C291.908 189.245 289.434 181.712 287.01 174.168C285.446 169.31 283.984 164.42 282.398 159.568C282.071 158.557 281.872 156.922 280.297 157.426C278.77 157.912 279.179 159.317 279.574 160.534C286.006 180.415 292.441 200.298 298.879 220.182C299.481 221.913 299.389 223.81 298.621 225.475C289.593 245.835 280.58 266.199 271.582 286.565C270.573 288.845 269.484 291.102 268.627 293.429C268.148 294.735 267.252 295.187 266.083 295.319C260.497 295.903 254.922 296.584 249.319 296.979C238.536 297.735 227.736 297.693 216.941 297.408C208.408 297.183 199.9 296.545 191.416 295.491C186.659 294.891 181.918 294.198 177.193 293.412C176.031 293.223 175.969 292.767 176.026 291.837C176.586 282.159 177.127 272.482 177.651 262.805C177.974 256.847 178.205 250.897 178.56 244.935C179.022 237.226 179.582 229.522 180.074 221.815C180.409 216.538 180.654 211.257 181.02 205.979C181.485 199.156 181.989 192.335 182.533 185.515C182.949 180.185 183.398 174.859 183.88 169.537C184.215 165.757 184.684 162.001 184.962 158.224C185.047 157.041 185.949 155.2 183.891 154.897C181.606 154.553 182.039 156.716 181.929 157.906C181.006 168.082 180.28 178.281 179.313 188.451C179.052 191.205 179.223 194.014 178.428 196.73C172.583 194.948 166.751 193.15 160.902 191.4C158.127 190.572 155.34 189.808 152.54 189.109C151.882 188.94 151.595 188.842 151.784 188.084C155.701 172.56 159.555 157.022 166.815 142.596C175.564 125.205 189.893 115.187 208.578 110.84C210.15 110.477 211.952 109.662 213.292 110.114C214.888 110.652 214.018 112.896 214.512 114.342C216.201 119.278 219.388 122.659 224.314 124.383C233.813 127.699 242.893 127.483 251.133 120.994C255.028 117.928 257.595 113.985 258.491 109.038C258.921 106.675 259.312 106.467 261.809 106.836C267.549 107.675 273.246 108.747 278.906 110.008C288.176 112.076 296.751 115.578 304.353 121.395C313.168 128.135 319.364 136.912 324.426 146.597C330.523 158.26 334.934 170.603 338.971 183.098C339.37 184.338 339.086 184.453 337.898 184.629Z" fill="#FCEFDE"/>
<path d="M282.08 53.2499C280.378 49.2899 276.549 46.1899 271.031 48.6585C269.873 49.1802 268.761 49.8248 267.656 50.4599C266.759 50.9778 265.882 51.3219 265.208 50.2331C264.584 49.2294 265.064 48.3882 265.921 47.8212C266.926 47.1539 267.945 46.4073 269.073 46.0481C270.832 45.4943 270.885 44.3072 270.632 42.8952C270.265 40.8481 269.951 38.7896 269.457 36.7708C266.979 26.6316 261.947 18.0575 253.467 11.7951C241.99 3.31744 229.121 1.42909 215.485 4.68408C204.205 7.37577 195.002 13.4113 188.624 23.2708C182.294 33.0433 179.869 43.931 179.776 55.4312C179.669 60.971 180.37 66.4968 181.857 71.8347C184.681 82.231 189.726 91.3041 198.581 97.7801C209.389 105.679 221.527 107.815 234.412 104.668C249.923 100.874 260.557 91.1983 266.686 76.5036C266.988 75.7815 267.253 75.309 266.286 74.9328C265.356 74.5718 265.208 73.6985 265.482 72.8876C265.81 71.9047 266.723 71.9198 267.531 72.1523C272.319 73.5151 275.996 71.6344 278.991 68.1072C282.684 63.7521 284.5 58.845 282.08 53.2499ZM201.858 58.6409C201.822 59.7958 201.812 61.3893 201.071 62.9033C200.486 64.0904 199.715 64.9675 198.356 64.9618C196.998 64.9561 196.128 64.1641 195.663 62.9033C194.511 59.8609 194.494 56.5055 195.617 53.4522C196.043 52.2443 196.781 51.3483 198.247 51.3238C199.675 51.303 200.433 52.1063 201.008 53.2764C201.776 54.8358 201.896 56.4954 201.858 58.6409ZM202.482 41.1184C198.973 44.1379 194.713 46.154 190.152 46.9535C189.218 46.9535 188.501 46.7948 188.346 45.7173C188.202 44.6853 188.627 43.846 189.573 43.691C193.655 43.0218 197.189 41.2337 200.426 38.748C201.262 38.1035 202.07 38.3889 202.696 39.1393C203.265 39.8368 203.127 40.5589 202.482 41.1184ZM203.511 75.5585C202.132 72.6418 203.462 70.2564 205.556 68.1431C206.797 66.8973 207.955 65.5713 209.022 64.1736C209.756 63.2152 210.588 62.7672 211.568 63.4326C212.548 64.098 212.135 65.1338 211.666 65.9731C210.698 67.7102 209.207 69.0145 207.817 70.3773C206.71 71.4585 205.772 72.5587 206.523 74.2391C207.274 75.9195 208.641 76.5792 210.391 76.6132C211.07 76.6246 211.747 76.6529 212.425 76.6038C213.448 76.5357 214.244 76.9629 214.375 77.9269C214.534 79.0611 213.599 79.579 212.654 79.8172C212.009 79.9797 211.307 79.9098 210.454 79.9514C207.332 79.9627 204.883 78.4505 203.511 75.5585ZM232.925 90.7371C232.259 91.841 231.338 91.616 230.492 91.1718C227.558 89.618 224.537 88.5255 221.151 88.4121C217.765 88.2987 214.84 89.3572 212.086 91.1472C211.751 91.3684 211.433 91.616 211.099 91.841C210.168 92.4742 209.167 93.098 208.327 91.8202C207.527 90.6104 208.373 89.8184 209.273 89.1342C211.501 87.4196 214.074 86.2073 216.815 85.5805C218.211 85.2667 219.607 85.0909 220.86 85.2025C224.692 85.0531 228.059 86.036 231.198 87.8488C231.557 88.0282 231.895 88.2469 232.206 88.5009C232.843 89.0926 233.557 89.6767 232.925 90.7371ZM230.655 63.9297C229.457 66.198 226.907 66.336 225.772 64.0488C224.034 60.5462 224.153 56.8962 225.772 53.3388C226.213 52.3766 227.01 51.7528 228.171 51.7812C229.401 51.8133 230.138 52.5241 230.67 53.5353C231.538 55.1987 231.669 56.9983 231.584 58.8526C231.676 60.5954 231.508 62.3287 230.66 63.9222L230.655 63.9297ZM238.197 48.5016C233.299 47.789 228.716 46.6435 224.426 44.4981C223.642 44.1068 223.152 43.4868 223.544 42.5568C224.013 41.4227 224.989 41.3698 225.928 41.7251C228.862 42.8253 231.76 44.0161 234.862 44.6002C236.046 44.8251 237.225 45.0935 238.42 45.2485C239.461 45.3865 240.123 45.9668 240.053 46.9497C239.985 48.0707 239.014 48.3844 238.203 48.4941L238.197 48.5016Z" fill="#FEFEFE"/>
<path d="M346.876 218.868C347.289 226.388 344.525 233.06 341.061 239.487C334.441 251.774 326.365 263.115 318.333 274.494C309.003 287.726 299.639 300.926 289.769 313.768C288.707 315.146 287.688 315.675 286.004 314.942C279.936 312.295 274.484 308.829 270.439 303.458C269.115 301.716 268.892 299.918 269.83 297.809C279.904 275.237 289.784 252.579 300.052 230.095C302.322 225.14 302.759 220.744 300.685 215.744C298.902 211.446 297.759 206.886 296.221 202.478C295.858 201.439 296.007 200.977 296.91 200.361C303.2 196.051 310.365 193.917 317.586 191.908C324.585 189.954 331.7 188.611 338.875 187.498C339.996 187.324 340.441 187.687 340.747 188.632C343.407 197 345.821 205.429 346.848 214.184C347.032 215.733 346.876 217.311 346.876 218.868Z" fill="#FEFEFE"/>
<path d="M178.199 200.822C177.821 207.383 177.443 213.943 177.064 220.504C176.875 224.095 176.642 227.686 176.537 231.267C176.395 236.024 174.386 239.618 170.256 242.056C165.832 244.663 160.913 245.719 155.951 246.441C149.209 247.419 142.426 248.158 135.646 248.848C131.267 249.292 126.863 249.454 122.469 249.747C118.347 250.022 114.208 250.194 110.099 250.625C106.862 250.963 104.282 252.917 101.67 254.687C98.6089 256.766 95.5803 258.896 91.7194 259.201C91.116 259.246 90.5125 259.201 89.9072 259.221C88.2274 259.255 88.0874 258.492 88.8516 257.22C90.2023 254.965 90.329 252.696 88.9538 250.367C88.373 249.39 88.5036 248.557 89.177 247.439C90.6468 244.994 90.5163 242.285 89.2716 239.708C88.4147 237.937 88.6341 236.225 89.2546 234.162C91.4546 237.278 94.1899 238.958 97.4871 239.814C98.6373 240.111 99.7969 240.16 100.217 238.888C100.678 237.489 99.5188 237.024 98.4292 236.727C92.3153 235.062 90.4596 232.535 90.4255 225.965C90.4255 224.679 91.2011 223.012 89.7199 222.224C88.2709 221.451 87.3326 223.04 86.1938 223.653C82.7169 225.517 79.573 228.065 75.555 228.798C75.2883 228.847 75.0273 228.928 74.7624 228.959C71.8001 229.276 70.0692 228.565 69.233 226.69C68.3383 224.7 68.8774 222.721 71.1247 220.831C75.7083 216.935 80.725 213.612 85.982 210.733C90.7849 208.087 95.3836 209.007 99.4866 212.894C101.013 214.341 102.629 215.729 103.926 217.375C106.007 219.989 108.351 220.793 111.694 220.059C122.226 217.751 132.589 214.969 142.543 210.748C145.973 209.296 147.84 206.968 148.445 203.302C149.013 199.868 149.947 196.498 150.674 193.095C150.874 192.165 150.988 191.867 152.187 192.165C160.684 194.277 168.993 197.002 177.346 199.592C178.199 199.857 178.235 200.167 178.199 200.822Z" fill="#FEFEFE"/>
<path d="M85.9372 246.407C84.2233 247.884 82.0063 248.01 79.9425 248.487C78.8215 248.724 77.6824 248.866 76.5375 248.91C75.3873 248.98 74.2315 248.927 72.5952 248.927C69.5142 249.129 66.4243 248.7 63.5152 247.666C60.3277 246.517 58.8011 243.903 59.1246 240.567C59.2475 239.294 59.6505 238.928 60.8914 239.559C63.6135 240.954 66.6062 241.102 69.5685 241.024C73.1514 240.926 76.7266 240.574 80.3095 240.387C81.2288 240.338 81.889 239.735 82.7214 239.478C84.613 238.894 85.8975 239.355 86.762 241.039C87.7494 242.99 87.4108 245.139 85.9372 246.407Z" fill="#FEFEFE"/>
<path d="M85.3185 235.964C85.171 236.179 84.7359 236.242 84.4162 236.295C79.7513 237.098 75.0619 237.68 70.3119 237.673C67.8867 237.603 65.4465 237.778 63.063 237.122C59.5331 236.155 57.526 232.913 58.3092 229.403C58.5324 228.374 58.888 227.828 60.1119 228.458C62.3498 229.609 64.8109 229.996 67.3003 230.2C67.6996 230.208 68.0924 230.303 68.4504 230.48C72.4551 232.896 76.4541 232.132 80.438 230.48C81.2458 230.146 81.9759 229.769 82.8972 229.749C84.2478 229.717 85.3564 229.998 85.8558 231.355C86.149 232.109 86.2533 232.923 86.1596 233.726C86.066 234.529 85.7773 235.298 85.3185 235.964Z" fill="#FEFEFE"/>
<path d="M86.8117 254.316C86.4844 255.747 85.2984 256.494 84.0555 257.089C80.8927 258.615 77.4441 258.756 73.9805 259.119C69.8698 258.741 65.7687 258.248 63.3681 254.152C62.8385 253.242 61.9607 252.044 62.5188 251.192C63.0995 250.307 64.3272 251.311 65.2258 251.473C70.8781 252.526 76.4642 252.656 82.0617 251.095C85.1168 250.25 87.383 251.825 86.8117 254.316Z" fill="#FEFEFE"/>
<path d="M66.1871 226.93C64.9916 226.719 64.0155 226.624 63.0848 226.363C58.3991 225.078 57.126 220.385 60.478 216.587C62.2278 214.597 64.6397 213.684 67.15 213.101C68.6633 212.746 69.6565 213.162 69.3292 215.033C69.2403 215.544 69.3613 216.09 69.3954 216.735L72.3332 215.891C68.9546 218.819 64.9216 221.267 66.1871 226.93Z" fill="#FEFEFE"/>
<path d="M243.146 121.971C235.282 124.65 227.634 123.954 220.851 118.72C218.08 116.58 217.215 113.363 216.878 109.993C216.776 108.991 217.126 108.724 218.127 108.836C231.159 110.299 242.872 106.923 253.384 99.1788C253.762 98.9009 254.141 98.5985 254.494 98.2979C254.801 98.0408 255.09 97.7705 255.544 97.3679C257.877 109.051 253.183 118.55 243.146 121.971Z" fill="#FEFEFE"/>
<path d="M348.677 206.499C346.682 198.099 344.274 189.84 341.601 181.652C337.102 167.879 332.197 154.27 325.071 141.558C315.195 123.958 301.047 111.93 281.042 107.396C274.548 105.923 268.056 104.46 261.403 103.904C259.782 103.766 258.828 103.449 258.963 101.479C259.097 99.5096 258.836 97.5513 258.751 95.5855C258.721 94.9655 258.794 94.423 259.269 93.9183C263.923 88.957 267.559 83.1324 269.97 76.7739C270.133 76.3486 270.292 75.859 271.043 75.7777C277.853 75.0405 281.984 70.778 284.724 64.9296C288.972 55.8565 284.005 44.7268 274.887 44.6077C274.21 44.6077 274.005 44.3752 273.903 43.6947C273.57 41.4265 273.215 39.1714 272.717 36.9409C269.443 22.2803 261.378 11.2167 247.76 4.58197C237.772 -0.279719 227.268 -1.05093 216.423 1.22491C204.316 3.76539 194.396 9.69128 187.174 19.7719C180.931 28.484 177.868 38.3529 176.868 48.9931C175.876 59.5179 177.097 69.7006 181.029 79.4939C186.213 92.408 195.011 101.784 208.307 106.613C208.875 106.817 209.753 106.511 209.932 107.369C207.59 107.989 205.243 108.524 202.945 109.233C191.016 112.915 180.434 118.703 172.401 128.583C166.454 135.908 162.279 144.17 158.986 152.943C152.932 169.019 149.17 185.706 145.579 202.439C144.955 205.348 143.603 207.164 140.803 208.279C131.017 212.177 120.94 215.052 110.634 217.133C109.216 217.423 107.999 217.264 106.917 215.954C105.5 214.234 103.823 212.708 102.171 211.204C99.8197 209.058 97.3473 207.092 94.1106 206.395C91.2126 205.775 88.4356 206.215 85.653 207.406C85.4297 202.981 85.2462 198.781 84.989 194.589C84.9266 193.606 85.0249 193.165 86.1996 193.076C87.8662 192.953 89.5271 192.566 91.1558 192.171C108.737 187.908 122.915 178.513 133.69 163.986C142.125 152.604 146.958 139.779 147.914 125.644C148.389 118.682 147.873 111.688 146.383 104.87C142.776 88.3289 134.759 74.3487 121.602 63.701C103.327 48.908 82.3331 44.0671 59.2451 48.1103C45.8142 50.458 33.8229 56.1684 24.0694 65.5969C3.71496 85.2705 -4.21495 109.25 2.12596 137.021C8.06393 163.012 24.2472 180.523 49.1436 189.993C54.8943 192.178 60.9344 193.137 67.0105 193.863C67.9336 193.972 68.276 194.197 68.312 195.152C68.4709 199.688 68.6903 204.225 68.9078 208.761C68.9419 209.495 68.7697 209.76 67.9374 209.858C65.4555 210.156 63.1382 211.066 60.9779 212.3C56.5003 214.867 54.7221 219.557 56.4152 224.422C56.6516 225.103 56.6044 225.511 56.2979 226.072C54.4857 229.426 54.5954 232.786 56.4247 236.077C56.8597 236.86 56.7916 237.455 56.5382 238.27C55.354 242.109 56.0161 245.579 58.9614 248.445C59.2811 248.751 59.4967 248.895 59.4192 249.39C58.5831 254.838 62.391 260.087 68.6071 261.42C70.4023 261.798 70.5366 262.469 70.5536 263.913C70.6028 269.206 70.7976 274.487 71.3443 279.751C71.6754 282.929 73.9 285.044 77.0383 285.18C78.6632 285.254 80.29 285.195 81.9188 285.201C86.4039 285.212 89.0901 282.072 88.8783 277.863C88.621 272.725 88.4375 267.582 88.2162 262.374C90.0568 262.215 91.7801 262.497 93.5469 262.102C97.947 261.113 101.492 258.594 105.035 256.07C107.623 254.227 110.451 253.549 113.557 253.382C120.051 253.036 126.553 252.674 133.03 252.082C140.094 251.437 147.17 250.891 154.19 249.768C161.876 248.538 169.573 247.407 175.755 241.548C175.458 247.334 175.201 252.868 174.881 258.393C174.549 264.213 174.136 270.03 173.798 275.854C173.459 281.738 173.168 287.63 172.852 293.52C172.806 294.351 172.774 295.497 173.648 295.599C175.301 295.788 174.889 296.856 174.88 297.769C174.827 303.878 174.73 309.987 174.69 316.104C174.673 318.926 174.743 318.962 177.515 318.962C196.053 318.962 214.6 318.962 233.155 318.962C254.625 318.962 276.096 318.938 297.561 319C299.503 319 300.198 318.473 300.107 316.478C299.953 313.091 300.059 309.693 300.039 306.3C300.039 305.543 300.162 304.922 300.667 304.262C307.119 295.86 313.089 287.108 319.205 278.458C327.4 266.873 335.587 255.299 342.662 242.954C349.249 231.465 351.795 219.611 348.677 206.499ZM198.571 97.7801C189.716 91.3041 184.671 82.231 181.847 71.8347C180.36 66.4968 179.659 60.971 179.766 55.4312C179.858 43.931 182.284 33.0433 188.613 23.2707C195.001 13.4113 204.204 7.37574 215.475 4.68404C229.11 1.42906 241.979 3.3174 253.456 11.7951C261.936 18.0594 266.968 26.6316 269.446 36.7708C269.94 38.7896 270.254 40.848 270.621 42.8952C270.875 44.3072 270.822 45.4942 269.062 46.0481C267.927 46.4072 266.915 47.1539 265.911 47.8211C265.054 48.3882 264.573 49.2293 265.198 50.2331C265.871 51.3218 266.749 50.9778 267.646 50.4599C268.752 49.8248 269.863 49.1802 271.02 48.6585C276.538 46.1898 280.359 49.2898 282.07 53.2499C284.489 58.845 282.673 63.752 278.971 68.1071C275.976 71.6343 272.299 73.5151 267.511 72.1522C266.703 71.9197 265.79 71.9046 265.463 72.8875C265.188 73.6984 265.336 74.5717 266.267 74.9328C267.233 75.3108 266.968 75.7815 266.666 76.5036C260.537 91.1983 249.905 100.874 234.392 104.668C221.519 107.815 209.378 105.679 198.571 97.7801ZM243.146 121.975C235.283 124.654 227.635 123.958 220.851 118.724C218.08 116.584 217.215 113.367 216.879 109.997C216.776 108.995 217.126 108.728 218.127 108.84C231.159 110.303 242.872 106.927 253.384 99.1826C253.763 98.9047 254.141 98.6023 254.495 98.3018C254.801 98.0447 255.09 97.7744 255.544 97.3718C257.877 109.052 253.184 118.55 243.146 121.971V121.975ZM13.9433 118.951C14.5391 87.0681 40.1279 60.0528 74.424 60.4158C107.787 60.7711 134.39 87.2666 134.137 120.777C134.515 152.105 108.493 180.771 73.3419 180.363C39.3371 179.956 13.3152 152.85 13.9433 118.937V118.951ZM60.4785 216.61C62.2283 214.619 64.6402 213.706 67.1505 213.124C68.6638 212.769 69.6569 213.185 69.3297 215.056C69.2408 215.566 69.3618 216.113 69.3959 216.757L72.3337 215.914C68.9551 218.825 64.9221 221.273 66.1876 226.936C64.9921 226.724 64.016 226.63 63.0852 226.369C58.3996 225.087 57.1321 220.394 60.4785 216.596V216.61ZM58.3069 229.416C58.5301 228.388 58.8857 227.842 60.1096 228.471C62.3475 229.622 64.8086 230.01 67.298 230.214C67.6973 230.221 68.0901 230.317 68.4482 230.494C72.4528 232.909 76.4518 232.146 80.4357 230.494C81.2435 230.159 81.9736 229.783 82.8949 229.762C84.2455 229.73 85.3541 230.012 85.8535 231.369C86.1446 232.12 86.2481 232.932 86.1548 233.732C86.0615 234.533 85.7743 235.299 85.3181 235.964C85.1706 236.179 84.7355 236.242 84.4158 236.295C79.7509 237.098 75.0615 237.68 70.3115 237.673C67.8863 237.603 65.4461 237.779 63.0625 237.123C59.5308 236.155 57.5237 232.913 58.3069 229.403V229.416ZM86.8107 254.329C86.4834 255.76 85.2973 256.507 84.0545 257.102C80.8916 258.628 77.4431 258.77 73.9794 259.132C69.8688 258.754 65.7676 258.261 63.3671 254.165C62.8374 253.256 61.9597 252.057 62.5177 251.205C63.0985 250.32 64.3262 251.324 65.2247 251.486C70.8771 252.539 76.4632 252.67 82.0607 251.108C85.1157 250.25 87.382 251.825 86.8107 254.316V254.329ZM85.9367 246.421C84.2228 247.897 82.0058 248.024 79.942 248.5C78.821 248.737 77.6819 248.879 76.537 248.923C75.3868 248.993 74.231 248.94 72.5947 248.94C69.5137 249.143 66.4238 248.714 63.5147 247.68C60.3272 246.53 58.8006 243.916 59.1241 240.58C59.247 239.308 59.65 238.941 60.8909 239.572C63.613 240.967 66.6038 241.115 69.568 241.037C73.1509 240.939 76.7261 240.587 80.309 240.4C81.2283 240.351 81.8885 239.748 82.7209 239.491C84.6125 238.907 85.897 239.368 86.7615 241.052C87.7489 242.99 87.4103 245.139 85.9367 246.407V246.421ZM170.26 242.073C165.835 244.68 160.917 245.736 155.955 246.458C149.213 247.436 142.43 248.175 135.65 248.865C131.271 249.309 126.867 249.472 122.473 249.764C118.351 250.039 114.212 250.211 110.103 250.642C106.866 250.98 104.286 252.934 101.674 254.704C98.6128 256.783 95.5843 258.913 91.7233 259.218C91.1199 259.263 90.5165 259.218 89.9111 259.238C88.2313 259.272 88.0913 258.509 88.8556 257.237C90.2062 254.982 90.333 252.713 88.9558 250.384C88.377 249.407 88.5075 248.574 89.1809 247.456C90.6508 245.011 90.5202 242.302 89.2755 239.725C88.4186 237.954 88.638 236.242 89.2585 234.179C91.4585 237.295 94.1939 238.975 97.4911 239.831C98.6412 240.128 99.8008 240.177 100.221 238.905C100.682 237.506 99.5227 237.041 98.4331 236.745C92.3192 235.079 90.4635 232.552 90.4294 225.982C90.4294 224.696 91.205 223.029 89.7238 222.241C88.2748 221.468 87.3365 223.057 86.1978 223.67C82.7209 225.534 79.5769 228.082 75.559 228.815C75.2922 228.864 75.0312 228.945 74.7663 228.976C71.804 229.293 70.0731 228.582 69.237 226.707C68.3422 224.717 68.8813 222.738 71.1287 220.848C75.7122 216.952 80.7289 213.629 85.9859 210.75C90.7889 208.104 95.3875 209.024 99.4906 212.911C101.017 214.358 102.633 215.746 103.93 217.392C106.011 220.007 108.355 220.81 111.698 220.076C122.23 217.768 132.593 214.986 142.547 210.765C145.977 209.313 147.844 206.985 148.449 203.319C149.017 199.885 149.951 196.515 150.677 193.112C150.878 192.182 150.991 191.884 152.191 192.182C160.688 194.294 168.996 197.019 177.35 199.609C178.186 199.87 178.232 200.176 178.19 200.836C177.812 207.396 177.433 213.956 177.055 220.517C176.866 224.108 176.633 227.7 176.527 231.28C176.399 236.024 174.39 239.618 170.254 242.056L170.26 242.073ZM266.083 295.331C260.497 295.915 254.922 296.595 249.319 296.99C238.536 297.746 227.737 297.705 216.941 297.419C208.408 297.195 199.9 296.556 191.417 295.503C186.66 294.903 181.919 294.21 177.193 293.423C176.032 293.234 175.969 292.779 176.026 291.849C176.586 282.171 177.128 272.493 177.651 262.817C177.974 256.859 178.205 250.908 178.561 244.946C179.022 237.238 179.582 229.533 180.074 221.827C180.409 216.549 180.655 211.268 181.02 205.99C181.485 199.168 181.99 192.347 182.533 185.527C182.949 180.196 183.398 174.87 183.88 169.549C184.215 165.768 184.684 162.012 184.962 158.235C185.047 157.052 185.95 155.211 183.892 154.909C181.606 154.565 182.04 156.727 181.93 157.918C181.007 168.093 180.28 178.293 179.314 188.462C179.053 191.216 179.223 194.025 178.428 196.741C172.583 194.959 166.751 193.161 160.902 191.411C158.128 190.583 155.34 189.819 152.541 189.12C151.882 188.952 151.595 188.854 151.784 188.096C155.702 172.571 159.555 157.033 166.815 142.607C175.564 125.217 189.894 115.199 208.578 110.851C210.15 110.488 211.953 109.673 213.292 110.125C214.889 110.664 214.018 112.908 214.512 114.354C216.201 119.289 219.389 122.671 224.315 124.395C233.813 127.71 242.893 127.495 251.133 121.005C255.028 117.939 257.595 113.996 258.492 109.05C258.921 106.687 259.313 106.479 261.81 106.848C267.549 107.687 273.247 108.759 278.907 110.019C288.176 112.087 296.751 115.59 304.354 121.406C313.169 128.147 319.364 136.923 324.426 146.609C330.523 158.271 334.934 170.615 338.971 183.109C339.37 184.347 339.094 184.463 337.906 184.638C325.09 186.563 312.484 189.286 300.619 194.736C299.019 195.469 297.424 196.235 296.079 197.35C295.031 198.214 294.689 197.847 294.35 196.794C291.918 189.254 289.443 181.722 287.02 174.178C285.456 169.32 283.993 164.43 282.408 159.578C282.081 158.566 281.882 156.931 280.307 157.436C278.78 157.922 279.189 159.326 279.584 160.543C286.016 180.425 292.45 200.308 298.888 220.192C299.491 221.923 299.399 223.82 298.631 225.484C289.597 245.838 280.58 266.199 271.582 286.565C270.574 288.845 269.484 291.102 268.627 293.429C268.149 294.735 267.252 295.187 266.083 295.314V295.331ZM341.062 239.504C334.441 251.791 326.365 263.132 318.333 274.511C309.003 287.743 299.639 300.943 289.769 313.785C288.707 315.163 287.688 315.692 286.004 314.959C279.936 312.312 274.484 308.846 270.44 303.476C269.115 301.733 268.892 299.935 269.83 297.826C279.904 275.254 289.784 252.596 300.052 230.112C302.322 225.157 302.759 220.761 300.686 215.761C298.902 211.463 297.759 206.903 296.221 202.495C295.858 201.456 296.007 200.995 296.91 200.378C303.2 196.069 310.365 193.934 317.586 191.925C324.585 189.971 331.7 188.629 338.875 187.515C339.997 187.341 340.441 187.704 340.748 188.649C343.407 197.017 345.821 205.446 346.848 214.202C347.037 215.74 346.873 217.319 346.873 218.876C347.289 226.388 344.525 233.06 341.062 239.487V239.504Z" fill="#BCBCBC"/>
<path d="M77.7171 133.948C82.464 138.711 87.2266 143.459 92.005 148.191C94.9522 151.119 96.9347 151.098 99.9198 148.125C100.676 147.357 101.465 146.599 102.237 145.832C105.126 142.953 105.09 141.074 102.139 138.14C96.5526 132.587 91.0062 126.988 85.386 121.478C84.3853 120.499 84.3531 119.966 85.3765 118.966C91.148 113.308 96.8496 107.579 102.551 101.853C104.804 99.5984 104.787 97.2829 102.551 94.973C101.56 93.9504 100.54 92.9561 99.5244 91.9486C96.859 89.3023 94.7479 89.325 92.0541 92.0375L74.1097 110.136C67.8331 103.868 61.6946 97.7139 55.5315 91.5895C53.4166 89.4894 51.0747 89.4724 48.9315 91.5196C47.9043 92.5025 46.949 93.5667 45.9615 94.595C43.124 97.5626 43.1486 99.4566 46.0826 102.392C51.7028 108.008 57.2984 113.649 62.9564 119.227C63.8568 120.115 63.9022 120.58 62.9564 121.506C57.1395 127.217 51.3888 132.995 45.6437 138.77C43.3624 141.068 43.3945 143.35 45.6759 145.669C46.7258 146.733 47.7567 147.815 48.8596 148.822C51.0104 150.788 53.148 150.795 55.3367 148.883C56.0499 148.259 56.7082 147.559 57.3721 146.888C62.8467 141.331 68.3155 135.768 74.0454 129.944C75.4263 131.449 76.5216 132.749 77.7171 133.948Z" fill="#BCBCBC"/>
<path d="M232.925 90.7371C233.557 89.6842 232.843 89.1001 232.202 88.5009C231.891 88.2469 231.553 88.0282 231.194 87.8488C228.056 86.0266 224.688 85.0437 220.856 85.2025C219.604 85.1004 218.208 85.2762 216.812 85.5805C214.07 86.2073 211.497 87.4196 209.269 89.1342C208.373 89.8184 207.527 90.6104 208.324 91.8202C209.163 93.098 210.164 92.4742 211.095 91.841C211.43 91.616 211.747 91.3684 212.082 91.1473C214.837 89.3496 217.774 88.2968 221.147 88.4121C224.52 88.5274 227.554 89.6181 230.488 91.1718C231.338 91.6085 232.259 91.8334 232.925 90.7371Z" fill="#BCBCBC"/>
<path d="M230.667 53.5278C230.135 52.5165 229.398 51.8058 228.168 51.7736C227.007 51.7453 226.21 52.3691 225.769 53.3312C224.158 56.8886 224.039 60.5387 225.769 64.0413C226.905 66.3285 229.454 66.1829 230.652 63.9222C231.499 62.3287 231.668 60.5954 231.573 58.845C231.666 56.9907 231.545 55.2006 230.667 53.5278Z" fill="#BCBCBC"/>
<path d="M198.251 51.3256C196.785 51.3502 196.047 52.2461 195.621 53.454C194.499 56.5074 194.515 59.8627 195.667 62.9052C196.132 64.166 197.01 64.9599 198.361 64.9636C199.711 64.9674 200.491 64.0922 201.075 62.9052C201.817 61.393 201.832 59.7976 201.862 58.6427C201.9 56.4973 201.781 54.8377 201.013 53.2801C200.432 52.1082 199.673 51.3048 198.251 51.3256Z" fill="#BCBCBC"/>
<path d="M212.654 79.8323C213.6 79.596 214.534 79.0762 214.375 77.942C214.245 76.9705 213.448 76.5433 212.425 76.6189C211.748 76.668 211.07 76.6397 210.391 76.6283C208.642 76.5943 207.274 75.9214 206.523 74.2542C205.772 72.587 206.712 71.4736 207.817 70.3924C209.213 69.0296 210.698 67.7253 211.666 65.9882C212.135 65.147 212.559 64.1206 211.568 63.4477C210.577 62.7748 209.756 63.2303 209.022 64.1887C207.955 65.5864 206.797 66.9124 205.556 68.1582C203.462 70.2715 202.132 72.6569 203.511 75.5736C204.89 78.4902 207.332 79.9627 210.454 79.9627C211.305 79.9249 212.009 79.9948 212.654 79.8323Z" fill="#BCBCBC"/>
<path d="M224.431 44.4905C228.722 46.6359 233.305 47.7814 238.203 48.494C239.014 48.3844 239.985 48.0706 240.059 46.9365C240.121 45.9592 239.466 45.3789 238.426 45.2353C237.23 45.0803 236.052 44.81 234.868 44.5869C231.765 44.0028 228.867 42.812 225.933 41.7119C224.988 41.3565 224.019 41.417 223.55 42.5436C223.158 43.4811 223.648 44.0992 224.431 44.4905Z" fill="#BCBCBC"/>
<path d="M202.69 39.1336C202.07 38.3775 201.262 38.0977 200.42 38.7423C197.183 41.2299 193.65 43.0161 189.568 43.6853C188.622 43.8403 188.196 44.6796 188.34 45.7116C188.495 46.7891 189.212 46.9554 190.146 46.9478C194.707 46.1484 198.968 44.1322 202.476 41.1127C203.127 40.5588 203.265 39.8368 202.69 39.1336Z" fill="#BCBCBC"/>
</g>
<path d="M24.3018 340.52L31.2138 340.648L30.1898 388.456H21.7418C18.4138 388.456 17.5178 385.128 16.1098 379.496C15.2138 376.104 14.1258 371.304 12.8458 365.352C11.8858 360.68 10.9258 356.008 10.2218 352.296C10.0298 354.984 9.90175 357.736 9.83775 359.464C9.70975 361.32 10.0298 366.44 10.3498 371.432C10.7338 376.552 11.0538 381.864 11.0538 385H4.14175C4.14175 382.056 3.82175 376.872 3.50175 371.88C3.11775 366.248 2.79775 361.384 2.92575 359.144C3.11775 355.176 3.69375 345.32 3.82175 344.168C3.94975 343.144 4.46175 342.184 5.29375 341.544C5.86975 341.032 7.34175 339.944 12.7178 340.84L15.1498 341.224L15.5978 343.592C18.2858 358.056 21.6138 373.928 23.4698 380.328L24.3018 340.52ZM53.9163 343.848C58.8443 348.776 59.3563 357.16 58.9723 363.368C58.2043 375.976 53.0843 383.976 45.3403 384.68C45.0203 384.68 44.7003 384.68 44.3163 384.68C41.9483 384.68 39.7723 383.912 38.0443 382.376C34.5883 379.304 32.8603 373.608 32.5403 364.52C32.0922 349.864 36.3802 340.584 43.8043 340.2C47.8363 339.944 51.3563 341.224 53.9163 343.848ZM52.1243 362.92C52.5083 356.264 51.4203 351.08 49.0522 348.712C47.9643 347.624 46.4923 347.048 44.6363 347.048C44.5083 347.048 44.3163 347.048 44.1243 347.048C42.0123 347.176 39.0683 352.744 39.4523 364.264C39.7723 373.352 41.5642 376.232 42.5883 377.192C43.0363 377.512 43.5483 377.896 44.7003 377.768C48.7323 377.384 51.5483 371.752 52.1243 362.92ZM93.5138 370.088C101.322 378.152 102.282 382.12 102.282 384.36H95.3698C95.3698 382.184 90.1218 375.912 83.6578 370.152L83.5938 385.064L76.7458 385L76.8098 364.264H76.7458H76.8098L76.9378 340.136L79.8818 339.752C90.6338 338.152 94.2178 339.688 96.4578 341.672C98.6978 343.528 99.7858 346.408 99.7858 350.376C99.8498 357.736 93.7698 363.048 89.2898 365.864C90.5698 367.08 92.0417 368.488 93.5138 370.088ZM83.7218 361.192C87.3058 359.208 92.9378 355.176 92.8738 350.44C92.8738 348.584 92.5538 347.432 91.9778 346.856C90.8898 345.96 88.1378 345.704 83.7858 346.216L83.7218 361.192ZM113.209 378.152C117.881 377.832 118.585 369.384 118.585 369.256L125.497 369.704C125.433 370.024 125.241 373.224 123.897 376.616C121.913 381.736 118.265 384.744 113.657 385.064C113.337 385.064 112.953 385.064 112.633 385.064C109.689 385.064 107.257 384.232 105.337 382.44C101.369 378.856 100.729 372.648 100.601 366.504C100.473 361.96 101.177 357.224 102.521 353.192C104.185 348.136 106.809 344.488 110.137 342.696C114.809 340.2 118.265 341.416 119.865 342.376C123.449 344.488 125.497 349.16 125.497 355.112C125.497 357.992 123.129 360.808 118.201 363.944C115.769 365.544 112.825 367.08 110.073 368.232C109.113 368.68 108.281 369 107.577 369.192C107.769 372.136 108.345 375.848 109.945 377.32C110.393 377.768 111.289 378.28 113.209 378.152ZM113.401 348.776C110.585 350.312 108.345 355.624 107.705 361.768C108.921 361.192 110.457 360.488 111.993 359.592C116.409 357.16 118.137 355.368 118.585 354.792C118.521 351.208 117.369 348.968 116.345 348.328C116.089 348.2 115.833 348.136 115.513 348.136C114.809 348.136 114.041 348.456 113.401 348.776ZM139.412 361.192C147.668 363.816 150.548 370.664 149.78 376.296C149.012 382.056 144.532 386.216 138.964 386.344C138.708 386.408 138.516 386.408 138.324 386.408C134.484 386.408 131.412 385.256 129.3 382.952C127.636 381.16 125.716 377.832 126.292 371.944V371.816L133.204 372.264C133.204 372.328 133.204 372.456 133.14 372.648C132.884 375.912 133.652 377.448 134.292 378.216C135.188 379.112 136.66 379.56 138.708 379.496C141.46 379.368 142.676 377.256 142.932 375.336C143.316 372.776 142.036 369.256 137.364 367.784C128.212 364.968 125.716 357.992 126.356 352.936C127.124 347.048 131.732 342.696 137.556 342.376C142.676 342.056 145.428 343.976 146.772 345.64C149.908 349.416 148.756 354.472 148.628 355.048L145.3 354.216L141.908 353.448C142.1 352.744 142.164 350.952 141.46 350.056C140.756 349.224 138.964 349.16 137.94 349.224C135.06 349.416 133.524 351.656 133.204 353.832C132.82 357.096 135.124 359.912 139.412 361.192ZM175.18 346.472C175.18 347.368 175.82 367.592 174.86 373.992C173.772 381.288 169.292 385.576 162.508 385.832C162.38 385.832 162.252 385.832 162.188 385.832C156.684 385.832 152.652 380.584 151.308 371.624C150.412 365.416 151.244 344.36 151.308 343.464L158.156 343.784C157.964 349.672 157.452 365.992 158.156 370.6C158.732 374.632 160.46 378.92 162.188 378.92C162.188 378.92 162.188 378.92 162.252 378.92C165.644 378.792 167.436 376.936 168.012 372.968C168.716 368.168 168.46 352.36 168.268 346.728L175.18 346.472ZM184.347 379.432C187.931 378.856 192.795 378.216 195.355 378.536L194.523 385.384C192.475 385.128 185.691 386.152 181.531 386.92L177.435 387.688L177.563 340.584L184.475 340.648L184.347 379.432ZM205.114 340.84C219.578 339.624 223.482 340.328 225.274 341.032L222.65 347.432C221.434 346.984 217.21 346.984 211.322 347.304C210.938 353 210.234 363.816 210.49 367.976C210.874 374.12 210.49 385 210.426 385.448L203.578 385.192C203.578 385.064 203.962 374.184 203.642 368.424C203.386 364.072 203.962 353.832 204.41 347.816C200.186 348.136 195.642 348.648 190.97 349.224L190.138 342.376C190.202 342.312 197.37 341.48 205.114 340.84ZM265.171 340.776C268.307 344.872 267.027 350.44 266.899 351.08L260.179 349.416C260.435 348.456 260.563 346.152 259.731 345C259.219 344.36 258.195 344.04 256.659 344.04C254.803 344.04 254.035 344.68 253.587 345.128C251.539 347.496 252.051 353.384 252.435 356.712L257.427 356.264L258.067 363.112L252.947 363.56C253.075 371.56 252.819 384.424 252.819 385.128L245.907 384.936C245.907 384.808 246.163 372.072 246.035 364.2L240.659 364.712L240.083 357.8L245.587 357.288C245.011 352.616 244.435 345.128 248.403 340.584C249.811 339.048 252.371 337.128 256.659 337.128C261.331 337.128 263.891 339.112 265.171 340.776ZM270.559 359.912C269.023 358.504 267.231 355.944 267.231 351.784C267.231 343.144 274.079 340.008 278.751 340.008C282.847 340.008 286.047 341.096 288.223 343.336C290.271 345.32 291.295 348.072 291.295 351.464C291.295 356.84 288.543 359.592 286.239 360.936C283.615 362.472 280.671 362.728 279.455 362.856C279.199 362.856 278.879 362.856 278.559 362.856C276.191 362.856 272.927 362.152 270.559 359.912ZM278.751 346.92C277.983 346.92 274.079 347.176 274.079 351.784C274.079 353.128 274.463 354.152 275.231 354.792C276.255 355.816 277.983 356.072 278.879 355.944C282.975 355.624 284.383 354.472 284.383 351.464C284.383 349.928 284.063 348.904 283.359 348.2C282.271 347.112 280.287 346.92 278.751 346.92ZM283.999 363.368L290.911 363.176C290.975 364.136 291.167 372.392 290.591 376.104C289.823 381.48 285.535 384.744 279.263 384.744C275.551 384.744 269.215 383.464 267.871 374.76C267.359 371.048 267.487 363.752 267.551 363.432L274.399 363.624C274.399 365.544 274.335 371.176 274.719 373.736C275.167 376.872 276.319 377.832 279.263 377.832C283.359 377.832 283.615 376.04 283.743 375.08C284.127 372.456 284.063 365.736 283.999 363.368ZM314.114 340.52L321.026 340.648L320.002 388.456H311.554C308.226 388.456 307.33 385.128 305.922 379.496C305.026 376.104 303.938 371.304 302.658 365.352C301.698 360.68 300.738 356.008 300.034 352.296C299.842 354.984 299.714 357.736 299.65 359.464C299.522 361.32 299.842 366.44 300.162 371.432C300.546 376.552 300.866 381.864 300.866 385H293.954C293.954 382.056 293.634 376.872 293.314 371.88C292.93 366.248 292.61 361.384 292.738 359.144C292.93 355.176 293.506 345.32 293.634 344.168C293.762 343.144 294.274 342.184 295.106 341.544C295.682 341.032 297.154 339.944 302.53 340.84L304.962 341.224L305.41 343.592C308.098 358.056 311.426 373.928 313.282 380.328L314.114 340.52ZM340.657 343.72C345.265 347.24 347.633 353.384 347.633 361.896C347.633 371.56 345.073 378.344 340.081 382.056C336.817 384.424 333.297 385.064 330.481 385.064C327.793 385.064 325.809 384.488 325.681 384.424L323.249 383.656V341.672L325.745 340.968C326.129 340.904 334.257 338.792 340.657 343.72ZM335.985 376.488C339.121 374.12 340.785 369.064 340.785 361.896C340.785 355.688 339.313 351.4 336.497 349.224C334.449 347.624 331.953 347.304 330.097 347.368V378.152C331.825 378.216 334.065 377.96 335.985 376.488Z" fill="#BCBCBC"/>
<defs>
<clipPath id="clip0_648_7000">
<rect width="350" height="319" fill="white"/>
</clipPath>
</defs>
</svg>
